<?xml version="1.0" encoding="utf-8" standalone="no"?>
<!DOCTYPE svg PUBLIC "-//W3C//DTD SVG 1.1//EN"
  "http://www.w3.org/Graphics/SVG/1.1/DTD/svg11.dtd">
<!-- Created with matplotlib (https://matplotlib.org/) -->
<svg height="360pt" version="1.1" viewBox="0 0 720 360" width="720pt" xmlns="http://www.w3.org/2000/svg" xmlns:xlink="http://www.w3.org/1999/xlink">
 <defs>
  <style type="text/css">
*{stroke-linecap:butt;stroke-linejoin:round;}
  </style>
 </defs>
 <g id="figure_1">
  <g id="patch_1">
   <path d="M 0 360 
L 720 360 
L 720 0 
L 0 0 
z
" style="fill:#ffffff;"/>
  </g>
  <g id="axes_1">
   <g id="patch_2">
    <path d="M 48.89 309.219036 
L 709.2 309.219036 
L 709.2 10.8 
L 48.89 10.8 
z
" style="fill:#eaeaf2;"/>
   </g>
   <g id="matplotlib.axis_1">
    <g id="xtick_1">
     <g id="line2d_1"/>
     <g id="text_1">
      <!-- 0 -->
      <defs>
       <path d="M 51.703125 34.421875 
Q 51.703125 24.515625 49.828125 17.75 
Q 47.953125 10.984375 44.703125 6.8125 
Q 41.453125 2.640625 37.0625 0.828125 
Q 32.671875 -0.984375 27.6875 -0.984375 
Q 22.65625 -0.984375 18.3125 0.828125 
Q 13.96875 2.640625 10.765625 6.78125 
Q 7.5625 10.9375 5.734375 17.703125 
Q 3.90625 24.46875 3.90625 34.421875 
Q 3.90625 44.828125 5.734375 51.640625 
Q 7.5625 58.453125 10.78125 62.5 
Q 14.015625 66.546875 18.40625 68.1875 
Q 22.796875 69.828125 27.984375 69.828125 
Q 32.90625 69.828125 37.21875 68.1875 
Q 41.546875 66.546875 44.765625 62.5 
Q 48 58.453125 49.84375 51.640625 
Q 51.703125 44.828125 51.703125 34.421875 
z
M 42.78125 34.421875 
Q 42.78125 42.625 41.796875 48.0625 
Q 40.828125 53.515625 38.921875 56.765625 
Q 37.015625 60.015625 34.25 61.359375 
Q 31.5 62.703125 27.984375 62.703125 
Q 24.265625 62.703125 21.4375 61.328125 
Q 18.609375 59.96875 16.671875 56.71875 
Q 14.75 53.46875 13.765625 48.015625 
Q 12.796875 42.578125 12.796875 34.421875 
Q 12.796875 26.515625 13.796875 21.09375 
Q 14.796875 15.671875 16.71875 12.375 
Q 18.65625 9.078125 21.4375 7.640625 
Q 24.21875 6.203125 27.78125 6.203125 
Q 31.25 6.203125 34.03125 7.640625 
Q 36.8125 9.078125 38.734375 12.375 
Q 40.671875 15.671875 41.71875 21.09375 
Q 42.78125 26.515625 42.78125 34.421875 
z
" id="LiberationSans-48"/>
      </defs>
      <g style="fill:#262626;" transform="translate(78.766537 325.275527)rotate(-45)scale(0.1 -0.1)">
       <use xlink:href="#LiberationSans-48"/>
      </g>
     </g>
    </g>
    <g id="xtick_2">
     <g id="line2d_2"/>
     <g id="text_2">
      <!-- 20 -->
      <defs>
       <path d="M 5.03125 0 
L 5.03125 6.203125 
Q 7.515625 11.921875 11.109375 16.28125 
Q 14.703125 20.65625 18.65625 24.1875 
Q 22.609375 27.734375 26.484375 30.765625 
Q 30.375 33.796875 33.5 36.8125 
Q 36.625 39.84375 38.546875 43.15625 
Q 40.484375 46.484375 40.484375 50.6875 
Q 40.484375 53.609375 39.59375 55.828125 
Q 38.71875 58.0625 37.0625 59.5625 
Q 35.40625 61.078125 33.078125 61.828125 
Q 30.765625 62.59375 27.9375 62.59375 
Q 25.296875 62.59375 22.96875 61.859375 
Q 20.65625 61.140625 18.84375 59.671875 
Q 17.046875 58.203125 15.890625 56.03125 
Q 14.75 53.859375 14.40625 50.984375 
L 5.421875 51.8125 
Q 5.859375 55.515625 7.46875 58.78125 
Q 9.078125 62.0625 11.90625 64.53125 
Q 14.75 67 18.71875 68.40625 
Q 22.703125 69.828125 27.9375 69.828125 
Q 33.0625 69.828125 37.0625 68.609375 
Q 41.0625 67.390625 43.8125 64.984375 
Q 46.578125 62.59375 48.046875 59.078125 
Q 49.515625 55.5625 49.515625 50.984375 
Q 49.515625 47.515625 48.265625 44.390625 
Q 47.015625 41.265625 44.9375 38.421875 
Q 42.875 35.59375 40.140625 32.953125 
Q 37.40625 30.328125 34.421875 27.8125 
Q 31.453125 25.296875 28.421875 22.828125 
Q 25.390625 20.359375 22.71875 17.859375 
Q 20.0625 15.375 17.96875 12.8125 
Q 15.875 10.25 14.703125 7.46875 
L 50.59375 7.46875 
L 50.59375 0 
z
" id="LiberationSans-50"/>
      </defs>
      <g style="fill:#262626;" transform="translate(185.942597 329.207703)rotate(-45)scale(0.1 -0.1)">
       <use xlink:href="#LiberationSans-50"/>
       <use x="55.615234" xlink:href="#LiberationSans-48"/>
      </g>
     </g>
    </g>
    <g id="xtick_3">
     <g id="line2d_3"/>
     <g id="text_3">
      <!-- 40 -->
      <defs>
       <path d="M 43.015625 15.578125 
L 43.015625 0 
L 34.71875 0 
L 34.71875 15.578125 
L 2.296875 15.578125 
L 2.296875 22.40625 
L 33.796875 68.796875 
L 43.015625 68.796875 
L 43.015625 22.515625 
L 52.6875 22.515625 
L 52.6875 15.578125 
z
M 34.71875 58.890625 
Q 34.625 58.640625 34.234375 57.9375 
Q 33.84375 57.234375 33.34375 56.34375 
Q 32.859375 55.46875 32.34375 54.5625 
Q 31.84375 53.65625 31.453125 53.078125 
L 13.8125 27.09375 
Q 13.578125 26.703125 13.109375 26.0625 
Q 12.640625 25.4375 12.15625 24.78125 
Q 11.671875 24.125 11.171875 23.484375 
Q 10.6875 22.859375 10.40625 22.515625 
L 34.71875 22.515625 
z
" id="LiberationSans-52"/>
      </defs>
      <g style="fill:#262626;" transform="translate(295.084746 329.207703)rotate(-45)scale(0.1 -0.1)">
       <use xlink:href="#LiberationSans-52"/>
       <use x="55.615234" xlink:href="#LiberationSans-48"/>
      </g>
     </g>
    </g>
    <g id="xtick_4">
     <g id="line2d_4"/>
     <g id="text_4">
      <!-- 60 -->
      <defs>
       <path d="M 51.21875 22.515625 
Q 51.21875 17.328125 49.78125 13 
Q 48.34375 8.6875 45.53125 5.578125 
Q 42.71875 2.484375 38.5625 0.75 
Q 34.421875 -0.984375 29 -0.984375 
Q 23 -0.984375 18.5 1.3125 
Q 14.015625 3.609375 11.03125 7.921875 
Q 8.0625 12.25 6.5625 18.53125 
Q 5.078125 24.8125 5.078125 32.8125 
Q 5.078125 42 6.765625 48.921875 
Q 8.453125 55.859375 11.625 60.5 
Q 14.796875 65.140625 19.359375 67.484375 
Q 23.921875 69.828125 29.6875 69.828125 
Q 33.203125 69.828125 36.28125 69.09375 
Q 39.359375 68.359375 41.875 66.71875 
Q 44.390625 65.09375 46.28125 62.40625 
Q 48.1875 59.71875 49.3125 55.8125 
L 40.921875 54.296875 
Q 39.546875 58.734375 36.546875 60.71875 
Q 33.546875 62.703125 29.59375 62.703125 
Q 25.984375 62.703125 23.046875 60.984375 
Q 20.125 59.28125 18.0625 55.875 
Q 16.015625 52.484375 14.90625 47.359375 
Q 13.8125 42.234375 13.8125 35.40625 
Q 16.21875 39.84375 20.5625 42.15625 
Q 24.90625 44.484375 30.515625 44.484375 
Q 35.203125 44.484375 39.015625 42.96875 
Q 42.828125 41.453125 45.53125 38.59375 
Q 48.25 35.75 49.734375 31.671875 
Q 51.21875 27.59375 51.21875 22.515625 
z
M 42.28125 22.125 
Q 42.28125 25.6875 41.40625 28.5625 
Q 40.53125 31.453125 38.765625 33.46875 
Q 37.015625 35.5 34.421875 36.59375 
Q 31.84375 37.703125 28.421875 37.703125 
Q 26.03125 37.703125 23.578125 36.984375 
Q 21.140625 36.28125 19.15625 34.6875 
Q 17.1875 33.109375 15.9375 30.515625 
Q 14.703125 27.9375 14.703125 24.21875 
Q 14.703125 20.40625 15.671875 17.109375 
Q 16.65625 13.8125 18.484375 11.375 
Q 20.3125 8.9375 22.890625 7.515625 
Q 25.484375 6.109375 28.71875 6.109375 
Q 31.890625 6.109375 34.40625 7.203125 
Q 36.921875 8.296875 38.671875 10.375 
Q 40.4375 12.453125 41.359375 15.421875 
Q 42.28125 18.40625 42.28125 22.125 
z
" id="LiberationSans-54"/>
      </defs>
      <g style="fill:#262626;" transform="translate(404.226895 329.207703)rotate(-45)scale(0.1 -0.1)">
       <use xlink:href="#LiberationSans-54"/>
       <use x="55.615234" xlink:href="#LiberationSans-48"/>
      </g>
     </g>
    </g>
    <g id="xtick_5">
     <g id="line2d_5"/>
     <g id="text_5">
      <!-- 80 -->
      <defs>
       <path d="M 51.265625 19.1875 
Q 51.265625 14.796875 49.875 11.109375 
Q 48.484375 7.421875 45.625 4.734375 
Q 42.78125 2.046875 38.328125 0.53125 
Q 33.890625 -0.984375 27.828125 -0.984375 
Q 21.78125 -0.984375 17.359375 0.53125 
Q 12.9375 2.046875 10.03125 4.703125 
Q 7.125 7.375 5.734375 11.0625 
Q 4.34375 14.75 4.34375 19.09375 
Q 4.34375 22.859375 5.484375 25.78125 
Q 6.640625 28.71875 8.5625 30.828125 
Q 10.5 32.953125 12.96875 34.25 
Q 15.4375 35.546875 18.0625 35.984375 
L 18.0625 36.1875 
Q 15.1875 36.859375 12.90625 38.375 
Q 10.640625 39.890625 9.09375 42.015625 
Q 7.5625 44.140625 6.75 46.71875 
Q 5.953125 49.3125 5.953125 52.203125 
Q 5.953125 55.8125 7.34375 59 
Q 8.734375 62.203125 11.46875 64.625 
Q 14.203125 67.046875 18.25 68.4375 
Q 22.3125 69.828125 27.640625 69.828125 
Q 33.25 69.828125 37.375 68.40625 
Q 41.5 67 44.203125 64.578125 
Q 46.921875 62.15625 48.234375 58.9375 
Q 49.5625 55.71875 49.5625 52.09375 
Q 49.5625 49.265625 48.75 46.671875 
Q 47.953125 44.09375 46.40625 41.96875 
Q 44.875 39.84375 42.59375 38.34375 
Q 40.328125 36.859375 37.359375 36.28125 
L 37.359375 36.078125 
Q 40.328125 35.59375 42.859375 34.296875 
Q 45.40625 33.015625 47.265625 30.890625 
Q 49.125 28.765625 50.1875 25.828125 
Q 51.265625 22.90625 51.265625 19.1875 
z
M 40.4375 51.609375 
Q 40.4375 54.203125 39.765625 56.34375 
Q 39.109375 58.5 37.59375 60.03125 
Q 36.078125 61.578125 33.640625 62.421875 
Q 31.203125 63.28125 27.640625 63.28125 
Q 24.171875 63.28125 21.78125 62.421875 
Q 19.390625 61.578125 17.84375 60.03125 
Q 16.3125 58.5 15.625 56.34375 
Q 14.9375 54.203125 14.9375 51.609375 
Q 14.9375 49.5625 15.46875 47.40625 
Q 16.015625 45.265625 17.421875 43.5 
Q 18.84375 41.75 21.328125 40.625 
Q 23.828125 39.5 27.734375 39.5 
Q 31.890625 39.5 34.40625 40.625 
Q 36.921875 41.75 38.25 43.5 
Q 39.59375 45.265625 40.015625 47.40625 
Q 40.4375 49.5625 40.4375 51.609375 
z
M 42.140625 20.015625 
Q 42.140625 22.515625 41.453125 24.828125 
Q 40.765625 27.15625 39.109375 28.9375 
Q 37.453125 30.71875 34.640625 31.8125 
Q 31.84375 32.90625 27.640625 32.90625 
Q 23.78125 32.90625 21.0625 31.8125 
Q 18.359375 30.71875 16.671875 28.90625 
Q 14.984375 27.09375 14.203125 24.71875 
Q 13.421875 22.359375 13.421875 19.828125 
Q 13.421875 16.65625 14.203125 14.03125 
Q 14.984375 11.421875 16.6875 9.546875 
Q 18.40625 7.671875 21.1875 6.640625 
Q 23.96875 5.609375 27.9375 5.609375 
Q 31.9375 5.609375 34.671875 6.640625 
Q 37.40625 7.671875 39.0625 9.546875 
Q 40.71875 11.421875 41.421875 14.078125 
Q 42.140625 16.75 42.140625 20.015625 
z
" id="LiberationSans-56"/>
      </defs>
      <g style="fill:#262626;" transform="translate(513.369043 329.207703)rotate(-45)scale(0.1 -0.1)">
       <use xlink:href="#LiberationSans-56"/>
       <use x="55.615234" xlink:href="#LiberationSans-48"/>
      </g>
     </g>
    </g>
    <g id="xtick_6">
     <g id="line2d_6"/>
     <g id="text_6">
      <!-- 100 -->
      <defs>
       <path d="M 7.625 0 
L 7.625 7.46875 
L 25.140625 7.46875 
L 25.140625 60.40625 
L 9.625 49.3125 
L 9.625 57.625 
L 25.875 68.796875 
L 33.984375 68.796875 
L 33.984375 7.46875 
L 50.734375 7.46875 
L 50.734375 0 
z
" id="LiberationSans-49"/>
      </defs>
      <g style="fill:#262626;" transform="translate(620.545104 333.13988)rotate(-45)scale(0.1 -0.1)">
       <use xlink:href="#LiberationSans-49"/>
       <use x="55.615234" xlink:href="#LiberationSans-48"/>
       <use x="111.230469" xlink:href="#LiberationSans-48"/>
      </g>
     </g>
    </g>
    <g id="text_7">
     <!-- Days since case nº20 -->
     <defs>
      <path d="M 67.4375 35.109375 
Q 67.4375 26.515625 64.84375 19.9375 
Q 62.25 13.375 57.75 8.953125 
Q 53.265625 4.546875 47.140625 2.265625 
Q 41.015625 0 33.9375 0 
L 8.203125 0 
L 8.203125 68.796875 
L 30.953125 68.796875 
Q 38.921875 68.796875 45.625 66.8125 
Q 52.34375 64.84375 57.171875 60.71875 
Q 62.015625 56.59375 64.71875 50.234375 
Q 67.4375 43.890625 67.4375 35.109375 
z
M 58.0625 35.109375 
Q 58.0625 42.09375 56.046875 47.046875 
Q 54.046875 52 50.4375 55.171875 
Q 46.828125 58.34375 41.796875 59.828125 
Q 36.765625 61.328125 30.765625 61.328125 
L 17.53125 61.328125 
L 17.53125 7.46875 
L 32.859375 7.46875 
Q 38.28125 7.46875 42.890625 9.21875 
Q 47.515625 10.984375 50.875 14.453125 
Q 54.25 17.921875 56.15625 23.09375 
Q 58.0625 28.265625 58.0625 35.109375 
z
" id="LiberationSans-68"/>
      <path d="M 20.21875 -0.984375 
Q 12.25 -0.984375 8.25 3.21875 
Q 4.25 7.421875 4.25 14.75 
Q 4.25 19.96875 6.21875 23.3125 
Q 8.203125 26.65625 11.390625 28.5625 
Q 14.59375 30.46875 18.6875 31.203125 
Q 22.796875 31.9375 27.046875 32.03125 
L 38.921875 32.234375 
L 38.921875 35.109375 
Q 38.921875 38.375 38.234375 40.671875 
Q 37.546875 42.96875 36.125 44.375 
Q 34.71875 45.796875 32.59375 46.453125 
Q 30.46875 47.125 27.59375 47.125 
Q 25.046875 47.125 23 46.75 
Q 20.953125 46.390625 19.4375 45.4375 
Q 17.921875 44.484375 16.984375 42.84375 
Q 16.0625 41.21875 15.765625 38.71875 
L 6.59375 39.546875 
Q 7.078125 42.671875 8.4375 45.28125 
Q 9.8125 47.90625 12.328125 49.796875 
Q 14.84375 51.703125 18.625 52.75 
Q 22.40625 53.8125 27.78125 53.8125 
Q 37.75 53.8125 42.765625 49.234375 
Q 47.796875 44.671875 47.796875 36.03125 
L 47.796875 13.28125 
Q 47.796875 9.375 48.828125 7.390625 
Q 49.859375 5.421875 52.734375 5.421875 
Q 53.46875 5.421875 54.203125 5.515625 
Q 54.9375 5.609375 55.609375 5.765625 
L 55.609375 0.296875 
Q 53.953125 -0.09375 52.3125 -0.28125 
Q 50.6875 -0.484375 48.828125 -0.484375 
Q 46.34375 -0.484375 44.5625 0.171875 
Q 42.78125 0.828125 41.65625 2.171875 
Q 40.53125 3.515625 39.9375 5.484375 
Q 39.359375 7.46875 39.203125 10.109375 
L 38.921875 10.109375 
Q 37.5 7.5625 35.8125 5.515625 
Q 34.125 3.46875 31.875 2.03125 
Q 29.640625 0.59375 26.78125 -0.1875 
Q 23.921875 -0.984375 20.21875 -0.984375 
z
M 22.21875 5.609375 
Q 26.421875 5.609375 29.5625 7.140625 
Q 32.71875 8.6875 34.78125 11.078125 
Q 36.859375 13.484375 37.890625 16.3125 
Q 38.921875 19.140625 38.921875 21.734375 
L 38.921875 26.078125 
L 29.296875 25.875 
Q 26.078125 25.828125 23.171875 25.40625 
Q 20.265625 25 18.0625 23.78125 
Q 15.875 22.5625 14.578125 20.359375 
Q 13.28125 18.171875 13.28125 14.59375 
Q 13.28125 10.296875 15.59375 7.953125 
Q 17.921875 5.609375 22.21875 5.609375 
z
" id="LiberationSans-97"/>
      <path d="M 29.5 0 
Q 27.640625 -4.78125 25.703125 -8.609375 
Q 23.78125 -12.453125 21.390625 -15.15625 
Q 19 -17.875 16.0625 -19.3125 
Q 13.140625 -20.75 9.328125 -20.75 
Q 7.671875 -20.75 6.25 -20.65625 
Q 4.828125 -20.5625 3.265625 -20.21875 
L 3.265625 -13.625 
Q 4.203125 -13.765625 5.375 -13.84375 
Q 6.546875 -13.921875 7.375 -13.921875 
Q 11.234375 -13.921875 14.546875 -11.03125 
Q 17.875 -8.15625 20.359375 -1.859375 
L 21.1875 0.25 
L 0.25 52.828125 
L 9.625 52.828125 
L 20.75 23.640625 
Q 21.234375 22.3125 21.984375 20.109375 
Q 22.75 17.921875 23.5 15.71875 
Q 24.265625 13.53125 24.84375 11.765625 
Q 25.4375 10.015625 25.53125 9.578125 
Q 25.6875 10.109375 26.25 11.6875 
Q 26.8125 13.28125 27.515625 15.234375 
Q 28.21875 17.1875 28.953125 19.1875 
Q 29.6875 21.1875 30.171875 22.65625 
L 40.53125 52.828125 
L 49.8125 52.828125 
z
" id="LiberationSans-121"/>
      <path d="M 46.390625 14.59375 
Q 46.390625 10.890625 44.9375 7.984375 
Q 43.5 5.078125 40.765625 3.09375 
Q 38.03125 1.125 34.046875 0.0625 
Q 30.078125 -0.984375 24.953125 -0.984375 
Q 20.359375 -0.984375 16.671875 -0.265625 
Q 12.984375 0.4375 10.203125 2 
Q 7.421875 3.5625 5.53125 6.125 
Q 3.65625 8.6875 2.78125 12.40625 
L 10.546875 13.921875 
Q 11.671875 9.671875 15.1875 7.6875 
Q 18.703125 5.71875 24.953125 5.71875 
Q 27.78125 5.71875 30.140625 6.109375 
Q 32.515625 6.5 34.21875 7.453125 
Q 35.9375 8.40625 36.890625 9.984375 
Q 37.84375 11.578125 37.84375 13.921875 
Q 37.84375 16.3125 36.71875 17.84375 
Q 35.59375 19.390625 33.59375 20.40625 
Q 31.59375 21.4375 28.734375 22.1875 
Q 25.875 22.953125 22.46875 23.875 
Q 19.28125 24.703125 16.15625 25.734375 
Q 13.03125 26.765625 10.515625 28.4375 
Q 8.015625 30.125 6.453125 32.609375 
Q 4.890625 35.109375 4.890625 38.875 
Q 4.890625 46.09375 10.03125 49.875 
Q 15.1875 53.65625 25.046875 53.65625 
Q 33.796875 53.65625 38.9375 50.578125 
Q 44.09375 47.515625 45.453125 40.71875 
L 37.546875 39.75 
Q 37.109375 41.796875 35.9375 43.1875 
Q 34.765625 44.578125 33.109375 45.4375 
Q 31.453125 46.296875 29.375 46.65625 
Q 27.296875 47.015625 25.046875 47.015625 
Q 19.09375 47.015625 16.25 45.203125 
Q 13.421875 43.40625 13.421875 39.75 
Q 13.421875 37.59375 14.46875 36.203125 
Q 15.53125 34.8125 17.40625 33.859375 
Q 19.28125 32.90625 21.921875 32.203125 
Q 24.5625 31.5 27.734375 30.71875 
Q 29.828125 30.171875 32.03125 29.5625 
Q 34.234375 28.953125 36.296875 28.09375 
Q 38.375 27.25 40.203125 26.09375 
Q 42.046875 24.953125 43.40625 23.34375 
Q 44.78125 21.734375 45.578125 19.578125 
Q 46.390625 17.4375 46.390625 14.59375 
z
" id="LiberationSans-115"/>
      <path id="LiberationSans-32"/>
      <path d="M 6.6875 64.0625 
L 6.6875 72.46875 
L 15.484375 72.46875 
L 15.484375 64.0625 
z
M 6.6875 0 
L 6.6875 52.828125 
L 15.484375 52.828125 
L 15.484375 0 
z
" id="LiberationSans-105"/>
      <path d="M 40.28125 0 
L 40.28125 33.5 
Q 40.28125 37.359375 39.71875 39.9375 
Q 39.15625 42.53125 37.890625 44.109375 
Q 36.625 45.703125 34.546875 46.359375 
Q 32.46875 47.015625 29.390625 47.015625 
Q 26.265625 47.015625 23.75 45.921875 
Q 21.234375 44.828125 19.453125 42.75 
Q 17.671875 40.671875 16.6875 37.625 
Q 15.71875 34.578125 15.71875 30.609375 
L 15.71875 0 
L 6.9375 0 
L 6.9375 41.546875 
Q 6.9375 43.21875 6.90625 45.046875 
Q 6.890625 46.875 6.828125 48.5 
Q 6.78125 50.140625 6.734375 51.3125 
Q 6.6875 52.484375 6.640625 52.828125 
L 14.9375 52.828125 
Q 14.984375 52.59375 15.03125 51.515625 
Q 15.09375 50.4375 15.15625 49.046875 
Q 15.234375 47.65625 15.28125 46.21875 
Q 15.328125 44.78125 15.328125 43.796875 
L 15.484375 43.796875 
Q 16.75 46.09375 18.265625 47.953125 
Q 19.78125 49.8125 21.78125 51.09375 
Q 23.78125 52.390625 26.359375 53.09375 
Q 28.953125 53.8125 32.375 53.8125 
Q 36.765625 53.8125 39.9375 52.734375 
Q 43.109375 51.65625 45.15625 49.40625 
Q 47.21875 47.171875 48.171875 43.625 
Q 49.125 40.09375 49.125 35.203125 
L 49.125 0 
z
" id="LiberationSans-110"/>
      <path d="M 13.421875 26.65625 
Q 13.421875 22.125 14.078125 18.3125 
Q 14.75 14.5 16.3125 11.734375 
Q 17.875 8.984375 20.4375 7.46875 
Q 23 5.953125 26.765625 5.953125 
Q 31.453125 5.953125 34.59375 8.484375 
Q 37.75 11.03125 38.484375 16.3125 
L 47.359375 15.71875 
Q 46.921875 12.453125 45.453125 9.421875 
Q 44 6.390625 41.484375 4.09375 
Q 38.96875 1.8125 35.34375 0.40625 
Q 31.734375 -0.984375 27 -0.984375 
Q 20.796875 -0.984375 16.453125 1.109375 
Q 12.109375 3.21875 9.390625 6.90625 
Q 6.6875 10.59375 5.46875 15.59375 
Q 4.25 20.609375 4.25 26.46875 
Q 4.25 31.78125 5.125 35.859375 
Q 6 39.9375 7.59375 42.984375 
Q 9.1875 46.046875 11.328125 48.125 
Q 13.484375 50.203125 15.984375 51.4375 
Q 18.5 52.6875 21.28125 53.25 
Q 24.078125 53.8125 26.90625 53.8125 
Q 31.34375 53.8125 34.8125 52.59375 
Q 38.28125 51.375 40.796875 49.25 
Q 43.3125 47.125 44.875 44.234375 
Q 46.4375 41.359375 47.078125 38.03125 
L 38.03125 37.359375 
Q 37.359375 41.75 34.5625 44.328125 
Q 31.78125 46.921875 26.65625 46.921875 
Q 22.90625 46.921875 20.390625 45.671875 
Q 17.875 44.4375 16.3125 41.921875 
Q 14.75 39.40625 14.078125 35.59375 
Q 13.421875 31.78125 13.421875 26.65625 
z
" id="LiberationSans-99"/>
      <path d="M 13.484375 24.5625 
Q 13.484375 20.40625 14.328125 16.90625 
Q 15.1875 13.421875 16.96875 10.90625 
Q 18.75 8.40625 21.53125 7 
Q 24.3125 5.609375 28.21875 5.609375 
Q 33.9375 5.609375 37.375 7.90625 
Q 40.828125 10.203125 42.046875 13.71875 
L 49.75 11.53125 
Q 48.921875 9.328125 47.4375 7.109375 
Q 45.953125 4.890625 43.453125 3.09375 
Q 40.96875 1.3125 37.234375 0.15625 
Q 33.5 -0.984375 28.21875 -0.984375 
Q 16.5 -0.984375 10.375 6 
Q 4.25 12.984375 4.25 26.765625 
Q 4.25 34.1875 6.09375 39.328125 
Q 7.953125 44.484375 11.171875 47.703125 
Q 14.40625 50.921875 18.703125 52.359375 
Q 23 53.8125 27.875 53.8125 
Q 34.515625 53.8125 38.984375 51.65625 
Q 43.453125 49.515625 46.15625 45.71875 
Q 48.875 41.9375 50.015625 36.8125 
Q 51.171875 31.6875 51.171875 25.734375 
L 51.171875 24.5625 
z
M 42.09375 31.296875 
Q 41.359375 39.65625 37.84375 43.484375 
Q 34.328125 47.3125 27.734375 47.3125 
Q 25.53125 47.3125 23.109375 46.609375 
Q 20.703125 45.90625 18.65625 44.09375 
Q 16.609375 42.28125 15.1875 39.171875 
Q 13.765625 36.078125 13.578125 31.296875 
z
" id="LiberationSans-101"/>
      <path d="M 35.296875 50.875 
Q 35.296875 41.703125 31 36.734375 
Q 26.703125 31.78125 18.171875 31.78125 
Q 9.96875 31.78125 5.640625 36.6875 
Q 1.3125 41.609375 1.3125 50.875 
Q 1.3125 55.328125 2.359375 58.859375 
Q 3.421875 62.40625 5.546875 64.859375 
Q 7.671875 67.328125 10.859375 68.625 
Q 14.0625 69.921875 18.359375 69.921875 
Q 22.90625 69.921875 26.09375 68.625 
Q 29.296875 67.328125 31.34375 64.890625 
Q 33.40625 62.453125 34.34375 58.90625 
Q 35.296875 55.375 35.296875 50.875 
z
M 28.03125 50.875 
Q 28.03125 54.9375 27.421875 57.609375 
Q 26.8125 60.296875 25.578125 61.890625 
Q 24.359375 63.484375 22.59375 64.140625 
Q 20.84375 64.796875 18.5 64.796875 
Q 16.15625 64.796875 14.328125 64.140625 
Q 12.5 63.484375 11.25 61.859375 
Q 10.015625 60.25 9.375 57.5625 
Q 8.734375 54.890625 8.734375 50.875 
Q 8.734375 46.78125 9.421875 44.09375 
Q 10.109375 41.40625 11.34375 39.796875 
Q 12.59375 38.1875 14.296875 37.546875 
Q 16.015625 36.921875 18.109375 36.921875 
Q 20.515625 36.921875 22.34375 37.546875 
Q 24.171875 38.1875 25.4375 39.796875 
Q 26.703125 41.40625 27.359375 44.09375 
Q 28.03125 46.78125 28.03125 50.875 
z
" id="LiberationSans-186"/>
     </defs>
     <g style="fill:#262626;" transform="translate(326.289688 346.578689)scale(0.11 -0.11)">
      <use xlink:href="#LiberationSans-68"/>
      <use x="72.216797" xlink:href="#LiberationSans-97"/>
      <use x="127.832031" xlink:href="#LiberationSans-121"/>
      <use x="177.832031" xlink:href="#LiberationSans-115"/>
      <use x="227.832031" xlink:href="#LiberationSans-32"/>
      <use x="255.615234" xlink:href="#LiberationSans-115"/>
      <use x="305.615234" xlink:href="#LiberationSans-105"/>
      <use x="327.832031" xlink:href="#LiberationSans-110"/>
      <use x="383.447266" xlink:href="#LiberationSans-99"/>
      <use x="433.447266" xlink:href="#LiberationSans-101"/>
      <use x="489.0625" xlink:href="#LiberationSans-32"/>
      <use x="516.845703" xlink:href="#LiberationSans-99"/>
      <use x="566.845703" xlink:href="#LiberationSans-97"/>
      <use x="622.460938" xlink:href="#LiberationSans-115"/>
      <use x="672.460938" xlink:href="#LiberationSans-101"/>
      <use x="728.076172" xlink:href="#LiberationSans-32"/>
      <use x="755.859375" xlink:href="#LiberationSans-110"/>
      <use x="811.474609" xlink:href="#LiberationSans-186"/>
      <use x="847.998047" xlink:href="#LiberationSans-50"/>
      <use x="903.613281" xlink:href="#LiberationSans-48"/>
     </g>
    </g>
   </g>
   <g id="matplotlib.axis_2">
    <g id="ytick_1">
     <g id="line2d_7"/>
     <g id="text_8">
      <!-- −50 -->
      <defs>
       <path d="M 4.9375 29.6875 
L 4.9375 36.8125 
L 53.515625 36.8125 
L 53.515625 29.6875 
z
" id="LiberationSans-8722"/>
       <path d="M 51.421875 22.40625 
Q 51.421875 17.234375 49.859375 12.9375 
Q 48.296875 8.640625 45.21875 5.53125 
Q 42.140625 2.4375 37.578125 0.71875 
Q 33.015625 -0.984375 27 -0.984375 
Q 21.578125 -0.984375 17.546875 0.28125 
Q 13.53125 1.5625 10.734375 3.78125 
Q 7.953125 6 6.3125 8.984375 
Q 4.6875 11.96875 4 15.375 
L 12.890625 16.40625 
Q 13.421875 14.453125 14.390625 12.625 
Q 15.375 10.796875 17.0625 9.34375 
Q 18.75 7.90625 21.21875 7.046875 
Q 23.6875 6.203125 27.203125 6.203125 
Q 30.609375 6.203125 33.390625 7.25 
Q 36.1875 8.296875 38.15625 10.34375 
Q 40.140625 12.40625 41.203125 15.375 
Q 42.28125 18.359375 42.28125 22.21875 
Q 42.28125 25.390625 41.25 28.046875 
Q 40.234375 30.71875 38.328125 32.640625 
Q 36.421875 34.578125 33.65625 35.640625 
Q 30.90625 36.71875 27.390625 36.71875 
Q 25.203125 36.71875 23.34375 36.328125 
Q 21.484375 35.9375 19.890625 35.25 
Q 18.3125 34.578125 17.015625 33.671875 
Q 15.71875 32.765625 14.59375 31.78125 
L 6 31.78125 
L 8.296875 68.796875 
L 47.40625 68.796875 
L 47.40625 61.328125 
L 16.3125 61.328125 
L 14.984375 39.5 
Q 17.328125 41.3125 20.84375 42.59375 
Q 24.359375 43.890625 29.203125 43.890625 
Q 34.328125 43.890625 38.421875 42.328125 
Q 42.53125 40.765625 45.40625 37.90625 
Q 48.296875 35.0625 49.859375 31.109375 
Q 51.421875 27.15625 51.421875 22.40625 
z
" id="LiberationSans-53"/>
      </defs>
      <g style="fill:#262626;" transform="translate(24.9275 312.110696)scale(0.1 -0.1)">
       <use xlink:href="#LiberationSans-8722"/>
       <use x="58.398438" xlink:href="#LiberationSans-53"/>
       <use x="114.013672" xlink:href="#LiberationSans-48"/>
      </g>
     </g>
    </g>
    <g id="ytick_2">
     <g id="line2d_8"/>
     <g id="text_9">
      <!-- 0 -->
      <g style="fill:#262626;" transform="translate(36.329063 255.020472)scale(0.1 -0.1)">
       <use xlink:href="#LiberationSans-48"/>
      </g>
     </g>
    </g>
    <g id="ytick_3">
     <g id="line2d_9"/>
     <g id="text_10">
      <!-- 50 -->
      <g style="fill:#262626;" transform="translate(30.768125 197.930248)scale(0.1 -0.1)">
       <use xlink:href="#LiberationSans-53"/>
       <use x="55.615234" xlink:href="#LiberationSans-48"/>
      </g>
     </g>
    </g>
    <g id="ytick_4">
     <g id="line2d_10"/>
     <g id="text_11">
      <!-- 100 -->
      <g style="fill:#262626;" transform="translate(25.207188 140.840024)scale(0.1 -0.1)">
       <use xlink:href="#LiberationSans-49"/>
       <use x="55.615234" xlink:href="#LiberationSans-48"/>
       <use x="111.230469" xlink:href="#LiberationSans-48"/>
      </g>
     </g>
    </g>
    <g id="ytick_5">
     <g id="line2d_11"/>
     <g id="text_12">
      <!-- 150 -->
      <g style="fill:#262626;" transform="translate(25.207188 83.7498)scale(0.1 -0.1)">
       <use xlink:href="#LiberationSans-49"/>
       <use x="55.615234" xlink:href="#LiberationSans-53"/>
       <use x="111.230469" xlink:href="#LiberationSans-48"/>
      </g>
     </g>
    </g>
    <g id="ytick_6">
     <g id="line2d_12"/>
     <g id="text_13">
      <!-- 200 -->
      <g style="fill:#262626;" transform="translate(25.207188 26.659576)scale(0.1 -0.1)">
       <use xlink:href="#LiberationSans-50"/>
       <use x="55.615234" xlink:href="#LiberationSans-48"/>
       <use x="111.230469" xlink:href="#LiberationSans-48"/>
      </g>
     </g>
    </g>
    <g id="text_14">
     <!-- New infections over 1M population -->
     <defs>
      <path d="M 52.828125 0 
L 16.015625 58.59375 
Q 16.109375 56.203125 16.265625 53.859375 
Q 16.359375 51.859375 16.421875 49.625 
Q 16.5 47.40625 16.5 45.703125 
L 16.5 0 
L 8.203125 0 
L 8.203125 68.796875 
L 19.046875 68.796875 
L 56.25 9.8125 
Q 56.109375 12.203125 55.953125 14.59375 
Q 55.859375 16.65625 55.765625 19.0625 
Q 55.671875 21.484375 55.671875 23.6875 
L 55.671875 68.796875 
L 64.0625 68.796875 
L 64.0625 0 
z
" id="LiberationSans-78"/>
      <path d="M 57.328125 0 
L 47.125 0 
L 38.671875 34.078125 
Q 38.28125 35.40625 37.859375 37.359375 
Q 37.453125 39.3125 37.0625 41.15625 
Q 36.578125 43.3125 36.140625 45.609375 
Q 35.6875 43.40625 35.203125 41.265625 
Q 34.8125 39.40625 34.34375 37.40625 
Q 33.890625 35.40625 33.5 33.890625 
L 24.8125 0 
L 14.65625 0 
L -0.140625 52.828125 
L 8.546875 52.828125 
L 17.484375 16.9375 
Q 17.828125 15.828125 18.15625 14.1875 
Q 18.5 12.546875 18.84375 10.984375 
Q 19.1875 9.1875 19.578125 7.28125 
Q 19.96875 9.125 20.40625 10.890625 
Q 20.796875 12.40625 21.1875 13.96875 
Q 21.578125 15.53125 21.875 16.546875 
L 31.453125 52.828125 
L 40.875 52.828125 
L 50.09375 16.546875 
Q 50.4375 15.28125 50.828125 13.671875 
Q 51.21875 12.0625 51.5625 10.640625 
Q 51.953125 8.984375 52.34375 7.28125 
Q 52.734375 9.125 53.125 10.890625 
Q 53.46875 12.40625 53.828125 14.03125 
Q 54.203125 15.671875 54.546875 16.9375 
L 63.875 52.828125 
L 72.46875 52.828125 
z
" id="LiberationSans-119"/>
      <path d="M 17.625 46.4375 
L 17.625 0 
L 8.84375 0 
L 8.84375 46.4375 
L 1.421875 46.4375 
L 1.421875 52.828125 
L 8.84375 52.828125 
L 8.84375 58.796875 
Q 8.84375 61.671875 9.375 64.140625 
Q 9.90625 66.609375 11.34375 68.4375 
Q 12.796875 70.265625 15.28125 71.3125 
Q 17.78125 72.359375 21.734375 72.359375 
Q 23.296875 72.359375 24.96875 72.21875 
Q 26.65625 72.078125 27.9375 71.78125 
L 27.9375 65.09375 
Q 27.09375 65.234375 26 65.359375 
Q 24.90625 65.484375 24.03125 65.484375 
Q 22.078125 65.484375 20.828125 64.9375 
Q 19.578125 64.40625 18.875 63.40625 
Q 18.171875 62.40625 17.890625 60.9375 
Q 17.625 59.46875 17.625 57.5625 
L 17.625 52.828125 
L 27.9375 52.828125 
L 27.9375 46.4375 
z
" id="LiberationSans-102"/>
      <path d="M 27.046875 0.390625 
Q 25.046875 -0.140625 22.96875 -0.453125 
Q 20.90625 -0.78125 18.171875 -0.78125 
Q 7.625 -0.78125 7.625 11.1875 
L 7.625 46.4375 
L 1.515625 46.4375 
L 1.515625 52.828125 
L 7.953125 52.828125 
L 10.546875 64.65625 
L 16.40625 64.65625 
L 16.40625 52.828125 
L 26.171875 52.828125 
L 26.171875 46.4375 
L 16.40625 46.4375 
L 16.40625 13.09375 
Q 16.40625 9.28125 17.640625 7.734375 
Q 18.890625 6.203125 21.96875 6.203125 
Q 23.25 6.203125 24.4375 6.390625 
Q 25.640625 6.59375 27.046875 6.890625 
z
" id="LiberationSans-116"/>
      <path d="M 51.421875 26.46875 
Q 51.421875 12.59375 45.3125 5.796875 
Q 39.203125 -0.984375 27.59375 -0.984375 
Q 22.078125 -0.984375 17.71875 0.671875 
Q 13.375 2.34375 10.375 5.765625 
Q 7.375 9.1875 5.78125 14.328125 
Q 4.203125 19.484375 4.203125 26.46875 
Q 4.203125 53.8125 27.875 53.8125 
Q 34.03125 53.8125 38.5 52.09375 
Q 42.96875 50.390625 45.828125 46.96875 
Q 48.6875 43.5625 50.046875 38.421875 
Q 51.421875 33.296875 51.421875 26.46875 
z
M 42.1875 26.46875 
Q 42.1875 32.625 41.234375 36.625 
Q 40.28125 40.625 38.453125 43.015625 
Q 36.625 45.40625 33.984375 46.359375 
Q 31.34375 47.3125 28.03125 47.3125 
Q 24.65625 47.3125 21.9375 46.3125 
Q 19.234375 45.3125 17.328125 42.890625 
Q 15.4375 40.484375 14.421875 36.46875 
Q 13.421875 32.46875 13.421875 26.46875 
Q 13.421875 20.3125 14.5 16.28125 
Q 15.578125 12.25 17.453125 9.859375 
Q 19.34375 7.46875 21.90625 6.484375 
Q 24.46875 5.515625 27.484375 5.515625 
Q 30.859375 5.515625 33.59375 6.46875 
Q 36.328125 7.421875 38.234375 9.8125 
Q 40.140625 12.203125 41.15625 16.25 
Q 42.1875 20.3125 42.1875 26.46875 
z
" id="LiberationSans-111"/>
      <path d="M 29.9375 0 
L 19.53125 0 
L 0.34375 52.828125 
L 9.71875 52.828125 
L 21.34375 18.453125 
Q 21.6875 17.390625 22.140625 15.84375 
Q 22.609375 14.3125 23.09375 12.640625 
Q 23.578125 10.984375 24 9.4375 
Q 24.421875 7.90625 24.703125 6.890625 
Q 25 7.90625 25.453125 9.4375 
Q 25.921875 10.984375 26.40625 12.59375 
Q 26.90625 14.203125 27.421875 15.734375 
Q 27.9375 17.28125 28.328125 18.359375 
L 40.328125 52.828125 
L 49.65625 52.828125 
z
" id="LiberationSans-118"/>
      <path d="M 6.9375 0 
L 6.9375 40.53125 
Q 6.9375 42.1875 6.90625 43.921875 
Q 6.890625 45.65625 6.828125 47.265625 
Q 6.78125 48.875 6.734375 50.28125 
Q 6.6875 51.703125 6.640625 52.828125 
L 14.9375 52.828125 
Q 14.984375 51.703125 15.0625 50.265625 
Q 15.140625 48.828125 15.203125 47.3125 
Q 15.28125 45.796875 15.296875 44.40625 
Q 15.328125 43.015625 15.328125 42.046875 
L 15.53125 42.046875 
Q 16.453125 45.0625 17.5 47.28125 
Q 18.5625 49.515625 19.96875 50.953125 
Q 21.390625 52.390625 23.34375 53.09375 
Q 25.296875 53.8125 28.078125 53.8125 
Q 29.15625 53.8125 30.125 53.640625 
Q 31.109375 53.46875 31.640625 53.328125 
L 31.640625 45.265625 
Q 30.765625 45.515625 29.59375 45.625 
Q 28.421875 45.75 26.953125 45.75 
Q 23.921875 45.75 21.796875 44.375 
Q 19.671875 43.015625 18.328125 40.59375 
Q 17 38.1875 16.359375 34.84375 
Q 15.71875 31.5 15.71875 27.546875 
L 15.71875 0 
z
" id="LiberationSans-114"/>
      <path d="M 66.703125 0 
L 66.703125 45.90625 
Q 66.703125 48.390625 66.75 50.96875 
Q 66.796875 53.5625 66.890625 55.71875 
Q 67 58.203125 67.140625 60.546875 
Q 66.453125 58.0625 65.71875 55.609375 
Q 65.09375 53.515625 64.328125 51.140625 
Q 63.578125 48.78125 62.84375 46.875 
L 45.0625 0 
L 38.53125 0 
L 20.515625 46.875 
Q 20.21875 47.609375 19.890625 48.578125 
Q 19.578125 49.5625 19.203125 50.65625 
Q 18.84375 51.765625 18.46875 52.90625 
Q 18.109375 54.046875 17.78125 55.171875 
Q 16.9375 57.765625 16.15625 60.546875 
Q 16.21875 57.8125 16.3125 55.125 
Q 16.40625 52.828125 16.453125 50.3125 
Q 16.5 47.796875 16.5 45.90625 
L 16.5 0 
L 8.203125 0 
L 8.203125 68.796875 
L 20.453125 68.796875 
L 38.765625 21.09375 
Q 39.109375 20.125 39.59375 18.578125 
Q 40.09375 17.046875 40.53125 15.421875 
Q 40.96875 13.8125 41.328125 12.375 
Q 41.703125 10.9375 41.84375 10.15625 
Q 42 10.9375 42.390625 12.40625 
Q 42.78125 13.875 43.28125 15.484375 
Q 43.796875 17.09375 44.28125 18.609375 
Q 44.78125 20.125 45.171875 21.09375 
L 63.140625 68.796875 
L 75.09375 68.796875 
L 75.09375 0 
z
" id="LiberationSans-77"/>
      <path d="M 51.421875 26.65625 
Q 51.421875 20.65625 50.4375 15.578125 
Q 49.46875 10.5 47.1875 6.828125 
Q 44.921875 3.171875 41.1875 1.09375 
Q 37.453125 -0.984375 31.984375 -0.984375 
Q 26.3125 -0.984375 22.0625 1.171875 
Q 17.828125 3.328125 15.578125 8.203125 
L 15.328125 8.203125 
Q 15.375 8.109375 15.40625 7.328125 
Q 15.4375 6.546875 15.453125 5.375 
Q 15.484375 4.203125 15.5 2.75 
Q 15.53125 1.3125 15.53125 -0.09375 
L 15.53125 -20.75 
L 6.734375 -20.75 
L 6.734375 42.046875 
Q 6.734375 43.953125 6.703125 45.703125 
Q 6.6875 47.46875 6.640625 48.90625 
Q 6.59375 50.34375 6.546875 51.359375 
Q 6.5 52.390625 6.453125 52.828125 
L 14.9375 52.828125 
Q 14.984375 52.6875 15.0625 51.796875 
Q 15.140625 50.921875 15.203125 49.671875 
Q 15.28125 48.4375 15.359375 47.015625 
Q 15.4375 45.609375 15.4375 44.34375 
L 15.625 44.34375 
Q 16.84375 46.875 18.40625 48.65625 
Q 19.96875 50.4375 21.96875 51.578125 
Q 23.96875 52.734375 26.4375 53.25 
Q 28.90625 53.765625 31.984375 53.765625 
Q 37.453125 53.765625 41.1875 51.8125 
Q 44.921875 49.859375 47.1875 46.3125 
Q 49.46875 42.78125 50.4375 37.765625 
Q 51.421875 32.765625 51.421875 26.65625 
z
M 42.1875 26.46875 
Q 42.1875 31.34375 41.59375 35.15625 
Q 41.015625 38.96875 39.578125 41.59375 
Q 38.140625 44.234375 35.734375 45.59375 
Q 33.34375 46.96875 29.734375 46.96875 
Q 26.8125 46.96875 24.21875 46.140625 
Q 21.625 45.3125 19.703125 42.96875 
Q 17.78125 40.625 16.65625 36.5 
Q 15.53125 32.375 15.53125 25.78125 
Q 15.53125 20.171875 16.453125 16.28125 
Q 17.390625 12.40625 19.171875 10.015625 
Q 20.953125 7.625 23.578125 6.5625 
Q 26.21875 5.515625 29.640625 5.515625 
Q 33.296875 5.515625 35.71875 6.921875 
Q 38.140625 8.34375 39.578125 11.03125 
Q 41.015625 13.71875 41.59375 17.59375 
Q 42.1875 21.484375 42.1875 26.46875 
z
" id="LiberationSans-112"/>
      <path d="M 15.328125 52.828125 
L 15.328125 19.34375 
Q 15.328125 15.484375 15.890625 12.890625 
Q 16.453125 10.296875 17.71875 8.703125 
Q 19 7.125 21.0625 6.46875 
Q 23.140625 5.8125 26.21875 5.8125 
Q 29.34375 5.8125 31.859375 6.90625 
Q 34.375 8.015625 36.15625 10.078125 
Q 37.9375 12.15625 38.90625 15.203125 
Q 39.890625 18.265625 39.890625 22.21875 
L 39.890625 52.828125 
L 48.6875 52.828125 
L 48.6875 11.28125 
Q 48.6875 9.625 48.703125 7.78125 
Q 48.734375 5.953125 48.78125 4.3125 
Q 48.828125 2.6875 48.875 1.515625 
Q 48.921875 0.34375 48.96875 0 
L 40.671875 0 
Q 40.625 0.25 40.578125 1.3125 
Q 40.53125 2.390625 40.453125 3.78125 
Q 40.375 5.171875 40.328125 6.609375 
Q 40.28125 8.0625 40.28125 9.03125 
L 40.140625 9.03125 
Q 38.875 6.734375 37.359375 4.875 
Q 35.84375 3.03125 33.84375 1.734375 
Q 31.84375 0.4375 29.25 -0.265625 
Q 26.65625 -0.984375 23.25 -0.984375 
Q 18.84375 -0.984375 15.671875 0.09375 
Q 12.5 1.171875 10.453125 3.421875 
Q 8.40625 5.671875 7.453125 9.1875 
Q 6.5 12.703125 6.5 17.625 
L 6.5 52.828125 
z
" id="LiberationSans-117"/>
      <path d="M 6.734375 0 
L 6.734375 72.46875 
L 15.53125 72.46875 
L 15.53125 0 
z
" id="LiberationSans-108"/>
     </defs>
     <g style="fill:#262626;" transform="translate(18.645 244.077877)rotate(-90)scale(0.11 -0.11)">
      <use xlink:href="#LiberationSans-78"/>
      <use x="72.216797" xlink:href="#LiberationSans-101"/>
      <use x="127.832031" xlink:href="#LiberationSans-119"/>
      <use x="200.048828" xlink:href="#LiberationSans-32"/>
      <use x="227.832031" xlink:href="#LiberationSans-105"/>
      <use x="250.048828" xlink:href="#LiberationSans-110"/>
      <use x="305.664062" xlink:href="#LiberationSans-102"/>
      <use x="333.447266" xlink:href="#LiberationSans-101"/>
      <use x="389.0625" xlink:href="#LiberationSans-99"/>
      <use x="439.0625" xlink:href="#LiberationSans-116"/>
      <use x="466.845703" xlink:href="#LiberationSans-105"/>
      <use x="489.0625" xlink:href="#LiberationSans-111"/>
      <use x="544.677734" xlink:href="#LiberationSans-110"/>
      <use x="600.292969" xlink:href="#LiberationSans-115"/>
      <use x="650.292969" xlink:href="#LiberationSans-32"/>
      <use x="678.076172" xlink:href="#LiberationSans-111"/>
      <use x="733.691406" xlink:href="#LiberationSans-118"/>
      <use x="783.691406" xlink:href="#LiberationSans-101"/>
      <use x="839.306641" xlink:href="#LiberationSans-114"/>
      <use x="872.607422" xlink:href="#LiberationSans-32"/>
      <use x="900.390625" xlink:href="#LiberationSans-49"/>
      <use x="956.005859" xlink:href="#LiberationSans-77"/>
      <use x="1039.306641" xlink:href="#LiberationSans-32"/>
      <use x="1067.089844" xlink:href="#LiberationSans-112"/>
      <use x="1122.705078" xlink:href="#LiberationSans-111"/>
      <use x="1178.320312" xlink:href="#LiberationSans-112"/>
      <use x="1233.935547" xlink:href="#LiberationSans-117"/>
      <use x="1289.550781" xlink:href="#LiberationSans-108"/>
      <use x="1311.767578" xlink:href="#LiberationSans-97"/>
      <use x="1367.382812" xlink:href="#LiberationSans-116"/>
      <use x="1395.166016" xlink:href="#LiberationSans-105"/>
      <use x="1417.382812" xlink:href="#LiberationSans-111"/>
      <use x="1472.998047" xlink:href="#LiberationSans-110"/>
     </g>
    </g>
   </g>
   <g id="line2d_13">
    <path clip-path="url(#pd1970f49ac)" d="M 78.904091 250.991163 
L 84.361198 250.491324 
L 89.818306 249.905782 
L 95.275413 249.299752 
L 100.732521 248.628951 
L 106.189628 248.010068 
L 111.646736 246.963981 
L 117.103843 245.215282 
L 122.56095 243.036319 
L 128.018058 238.627238 
L 133.475165 232.478675 
L 138.932273 229.135466 
L 144.38938 227.309453 
L 149.846488 223.401788 
L 155.303595 216.092354 
L 160.760702 209.75423 
L 166.21781 205.148293 
L 171.674917 198.929967 
L 177.132025 184.15224 
L 182.589132 161.778006 
L 188.04624 149.851281 
L 193.503347 156.849629 
L 198.960455 156.672896 
L 204.417562 139.431342 
L 209.874669 145.465796 
L 215.331777 164.525433 
L 220.788884 169.250598 
L 226.245992 166.049374 
L 231.703099 172.625556 
L 237.160207 184.268625 
L 242.617314 194.446614 
L 248.074421 203.781111 
L 253.531529 212.14516 
L 258.988636 216.124997 
L 264.445744 215.20302 
L 269.902851 212.210741 
L 275.359959 211.385402 
L 280.817066 212.20353 
L 286.274174 214.672846 
L 291.731281 221.275027 
L 297.188388 229.642689 
L 302.645496 233.504636 
L 308.102603 233.224745 
L 313.559711 233.90764 
L 319.016818 235.069679 
L 324.473926 237.038735 
L 329.931033 239.891583 
L 335.38814 242.058841 
L 340.845248 243.125821 
L 346.302355 243.13076 
L 351.759463 242.962665 
L 357.21657 242.475903 
L 362.673678 242.03485 
L 368.130785 241.888797 
L 373.587893 242.341285 
L 379.045 242.932661 
L 384.502107 243.188944 
L 389.959215 243.952143 
L 395.416322 244.111051 
L 400.87343 244.256778 
L 406.330537 245.745857 
L 411.787645 246.981274 
L 417.244752 247.51639 
L 422.70186 247.305022 
L 428.158967 246.224885 
L 433.616074 245.480768 
L 439.073182 245.757068 
L 444.530289 245.892552 
L 449.987397 246.949694 
L 455.444504 248.568649 
" style="fill:none;stroke:#989173;stroke-linecap:round;stroke-width:1.75;"/>
   </g>
   <g id="line2d_14">
    <path clip-path="url(#pd1970f49ac)" d="M 78.904091 251.38685 
L 84.361198 251.375604 
L 89.818306 251.361524 
L 95.275413 251.323323 
L 100.732521 251.207988 
L 106.189628 251.083584 
L 111.646736 251.11327 
L 117.103843 251.183467 
L 122.56095 251.09989 
L 128.018058 250.933237 
L 133.475165 250.728611 
L 138.932273 250.44269 
L 144.38938 250.209353 
L 149.846488 249.784411 
L 155.303595 249.291884 
L 160.760702 249.279281 
L 166.21781 249.489085 
L 171.674917 249.467343 
L 177.132025 249.223546 
L 182.589132 249.030825 
L 188.04624 249.040779 
L 193.503347 249.057356 
L 198.960455 248.208901 
L 204.417562 246.51283 
L 209.874669 245.422128 
L 215.331777 245.199383 
L 220.788884 245.259377 
L 226.245992 245.464022 
L 231.703099 245.697948 
L 237.160207 244.568375 
L 242.617314 242.263687 
L 248.074421 240.917731 
L 253.531529 241.405095 
L 258.988636 242.907607 
L 264.445744 244.011455 
L 269.902851 244.007866 
L 275.359959 243.025002 
L 280.817066 240.563614 
L 286.274174 238.092031 
L 291.731281 236.962095 
L 297.188388 235.993367 
L 302.645496 236.595754 
L 308.102603 238.58026 
L 313.559711 239.262791 
L 319.016818 237.977857 
L 324.473926 234.836521 
L 329.931033 230.840455 
L 335.38814 227.954858 
L 340.845248 226.843004 
L 346.302355 227.284317 
L 351.759463 225.53497 
L 357.21657 220.925924 
L 362.673678 216.790962 
L 368.130785 216.510809 
L 373.587893 220.465525 
L 379.045 223.294051 
L 384.502107 221.682196 
L 389.959215 216.214431 
L 395.416322 208.276778 
L 400.87343 200.306488 
L 406.330537 196.926033 
L 411.787645 197.338085 
L 417.244752 202.758218 
L 422.70186 209.985154 
L 428.158967 213.311722 
" style="fill:none;stroke:#42537f;stroke-linecap:round;stroke-width:1.75;"/>
   </g>
   <g id="line2d_15">
    <path clip-path="url(#pd1970f49ac)" d="M 78.904091 251.358638 
L 84.361198 251.28607 
L 89.818306 251.157196 
L 95.275413 250.999163 
L 100.732521 250.788344 
L 106.189628 250.419405 
L 111.646736 250.127712 
L 117.103843 250.152772 
L 122.56095 250.045029 
L 128.018058 249.767379 
L 133.475165 249.188701 
L 138.932273 248.535027 
L 144.38938 248.365452 
L 149.846488 248.354351 
L 155.303595 248.425587 
L 160.760702 248.595493 
L 166.21781 248.748354 
L 171.674917 248.931261 
L 177.132025 249.101785 
L 182.589132 249.355072 
L 188.04624 249.310108 
L 193.503347 247.433377 
L 198.960455 244.86062 
L 204.417562 245.721197 
L 209.874669 248.247918 
L 215.331777 249.49094 
L 220.788884 249.85631 
L 226.245992 250.224875 
L 231.703099 250.697745 
L 237.160207 250.91997 
L 242.617314 250.834405 
L 248.074421 250.787967 
L 253.531529 251.010111 
L 258.988636 251.13235 
L 264.445744 251.075819 
L 269.902851 251.046662 
L 275.359959 251.062105 
L 280.817066 251.070805 
L 286.274174 251.045759 
L 291.731281 251.059495 
L 297.188388 251.163842 
L 302.645496 251.255868 
L 308.102603 251.282608 
L 313.559711 251.281867 
L 319.016818 251.292169 
L 324.473926 251.320743 
L 329.931033 251.347596 
L 335.38814 251.363239 
L 340.845248 251.370801 
L 346.302355 251.375739 
L 351.759463 251.381187 
L 357.21657 251.381306 
L 362.673678 251.376696 
L 368.130785 251.374229 
L 373.587893 251.373372 
L 379.045 251.370041 
L 384.502107 251.360997 
L 389.959215 251.347626 
L 395.416322 251.336339 
L 400.87343 251.328592 
L 406.330537 251.321999 
L 411.787645 251.325513 
L 417.244752 251.328151 
L 422.70186 251.322586 
L 428.158967 251.311014 
L 433.616074 251.305569 
L 439.073182 251.306736 
L 444.530289 251.311653 
L 449.987397 251.322506 
L 455.444504 251.329612 
L 460.901612 251.332307 
L 466.358719 251.336067 
L 471.815826 251.343727 
L 477.272934 251.352536 
L 482.730041 251.352227 
L 488.187149 251.347959 
L 493.644256 251.342656 
L 499.101364 251.33593 
L 504.558471 251.336725 
L 510.015579 251.338785 
L 515.472686 251.330072 
L 520.929793 251.320112 
L 526.386901 251.322709 
L 531.844008 251.331747 
L 537.301116 251.332755 
L 542.758223 251.29475 
L 548.215331 251.261533 
L 553.672438 251.310458 
L 559.129545 251.36563 
L 564.586653 251.379089 
L 570.04376 251.378114 
L 575.500868 251.380432 
L 580.957975 251.383692 
L 586.415083 251.385964 
L 591.87219 251.389042 
L 597.329298 251.391137 
L 602.786405 251.389355 
L 608.243512 251.387094 
L 613.70062 251.388515 
L 619.157727 251.390498 
L 624.614835 251.39237 
L 630.071942 251.393478 
L 635.52905 251.39392 
L 640.986157 251.394684 
L 646.443264 251.395115 
L 651.900372 251.394776 
L 657.357479 251.394 
L 662.814587 251.391928 
L 668.271694 251.387967 
L 673.728802 251.387289 
L 679.185909 251.390952 
" style="fill:none;stroke:#ae54a5;stroke-dasharray:6.475,2.8;stroke-dashoffset:0;stroke-width:1.75;"/>
   </g>
   <g id="line2d_16">
    <path clip-path="url(#pd1970f49ac)" d="M 78.904091 251.251281 
L 84.361198 251.04559 
L 89.818306 250.827161 
L 95.275413 250.706244 
L 100.732521 250.655544 
L 106.189628 250.546592 
L 111.646736 250.013215 
L 117.103843 248.898586 
L 122.56095 247.519567 
L 128.018058 247.121045 
L 133.475165 247.652851 
L 138.932273 246.750566 
L 144.38938 243.681203 
L 149.846488 239.949433 
L 155.303595 235.39903 
L 160.760702 233.437036 
L 166.21781 236.54415 
L 171.674917 236.022874 
L 177.132025 229.371549 
L 182.589132 226.988948 
L 188.04624 225.359911 
L 193.503347 221.900959 
L 198.960455 220.292709 
L 204.417562 218.471963 
L 209.874669 210.647583 
L 215.331777 201.015102 
L 220.788884 198.744811 
L 226.245992 195.151108 
L 231.703099 187.202592 
L 237.160207 181.62266 
L 242.617314 182.041627 
L 248.074421 182.443051 
L 253.531529 166.72688 
L 258.988636 152.318621 
L 264.445744 165.132067 
L 269.902851 180.793412 
L 275.359959 179.361032 
L 280.817066 184.097776 
L 286.274174 193.785646 
L 291.731281 190.831965 
L 297.188388 184.637009 
L 302.645496 181.073823 
L 308.102603 176.918743 
L 313.559711 159.211931 
L 319.016818 88.177158 
L 324.473926 24.364502 
L 329.931033 82.656773 
L 335.38814 149.297856 
L 340.845248 146.895722 
L 346.302355 135.95406 
L 351.759463 175.755606 
L 357.21657 207.24273 
L 362.673678 201.296463 
L 368.130785 203.581498 
L 373.587893 224.058948 
L 379.045 240.700072 
L 384.502107 232.884081 
L 389.959215 223.727895 
L 395.416322 224.203433 
L 400.87343 219.718384 
L 406.330537 210.083769 
L 411.787645 223.042274 
L 417.244752 248.934622 
L 422.70186 252.337212 
L 428.158967 244.663481 
L 433.616074 239.870531 
L 439.073182 239.184772 
L 444.530289 235.767487 
L 449.987397 224.535211 
L 455.444504 216.975916 
L 460.901612 224.312491 
L 466.358719 233.17266 
L 471.815826 239.122067 
L 477.272934 243.067579 
L 482.730041 243.960047 
" style="fill:none;stroke:#0309a6;stroke-linecap:round;stroke-width:1.75;"/>
   </g>
   <g id="line2d_17">
    <path clip-path="url(#pd1970f49ac)" d="M 78.904091 251.316263 
L 84.361198 251.259153 
L 89.818306 251.1805 
L 95.275413 251.013564 
L 100.732521 250.88435 
L 106.189628 250.860547 
L 111.646736 250.664995 
L 117.103843 250.010711 
L 122.56095 249.210397 
L 128.018058 248.971444 
L 133.475165 248.981586 
L 138.932273 248.810104 
L 144.38938 248.465605 
L 149.846488 247.499706 
L 155.303595 246.076274 
L 160.760702 242.702243 
L 166.21781 237.732358 
L 171.674917 235.726624 
L 177.132025 233.996881 
L 182.589132 229.474844 
L 188.04624 221.992186 
L 193.503347 213.403704 
L 198.960455 206.317223 
L 204.417562 204.20657 
L 209.874669 208.845967 
L 215.331777 208.3802 
L 220.788884 200.974798 
L 226.245992 194.157448 
L 231.703099 183.842783 
L 237.160207 169.292272 
L 242.617314 161.835396 
L 248.074421 167.41152 
L 253.531529 179.199415 
L 258.988636 183.830328 
L 264.445744 179.223291 
L 269.902851 170.050186 
L 275.359959 164.415681 
L 280.817066 169.228589 
L 286.274174 181.714455 
L 291.731281 193.501436 
L 297.188388 197.462966 
L 302.645496 191.277562 
L 308.102603 184.33406 
L 313.559711 187.133963 
L 319.016818 197.507279 
L 324.473926 207.703128 
L 329.931033 214.402595 
L 335.38814 220.232002 
L 340.845248 220.962584 
L 346.302355 214.090052 
L 351.759463 209.089727 
L 357.21657 210.848225 
L 362.673678 218.500829 
L 368.130785 224.63783 
L 373.587893 227.350238 
L 379.045 227.178718 
L 384.502107 223.207251 
L 389.959215 221.565437 
L 395.416322 225.08753 
L 400.87343 229.94549 
L 406.330537 233.717769 
L 411.787645 235.45239 
L 417.244752 234.221034 
L 422.70186 232.127176 
L 428.158967 232.788492 
L 433.616074 235.895299 
L 439.073182 239.063351 
L 444.530289 241.420133 
L 449.987397 241.914019 
L 455.444504 239.681935 
L 460.901612 236.721392 
L 466.358719 235.536936 
L 471.815826 237.045792 
L 477.272934 240.113434 
L 482.730041 242.1156 
L 488.187149 242.351689 
" style="fill:none;stroke:#d8b009;stroke-linecap:round;stroke-width:1.75;"/>
   </g>
   <g id="line2d_18">
    <path clip-path="url(#pd1970f49ac)" d="M 78.904091 251.051886 
L 84.361198 250.565479 
L 89.818306 250.055315 
L 95.275413 249.790201 
L 100.732521 249.428477 
L 106.189628 248.710451 
L 111.646736 247.805379 
L 117.103843 246.857916 
L 122.56095 245.310639 
L 128.018058 243.665881 
L 133.475165 243.146865 
L 138.932273 242.15938 
L 144.38938 239.994123 
L 149.846488 237.412092 
L 155.303595 233.95122 
L 160.760702 228.797771 
L 166.21781 224.09493 
L 171.674917 222.452983 
L 177.132025 219.24489 
L 182.589132 204.623661 
L 188.04624 183.524659 
L 193.503347 172.440251 
L 198.960455 177.011778 
L 204.417562 183.785003 
L 209.874669 185.537388 
L 215.331777 180.682818 
L 220.788884 168.715554 
L 226.245992 153.350691 
L 231.703099 140.963444 
L 237.160207 137.725272 
L 242.617314 144.934856 
L 248.074421 152.540202 
L 253.531529 152.755728 
L 258.988636 147.556547 
L 264.445744 141.173239 
L 269.902851 139.420343 
L 275.359959 143.92608 
L 280.817066 154.855283 
L 286.274174 166.35445 
L 291.731281 169.232934 
L 297.188388 165.555863 
L 302.645496 163.370269 
L 308.102603 163.330493 
L 313.559711 165.12408 
L 319.016818 171.697404 
L 324.473926 180.864197 
L 329.931033 184.855756 
L 335.38814 180.683018 
L 340.845248 175.333804 
L 346.302355 172.080882 
L 351.759463 170.918996 
L 357.21657 176.80258 
L 362.673678 186.970437 
L 368.130785 193.476716 
L 373.587893 192.791926 
L 379.045 187.381401 
L 384.502107 185.323819 
L 389.959215 188.367411 
L 395.416322 195.030704 
L 400.87343 200.305385 
L 406.330537 198.583479 
L 411.787645 195.407301 
L 417.244752 196.489205 
L 422.70186 199.407076 
L 428.158967 204.113291 
L 433.616074 209.406079 
L 439.073182 213.038403 
L 444.530289 213.382526 
L 449.987397 213.30214 
L 455.444504 214.315356 
L 460.901612 215.405904 
L 466.358719 218.215603 
L 471.815826 223.18835 
L 477.272934 227.15641 
L 482.730041 227.917363 
L 488.187149 226.306286 
L 493.644256 225.716872 
L 499.101364 227.519788 
L 504.558471 231.064708 
L 510.015579 234.646557 
L 515.472686 236.545883 
" style="fill:none;stroke:#1007e1;stroke-linecap:round;stroke-width:1.75;"/>
   </g>
   <g id="line2d_19">
    <path clip-path="url(#pd1970f49ac)" d="M 78.904091 250.942376 
L 84.361198 250.146966 
L 89.818306 249.058077 
L 95.275413 248.203866 
L 100.732521 247.498096 
L 106.189628 247.112504 
L 111.646736 247.022698 
L 117.103843 245.861245 
L 122.56095 242.557387 
L 128.018058 238.282011 
L 133.475165 236.475324 
L 138.932273 237.853746 
L 144.38938 237.619516 
L 149.846488 234.653457 
L 155.303595 231.478391 
L 160.760702 228.019769 
L 166.21781 223.126771 
L 171.674917 217.245762 
L 177.132025 213.332603 
L 182.589132 212.341272 
L 188.04624 209.214225 
L 193.503347 201.514933 
L 198.960455 193.01496 
L 204.417562 184.584457 
L 209.874669 178.122004 
L 215.331777 177.087339 
L 220.788884 181.849895 
L 226.245992 188.594562 
L 231.703099 190.288754 
L 237.160207 186.246537 
L 242.617314 183.249282 
L 248.074421 184.129651 
L 253.531529 183.985219 
L 258.988636 182.447375 
L 264.445744 186.724449 
L 269.902851 190.685673 
L 275.359959 185.163384 
L 280.817066 174.548339 
L 286.274174 167.690065 
L 291.731281 168.5111 
L 297.188388 175.93944 
L 302.645496 185.708368 
L 308.102603 192.949111 
L 313.559711 192.912251 
L 319.016818 184.431282 
L 324.473926 177.031775 
L 329.931033 177.88284 
L 335.38814 185.751321 
L 340.845248 195.962995 
L 346.302355 201.543556 
L 351.759463 200.975851 
L 357.21657 198.643085 
L 362.673678 200.560596 
L 368.130785 206.192555 
L 373.587893 213.63772 
L 379.045 223.707751 
L 384.502107 229.939452 
L 389.959215 226.975917 
L 395.416322 221.84597 
L 400.87343 221.029287 
L 406.330537 224.133792 
L 411.787645 229.371775 
L 417.244752 233.15131 
L 422.70186 233.21007 
L 428.158967 231.037246 
L 433.616074 228.464382 
L 439.073182 229.411311 
L 444.530289 232.583911 
L 449.987397 235.937119 
L 455.444504 238.666611 
" style="fill:none;stroke:#a67d4c;stroke-linecap:round;stroke-width:1.75;"/>
   </g>
   <g id="line2d_20">
    <path clip-path="url(#pd1970f49ac)" d="M 78.904091 250.992753 
L 84.361198 250.58815 
L 89.818306 250.236507 
L 95.275413 249.837793 
L 100.732521 248.925184 
L 106.189628 247.448658 
L 111.646736 245.927915 
L 117.103843 244.579194 
L 122.56095 242.999532 
L 128.018058 240.457596 
L 133.475165 235.112073 
L 138.932273 226.945702 
L 144.38938 221.462524 
L 149.846488 221.251732 
L 155.303595 219.786087 
L 160.760702 214.012154 
L 166.21781 208.372984 
L 171.674917 202.737974 
L 177.132025 192.530442 
L 182.589132 182.483811 
L 188.04624 171.070631 
L 193.503347 163.538548 
L 198.960455 168.51422 
L 204.417562 171.202914 
L 209.874669 161.153171 
L 215.331777 157.857146 
L 220.788884 161.094437 
L 226.245992 165.001177 
L 231.703099 171.472994 
L 237.160207 178.27476 
L 242.617314 182.829187 
L 248.074421 178.138888 
L 253.531529 166.609592 
L 258.988636 147.45783 
L 264.445744 139.727854 
L 269.902851 163.823041 
L 275.359959 188.520952 
L 280.817066 197.763318 
L 286.274174 193.275523 
L 291.731281 184.860711 
L 297.188388 188.267366 
L 302.645496 197.622329 
L 308.102603 193.903721 
L 313.559711 187.726305 
L 319.016818 186.279702 
L 324.473926 188.518747 
L 329.931033 193.444472 
L 335.38814 199.387909 
L 340.845248 198.761139 
L 346.302355 196.545613 
L 351.759463 205.209333 
L 357.21657 218.27171 
L 362.673678 222.396935 
L 368.130785 217.740017 
L 373.587893 213.238687 
L 379.045 225.633177 
L 384.502107 242.922769 
L 389.959215 241.690524 
L 395.416322 230.99571 
L 400.87343 220.035714 
L 406.330537 205.961388 
L 411.787645 197.704561 
L 417.244752 204.608533 
L 422.70186 221.526507 
L 428.158967 232.966586 
L 433.616074 237.429817 
" style="fill:none;stroke:#ea71b3;stroke-linecap:round;stroke-width:1.75;"/>
   </g>
   <g id="line2d_21">
    <path clip-path="url(#pd1970f49ac)" d="M 78.904091 251.374004 
L 84.361198 251.348484 
L 89.818306 251.317865 
L 95.275413 251.29529 
L 100.732521 251.296662 
L 106.189628 251.287042 
L 111.646736 251.235851 
L 117.103843 251.180311 
L 122.56095 251.111062 
L 128.018058 251.030756 
L 133.475165 250.982528 
L 138.932273 250.954255 
L 144.38938 250.91254 
L 149.846488 250.846923 
L 155.303595 250.657254 
L 160.760702 250.301861 
L 166.21781 250.002984 
L 171.674917 249.797347 
L 177.132025 249.55704 
L 182.589132 249.21241 
L 188.04624 248.651193 
L 193.503347 247.925029 
L 198.960455 247.161917 
L 204.417562 246.479227 
L 209.874669 246.394604 
L 215.331777 246.361633 
L 220.788884 245.567068 
L 226.245992 244.100717 
L 231.703099 242.700076 
L 237.160207 241.443658 
L 242.617314 239.819442 
L 248.074421 238.222191 
L 253.531529 236.690743 
L 258.988636 234.307743 
L 264.445744 231.504056 
L 269.902851 228.672182 
L 275.359959 225.740422 
L 280.817066 222.734529 
L 286.274174 218.539413 
L 291.731281 213.32791 
L 297.188388 210.528293 
L 302.645496 210.973795 
L 308.102603 210.434723 
L 313.559711 210.226804 
L 319.016818 209.815713 
L 324.473926 207.050524 
L 329.931033 204.143607 
L 335.38814 202.472124 
L 340.845248 201.934629 
L 346.302355 201.923235 
L 351.759463 200.547052 
L 357.21657 195.234729 
L 362.673678 186.776412 
L 368.130785 177.444719 
L 373.587893 170.917364 
L 379.045 169.096543 
L 384.502107 169.073019 
L 389.959215 167.47103 
L 395.416322 165.643301 
L 400.87343 165.525992 
L 406.330537 165.222103 
L 411.787645 163.376156 
L 417.244752 161.222477 
" style="fill:none;stroke:#5feb16;stroke-linecap:round;stroke-width:1.75;"/>
   </g>
   <g id="line2d_22">
    <path clip-path="url(#pd1970f49ac)" d="M 78.904091 251.244703 
L 84.361198 250.989698 
L 89.818306 250.668711 
L 95.275413 250.461967 
L 100.732521 250.302164 
L 106.189628 250.120139 
L 111.646736 249.667574 
L 117.103843 248.883847 
L 122.56095 247.948017 
L 128.018058 245.731298 
L 133.475165 241.777045 
L 138.932273 236.777101 
L 144.38938 227.2554 
L 149.846488 211.094295 
L 155.303595 202.836377 
L 160.760702 209.299394 
L 166.21781 211.825528 
L 171.674917 206.791388 
L 177.132025 201.21392 
L 182.589132 189.536018 
L 188.04624 175.834754 
L 193.503347 166.836622 
L 198.960455 154.901643 
L 204.417562 141.399805 
L 209.874669 122.013572 
L 215.331777 95.254714 
L 220.788884 62.341673 
L 226.245992 51.274539 
L 231.703099 59.454776 
L 237.160207 69.185724 
L 242.617314 72.519058 
L 248.074421 66.508058 
L 253.531529 59.615877 
L 258.988636 58.044958 
L 264.445744 63.980002 
L 269.902851 75.925653 
L 275.359959 91.862842 
L 280.817066 110.520714 
L 286.274174 121.309106 
L 291.731281 119.35234 
L 297.188388 116.388761 
L 302.645496 122.732715 
L 308.102603 131.424672 
L 313.559711 141.903448 
L 319.016818 156.80513 
L 324.473926 169.054897 
L 329.931033 163.152611 
L 335.38814 132.585428 
L 340.845248 111.079457 
L 346.302355 130.396255 
L 351.759463 155.133987 
L 357.21657 156.007775 
L 362.673678 164.889682 
L 368.130785 165.277539 
L 373.587893 170.424934 
L 379.045 231.380216 
L 384.502107 295.654534 
L 389.959215 262.822787 
L 395.416322 217.581534 
L 400.87343 210.337098 
L 406.330537 212.091946 
L 411.787645 214.951815 
L 417.244752 219.628771 
L 422.70186 219.01398 
L 428.158967 220.844366 
L 433.616074 227.456788 
L 439.073182 229.843286 
L 444.530289 226.728798 
L 449.987397 224.767189 
L 455.444504 223.66533 
L 460.901612 224.205568 
L 466.358719 225.723425 
L 471.815826 215.577894 
L 477.272934 196.839676 
" style="fill:none;stroke:#907eba;stroke-linecap:round;stroke-width:1.75;"/>
   </g>
   <g id="line2d_23">
    <path clip-path="url(#pd1970f49ac)" d="M 78.904091 251.094805 
L 84.361198 250.636859 
L 89.818306 249.848496 
L 95.275413 248.581323 
L 100.732521 246.816926 
L 106.189628 245.709093 
L 111.646736 245.882959 
L 117.103843 245.047072 
L 122.56095 241.02495 
L 128.018058 233.965834 
L 133.475165 227.878905 
L 138.932273 226.162897 
L 144.38938 225.979495 
L 149.846488 223.64206 
L 155.303595 219.757604 
L 160.760702 217.982293 
L 166.21781 216.016031 
L 171.674917 212.587479 
L 177.132025 209.503404 
L 182.589132 207.143633 
L 188.04624 203.746007 
L 193.503347 198.633086 
L 198.960455 194.460706 
L 204.417562 190.829082 
L 209.874669 185.897381 
L 215.331777 183.087611 
L 220.788884 185.582858 
L 226.245992 190.265095 
L 231.703099 191.94356 
L 237.160207 189.966388 
L 242.617314 188.307412 
L 248.074421 190.648343 
L 253.531529 193.794538 
L 258.988636 192.71925 
L 264.445744 189.96796 
L 269.902851 193.027704 
L 275.359959 201.21334 
L 280.817066 206.466085 
L 286.274174 208.778213 
L 291.731281 212.177729 
L 297.188388 216.447411 
L 302.645496 218.356723 
L 308.102603 216.471104 
L 313.559711 214.153418 
L 319.016818 215.554928 
L 324.473926 219.571187 
L 329.931033 223.495352 
L 335.38814 226.304704 
L 340.845248 226.825261 
L 346.302355 224.820135 
L 351.759463 222.825348 
L 357.21657 223.452034 
L 362.673678 225.850475 
L 368.130785 228.517002 
L 373.587893 231.123459 
L 379.045 233.461372 
" style="fill:none;stroke:#221cdf;stroke-linecap:round;stroke-width:1.75;"/>
   </g>
   <g id="line2d_24">
    <path clip-path="url(#pd1970f49ac)" d="M 78.904091 251.389597 
L 84.361198 251.383296 
L 89.818306 251.382264 
L 95.275413 251.386145 
L 100.732521 251.383916 
L 106.189628 251.374012 
L 111.646736 251.356986 
L 117.103843 251.333216 
L 122.56095 251.307921 
L 128.018058 251.264255 
L 133.475165 251.20585 
L 138.932273 251.129557 
L 144.38938 251.034672 
L 149.846488 250.976899 
L 155.303595 250.797183 
L 160.760702 250.442553 
L 166.21781 250.188551 
L 171.674917 249.970013 
L 177.132025 249.663074 
L 182.589132 249.227658 
L 188.04624 248.438678 
L 193.503347 247.194398 
L 198.960455 245.433452 
L 204.417562 241.586118 
L 209.874669 235.607372 
L 215.331777 231.426482 
L 220.788884 228.146094 
L 226.245992 223.253075 
L 231.703099 218.014261 
L 237.160207 213.299782 
L 242.617314 205.245466 
L 248.074421 194.967965 
L 253.531529 188.187638 
L 258.988636 184.40082 
L 264.445744 180.928559 
L 269.902851 174.385752 
L 275.359959 165.68252 
L 280.817066 157.840175 
L 286.274174 149.113691 
L 291.731281 142.531027 
L 297.188388 142.30945 
L 302.645496 146.409011 
L 308.102603 147.264995 
L 313.559711 144.16535 
L 319.016818 139.824944 
L 324.473926 136.401183 
L 329.931033 138.091193 
L 335.38814 144.774819 
L 340.845248 152.100454 
L 346.302355 156.842438 
L 351.759463 155.828583 
L 357.21657 150.453352 
L 362.673678 144.522732 
L 368.130785 141.618534 
L 373.587893 144.987427 
L 379.045 153.17778 
L 384.502107 157.686279 
L 389.959215 155.922592 
L 395.416322 151.57922 
L 400.87343 144.453808 
L 406.330537 137.621692 
L 411.787645 141.35596 
L 417.244752 154.005283 
L 422.70186 163.900979 
L 428.158967 163.619208 
L 433.616074 156.301113 
L 439.073182 147.655057 
L 444.530289 143.839263 
L 449.987397 150.057042 
L 455.444504 160.684297 
L 460.901612 167.359243 
L 466.358719 167.150586 
L 471.815826 162.90209 
L 477.272934 159.017956 
L 482.730041 159.824715 
L 488.187149 166.945927 
L 493.644256 177.265652 
L 499.101364 183.728701 
" style="fill:none;stroke:#7516fd;stroke-dasharray:6.475,2.8;stroke-dashoffset:0;stroke-width:1.75;"/>
   </g>
   <g id="line2d_25">
    <path clip-path="url(#pd1970f49ac)" d="M 78.904091 251.368639 
L 84.361198 251.318226 
L 89.818306 251.267015 
L 95.275413 251.23362 
L 100.732521 251.118061 
L 106.189628 250.938021 
L 111.646736 250.795945 
L 117.103843 250.671601 
L 122.56095 250.551633 
L 128.018058 250.457073 
L 133.475165 250.410441 
L 138.932273 250.184963 
L 144.38938 249.379952 
L 149.846488 247.877802 
L 155.303595 246.689152 
L 160.760702 247.051548 
L 166.21781 247.548262 
L 171.674917 245.971844 
L 177.132025 243.937778 
L 182.589132 243.123223 
L 188.04624 241.305226 
L 193.503347 236.572355 
L 198.960455 234.963343 
L 204.417562 235.767403 
L 209.874669 233.415612 
L 215.331777 228.568747 
L 220.788884 222.636776 
L 226.245992 214.515677 
L 231.703099 207.98917 
L 237.160207 206.885414 
L 242.617314 207.040575 
L 248.074421 203.628309 
L 253.531529 194.955287 
L 258.988636 184.269783 
L 264.445744 178.509005 
L 269.902851 177.298632 
L 275.359959 174.362035 
L 280.817066 171.164244 
L 286.274174 176.331292 
L 291.731281 177.357598 
L 297.188388 168.169064 
L 302.645496 153.812356 
L 308.102603 141.602188 
L 313.559711 148.73397 
L 319.016818 161.876626 
L 324.473926 167.88267 
L 329.931033 168.406398 
L 335.38814 168.89524 
L 340.845248 166.679551 
L 346.302355 160.690209 
L 351.759463 157.103203 
L 357.21657 159.582233 
L 362.673678 167.635867 
L 368.130785 173.883875 
L 373.587893 174.16557 
L 379.045 170.232115 
L 384.502107 166.551409 
L 389.959215 168.398093 
L 395.416322 173.633278 
L 400.87343 178.012229 
L 406.330537 179.047877 
L 411.787645 171.819322 
L 417.244752 159.143893 
L 422.70186 156.123925 
L 428.158967 165.325517 
L 433.616074 174.90213 
L 439.073182 177.240688 
L 444.530289 169.87573 
L 449.987397 159.915385 
L 455.444504 160.587303 
L 460.901612 170.698053 
L 466.358719 180.066953 
L 471.815826 184.080492 
L 477.272934 184.975661 
" style="fill:none;stroke:#89f9c9;stroke-linecap:round;stroke-width:1.75;"/>
   </g>
   <g id="patch_3">
    <path d="M 48.89 309.219036 
L 48.89 10.8 
" style="fill:none;"/>
   </g>
   <g id="patch_4">
    <path d="M 709.2 309.219036 
L 709.2 10.8 
" style="fill:none;"/>
   </g>
   <g id="patch_5">
    <path d="M 48.89 309.219036 
L 709.2 309.219036 
" style="fill:none;"/>
   </g>
   <g id="patch_6">
    <path d="M 48.89 10.8 
L 709.2 10.8 
" style="fill:none;"/>
   </g>
   <g id="legend_1">
    <g id="line2d_26">
     <path d="M 601.051563 23.546875 
L 621.051563 23.546875 
" style="fill:none;stroke:#989173;stroke-linecap:round;stroke-width:1.75;"/>
    </g>
    <g id="line2d_27"/>
    <g id="text_15">
     <!-- Austria -->
     <defs>
      <path d="M 56.984375 0 
L 49.125 20.125 
L 17.78125 20.125 
L 9.859375 0 
L 0.203125 0 
L 28.265625 68.796875 
L 38.875 68.796875 
L 66.5 0 
z
M 37.5 50.09375 
Q 36.71875 52.046875 36 54.046875 
Q 35.296875 56.0625 34.765625 57.6875 
Q 34.234375 59.328125 33.859375 60.421875 
Q 33.5 61.53125 33.453125 61.765625 
Q 33.34375 61.53125 33 60.40625 
Q 32.671875 59.28125 32.109375 57.609375 
Q 31.546875 55.953125 30.828125 53.953125 
Q 30.125 51.953125 29.390625 50 
L 20.609375 27.390625 
L 46.34375 27.390625 
z
" id="LiberationSans-65"/>
     </defs>
     <g style="fill:#262626;" transform="translate(629.051563 27.046875)scale(0.1 -0.1)">
      <use xlink:href="#LiberationSans-65"/>
      <use x="66.699219" xlink:href="#LiberationSans-117"/>
      <use x="122.314453" xlink:href="#LiberationSans-115"/>
      <use x="172.314453" xlink:href="#LiberationSans-116"/>
      <use x="200.097656" xlink:href="#LiberationSans-114"/>
      <use x="233.398438" xlink:href="#LiberationSans-105"/>
      <use x="255.615234" xlink:href="#LiberationSans-97"/>
     </g>
    </g>
    <g id="line2d_28">
     <path d="M 601.051563 37.86875 
L 621.051563 37.86875 
" style="fill:none;stroke:#42537f;stroke-linecap:round;stroke-width:1.75;"/>
    </g>
    <g id="line2d_29"/>
    <g id="text_16">
     <!-- Brazil -->
     <defs>
      <path d="M 61.421875 19.390625 
Q 61.421875 14.15625 59.375 10.46875 
Q 57.328125 6.78125 53.859375 4.46875 
Q 50.390625 2.15625 45.796875 1.078125 
Q 41.21875 0 36.140625 0 
L 8.203125 0 
L 8.203125 68.796875 
L 33.203125 68.796875 
Q 38.921875 68.796875 43.40625 67.84375 
Q 47.90625 66.890625 51.03125 64.84375 
Q 54.15625 62.796875 55.78125 59.640625 
Q 57.421875 56.5 57.421875 52.09375 
Q 57.421875 49.21875 56.609375 46.671875 
Q 55.8125 44.140625 54.171875 42.0625 
Q 52.546875 39.984375 50.078125 38.5 
Q 47.609375 37.015625 44.34375 36.28125 
Q 48.484375 35.796875 51.6875 34.375 
Q 54.890625 32.953125 57.03125 30.75 
Q 59.1875 28.5625 60.296875 25.65625 
Q 61.421875 22.75 61.421875 19.390625 
z
M 48.046875 50.984375 
Q 48.046875 56.546875 44.234375 58.9375 
Q 40.4375 61.328125 33.203125 61.328125 
L 17.53125 61.328125 
L 17.53125 39.546875 
L 33.203125 39.546875 
Q 37.3125 39.546875 40.140625 40.34375 
Q 42.96875 41.15625 44.71875 42.640625 
Q 46.484375 44.140625 47.265625 46.234375 
Q 48.046875 48.34375 48.046875 50.984375 
z
M 52 20.125 
Q 52 23.390625 50.796875 25.6875 
Q 49.609375 27.984375 47.359375 29.4375 
Q 45.125 30.90625 41.96875 31.59375 
Q 38.8125 32.28125 34.90625 32.28125 
L 17.53125 32.28125 
L 17.53125 7.46875 
L 35.640625 7.46875 
Q 39.203125 7.46875 42.203125 8.046875 
Q 45.21875 8.640625 47.390625 10.109375 
Q 49.5625 11.578125 50.78125 14.015625 
Q 52 16.453125 52 20.125 
z
" id="LiberationSans-66"/>
      <path d="M 2.390625 0 
L 2.390625 6.6875 
L 34.671875 46.046875 
L 4.34375 46.046875 
L 4.34375 52.828125 
L 44.578125 52.828125 
L 44.578125 46.140625 
L 12.25 6.78125 
L 46.390625 6.78125 
L 46.390625 0 
z
" id="LiberationSans-122"/>
     </defs>
     <g style="fill:#262626;" transform="translate(629.051563 41.36875)scale(0.1 -0.1)">
      <use xlink:href="#LiberationSans-66"/>
      <use x="66.699219" xlink:href="#LiberationSans-114"/>
      <use x="100" xlink:href="#LiberationSans-97"/>
      <use x="155.615234" xlink:href="#LiberationSans-122"/>
      <use x="205.615234" xlink:href="#LiberationSans-105"/>
      <use x="227.832031" xlink:href="#LiberationSans-108"/>
     </g>
    </g>
    <g id="line2d_30">
     <path d="M 601.051563 52.190625 
L 621.051563 52.190625 
" style="fill:none;stroke:#ae54a5;stroke-dasharray:6.475,2.8;stroke-dashoffset:0;stroke-width:1.75;"/>
    </g>
    <g id="line2d_31"/>
    <g id="text_17">
     <!-- China -->
     <defs>
      <path d="M 38.671875 62.203125 
Q 32.8125 62.203125 28.296875 60.25 
Q 23.78125 58.296875 20.71875 54.6875 
Q 17.671875 51.078125 16.109375 46 
Q 14.546875 40.921875 14.546875 34.71875 
Q 14.546875 28.515625 16.234375 23.359375 
Q 17.921875 18.21875 21.0625 14.5 
Q 24.21875 10.796875 28.78125 8.734375 
Q 33.34375 6.6875 39.0625 6.6875 
Q 43.0625 6.6875 46.359375 7.734375 
Q 49.65625 8.796875 52.3125 10.6875 
Q 54.984375 12.59375 57.078125 15.203125 
Q 59.1875 17.828125 60.796875 21 
L 68.40625 17.1875 
Q 66.546875 13.328125 63.8125 10 
Q 61.078125 6.6875 57.390625 4.25 
Q 53.71875 1.8125 49.046875 0.40625 
Q 44.390625 -0.984375 38.625 -0.984375 
Q 30.28125 -0.984375 24 1.671875 
Q 17.71875 4.34375 13.5 9.109375 
Q 9.28125 13.875 7.171875 20.40625 
Q 5.078125 26.953125 5.078125 34.71875 
Q 5.078125 42.78125 7.296875 49.265625 
Q 9.515625 55.765625 13.78125 60.328125 
Q 18.0625 64.890625 24.3125 67.359375 
Q 30.5625 69.828125 38.578125 69.828125 
Q 49.5625 69.828125 56.9375 65.53125 
Q 64.3125 61.234375 67.78125 52.78125 
L 58.9375 49.859375 
Q 57.953125 52.296875 56.296875 54.515625 
Q 54.640625 56.734375 52.140625 58.4375 
Q 49.65625 60.15625 46.3125 61.171875 
Q 42.96875 62.203125 38.671875 62.203125 
z
" id="LiberationSans-67"/>
      <path d="M 15.484375 43.796875 
Q 16.9375 46.484375 18.640625 48.359375 
Q 20.359375 50.25 22.40625 51.46875 
Q 24.46875 52.6875 26.90625 53.25 
Q 29.34375 53.8125 32.375 53.8125 
Q 37.453125 53.8125 40.703125 52.4375 
Q 43.953125 51.078125 45.828125 48.609375 
Q 47.703125 46.140625 48.40625 42.71875 
Q 49.125 39.3125 49.125 35.203125 
L 49.125 0 
L 40.28125 0 
L 40.28125 33.5 
Q 40.28125 36.859375 39.859375 39.390625 
Q 39.453125 41.9375 38.28125 43.625 
Q 37.109375 45.3125 34.953125 46.15625 
Q 32.8125 47.015625 29.390625 47.015625 
Q 26.265625 47.015625 23.75 45.890625 
Q 21.234375 44.78125 19.453125 42.71875 
Q 17.671875 40.671875 16.6875 37.734375 
Q 15.71875 34.8125 15.71875 31.15625 
L 15.71875 0 
L 6.9375 0 
L 6.9375 72.46875 
L 15.71875 72.46875 
L 15.71875 53.609375 
Q 15.71875 52 15.671875 50.390625 
Q 15.625 48.78125 15.546875 47.40625 
Q 15.484375 46.046875 15.421875 45.09375 
Q 15.375 44.140625 15.328125 43.796875 
z
" id="LiberationSans-104"/>
     </defs>
     <g style="fill:#262626;" transform="translate(629.051563 55.690625)scale(0.1 -0.1)">
      <use xlink:href="#LiberationSans-67"/>
      <use x="72.216797" xlink:href="#LiberationSans-104"/>
      <use x="127.832031" xlink:href="#LiberationSans-105"/>
      <use x="150.048828" xlink:href="#LiberationSans-110"/>
      <use x="205.664062" xlink:href="#LiberationSans-97"/>
     </g>
    </g>
    <g id="line2d_32">
     <path d="M 601.051563 66.5125 
L 621.051563 66.5125 
" style="fill:none;stroke:#0309a6;stroke-linecap:round;stroke-width:1.75;"/>
    </g>
    <g id="line2d_33"/>
    <g id="text_18">
     <!-- France -->
     <defs>
      <path d="M 17.53125 61.1875 
L 17.53125 35.59375 
L 55.90625 35.59375 
L 55.90625 27.875 
L 17.53125 27.875 
L 17.53125 0 
L 8.203125 0 
L 8.203125 68.796875 
L 57.078125 68.796875 
L 57.078125 61.1875 
z
" id="LiberationSans-70"/>
     </defs>
     <g style="fill:#262626;" transform="translate(629.051563 70.0125)scale(0.1 -0.1)">
      <use xlink:href="#LiberationSans-70"/>
      <use x="61.083984" xlink:href="#LiberationSans-114"/>
      <use x="94.384766" xlink:href="#LiberationSans-97"/>
      <use x="150" xlink:href="#LiberationSans-110"/>
      <use x="205.615234" xlink:href="#LiberationSans-99"/>
      <use x="255.615234" xlink:href="#LiberationSans-101"/>
     </g>
    </g>
    <g id="line2d_34">
     <path d="M 601.051563 80.834375 
L 621.051563 80.834375 
" style="fill:none;stroke:#d8b009;stroke-linecap:round;stroke-width:1.75;"/>
    </g>
    <g id="line2d_35"/>
    <g id="text_19">
     <!-- Germany -->
     <defs>
      <path d="M 5.03125 34.71875 
Q 5.03125 42.78125 7.203125 49.265625 
Q 9.375 55.765625 13.6875 60.328125 
Q 18.015625 64.890625 24.40625 67.359375 
Q 30.8125 69.828125 39.265625 69.828125 
Q 45.609375 69.828125 50.390625 68.703125 
Q 55.171875 67.578125 58.6875 65.46875 
Q 62.203125 63.375 64.640625 60.375 
Q 67.09375 57.375 68.796875 53.609375 
L 59.90625 50.984375 
Q 58.640625 53.515625 56.859375 55.59375 
Q 55.078125 57.671875 52.53125 59.125 
Q 50 60.59375 46.65625 61.390625 
Q 43.3125 62.203125 39.015625 62.203125 
Q 32.765625 62.203125 28.140625 60.25 
Q 23.53125 58.296875 20.5 54.6875 
Q 17.484375 51.078125 15.984375 46 
Q 14.5 40.921875 14.5 34.71875 
Q 14.5 28.515625 16.109375 23.359375 
Q 17.71875 18.21875 20.890625 14.484375 
Q 24.078125 10.75 28.78125 8.671875 
Q 33.5 6.59375 39.703125 6.59375 
Q 43.75 6.59375 47.171875 7.265625 
Q 50.59375 7.953125 53.34375 9.046875 
Q 56.109375 10.15625 58.203125 11.5 
Q 60.296875 12.84375 61.71875 14.203125 
L 61.71875 26.609375 
L 41.15625 26.609375 
L 41.15625 34.421875 
L 70.3125 34.421875 
L 70.3125 10.6875 
Q 68.015625 8.34375 64.90625 6.21875 
Q 61.8125 4.109375 57.953125 2.484375 
Q 54.109375 0.875 49.515625 -0.046875 
Q 44.921875 -0.984375 39.703125 -0.984375 
Q 31 -0.984375 24.5 1.671875 
Q 18.015625 4.34375 13.6875 9.109375 
Q 9.375 13.875 7.203125 20.40625 
Q 5.03125 26.953125 5.03125 34.71875 
z
" id="LiberationSans-71"/>
      <path d="M 37.5 0 
L 37.5 33.5 
Q 37.5 37.359375 37.015625 39.9375 
Q 36.53125 42.53125 35.375 44.109375 
Q 34.234375 45.703125 32.375 46.359375 
Q 30.515625 47.015625 27.828125 47.015625 
Q 25.046875 47.015625 22.796875 45.921875 
Q 20.5625 44.828125 18.96875 42.75 
Q 17.390625 40.671875 16.53125 37.625 
Q 15.671875 34.578125 15.671875 30.609375 
L 15.671875 0 
L 6.9375 0 
L 6.9375 41.546875 
Q 6.9375 43.21875 6.90625 45.046875 
Q 6.890625 46.875 6.828125 48.5 
Q 6.78125 50.140625 6.734375 51.3125 
Q 6.6875 52.484375 6.640625 52.828125 
L 14.9375 52.828125 
Q 14.984375 52.59375 15.03125 51.515625 
Q 15.09375 50.4375 15.15625 49.046875 
Q 15.234375 47.65625 15.28125 46.21875 
Q 15.328125 44.78125 15.328125 43.796875 
L 15.484375 43.796875 
Q 16.65625 46.09375 18.015625 47.953125 
Q 19.390625 49.8125 21.21875 51.09375 
Q 23.046875 52.390625 25.40625 53.09375 
Q 27.78125 53.8125 30.90625 53.8125 
Q 36.921875 53.8125 40.40625 51.421875 
Q 43.890625 49.03125 45.265625 43.796875 
L 45.40625 43.796875 
Q 46.578125 46.09375 48.046875 47.953125 
Q 49.515625 49.8125 51.46875 51.09375 
Q 53.421875 52.390625 55.859375 53.09375 
Q 58.296875 53.8125 61.421875 53.8125 
Q 65.4375 53.8125 68.328125 52.734375 
Q 71.234375 51.65625 73.09375 49.40625 
Q 74.953125 47.171875 75.828125 43.625 
Q 76.703125 40.09375 76.703125 35.203125 
L 76.703125 0 
L 68.015625 0 
L 68.015625 33.5 
Q 68.015625 37.359375 67.53125 39.9375 
Q 67.046875 42.53125 65.890625 44.109375 
Q 64.75 45.703125 62.890625 46.359375 
Q 61.03125 47.015625 58.34375 47.015625 
Q 55.5625 47.015625 53.3125 45.96875 
Q 51.078125 44.921875 49.484375 42.875 
Q 47.90625 40.828125 47.046875 37.75 
Q 46.1875 34.671875 46.1875 30.609375 
L 46.1875 0 
z
" id="LiberationSans-109"/>
     </defs>
     <g style="fill:#262626;" transform="translate(629.051563 84.334375)scale(0.1 -0.1)">
      <use xlink:href="#LiberationSans-71"/>
      <use x="77.783203" xlink:href="#LiberationSans-101"/>
      <use x="133.398438" xlink:href="#LiberationSans-114"/>
      <use x="166.699219" xlink:href="#LiberationSans-109"/>
      <use x="250" xlink:href="#LiberationSans-97"/>
      <use x="305.615234" xlink:href="#LiberationSans-110"/>
      <use x="361.230469" xlink:href="#LiberationSans-121"/>
     </g>
    </g>
    <g id="line2d_36">
     <path d="M 601.051563 95.15625 
L 621.051563 95.15625 
" style="fill:none;stroke:#1007e1;stroke-linecap:round;stroke-width:1.75;"/>
    </g>
    <g id="line2d_37"/>
    <g id="text_20">
     <!-- Italy -->
     <defs>
      <path d="M 9.234375 0 
L 9.234375 68.796875 
L 18.5625 68.796875 
L 18.5625 0 
z
" id="LiberationSans-73"/>
     </defs>
     <g style="fill:#262626;" transform="translate(629.051563 98.65625)scale(0.1 -0.1)">
      <use xlink:href="#LiberationSans-73"/>
      <use x="27.783203" xlink:href="#LiberationSans-116"/>
      <use x="55.566406" xlink:href="#LiberationSans-97"/>
      <use x="111.181641" xlink:href="#LiberationSans-108"/>
      <use x="133.398438" xlink:href="#LiberationSans-121"/>
     </g>
    </g>
    <g id="line2d_38">
     <path d="M 601.051563 109.478125 
L 621.051563 109.478125 
" style="fill:none;stroke:#a67d4c;stroke-linecap:round;stroke-width:1.75;"/>
    </g>
    <g id="line2d_39"/>
    <g id="text_21">
     <!-- Netherlands -->
     <defs>
      <path d="M 40.09375 8.5 
Q 37.640625 3.421875 33.609375 1.21875 
Q 29.59375 -0.984375 23.640625 -0.984375 
Q 13.625 -0.984375 8.90625 5.75 
Q 4.203125 12.5 4.203125 26.171875 
Q 4.203125 53.8125 23.640625 53.8125 
Q 29.640625 53.8125 33.640625 51.609375 
Q 37.640625 49.421875 40.09375 44.625 
L 40.1875 44.625 
Q 40.1875 45.125 40.15625 46.171875 
Q 40.140625 47.21875 40.109375 48.359375 
Q 40.09375 49.515625 40.09375 50.53125 
Q 40.09375 51.5625 40.09375 52 
L 40.09375 72.46875 
L 48.875 72.46875 
L 48.875 10.890625 
Q 48.875 8.984375 48.890625 7.21875 
Q 48.921875 5.46875 48.96875 4 
Q 49.03125 2.546875 49.078125 1.484375 
Q 49.125 0.4375 49.171875 0 
L 40.765625 0 
Q 40.671875 0.484375 40.59375 1.390625 
Q 40.53125 2.296875 40.453125 3.46875 
Q 40.375 4.640625 40.328125 5.9375 
Q 40.28125 7.234375 40.28125 8.5 
z
M 13.421875 26.46875 
Q 13.421875 21 14.109375 17.09375 
Q 14.796875 13.1875 16.3125 10.671875 
Q 17.828125 8.15625 20.171875 6.984375 
Q 22.515625 5.8125 25.875 5.8125 
Q 29.34375 5.8125 32 6.9375 
Q 34.671875 8.0625 36.453125 10.578125 
Q 38.234375 13.09375 39.15625 17.140625 
Q 40.09375 21.1875 40.09375 27.046875 
Q 40.09375 32.671875 39.15625 36.546875 
Q 38.234375 40.4375 36.421875 42.828125 
Q 34.625 45.21875 32 46.265625 
Q 29.390625 47.3125 25.984375 47.3125 
Q 22.75 47.3125 20.40625 46.1875 
Q 18.0625 45.0625 16.5 42.578125 
Q 14.9375 40.09375 14.171875 36.109375 
Q 13.421875 32.125 13.421875 26.46875 
z
" id="LiberationSans-100"/>
     </defs>
     <g style="fill:#262626;" transform="translate(629.051563 112.978125)scale(0.1 -0.1)">
      <use xlink:href="#LiberationSans-78"/>
      <use x="72.216797" xlink:href="#LiberationSans-101"/>
      <use x="127.832031" xlink:href="#LiberationSans-116"/>
      <use x="155.615234" xlink:href="#LiberationSans-104"/>
      <use x="211.230469" xlink:href="#LiberationSans-101"/>
      <use x="266.845703" xlink:href="#LiberationSans-114"/>
      <use x="300.146484" xlink:href="#LiberationSans-108"/>
      <use x="322.363281" xlink:href="#LiberationSans-97"/>
      <use x="377.978516" xlink:href="#LiberationSans-110"/>
      <use x="433.59375" xlink:href="#LiberationSans-100"/>
      <use x="489.208984" xlink:href="#LiberationSans-115"/>
     </g>
    </g>
    <g id="line2d_40">
     <path d="M 601.051563 123.8 
L 621.051563 123.8 
" style="fill:none;stroke:#ea71b3;stroke-linecap:round;stroke-width:1.75;"/>
    </g>
    <g id="line2d_41"/>
    <g id="text_22">
     <!-- Portugal -->
     <defs>
      <path d="M 61.421875 48.09375 
Q 61.421875 43.609375 59.9375 39.71875 
Q 58.453125 35.84375 55.5 32.984375 
Q 52.546875 30.125 48.09375 28.46875 
Q 43.65625 26.8125 37.75 26.8125 
L 17.53125 26.8125 
L 17.53125 0 
L 8.203125 0 
L 8.203125 68.796875 
L 37.15625 68.796875 
Q 43.265625 68.796875 47.796875 67.3125 
Q 52.34375 65.828125 55.375 63.109375 
Q 58.40625 60.40625 59.90625 56.5625 
Q 61.421875 52.734375 61.421875 48.09375 
z
M 52.046875 48 
Q 52.046875 54.546875 48.046875 57.9375 
Q 44.046875 61.328125 36.03125 61.328125 
L 17.53125 61.328125 
L 17.53125 34.1875 
L 36.421875 34.1875 
Q 44.484375 34.1875 48.265625 37.75 
Q 52.046875 41.3125 52.046875 48 
z
" id="LiberationSans-80"/>
      <path d="M 26.765625 -20.75 
Q 22.21875 -20.75 18.703125 -19.8125 
Q 15.1875 -18.890625 12.6875 -17.15625 
Q 10.203125 -15.4375 8.640625 -13.03125 
Q 7.078125 -10.640625 6.390625 -7.71875 
L 15.234375 -6.453125 
Q 16.109375 -10.109375 19.109375 -12.078125 
Q 22.125 -14.0625 27 -14.0625 
Q 29.984375 -14.0625 32.421875 -13.234375 
Q 34.859375 -12.40625 36.5625 -10.5625 
Q 38.28125 -8.734375 39.203125 -5.796875 
Q 40.140625 -2.875 40.140625 1.3125 
L 40.140625 9.8125 
L 40.046875 9.8125 
Q 39.0625 7.8125 37.625 5.984375 
Q 36.1875 4.15625 34.109375 2.734375 
Q 32.03125 1.3125 29.296875 0.453125 
Q 26.5625 -0.390625 23.046875 -0.390625 
Q 18.015625 -0.390625 14.421875 1.296875 
Q 10.84375 2.984375 8.5625 6.34375 
Q 6.296875 9.71875 5.25 14.71875 
Q 4.203125 19.734375 4.203125 26.3125 
Q 4.203125 32.671875 5.25 37.75 
Q 6.296875 42.828125 8.65625 46.359375 
Q 11.03125 49.90625 14.8125 51.78125 
Q 18.609375 53.65625 24.03125 53.65625 
Q 29.640625 53.65625 33.765625 51.09375 
Q 37.890625 48.53125 40.140625 43.796875 
L 40.234375 43.796875 
Q 40.234375 45.015625 40.296875 46.53125 
Q 40.375 48.046875 40.453125 49.390625 
Q 40.53125 50.734375 40.625 51.703125 
Q 40.71875 52.6875 40.828125 52.828125 
L 49.171875 52.828125 
Q 49.125 52.390625 49.078125 51.34375 
Q 49.03125 50.296875 48.96875 48.828125 
Q 48.921875 47.359375 48.890625 45.578125 
Q 48.875 43.796875 48.875 41.890625 
L 48.875 1.515625 
Q 48.875 -9.578125 43.421875 -15.15625 
Q 37.984375 -20.75 26.765625 -20.75 
z
M 40.140625 26.421875 
Q 40.140625 31.9375 38.9375 35.859375 
Q 37.75 39.796875 35.796875 42.28125 
Q 33.84375 44.78125 31.328125 45.953125 
Q 28.8125 47.125 26.171875 47.125 
Q 22.796875 47.125 20.375 45.953125 
Q 17.96875 44.78125 16.375 42.265625 
Q 14.796875 39.75 14.03125 35.8125 
Q 13.28125 31.890625 13.28125 26.421875 
Q 13.28125 20.703125 14.03125 16.8125 
Q 14.796875 12.9375 16.359375 10.546875 
Q 17.921875 8.15625 20.3125 7.125 
Q 22.703125 6.109375 26.03125 6.109375 
Q 28.65625 6.109375 31.171875 7.21875 
Q 33.6875 8.34375 35.6875 10.78125 
Q 37.703125 13.234375 38.921875 17.09375 
Q 40.140625 20.953125 40.140625 26.421875 
z
" id="LiberationSans-103"/>
     </defs>
     <g style="fill:#262626;" transform="translate(629.051563 127.3)scale(0.1 -0.1)">
      <use xlink:href="#LiberationSans-80"/>
      <use x="66.699219" xlink:href="#LiberationSans-111"/>
      <use x="122.314453" xlink:href="#LiberationSans-114"/>
      <use x="155.615234" xlink:href="#LiberationSans-116"/>
      <use x="183.398438" xlink:href="#LiberationSans-117"/>
      <use x="239.013672" xlink:href="#LiberationSans-103"/>
      <use x="294.628906" xlink:href="#LiberationSans-97"/>
      <use x="350.244141" xlink:href="#LiberationSans-108"/>
     </g>
    </g>
    <g id="line2d_42">
     <path d="M 601.051563 138.121875 
L 621.051563 138.121875 
" style="fill:none;stroke:#5feb16;stroke-linecap:round;stroke-width:1.75;"/>
    </g>
    <g id="line2d_43"/>
    <g id="text_23">
     <!-- Russia -->
     <defs>
      <path d="M 56.84375 0 
L 38.96875 28.5625 
L 17.53125 28.5625 
L 17.53125 0 
L 8.203125 0 
L 8.203125 68.796875 
L 40.578125 68.796875 
Q 46.4375 68.796875 50.953125 67.453125 
Q 55.46875 66.109375 58.546875 63.5625 
Q 61.625 61.03125 63.234375 57.375 
Q 64.84375 53.71875 64.84375 49.125 
Q 64.84375 45.84375 63.890625 42.671875 
Q 62.9375 39.5 60.890625 36.859375 
Q 58.84375 34.234375 55.65625 32.328125 
Q 52.484375 30.421875 48.046875 29.640625 
L 67.578125 0 
z
M 55.46875 49.03125 
Q 55.46875 52.15625 54.390625 54.4375 
Q 53.328125 56.734375 51.265625 58.265625 
Q 49.21875 59.8125 46.28125 60.5625 
Q 43.359375 61.328125 39.65625 61.328125 
L 17.53125 61.328125 
L 17.53125 35.9375 
L 40.046875 35.9375 
Q 44.046875 35.9375 46.96875 36.9375 
Q 49.90625 37.9375 51.78125 39.6875 
Q 53.65625 41.453125 54.5625 43.84375 
Q 55.46875 46.234375 55.46875 49.03125 
z
" id="LiberationSans-82"/>
     </defs>
     <g style="fill:#262626;" transform="translate(629.051563 141.621875)scale(0.1 -0.1)">
      <use xlink:href="#LiberationSans-82"/>
      <use x="72.216797" xlink:href="#LiberationSans-117"/>
      <use x="127.832031" xlink:href="#LiberationSans-115"/>
      <use x="177.832031" xlink:href="#LiberationSans-115"/>
      <use x="227.832031" xlink:href="#LiberationSans-105"/>
      <use x="250.048828" xlink:href="#LiberationSans-97"/>
     </g>
    </g>
    <g id="line2d_44">
     <path d="M 601.051563 152.44375 
L 621.051563 152.44375 
" style="fill:none;stroke:#907eba;stroke-linecap:round;stroke-width:1.75;"/>
    </g>
    <g id="line2d_45"/>
    <g id="text_24">
     <!-- Spain -->
     <defs>
      <path d="M 62.109375 19 
Q 62.109375 14.65625 60.421875 10.984375 
Q 58.734375 7.328125 55.21875 4.65625 
Q 51.703125 2 46.359375 0.5 
Q 41.015625 -0.984375 33.6875 -0.984375 
Q 20.84375 -0.984375 13.671875 3.515625 
Q 6.5 8.015625 4.546875 16.5 
L 13.578125 18.3125 
Q 14.265625 15.625 15.671875 13.421875 
Q 17.09375 11.234375 19.5 9.640625 
Q 21.921875 8.0625 25.484375 7.171875 
Q 29.046875 6.296875 34.03125 6.296875 
Q 38.1875 6.296875 41.65625 7 
Q 45.125 7.71875 47.609375 9.171875 
Q 50.09375 10.640625 51.484375 12.953125 
Q 52.875 15.28125 52.875 18.5 
Q 52.875 21.875 51.34375 23.96875 
Q 49.8125 26.078125 47.015625 27.4375 
Q 44.234375 28.8125 40.375 29.734375 
Q 36.53125 30.671875 31.84375 31.734375 
Q 28.953125 32.375 26.046875 33.125 
Q 23.140625 33.890625 20.484375 34.9375 
Q 17.828125 35.984375 15.484375 37.390625 
Q 13.140625 38.8125 11.421875 40.796875 
Q 9.71875 42.78125 8.734375 45.390625 
Q 7.765625 48 7.765625 51.421875 
Q 7.765625 56.296875 9.734375 59.78125 
Q 11.71875 63.28125 15.234375 65.53125 
Q 18.75 67.78125 23.53125 68.796875 
Q 28.328125 69.828125 33.890625 69.828125 
Q 40.28125 69.828125 44.8125 68.828125 
Q 49.359375 67.828125 52.484375 65.8125 
Q 55.609375 63.8125 57.484375 60.859375 
Q 59.375 57.90625 60.5 54 
L 51.3125 52.390625 
Q 50.640625 54.890625 49.34375 56.84375 
Q 48.046875 58.796875 45.9375 60.109375 
Q 43.84375 61.421875 40.84375 62.109375 
Q 37.84375 62.796875 33.796875 62.796875 
Q 29 62.796875 25.75 61.9375 
Q 22.515625 61.078125 20.53125 59.609375 
Q 18.5625 58.15625 17.703125 56.171875 
Q 16.84375 54.203125 16.84375 51.90625 
Q 16.84375 48.828125 18.375 46.84375 
Q 19.921875 44.875 22.5625 43.546875 
Q 25.203125 42.234375 28.65625 41.359375 
Q 32.125 40.484375 36.03125 39.59375 
Q 39.203125 38.875 42.359375 38.109375 
Q 45.515625 37.359375 48.390625 36.296875 
Q 51.265625 35.25 53.78125 33.828125 
Q 56.296875 32.421875 58.15625 30.375 
Q 60.015625 28.328125 61.0625 25.53125 
Q 62.109375 22.75 62.109375 19 
z
" id="LiberationSans-83"/>
     </defs>
     <g style="fill:#262626;" transform="translate(629.051563 155.94375)scale(0.1 -0.1)">
      <use xlink:href="#LiberationSans-83"/>
      <use x="66.699219" xlink:href="#LiberationSans-112"/>
      <use x="122.314453" xlink:href="#LiberationSans-97"/>
      <use x="177.929688" xlink:href="#LiberationSans-105"/>
      <use x="200.146484" xlink:href="#LiberationSans-110"/>
     </g>
    </g>
    <g id="line2d_46">
     <path d="M 601.051563 166.765625 
L 621.051563 166.765625 
" style="fill:none;stroke:#221cdf;stroke-linecap:round;stroke-width:1.75;"/>
    </g>
    <g id="line2d_47"/>
    <g id="text_25">
     <!-- Turkey -->
     <defs>
      <path d="M 35.15625 61.1875 
L 35.15625 0 
L 25.875 0 
L 25.875 61.1875 
L 2.25 61.1875 
L 2.25 68.796875 
L 58.796875 68.796875 
L 58.796875 61.1875 
z
" id="LiberationSans-84"/>
      <path d="M 39.84375 0 
L 21.96875 24.125 
L 15.53125 18.796875 
L 15.53125 0 
L 6.734375 0 
L 6.734375 72.46875 
L 15.53125 72.46875 
L 15.53125 27.203125 
L 38.71875 52.828125 
L 49.03125 52.828125 
L 27.59375 30.125 
L 50.140625 0 
z
" id="LiberationSans-107"/>
     </defs>
     <g style="fill:#262626;" transform="translate(629.051563 170.265625)scale(0.1 -0.1)">
      <use xlink:href="#LiberationSans-84"/>
      <use x="61.037109" xlink:href="#LiberationSans-117"/>
      <use x="116.652344" xlink:href="#LiberationSans-114"/>
      <use x="149.953125" xlink:href="#LiberationSans-107"/>
      <use x="199.953125" xlink:href="#LiberationSans-101"/>
      <use x="255.568359" xlink:href="#LiberationSans-121"/>
     </g>
    </g>
    <g id="line2d_48">
     <path d="M 601.051563 181.0875 
L 621.051563 181.0875 
" style="fill:none;stroke:#7516fd;stroke-dasharray:6.475,2.8;stroke-dashoffset:0;stroke-width:1.75;"/>
    </g>
    <g id="line2d_49"/>
    <g id="text_26">
     <!-- US -->
     <defs>
      <path d="M 35.6875 -0.984375 
Q 30.03125 -0.984375 24.953125 0.53125 
Q 19.875 2.046875 16.03125 5.25 
Q 12.203125 8.453125 9.953125 13.359375 
Q 7.71875 18.265625 7.71875 25 
L 7.71875 68.796875 
L 17.046875 68.796875 
L 17.046875 25.78125 
Q 17.046875 20.5625 18.4375 16.921875 
Q 19.828125 13.28125 22.3125 10.984375 
Q 24.8125 8.6875 28.203125 7.640625 
Q 31.59375 6.59375 35.640625 6.59375 
Q 39.65625 6.59375 43.21875 7.65625 
Q 46.78125 8.734375 49.46875 11.078125 
Q 52.15625 13.421875 53.6875 17.203125 
Q 55.21875 21 55.21875 26.421875 
L 55.21875 68.796875 
L 64.5 68.796875 
L 64.5 25.875 
Q 64.5 19 62.234375 13.9375 
Q 59.96875 8.890625 56.0625 5.5625 
Q 52.15625 2.25 46.90625 0.625 
Q 41.65625 -0.984375 35.6875 -0.984375 
z
" id="LiberationSans-85"/>
     </defs>
     <g style="fill:#262626;" transform="translate(629.051563 184.5875)scale(0.1 -0.1)">
      <use xlink:href="#LiberationSans-85"/>
      <use x="72.216797" xlink:href="#LiberationSans-83"/>
     </g>
    </g>
    <g id="line2d_50">
     <path d="M 601.051563 195.409375 
L 621.051563 195.409375 
" style="fill:none;stroke:#89f9c9;stroke-linecap:round;stroke-width:1.75;"/>
    </g>
    <g id="line2d_51"/>
    <g id="text_27">
     <!-- United Kingdom -->
     <defs>
      <path d="M 54 0 
L 26.515625 33.203125 
L 17.53125 26.375 
L 17.53125 0 
L 8.203125 0 
L 8.203125 68.796875 
L 17.53125 68.796875 
L 17.53125 34.328125 
L 50.6875 68.796875 
L 61.671875 68.796875 
L 32.375 38.921875 
L 65.578125 0 
z
" id="LiberationSans-75"/>
     </defs>
     <g style="fill:#262626;" transform="translate(629.051563 198.909375)scale(0.1 -0.1)">
      <use xlink:href="#LiberationSans-85"/>
      <use x="72.216797" xlink:href="#LiberationSans-110"/>
      <use x="127.832031" xlink:href="#LiberationSans-105"/>
      <use x="150.048828" xlink:href="#LiberationSans-116"/>
      <use x="177.832031" xlink:href="#LiberationSans-101"/>
      <use x="233.447266" xlink:href="#LiberationSans-100"/>
      <use x="289.0625" xlink:href="#LiberationSans-32"/>
      <use x="316.845703" xlink:href="#LiberationSans-75"/>
      <use x="383.544922" xlink:href="#LiberationSans-105"/>
      <use x="405.761719" xlink:href="#LiberationSans-110"/>
      <use x="461.376953" xlink:href="#LiberationSans-103"/>
      <use x="516.992188" xlink:href="#LiberationSans-100"/>
      <use x="572.607422" xlink:href="#LiberationSans-111"/>
      <use x="628.222656" xlink:href="#LiberationSans-109"/>
     </g>
    </g>
   </g>
  </g>
 </g>
 <defs>
  <clipPath id="pd1970f49ac">
   <rect height="298.419036" width="660.31" x="48.89" y="10.8"/>
  </clipPath>
 </defs>
</svg>
