<?xml version="1.0" encoding="utf-8" standalone="no"?>
<!DOCTYPE svg PUBLIC "-//W3C//DTD SVG 1.1//EN"
  "http://www.w3.org/Graphics/SVG/1.1/DTD/svg11.dtd">
<!-- Created with matplotlib (https://matplotlib.org/) -->
<svg height="360pt" version="1.1" viewBox="0 0 720 360" width="720pt" xmlns="http://www.w3.org/2000/svg" xmlns:xlink="http://www.w3.org/1999/xlink">
 <defs>
  <style type="text/css">
*{stroke-linecap:butt;stroke-linejoin:round;}
  </style>
 </defs>
 <g id="figure_1">
  <g id="patch_1">
   <path d="M 0 360 
L 720 360 
L 720 0 
L 0 0 
z
" style="fill:#ffffff;"/>
  </g>
  <g id="axes_1">
   <g id="patch_2">
    <path d="M 48.8 309.155396 
L 709.2 309.155396 
L 709.2 10.8 
L 48.8 10.8 
z
" style="fill:#eaeaf2;"/>
   </g>
   <g id="matplotlib.axis_1">
    <g id="xtick_1">
     <g id="line2d_1"/>
     <g id="text_1">
      <!-- 0 -->
      <defs>
       <path d="M 51.703125 34.421875 
Q 51.703125 24.515625 49.828125 17.75 
Q 47.953125 10.984375 44.703125 6.8125 
Q 41.453125 2.640625 37.0625 0.828125 
Q 32.671875 -0.984375 27.6875 -0.984375 
Q 22.65625 -0.984375 18.3125 0.828125 
Q 13.96875 2.640625 10.765625 6.78125 
Q 7.5625 10.9375 5.734375 17.703125 
Q 3.90625 24.46875 3.90625 34.421875 
Q 3.90625 44.828125 5.734375 51.640625 
Q 7.5625 58.453125 10.78125 62.5 
Q 14.015625 66.546875 18.40625 68.1875 
Q 22.796875 69.828125 27.984375 69.828125 
Q 32.90625 69.828125 37.21875 68.1875 
Q 41.546875 66.546875 44.765625 62.5 
Q 48 58.453125 49.84375 51.640625 
Q 51.703125 44.828125 51.703125 34.421875 
z
M 42.78125 34.421875 
Q 42.78125 42.625 41.796875 48.0625 
Q 40.828125 53.515625 38.921875 56.765625 
Q 37.015625 60.015625 34.25 61.359375 
Q 31.5 62.703125 27.984375 62.703125 
Q 24.265625 62.703125 21.4375 61.328125 
Q 18.609375 59.96875 16.671875 56.71875 
Q 14.75 53.46875 13.765625 48.015625 
Q 12.796875 42.578125 12.796875 34.421875 
Q 12.796875 26.515625 13.796875 21.09375 
Q 14.796875 15.671875 16.71875 12.375 
Q 18.65625 9.078125 21.4375 7.640625 
Q 24.21875 6.203125 27.78125 6.203125 
Q 31.25 6.203125 34.03125 7.640625 
Q 36.8125 9.078125 38.734375 12.375 
Q 40.671875 15.671875 41.71875 21.09375 
Q 42.78125 26.515625 42.78125 34.421875 
z
" id="LiberationSans-48"/>
      </defs>
      <g style="fill:#262626;" transform="translate(78.680627 325.211887)rotate(-45)scale(0.1 -0.1)">
       <use xlink:href="#LiberationSans-48"/>
      </g>
     </g>
    </g>
    <g id="xtick_2">
     <g id="line2d_2"/>
     <g id="text_2">
      <!-- 25 -->
      <defs>
       <path d="M 5.03125 0 
L 5.03125 6.203125 
Q 7.515625 11.921875 11.109375 16.28125 
Q 14.703125 20.65625 18.65625 24.1875 
Q 22.609375 27.734375 26.484375 30.765625 
Q 30.375 33.796875 33.5 36.8125 
Q 36.625 39.84375 38.546875 43.15625 
Q 40.484375 46.484375 40.484375 50.6875 
Q 40.484375 53.609375 39.59375 55.828125 
Q 38.71875 58.0625 37.0625 59.5625 
Q 35.40625 61.078125 33.078125 61.828125 
Q 30.765625 62.59375 27.9375 62.59375 
Q 25.296875 62.59375 22.96875 61.859375 
Q 20.65625 61.140625 18.84375 59.671875 
Q 17.046875 58.203125 15.890625 56.03125 
Q 14.75 53.859375 14.40625 50.984375 
L 5.421875 51.8125 
Q 5.859375 55.515625 7.46875 58.78125 
Q 9.078125 62.0625 11.90625 64.53125 
Q 14.75 67 18.71875 68.40625 
Q 22.703125 69.828125 27.9375 69.828125 
Q 33.0625 69.828125 37.0625 68.609375 
Q 41.0625 67.390625 43.8125 64.984375 
Q 46.578125 62.59375 48.046875 59.078125 
Q 49.515625 55.5625 49.515625 50.984375 
Q 49.515625 47.515625 48.265625 44.390625 
Q 47.015625 41.265625 44.9375 38.421875 
Q 42.875 35.59375 40.140625 32.953125 
Q 37.40625 30.328125 34.421875 27.8125 
Q 31.453125 25.296875 28.421875 22.828125 
Q 25.390625 20.359375 22.71875 17.859375 
Q 20.0625 15.375 17.96875 12.8125 
Q 15.875 10.25 14.703125 7.46875 
L 50.59375 7.46875 
L 50.59375 0 
z
" id="LiberationSans-50"/>
       <path d="M 51.421875 22.40625 
Q 51.421875 17.234375 49.859375 12.9375 
Q 48.296875 8.640625 45.21875 5.53125 
Q 42.140625 2.4375 37.578125 0.71875 
Q 33.015625 -0.984375 27 -0.984375 
Q 21.578125 -0.984375 17.546875 0.28125 
Q 13.53125 1.5625 10.734375 3.78125 
Q 7.953125 6 6.3125 8.984375 
Q 4.6875 11.96875 4 15.375 
L 12.890625 16.40625 
Q 13.421875 14.453125 14.390625 12.625 
Q 15.375 10.796875 17.0625 9.34375 
Q 18.75 7.90625 21.21875 7.046875 
Q 23.6875 6.203125 27.203125 6.203125 
Q 30.609375 6.203125 33.390625 7.25 
Q 36.1875 8.296875 38.15625 10.34375 
Q 40.140625 12.40625 41.203125 15.375 
Q 42.28125 18.359375 42.28125 22.21875 
Q 42.28125 25.390625 41.25 28.046875 
Q 40.234375 30.71875 38.328125 32.640625 
Q 36.421875 34.578125 33.65625 35.640625 
Q 30.90625 36.71875 27.390625 36.71875 
Q 25.203125 36.71875 23.34375 36.328125 
Q 21.484375 35.9375 19.890625 35.25 
Q 18.3125 34.578125 17.015625 33.671875 
Q 15.71875 32.765625 14.59375 31.78125 
L 6 31.78125 
L 8.296875 68.796875 
L 47.40625 68.796875 
L 47.40625 61.328125 
L 16.3125 61.328125 
L 14.984375 39.5 
Q 17.328125 41.3125 20.84375 42.59375 
Q 24.359375 43.890625 29.203125 43.890625 
Q 34.328125 43.890625 38.421875 42.328125 
Q 42.53125 40.765625 45.40625 37.90625 
Q 48.296875 35.0625 49.859375 31.109375 
Q 51.421875 27.15625 51.421875 22.40625 
z
" id="LiberationSans-53"/>
      </defs>
      <g style="fill:#262626;" transform="translate(164.487001 329.144064)rotate(-45)scale(0.1 -0.1)">
       <use xlink:href="#LiberationSans-50"/>
       <use x="55.615234" xlink:href="#LiberationSans-53"/>
      </g>
     </g>
    </g>
    <g id="xtick_3">
     <g id="line2d_3"/>
     <g id="text_3">
      <!-- 50 -->
      <g style="fill:#262626;" transform="translate(252.259462 329.144064)rotate(-45)scale(0.1 -0.1)">
       <use xlink:href="#LiberationSans-53"/>
       <use x="55.615234" xlink:href="#LiberationSans-48"/>
      </g>
     </g>
    </g>
    <g id="xtick_4">
     <g id="line2d_4"/>
     <g id="text_4">
      <!-- 75 -->
      <defs>
       <path d="M 50.59375 61.671875 
Q 45.40625 53.765625 41.0625 46.453125 
Q 36.71875 39.15625 33.59375 31.75 
Q 30.46875 24.359375 28.734375 16.578125 
Q 27 8.796875 27 0 
L 17.828125 0 
Q 17.828125 8.25 19.78125 16.1875 
Q 21.734375 24.125 25.046875 31.765625 
Q 28.375 39.40625 32.765625 46.78125 
Q 37.15625 54.15625 42.09375 61.328125 
L 5.125 61.328125 
L 5.125 68.796875 
L 50.59375 68.796875 
z
" id="LiberationSans-55"/>
      </defs>
      <g style="fill:#262626;" transform="translate(340.031924 329.144064)rotate(-45)scale(0.1 -0.1)">
       <use xlink:href="#LiberationSans-55"/>
       <use x="55.615234" xlink:href="#LiberationSans-53"/>
      </g>
     </g>
    </g>
    <g id="xtick_5">
     <g id="line2d_5"/>
     <g id="text_5">
      <!-- 100 -->
      <defs>
       <path d="M 7.625 0 
L 7.625 7.46875 
L 25.140625 7.46875 
L 25.140625 60.40625 
L 9.625 49.3125 
L 9.625 57.625 
L 25.875 68.796875 
L 33.984375 68.796875 
L 33.984375 7.46875 
L 50.734375 7.46875 
L 50.734375 0 
z
" id="LiberationSans-49"/>
      </defs>
      <g style="fill:#262626;" transform="translate(425.838297 333.07624)rotate(-45)scale(0.1 -0.1)">
       <use xlink:href="#LiberationSans-49"/>
       <use x="55.615234" xlink:href="#LiberationSans-48"/>
       <use x="111.230469" xlink:href="#LiberationSans-48"/>
      </g>
     </g>
    </g>
    <g id="xtick_6">
     <g id="line2d_6"/>
     <g id="text_6">
      <!-- 125 -->
      <g style="fill:#262626;" transform="translate(513.610758 333.07624)rotate(-45)scale(0.1 -0.1)">
       <use xlink:href="#LiberationSans-49"/>
       <use x="55.615234" xlink:href="#LiberationSans-50"/>
       <use x="111.230469" xlink:href="#LiberationSans-53"/>
      </g>
     </g>
    </g>
    <g id="xtick_7">
     <g id="line2d_7"/>
     <g id="text_7">
      <!-- 150 -->
      <g style="fill:#262626;" transform="translate(601.38322 333.07624)rotate(-45)scale(0.1 -0.1)">
       <use xlink:href="#LiberationSans-49"/>
       <use x="55.615234" xlink:href="#LiberationSans-53"/>
       <use x="111.230469" xlink:href="#LiberationSans-48"/>
      </g>
     </g>
    </g>
    <g id="xtick_8">
     <g id="line2d_8"/>
     <g id="text_8">
      <!-- 175 -->
      <g style="fill:#262626;" transform="translate(689.155681 333.07624)rotate(-45)scale(0.1 -0.1)">
       <use xlink:href="#LiberationSans-49"/>
       <use x="55.615234" xlink:href="#LiberationSans-55"/>
       <use x="111.230469" xlink:href="#LiberationSans-53"/>
      </g>
     </g>
    </g>
    <g id="text_9">
     <!-- Days since case nº20 -->
     <defs>
      <path d="M 67.4375 35.109375 
Q 67.4375 26.515625 64.84375 19.9375 
Q 62.25 13.375 57.75 8.953125 
Q 53.265625 4.546875 47.140625 2.265625 
Q 41.015625 0 33.9375 0 
L 8.203125 0 
L 8.203125 68.796875 
L 30.953125 68.796875 
Q 38.921875 68.796875 45.625 66.8125 
Q 52.34375 64.84375 57.171875 60.71875 
Q 62.015625 56.59375 64.71875 50.234375 
Q 67.4375 43.890625 67.4375 35.109375 
z
M 58.0625 35.109375 
Q 58.0625 42.09375 56.046875 47.046875 
Q 54.046875 52 50.4375 55.171875 
Q 46.828125 58.34375 41.796875 59.828125 
Q 36.765625 61.328125 30.765625 61.328125 
L 17.53125 61.328125 
L 17.53125 7.46875 
L 32.859375 7.46875 
Q 38.28125 7.46875 42.890625 9.21875 
Q 47.515625 10.984375 50.875 14.453125 
Q 54.25 17.921875 56.15625 23.09375 
Q 58.0625 28.265625 58.0625 35.109375 
z
" id="LiberationSans-68"/>
      <path d="M 20.21875 -0.984375 
Q 12.25 -0.984375 8.25 3.21875 
Q 4.25 7.421875 4.25 14.75 
Q 4.25 19.96875 6.21875 23.3125 
Q 8.203125 26.65625 11.390625 28.5625 
Q 14.59375 30.46875 18.6875 31.203125 
Q 22.796875 31.9375 27.046875 32.03125 
L 38.921875 32.234375 
L 38.921875 35.109375 
Q 38.921875 38.375 38.234375 40.671875 
Q 37.546875 42.96875 36.125 44.375 
Q 34.71875 45.796875 32.59375 46.453125 
Q 30.46875 47.125 27.59375 47.125 
Q 25.046875 47.125 23 46.75 
Q 20.953125 46.390625 19.4375 45.4375 
Q 17.921875 44.484375 16.984375 42.84375 
Q 16.0625 41.21875 15.765625 38.71875 
L 6.59375 39.546875 
Q 7.078125 42.671875 8.4375 45.28125 
Q 9.8125 47.90625 12.328125 49.796875 
Q 14.84375 51.703125 18.625 52.75 
Q 22.40625 53.8125 27.78125 53.8125 
Q 37.75 53.8125 42.765625 49.234375 
Q 47.796875 44.671875 47.796875 36.03125 
L 47.796875 13.28125 
Q 47.796875 9.375 48.828125 7.390625 
Q 49.859375 5.421875 52.734375 5.421875 
Q 53.46875 5.421875 54.203125 5.515625 
Q 54.9375 5.609375 55.609375 5.765625 
L 55.609375 0.296875 
Q 53.953125 -0.09375 52.3125 -0.28125 
Q 50.6875 -0.484375 48.828125 -0.484375 
Q 46.34375 -0.484375 44.5625 0.171875 
Q 42.78125 0.828125 41.65625 2.171875 
Q 40.53125 3.515625 39.9375 5.484375 
Q 39.359375 7.46875 39.203125 10.109375 
L 38.921875 10.109375 
Q 37.5 7.5625 35.8125 5.515625 
Q 34.125 3.46875 31.875 2.03125 
Q 29.640625 0.59375 26.78125 -0.1875 
Q 23.921875 -0.984375 20.21875 -0.984375 
z
M 22.21875 5.609375 
Q 26.421875 5.609375 29.5625 7.140625 
Q 32.71875 8.6875 34.78125 11.078125 
Q 36.859375 13.484375 37.890625 16.3125 
Q 38.921875 19.140625 38.921875 21.734375 
L 38.921875 26.078125 
L 29.296875 25.875 
Q 26.078125 25.828125 23.171875 25.40625 
Q 20.265625 25 18.0625 23.78125 
Q 15.875 22.5625 14.578125 20.359375 
Q 13.28125 18.171875 13.28125 14.59375 
Q 13.28125 10.296875 15.59375 7.953125 
Q 17.921875 5.609375 22.21875 5.609375 
z
" id="LiberationSans-97"/>
      <path d="M 29.5 0 
Q 27.640625 -4.78125 25.703125 -8.609375 
Q 23.78125 -12.453125 21.390625 -15.15625 
Q 19 -17.875 16.0625 -19.3125 
Q 13.140625 -20.75 9.328125 -20.75 
Q 7.671875 -20.75 6.25 -20.65625 
Q 4.828125 -20.5625 3.265625 -20.21875 
L 3.265625 -13.625 
Q 4.203125 -13.765625 5.375 -13.84375 
Q 6.546875 -13.921875 7.375 -13.921875 
Q 11.234375 -13.921875 14.546875 -11.03125 
Q 17.875 -8.15625 20.359375 -1.859375 
L 21.1875 0.25 
L 0.25 52.828125 
L 9.625 52.828125 
L 20.75 23.640625 
Q 21.234375 22.3125 21.984375 20.109375 
Q 22.75 17.921875 23.5 15.71875 
Q 24.265625 13.53125 24.84375 11.765625 
Q 25.4375 10.015625 25.53125 9.578125 
Q 25.6875 10.109375 26.25 11.6875 
Q 26.8125 13.28125 27.515625 15.234375 
Q 28.21875 17.1875 28.953125 19.1875 
Q 29.6875 21.1875 30.171875 22.65625 
L 40.53125 52.828125 
L 49.8125 52.828125 
z
" id="LiberationSans-121"/>
      <path d="M 46.390625 14.59375 
Q 46.390625 10.890625 44.9375 7.984375 
Q 43.5 5.078125 40.765625 3.09375 
Q 38.03125 1.125 34.046875 0.0625 
Q 30.078125 -0.984375 24.953125 -0.984375 
Q 20.359375 -0.984375 16.671875 -0.265625 
Q 12.984375 0.4375 10.203125 2 
Q 7.421875 3.5625 5.53125 6.125 
Q 3.65625 8.6875 2.78125 12.40625 
L 10.546875 13.921875 
Q 11.671875 9.671875 15.1875 7.6875 
Q 18.703125 5.71875 24.953125 5.71875 
Q 27.78125 5.71875 30.140625 6.109375 
Q 32.515625 6.5 34.21875 7.453125 
Q 35.9375 8.40625 36.890625 9.984375 
Q 37.84375 11.578125 37.84375 13.921875 
Q 37.84375 16.3125 36.71875 17.84375 
Q 35.59375 19.390625 33.59375 20.40625 
Q 31.59375 21.4375 28.734375 22.1875 
Q 25.875 22.953125 22.46875 23.875 
Q 19.28125 24.703125 16.15625 25.734375 
Q 13.03125 26.765625 10.515625 28.4375 
Q 8.015625 30.125 6.453125 32.609375 
Q 4.890625 35.109375 4.890625 38.875 
Q 4.890625 46.09375 10.03125 49.875 
Q 15.1875 53.65625 25.046875 53.65625 
Q 33.796875 53.65625 38.9375 50.578125 
Q 44.09375 47.515625 45.453125 40.71875 
L 37.546875 39.75 
Q 37.109375 41.796875 35.9375 43.1875 
Q 34.765625 44.578125 33.109375 45.4375 
Q 31.453125 46.296875 29.375 46.65625 
Q 27.296875 47.015625 25.046875 47.015625 
Q 19.09375 47.015625 16.25 45.203125 
Q 13.421875 43.40625 13.421875 39.75 
Q 13.421875 37.59375 14.46875 36.203125 
Q 15.53125 34.8125 17.40625 33.859375 
Q 19.28125 32.90625 21.921875 32.203125 
Q 24.5625 31.5 27.734375 30.71875 
Q 29.828125 30.171875 32.03125 29.5625 
Q 34.234375 28.953125 36.296875 28.09375 
Q 38.375 27.25 40.203125 26.09375 
Q 42.046875 24.953125 43.40625 23.34375 
Q 44.78125 21.734375 45.578125 19.578125 
Q 46.390625 17.4375 46.390625 14.59375 
z
" id="LiberationSans-115"/>
      <path id="LiberationSans-32"/>
      <path d="M 6.6875 64.0625 
L 6.6875 72.46875 
L 15.484375 72.46875 
L 15.484375 64.0625 
z
M 6.6875 0 
L 6.6875 52.828125 
L 15.484375 52.828125 
L 15.484375 0 
z
" id="LiberationSans-105"/>
      <path d="M 40.28125 0 
L 40.28125 33.5 
Q 40.28125 37.359375 39.71875 39.9375 
Q 39.15625 42.53125 37.890625 44.109375 
Q 36.625 45.703125 34.546875 46.359375 
Q 32.46875 47.015625 29.390625 47.015625 
Q 26.265625 47.015625 23.75 45.921875 
Q 21.234375 44.828125 19.453125 42.75 
Q 17.671875 40.671875 16.6875 37.625 
Q 15.71875 34.578125 15.71875 30.609375 
L 15.71875 0 
L 6.9375 0 
L 6.9375 41.546875 
Q 6.9375 43.21875 6.90625 45.046875 
Q 6.890625 46.875 6.828125 48.5 
Q 6.78125 50.140625 6.734375 51.3125 
Q 6.6875 52.484375 6.640625 52.828125 
L 14.9375 52.828125 
Q 14.984375 52.59375 15.03125 51.515625 
Q 15.09375 50.4375 15.15625 49.046875 
Q 15.234375 47.65625 15.28125 46.21875 
Q 15.328125 44.78125 15.328125 43.796875 
L 15.484375 43.796875 
Q 16.75 46.09375 18.265625 47.953125 
Q 19.78125 49.8125 21.78125 51.09375 
Q 23.78125 52.390625 26.359375 53.09375 
Q 28.953125 53.8125 32.375 53.8125 
Q 36.765625 53.8125 39.9375 52.734375 
Q 43.109375 51.65625 45.15625 49.40625 
Q 47.21875 47.171875 48.171875 43.625 
Q 49.125 40.09375 49.125 35.203125 
L 49.125 0 
z
" id="LiberationSans-110"/>
      <path d="M 13.421875 26.65625 
Q 13.421875 22.125 14.078125 18.3125 
Q 14.75 14.5 16.3125 11.734375 
Q 17.875 8.984375 20.4375 7.46875 
Q 23 5.953125 26.765625 5.953125 
Q 31.453125 5.953125 34.59375 8.484375 
Q 37.75 11.03125 38.484375 16.3125 
L 47.359375 15.71875 
Q 46.921875 12.453125 45.453125 9.421875 
Q 44 6.390625 41.484375 4.09375 
Q 38.96875 1.8125 35.34375 0.40625 
Q 31.734375 -0.984375 27 -0.984375 
Q 20.796875 -0.984375 16.453125 1.109375 
Q 12.109375 3.21875 9.390625 6.90625 
Q 6.6875 10.59375 5.46875 15.59375 
Q 4.25 20.609375 4.25 26.46875 
Q 4.25 31.78125 5.125 35.859375 
Q 6 39.9375 7.59375 42.984375 
Q 9.1875 46.046875 11.328125 48.125 
Q 13.484375 50.203125 15.984375 51.4375 
Q 18.5 52.6875 21.28125 53.25 
Q 24.078125 53.8125 26.90625 53.8125 
Q 31.34375 53.8125 34.8125 52.59375 
Q 38.28125 51.375 40.796875 49.25 
Q 43.3125 47.125 44.875 44.234375 
Q 46.4375 41.359375 47.078125 38.03125 
L 38.03125 37.359375 
Q 37.359375 41.75 34.5625 44.328125 
Q 31.78125 46.921875 26.65625 46.921875 
Q 22.90625 46.921875 20.390625 45.671875 
Q 17.875 44.4375 16.3125 41.921875 
Q 14.75 39.40625 14.078125 35.59375 
Q 13.421875 31.78125 13.421875 26.65625 
z
" id="LiberationSans-99"/>
      <path d="M 13.484375 24.5625 
Q 13.484375 20.40625 14.328125 16.90625 
Q 15.1875 13.421875 16.96875 10.90625 
Q 18.75 8.40625 21.53125 7 
Q 24.3125 5.609375 28.21875 5.609375 
Q 33.9375 5.609375 37.375 7.90625 
Q 40.828125 10.203125 42.046875 13.71875 
L 49.75 11.53125 
Q 48.921875 9.328125 47.4375 7.109375 
Q 45.953125 4.890625 43.453125 3.09375 
Q 40.96875 1.3125 37.234375 0.15625 
Q 33.5 -0.984375 28.21875 -0.984375 
Q 16.5 -0.984375 10.375 6 
Q 4.25 12.984375 4.25 26.765625 
Q 4.25 34.1875 6.09375 39.328125 
Q 7.953125 44.484375 11.171875 47.703125 
Q 14.40625 50.921875 18.703125 52.359375 
Q 23 53.8125 27.875 53.8125 
Q 34.515625 53.8125 38.984375 51.65625 
Q 43.453125 49.515625 46.15625 45.71875 
Q 48.875 41.9375 50.015625 36.8125 
Q 51.171875 31.6875 51.171875 25.734375 
L 51.171875 24.5625 
z
M 42.09375 31.296875 
Q 41.359375 39.65625 37.84375 43.484375 
Q 34.328125 47.3125 27.734375 47.3125 
Q 25.53125 47.3125 23.109375 46.609375 
Q 20.703125 45.90625 18.65625 44.09375 
Q 16.609375 42.28125 15.1875 39.171875 
Q 13.765625 36.078125 13.578125 31.296875 
z
" id="LiberationSans-101"/>
      <path d="M 35.296875 50.875 
Q 35.296875 41.703125 31 36.734375 
Q 26.703125 31.78125 18.171875 31.78125 
Q 9.96875 31.78125 5.640625 36.6875 
Q 1.3125 41.609375 1.3125 50.875 
Q 1.3125 55.328125 2.359375 58.859375 
Q 3.421875 62.40625 5.546875 64.859375 
Q 7.671875 67.328125 10.859375 68.625 
Q 14.0625 69.921875 18.359375 69.921875 
Q 22.90625 69.921875 26.09375 68.625 
Q 29.296875 67.328125 31.34375 64.890625 
Q 33.40625 62.453125 34.34375 58.90625 
Q 35.296875 55.375 35.296875 50.875 
z
M 28.03125 50.875 
Q 28.03125 54.9375 27.421875 57.609375 
Q 26.8125 60.296875 25.578125 61.890625 
Q 24.359375 63.484375 22.59375 64.140625 
Q 20.84375 64.796875 18.5 64.796875 
Q 16.15625 64.796875 14.328125 64.140625 
Q 12.5 63.484375 11.25 61.859375 
Q 10.015625 60.25 9.375 57.5625 
Q 8.734375 54.890625 8.734375 50.875 
Q 8.734375 46.78125 9.421875 44.09375 
Q 10.109375 41.40625 11.34375 39.796875 
Q 12.59375 38.1875 14.296875 37.546875 
Q 16.015625 36.921875 18.109375 36.921875 
Q 20.515625 36.921875 22.34375 37.546875 
Q 24.171875 38.1875 25.4375 39.796875 
Q 26.703125 41.40625 27.359375 44.09375 
Q 28.03125 46.78125 28.03125 50.875 
z
" id="LiberationSans-186"/>
     </defs>
     <g style="fill:#262626;" transform="translate(326.244688 346.51505)scale(0.11 -0.11)">
      <use xlink:href="#LiberationSans-68"/>
      <use x="72.216797" xlink:href="#LiberationSans-97"/>
      <use x="127.832031" xlink:href="#LiberationSans-121"/>
      <use x="177.832031" xlink:href="#LiberationSans-115"/>
      <use x="227.832031" xlink:href="#LiberationSans-32"/>
      <use x="255.615234" xlink:href="#LiberationSans-115"/>
      <use x="305.615234" xlink:href="#LiberationSans-105"/>
      <use x="327.832031" xlink:href="#LiberationSans-110"/>
      <use x="383.447266" xlink:href="#LiberationSans-99"/>
      <use x="433.447266" xlink:href="#LiberationSans-101"/>
      <use x="489.0625" xlink:href="#LiberationSans-32"/>
      <use x="516.845703" xlink:href="#LiberationSans-99"/>
      <use x="566.845703" xlink:href="#LiberationSans-97"/>
      <use x="622.460938" xlink:href="#LiberationSans-115"/>
      <use x="672.460938" xlink:href="#LiberationSans-101"/>
      <use x="728.076172" xlink:href="#LiberationSans-32"/>
      <use x="755.859375" xlink:href="#LiberationSans-110"/>
      <use x="811.474609" xlink:href="#LiberationSans-186"/>
      <use x="847.998047" xlink:href="#LiberationSans-50"/>
      <use x="903.613281" xlink:href="#LiberationSans-48"/>
     </g>
    </g>
   </g>
   <g id="matplotlib.axis_2">
    <g id="ytick_1">
     <g id="line2d_9"/>
     <g id="text_10">
      <!-- −15 -->
      <defs>
       <path d="M 4.9375 29.6875 
L 4.9375 36.8125 
L 53.515625 36.8125 
L 53.515625 29.6875 
z
" id="LiberationSans-8722"/>
      </defs>
      <g style="fill:#262626;" transform="translate(24.8375 306.129687)scale(0.1 -0.1)">
       <use xlink:href="#LiberationSans-8722"/>
       <use x="58.398438" xlink:href="#LiberationSans-49"/>
       <use x="114.013672" xlink:href="#LiberationSans-53"/>
      </g>
     </g>
    </g>
    <g id="ytick_2">
     <g id="line2d_10"/>
     <g id="text_11">
      <!-- −10 -->
      <g style="fill:#262626;" transform="translate(24.8375 267.833718)scale(0.1 -0.1)">
       <use xlink:href="#LiberationSans-8722"/>
       <use x="58.398438" xlink:href="#LiberationSans-49"/>
       <use x="114.013672" xlink:href="#LiberationSans-48"/>
      </g>
     </g>
    </g>
    <g id="ytick_3">
     <g id="line2d_11"/>
     <g id="text_12">
      <!-- −5 -->
      <g style="fill:#262626;" transform="translate(30.398438 229.537749)scale(0.1 -0.1)">
       <use xlink:href="#LiberationSans-8722"/>
       <use x="58.398438" xlink:href="#LiberationSans-53"/>
      </g>
     </g>
    </g>
    <g id="ytick_4">
     <g id="line2d_12"/>
     <g id="text_13">
      <!-- 0 -->
      <g style="fill:#262626;" transform="translate(36.239063 191.241779)scale(0.1 -0.1)">
       <use xlink:href="#LiberationSans-48"/>
      </g>
     </g>
    </g>
    <g id="ytick_5">
     <g id="line2d_13"/>
     <g id="text_14">
      <!-- 5 -->
      <g style="fill:#262626;" transform="translate(36.239063 152.94581)scale(0.1 -0.1)">
       <use xlink:href="#LiberationSans-53"/>
      </g>
     </g>
    </g>
    <g id="ytick_6">
     <g id="line2d_14"/>
     <g id="text_15">
      <!-- 10 -->
      <g style="fill:#262626;" transform="translate(30.678125 114.649841)scale(0.1 -0.1)">
       <use xlink:href="#LiberationSans-49"/>
       <use x="55.615234" xlink:href="#LiberationSans-48"/>
      </g>
     </g>
    </g>
    <g id="ytick_7">
     <g id="line2d_15"/>
     <g id="text_16">
      <!-- 15 -->
      <g style="fill:#262626;" transform="translate(30.678125 76.353871)scale(0.1 -0.1)">
       <use xlink:href="#LiberationSans-49"/>
       <use x="55.615234" xlink:href="#LiberationSans-53"/>
      </g>
     </g>
    </g>
    <g id="ytick_8">
     <g id="line2d_16"/>
     <g id="text_17">
      <!-- 20 -->
      <g style="fill:#262626;" transform="translate(30.678125 38.057902)scale(0.1 -0.1)">
       <use xlink:href="#LiberationSans-50"/>
       <use x="55.615234" xlink:href="#LiberationSans-48"/>
      </g>
     </g>
    </g>
    <g id="text_18">
     <!-- New deaths over 1M population -->
     <defs>
      <path d="M 52.828125 0 
L 16.015625 58.59375 
Q 16.109375 56.203125 16.265625 53.859375 
Q 16.359375 51.859375 16.421875 49.625 
Q 16.5 47.40625 16.5 45.703125 
L 16.5 0 
L 8.203125 0 
L 8.203125 68.796875 
L 19.046875 68.796875 
L 56.25 9.8125 
Q 56.109375 12.203125 55.953125 14.59375 
Q 55.859375 16.65625 55.765625 19.0625 
Q 55.671875 21.484375 55.671875 23.6875 
L 55.671875 68.796875 
L 64.0625 68.796875 
L 64.0625 0 
z
" id="LiberationSans-78"/>
      <path d="M 57.328125 0 
L 47.125 0 
L 38.671875 34.078125 
Q 38.28125 35.40625 37.859375 37.359375 
Q 37.453125 39.3125 37.0625 41.15625 
Q 36.578125 43.3125 36.140625 45.609375 
Q 35.6875 43.40625 35.203125 41.265625 
Q 34.8125 39.40625 34.34375 37.40625 
Q 33.890625 35.40625 33.5 33.890625 
L 24.8125 0 
L 14.65625 0 
L -0.140625 52.828125 
L 8.546875 52.828125 
L 17.484375 16.9375 
Q 17.828125 15.828125 18.15625 14.1875 
Q 18.5 12.546875 18.84375 10.984375 
Q 19.1875 9.1875 19.578125 7.28125 
Q 19.96875 9.125 20.40625 10.890625 
Q 20.796875 12.40625 21.1875 13.96875 
Q 21.578125 15.53125 21.875 16.546875 
L 31.453125 52.828125 
L 40.875 52.828125 
L 50.09375 16.546875 
Q 50.4375 15.28125 50.828125 13.671875 
Q 51.21875 12.0625 51.5625 10.640625 
Q 51.953125 8.984375 52.34375 7.28125 
Q 52.734375 9.125 53.125 10.890625 
Q 53.46875 12.40625 53.828125 14.03125 
Q 54.203125 15.671875 54.546875 16.9375 
L 63.875 52.828125 
L 72.46875 52.828125 
z
" id="LiberationSans-119"/>
      <path d="M 40.09375 8.5 
Q 37.640625 3.421875 33.609375 1.21875 
Q 29.59375 -0.984375 23.640625 -0.984375 
Q 13.625 -0.984375 8.90625 5.75 
Q 4.203125 12.5 4.203125 26.171875 
Q 4.203125 53.8125 23.640625 53.8125 
Q 29.640625 53.8125 33.640625 51.609375 
Q 37.640625 49.421875 40.09375 44.625 
L 40.1875 44.625 
Q 40.1875 45.125 40.15625 46.171875 
Q 40.140625 47.21875 40.109375 48.359375 
Q 40.09375 49.515625 40.09375 50.53125 
Q 40.09375 51.5625 40.09375 52 
L 40.09375 72.46875 
L 48.875 72.46875 
L 48.875 10.890625 
Q 48.875 8.984375 48.890625 7.21875 
Q 48.921875 5.46875 48.96875 4 
Q 49.03125 2.546875 49.078125 1.484375 
Q 49.125 0.4375 49.171875 0 
L 40.765625 0 
Q 40.671875 0.484375 40.59375 1.390625 
Q 40.53125 2.296875 40.453125 3.46875 
Q 40.375 4.640625 40.328125 5.9375 
Q 40.28125 7.234375 40.28125 8.5 
z
M 13.421875 26.46875 
Q 13.421875 21 14.109375 17.09375 
Q 14.796875 13.1875 16.3125 10.671875 
Q 17.828125 8.15625 20.171875 6.984375 
Q 22.515625 5.8125 25.875 5.8125 
Q 29.34375 5.8125 32 6.9375 
Q 34.671875 8.0625 36.453125 10.578125 
Q 38.234375 13.09375 39.15625 17.140625 
Q 40.09375 21.1875 40.09375 27.046875 
Q 40.09375 32.671875 39.15625 36.546875 
Q 38.234375 40.4375 36.421875 42.828125 
Q 34.625 45.21875 32 46.265625 
Q 29.390625 47.3125 25.984375 47.3125 
Q 22.75 47.3125 20.40625 46.1875 
Q 18.0625 45.0625 16.5 42.578125 
Q 14.9375 40.09375 14.171875 36.109375 
Q 13.421875 32.125 13.421875 26.46875 
z
" id="LiberationSans-100"/>
      <path d="M 27.046875 0.390625 
Q 25.046875 -0.140625 22.96875 -0.453125 
Q 20.90625 -0.78125 18.171875 -0.78125 
Q 7.625 -0.78125 7.625 11.1875 
L 7.625 46.4375 
L 1.515625 46.4375 
L 1.515625 52.828125 
L 7.953125 52.828125 
L 10.546875 64.65625 
L 16.40625 64.65625 
L 16.40625 52.828125 
L 26.171875 52.828125 
L 26.171875 46.4375 
L 16.40625 46.4375 
L 16.40625 13.09375 
Q 16.40625 9.28125 17.640625 7.734375 
Q 18.890625 6.203125 21.96875 6.203125 
Q 23.25 6.203125 24.4375 6.390625 
Q 25.640625 6.59375 27.046875 6.890625 
z
" id="LiberationSans-116"/>
      <path d="M 15.484375 43.796875 
Q 16.9375 46.484375 18.640625 48.359375 
Q 20.359375 50.25 22.40625 51.46875 
Q 24.46875 52.6875 26.90625 53.25 
Q 29.34375 53.8125 32.375 53.8125 
Q 37.453125 53.8125 40.703125 52.4375 
Q 43.953125 51.078125 45.828125 48.609375 
Q 47.703125 46.140625 48.40625 42.71875 
Q 49.125 39.3125 49.125 35.203125 
L 49.125 0 
L 40.28125 0 
L 40.28125 33.5 
Q 40.28125 36.859375 39.859375 39.390625 
Q 39.453125 41.9375 38.28125 43.625 
Q 37.109375 45.3125 34.953125 46.15625 
Q 32.8125 47.015625 29.390625 47.015625 
Q 26.265625 47.015625 23.75 45.890625 
Q 21.234375 44.78125 19.453125 42.71875 
Q 17.671875 40.671875 16.6875 37.734375 
Q 15.71875 34.8125 15.71875 31.15625 
L 15.71875 0 
L 6.9375 0 
L 6.9375 72.46875 
L 15.71875 72.46875 
L 15.71875 53.609375 
Q 15.71875 52 15.671875 50.390625 
Q 15.625 48.78125 15.546875 47.40625 
Q 15.484375 46.046875 15.421875 45.09375 
Q 15.375 44.140625 15.328125 43.796875 
z
" id="LiberationSans-104"/>
      <path d="M 51.421875 26.46875 
Q 51.421875 12.59375 45.3125 5.796875 
Q 39.203125 -0.984375 27.59375 -0.984375 
Q 22.078125 -0.984375 17.71875 0.671875 
Q 13.375 2.34375 10.375 5.765625 
Q 7.375 9.1875 5.78125 14.328125 
Q 4.203125 19.484375 4.203125 26.46875 
Q 4.203125 53.8125 27.875 53.8125 
Q 34.03125 53.8125 38.5 52.09375 
Q 42.96875 50.390625 45.828125 46.96875 
Q 48.6875 43.5625 50.046875 38.421875 
Q 51.421875 33.296875 51.421875 26.46875 
z
M 42.1875 26.46875 
Q 42.1875 32.625 41.234375 36.625 
Q 40.28125 40.625 38.453125 43.015625 
Q 36.625 45.40625 33.984375 46.359375 
Q 31.34375 47.3125 28.03125 47.3125 
Q 24.65625 47.3125 21.9375 46.3125 
Q 19.234375 45.3125 17.328125 42.890625 
Q 15.4375 40.484375 14.421875 36.46875 
Q 13.421875 32.46875 13.421875 26.46875 
Q 13.421875 20.3125 14.5 16.28125 
Q 15.578125 12.25 17.453125 9.859375 
Q 19.34375 7.46875 21.90625 6.484375 
Q 24.46875 5.515625 27.484375 5.515625 
Q 30.859375 5.515625 33.59375 6.46875 
Q 36.328125 7.421875 38.234375 9.8125 
Q 40.140625 12.203125 41.15625 16.25 
Q 42.1875 20.3125 42.1875 26.46875 
z
" id="LiberationSans-111"/>
      <path d="M 29.9375 0 
L 19.53125 0 
L 0.34375 52.828125 
L 9.71875 52.828125 
L 21.34375 18.453125 
Q 21.6875 17.390625 22.140625 15.84375 
Q 22.609375 14.3125 23.09375 12.640625 
Q 23.578125 10.984375 24 9.4375 
Q 24.421875 7.90625 24.703125 6.890625 
Q 25 7.90625 25.453125 9.4375 
Q 25.921875 10.984375 26.40625 12.59375 
Q 26.90625 14.203125 27.421875 15.734375 
Q 27.9375 17.28125 28.328125 18.359375 
L 40.328125 52.828125 
L 49.65625 52.828125 
z
" id="LiberationSans-118"/>
      <path d="M 6.9375 0 
L 6.9375 40.53125 
Q 6.9375 42.1875 6.90625 43.921875 
Q 6.890625 45.65625 6.828125 47.265625 
Q 6.78125 48.875 6.734375 50.28125 
Q 6.6875 51.703125 6.640625 52.828125 
L 14.9375 52.828125 
Q 14.984375 51.703125 15.0625 50.265625 
Q 15.140625 48.828125 15.203125 47.3125 
Q 15.28125 45.796875 15.296875 44.40625 
Q 15.328125 43.015625 15.328125 42.046875 
L 15.53125 42.046875 
Q 16.453125 45.0625 17.5 47.28125 
Q 18.5625 49.515625 19.96875 50.953125 
Q 21.390625 52.390625 23.34375 53.09375 
Q 25.296875 53.8125 28.078125 53.8125 
Q 29.15625 53.8125 30.125 53.640625 
Q 31.109375 53.46875 31.640625 53.328125 
L 31.640625 45.265625 
Q 30.765625 45.515625 29.59375 45.625 
Q 28.421875 45.75 26.953125 45.75 
Q 23.921875 45.75 21.796875 44.375 
Q 19.671875 43.015625 18.328125 40.59375 
Q 17 38.1875 16.359375 34.84375 
Q 15.71875 31.5 15.71875 27.546875 
L 15.71875 0 
z
" id="LiberationSans-114"/>
      <path d="M 66.703125 0 
L 66.703125 45.90625 
Q 66.703125 48.390625 66.75 50.96875 
Q 66.796875 53.5625 66.890625 55.71875 
Q 67 58.203125 67.140625 60.546875 
Q 66.453125 58.0625 65.71875 55.609375 
Q 65.09375 53.515625 64.328125 51.140625 
Q 63.578125 48.78125 62.84375 46.875 
L 45.0625 0 
L 38.53125 0 
L 20.515625 46.875 
Q 20.21875 47.609375 19.890625 48.578125 
Q 19.578125 49.5625 19.203125 50.65625 
Q 18.84375 51.765625 18.46875 52.90625 
Q 18.109375 54.046875 17.78125 55.171875 
Q 16.9375 57.765625 16.15625 60.546875 
Q 16.21875 57.8125 16.3125 55.125 
Q 16.40625 52.828125 16.453125 50.3125 
Q 16.5 47.796875 16.5 45.90625 
L 16.5 0 
L 8.203125 0 
L 8.203125 68.796875 
L 20.453125 68.796875 
L 38.765625 21.09375 
Q 39.109375 20.125 39.59375 18.578125 
Q 40.09375 17.046875 40.53125 15.421875 
Q 40.96875 13.8125 41.328125 12.375 
Q 41.703125 10.9375 41.84375 10.15625 
Q 42 10.9375 42.390625 12.40625 
Q 42.78125 13.875 43.28125 15.484375 
Q 43.796875 17.09375 44.28125 18.609375 
Q 44.78125 20.125 45.171875 21.09375 
L 63.140625 68.796875 
L 75.09375 68.796875 
L 75.09375 0 
z
" id="LiberationSans-77"/>
      <path d="M 51.421875 26.65625 
Q 51.421875 20.65625 50.4375 15.578125 
Q 49.46875 10.5 47.1875 6.828125 
Q 44.921875 3.171875 41.1875 1.09375 
Q 37.453125 -0.984375 31.984375 -0.984375 
Q 26.3125 -0.984375 22.0625 1.171875 
Q 17.828125 3.328125 15.578125 8.203125 
L 15.328125 8.203125 
Q 15.375 8.109375 15.40625 7.328125 
Q 15.4375 6.546875 15.453125 5.375 
Q 15.484375 4.203125 15.5 2.75 
Q 15.53125 1.3125 15.53125 -0.09375 
L 15.53125 -20.75 
L 6.734375 -20.75 
L 6.734375 42.046875 
Q 6.734375 43.953125 6.703125 45.703125 
Q 6.6875 47.46875 6.640625 48.90625 
Q 6.59375 50.34375 6.546875 51.359375 
Q 6.5 52.390625 6.453125 52.828125 
L 14.9375 52.828125 
Q 14.984375 52.6875 15.0625 51.796875 
Q 15.140625 50.921875 15.203125 49.671875 
Q 15.28125 48.4375 15.359375 47.015625 
Q 15.4375 45.609375 15.4375 44.34375 
L 15.625 44.34375 
Q 16.84375 46.875 18.40625 48.65625 
Q 19.96875 50.4375 21.96875 51.578125 
Q 23.96875 52.734375 26.4375 53.25 
Q 28.90625 53.765625 31.984375 53.765625 
Q 37.453125 53.765625 41.1875 51.8125 
Q 44.921875 49.859375 47.1875 46.3125 
Q 49.46875 42.78125 50.4375 37.765625 
Q 51.421875 32.765625 51.421875 26.65625 
z
M 42.1875 26.46875 
Q 42.1875 31.34375 41.59375 35.15625 
Q 41.015625 38.96875 39.578125 41.59375 
Q 38.140625 44.234375 35.734375 45.59375 
Q 33.34375 46.96875 29.734375 46.96875 
Q 26.8125 46.96875 24.21875 46.140625 
Q 21.625 45.3125 19.703125 42.96875 
Q 17.78125 40.625 16.65625 36.5 
Q 15.53125 32.375 15.53125 25.78125 
Q 15.53125 20.171875 16.453125 16.28125 
Q 17.390625 12.40625 19.171875 10.015625 
Q 20.953125 7.625 23.578125 6.5625 
Q 26.21875 5.515625 29.640625 5.515625 
Q 33.296875 5.515625 35.71875 6.921875 
Q 38.140625 8.34375 39.578125 11.03125 
Q 41.015625 13.71875 41.59375 17.59375 
Q 42.1875 21.484375 42.1875 26.46875 
z
" id="LiberationSans-112"/>
      <path d="M 15.328125 52.828125 
L 15.328125 19.34375 
Q 15.328125 15.484375 15.890625 12.890625 
Q 16.453125 10.296875 17.71875 8.703125 
Q 19 7.125 21.0625 6.46875 
Q 23.140625 5.8125 26.21875 5.8125 
Q 29.34375 5.8125 31.859375 6.90625 
Q 34.375 8.015625 36.15625 10.078125 
Q 37.9375 12.15625 38.90625 15.203125 
Q 39.890625 18.265625 39.890625 22.21875 
L 39.890625 52.828125 
L 48.6875 52.828125 
L 48.6875 11.28125 
Q 48.6875 9.625 48.703125 7.78125 
Q 48.734375 5.953125 48.78125 4.3125 
Q 48.828125 2.6875 48.875 1.515625 
Q 48.921875 0.34375 48.96875 0 
L 40.671875 0 
Q 40.625 0.25 40.578125 1.3125 
Q 40.53125 2.390625 40.453125 3.78125 
Q 40.375 5.171875 40.328125 6.609375 
Q 40.28125 8.0625 40.28125 9.03125 
L 40.140625 9.03125 
Q 38.875 6.734375 37.359375 4.875 
Q 35.84375 3.03125 33.84375 1.734375 
Q 31.84375 0.4375 29.25 -0.265625 
Q 26.65625 -0.984375 23.25 -0.984375 
Q 18.84375 -0.984375 15.671875 0.09375 
Q 12.5 1.171875 10.453125 3.421875 
Q 8.40625 5.671875 7.453125 9.1875 
Q 6.5 12.703125 6.5 17.625 
L 6.5 52.828125 
z
" id="LiberationSans-117"/>
      <path d="M 6.734375 0 
L 6.734375 72.46875 
L 15.53125 72.46875 
L 15.53125 0 
z
" id="LiberationSans-108"/>
     </defs>
     <g style="fill:#262626;" transform="translate(18.555 237.324026)rotate(-90)scale(0.11 -0.11)">
      <use xlink:href="#LiberationSans-78"/>
      <use x="72.216797" xlink:href="#LiberationSans-101"/>
      <use x="127.832031" xlink:href="#LiberationSans-119"/>
      <use x="200.048828" xlink:href="#LiberationSans-32"/>
      <use x="227.832031" xlink:href="#LiberationSans-100"/>
      <use x="283.447266" xlink:href="#LiberationSans-101"/>
      <use x="339.0625" xlink:href="#LiberationSans-97"/>
      <use x="394.677734" xlink:href="#LiberationSans-116"/>
      <use x="422.460938" xlink:href="#LiberationSans-104"/>
      <use x="478.076172" xlink:href="#LiberationSans-115"/>
      <use x="528.076172" xlink:href="#LiberationSans-32"/>
      <use x="555.859375" xlink:href="#LiberationSans-111"/>
      <use x="611.474609" xlink:href="#LiberationSans-118"/>
      <use x="661.474609" xlink:href="#LiberationSans-101"/>
      <use x="717.089844" xlink:href="#LiberationSans-114"/>
      <use x="750.390625" xlink:href="#LiberationSans-32"/>
      <use x="778.173828" xlink:href="#LiberationSans-49"/>
      <use x="833.789062" xlink:href="#LiberationSans-77"/>
      <use x="917.089844" xlink:href="#LiberationSans-32"/>
      <use x="944.873047" xlink:href="#LiberationSans-112"/>
      <use x="1000.488281" xlink:href="#LiberationSans-111"/>
      <use x="1056.103516" xlink:href="#LiberationSans-112"/>
      <use x="1111.71875" xlink:href="#LiberationSans-117"/>
      <use x="1167.333984" xlink:href="#LiberationSans-108"/>
      <use x="1189.550781" xlink:href="#LiberationSans-97"/>
      <use x="1245.166016" xlink:href="#LiberationSans-116"/>
      <use x="1272.949219" xlink:href="#LiberationSans-105"/>
      <use x="1295.166016" xlink:href="#LiberationSans-111"/>
      <use x="1350.78125" xlink:href="#LiberationSans-110"/>
     </g>
    </g>
   </g>
   <g id="line2d_17">
    <path clip-path="url(#p642802dbff)" d="M 78.818182 185.64187 
L 82.32908 183.820092 
L 85.839979 181.000346 
L 89.350877 177.857967 
L 92.861776 177.357447 
L 96.372674 176.473228 
L 99.883573 173.15802 
L 103.394471 170.61881 
L 106.905369 170.801704 
L 110.416268 173.019617 
L 113.927166 175.64075 
L 117.438065 176.021176 
L 120.948963 174.025632 
L 124.459862 172.528106 
L 127.97076 171.086103 
L 131.481659 167.948646 
L 134.992557 165.756943 
L 138.503456 166.616599 
L 142.014354 168.725512 
L 145.525253 171.555289 
L 149.036151 173.553138 
L 152.547049 173.863242 
L 156.057948 174.844002 
L 159.568846 175.641095 
L 163.079745 174.007912 
L 166.590643 173.273434 
L 170.101542 175.39958 
L 173.61244 176.089076 
L 177.123339 173.498539 
L 180.634237 171.50745 
L 184.145136 172.826391 
L 187.656034 176.430104 
L 191.166932 179.782046 
L 194.677831 181.554697 
L 198.188729 181.405511 
L 201.699628 178.886784 
L 205.210526 176.396933 
L 208.721425 178.153072 
L 212.232323 181.570483 
L 215.743222 182.880157 
L 219.25412 183.374064 
L 222.765019 184.49482 
L 226.275917 184.798996 
L 229.786816 184.512379 
L 233.297714 185.11425 
L 236.808612 185.453611 
L 240.319511 185.200652 
L 243.830409 185.430684 
L 247.341308 185.565872 
L 250.852206 185.544124 
L 254.363105 185.702416 
L 257.874003 186.018394 
L 261.384902 186.093162 
L 264.8958 186.149288 
L 268.406699 186.282718 
L 271.917597 186.094609 
L 275.428495 185.722125 
L 278.939394 185.718327 
L 282.450292 186.101472 
L 285.961191 186.127311 
L 289.472089 185.660551 
L 292.982988 185.473359 
L 296.493886 186.017839 
L 300.004785 186.261972 
L 303.515683 185.081556 
L 307.026582 180.694845 
L 310.53748 174.522797 
L 314.048379 172.779331 
L 317.559277 175.390692 
L 321.070175 179.094996 
L 324.581074 182.68642 
L 328.091972 185.333097 
L 331.602871 186.353446 
L 335.113769 186.309084 
L 338.624668 186.10049 
L 342.135566 186.09398 
L 345.646465 186.232067 
L 349.157363 186.402138 
L 352.668262 186.565411 
L 356.17916 186.683077 
L 359.690058 186.690367 
L 363.200957 186.515586 
L 366.711855 186.290451 
L 370.222754 186.253904 
L 373.733652 185.943668 
L 377.244551 184.978396 
L 380.755449 184.577849 
L 384.266348 185.500655 
L 387.777246 186.199697 
L 391.288145 186.141312 
L 394.799043 185.826658 
L 398.309942 185.411539 
L 401.82084 184.865367 
L 405.331738 184.255216 
L 408.842637 184.058923 
L 412.353535 184.638376 
L 415.864434 185.465302 
L 419.375332 186.010763 
L 422.886231 186.23318 
L 426.397129 186.155027 
L 429.908028 186.113454 
L 433.418926 186.233858 
L 436.929825 186.401613 
L 440.440723 186.557682 
L 443.951621 186.641863 
L 447.46252 186.607293 
L 450.973418 186.500695 
L 454.484317 186.378027 
L 457.995215 186.254056 
L 461.506114 186.130595 
L 465.017012 186.01383 
L 468.527911 185.927093 
L 472.038809 185.890385 
" style="fill:none;stroke:#989173;stroke-linecap:round;stroke-width:1.75;"/>
   </g>
   <g id="line2d_18">
    <path clip-path="url(#p642802dbff)" d="M 78.818182 187.492771 
L 82.32908 187.350112 
L 85.839979 187.209628 
L 89.350877 187.111562 
L 92.861776 187.03992 
L 96.372674 186.989823 
L 99.883573 186.895556 
L 103.394471 186.757893 
L 106.905369 186.556861 
L 110.416268 186.229582 
L 113.927166 185.797775 
L 117.438065 185.469904 
L 120.948963 185.420678 
L 124.459862 185.339549 
L 127.97076 185.217933 
L 131.481659 184.571366 
L 134.992557 183.591491 
L 138.503456 183.045912 
L 142.014354 183.1715 
L 145.525253 183.800948 
L 149.036151 184.288813 
L 152.547049 183.974421 
L 156.057948 182.810568 
L 159.568846 181.280246 
L 163.079745 180.471157 
L 166.590643 180.275791 
L 170.101542 180.217902 
L 173.61244 180.943083 
L 177.123339 182.247687 
L 180.634237 182.612621 
L 184.145136 181.642718 
L 187.656034 179.009373 
L 191.166932 175.571387 
L 194.677831 174.407127 
L 198.188729 175.543495 
L 201.699628 176.499294 
L 205.210526 175.002767 
L 208.721425 172.421345 
L 212.232323 171.176099 
L 215.743222 171.255922 
L 219.25412 172.657949 
L 222.765019 174.575367 
L 226.275917 175.357853 
L 229.786816 173.216688 
L 233.297714 168.743268 
L 236.808612 165.297324 
L 240.319511 163.194494 
L 243.830409 162.128588 
L 247.341308 164.318407 
L 250.852206 166.958466 
L 254.363105 165.492747 
L 257.874003 161.504365 
L 261.384902 159.185014 
L 264.8958 157.924796 
L 268.406699 157.89926 
L 271.917597 161.527007 
L 275.428495 163.810342 
L 278.939394 159.332512 
L 282.450292 153.273631 
L 285.961191 150.584064 
L 289.472089 149.228662 
L 292.982988 150.543398 
L 296.493886 154.573974 
L 300.004785 157.942616 
L 303.515683 156.396396 
L 307.026582 151.713792 
L 310.53748 148.187747 
L 314.048379 146.957828 
L 317.559277 149.078711 
L 321.070175 155.505139 
L 324.581074 161.458607 
L 328.091972 158.069819 
L 331.602871 147.488516 
L 335.113769 140.190118 
L 338.624668 140.731169 
L 342.135566 147.814738 
L 345.646465 156.13849 
L 349.157363 160.941458 
L 352.668262 157.070916 
L 356.17916 147.909434 
L 359.690058 143.346551 
L 363.200957 145.649363 
L 366.711855 151.382418 
L 370.222754 156.970151 
L 373.733652 160.446385 
L 377.244551 157.020092 
L 380.755449 148.052066 
L 384.266348 142.819886 
L 387.777246 142.804941 
L 391.288145 145.889892 
L 394.799043 152.292645 
L 398.309942 158.024401 
L 401.82084 155.280385 
L 405.331738 147.179989 
L 408.842637 144.399872 
L 412.353535 146.530712 
L 415.864434 149.410658 
L 419.375332 153.692095 
L 422.886231 158.720445 
L 426.397129 156.631915 
L 429.908028 149.594704 
L 433.418926 145.793427 
L 436.929825 143.763359 
L 440.440723 144.418927 
L 443.951621 150.802118 
L 447.46252 158.198184 
L 450.973418 157.097611 
L 454.484317 148.951076 
L 457.995215 143.890945 
L 461.506114 143.361843 
L 465.017012 145.556516 
L 468.527911 151.408626 
L 472.038809 158.231923 
L 475.549708 161.055962 
" style="fill:none;stroke:#42537f;stroke-linecap:round;stroke-width:1.75;"/>
   </g>
   <g id="line2d_19">
    <path clip-path="url(#p642802dbff)" d="M 78.818182 187.586961 
L 138.503456 187.07915 
L 142.014354 187.137075 
L 145.525253 187.053295 
L 149.036151 186.775353 
L 152.547049 186.719146 
L 159.568846 186.974492 
L 170.101542 186.934551 
L 180.634237 186.85932 
L 184.145136 187.065206 
L 191.166932 187.17841 
L 198.188729 187.386569 
L 359.690058 187.590602 
L 363.200957 187.38517 
L 366.711855 186.33662 
L 370.222754 184.101126 
L 373.733652 182.056474 
L 377.244551 181.555998 
L 380.755449 182.093037 
L 401.82084 186.771288 
L 405.331738 187.324894 
L 408.842637 187.562751 
L 419.375332 187.612816 
L 679.181818 187.612816 
L 679.181818 187.612816 
" style="fill:none;stroke:#ae54a5;stroke-dasharray:6.475,2.8;stroke-dashoffset:0;stroke-width:1.75;"/>
   </g>
   <g id="line2d_20">
    <path clip-path="url(#p642802dbff)" d="M 78.818182 186.918612 
L 82.32908 186.042009 
L 85.839979 185.124766 
L 89.350877 184.807968 
L 92.861776 184.605156 
L 96.372674 183.266792 
L 99.883573 181.203891 
L 103.394471 179.340936 
L 106.905369 177.23262 
L 110.416268 173.61238 
L 113.927166 170.567657 
L 117.438065 171.235375 
L 120.948963 170.754533 
L 124.459862 166.2797 
L 127.97076 161.129153 
L 131.481659 156.127708 
L 134.992557 151.453832 
L 138.503456 150.261332 
L 142.014354 150.203927 
L 145.525253 146.878606 
L 149.036151 136.782684 
L 152.547049 117.879645 
L 156.057948 93.075433 
L 159.568846 73.585951 
L 163.079745 66.883381 
L 166.590643 78.284849 
L 170.101542 92.239465 
L 173.61244 81.562327 
L 177.123339 68.578232 
L 180.634237 70.9657 
L 184.145136 66.877081 
L 187.656034 76.532937 
L 191.166932 100.506496 
L 194.677831 114.107474 
L 198.188729 109.103179 
L 201.699628 85.909823 
L 205.210526 67.928859 
L 208.721425 79.957238 
L 212.232323 99.538529 
L 215.743222 115.012739 
L 219.25412 126.096736 
L 222.765019 127.149855 
L 226.275917 125.070956 
L 229.786816 125.694064 
L 233.297714 130.46499 
L 236.808612 138.431783 
L 240.319511 145.613708 
L 243.830409 147.859427 
L 247.341308 144.193537 
L 250.852206 141.94575 
L 254.363105 144.366048 
L 257.874003 151.870894 
L 261.384902 160.391653 
L 264.8958 165.468637 
L 268.406699 163.919993 
L 271.917597 156.843931 
L 275.428495 153.163911 
L 278.939394 156.461188 
L 282.450292 161.599761 
L 285.961191 166.279539 
L 289.472089 171.763749 
L 292.982988 170.607573 
L 296.493886 161.933374 
L 300.004785 158.551637 
L 303.515683 161.172994 
L 307.026582 160.903055 
L 310.53748 158.463308 
L 314.048379 149.009265 
L 317.559277 147.322346 
L 321.070175 168.12259 
L 324.581074 186.514652 
L 328.091972 184.627019 
L 331.602871 179.463622 
L 335.113769 179.671716 
L 338.624668 181.282526 
L 342.135566 181.152048 
L 345.646465 179.523181 
L 349.157363 179.027198 
L 352.668262 179.583718 
L 356.17916 180.245137 
L 359.690058 180.978937 
L 363.200957 181.85079 
L 366.711855 182.551704 
L 370.222754 181.283732 
L 373.733652 178.845061 
L 377.244551 178.964445 
L 380.755449 181.013288 
L 384.266348 182.623466 
L 387.777246 183.757793 
L 391.288145 183.692924 
L 394.799043 181.834153 
L 398.309942 181.033438 
L 401.82084 182.735244 
L 405.331738 184.148231 
L 408.842637 184.575061 
L 412.353535 185.001831 
L 415.864434 184.76451 
L 419.375332 182.462487 
L 422.886231 180.504867 
L 426.397129 182.040515 
L 429.908028 184.270546 
L 433.418926 185.40721 
L 436.929825 185.893187 
L 440.440723 185.70059 
L 443.951621 184.515184 
L 447.46252 183.760886 
L 450.973418 184.539777 
L 454.484317 184.994391 
L 457.995215 184.642044 
L 461.506114 184.215639 
L 465.017012 183.904744 
L 468.527911 183.877201 
L 472.038809 184.372436 
L 475.549708 185.146955 
L 479.060606 185.573446 
L 482.571505 185.472194 
L 486.082403 185.15069 
L 489.593301 184.895095 
L 493.1042 184.933411 
L 496.615098 184.920799 
L 500.125997 184.185288 
L 503.636895 183.624269 
L 507.147794 184.04414 
L 510.658692 184.530513 
L 514.169591 184.655489 
L 517.680489 184.666217 
" style="fill:none;stroke:#0309a6;stroke-linecap:round;stroke-width:1.75;"/>
   </g>
   <g id="line2d_21">
    <path clip-path="url(#p642802dbff)" d="M 78.818182 187.413531 
L 82.32908 186.992137 
L 85.839979 186.340944 
L 89.350877 185.957547 
L 92.861776 186.019935 
L 96.372674 185.916631 
L 99.883573 185.210935 
L 103.394471 184.242024 
L 106.905369 183.145269 
L 110.416268 181.943306 
L 113.927166 180.679381 
L 117.438065 179.447046 
L 120.948963 178.322592 
L 124.459862 177.104209 
L 127.97076 175.590012 
L 131.481659 173.734393 
L 134.992557 172.193101 
L 138.503456 171.960419 
L 142.014354 172.356768 
L 145.525253 171.609863 
L 149.036151 168.947091 
L 152.547049 165.497737 
L 156.057948 163.096383 
L 159.568846 166.089433 
L 163.079745 173.45785 
L 166.590643 176.504821 
L 170.101542 172.368694 
L 173.61244 170.157735 
L 177.123339 165.997478 
L 180.634237 158.64316 
L 184.145136 159.323522 
L 187.656034 165.380122 
L 191.166932 171.298629 
L 194.677831 171.877994 
L 198.188729 168.850221 
L 201.699628 167.493731 
L 205.210526 165.798586 
L 208.721425 165.569861 
L 212.232323 169.781724 
L 215.743222 174.603839 
L 219.25412 175.998647 
L 222.765019 174.236911 
L 226.275917 172.607393 
L 229.786816 172.963118 
L 233.297714 174.572143 
L 236.808612 177.143882 
L 240.319511 179.55294 
L 243.830409 179.357238 
L 247.341308 175.325478 
L 250.852206 170.075017 
L 254.363105 168.852556 
L 257.874003 173.146391 
L 261.384902 178.189886 
L 264.8958 181.925554 
L 268.406699 182.897204 
L 271.917597 181.217703 
L 275.428495 179.768235 
L 278.939394 180.329586 
L 282.450292 183.111854 
L 285.961191 184.935738 
L 289.472089 184.887914 
L 292.982988 184.422296 
L 296.493886 183.295756 
L 300.004785 181.999838 
L 303.515683 181.903644 
L 307.026582 182.915588 
L 310.53748 184.186372 
L 314.048379 184.885266 
L 317.559277 185.011817 
L 321.070175 184.300867 
L 324.581074 183.134189 
L 328.091972 182.906781 
L 331.602871 183.615553 
L 335.113769 184.496201 
L 338.624668 185.373789 
L 342.135566 186.095651 
L 345.646465 186.315936 
L 349.157363 185.888203 
L 352.668262 185.074463 
L 356.17916 184.901082 
L 359.690058 185.443986 
L 363.200957 186.041939 
L 366.711855 186.282591 
L 370.222754 185.899175 
L 373.733652 185.364473 
L 377.244551 185.559314 
L 380.755449 186.022129 
L 384.266348 186.407949 
L 387.777246 186.686366 
L 391.288145 186.827933 
L 394.799043 186.712196 
L 398.309942 186.149185 
L 401.82084 185.56048 
L 405.331738 185.670624 
L 408.842637 186.274389 
L 412.353535 186.765732 
L 415.864434 186.980766 
L 419.375332 186.884277 
L 422.886231 186.563905 
L 426.397129 186.355393 
L 429.908028 186.216072 
L 433.418926 186.26021 
L 436.929825 186.718135 
L 440.440723 186.970555 
L 443.951621 186.835905 
L 447.46252 186.729743 
L 450.973418 186.812186 
L 454.484317 186.890409 
L 457.995215 186.958694 
L 461.506114 187.039274 
L 465.017012 187.227898 
L 468.527911 187.240059 
L 472.038809 186.885618 
L 475.549708 186.60783 
L 479.060606 186.684743 
L 482.571505 186.917494 
L 486.082403 187.12892 
L 489.593301 187.309128 
L 493.1042 187.373908 
" style="fill:none;stroke:#d8b009;stroke-linecap:round;stroke-width:1.75;"/>
   </g>
   <g id="line2d_22">
    <path clip-path="url(#p642802dbff)" d="M 78.818182 187.269339 
L 82.32908 186.915054 
L 85.839979 186.363179 
L 99.883573 182.651683 
L 103.394471 181.587205 
L 106.905369 179.133545 
L 110.416268 175.156545 
L 113.927166 171.710075 
L 117.438065 167.712094 
L 120.948963 164.136665 
L 124.459862 161.691884 
L 127.97076 159.57532 
L 131.481659 155.727676 
L 134.992557 148.371556 
L 138.503456 143.133784 
L 142.014354 138.85311 
L 145.525253 132.419346 
L 149.036151 123.679887 
L 152.547049 110.01898 
L 156.057948 100.337453 
L 159.568846 101.681505 
L 163.079745 103.357863 
L 170.101542 96.904692 
L 173.61244 90.248594 
L 177.123339 80.995631 
L 180.634237 79.676707 
L 184.145136 84.075437 
L 187.656034 85.382478 
L 191.166932 86.473364 
L 194.677831 89.968085 
L 198.188729 91.961915 
L 201.699628 95.005579 
L 205.210526 103.022019 
L 208.721425 110.328708 
L 212.232323 111.449538 
L 215.743222 112.238583 
L 219.25412 113.853032 
L 222.765019 113.469042 
L 226.275917 113.554044 
L 229.786816 116.704385 
L 233.297714 120.583235 
L 236.808612 118.291246 
L 240.319511 114.652015 
L 243.830409 115.280608 
L 247.341308 117.514168 
L 250.852206 119.934478 
L 254.363105 124.80894 
L 257.874003 128.700594 
L 261.384902 127.944413 
L 264.8958 126.452526 
L 268.406699 128.272896 
L 271.917597 130.800897 
L 275.428495 133.997593 
L 282.450292 145.466993 
L 285.961191 145.510653 
L 289.472089 143.928856 
L 292.982988 146.168296 
L 296.493886 148.789103 
L 300.004785 146.886373 
L 303.515683 146.333792 
L 307.026582 154.373346 
L 310.53748 159.018685 
L 314.048379 154.816808 
L 317.559277 149.995419 
L 321.070175 151.739943 
L 324.581074 156.996121 
L 328.091972 161.810248 
L 331.602871 164.655336 
L 335.113769 165.212775 
L 338.624668 164.209835 
L 345.646465 158.473481 
L 349.157363 160.089972 
L 352.668262 165.272024 
L 356.17916 169.497408 
L 359.690058 170.769489 
L 363.200957 169.174846 
L 366.711855 167.949135 
L 370.222754 168.740479 
L 373.733652 170.973364 
L 377.244551 174.205952 
L 380.755449 177.007696 
L 384.266348 177.279486 
L 387.777246 176.290822 
L 391.288145 175.810553 
L 394.799043 176.400952 
L 401.82084 176.015065 
L 405.331738 177.497993 
L 408.842637 179.226901 
L 412.353535 179.568196 
L 419.375332 177.419941 
L 422.886231 177.465705 
L 426.397129 178.585911 
L 429.908028 179.499647 
L 433.418926 179.200518 
L 436.929825 178.626775 
L 440.440723 179.051657 
L 443.951621 179.884198 
L 450.973418 179.983718 
L 457.995215 182.999907 
L 461.506114 182.944757 
L 465.017012 181.806878 
L 468.527911 180.904294 
L 472.038809 181.205113 
L 475.549708 182.30449 
L 479.060606 183.719604 
L 482.571505 184.989369 
L 486.082403 186.508115 
L 489.593301 187.208006 
L 493.1042 185.720631 
L 496.615098 184.852655 
L 500.125997 185.342578 
L 503.636895 185.677389 
L 507.147794 185.696318 
L 514.169591 184.754652 
L 517.680489 184.679932 
L 524.702286 185.586573 
L 528.213184 186.036646 
L 531.724083 185.811627 
L 535.234981 185.240226 
L 538.74588 185.420197 
L 542.256778 185.915505 
L 545.767677 186.236122 
L 549.278575 186.429442 
L 552.789474 186.36301 
L 556.300372 186.161511 
L 556.300372 186.161511 
" style="fill:none;stroke:#1007e1;stroke-linecap:round;stroke-width:1.75;"/>
   </g>
   <g id="line2d_23">
    <path clip-path="url(#p642802dbff)" d="M 78.818182 186.577883 
L 82.32908 184.489556 
L 85.839979 181.749012 
L 89.350877 180.071567 
L 92.861776 178.235377 
L 96.372674 175.651431 
L 99.883573 173.164607 
L 103.394471 170.850248 
L 106.905369 167.535122 
L 110.416268 161.266344 
L 113.927166 154.823771 
L 117.438065 149.451009 
L 120.948963 144.403996 
L 124.459862 140.749002 
L 127.97076 137.401946 
L 131.481659 132.641709 
L 134.992557 125.063785 
L 138.503456 121.280011 
L 142.014354 119.729279 
L 145.525253 119.622836 
L 149.036151 123.249638 
L 152.547049 129.072313 
L 156.057948 124.355938 
L 159.568846 113.117401 
L 163.079745 115.426083 
L 166.590643 124.423584 
L 170.101542 130.806591 
L 173.61244 135.704285 
L 177.123339 141.450103 
L 180.634237 141.256523 
L 184.145136 129.711747 
L 187.656034 115.970849 
L 191.166932 113.505645 
L 194.677831 120.959998 
L 198.188729 131.800468 
L 201.699628 142.641116 
L 205.210526 142.136266 
L 208.721425 131.276271 
L 212.232323 127.793402 
L 215.743222 132.094945 
L 219.25412 136.679317 
L 222.765019 143.150727 
L 226.275917 154.16798 
L 229.786816 161.138583 
L 233.297714 155.15562 
L 236.808612 144.441674 
L 240.319511 143.408982 
L 243.830409 146.233074 
L 247.341308 150.271192 
L 250.852206 158.090856 
L 254.363105 162.993698 
L 257.874003 161.75866 
L 261.384902 160.41911 
L 264.8958 157.630863 
L 268.406699 157.80629 
L 271.917597 164.327769 
L 275.428495 172.702373 
L 278.939394 174.188582 
L 282.450292 169.574761 
L 285.961191 168.030866 
L 289.472089 169.549256 
L 292.982988 170.85329 
L 296.493886 175.027474 
L 300.004785 179.617072 
L 303.515683 180.277312 
L 307.026582 177.967648 
L 310.53748 176.008404 
L 314.048379 176.887386 
L 317.559277 178.90971 
L 321.070175 180.077935 
L 324.581074 181.375373 
L 328.091972 181.281678 
L 331.602871 179.483585 
L 335.113769 177.893857 
L 338.624668 176.305118 
L 342.135566 176.629863 
L 345.646465 179.651159 
L 349.157363 183.105463 
L 352.668262 184.705347 
L 356.17916 184.539633 
L 359.690058 183.425372 
L 363.200957 182.397833 
L 366.711855 182.66102 
L 370.222754 184.325724 
L 373.733652 185.549082 
L 377.244551 184.843768 
L 380.755449 183.369802 
L 384.266348 183.580669 
L 387.777246 184.67663 
L 391.288145 185.049727 
L 394.799043 185.522901 
L 398.309942 185.857605 
L 401.82084 185.604367 
L 405.331738 185.519014 
L 408.842637 185.724584 
L 412.353535 185.848332 
L 415.864434 185.679293 
L 419.375332 185.604137 
L 422.886231 186.069659 
L 426.397129 186.2034 
L 429.908028 186.091713 
L 433.418926 186.266692 
L 436.929825 186.383303 
L 440.440723 186.450312 
L 443.951621 186.599914 
L 447.46252 186.606368 
L 450.973418 186.163016 
L 454.484317 185.251345 
L 457.995215 184.333198 
L 461.506114 183.576333 
L 465.017012 182.896203 
L 468.527911 182.53636 
L 472.038809 183.358667 
L 475.549708 185.135354 
L 479.060606 186.087462 
L 482.571505 186.423012 
L 486.082403 186.930842 
L 489.593301 187.369607 
L 493.1042 187.363469 
L 496.615098 187.223826 
L 500.125997 187.182344 
" style="fill:none;stroke:#a67d4c;stroke-linecap:round;stroke-width:1.75;"/>
   </g>
   <g id="line2d_24">
    <path clip-path="url(#p642802dbff)" d="M 78.818182 184.907994 
L 82.32908 182.04839 
L 85.839979 179.019126 
L 89.350877 176.401803 
L 92.861776 174.147636 
L 96.372674 172.484542 
L 99.883573 172.201517 
L 103.394471 172.102577 
L 106.905369 171.101487 
L 110.416268 169.483334 
L 113.927166 167.68585 
L 117.438065 166.589875 
L 120.948963 167.962972 
L 124.459862 169.387506 
L 127.97076 168.997125 
L 131.481659 165.740566 
L 134.992557 163.858598 
L 138.503456 164.966403 
L 142.014354 165.270112 
L 145.525253 163.663507 
L 149.036151 162.976739 
L 152.547049 163.525853 
L 156.057948 163.868464 
L 159.568846 164.247453 
L 163.079745 165.10566 
L 166.590643 165.839879 
L 170.101542 166.4515 
L 173.61244 167.927792 
L 177.123339 169.223132 
L 180.634237 168.876853 
L 184.145136 167.131926 
L 187.656034 164.566798 
L 191.166932 164.398514 
L 194.677831 166.973 
L 198.188729 169.141363 
L 201.699628 170.145363 
L 205.210526 170.875232 
L 208.721425 171.772505 
L 212.232323 173.454266 
L 215.743222 174.50215 
L 219.25412 174.389835 
L 222.765019 173.856881 
L 226.275917 174.672705 
L 229.786816 176.461745 
L 233.297714 176.976035 
L 236.808612 177.472445 
L 240.319511 178.825725 
L 243.830409 179.655213 
L 247.341308 179.906082 
L 250.852206 178.834057 
L 254.363105 177.359297 
L 257.874003 178.288559 
L 261.384902 180.300968 
L 264.8958 180.64731 
L 268.406699 178.953694 
L 271.917597 177.462811 
L 275.428495 176.88906 
L 278.939394 176.339469 
L 282.450292 176.309271 
L 285.961191 177.109619 
L 289.472089 177.837472 
L 292.982988 177.806958 
L 296.493886 177.489209 
L 300.004785 177.55909 
L 303.515683 177.787581 
L 307.026582 177.693163 
L 310.53748 177.566336 
L 314.048379 177.515592 
L 317.559277 177.492699 
L 321.070175 177.422402 
L 324.581074 177.690686 
L 328.091972 178.545919 
L 331.602871 179.668984 
L 335.113769 180.517399 
L 338.624668 180.849685 
L 342.135566 181.591224 
L 345.646465 182.680135 
L 349.157363 183.033491 
L 352.668262 183.019252 
L 356.17916 183.268674 
L 359.690058 183.841005 
L 363.200957 184.348342 
L 366.711855 184.0158 
L 370.222754 184.168217 
L 373.733652 185.125542 
L 377.244551 186.021949 
L 380.755449 186.513892 
L 384.266348 186.457371 
L 387.777246 186.219236 
L 391.288145 186.189387 
L 394.799043 185.7392 
L 398.309942 184.784789 
L 401.82084 184.213877 
L 405.331738 184.120552 
L 408.842637 183.690669 
L 412.353535 183.379465 
L 415.864434 183.757876 
L 419.375332 184.316975 
L 422.886231 184.022334 
L 426.397129 183.462383 
L 429.908028 183.186955 
L 433.418926 182.047599 
L 436.929825 181.088857 
L 440.440723 181.303673 
L 443.951621 181.737515 
L 447.46252 182.126184 
L 450.973418 182.564697 
L 454.484317 182.659112 
L 457.995215 182.287831 
L 461.506114 182.860488 
L 465.017012 183.162755 
L 468.527911 183.792572 
L 472.038809 184.973631 
" style="fill:none;stroke:#ea71b3;stroke-linecap:round;stroke-width:1.75;"/>
   </g>
   <g id="line2d_25">
    <path clip-path="url(#p642802dbff)" d="M 78.818182 187.509638 
L 82.32908 187.412486 
L 85.839979 187.335059 
L 89.350877 187.325561 
L 92.861776 187.389365 
L 96.372674 187.365088 
L 99.883573 187.246574 
L 103.394471 187.144038 
L 106.905369 186.976384 
L 110.416268 186.8271 
L 113.927166 186.730579 
L 117.438065 186.601691 
L 120.948963 186.520665 
L 124.459862 186.384306 
L 127.97076 186.123714 
L 131.481659 185.820993 
L 134.992557 185.568772 
L 138.503456 185.388684 
L 142.014354 185.240825 
L 145.525253 185.120424 
L 149.036151 184.962698 
L 152.547049 184.895081 
L 156.057948 184.868269 
L 159.568846 184.588565 
L 163.079745 184.320335 
L 166.590643 184.357142 
L 170.101542 184.313553 
L 173.61244 183.608415 
L 177.123339 182.728288 
L 180.634237 182.51839 
L 184.145136 183.110703 
L 187.656034 183.967812 
L 191.166932 184.145471 
L 194.677831 183.606504 
L 198.188729 183.077013 
L 201.699628 182.915692 
L 205.210526 182.788482 
L 208.721425 182.53987 
L 212.232323 182.466057 
L 215.743222 182.586863 
L 219.25412 182.510972 
L 222.765019 182.348357 
L 226.275917 182.380783 
L 229.786816 182.279014 
L 233.297714 181.918081 
L 236.808612 181.869216 
L 240.319511 182.22961 
L 243.830409 182.228506 
L 247.341308 181.590531 
L 250.852206 180.913481 
L 254.363105 180.491968 
L 257.874003 180.16013 
L 261.384902 180.091611 
L 264.8958 180.423226 
L 268.406699 180.541736 
L 271.917597 179.668758 
L 275.428495 178.742879 
L 278.939394 177.826316 
L 282.450292 177.224244 
L 285.961191 178.017986 
L 289.472089 179.108393 
L 292.982988 179.094631 
L 296.493886 178.543747 
L 300.004785 178.447071 
L 303.515683 178.794279 
L 307.026582 178.930568 
L 310.53748 179.001192 
L 314.048379 179.827519 
L 317.559277 180.079536 
L 321.070175 178.828773 
L 324.581074 177.746899 
L 328.091972 177.991971 
L 331.602871 179.045878 
L 335.113769 180.33423 
L 338.624668 180.640953 
L 342.135566 179.623196 
L 345.646465 178.281799 
L 349.157363 177.711839 
L 352.668262 177.886378 
L 356.17916 178.454857 
L 359.690058 179.61772 
L 363.200957 180.993282 
L 366.711855 181.281261 
L 370.222754 180.53529 
L 373.733652 180.385233 
L 377.244551 180.438026 
L 380.755449 179.526367 
L 384.266348 179.478709 
L 387.777246 180.851868 
L 391.288145 181.15848 
L 394.799043 179.62387 
L 398.309942 178.379014 
L 401.82084 178.521658 
L 405.331738 178.800696 
L 408.842637 179.204667 
L 412.353535 179.763424 
L 415.864434 179.450415 
L 419.375332 178.524135 
L 422.886231 178.22241 
L 426.397129 178.290396 
L 429.908028 178.333517 
L 433.418926 178.875449 
L 436.929825 180.254269 
L 440.440723 181.420395 
" style="fill:none;stroke:#5feb16;stroke-linecap:round;stroke-width:1.75;"/>
   </g>
   <g id="line2d_26">
    <path clip-path="url(#p642802dbff)" d="M 78.818182 187.099542 
L 82.32908 186.347365 
L 85.839979 185.343824 
L 89.350877 183.071147 
L 92.861776 179.056945 
L 96.372674 176.223633 
L 99.883573 174.589101 
L 103.394471 171.453745 
L 106.905369 166.792689 
L 110.416268 163.515196 
L 113.927166 157.397826 
L 117.438065 147.857703 
L 120.948963 135.188114 
L 124.459862 120.720651 
L 127.97076 106.663473 
L 131.481659 90.740319 
L 134.992557 73.172753 
L 138.503456 65.073815 
L 142.014354 60.645779 
L 145.525253 54.916263 
L 149.036151 50.921246 
L 152.547049 50.130074 
L 156.057948 50.226289 
L 159.568846 44.138614 
L 163.079745 41.469607 
L 166.590643 50.190947 
L 170.101542 62.737121 
L 173.61244 70.906085 
L 177.123339 73.174187 
L 180.634237 72.371582 
L 184.145136 73.293167 
L 187.656034 79.247697 
L 191.166932 87.482829 
L 194.677831 93.737354 
L 198.188729 97.328031 
L 201.699628 105.508701 
L 205.210526 109.622963 
L 208.721425 98.492306 
L 212.232323 92.039519 
L 215.743222 107.86359 
L 219.25412 132.276739 
L 222.765019 133.234496 
L 226.275917 123.79698 
L 229.786816 119.263657 
L 233.297714 118.004943 
L 236.808612 120.047209 
L 240.319511 124.837651 
L 243.830409 130.11976 
L 247.341308 134.61966 
L 250.852206 135.30206 
L 254.363105 131.883087 
L 257.874003 128.811084 
L 261.384902 128.395824 
L 264.8958 122.762599 
L 268.406699 124.661426 
L 271.917597 143.06923 
L 275.428495 155.816288 
L 278.939394 155.73744 
L 282.450292 152.486317 
L 285.961191 151.837156 
L 289.472089 153.778655 
L 292.982988 158.166913 
L 296.493886 162.656487 
L 300.004785 163.618944 
L 303.515683 160.77821 
L 307.026582 157.801541 
L 310.53748 158.286229 
L 314.048379 163.135042 
L 317.559277 167.188373 
L 321.070175 167.654005 
L 324.581074 168.516126 
L 328.091972 170.973505 
L 331.602871 168.30761 
L 335.113769 151.75292 
L 338.624668 138.777456 
L 342.135566 170.520951 
L 345.646465 247.531669 
L 349.157363 295.593787 
L 352.668262 238.299811 
L 356.17916 183.931648 
L 359.690058 180.676155 
L 363.200957 185.823997 
L 366.711855 187.060543 
L 370.222754 187.231761 
L 373.733652 187.330628 
L 377.244551 187.362303 
L 380.755449 187.279262 
L 384.266348 187.191524 
L 387.777246 187.223853 
L 391.288145 186.413242 
L 394.799043 181.657616 
L 398.309942 170.516915 
L 401.82084 155.518591 
L 405.331738 139.660032 
L 408.842637 123.730868 
L 412.353535 107.799572 
L 415.864434 91.868275 
L 419.375332 75.936979 
L 422.886231 60.005683 
L 426.397129 44.101973 
L 429.908028 29.086493 
L 433.418926 24.361609 
L 436.929825 59.294101 
L 440.440723 130.621666 
L 443.951621 176.099913 
L 447.46252 186.522411 
L 450.973418 187.364281 
L 454.484317 187.249846 
L 457.995215 186.994126 
L 461.506114 186.826634 
L 465.017012 186.970717 
L 468.527911 187.095522 
L 472.038809 186.877939 
L 475.549708 186.497019 
L 479.060606 186.339365 
L 482.571505 186.143663 
L 486.082403 185.721483 
L 489.593301 185.780229 
L 493.1042 186.329783 
L 496.615098 186.806902 
L 500.125997 186.962767 
L 503.636895 186.954616 
L 507.147794 186.999207 
L 510.658692 187.137301 
L 514.169591 187.20874 
L 517.680489 187.186794 
L 521.191388 187.154506 
" style="fill:none;stroke:#907eba;stroke-linecap:round;stroke-width:1.75;"/>
   </g>
   <g id="line2d_27">
    <path clip-path="url(#p642802dbff)" d="M 78.818182 187.376526 
L 82.32908 187.106394 
L 85.839979 186.759798 
L 89.350877 186.39385 
L 92.861776 186.14869 
L 96.372674 186.028035 
L 99.883573 185.798258 
L 103.394471 185.176392 
L 106.905369 184.191175 
L 110.416268 183.026731 
L 113.927166 181.784275 
L 117.438065 180.932134 
L 120.948963 180.706316 
L 124.459862 180.639849 
L 127.97076 180.581263 
L 131.481659 180.459587 
L 134.992557 180.089312 
L 138.503456 179.425977 
L 142.014354 178.796105 
L 145.525253 178.515372 
L 149.036151 178.477383 
L 152.547049 178.38393 
L 156.057948 178.063089 
L 159.568846 177.455845 
L 163.079745 176.708588 
L 166.590643 176.100677 
L 170.101542 175.87449 
L 173.61244 175.870538 
L 177.123339 175.861989 
L 180.634237 176.003559 
L 184.145136 176.276588 
L 187.656034 176.539882 
L 191.166932 176.839395 
L 194.677831 177.230443 
L 198.188729 177.674915 
L 201.699628 178.148268 
L 205.210526 178.56054 
L 208.721425 178.85506 
L 212.232323 179.017801 
L 215.743222 179.19669 
L 219.25412 179.685326 
L 222.765019 180.475999 
L 226.275917 181.255593 
L 229.786816 181.65861 
L 233.297714 181.793401 
L 236.808612 181.916669 
L 240.319511 182.288556 
L 243.830409 182.732027 
L 247.341308 182.925235 
L 250.852206 182.866434 
L 254.363105 182.648006 
L 257.874003 182.458494 
L 261.384902 182.383124 
L 264.8958 182.584066 
L 268.406699 183.04339 
L 271.917597 183.480936 
L 275.428495 183.880602 
L 278.939394 184.434863 
L 282.450292 184.928258 
L 285.961191 185.157637 
L 289.472089 185.116286 
L 292.982988 184.938163 
L 296.493886 184.746468 
L 300.004785 184.701631 
L 303.515683 184.783365 
L 307.026582 184.771609 
L 310.53748 184.685784 
L 314.048379 184.762353 
L 317.559277 184.951306 
L 321.070175 185.124323 
L 324.581074 185.270025 
L 328.091972 185.393707 
L 331.602871 185.454075 
L 335.113769 185.494934 
L 338.624668 185.621133 
L 342.135566 185.716238 
L 345.646465 185.661163 
L 349.157363 185.630597 
L 352.668262 185.75 
L 356.17916 185.891878 
L 359.690058 185.982858 
L 363.200957 186.063091 
L 366.711855 186.160873 
L 370.222754 186.207094 
L 373.733652 186.137913 
L 377.244551 186.019335 
L 380.755449 185.926742 
L 384.266348 185.802597 
L 387.777246 185.643766 
L 391.288145 185.52978 
L 394.799043 185.481388 
L 398.309942 185.418423 
L 401.82084 185.309763 
L 405.331738 185.25369 
L 408.842637 185.372702 
L 412.353535 185.59606 
L 415.864434 185.809434 
L 419.375332 185.978818 
L 422.886231 186.052041 
L 426.397129 186.026917 
L 429.908028 185.985418 
L 433.418926 185.93859 
L 436.929825 185.903884 
L 440.440723 185.842984 
L 443.951621 185.805291 
L 447.46252 185.862977 
L 450.973418 185.910878 
L 454.484317 185.820508 
L 457.995215 185.721045 
L 461.506114 185.685815 
L 465.017012 185.628021 
L 468.527911 185.654013 
L 472.038809 185.751536 
L 475.549708 185.804724 
" style="fill:none;stroke:#221cdf;stroke-linecap:round;stroke-width:1.75;"/>
   </g>
   <g id="line2d_28">
    <path clip-path="url(#p642802dbff)" d="M 78.818182 187.602643 
L 103.394471 187.257809 
L 110.416268 186.701552 
L 124.459862 185.00961 
L 127.97076 184.23133 
L 131.481659 183.177675 
L 134.992557 181.82661 
L 138.503456 180.008489 
L 145.525253 175.213602 
L 149.036151 173.286037 
L 152.547049 171.102747 
L 156.057948 166.879258 
L 159.568846 161.509292 
L 163.079745 157.209882 
L 166.590643 154.918551 
L 170.101542 155.385106 
L 173.61244 155.537274 
L 177.123339 152.48498 
L 184.145136 139.820444 
L 187.656034 137.901894 
L 191.166932 138.529387 
L 194.677831 139.37628 
L 201.699628 142.96039 
L 205.210526 140.641252 
L 208.721425 134.970219 
L 212.232323 132.173876 
L 215.743222 132.259855 
L 219.25412 132.500504 
L 222.765019 138.096156 
L 226.275917 145.572494 
L 229.786816 143.423071 
L 233.297714 135.875525 
L 236.808612 132.31786 
L 240.319511 133.795077 
L 243.830409 139.61668 
L 247.341308 147.516687 
L 250.852206 152.126864 
L 254.363105 148.707622 
L 257.874003 139.732441 
L 261.384902 134.184576 
L 264.8958 136.334966 
L 268.406699 143.394012 
L 271.917597 151.217416 
L 275.428495 155.370141 
L 278.939394 150.640419 
L 282.450292 140.57586 
L 285.961191 136.615663 
L 289.472089 140.97468 
L 292.982988 147.67285 
L 296.493886 154.905294 
L 300.004785 160.680425 
L 303.515683 159.588572 
L 307.026582 153.203908 
L 310.53748 148.455124 
L 314.048379 147.937398 
L 317.559277 151.709196 
L 321.070175 158.96166 
L 324.581074 164.892112 
L 328.091972 163.552816 
L 331.602871 157.150114 
L 335.113769 154.504474 
L 338.624668 156.585816 
L 342.135566 159.500135 
L 345.646465 164.075054 
L 349.157363 169.923193 
L 352.668262 171.918244 
L 356.17916 167.261994 
L 359.690058 160.661034 
L 363.200957 159.225635 
L 366.711855 161.764248 
L 370.222754 165.925549 
L 373.733652 169.253891 
L 377.244551 168.508467 
L 380.755449 165.762805 
L 384.266348 164.469071 
L 387.777246 164.798728 
L 391.288145 167.00707 
L 394.799043 171.099576 
L 398.309942 174.075031 
L 401.82084 172.807423 
L 405.331738 168.941021 
L 408.842637 166.935687 
L 412.353535 167.319277 
L 415.864434 169.025956 
L 419.375332 172.475493 
L 422.886231 176.099037 
L 426.397129 175.466629 
L 429.908028 171.896446 
L 433.418926 170.424489 
L 436.929825 171.08338 
L 440.440723 172.495704 
L 443.951621 175.098542 
L 447.46252 177.413595 
L 450.973418 175.588887 
L 454.484317 169.701568 
L 457.995215 160.732014 
L 461.506114 155.540961 
L 465.017012 164.093364 
L 468.527911 174.602885 
L 472.038809 178.617712 
L 475.549708 177.283913 
L 479.060606 173.779971 
L 482.571505 171.991955 
L 486.082403 172.378964 
L 489.593301 174.991951 
L 493.1042 178.665818 
L 496.615098 179.367124 
L 500.125997 174.757461 
L 503.636895 168.266617 
L 507.147794 166.058918 
L 510.658692 166.729669 
L 514.169591 168.89635 
L 521.191388 175.804879 
L 524.702286 177.626468 
L 524.702286 177.626468 
" style="fill:none;stroke:#7516fd;stroke-dasharray:6.475,2.8;stroke-dashoffset:0;stroke-width:1.75;"/>
   </g>
   <g id="line2d_29">
    <path clip-path="url(#p642802dbff)" d="M 78.818182 186.94872 
L 82.32908 186.174234 
L 85.839979 185.480642 
L 89.350877 184.936322 
L 92.861776 184.036996 
L 96.372674 183.248217 
L 99.883573 182.766573 
L 103.394471 182.285397 
L 106.905369 181.168452 
L 110.416268 177.549147 
L 113.927166 172.110496 
L 117.438065 167.554815 
L 120.948963 163.352217 
L 124.459862 158.712784 
L 127.97076 156.679059 
L 131.481659 154.790243 
L 134.992557 147.597836 
L 138.503456 135.394991 
L 142.014354 121.192904 
L 145.525253 111.995844 
L 149.036151 107.334425 
L 152.547049 106.872754 
L 156.057948 109.652096 
L 159.568846 103.000929 
L 163.079745 84.088906 
L 166.590643 69.767989 
L 170.101542 64.535906 
L 173.61244 69.768293 
L 177.123339 85.998204 
L 180.634237 97.933535 
L 184.145136 94.182772 
L 187.656034 84.325597 
L 191.166932 80.220745 
L 194.677831 77.256396 
L 198.188729 76.34376 
L 201.699628 86.077381 
L 205.210526 104.364573 
L 208.721425 102.671765 
L 212.232323 86.478839 
L 215.743222 86.017294 
L 219.25412 90.019423 
L 222.765019 89.352183 
L 226.275917 102.009563 
L 229.786816 123.048514 
L 233.297714 124.277085 
L 236.808612 107.043637 
L 240.319511 100.195248 
L 243.830409 104.485485 
L 247.341308 110.474476 
L 250.852206 123.341492 
L 254.363105 138.543164 
L 257.874003 138.096848 
L 261.384902 124.226574 
L 264.8958 118.004454 
L 268.406699 121.079943 
L 271.917597 128.443786 
L 275.428495 141.81233 
L 278.939394 151.721655 
L 282.450292 147.492725 
L 285.961191 134.788414 
L 289.472089 131.77619 
L 292.982988 136.774699 
L 296.493886 140.757898 
L 300.004785 146.766855 
L 303.515683 156.350177 
L 307.026582 155.020066 
L 310.53748 144.685607 
L 314.048379 143.197248 
L 317.559277 147.191731 
L 321.070175 151.162954 
L 324.581074 158.699975 
L 328.091972 167.715294 
L 331.602871 170.47624 
L 335.113769 163.405862 
L 338.624668 151.791782 
L 342.135566 147.804743 
L 345.646465 152.888521 
L 349.157363 159.600706 
L 352.668262 156.767066 
L 356.17916 146.360755 
L 359.690058 145.427465 
L 363.200957 151.606754 
L 366.711855 156.214828 
L 370.222754 157.945288 
L 373.733652 164.559899 
L 377.244551 172.748337 
L 380.755449 171.987643 
L 384.266348 164.576724 
L 387.777246 162.594469 
L 391.288145 165.436634 
L 394.799043 167.329414 
L 398.309942 171.37313 
L 401.82084 177.063999 
L 405.331738 176.022171 
L 408.842637 169.621245 
L 412.353535 167.669428 
L 415.864434 169.326396 
L 419.375332 170.931531 
L 422.886231 174.652297 
L 426.397129 178.786679 
L 429.908028 176.142892 
L 433.418926 168.864428 
L 436.929825 167.442178 
L 440.440723 169.111756 
L 443.951621 171.018325 
L 447.46252 175.740693 
L 450.973418 180.255953 
L 454.484317 179.325525 
L 457.995215 174.056299 
L 461.506114 171.775474 
L 465.017012 173.535697 
L 468.527911 175.795187 
L 472.038809 179.376624 
L 475.549708 182.412934 
L 479.060606 180.691053 
L 482.571505 175.904822 
L 486.082403 174.757732 
L 489.593301 177.045083 
L 493.1042 177.997547 
L 496.615098 178.300448 
L 500.125997 181.843532 
L 503.636895 185.088462 
" style="fill:none;stroke:#89f9c9;stroke-linecap:round;stroke-width:1.75;"/>
   </g>
   <g id="patch_3">
    <path d="M 48.8 309.155396 
L 48.8 10.8 
" style="fill:none;"/>
   </g>
   <g id="patch_4">
    <path d="M 709.2 309.155396 
L 709.2 10.8 
" style="fill:none;"/>
   </g>
   <g id="patch_5">
    <path d="M 48.8 309.155396 
L 709.2 309.155396 
" style="fill:none;"/>
   </g>
   <g id="patch_6">
    <path d="M 48.8 10.8 
L 709.2 10.8 
" style="fill:none;"/>
   </g>
   <g id="legend_1">
    <g id="line2d_30">
     <path d="M 601.051563 23.546875 
L 621.051563 23.546875 
" style="fill:none;stroke:#989173;stroke-linecap:round;stroke-width:1.75;"/>
    </g>
    <g id="line2d_31"/>
    <g id="text_19">
     <!-- Austria -->
     <defs>
      <path d="M 56.984375 0 
L 49.125 20.125 
L 17.78125 20.125 
L 9.859375 0 
L 0.203125 0 
L 28.265625 68.796875 
L 38.875 68.796875 
L 66.5 0 
z
M 37.5 50.09375 
Q 36.71875 52.046875 36 54.046875 
Q 35.296875 56.0625 34.765625 57.6875 
Q 34.234375 59.328125 33.859375 60.421875 
Q 33.5 61.53125 33.453125 61.765625 
Q 33.34375 61.53125 33 60.40625 
Q 32.671875 59.28125 32.109375 57.609375 
Q 31.546875 55.953125 30.828125 53.953125 
Q 30.125 51.953125 29.390625 50 
L 20.609375 27.390625 
L 46.34375 27.390625 
z
" id="LiberationSans-65"/>
     </defs>
     <g style="fill:#262626;" transform="translate(629.051563 27.046875)scale(0.1 -0.1)">
      <use xlink:href="#LiberationSans-65"/>
      <use x="66.699219" xlink:href="#LiberationSans-117"/>
      <use x="122.314453" xlink:href="#LiberationSans-115"/>
      <use x="172.314453" xlink:href="#LiberationSans-116"/>
      <use x="200.097656" xlink:href="#LiberationSans-114"/>
      <use x="233.398438" xlink:href="#LiberationSans-105"/>
      <use x="255.615234" xlink:href="#LiberationSans-97"/>
     </g>
    </g>
    <g id="line2d_32">
     <path d="M 601.051563 37.86875 
L 621.051563 37.86875 
" style="fill:none;stroke:#42537f;stroke-linecap:round;stroke-width:1.75;"/>
    </g>
    <g id="line2d_33"/>
    <g id="text_20">
     <!-- Brazil -->
     <defs>
      <path d="M 61.421875 19.390625 
Q 61.421875 14.15625 59.375 10.46875 
Q 57.328125 6.78125 53.859375 4.46875 
Q 50.390625 2.15625 45.796875 1.078125 
Q 41.21875 0 36.140625 0 
L 8.203125 0 
L 8.203125 68.796875 
L 33.203125 68.796875 
Q 38.921875 68.796875 43.40625 67.84375 
Q 47.90625 66.890625 51.03125 64.84375 
Q 54.15625 62.796875 55.78125 59.640625 
Q 57.421875 56.5 57.421875 52.09375 
Q 57.421875 49.21875 56.609375 46.671875 
Q 55.8125 44.140625 54.171875 42.0625 
Q 52.546875 39.984375 50.078125 38.5 
Q 47.609375 37.015625 44.34375 36.28125 
Q 48.484375 35.796875 51.6875 34.375 
Q 54.890625 32.953125 57.03125 30.75 
Q 59.1875 28.5625 60.296875 25.65625 
Q 61.421875 22.75 61.421875 19.390625 
z
M 48.046875 50.984375 
Q 48.046875 56.546875 44.234375 58.9375 
Q 40.4375 61.328125 33.203125 61.328125 
L 17.53125 61.328125 
L 17.53125 39.546875 
L 33.203125 39.546875 
Q 37.3125 39.546875 40.140625 40.34375 
Q 42.96875 41.15625 44.71875 42.640625 
Q 46.484375 44.140625 47.265625 46.234375 
Q 48.046875 48.34375 48.046875 50.984375 
z
M 52 20.125 
Q 52 23.390625 50.796875 25.6875 
Q 49.609375 27.984375 47.359375 29.4375 
Q 45.125 30.90625 41.96875 31.59375 
Q 38.8125 32.28125 34.90625 32.28125 
L 17.53125 32.28125 
L 17.53125 7.46875 
L 35.640625 7.46875 
Q 39.203125 7.46875 42.203125 8.046875 
Q 45.21875 8.640625 47.390625 10.109375 
Q 49.5625 11.578125 50.78125 14.015625 
Q 52 16.453125 52 20.125 
z
" id="LiberationSans-66"/>
      <path d="M 2.390625 0 
L 2.390625 6.6875 
L 34.671875 46.046875 
L 4.34375 46.046875 
L 4.34375 52.828125 
L 44.578125 52.828125 
L 44.578125 46.140625 
L 12.25 6.78125 
L 46.390625 6.78125 
L 46.390625 0 
z
" id="LiberationSans-122"/>
     </defs>
     <g style="fill:#262626;" transform="translate(629.051563 41.36875)scale(0.1 -0.1)">
      <use xlink:href="#LiberationSans-66"/>
      <use x="66.699219" xlink:href="#LiberationSans-114"/>
      <use x="100" xlink:href="#LiberationSans-97"/>
      <use x="155.615234" xlink:href="#LiberationSans-122"/>
      <use x="205.615234" xlink:href="#LiberationSans-105"/>
      <use x="227.832031" xlink:href="#LiberationSans-108"/>
     </g>
    </g>
    <g id="line2d_34">
     <path d="M 601.051563 52.190625 
L 621.051563 52.190625 
" style="fill:none;stroke:#ae54a5;stroke-dasharray:6.475,2.8;stroke-dashoffset:0;stroke-width:1.75;"/>
    </g>
    <g id="line2d_35"/>
    <g id="text_21">
     <!-- China -->
     <defs>
      <path d="M 38.671875 62.203125 
Q 32.8125 62.203125 28.296875 60.25 
Q 23.78125 58.296875 20.71875 54.6875 
Q 17.671875 51.078125 16.109375 46 
Q 14.546875 40.921875 14.546875 34.71875 
Q 14.546875 28.515625 16.234375 23.359375 
Q 17.921875 18.21875 21.0625 14.5 
Q 24.21875 10.796875 28.78125 8.734375 
Q 33.34375 6.6875 39.0625 6.6875 
Q 43.0625 6.6875 46.359375 7.734375 
Q 49.65625 8.796875 52.3125 10.6875 
Q 54.984375 12.59375 57.078125 15.203125 
Q 59.1875 17.828125 60.796875 21 
L 68.40625 17.1875 
Q 66.546875 13.328125 63.8125 10 
Q 61.078125 6.6875 57.390625 4.25 
Q 53.71875 1.8125 49.046875 0.40625 
Q 44.390625 -0.984375 38.625 -0.984375 
Q 30.28125 -0.984375 24 1.671875 
Q 17.71875 4.34375 13.5 9.109375 
Q 9.28125 13.875 7.171875 20.40625 
Q 5.078125 26.953125 5.078125 34.71875 
Q 5.078125 42.78125 7.296875 49.265625 
Q 9.515625 55.765625 13.78125 60.328125 
Q 18.0625 64.890625 24.3125 67.359375 
Q 30.5625 69.828125 38.578125 69.828125 
Q 49.5625 69.828125 56.9375 65.53125 
Q 64.3125 61.234375 67.78125 52.78125 
L 58.9375 49.859375 
Q 57.953125 52.296875 56.296875 54.515625 
Q 54.640625 56.734375 52.140625 58.4375 
Q 49.65625 60.15625 46.3125 61.171875 
Q 42.96875 62.203125 38.671875 62.203125 
z
" id="LiberationSans-67"/>
     </defs>
     <g style="fill:#262626;" transform="translate(629.051563 55.690625)scale(0.1 -0.1)">
      <use xlink:href="#LiberationSans-67"/>
      <use x="72.216797" xlink:href="#LiberationSans-104"/>
      <use x="127.832031" xlink:href="#LiberationSans-105"/>
      <use x="150.048828" xlink:href="#LiberationSans-110"/>
      <use x="205.664062" xlink:href="#LiberationSans-97"/>
     </g>
    </g>
    <g id="line2d_36">
     <path d="M 601.051563 66.5125 
L 621.051563 66.5125 
" style="fill:none;stroke:#0309a6;stroke-linecap:round;stroke-width:1.75;"/>
    </g>
    <g id="line2d_37"/>
    <g id="text_22">
     <!-- France -->
     <defs>
      <path d="M 17.53125 61.1875 
L 17.53125 35.59375 
L 55.90625 35.59375 
L 55.90625 27.875 
L 17.53125 27.875 
L 17.53125 0 
L 8.203125 0 
L 8.203125 68.796875 
L 57.078125 68.796875 
L 57.078125 61.1875 
z
" id="LiberationSans-70"/>
     </defs>
     <g style="fill:#262626;" transform="translate(629.051563 70.0125)scale(0.1 -0.1)">
      <use xlink:href="#LiberationSans-70"/>
      <use x="61.083984" xlink:href="#LiberationSans-114"/>
      <use x="94.384766" xlink:href="#LiberationSans-97"/>
      <use x="150" xlink:href="#LiberationSans-110"/>
      <use x="205.615234" xlink:href="#LiberationSans-99"/>
      <use x="255.615234" xlink:href="#LiberationSans-101"/>
     </g>
    </g>
    <g id="line2d_38">
     <path d="M 601.051563 80.834375 
L 621.051563 80.834375 
" style="fill:none;stroke:#d8b009;stroke-linecap:round;stroke-width:1.75;"/>
    </g>
    <g id="line2d_39"/>
    <g id="text_23">
     <!-- Germany -->
     <defs>
      <path d="M 5.03125 34.71875 
Q 5.03125 42.78125 7.203125 49.265625 
Q 9.375 55.765625 13.6875 60.328125 
Q 18.015625 64.890625 24.40625 67.359375 
Q 30.8125 69.828125 39.265625 69.828125 
Q 45.609375 69.828125 50.390625 68.703125 
Q 55.171875 67.578125 58.6875 65.46875 
Q 62.203125 63.375 64.640625 60.375 
Q 67.09375 57.375 68.796875 53.609375 
L 59.90625 50.984375 
Q 58.640625 53.515625 56.859375 55.59375 
Q 55.078125 57.671875 52.53125 59.125 
Q 50 60.59375 46.65625 61.390625 
Q 43.3125 62.203125 39.015625 62.203125 
Q 32.765625 62.203125 28.140625 60.25 
Q 23.53125 58.296875 20.5 54.6875 
Q 17.484375 51.078125 15.984375 46 
Q 14.5 40.921875 14.5 34.71875 
Q 14.5 28.515625 16.109375 23.359375 
Q 17.71875 18.21875 20.890625 14.484375 
Q 24.078125 10.75 28.78125 8.671875 
Q 33.5 6.59375 39.703125 6.59375 
Q 43.75 6.59375 47.171875 7.265625 
Q 50.59375 7.953125 53.34375 9.046875 
Q 56.109375 10.15625 58.203125 11.5 
Q 60.296875 12.84375 61.71875 14.203125 
L 61.71875 26.609375 
L 41.15625 26.609375 
L 41.15625 34.421875 
L 70.3125 34.421875 
L 70.3125 10.6875 
Q 68.015625 8.34375 64.90625 6.21875 
Q 61.8125 4.109375 57.953125 2.484375 
Q 54.109375 0.875 49.515625 -0.046875 
Q 44.921875 -0.984375 39.703125 -0.984375 
Q 31 -0.984375 24.5 1.671875 
Q 18.015625 4.34375 13.6875 9.109375 
Q 9.375 13.875 7.203125 20.40625 
Q 5.03125 26.953125 5.03125 34.71875 
z
" id="LiberationSans-71"/>
      <path d="M 37.5 0 
L 37.5 33.5 
Q 37.5 37.359375 37.015625 39.9375 
Q 36.53125 42.53125 35.375 44.109375 
Q 34.234375 45.703125 32.375 46.359375 
Q 30.515625 47.015625 27.828125 47.015625 
Q 25.046875 47.015625 22.796875 45.921875 
Q 20.5625 44.828125 18.96875 42.75 
Q 17.390625 40.671875 16.53125 37.625 
Q 15.671875 34.578125 15.671875 30.609375 
L 15.671875 0 
L 6.9375 0 
L 6.9375 41.546875 
Q 6.9375 43.21875 6.90625 45.046875 
Q 6.890625 46.875 6.828125 48.5 
Q 6.78125 50.140625 6.734375 51.3125 
Q 6.6875 52.484375 6.640625 52.828125 
L 14.9375 52.828125 
Q 14.984375 52.59375 15.03125 51.515625 
Q 15.09375 50.4375 15.15625 49.046875 
Q 15.234375 47.65625 15.28125 46.21875 
Q 15.328125 44.78125 15.328125 43.796875 
L 15.484375 43.796875 
Q 16.65625 46.09375 18.015625 47.953125 
Q 19.390625 49.8125 21.21875 51.09375 
Q 23.046875 52.390625 25.40625 53.09375 
Q 27.78125 53.8125 30.90625 53.8125 
Q 36.921875 53.8125 40.40625 51.421875 
Q 43.890625 49.03125 45.265625 43.796875 
L 45.40625 43.796875 
Q 46.578125 46.09375 48.046875 47.953125 
Q 49.515625 49.8125 51.46875 51.09375 
Q 53.421875 52.390625 55.859375 53.09375 
Q 58.296875 53.8125 61.421875 53.8125 
Q 65.4375 53.8125 68.328125 52.734375 
Q 71.234375 51.65625 73.09375 49.40625 
Q 74.953125 47.171875 75.828125 43.625 
Q 76.703125 40.09375 76.703125 35.203125 
L 76.703125 0 
L 68.015625 0 
L 68.015625 33.5 
Q 68.015625 37.359375 67.53125 39.9375 
Q 67.046875 42.53125 65.890625 44.109375 
Q 64.75 45.703125 62.890625 46.359375 
Q 61.03125 47.015625 58.34375 47.015625 
Q 55.5625 47.015625 53.3125 45.96875 
Q 51.078125 44.921875 49.484375 42.875 
Q 47.90625 40.828125 47.046875 37.75 
Q 46.1875 34.671875 46.1875 30.609375 
L 46.1875 0 
z
" id="LiberationSans-109"/>
     </defs>
     <g style="fill:#262626;" transform="translate(629.051563 84.334375)scale(0.1 -0.1)">
      <use xlink:href="#LiberationSans-71"/>
      <use x="77.783203" xlink:href="#LiberationSans-101"/>
      <use x="133.398438" xlink:href="#LiberationSans-114"/>
      <use x="166.699219" xlink:href="#LiberationSans-109"/>
      <use x="250" xlink:href="#LiberationSans-97"/>
      <use x="305.615234" xlink:href="#LiberationSans-110"/>
      <use x="361.230469" xlink:href="#LiberationSans-121"/>
     </g>
    </g>
    <g id="line2d_40">
     <path d="M 601.051563 95.15625 
L 621.051563 95.15625 
" style="fill:none;stroke:#1007e1;stroke-linecap:round;stroke-width:1.75;"/>
    </g>
    <g id="line2d_41"/>
    <g id="text_24">
     <!-- Italy -->
     <defs>
      <path d="M 9.234375 0 
L 9.234375 68.796875 
L 18.5625 68.796875 
L 18.5625 0 
z
" id="LiberationSans-73"/>
     </defs>
     <g style="fill:#262626;" transform="translate(629.051563 98.65625)scale(0.1 -0.1)">
      <use xlink:href="#LiberationSans-73"/>
      <use x="27.783203" xlink:href="#LiberationSans-116"/>
      <use x="55.566406" xlink:href="#LiberationSans-97"/>
      <use x="111.181641" xlink:href="#LiberationSans-108"/>
      <use x="133.398438" xlink:href="#LiberationSans-121"/>
     </g>
    </g>
    <g id="line2d_42">
     <path d="M 601.051563 109.478125 
L 621.051563 109.478125 
" style="fill:none;stroke:#a67d4c;stroke-linecap:round;stroke-width:1.75;"/>
    </g>
    <g id="line2d_43"/>
    <g id="text_25">
     <!-- Netherlands -->
     <g style="fill:#262626;" transform="translate(629.051563 112.978125)scale(0.1 -0.1)">
      <use xlink:href="#LiberationSans-78"/>
      <use x="72.216797" xlink:href="#LiberationSans-101"/>
      <use x="127.832031" xlink:href="#LiberationSans-116"/>
      <use x="155.615234" xlink:href="#LiberationSans-104"/>
      <use x="211.230469" xlink:href="#LiberationSans-101"/>
      <use x="266.845703" xlink:href="#LiberationSans-114"/>
      <use x="300.146484" xlink:href="#LiberationSans-108"/>
      <use x="322.363281" xlink:href="#LiberationSans-97"/>
      <use x="377.978516" xlink:href="#LiberationSans-110"/>
      <use x="433.59375" xlink:href="#LiberationSans-100"/>
      <use x="489.208984" xlink:href="#LiberationSans-115"/>
     </g>
    </g>
    <g id="line2d_44">
     <path d="M 601.051563 123.8 
L 621.051563 123.8 
" style="fill:none;stroke:#ea71b3;stroke-linecap:round;stroke-width:1.75;"/>
    </g>
    <g id="line2d_45"/>
    <g id="text_26">
     <!-- Portugal -->
     <defs>
      <path d="M 61.421875 48.09375 
Q 61.421875 43.609375 59.9375 39.71875 
Q 58.453125 35.84375 55.5 32.984375 
Q 52.546875 30.125 48.09375 28.46875 
Q 43.65625 26.8125 37.75 26.8125 
L 17.53125 26.8125 
L 17.53125 0 
L 8.203125 0 
L 8.203125 68.796875 
L 37.15625 68.796875 
Q 43.265625 68.796875 47.796875 67.3125 
Q 52.34375 65.828125 55.375 63.109375 
Q 58.40625 60.40625 59.90625 56.5625 
Q 61.421875 52.734375 61.421875 48.09375 
z
M 52.046875 48 
Q 52.046875 54.546875 48.046875 57.9375 
Q 44.046875 61.328125 36.03125 61.328125 
L 17.53125 61.328125 
L 17.53125 34.1875 
L 36.421875 34.1875 
Q 44.484375 34.1875 48.265625 37.75 
Q 52.046875 41.3125 52.046875 48 
z
" id="LiberationSans-80"/>
      <path d="M 26.765625 -20.75 
Q 22.21875 -20.75 18.703125 -19.8125 
Q 15.1875 -18.890625 12.6875 -17.15625 
Q 10.203125 -15.4375 8.640625 -13.03125 
Q 7.078125 -10.640625 6.390625 -7.71875 
L 15.234375 -6.453125 
Q 16.109375 -10.109375 19.109375 -12.078125 
Q 22.125 -14.0625 27 -14.0625 
Q 29.984375 -14.0625 32.421875 -13.234375 
Q 34.859375 -12.40625 36.5625 -10.5625 
Q 38.28125 -8.734375 39.203125 -5.796875 
Q 40.140625 -2.875 40.140625 1.3125 
L 40.140625 9.8125 
L 40.046875 9.8125 
Q 39.0625 7.8125 37.625 5.984375 
Q 36.1875 4.15625 34.109375 2.734375 
Q 32.03125 1.3125 29.296875 0.453125 
Q 26.5625 -0.390625 23.046875 -0.390625 
Q 18.015625 -0.390625 14.421875 1.296875 
Q 10.84375 2.984375 8.5625 6.34375 
Q 6.296875 9.71875 5.25 14.71875 
Q 4.203125 19.734375 4.203125 26.3125 
Q 4.203125 32.671875 5.25 37.75 
Q 6.296875 42.828125 8.65625 46.359375 
Q 11.03125 49.90625 14.8125 51.78125 
Q 18.609375 53.65625 24.03125 53.65625 
Q 29.640625 53.65625 33.765625 51.09375 
Q 37.890625 48.53125 40.140625 43.796875 
L 40.234375 43.796875 
Q 40.234375 45.015625 40.296875 46.53125 
Q 40.375 48.046875 40.453125 49.390625 
Q 40.53125 50.734375 40.625 51.703125 
Q 40.71875 52.6875 40.828125 52.828125 
L 49.171875 52.828125 
Q 49.125 52.390625 49.078125 51.34375 
Q 49.03125 50.296875 48.96875 48.828125 
Q 48.921875 47.359375 48.890625 45.578125 
Q 48.875 43.796875 48.875 41.890625 
L 48.875 1.515625 
Q 48.875 -9.578125 43.421875 -15.15625 
Q 37.984375 -20.75 26.765625 -20.75 
z
M 40.140625 26.421875 
Q 40.140625 31.9375 38.9375 35.859375 
Q 37.75 39.796875 35.796875 42.28125 
Q 33.84375 44.78125 31.328125 45.953125 
Q 28.8125 47.125 26.171875 47.125 
Q 22.796875 47.125 20.375 45.953125 
Q 17.96875 44.78125 16.375 42.265625 
Q 14.796875 39.75 14.03125 35.8125 
Q 13.28125 31.890625 13.28125 26.421875 
Q 13.28125 20.703125 14.03125 16.8125 
Q 14.796875 12.9375 16.359375 10.546875 
Q 17.921875 8.15625 20.3125 7.125 
Q 22.703125 6.109375 26.03125 6.109375 
Q 28.65625 6.109375 31.171875 7.21875 
Q 33.6875 8.34375 35.6875 10.78125 
Q 37.703125 13.234375 38.921875 17.09375 
Q 40.140625 20.953125 40.140625 26.421875 
z
" id="LiberationSans-103"/>
     </defs>
     <g style="fill:#262626;" transform="translate(629.051563 127.3)scale(0.1 -0.1)">
      <use xlink:href="#LiberationSans-80"/>
      <use x="66.699219" xlink:href="#LiberationSans-111"/>
      <use x="122.314453" xlink:href="#LiberationSans-114"/>
      <use x="155.615234" xlink:href="#LiberationSans-116"/>
      <use x="183.398438" xlink:href="#LiberationSans-117"/>
      <use x="239.013672" xlink:href="#LiberationSans-103"/>
      <use x="294.628906" xlink:href="#LiberationSans-97"/>
      <use x="350.244141" xlink:href="#LiberationSans-108"/>
     </g>
    </g>
    <g id="line2d_46">
     <path d="M 601.051563 138.121875 
L 621.051563 138.121875 
" style="fill:none;stroke:#5feb16;stroke-linecap:round;stroke-width:1.75;"/>
    </g>
    <g id="line2d_47"/>
    <g id="text_27">
     <!-- Russia -->
     <defs>
      <path d="M 56.84375 0 
L 38.96875 28.5625 
L 17.53125 28.5625 
L 17.53125 0 
L 8.203125 0 
L 8.203125 68.796875 
L 40.578125 68.796875 
Q 46.4375 68.796875 50.953125 67.453125 
Q 55.46875 66.109375 58.546875 63.5625 
Q 61.625 61.03125 63.234375 57.375 
Q 64.84375 53.71875 64.84375 49.125 
Q 64.84375 45.84375 63.890625 42.671875 
Q 62.9375 39.5 60.890625 36.859375 
Q 58.84375 34.234375 55.65625 32.328125 
Q 52.484375 30.421875 48.046875 29.640625 
L 67.578125 0 
z
M 55.46875 49.03125 
Q 55.46875 52.15625 54.390625 54.4375 
Q 53.328125 56.734375 51.265625 58.265625 
Q 49.21875 59.8125 46.28125 60.5625 
Q 43.359375 61.328125 39.65625 61.328125 
L 17.53125 61.328125 
L 17.53125 35.9375 
L 40.046875 35.9375 
Q 44.046875 35.9375 46.96875 36.9375 
Q 49.90625 37.9375 51.78125 39.6875 
Q 53.65625 41.453125 54.5625 43.84375 
Q 55.46875 46.234375 55.46875 49.03125 
z
" id="LiberationSans-82"/>
     </defs>
     <g style="fill:#262626;" transform="translate(629.051563 141.621875)scale(0.1 -0.1)">
      <use xlink:href="#LiberationSans-82"/>
      <use x="72.216797" xlink:href="#LiberationSans-117"/>
      <use x="127.832031" xlink:href="#LiberationSans-115"/>
      <use x="177.832031" xlink:href="#LiberationSans-115"/>
      <use x="227.832031" xlink:href="#LiberationSans-105"/>
      <use x="250.048828" xlink:href="#LiberationSans-97"/>
     </g>
    </g>
    <g id="line2d_48">
     <path d="M 601.051563 152.44375 
L 621.051563 152.44375 
" style="fill:none;stroke:#907eba;stroke-linecap:round;stroke-width:1.75;"/>
    </g>
    <g id="line2d_49"/>
    <g id="text_28">
     <!-- Spain -->
     <defs>
      <path d="M 62.109375 19 
Q 62.109375 14.65625 60.421875 10.984375 
Q 58.734375 7.328125 55.21875 4.65625 
Q 51.703125 2 46.359375 0.5 
Q 41.015625 -0.984375 33.6875 -0.984375 
Q 20.84375 -0.984375 13.671875 3.515625 
Q 6.5 8.015625 4.546875 16.5 
L 13.578125 18.3125 
Q 14.265625 15.625 15.671875 13.421875 
Q 17.09375 11.234375 19.5 9.640625 
Q 21.921875 8.0625 25.484375 7.171875 
Q 29.046875 6.296875 34.03125 6.296875 
Q 38.1875 6.296875 41.65625 7 
Q 45.125 7.71875 47.609375 9.171875 
Q 50.09375 10.640625 51.484375 12.953125 
Q 52.875 15.28125 52.875 18.5 
Q 52.875 21.875 51.34375 23.96875 
Q 49.8125 26.078125 47.015625 27.4375 
Q 44.234375 28.8125 40.375 29.734375 
Q 36.53125 30.671875 31.84375 31.734375 
Q 28.953125 32.375 26.046875 33.125 
Q 23.140625 33.890625 20.484375 34.9375 
Q 17.828125 35.984375 15.484375 37.390625 
Q 13.140625 38.8125 11.421875 40.796875 
Q 9.71875 42.78125 8.734375 45.390625 
Q 7.765625 48 7.765625 51.421875 
Q 7.765625 56.296875 9.734375 59.78125 
Q 11.71875 63.28125 15.234375 65.53125 
Q 18.75 67.78125 23.53125 68.796875 
Q 28.328125 69.828125 33.890625 69.828125 
Q 40.28125 69.828125 44.8125 68.828125 
Q 49.359375 67.828125 52.484375 65.8125 
Q 55.609375 63.8125 57.484375 60.859375 
Q 59.375 57.90625 60.5 54 
L 51.3125 52.390625 
Q 50.640625 54.890625 49.34375 56.84375 
Q 48.046875 58.796875 45.9375 60.109375 
Q 43.84375 61.421875 40.84375 62.109375 
Q 37.84375 62.796875 33.796875 62.796875 
Q 29 62.796875 25.75 61.9375 
Q 22.515625 61.078125 20.53125 59.609375 
Q 18.5625 58.15625 17.703125 56.171875 
Q 16.84375 54.203125 16.84375 51.90625 
Q 16.84375 48.828125 18.375 46.84375 
Q 19.921875 44.875 22.5625 43.546875 
Q 25.203125 42.234375 28.65625 41.359375 
Q 32.125 40.484375 36.03125 39.59375 
Q 39.203125 38.875 42.359375 38.109375 
Q 45.515625 37.359375 48.390625 36.296875 
Q 51.265625 35.25 53.78125 33.828125 
Q 56.296875 32.421875 58.15625 30.375 
Q 60.015625 28.328125 61.0625 25.53125 
Q 62.109375 22.75 62.109375 19 
z
" id="LiberationSans-83"/>
     </defs>
     <g style="fill:#262626;" transform="translate(629.051563 155.94375)scale(0.1 -0.1)">
      <use xlink:href="#LiberationSans-83"/>
      <use x="66.699219" xlink:href="#LiberationSans-112"/>
      <use x="122.314453" xlink:href="#LiberationSans-97"/>
      <use x="177.929688" xlink:href="#LiberationSans-105"/>
      <use x="200.146484" xlink:href="#LiberationSans-110"/>
     </g>
    </g>
    <g id="line2d_50">
     <path d="M 601.051563 166.765625 
L 621.051563 166.765625 
" style="fill:none;stroke:#221cdf;stroke-linecap:round;stroke-width:1.75;"/>
    </g>
    <g id="line2d_51"/>
    <g id="text_29">
     <!-- Turkey -->
     <defs>
      <path d="M 35.15625 61.1875 
L 35.15625 0 
L 25.875 0 
L 25.875 61.1875 
L 2.25 61.1875 
L 2.25 68.796875 
L 58.796875 68.796875 
L 58.796875 61.1875 
z
" id="LiberationSans-84"/>
      <path d="M 39.84375 0 
L 21.96875 24.125 
L 15.53125 18.796875 
L 15.53125 0 
L 6.734375 0 
L 6.734375 72.46875 
L 15.53125 72.46875 
L 15.53125 27.203125 
L 38.71875 52.828125 
L 49.03125 52.828125 
L 27.59375 30.125 
L 50.140625 0 
z
" id="LiberationSans-107"/>
     </defs>
     <g style="fill:#262626;" transform="translate(629.051563 170.265625)scale(0.1 -0.1)">
      <use xlink:href="#LiberationSans-84"/>
      <use x="57.333984" xlink:href="#LiberationSans-117"/>
      <use x="112.949219" xlink:href="#LiberationSans-114"/>
      <use x="146.25" xlink:href="#LiberationSans-107"/>
      <use x="196.25" xlink:href="#LiberationSans-101"/>
      <use x="251.865234" xlink:href="#LiberationSans-121"/>
     </g>
    </g>
    <g id="line2d_52">
     <path d="M 601.051563 181.0875 
L 621.051563 181.0875 
" style="fill:none;stroke:#7516fd;stroke-dasharray:6.475,2.8;stroke-dashoffset:0;stroke-width:1.75;"/>
    </g>
    <g id="line2d_53"/>
    <g id="text_30">
     <!-- US -->
     <defs>
      <path d="M 35.6875 -0.984375 
Q 30.03125 -0.984375 24.953125 0.53125 
Q 19.875 2.046875 16.03125 5.25 
Q 12.203125 8.453125 9.953125 13.359375 
Q 7.71875 18.265625 7.71875 25 
L 7.71875 68.796875 
L 17.046875 68.796875 
L 17.046875 25.78125 
Q 17.046875 20.5625 18.4375 16.921875 
Q 19.828125 13.28125 22.3125 10.984375 
Q 24.8125 8.6875 28.203125 7.640625 
Q 31.59375 6.59375 35.640625 6.59375 
Q 39.65625 6.59375 43.21875 7.65625 
Q 46.78125 8.734375 49.46875 11.078125 
Q 52.15625 13.421875 53.6875 17.203125 
Q 55.21875 21 55.21875 26.421875 
L 55.21875 68.796875 
L 64.5 68.796875 
L 64.5 25.875 
Q 64.5 19 62.234375 13.9375 
Q 59.96875 8.890625 56.0625 5.5625 
Q 52.15625 2.25 46.90625 0.625 
Q 41.65625 -0.984375 35.6875 -0.984375 
z
" id="LiberationSans-85"/>
     </defs>
     <g style="fill:#262626;" transform="translate(629.051563 184.5875)scale(0.1 -0.1)">
      <use xlink:href="#LiberationSans-85"/>
      <use x="72.216797" xlink:href="#LiberationSans-83"/>
     </g>
    </g>
    <g id="line2d_54">
     <path d="M 601.051563 195.409375 
L 621.051563 195.409375 
" style="fill:none;stroke:#89f9c9;stroke-linecap:round;stroke-width:1.75;"/>
    </g>
    <g id="line2d_55"/>
    <g id="text_31">
     <!-- United Kingdom -->
     <defs>
      <path d="M 54 0 
L 26.515625 33.203125 
L 17.53125 26.375 
L 17.53125 0 
L 8.203125 0 
L 8.203125 68.796875 
L 17.53125 68.796875 
L 17.53125 34.328125 
L 50.6875 68.796875 
L 61.671875 68.796875 
L 32.375 38.921875 
L 65.578125 0 
z
" id="LiberationSans-75"/>
     </defs>
     <g style="fill:#262626;" transform="translate(629.051563 198.909375)scale(0.1 -0.1)">
      <use xlink:href="#LiberationSans-85"/>
      <use x="72.216797" xlink:href="#LiberationSans-110"/>
      <use x="127.832031" xlink:href="#LiberationSans-105"/>
      <use x="150.048828" xlink:href="#LiberationSans-116"/>
      <use x="177.832031" xlink:href="#LiberationSans-101"/>
      <use x="233.447266" xlink:href="#LiberationSans-100"/>
      <use x="289.0625" xlink:href="#LiberationSans-32"/>
      <use x="316.845703" xlink:href="#LiberationSans-75"/>
      <use x="383.544922" xlink:href="#LiberationSans-105"/>
      <use x="405.761719" xlink:href="#LiberationSans-110"/>
      <use x="461.376953" xlink:href="#LiberationSans-103"/>
      <use x="516.992188" xlink:href="#LiberationSans-100"/>
      <use x="572.607422" xlink:href="#LiberationSans-111"/>
      <use x="628.222656" xlink:href="#LiberationSans-109"/>
     </g>
    </g>
   </g>
  </g>
 </g>
 <defs>
  <clipPath id="p642802dbff">
   <rect height="298.355396" width="660.4" x="48.8" y="10.8"/>
  </clipPath>
 </defs>
</svg>
