<?xml version="1.0" encoding="utf-8" standalone="no"?>
<!DOCTYPE svg PUBLIC "-//W3C//DTD SVG 1.1//EN"
  "http://www.w3.org/Graphics/SVG/1.1/DTD/svg11.dtd">
<!-- Created with matplotlib (https://matplotlib.org/) -->
<svg height="360pt" version="1.1" viewBox="0 0 720 360" width="720pt" xmlns="http://www.w3.org/2000/svg" xmlns:xlink="http://www.w3.org/1999/xlink">
 <defs>
  <style type="text/css">
*{stroke-linecap:butt;stroke-linejoin:round;}
  </style>
 </defs>
 <g id="figure_1">
  <g id="patch_1">
   <path d="M 0 360 
L 720 360 
L 720 0 
L 0 0 
z
" style="fill:#ffffff;"/>
  </g>
  <g id="axes_1">
   <g id="patch_2">
    <path d="M 51.41 313.037412 
L 709.2 313.037412 
L 709.2 14.291603 
L 51.41 14.291603 
z
" style="fill:#eaeaf2;"/>
   </g>
   <g id="matplotlib.axis_1">
    <g id="xtick_1">
     <g id="line2d_1"/>
     <g id="text_1">
      <!-- 0 -->
      <defs>
       <path d="M 51.703125 34.421875 
Q 51.703125 24.515625 49.828125 17.75 
Q 47.953125 10.984375 44.703125 6.8125 
Q 41.453125 2.640625 37.0625 0.828125 
Q 32.671875 -0.984375 27.6875 -0.984375 
Q 22.65625 -0.984375 18.3125 0.828125 
Q 13.96875 2.640625 10.765625 6.78125 
Q 7.5625 10.9375 5.734375 17.703125 
Q 3.90625 24.46875 3.90625 34.421875 
Q 3.90625 44.828125 5.734375 51.640625 
Q 7.5625 58.453125 10.78125 62.5 
Q 14.015625 66.546875 18.40625 68.1875 
Q 22.796875 69.828125 27.984375 69.828125 
Q 32.90625 69.828125 37.21875 68.1875 
Q 41.546875 66.546875 44.765625 62.5 
Q 48 58.453125 49.84375 51.640625 
Q 51.703125 44.828125 51.703125 34.421875 
z
M 42.78125 34.421875 
Q 42.78125 42.625 41.796875 48.0625 
Q 40.828125 53.515625 38.921875 56.765625 
Q 37.015625 60.015625 34.25 61.359375 
Q 31.5 62.703125 27.984375 62.703125 
Q 24.265625 62.703125 21.4375 61.328125 
Q 18.609375 59.96875 16.671875 56.71875 
Q 14.75 53.46875 13.765625 48.015625 
Q 12.796875 42.578125 12.796875 34.421875 
Q 12.796875 26.515625 13.796875 21.09375 
Q 14.796875 15.671875 16.71875 12.375 
Q 18.65625 9.078125 21.4375 7.640625 
Q 24.21875 6.203125 27.78125 6.203125 
Q 31.25 6.203125 34.03125 7.640625 
Q 36.8125 9.078125 38.734375 12.375 
Q 40.671875 15.671875 41.71875 21.09375 
Q 42.78125 26.515625 42.78125 34.421875 
z
" id="LiberationSans-48"/>
      </defs>
      <g style="fill:#262626;" transform="translate(81.171991 329.093903)rotate(-45)scale(0.1 -0.1)">
       <use xlink:href="#LiberationSans-48"/>
      </g>
     </g>
    </g>
    <g id="xtick_2">
     <g id="line2d_2"/>
     <g id="text_2">
      <!-- 10 -->
      <defs>
       <path d="M 7.625 0 
L 7.625 7.46875 
L 25.140625 7.46875 
L 25.140625 60.40625 
L 9.625 49.3125 
L 9.625 57.625 
L 25.875 68.796875 
L 33.984375 68.796875 
L 33.984375 7.46875 
L 50.734375 7.46875 
L 50.734375 0 
z
" id="LiberationSans-49"/>
      </defs>
      <g style="fill:#262626;" transform="translate(161.122466 333.02608)rotate(-45)scale(0.1 -0.1)">
       <use xlink:href="#LiberationSans-49"/>
       <use x="55.615234" xlink:href="#LiberationSans-48"/>
      </g>
     </g>
    </g>
    <g id="xtick_3">
     <g id="line2d_3"/>
     <g id="text_3">
      <!-- 20 -->
      <defs>
       <path d="M 5.03125 0 
L 5.03125 6.203125 
Q 7.515625 11.921875 11.109375 16.28125 
Q 14.703125 20.65625 18.65625 24.1875 
Q 22.609375 27.734375 26.484375 30.765625 
Q 30.375 33.796875 33.5 36.8125 
Q 36.625 39.84375 38.546875 43.15625 
Q 40.484375 46.484375 40.484375 50.6875 
Q 40.484375 53.609375 39.59375 55.828125 
Q 38.71875 58.0625 37.0625 59.5625 
Q 35.40625 61.078125 33.078125 61.828125 
Q 30.765625 62.59375 27.9375 62.59375 
Q 25.296875 62.59375 22.96875 61.859375 
Q 20.65625 61.140625 18.84375 59.671875 
Q 17.046875 58.203125 15.890625 56.03125 
Q 14.75 53.859375 14.40625 50.984375 
L 5.421875 51.8125 
Q 5.859375 55.515625 7.46875 58.78125 
Q 9.078125 62.0625 11.90625 64.53125 
Q 14.75 67 18.71875 68.40625 
Q 22.703125 69.828125 27.9375 69.828125 
Q 33.0625 69.828125 37.0625 68.609375 
Q 41.0625 67.390625 43.8125 64.984375 
Q 46.578125 62.59375 48.046875 59.078125 
Q 49.515625 55.5625 49.515625 50.984375 
Q 49.515625 47.515625 48.265625 44.390625 
Q 47.015625 41.265625 44.9375 38.421875 
Q 42.875 35.59375 40.140625 32.953125 
Q 37.40625 30.328125 34.421875 27.8125 
Q 31.453125 25.296875 28.421875 22.828125 
Q 25.390625 20.359375 22.71875 17.859375 
Q 20.0625 15.375 17.96875 12.8125 
Q 15.875 10.25 14.703125 7.46875 
L 50.59375 7.46875 
L 50.59375 0 
z
" id="LiberationSans-50"/>
      </defs>
      <g style="fill:#262626;" transform="translate(243.039029 333.02608)rotate(-45)scale(0.1 -0.1)">
       <use xlink:href="#LiberationSans-50"/>
       <use x="55.615234" xlink:href="#LiberationSans-48"/>
      </g>
     </g>
    </g>
    <g id="xtick_4">
     <g id="line2d_4"/>
     <g id="text_4">
      <!-- 30 -->
      <defs>
       <path d="M 51.21875 19 
Q 51.21875 14.265625 49.671875 10.546875 
Q 48.140625 6.84375 45.1875 4.265625 
Q 42.234375 1.703125 37.859375 0.359375 
Q 33.5 -0.984375 27.875 -0.984375 
Q 21.484375 -0.984375 17.109375 0.609375 
Q 12.75 2.203125 9.90625 4.8125 
Q 7.078125 7.421875 5.65625 10.765625 
Q 4.25 14.109375 3.8125 17.671875 
L 12.890625 18.5 
Q 13.28125 15.765625 14.328125 13.515625 
Q 15.375 11.28125 17.1875 9.671875 
Q 19 8.0625 21.625 7.171875 
Q 24.265625 6.296875 27.875 6.296875 
Q 34.515625 6.296875 38.296875 9.5625 
Q 42.09375 12.84375 42.09375 19.28125 
Q 42.09375 23.09375 40.40625 25.40625 
Q 38.71875 27.734375 36.203125 29.03125 
Q 33.6875 30.328125 30.734375 30.765625 
Q 27.78125 31.203125 25.296875 31.203125 
L 20.3125 31.203125 
L 20.3125 38.8125 
L 25.09375 38.8125 
Q 27.59375 38.8125 30.265625 39.328125 
Q 32.953125 39.84375 35.171875 41.1875 
Q 37.40625 42.53125 38.84375 44.828125 
Q 40.28125 47.125 40.28125 50.6875 
Q 40.28125 56.203125 37.03125 59.390625 
Q 33.796875 62.59375 27.390625 62.59375 
Q 21.578125 62.59375 17.984375 59.609375 
Q 14.40625 56.640625 13.8125 51.21875 
L 4.984375 51.90625 
Q 5.515625 56.453125 7.46875 59.8125 
Q 9.421875 63.1875 12.421875 65.40625 
Q 15.4375 67.625 19.28125 68.71875 
Q 23.140625 69.828125 27.484375 69.828125 
Q 33.25 69.828125 37.390625 68.375 
Q 41.546875 66.9375 44.1875 64.46875 
Q 46.828125 62.015625 48.0625 58.6875 
Q 49.3125 55.375 49.3125 51.609375 
Q 49.3125 48.578125 48.484375 45.9375 
Q 47.65625 43.3125 45.890625 41.203125 
Q 44.140625 39.109375 41.421875 37.59375 
Q 38.71875 36.078125 34.90625 35.296875 
L 34.90625 35.109375 
Q 39.0625 34.671875 42.140625 33.21875 
Q 45.21875 31.78125 47.21875 29.625 
Q 49.21875 27.484375 50.21875 24.75 
Q 51.21875 22.015625 51.21875 19 
z
" id="LiberationSans-51"/>
      </defs>
      <g style="fill:#262626;" transform="translate(324.955591 333.02608)rotate(-45)scale(0.1 -0.1)">
       <use xlink:href="#LiberationSans-51"/>
       <use x="55.615234" xlink:href="#LiberationSans-48"/>
      </g>
     </g>
    </g>
    <g id="xtick_5">
     <g id="line2d_5"/>
     <g id="text_5">
      <!-- 40 -->
      <defs>
       <path d="M 43.015625 15.578125 
L 43.015625 0 
L 34.71875 0 
L 34.71875 15.578125 
L 2.296875 15.578125 
L 2.296875 22.40625 
L 33.796875 68.796875 
L 43.015625 68.796875 
L 43.015625 22.515625 
L 52.6875 22.515625 
L 52.6875 15.578125 
z
M 34.71875 58.890625 
Q 34.625 58.640625 34.234375 57.9375 
Q 33.84375 57.234375 33.34375 56.34375 
Q 32.859375 55.46875 32.34375 54.5625 
Q 31.84375 53.65625 31.453125 53.078125 
L 13.8125 27.09375 
Q 13.578125 26.703125 13.109375 26.0625 
Q 12.640625 25.4375 12.15625 24.78125 
Q 11.671875 24.125 11.171875 23.484375 
Q 10.6875 22.859375 10.40625 22.515625 
L 34.71875 22.515625 
z
" id="LiberationSans-52"/>
      </defs>
      <g style="fill:#262626;" transform="translate(406.872154 333.02608)rotate(-45)scale(0.1 -0.1)">
       <use xlink:href="#LiberationSans-52"/>
       <use x="55.615234" xlink:href="#LiberationSans-48"/>
      </g>
     </g>
    </g>
    <g id="xtick_6">
     <g id="line2d_6"/>
     <g id="text_6">
      <!-- 50 -->
      <defs>
       <path d="M 51.421875 22.40625 
Q 51.421875 17.234375 49.859375 12.9375 
Q 48.296875 8.640625 45.21875 5.53125 
Q 42.140625 2.4375 37.578125 0.71875 
Q 33.015625 -0.984375 27 -0.984375 
Q 21.578125 -0.984375 17.546875 0.28125 
Q 13.53125 1.5625 10.734375 3.78125 
Q 7.953125 6 6.3125 8.984375 
Q 4.6875 11.96875 4 15.375 
L 12.890625 16.40625 
Q 13.421875 14.453125 14.390625 12.625 
Q 15.375 10.796875 17.0625 9.34375 
Q 18.75 7.90625 21.21875 7.046875 
Q 23.6875 6.203125 27.203125 6.203125 
Q 30.609375 6.203125 33.390625 7.25 
Q 36.1875 8.296875 38.15625 10.34375 
Q 40.140625 12.40625 41.203125 15.375 
Q 42.28125 18.359375 42.28125 22.21875 
Q 42.28125 25.390625 41.25 28.046875 
Q 40.234375 30.71875 38.328125 32.640625 
Q 36.421875 34.578125 33.65625 35.640625 
Q 30.90625 36.71875 27.390625 36.71875 
Q 25.203125 36.71875 23.34375 36.328125 
Q 21.484375 35.9375 19.890625 35.25 
Q 18.3125 34.578125 17.015625 33.671875 
Q 15.71875 32.765625 14.59375 31.78125 
L 6 31.78125 
L 8.296875 68.796875 
L 47.40625 68.796875 
L 47.40625 61.328125 
L 16.3125 61.328125 
L 14.984375 39.5 
Q 17.328125 41.3125 20.84375 42.59375 
Q 24.359375 43.890625 29.203125 43.890625 
Q 34.328125 43.890625 38.421875 42.328125 
Q 42.53125 40.765625 45.40625 37.90625 
Q 48.296875 35.0625 49.859375 31.109375 
Q 51.421875 27.15625 51.421875 22.40625 
z
" id="LiberationSans-53"/>
      </defs>
      <g style="fill:#262626;" transform="translate(488.788717 333.02608)rotate(-45)scale(0.1 -0.1)">
       <use xlink:href="#LiberationSans-53"/>
       <use x="55.615234" xlink:href="#LiberationSans-48"/>
      </g>
     </g>
    </g>
    <g id="xtick_7">
     <g id="line2d_7"/>
     <g id="text_7">
      <!-- 60 -->
      <defs>
       <path d="M 51.21875 22.515625 
Q 51.21875 17.328125 49.78125 13 
Q 48.34375 8.6875 45.53125 5.578125 
Q 42.71875 2.484375 38.5625 0.75 
Q 34.421875 -0.984375 29 -0.984375 
Q 23 -0.984375 18.5 1.3125 
Q 14.015625 3.609375 11.03125 7.921875 
Q 8.0625 12.25 6.5625 18.53125 
Q 5.078125 24.8125 5.078125 32.8125 
Q 5.078125 42 6.765625 48.921875 
Q 8.453125 55.859375 11.625 60.5 
Q 14.796875 65.140625 19.359375 67.484375 
Q 23.921875 69.828125 29.6875 69.828125 
Q 33.203125 69.828125 36.28125 69.09375 
Q 39.359375 68.359375 41.875 66.71875 
Q 44.390625 65.09375 46.28125 62.40625 
Q 48.1875 59.71875 49.3125 55.8125 
L 40.921875 54.296875 
Q 39.546875 58.734375 36.546875 60.71875 
Q 33.546875 62.703125 29.59375 62.703125 
Q 25.984375 62.703125 23.046875 60.984375 
Q 20.125 59.28125 18.0625 55.875 
Q 16.015625 52.484375 14.90625 47.359375 
Q 13.8125 42.234375 13.8125 35.40625 
Q 16.21875 39.84375 20.5625 42.15625 
Q 24.90625 44.484375 30.515625 44.484375 
Q 35.203125 44.484375 39.015625 42.96875 
Q 42.828125 41.453125 45.53125 38.59375 
Q 48.25 35.75 49.734375 31.671875 
Q 51.21875 27.59375 51.21875 22.515625 
z
M 42.28125 22.125 
Q 42.28125 25.6875 41.40625 28.5625 
Q 40.53125 31.453125 38.765625 33.46875 
Q 37.015625 35.5 34.421875 36.59375 
Q 31.84375 37.703125 28.421875 37.703125 
Q 26.03125 37.703125 23.578125 36.984375 
Q 21.140625 36.28125 19.15625 34.6875 
Q 17.1875 33.109375 15.9375 30.515625 
Q 14.703125 27.9375 14.703125 24.21875 
Q 14.703125 20.40625 15.671875 17.109375 
Q 16.65625 13.8125 18.484375 11.375 
Q 20.3125 8.9375 22.890625 7.515625 
Q 25.484375 6.109375 28.71875 6.109375 
Q 31.890625 6.109375 34.40625 7.203125 
Q 36.921875 8.296875 38.671875 10.375 
Q 40.4375 12.453125 41.359375 15.421875 
Q 42.28125 18.40625 42.28125 22.125 
z
" id="LiberationSans-54"/>
      </defs>
      <g style="fill:#262626;" transform="translate(570.70528 333.02608)rotate(-45)scale(0.1 -0.1)">
       <use xlink:href="#LiberationSans-54"/>
       <use x="55.615234" xlink:href="#LiberationSans-48"/>
      </g>
     </g>
    </g>
    <g id="xtick_8">
     <g id="line2d_8"/>
     <g id="text_8">
      <!-- 70 -->
      <defs>
       <path d="M 50.59375 61.671875 
Q 45.40625 53.765625 41.0625 46.453125 
Q 36.71875 39.15625 33.59375 31.75 
Q 30.46875 24.359375 28.734375 16.578125 
Q 27 8.796875 27 0 
L 17.828125 0 
Q 17.828125 8.25 19.78125 16.1875 
Q 21.734375 24.125 25.046875 31.765625 
Q 28.375 39.40625 32.765625 46.78125 
Q 37.15625 54.15625 42.09375 61.328125 
L 5.125 61.328125 
L 5.125 68.796875 
L 50.59375 68.796875 
z
" id="LiberationSans-55"/>
      </defs>
      <g style="fill:#262626;" transform="translate(652.621843 333.02608)rotate(-45)scale(0.1 -0.1)">
       <use xlink:href="#LiberationSans-55"/>
       <use x="55.615234" xlink:href="#LiberationSans-48"/>
      </g>
     </g>
    </g>
    <g id="text_9">
     <!-- Days since case nº20 -->
     <defs>
      <path d="M 67.4375 35.109375 
Q 67.4375 26.515625 64.84375 19.9375 
Q 62.25 13.375 57.75 8.953125 
Q 53.265625 4.546875 47.140625 2.265625 
Q 41.015625 0 33.9375 0 
L 8.203125 0 
L 8.203125 68.796875 
L 30.953125 68.796875 
Q 38.921875 68.796875 45.625 66.8125 
Q 52.34375 64.84375 57.171875 60.71875 
Q 62.015625 56.59375 64.71875 50.234375 
Q 67.4375 43.890625 67.4375 35.109375 
z
M 58.0625 35.109375 
Q 58.0625 42.09375 56.046875 47.046875 
Q 54.046875 52 50.4375 55.171875 
Q 46.828125 58.34375 41.796875 59.828125 
Q 36.765625 61.328125 30.765625 61.328125 
L 17.53125 61.328125 
L 17.53125 7.46875 
L 32.859375 7.46875 
Q 38.28125 7.46875 42.890625 9.21875 
Q 47.515625 10.984375 50.875 14.453125 
Q 54.25 17.921875 56.15625 23.09375 
Q 58.0625 28.265625 58.0625 35.109375 
z
" id="LiberationSans-68"/>
      <path d="M 20.21875 -0.984375 
Q 12.25 -0.984375 8.25 3.21875 
Q 4.25 7.421875 4.25 14.75 
Q 4.25 19.96875 6.21875 23.3125 
Q 8.203125 26.65625 11.390625 28.5625 
Q 14.59375 30.46875 18.6875 31.203125 
Q 22.796875 31.9375 27.046875 32.03125 
L 38.921875 32.234375 
L 38.921875 35.109375 
Q 38.921875 38.375 38.234375 40.671875 
Q 37.546875 42.96875 36.125 44.375 
Q 34.71875 45.796875 32.59375 46.453125 
Q 30.46875 47.125 27.59375 47.125 
Q 25.046875 47.125 23 46.75 
Q 20.953125 46.390625 19.4375 45.4375 
Q 17.921875 44.484375 16.984375 42.84375 
Q 16.0625 41.21875 15.765625 38.71875 
L 6.59375 39.546875 
Q 7.078125 42.671875 8.4375 45.28125 
Q 9.8125 47.90625 12.328125 49.796875 
Q 14.84375 51.703125 18.625 52.75 
Q 22.40625 53.8125 27.78125 53.8125 
Q 37.75 53.8125 42.765625 49.234375 
Q 47.796875 44.671875 47.796875 36.03125 
L 47.796875 13.28125 
Q 47.796875 9.375 48.828125 7.390625 
Q 49.859375 5.421875 52.734375 5.421875 
Q 53.46875 5.421875 54.203125 5.515625 
Q 54.9375 5.609375 55.609375 5.765625 
L 55.609375 0.296875 
Q 53.953125 -0.09375 52.3125 -0.28125 
Q 50.6875 -0.484375 48.828125 -0.484375 
Q 46.34375 -0.484375 44.5625 0.171875 
Q 42.78125 0.828125 41.65625 2.171875 
Q 40.53125 3.515625 39.9375 5.484375 
Q 39.359375 7.46875 39.203125 10.109375 
L 38.921875 10.109375 
Q 37.5 7.5625 35.8125 5.515625 
Q 34.125 3.46875 31.875 2.03125 
Q 29.640625 0.59375 26.78125 -0.1875 
Q 23.921875 -0.984375 20.21875 -0.984375 
z
M 22.21875 5.609375 
Q 26.421875 5.609375 29.5625 7.140625 
Q 32.71875 8.6875 34.78125 11.078125 
Q 36.859375 13.484375 37.890625 16.3125 
Q 38.921875 19.140625 38.921875 21.734375 
L 38.921875 26.078125 
L 29.296875 25.875 
Q 26.078125 25.828125 23.171875 25.40625 
Q 20.265625 25 18.0625 23.78125 
Q 15.875 22.5625 14.578125 20.359375 
Q 13.28125 18.171875 13.28125 14.59375 
Q 13.28125 10.296875 15.59375 7.953125 
Q 17.921875 5.609375 22.21875 5.609375 
z
" id="LiberationSans-97"/>
      <path d="M 29.5 0 
Q 27.640625 -4.78125 25.703125 -8.609375 
Q 23.78125 -12.453125 21.390625 -15.15625 
Q 19 -17.875 16.0625 -19.3125 
Q 13.140625 -20.75 9.328125 -20.75 
Q 7.671875 -20.75 6.25 -20.65625 
Q 4.828125 -20.5625 3.265625 -20.21875 
L 3.265625 -13.625 
Q 4.203125 -13.765625 5.375 -13.84375 
Q 6.546875 -13.921875 7.375 -13.921875 
Q 11.234375 -13.921875 14.546875 -11.03125 
Q 17.875 -8.15625 20.359375 -1.859375 
L 21.1875 0.25 
L 0.25 52.828125 
L 9.625 52.828125 
L 20.75 23.640625 
Q 21.234375 22.3125 21.984375 20.109375 
Q 22.75 17.921875 23.5 15.71875 
Q 24.265625 13.53125 24.84375 11.765625 
Q 25.4375 10.015625 25.53125 9.578125 
Q 25.6875 10.109375 26.25 11.6875 
Q 26.8125 13.28125 27.515625 15.234375 
Q 28.21875 17.1875 28.953125 19.1875 
Q 29.6875 21.1875 30.171875 22.65625 
L 40.53125 52.828125 
L 49.8125 52.828125 
z
" id="LiberationSans-121"/>
      <path d="M 46.390625 14.59375 
Q 46.390625 10.890625 44.9375 7.984375 
Q 43.5 5.078125 40.765625 3.09375 
Q 38.03125 1.125 34.046875 0.0625 
Q 30.078125 -0.984375 24.953125 -0.984375 
Q 20.359375 -0.984375 16.671875 -0.265625 
Q 12.984375 0.4375 10.203125 2 
Q 7.421875 3.5625 5.53125 6.125 
Q 3.65625 8.6875 2.78125 12.40625 
L 10.546875 13.921875 
Q 11.671875 9.671875 15.1875 7.6875 
Q 18.703125 5.71875 24.953125 5.71875 
Q 27.78125 5.71875 30.140625 6.109375 
Q 32.515625 6.5 34.21875 7.453125 
Q 35.9375 8.40625 36.890625 9.984375 
Q 37.84375 11.578125 37.84375 13.921875 
Q 37.84375 16.3125 36.71875 17.84375 
Q 35.59375 19.390625 33.59375 20.40625 
Q 31.59375 21.4375 28.734375 22.1875 
Q 25.875 22.953125 22.46875 23.875 
Q 19.28125 24.703125 16.15625 25.734375 
Q 13.03125 26.765625 10.515625 28.4375 
Q 8.015625 30.125 6.453125 32.609375 
Q 4.890625 35.109375 4.890625 38.875 
Q 4.890625 46.09375 10.03125 49.875 
Q 15.1875 53.65625 25.046875 53.65625 
Q 33.796875 53.65625 38.9375 50.578125 
Q 44.09375 47.515625 45.453125 40.71875 
L 37.546875 39.75 
Q 37.109375 41.796875 35.9375 43.1875 
Q 34.765625 44.578125 33.109375 45.4375 
Q 31.453125 46.296875 29.375 46.65625 
Q 27.296875 47.015625 25.046875 47.015625 
Q 19.09375 47.015625 16.25 45.203125 
Q 13.421875 43.40625 13.421875 39.75 
Q 13.421875 37.59375 14.46875 36.203125 
Q 15.53125 34.8125 17.40625 33.859375 
Q 19.28125 32.90625 21.921875 32.203125 
Q 24.5625 31.5 27.734375 30.71875 
Q 29.828125 30.171875 32.03125 29.5625 
Q 34.234375 28.953125 36.296875 28.09375 
Q 38.375 27.25 40.203125 26.09375 
Q 42.046875 24.953125 43.40625 23.34375 
Q 44.78125 21.734375 45.578125 19.578125 
Q 46.390625 17.4375 46.390625 14.59375 
z
" id="LiberationSans-115"/>
      <path id="LiberationSans-32"/>
      <path d="M 6.6875 64.0625 
L 6.6875 72.46875 
L 15.484375 72.46875 
L 15.484375 64.0625 
z
M 6.6875 0 
L 6.6875 52.828125 
L 15.484375 52.828125 
L 15.484375 0 
z
" id="LiberationSans-105"/>
      <path d="M 40.28125 0 
L 40.28125 33.5 
Q 40.28125 37.359375 39.71875 39.9375 
Q 39.15625 42.53125 37.890625 44.109375 
Q 36.625 45.703125 34.546875 46.359375 
Q 32.46875 47.015625 29.390625 47.015625 
Q 26.265625 47.015625 23.75 45.921875 
Q 21.234375 44.828125 19.453125 42.75 
Q 17.671875 40.671875 16.6875 37.625 
Q 15.71875 34.578125 15.71875 30.609375 
L 15.71875 0 
L 6.9375 0 
L 6.9375 41.546875 
Q 6.9375 43.21875 6.90625 45.046875 
Q 6.890625 46.875 6.828125 48.5 
Q 6.78125 50.140625 6.734375 51.3125 
Q 6.6875 52.484375 6.640625 52.828125 
L 14.9375 52.828125 
Q 14.984375 52.59375 15.03125 51.515625 
Q 15.09375 50.4375 15.15625 49.046875 
Q 15.234375 47.65625 15.28125 46.21875 
Q 15.328125 44.78125 15.328125 43.796875 
L 15.484375 43.796875 
Q 16.75 46.09375 18.265625 47.953125 
Q 19.78125 49.8125 21.78125 51.09375 
Q 23.78125 52.390625 26.359375 53.09375 
Q 28.953125 53.8125 32.375 53.8125 
Q 36.765625 53.8125 39.9375 52.734375 
Q 43.109375 51.65625 45.15625 49.40625 
Q 47.21875 47.171875 48.171875 43.625 
Q 49.125 40.09375 49.125 35.203125 
L 49.125 0 
z
" id="LiberationSans-110"/>
      <path d="M 13.421875 26.65625 
Q 13.421875 22.125 14.078125 18.3125 
Q 14.75 14.5 16.3125 11.734375 
Q 17.875 8.984375 20.4375 7.46875 
Q 23 5.953125 26.765625 5.953125 
Q 31.453125 5.953125 34.59375 8.484375 
Q 37.75 11.03125 38.484375 16.3125 
L 47.359375 15.71875 
Q 46.921875 12.453125 45.453125 9.421875 
Q 44 6.390625 41.484375 4.09375 
Q 38.96875 1.8125 35.34375 0.40625 
Q 31.734375 -0.984375 27 -0.984375 
Q 20.796875 -0.984375 16.453125 1.109375 
Q 12.109375 3.21875 9.390625 6.90625 
Q 6.6875 10.59375 5.46875 15.59375 
Q 4.25 20.609375 4.25 26.46875 
Q 4.25 31.78125 5.125 35.859375 
Q 6 39.9375 7.59375 42.984375 
Q 9.1875 46.046875 11.328125 48.125 
Q 13.484375 50.203125 15.984375 51.4375 
Q 18.5 52.6875 21.28125 53.25 
Q 24.078125 53.8125 26.90625 53.8125 
Q 31.34375 53.8125 34.8125 52.59375 
Q 38.28125 51.375 40.796875 49.25 
Q 43.3125 47.125 44.875 44.234375 
Q 46.4375 41.359375 47.078125 38.03125 
L 38.03125 37.359375 
Q 37.359375 41.75 34.5625 44.328125 
Q 31.78125 46.921875 26.65625 46.921875 
Q 22.90625 46.921875 20.390625 45.671875 
Q 17.875 44.4375 16.3125 41.921875 
Q 14.75 39.40625 14.078125 35.59375 
Q 13.421875 31.78125 13.421875 26.65625 
z
" id="LiberationSans-99"/>
      <path d="M 13.484375 24.5625 
Q 13.484375 20.40625 14.328125 16.90625 
Q 15.1875 13.421875 16.96875 10.90625 
Q 18.75 8.40625 21.53125 7 
Q 24.3125 5.609375 28.21875 5.609375 
Q 33.9375 5.609375 37.375 7.90625 
Q 40.828125 10.203125 42.046875 13.71875 
L 49.75 11.53125 
Q 48.921875 9.328125 47.4375 7.109375 
Q 45.953125 4.890625 43.453125 3.09375 
Q 40.96875 1.3125 37.234375 0.15625 
Q 33.5 -0.984375 28.21875 -0.984375 
Q 16.5 -0.984375 10.375 6 
Q 4.25 12.984375 4.25 26.765625 
Q 4.25 34.1875 6.09375 39.328125 
Q 7.953125 44.484375 11.171875 47.703125 
Q 14.40625 50.921875 18.703125 52.359375 
Q 23 53.8125 27.875 53.8125 
Q 34.515625 53.8125 38.984375 51.65625 
Q 43.453125 49.515625 46.15625 45.71875 
Q 48.875 41.9375 50.015625 36.8125 
Q 51.171875 31.6875 51.171875 25.734375 
L 51.171875 24.5625 
z
M 42.09375 31.296875 
Q 41.359375 39.65625 37.84375 43.484375 
Q 34.328125 47.3125 27.734375 47.3125 
Q 25.53125 47.3125 23.109375 46.609375 
Q 20.703125 45.90625 18.65625 44.09375 
Q 16.609375 42.28125 15.1875 39.171875 
Q 13.765625 36.078125 13.578125 31.296875 
z
" id="LiberationSans-101"/>
      <path d="M 35.296875 50.875 
Q 35.296875 41.703125 31 36.734375 
Q 26.703125 31.78125 18.171875 31.78125 
Q 9.96875 31.78125 5.640625 36.6875 
Q 1.3125 41.609375 1.3125 50.875 
Q 1.3125 55.328125 2.359375 58.859375 
Q 3.421875 62.40625 5.546875 64.859375 
Q 7.671875 67.328125 10.859375 68.625 
Q 14.0625 69.921875 18.359375 69.921875 
Q 22.90625 69.921875 26.09375 68.625 
Q 29.296875 67.328125 31.34375 64.890625 
Q 33.40625 62.453125 34.34375 58.90625 
Q 35.296875 55.375 35.296875 50.875 
z
M 28.03125 50.875 
Q 28.03125 54.9375 27.421875 57.609375 
Q 26.8125 60.296875 25.578125 61.890625 
Q 24.359375 63.484375 22.59375 64.140625 
Q 20.84375 64.796875 18.5 64.796875 
Q 16.15625 64.796875 14.328125 64.140625 
Q 12.5 63.484375 11.25 61.859375 
Q 10.015625 60.25 9.375 57.5625 
Q 8.734375 54.890625 8.734375 50.875 
Q 8.734375 46.78125 9.421875 44.09375 
Q 10.109375 41.40625 11.34375 39.796875 
Q 12.59375 38.1875 14.296875 37.546875 
Q 16.015625 36.921875 18.109375 36.921875 
Q 20.515625 36.921875 22.34375 37.546875 
Q 24.171875 38.1875 25.4375 39.796875 
Q 26.703125 41.40625 27.359375 44.09375 
Q 28.03125 46.78125 28.03125 50.875 
z
" id="LiberationSans-186"/>
     </defs>
     <g style="fill:#262626;" transform="translate(327.549688 346.464889)scale(0.11 -0.11)">
      <use xlink:href="#LiberationSans-68"/>
      <use x="72.216797" xlink:href="#LiberationSans-97"/>
      <use x="127.832031" xlink:href="#LiberationSans-121"/>
      <use x="177.832031" xlink:href="#LiberationSans-115"/>
      <use x="227.832031" xlink:href="#LiberationSans-32"/>
      <use x="255.615234" xlink:href="#LiberationSans-115"/>
      <use x="305.615234" xlink:href="#LiberationSans-105"/>
      <use x="327.832031" xlink:href="#LiberationSans-110"/>
      <use x="383.447266" xlink:href="#LiberationSans-99"/>
      <use x="433.447266" xlink:href="#LiberationSans-101"/>
      <use x="489.0625" xlink:href="#LiberationSans-32"/>
      <use x="516.845703" xlink:href="#LiberationSans-99"/>
      <use x="566.845703" xlink:href="#LiberationSans-97"/>
      <use x="622.460938" xlink:href="#LiberationSans-115"/>
      <use x="672.460938" xlink:href="#LiberationSans-101"/>
      <use x="728.076172" xlink:href="#LiberationSans-32"/>
      <use x="755.859375" xlink:href="#LiberationSans-110"/>
      <use x="811.474609" xlink:href="#LiberationSans-186"/>
      <use x="847.998047" xlink:href="#LiberationSans-50"/>
      <use x="903.613281" xlink:href="#LiberationSans-48"/>
     </g>
    </g>
   </g>
   <g id="matplotlib.axis_2">
    <g id="ytick_1">
     <g id="line2d_9"/>
     <g id="text_10">
      <!-- 0.0 -->
      <defs>
       <path d="M 9.125 0 
L 9.125 10.6875 
L 18.65625 10.6875 
L 18.65625 0 
z
" id="LiberationSans-46"/>
      </defs>
      <g style="fill:#262626;" transform="translate(30.51 303.106374)scale(0.1 -0.1)">
       <use xlink:href="#LiberationSans-48"/>
       <use x="55.615234" xlink:href="#LiberationSans-46"/>
       <use x="83.398438" xlink:href="#LiberationSans-48"/>
      </g>
     </g>
    </g>
    <g id="ytick_2">
     <g id="line2d_10"/>
     <g id="text_11">
      <!-- 2.5 -->
      <g style="fill:#262626;" transform="translate(30.51 267.520558)scale(0.1 -0.1)">
       <use xlink:href="#LiberationSans-50"/>
       <use x="55.615234" xlink:href="#LiberationSans-46"/>
       <use x="83.398438" xlink:href="#LiberationSans-53"/>
      </g>
     </g>
    </g>
    <g id="ytick_3">
     <g id="line2d_11"/>
     <g id="text_12">
      <!-- 5.0 -->
      <g style="fill:#262626;" transform="translate(30.51 231.934742)scale(0.1 -0.1)">
       <use xlink:href="#LiberationSans-53"/>
       <use x="55.615234" xlink:href="#LiberationSans-46"/>
       <use x="83.398438" xlink:href="#LiberationSans-48"/>
      </g>
     </g>
    </g>
    <g id="ytick_4">
     <g id="line2d_12"/>
     <g id="text_13">
      <!-- 7.5 -->
      <g style="fill:#262626;" transform="translate(30.51 196.348925)scale(0.1 -0.1)">
       <use xlink:href="#LiberationSans-55"/>
       <use x="55.615234" xlink:href="#LiberationSans-46"/>
       <use x="83.398438" xlink:href="#LiberationSans-53"/>
      </g>
     </g>
    </g>
    <g id="ytick_5">
     <g id="line2d_13"/>
     <g id="text_14">
      <!-- 10.0 -->
      <g style="fill:#262626;" transform="translate(24.949063 160.763109)scale(0.1 -0.1)">
       <use xlink:href="#LiberationSans-49"/>
       <use x="55.615234" xlink:href="#LiberationSans-48"/>
       <use x="111.230469" xlink:href="#LiberationSans-46"/>
       <use x="139.013672" xlink:href="#LiberationSans-48"/>
      </g>
     </g>
    </g>
    <g id="ytick_6">
     <g id="line2d_14"/>
     <g id="text_15">
      <!-- 12.5 -->
      <g style="fill:#262626;" transform="translate(24.949063 125.177293)scale(0.1 -0.1)">
       <use xlink:href="#LiberationSans-49"/>
       <use x="55.615234" xlink:href="#LiberationSans-50"/>
       <use x="111.230469" xlink:href="#LiberationSans-46"/>
       <use x="139.013672" xlink:href="#LiberationSans-53"/>
      </g>
     </g>
    </g>
    <g id="ytick_7">
     <g id="line2d_15"/>
     <g id="text_16">
      <!-- 15.0 -->
      <g style="fill:#262626;" transform="translate(24.949063 89.591477)scale(0.1 -0.1)">
       <use xlink:href="#LiberationSans-49"/>
       <use x="55.615234" xlink:href="#LiberationSans-53"/>
       <use x="111.230469" xlink:href="#LiberationSans-46"/>
       <use x="139.013672" xlink:href="#LiberationSans-48"/>
      </g>
     </g>
    </g>
    <g id="ytick_8">
     <g id="line2d_16"/>
     <g id="text_17">
      <!-- 17.5 -->
      <g style="fill:#262626;" transform="translate(24.949063 54.005661)scale(0.1 -0.1)">
       <use xlink:href="#LiberationSans-49"/>
       <use x="55.615234" xlink:href="#LiberationSans-55"/>
       <use x="111.230469" xlink:href="#LiberationSans-46"/>
       <use x="139.013672" xlink:href="#LiberationSans-53"/>
      </g>
     </g>
    </g>
    <g id="ytick_9">
     <g id="line2d_17"/>
     <g id="text_18">
      <!-- 20.0 -->
      <g style="fill:#262626;" transform="translate(24.949063 18.419844)scale(0.1 -0.1)">
       <use xlink:href="#LiberationSans-50"/>
       <use x="55.615234" xlink:href="#LiberationSans-48"/>
       <use x="111.230469" xlink:href="#LiberationSans-46"/>
       <use x="139.013672" xlink:href="#LiberationSans-48"/>
      </g>
     </g>
    </g>
    <g id="text_19">
     <!-- New deaths over 1M population -->
     <defs>
      <path d="M 52.828125 0 
L 16.015625 58.59375 
Q 16.109375 56.203125 16.265625 53.859375 
Q 16.359375 51.859375 16.421875 49.625 
Q 16.5 47.40625 16.5 45.703125 
L 16.5 0 
L 8.203125 0 
L 8.203125 68.796875 
L 19.046875 68.796875 
L 56.25 9.8125 
Q 56.109375 12.203125 55.953125 14.59375 
Q 55.859375 16.65625 55.765625 19.0625 
Q 55.671875 21.484375 55.671875 23.6875 
L 55.671875 68.796875 
L 64.0625 68.796875 
L 64.0625 0 
z
" id="LiberationSans-78"/>
      <path d="M 57.328125 0 
L 47.125 0 
L 38.671875 34.078125 
Q 38.28125 35.40625 37.859375 37.359375 
Q 37.453125 39.3125 37.0625 41.15625 
Q 36.578125 43.3125 36.140625 45.609375 
Q 35.6875 43.40625 35.203125 41.265625 
Q 34.8125 39.40625 34.34375 37.40625 
Q 33.890625 35.40625 33.5 33.890625 
L 24.8125 0 
L 14.65625 0 
L -0.140625 52.828125 
L 8.546875 52.828125 
L 17.484375 16.9375 
Q 17.828125 15.828125 18.15625 14.1875 
Q 18.5 12.546875 18.84375 10.984375 
Q 19.1875 9.1875 19.578125 7.28125 
Q 19.96875 9.125 20.40625 10.890625 
Q 20.796875 12.40625 21.1875 13.96875 
Q 21.578125 15.53125 21.875 16.546875 
L 31.453125 52.828125 
L 40.875 52.828125 
L 50.09375 16.546875 
Q 50.4375 15.28125 50.828125 13.671875 
Q 51.21875 12.0625 51.5625 10.640625 
Q 51.953125 8.984375 52.34375 7.28125 
Q 52.734375 9.125 53.125 10.890625 
Q 53.46875 12.40625 53.828125 14.03125 
Q 54.203125 15.671875 54.546875 16.9375 
L 63.875 52.828125 
L 72.46875 52.828125 
z
" id="LiberationSans-119"/>
      <path d="M 40.09375 8.5 
Q 37.640625 3.421875 33.609375 1.21875 
Q 29.59375 -0.984375 23.640625 -0.984375 
Q 13.625 -0.984375 8.90625 5.75 
Q 4.203125 12.5 4.203125 26.171875 
Q 4.203125 53.8125 23.640625 53.8125 
Q 29.640625 53.8125 33.640625 51.609375 
Q 37.640625 49.421875 40.09375 44.625 
L 40.1875 44.625 
Q 40.1875 45.125 40.15625 46.171875 
Q 40.140625 47.21875 40.109375 48.359375 
Q 40.09375 49.515625 40.09375 50.53125 
Q 40.09375 51.5625 40.09375 52 
L 40.09375 72.46875 
L 48.875 72.46875 
L 48.875 10.890625 
Q 48.875 8.984375 48.890625 7.21875 
Q 48.921875 5.46875 48.96875 4 
Q 49.03125 2.546875 49.078125 1.484375 
Q 49.125 0.4375 49.171875 0 
L 40.765625 0 
Q 40.671875 0.484375 40.59375 1.390625 
Q 40.53125 2.296875 40.453125 3.46875 
Q 40.375 4.640625 40.328125 5.9375 
Q 40.28125 7.234375 40.28125 8.5 
z
M 13.421875 26.46875 
Q 13.421875 21 14.109375 17.09375 
Q 14.796875 13.1875 16.3125 10.671875 
Q 17.828125 8.15625 20.171875 6.984375 
Q 22.515625 5.8125 25.875 5.8125 
Q 29.34375 5.8125 32 6.9375 
Q 34.671875 8.0625 36.453125 10.578125 
Q 38.234375 13.09375 39.15625 17.140625 
Q 40.09375 21.1875 40.09375 27.046875 
Q 40.09375 32.671875 39.15625 36.546875 
Q 38.234375 40.4375 36.421875 42.828125 
Q 34.625 45.21875 32 46.265625 
Q 29.390625 47.3125 25.984375 47.3125 
Q 22.75 47.3125 20.40625 46.1875 
Q 18.0625 45.0625 16.5 42.578125 
Q 14.9375 40.09375 14.171875 36.109375 
Q 13.421875 32.125 13.421875 26.46875 
z
" id="LiberationSans-100"/>
      <path d="M 27.046875 0.390625 
Q 25.046875 -0.140625 22.96875 -0.453125 
Q 20.90625 -0.78125 18.171875 -0.78125 
Q 7.625 -0.78125 7.625 11.1875 
L 7.625 46.4375 
L 1.515625 46.4375 
L 1.515625 52.828125 
L 7.953125 52.828125 
L 10.546875 64.65625 
L 16.40625 64.65625 
L 16.40625 52.828125 
L 26.171875 52.828125 
L 26.171875 46.4375 
L 16.40625 46.4375 
L 16.40625 13.09375 
Q 16.40625 9.28125 17.640625 7.734375 
Q 18.890625 6.203125 21.96875 6.203125 
Q 23.25 6.203125 24.4375 6.390625 
Q 25.640625 6.59375 27.046875 6.890625 
z
" id="LiberationSans-116"/>
      <path d="M 15.484375 43.796875 
Q 16.9375 46.484375 18.640625 48.359375 
Q 20.359375 50.25 22.40625 51.46875 
Q 24.46875 52.6875 26.90625 53.25 
Q 29.34375 53.8125 32.375 53.8125 
Q 37.453125 53.8125 40.703125 52.4375 
Q 43.953125 51.078125 45.828125 48.609375 
Q 47.703125 46.140625 48.40625 42.71875 
Q 49.125 39.3125 49.125 35.203125 
L 49.125 0 
L 40.28125 0 
L 40.28125 33.5 
Q 40.28125 36.859375 39.859375 39.390625 
Q 39.453125 41.9375 38.28125 43.625 
Q 37.109375 45.3125 34.953125 46.15625 
Q 32.8125 47.015625 29.390625 47.015625 
Q 26.265625 47.015625 23.75 45.890625 
Q 21.234375 44.78125 19.453125 42.71875 
Q 17.671875 40.671875 16.6875 37.734375 
Q 15.71875 34.8125 15.71875 31.15625 
L 15.71875 0 
L 6.9375 0 
L 6.9375 72.46875 
L 15.71875 72.46875 
L 15.71875 53.609375 
Q 15.71875 52 15.671875 50.390625 
Q 15.625 48.78125 15.546875 47.40625 
Q 15.484375 46.046875 15.421875 45.09375 
Q 15.375 44.140625 15.328125 43.796875 
z
" id="LiberationSans-104"/>
      <path d="M 51.421875 26.46875 
Q 51.421875 12.59375 45.3125 5.796875 
Q 39.203125 -0.984375 27.59375 -0.984375 
Q 22.078125 -0.984375 17.71875 0.671875 
Q 13.375 2.34375 10.375 5.765625 
Q 7.375 9.1875 5.78125 14.328125 
Q 4.203125 19.484375 4.203125 26.46875 
Q 4.203125 53.8125 27.875 53.8125 
Q 34.03125 53.8125 38.5 52.09375 
Q 42.96875 50.390625 45.828125 46.96875 
Q 48.6875 43.5625 50.046875 38.421875 
Q 51.421875 33.296875 51.421875 26.46875 
z
M 42.1875 26.46875 
Q 42.1875 32.625 41.234375 36.625 
Q 40.28125 40.625 38.453125 43.015625 
Q 36.625 45.40625 33.984375 46.359375 
Q 31.34375 47.3125 28.03125 47.3125 
Q 24.65625 47.3125 21.9375 46.3125 
Q 19.234375 45.3125 17.328125 42.890625 
Q 15.4375 40.484375 14.421875 36.46875 
Q 13.421875 32.46875 13.421875 26.46875 
Q 13.421875 20.3125 14.5 16.28125 
Q 15.578125 12.25 17.453125 9.859375 
Q 19.34375 7.46875 21.90625 6.484375 
Q 24.46875 5.515625 27.484375 5.515625 
Q 30.859375 5.515625 33.59375 6.46875 
Q 36.328125 7.421875 38.234375 9.8125 
Q 40.140625 12.203125 41.15625 16.25 
Q 42.1875 20.3125 42.1875 26.46875 
z
" id="LiberationSans-111"/>
      <path d="M 29.9375 0 
L 19.53125 0 
L 0.34375 52.828125 
L 9.71875 52.828125 
L 21.34375 18.453125 
Q 21.6875 17.390625 22.140625 15.84375 
Q 22.609375 14.3125 23.09375 12.640625 
Q 23.578125 10.984375 24 9.4375 
Q 24.421875 7.90625 24.703125 6.890625 
Q 25 7.90625 25.453125 9.4375 
Q 25.921875 10.984375 26.40625 12.59375 
Q 26.90625 14.203125 27.421875 15.734375 
Q 27.9375 17.28125 28.328125 18.359375 
L 40.328125 52.828125 
L 49.65625 52.828125 
z
" id="LiberationSans-118"/>
      <path d="M 6.9375 0 
L 6.9375 40.53125 
Q 6.9375 42.1875 6.90625 43.921875 
Q 6.890625 45.65625 6.828125 47.265625 
Q 6.78125 48.875 6.734375 50.28125 
Q 6.6875 51.703125 6.640625 52.828125 
L 14.9375 52.828125 
Q 14.984375 51.703125 15.0625 50.265625 
Q 15.140625 48.828125 15.203125 47.3125 
Q 15.28125 45.796875 15.296875 44.40625 
Q 15.328125 43.015625 15.328125 42.046875 
L 15.53125 42.046875 
Q 16.453125 45.0625 17.5 47.28125 
Q 18.5625 49.515625 19.96875 50.953125 
Q 21.390625 52.390625 23.34375 53.09375 
Q 25.296875 53.8125 28.078125 53.8125 
Q 29.15625 53.8125 30.125 53.640625 
Q 31.109375 53.46875 31.640625 53.328125 
L 31.640625 45.265625 
Q 30.765625 45.515625 29.59375 45.625 
Q 28.421875 45.75 26.953125 45.75 
Q 23.921875 45.75 21.796875 44.375 
Q 19.671875 43.015625 18.328125 40.59375 
Q 17 38.1875 16.359375 34.84375 
Q 15.71875 31.5 15.71875 27.546875 
L 15.71875 0 
z
" id="LiberationSans-114"/>
      <path d="M 66.703125 0 
L 66.703125 45.90625 
Q 66.703125 48.390625 66.75 50.96875 
Q 66.796875 53.5625 66.890625 55.71875 
Q 67 58.203125 67.140625 60.546875 
Q 66.453125 58.0625 65.71875 55.609375 
Q 65.09375 53.515625 64.328125 51.140625 
Q 63.578125 48.78125 62.84375 46.875 
L 45.0625 0 
L 38.53125 0 
L 20.515625 46.875 
Q 20.21875 47.609375 19.890625 48.578125 
Q 19.578125 49.5625 19.203125 50.65625 
Q 18.84375 51.765625 18.46875 52.90625 
Q 18.109375 54.046875 17.78125 55.171875 
Q 16.9375 57.765625 16.15625 60.546875 
Q 16.21875 57.8125 16.3125 55.125 
Q 16.40625 52.828125 16.453125 50.3125 
Q 16.5 47.796875 16.5 45.90625 
L 16.5 0 
L 8.203125 0 
L 8.203125 68.796875 
L 20.453125 68.796875 
L 38.765625 21.09375 
Q 39.109375 20.125 39.59375 18.578125 
Q 40.09375 17.046875 40.53125 15.421875 
Q 40.96875 13.8125 41.328125 12.375 
Q 41.703125 10.9375 41.84375 10.15625 
Q 42 10.9375 42.390625 12.40625 
Q 42.78125 13.875 43.28125 15.484375 
Q 43.796875 17.09375 44.28125 18.609375 
Q 44.78125 20.125 45.171875 21.09375 
L 63.140625 68.796875 
L 75.09375 68.796875 
L 75.09375 0 
z
" id="LiberationSans-77"/>
      <path d="M 51.421875 26.65625 
Q 51.421875 20.65625 50.4375 15.578125 
Q 49.46875 10.5 47.1875 6.828125 
Q 44.921875 3.171875 41.1875 1.09375 
Q 37.453125 -0.984375 31.984375 -0.984375 
Q 26.3125 -0.984375 22.0625 1.171875 
Q 17.828125 3.328125 15.578125 8.203125 
L 15.328125 8.203125 
Q 15.375 8.109375 15.40625 7.328125 
Q 15.4375 6.546875 15.453125 5.375 
Q 15.484375 4.203125 15.5 2.75 
Q 15.53125 1.3125 15.53125 -0.09375 
L 15.53125 -20.75 
L 6.734375 -20.75 
L 6.734375 42.046875 
Q 6.734375 43.953125 6.703125 45.703125 
Q 6.6875 47.46875 6.640625 48.90625 
Q 6.59375 50.34375 6.546875 51.359375 
Q 6.5 52.390625 6.453125 52.828125 
L 14.9375 52.828125 
Q 14.984375 52.6875 15.0625 51.796875 
Q 15.140625 50.921875 15.203125 49.671875 
Q 15.28125 48.4375 15.359375 47.015625 
Q 15.4375 45.609375 15.4375 44.34375 
L 15.625 44.34375 
Q 16.84375 46.875 18.40625 48.65625 
Q 19.96875 50.4375 21.96875 51.578125 
Q 23.96875 52.734375 26.4375 53.25 
Q 28.90625 53.765625 31.984375 53.765625 
Q 37.453125 53.765625 41.1875 51.8125 
Q 44.921875 49.859375 47.1875 46.3125 
Q 49.46875 42.78125 50.4375 37.765625 
Q 51.421875 32.765625 51.421875 26.65625 
z
M 42.1875 26.46875 
Q 42.1875 31.34375 41.59375 35.15625 
Q 41.015625 38.96875 39.578125 41.59375 
Q 38.140625 44.234375 35.734375 45.59375 
Q 33.34375 46.96875 29.734375 46.96875 
Q 26.8125 46.96875 24.21875 46.140625 
Q 21.625 45.3125 19.703125 42.96875 
Q 17.78125 40.625 16.65625 36.5 
Q 15.53125 32.375 15.53125 25.78125 
Q 15.53125 20.171875 16.453125 16.28125 
Q 17.390625 12.40625 19.171875 10.015625 
Q 20.953125 7.625 23.578125 6.5625 
Q 26.21875 5.515625 29.640625 5.515625 
Q 33.296875 5.515625 35.71875 6.921875 
Q 38.140625 8.34375 39.578125 11.03125 
Q 41.015625 13.71875 41.59375 17.59375 
Q 42.1875 21.484375 42.1875 26.46875 
z
" id="LiberationSans-112"/>
      <path d="M 15.328125 52.828125 
L 15.328125 19.34375 
Q 15.328125 15.484375 15.890625 12.890625 
Q 16.453125 10.296875 17.71875 8.703125 
Q 19 7.125 21.0625 6.46875 
Q 23.140625 5.8125 26.21875 5.8125 
Q 29.34375 5.8125 31.859375 6.90625 
Q 34.375 8.015625 36.15625 10.078125 
Q 37.9375 12.15625 38.90625 15.203125 
Q 39.890625 18.265625 39.890625 22.21875 
L 39.890625 52.828125 
L 48.6875 52.828125 
L 48.6875 11.28125 
Q 48.6875 9.625 48.703125 7.78125 
Q 48.734375 5.953125 48.78125 4.3125 
Q 48.828125 2.6875 48.875 1.515625 
Q 48.921875 0.34375 48.96875 0 
L 40.671875 0 
Q 40.625 0.25 40.578125 1.3125 
Q 40.53125 2.390625 40.453125 3.78125 
Q 40.375 5.171875 40.328125 6.609375 
Q 40.28125 8.0625 40.28125 9.03125 
L 40.140625 9.03125 
Q 38.875 6.734375 37.359375 4.875 
Q 35.84375 3.03125 33.84375 1.734375 
Q 31.84375 0.4375 29.25 -0.265625 
Q 26.65625 -0.984375 23.25 -0.984375 
Q 18.84375 -0.984375 15.671875 0.09375 
Q 12.5 1.171875 10.453125 3.421875 
Q 8.40625 5.671875 7.453125 9.1875 
Q 6.5 12.703125 6.5 17.625 
L 6.5 52.828125 
z
" id="LiberationSans-117"/>
      <path d="M 6.734375 0 
L 6.734375 72.46875 
L 15.53125 72.46875 
L 15.53125 0 
z
" id="LiberationSans-108"/>
     </defs>
     <g style="fill:#262626;" transform="translate(18.666563 241.010836)rotate(-90)scale(0.11 -0.11)">
      <use xlink:href="#LiberationSans-78"/>
      <use x="72.216797" xlink:href="#LiberationSans-101"/>
      <use x="127.832031" xlink:href="#LiberationSans-119"/>
      <use x="200.048828" xlink:href="#LiberationSans-32"/>
      <use x="227.832031" xlink:href="#LiberationSans-100"/>
      <use x="283.447266" xlink:href="#LiberationSans-101"/>
      <use x="339.0625" xlink:href="#LiberationSans-97"/>
      <use x="394.677734" xlink:href="#LiberationSans-116"/>
      <use x="422.460938" xlink:href="#LiberationSans-104"/>
      <use x="478.076172" xlink:href="#LiberationSans-115"/>
      <use x="528.076172" xlink:href="#LiberationSans-32"/>
      <use x="555.859375" xlink:href="#LiberationSans-111"/>
      <use x="611.474609" xlink:href="#LiberationSans-118"/>
      <use x="661.474609" xlink:href="#LiberationSans-101"/>
      <use x="717.089844" xlink:href="#LiberationSans-114"/>
      <use x="750.390625" xlink:href="#LiberationSans-32"/>
      <use x="778.173828" xlink:href="#LiberationSans-49"/>
      <use x="833.789062" xlink:href="#LiberationSans-77"/>
      <use x="917.089844" xlink:href="#LiberationSans-32"/>
      <use x="944.873047" xlink:href="#LiberationSans-112"/>
      <use x="1000.488281" xlink:href="#LiberationSans-111"/>
      <use x="1056.103516" xlink:href="#LiberationSans-112"/>
      <use x="1111.71875" xlink:href="#LiberationSans-117"/>
      <use x="1167.333984" xlink:href="#LiberationSans-108"/>
      <use x="1189.550781" xlink:href="#LiberationSans-97"/>
      <use x="1245.166016" xlink:href="#LiberationSans-116"/>
      <use x="1272.949219" xlink:href="#LiberationSans-105"/>
      <use x="1295.166016" xlink:href="#LiberationSans-111"/>
      <use x="1350.78125" xlink:href="#LiberationSans-110"/>
     </g>
    </g>
   </g>
   <g id="line2d_18">
    <path clip-path="url(#p4d36b23a81)" d="M 81.309545 295.809737 
L 89.501202 292.42403 
L 97.692858 287.183638 
L 105.884514 281.343643 
L 114.076171 280.413447 
L 122.267827 278.770157 
L 130.459483 272.608967 
L 138.651139 267.889939 
L 146.842796 268.229842 
L 155.034452 272.35175 
L 163.226108 277.223029 
L 171.417765 277.931548 
L 179.609421 274.274039 
L 187.801077 272.134773 
L 195.992733 272.568343 
" style="fill:none;stroke:#989173;stroke-linecap:round;stroke-width:1.75;"/>
   </g>
   <g id="line2d_19">
    <path clip-path="url(#p4d36b23a81)" d="M 81.309545 299.249568 
L 89.501202 298.984442 
L 97.692858 298.723357 
L 105.884514 298.541104 
L 114.076171 298.407961 
L 122.267827 298.314857 
L 130.459483 298.139666 
L 138.651139 297.883824 
L 146.842796 297.510214 
L 155.034452 296.901979 
L 163.226108 296.099481 
L 171.417765 295.490145 
L 179.609421 295.399061 
L 187.801077 295.262005 
L 195.992733 295.211841 
L 204.18439 294.8979 
" style="fill:none;stroke:#42537f;stroke-linecap:round;stroke-width:1.75;"/>
   </g>
   <g id="line2d_20">
    <path clip-path="url(#p4d36b23a81)" d="M 81.309545 299.424617 
L 89.501202 299.365193 
L 97.692858 299.293868 
L 105.884514 299.208082 
L 114.076171 299.181056 
L 122.267827 299.217943 
L 130.459483 299.159291 
L 138.651139 299.039172 
L 146.842796 298.876797 
L 155.034452 298.726676 
L 163.226108 298.732529 
L 171.417765 298.773041 
L 179.609421 298.758548 
L 187.801077 298.713389 
L 195.992733 298.641048 
L 204.18439 298.560673 
L 212.376046 298.484676 
L 220.567702 298.480868 
L 228.759359 298.588519 
L 236.951015 298.432818 
L 245.142671 297.916274 
L 253.334328 297.811814 
L 261.525984 298.066526 
L 269.71764 298.286366 
L 277.909296 298.325589 
L 286.100953 298.249923 
L 294.292609 298.212136 
L 302.484265 298.100315 
L 310.675922 297.92328 
L 318.867578 298.072322 
L 327.059234 298.454955 
L 335.25089 298.53794 
L 343.442547 298.665339 
L 351.634203 298.91373 
L 359.825859 299.052195 
L 368.017516 299.060205 
L 376.209172 299.050665 
L 384.400828 299.072594 
L 392.592484 299.092309 
L 400.784141 299.113185 
L 408.975797 299.131569 
L 417.167453 299.153208 
L 425.35911 299.176898 
L 433.550766 299.193627 
L 441.742422 299.214002 
L 449.934078 299.249758 
L 458.125735 299.282232 
L 466.317391 299.306594 
L 474.509047 299.345675 
L 482.700704 299.371359 
L 490.89236 299.369449 
L 499.084016 299.362181 
L 507.275672 299.354363 
L 515.467329 299.356773 
L 523.658985 299.374933 
L 531.850641 299.400999 
L 540.042298 299.416219 
L 548.233954 299.399759 
L 556.42561 299.372564 
L 564.617267 299.377178 
L 572.808923 299.404826 
L 581.000579 299.424536 
L 589.192235 299.429688 
L 597.383892 299.434577 
L 605.575548 299.440002 
L 613.767204 299.441123 
L 621.958861 299.445578 
L 630.150517 299.445073 
L 638.342173 299.432007 
L 646.533829 299.427917 
L 654.725486 299.436007 
L 662.917142 299.444301 
L 671.108798 299.451983 
L 679.300455 299.458057 
" style="fill:none;stroke:#ae54a5;stroke-dasharray:6.475,2.8;stroke-dashoffset:0;stroke-width:1.75;"/>
   </g>
   <g id="line2d_21">
    <path clip-path="url(#p4d36b23a81)" d="M 81.309545 298.182515 
L 89.501202 296.55338 
L 97.692858 294.848718 
L 105.884514 294.259961 
L 114.076171 293.883042 
L 122.267827 291.395743 
L 130.459483 287.561919 
L 138.651139 284.099686 
L 146.842796 280.18146 
L 155.034452 273.453379 
L 163.226108 267.794874 
L 171.417765 269.035802 
L 179.609421 268.142176 
L 187.801077 259.825865 
L 195.992733 250.253766 
L 204.18439 240.958766 
L 212.376046 232.272542 
L 220.567702 230.056325 
L 228.759359 229.960536 
L 236.951015 224.119554 
L 245.142671 209.041341 
L 253.334328 185.179499 
L 261.525984 136.557434 
L 269.71764 74.779015 
L 277.909296 59.815328 
L 286.100953 92.824801 
L 294.292609 128.826555 
L 302.484265 133.950423 
" style="fill:none;stroke:#0309a6;stroke-linecap:round;stroke-width:1.75;"/>
   </g>
   <g id="line2d_22">
    <path clip-path="url(#p4d36b23a81)" d="M 81.309545 299.102304 
L 89.501202 298.319159 
L 97.692858 297.10894 
L 105.884514 296.396411 
L 114.076171 296.512357 
L 122.267827 296.320371 
L 130.459483 295.008861 
L 138.651139 293.208176 
L 146.842796 291.169897 
L 155.034452 288.936094 
L 163.226108 286.587135 
L 171.417765 284.296888 
L 179.609421 282.207132 
L 187.801077 279.942813 
L 195.992733 277.128733 
L 204.18439 273.680135 
L 212.376046 270.8157 
L 220.567702 270.382812 
L 228.759359 271.109131 
L 236.951015 269.695426 
L 245.142671 265.804713 
" style="fill:none;stroke:#d8b009;stroke-linecap:round;stroke-width:1.75;"/>
   </g>
   <g id="line2d_23">
    <path clip-path="url(#p4d36b23a81)" d="M 81.309545 298.834328 
L 89.501202 298.175902 
L 97.692858 297.150263 
L 105.884514 295.453713 
L 114.076171 293.661359 
L 122.267827 292.055134 
L 130.459483 290.252585 
L 138.651139 288.274294 
L 146.842796 283.714257 
L 155.034452 276.319089 
L 163.226108 269.777505 
L 171.417765 260.651077 
L 179.609421 246.087172 
L 187.801077 228.385553 
L 195.992733 222.208523 
L 204.18439 227.772726 
L 212.376046 223.999097 
L 220.567702 216.608106 
L 228.759359 208.848595 
L 236.951015 196.897659 
L 245.142671 180.6557 
L 253.334328 155.267414 
L 261.525984 137.274655 
L 269.71764 139.772527 
L 277.909296 142.887976 
L 286.100953 136.838488 
L 294.292609 130.894997 
L 302.484265 118.524887 
L 310.675922 101.328601 
L 318.867578 98.87743 
L 327.059234 107.052305 
L 335.25089 109.481392 
L 343.442547 111.508763 
L 351.634203 118.003572 
L 359.825859 121.709032 
L 368.017516 127.364555 
L 376.209172 142.230858 
L 384.400828 155.450439 
L 392.592484 156.233162 
" style="fill:none;stroke:#1007e1;stroke-linecap:round;stroke-width:1.75;"/>
   </g>
   <g id="line2d_24">
    <path clip-path="url(#p4d36b23a81)" d="M 81.309545 297.549283 
L 89.501202 293.668204 
L 97.692858 288.575005 
L 105.884514 285.457537 
L 114.076171 282.045045 
L 122.267827 277.242878 
L 130.459483 272.621208 
L 138.651139 268.320058 
L 146.842796 262.15902 
L 155.034452 250.50873 
L 163.226108 238.535449 
L 171.417765 228.550371 
L 179.609421 219.170685 
L 187.801077 212.378015 
L 195.992733 206.157635 
L 204.18439 197.310913 
L 212.376046 183.227623 
L 220.567702 176.195619 
L 228.759359 173.313642 
L 236.951015 173.130156 
L 245.142671 180.334302 
L 253.334328 196.574358 
L 261.525984 209.173864 
" style="fill:none;stroke:#a67d4c;stroke-linecap:round;stroke-width:1.75;"/>
   </g>
   <g id="line2d_25">
    <path clip-path="url(#p4d36b23a81)" d="M 81.309545 294.445856 
L 89.501202 289.131388 
L 97.692858 283.501614 
L 105.884514 278.637418 
L 114.076171 274.448132 
L 122.267827 271.357333 
L 130.459483 270.831342 
L 138.651139 270.647466 
L 146.842796 268.786978 
L 155.034452 265.7797 
L 163.226108 262.439143 
L 171.417765 260.405664 
L 179.609421 263.06617 
L 187.801077 266.991172 
L 195.992733 271.434241 
" style="fill:none;stroke:#ea71b3;stroke-linecap:round;stroke-width:1.75;"/>
   </g>
   <g id="line2d_26">
    <path clip-path="url(#p4d36b23a81)" d="M 81.309545 299.280915 
L 89.501202 299.100361 
L 97.692858 298.956585 
L 105.884514 298.942783 
L 114.076171 299.10662 
L 122.267827 299.244684 
" style="fill:none;stroke:#5feb16;stroke-linecap:round;stroke-width:1.75;"/>
   </g>
   <g id="line2d_27">
    <path clip-path="url(#p4d36b23a81)" d="M 81.309545 298.518766 
L 89.501202 297.120873 
L 97.692858 295.255829 
L 105.884514 291.032144 
L 114.076171 283.571899 
L 122.267827 278.306295 
L 130.459483 275.268578 
L 138.651139 269.441635 
L 146.842796 260.779237 
L 155.034452 254.688137 
L 163.226108 243.319234 
L 171.417765 225.58927 
L 179.609421 202.043311 
L 187.801077 175.15607 
L 195.992733 149.031329 
L 204.18439 119.438739 
L 212.376046 86.790073 
L 220.567702 71.738498 
L 228.759359 63.50916 
L 236.951015 52.861066 
L 245.142671 45.436476 
L 253.334328 43.966114 
L 261.525984 44.144924 
L 269.71764 32.831208 
L 277.909296 27.870958 
L 286.100953 44.079404 
L 294.292609 67.403326 
L 302.484265 82.709742 
L 310.675922 87.813349 
" style="fill:none;stroke:#907eba;stroke-linecap:round;stroke-width:1.75;"/>
   </g>
   <g id="line2d_28">
    <path clip-path="url(#p4d36b23a81)" d="M 81.309545 299.033532 
L 89.501202 298.531501 
L 97.692858 297.887365 
L 105.884514 297.207264 
L 114.076171 296.751643 
L 122.267827 296.52741 
L 130.459483 296.100378 
L 138.651139 294.944664 
L 146.842796 293.113675 
L 155.034452 290.949599 
L 163.226108 288.640541 
L 171.417765 287.056867 
L 179.609421 286.637217 
L 187.801077 286.514779 
L 195.992733 286.425698 
L 204.18439 286.370721 
" style="fill:none;stroke:#221cdf;stroke-linecap:round;stroke-width:1.75;"/>
   </g>
   <g id="line2d_29">
    <path clip-path="url(#p4d36b23a81)" d="M 81.309545 299.453199 
L 89.501202 299.382591 
L 97.692858 299.273273 
L 105.884514 299.218635 
L 114.076171 299.223025 
L 122.267827 299.200188 
L 130.459483 299.125884 
L 138.651139 298.947779 
L 146.842796 298.706898 
L 155.034452 298.52293 
L 163.226108 298.034507 
L 171.417765 297.263042 
L 179.609421 296.878664 
L 187.801077 296.214853 
L 195.992733 294.920701 
L 204.18439 293.561896 
L 212.376046 291.966768 
L 220.567702 289.695472 
L 228.759359 286.938053 
L 236.951015 283.808377 
L 245.142671 281.15022 
L 253.334328 278.559754 
L 261.525984 273.123818 
L 269.71764 265.164189 
L 277.909296 258.137503 
L 286.100953 252.123446 
L 294.292609 247.802801 
L 302.484265 245.707315 
L 310.675922 246.367271 
L 318.867578 247.830987 
" style="fill:none;stroke:#7516fd;stroke-dasharray:6.475,2.8;stroke-dashoffset:0;stroke-width:1.75;"/>
   </g>
   <g id="line2d_30">
    <path clip-path="url(#p4d36b23a81)" d="M 81.309545 296.82402 
L 89.501202 294.376547 
L 97.692858 293.161896 
L 105.884514 293.505293 
L 114.076171 292.479472 
L 122.267827 289.999748 
L 130.459483 289.014148 
L 138.651139 288.743085 
L 146.842796 288.202772 
L 155.034452 286.68534 
L 163.226108 285.040439 
L 171.417765 282.52147 
L 179.609421 274.083721 
L 187.801077 261.770019 
L 195.992733 253.579549 
L 204.18439 251.976588 
L 212.376046 243.642903 
L 220.567702 219.051333 
L 228.759359 192.037014 
L 236.951015 173.827032 
L 245.142671 161.39104 
L 253.334328 159.652156 
L 261.525984 173.491425 
L 269.71764 190.703043 
" style="fill:none;stroke:#89f9c9;stroke-linecap:round;stroke-width:1.75;"/>
   </g>
   <g id="patch_3">
    <path d="M 51.41 313.037412 
L 51.41 14.291603 
" style="fill:none;"/>
   </g>
   <g id="patch_4">
    <path d="M 709.2 313.037412 
L 709.2 14.291603 
" style="fill:none;"/>
   </g>
   <g id="patch_5">
    <path d="M 51.41 313.037412 
L 709.2 313.037412 
" style="fill:none;"/>
   </g>
   <g id="patch_6">
    <path d="M 51.41 14.291603 
L 709.2 14.291603 
" style="fill:none;"/>
   </g>
   <g id="legend_1">
    <g id="line2d_31">
     <path d="M 601.051563 27.038478 
L 621.051563 27.038478 
" style="fill:none;stroke:#989173;stroke-linecap:round;stroke-width:1.75;"/>
    </g>
    <g id="line2d_32"/>
    <g id="text_20">
     <!-- Austria -->
     <defs>
      <path d="M 56.984375 0 
L 49.125 20.125 
L 17.78125 20.125 
L 9.859375 0 
L 0.203125 0 
L 28.265625 68.796875 
L 38.875 68.796875 
L 66.5 0 
z
M 37.5 50.09375 
Q 36.71875 52.046875 36 54.046875 
Q 35.296875 56.0625 34.765625 57.6875 
Q 34.234375 59.328125 33.859375 60.421875 
Q 33.5 61.53125 33.453125 61.765625 
Q 33.34375 61.53125 33 60.40625 
Q 32.671875 59.28125 32.109375 57.609375 
Q 31.546875 55.953125 30.828125 53.953125 
Q 30.125 51.953125 29.390625 50 
L 20.609375 27.390625 
L 46.34375 27.390625 
z
" id="LiberationSans-65"/>
     </defs>
     <g style="fill:#262626;" transform="translate(629.051563 30.538478)scale(0.1 -0.1)">
      <use xlink:href="#LiberationSans-65"/>
      <use x="66.699219" xlink:href="#LiberationSans-117"/>
      <use x="122.314453" xlink:href="#LiberationSans-115"/>
      <use x="172.314453" xlink:href="#LiberationSans-116"/>
      <use x="200.097656" xlink:href="#LiberationSans-114"/>
      <use x="233.398438" xlink:href="#LiberationSans-105"/>
      <use x="255.615234" xlink:href="#LiberationSans-97"/>
     </g>
    </g>
    <g id="line2d_33">
     <path d="M 601.051563 41.360353 
L 621.051563 41.360353 
" style="fill:none;stroke:#42537f;stroke-linecap:round;stroke-width:1.75;"/>
    </g>
    <g id="line2d_34"/>
    <g id="text_21">
     <!-- Brazil -->
     <defs>
      <path d="M 61.421875 19.390625 
Q 61.421875 14.15625 59.375 10.46875 
Q 57.328125 6.78125 53.859375 4.46875 
Q 50.390625 2.15625 45.796875 1.078125 
Q 41.21875 0 36.140625 0 
L 8.203125 0 
L 8.203125 68.796875 
L 33.203125 68.796875 
Q 38.921875 68.796875 43.40625 67.84375 
Q 47.90625 66.890625 51.03125 64.84375 
Q 54.15625 62.796875 55.78125 59.640625 
Q 57.421875 56.5 57.421875 52.09375 
Q 57.421875 49.21875 56.609375 46.671875 
Q 55.8125 44.140625 54.171875 42.0625 
Q 52.546875 39.984375 50.078125 38.5 
Q 47.609375 37.015625 44.34375 36.28125 
Q 48.484375 35.796875 51.6875 34.375 
Q 54.890625 32.953125 57.03125 30.75 
Q 59.1875 28.5625 60.296875 25.65625 
Q 61.421875 22.75 61.421875 19.390625 
z
M 48.046875 50.984375 
Q 48.046875 56.546875 44.234375 58.9375 
Q 40.4375 61.328125 33.203125 61.328125 
L 17.53125 61.328125 
L 17.53125 39.546875 
L 33.203125 39.546875 
Q 37.3125 39.546875 40.140625 40.34375 
Q 42.96875 41.15625 44.71875 42.640625 
Q 46.484375 44.140625 47.265625 46.234375 
Q 48.046875 48.34375 48.046875 50.984375 
z
M 52 20.125 
Q 52 23.390625 50.796875 25.6875 
Q 49.609375 27.984375 47.359375 29.4375 
Q 45.125 30.90625 41.96875 31.59375 
Q 38.8125 32.28125 34.90625 32.28125 
L 17.53125 32.28125 
L 17.53125 7.46875 
L 35.640625 7.46875 
Q 39.203125 7.46875 42.203125 8.046875 
Q 45.21875 8.640625 47.390625 10.109375 
Q 49.5625 11.578125 50.78125 14.015625 
Q 52 16.453125 52 20.125 
z
" id="LiberationSans-66"/>
      <path d="M 2.390625 0 
L 2.390625 6.6875 
L 34.671875 46.046875 
L 4.34375 46.046875 
L 4.34375 52.828125 
L 44.578125 52.828125 
L 44.578125 46.140625 
L 12.25 6.78125 
L 46.390625 6.78125 
L 46.390625 0 
z
" id="LiberationSans-122"/>
     </defs>
     <g style="fill:#262626;" transform="translate(629.051563 44.860353)scale(0.1 -0.1)">
      <use xlink:href="#LiberationSans-66"/>
      <use x="66.699219" xlink:href="#LiberationSans-114"/>
      <use x="100" xlink:href="#LiberationSans-97"/>
      <use x="155.615234" xlink:href="#LiberationSans-122"/>
      <use x="205.615234" xlink:href="#LiberationSans-105"/>
      <use x="227.832031" xlink:href="#LiberationSans-108"/>
     </g>
    </g>
    <g id="line2d_35">
     <path d="M 601.051563 55.682228 
L 621.051563 55.682228 
" style="fill:none;stroke:#ae54a5;stroke-dasharray:6.475,2.8;stroke-dashoffset:0;stroke-width:1.75;"/>
    </g>
    <g id="line2d_36"/>
    <g id="text_22">
     <!-- China -->
     <defs>
      <path d="M 38.671875 62.203125 
Q 32.8125 62.203125 28.296875 60.25 
Q 23.78125 58.296875 20.71875 54.6875 
Q 17.671875 51.078125 16.109375 46 
Q 14.546875 40.921875 14.546875 34.71875 
Q 14.546875 28.515625 16.234375 23.359375 
Q 17.921875 18.21875 21.0625 14.5 
Q 24.21875 10.796875 28.78125 8.734375 
Q 33.34375 6.6875 39.0625 6.6875 
Q 43.0625 6.6875 46.359375 7.734375 
Q 49.65625 8.796875 52.3125 10.6875 
Q 54.984375 12.59375 57.078125 15.203125 
Q 59.1875 17.828125 60.796875 21 
L 68.40625 17.1875 
Q 66.546875 13.328125 63.8125 10 
Q 61.078125 6.6875 57.390625 4.25 
Q 53.71875 1.8125 49.046875 0.40625 
Q 44.390625 -0.984375 38.625 -0.984375 
Q 30.28125 -0.984375 24 1.671875 
Q 17.71875 4.34375 13.5 9.109375 
Q 9.28125 13.875 7.171875 20.40625 
Q 5.078125 26.953125 5.078125 34.71875 
Q 5.078125 42.78125 7.296875 49.265625 
Q 9.515625 55.765625 13.78125 60.328125 
Q 18.0625 64.890625 24.3125 67.359375 
Q 30.5625 69.828125 38.578125 69.828125 
Q 49.5625 69.828125 56.9375 65.53125 
Q 64.3125 61.234375 67.78125 52.78125 
L 58.9375 49.859375 
Q 57.953125 52.296875 56.296875 54.515625 
Q 54.640625 56.734375 52.140625 58.4375 
Q 49.65625 60.15625 46.3125 61.171875 
Q 42.96875 62.203125 38.671875 62.203125 
z
" id="LiberationSans-67"/>
     </defs>
     <g style="fill:#262626;" transform="translate(629.051563 59.182228)scale(0.1 -0.1)">
      <use xlink:href="#LiberationSans-67"/>
      <use x="72.216797" xlink:href="#LiberationSans-104"/>
      <use x="127.832031" xlink:href="#LiberationSans-105"/>
      <use x="150.048828" xlink:href="#LiberationSans-110"/>
      <use x="205.664062" xlink:href="#LiberationSans-97"/>
     </g>
    </g>
    <g id="line2d_37">
     <path d="M 601.051563 70.004103 
L 621.051563 70.004103 
" style="fill:none;stroke:#0309a6;stroke-linecap:round;stroke-width:1.75;"/>
    </g>
    <g id="line2d_38"/>
    <g id="text_23">
     <!-- France -->
     <defs>
      <path d="M 17.53125 61.1875 
L 17.53125 35.59375 
L 55.90625 35.59375 
L 55.90625 27.875 
L 17.53125 27.875 
L 17.53125 0 
L 8.203125 0 
L 8.203125 68.796875 
L 57.078125 68.796875 
L 57.078125 61.1875 
z
" id="LiberationSans-70"/>
     </defs>
     <g style="fill:#262626;" transform="translate(629.051563 73.504103)scale(0.1 -0.1)">
      <use xlink:href="#LiberationSans-70"/>
      <use x="61.083984" xlink:href="#LiberationSans-114"/>
      <use x="94.384766" xlink:href="#LiberationSans-97"/>
      <use x="150" xlink:href="#LiberationSans-110"/>
      <use x="205.615234" xlink:href="#LiberationSans-99"/>
      <use x="255.615234" xlink:href="#LiberationSans-101"/>
     </g>
    </g>
    <g id="line2d_39">
     <path d="M 601.051563 84.325978 
L 621.051563 84.325978 
" style="fill:none;stroke:#d8b009;stroke-linecap:round;stroke-width:1.75;"/>
    </g>
    <g id="line2d_40"/>
    <g id="text_24">
     <!-- Germany -->
     <defs>
      <path d="M 5.03125 34.71875 
Q 5.03125 42.78125 7.203125 49.265625 
Q 9.375 55.765625 13.6875 60.328125 
Q 18.015625 64.890625 24.40625 67.359375 
Q 30.8125 69.828125 39.265625 69.828125 
Q 45.609375 69.828125 50.390625 68.703125 
Q 55.171875 67.578125 58.6875 65.46875 
Q 62.203125 63.375 64.640625 60.375 
Q 67.09375 57.375 68.796875 53.609375 
L 59.90625 50.984375 
Q 58.640625 53.515625 56.859375 55.59375 
Q 55.078125 57.671875 52.53125 59.125 
Q 50 60.59375 46.65625 61.390625 
Q 43.3125 62.203125 39.015625 62.203125 
Q 32.765625 62.203125 28.140625 60.25 
Q 23.53125 58.296875 20.5 54.6875 
Q 17.484375 51.078125 15.984375 46 
Q 14.5 40.921875 14.5 34.71875 
Q 14.5 28.515625 16.109375 23.359375 
Q 17.71875 18.21875 20.890625 14.484375 
Q 24.078125 10.75 28.78125 8.671875 
Q 33.5 6.59375 39.703125 6.59375 
Q 43.75 6.59375 47.171875 7.265625 
Q 50.59375 7.953125 53.34375 9.046875 
Q 56.109375 10.15625 58.203125 11.5 
Q 60.296875 12.84375 61.71875 14.203125 
L 61.71875 26.609375 
L 41.15625 26.609375 
L 41.15625 34.421875 
L 70.3125 34.421875 
L 70.3125 10.6875 
Q 68.015625 8.34375 64.90625 6.21875 
Q 61.8125 4.109375 57.953125 2.484375 
Q 54.109375 0.875 49.515625 -0.046875 
Q 44.921875 -0.984375 39.703125 -0.984375 
Q 31 -0.984375 24.5 1.671875 
Q 18.015625 4.34375 13.6875 9.109375 
Q 9.375 13.875 7.203125 20.40625 
Q 5.03125 26.953125 5.03125 34.71875 
z
" id="LiberationSans-71"/>
      <path d="M 37.5 0 
L 37.5 33.5 
Q 37.5 37.359375 37.015625 39.9375 
Q 36.53125 42.53125 35.375 44.109375 
Q 34.234375 45.703125 32.375 46.359375 
Q 30.515625 47.015625 27.828125 47.015625 
Q 25.046875 47.015625 22.796875 45.921875 
Q 20.5625 44.828125 18.96875 42.75 
Q 17.390625 40.671875 16.53125 37.625 
Q 15.671875 34.578125 15.671875 30.609375 
L 15.671875 0 
L 6.9375 0 
L 6.9375 41.546875 
Q 6.9375 43.21875 6.90625 45.046875 
Q 6.890625 46.875 6.828125 48.5 
Q 6.78125 50.140625 6.734375 51.3125 
Q 6.6875 52.484375 6.640625 52.828125 
L 14.9375 52.828125 
Q 14.984375 52.59375 15.03125 51.515625 
Q 15.09375 50.4375 15.15625 49.046875 
Q 15.234375 47.65625 15.28125 46.21875 
Q 15.328125 44.78125 15.328125 43.796875 
L 15.484375 43.796875 
Q 16.65625 46.09375 18.015625 47.953125 
Q 19.390625 49.8125 21.21875 51.09375 
Q 23.046875 52.390625 25.40625 53.09375 
Q 27.78125 53.8125 30.90625 53.8125 
Q 36.921875 53.8125 40.40625 51.421875 
Q 43.890625 49.03125 45.265625 43.796875 
L 45.40625 43.796875 
Q 46.578125 46.09375 48.046875 47.953125 
Q 49.515625 49.8125 51.46875 51.09375 
Q 53.421875 52.390625 55.859375 53.09375 
Q 58.296875 53.8125 61.421875 53.8125 
Q 65.4375 53.8125 68.328125 52.734375 
Q 71.234375 51.65625 73.09375 49.40625 
Q 74.953125 47.171875 75.828125 43.625 
Q 76.703125 40.09375 76.703125 35.203125 
L 76.703125 0 
L 68.015625 0 
L 68.015625 33.5 
Q 68.015625 37.359375 67.53125 39.9375 
Q 67.046875 42.53125 65.890625 44.109375 
Q 64.75 45.703125 62.890625 46.359375 
Q 61.03125 47.015625 58.34375 47.015625 
Q 55.5625 47.015625 53.3125 45.96875 
Q 51.078125 44.921875 49.484375 42.875 
Q 47.90625 40.828125 47.046875 37.75 
Q 46.1875 34.671875 46.1875 30.609375 
L 46.1875 0 
z
" id="LiberationSans-109"/>
     </defs>
     <g style="fill:#262626;" transform="translate(629.051563 87.825978)scale(0.1 -0.1)">
      <use xlink:href="#LiberationSans-71"/>
      <use x="77.783203" xlink:href="#LiberationSans-101"/>
      <use x="133.398438" xlink:href="#LiberationSans-114"/>
      <use x="166.699219" xlink:href="#LiberationSans-109"/>
      <use x="250" xlink:href="#LiberationSans-97"/>
      <use x="305.615234" xlink:href="#LiberationSans-110"/>
      <use x="361.230469" xlink:href="#LiberationSans-121"/>
     </g>
    </g>
    <g id="line2d_41">
     <path d="M 601.051563 98.647853 
L 621.051563 98.647853 
" style="fill:none;stroke:#1007e1;stroke-linecap:round;stroke-width:1.75;"/>
    </g>
    <g id="line2d_42"/>
    <g id="text_25">
     <!-- Italy -->
     <defs>
      <path d="M 9.234375 0 
L 9.234375 68.796875 
L 18.5625 68.796875 
L 18.5625 0 
z
" id="LiberationSans-73"/>
     </defs>
     <g style="fill:#262626;" transform="translate(629.051563 102.147853)scale(0.1 -0.1)">
      <use xlink:href="#LiberationSans-73"/>
      <use x="27.783203" xlink:href="#LiberationSans-116"/>
      <use x="55.566406" xlink:href="#LiberationSans-97"/>
      <use x="111.181641" xlink:href="#LiberationSans-108"/>
      <use x="133.398438" xlink:href="#LiberationSans-121"/>
     </g>
    </g>
    <g id="line2d_43">
     <path d="M 601.051563 112.969728 
L 621.051563 112.969728 
" style="fill:none;stroke:#a67d4c;stroke-linecap:round;stroke-width:1.75;"/>
    </g>
    <g id="line2d_44"/>
    <g id="text_26">
     <!-- Netherlands -->
     <g style="fill:#262626;" transform="translate(629.051563 116.469728)scale(0.1 -0.1)">
      <use xlink:href="#LiberationSans-78"/>
      <use x="72.216797" xlink:href="#LiberationSans-101"/>
      <use x="127.832031" xlink:href="#LiberationSans-116"/>
      <use x="155.615234" xlink:href="#LiberationSans-104"/>
      <use x="211.230469" xlink:href="#LiberationSans-101"/>
      <use x="266.845703" xlink:href="#LiberationSans-114"/>
      <use x="300.146484" xlink:href="#LiberationSans-108"/>
      <use x="322.363281" xlink:href="#LiberationSans-97"/>
      <use x="377.978516" xlink:href="#LiberationSans-110"/>
      <use x="433.59375" xlink:href="#LiberationSans-100"/>
      <use x="489.208984" xlink:href="#LiberationSans-115"/>
     </g>
    </g>
    <g id="line2d_45">
     <path d="M 601.051563 127.291603 
L 621.051563 127.291603 
" style="fill:none;stroke:#ea71b3;stroke-linecap:round;stroke-width:1.75;"/>
    </g>
    <g id="line2d_46"/>
    <g id="text_27">
     <!-- Portugal -->
     <defs>
      <path d="M 61.421875 48.09375 
Q 61.421875 43.609375 59.9375 39.71875 
Q 58.453125 35.84375 55.5 32.984375 
Q 52.546875 30.125 48.09375 28.46875 
Q 43.65625 26.8125 37.75 26.8125 
L 17.53125 26.8125 
L 17.53125 0 
L 8.203125 0 
L 8.203125 68.796875 
L 37.15625 68.796875 
Q 43.265625 68.796875 47.796875 67.3125 
Q 52.34375 65.828125 55.375 63.109375 
Q 58.40625 60.40625 59.90625 56.5625 
Q 61.421875 52.734375 61.421875 48.09375 
z
M 52.046875 48 
Q 52.046875 54.546875 48.046875 57.9375 
Q 44.046875 61.328125 36.03125 61.328125 
L 17.53125 61.328125 
L 17.53125 34.1875 
L 36.421875 34.1875 
Q 44.484375 34.1875 48.265625 37.75 
Q 52.046875 41.3125 52.046875 48 
z
" id="LiberationSans-80"/>
      <path d="M 26.765625 -20.75 
Q 22.21875 -20.75 18.703125 -19.8125 
Q 15.1875 -18.890625 12.6875 -17.15625 
Q 10.203125 -15.4375 8.640625 -13.03125 
Q 7.078125 -10.640625 6.390625 -7.71875 
L 15.234375 -6.453125 
Q 16.109375 -10.109375 19.109375 -12.078125 
Q 22.125 -14.0625 27 -14.0625 
Q 29.984375 -14.0625 32.421875 -13.234375 
Q 34.859375 -12.40625 36.5625 -10.5625 
Q 38.28125 -8.734375 39.203125 -5.796875 
Q 40.140625 -2.875 40.140625 1.3125 
L 40.140625 9.8125 
L 40.046875 9.8125 
Q 39.0625 7.8125 37.625 5.984375 
Q 36.1875 4.15625 34.109375 2.734375 
Q 32.03125 1.3125 29.296875 0.453125 
Q 26.5625 -0.390625 23.046875 -0.390625 
Q 18.015625 -0.390625 14.421875 1.296875 
Q 10.84375 2.984375 8.5625 6.34375 
Q 6.296875 9.71875 5.25 14.71875 
Q 4.203125 19.734375 4.203125 26.3125 
Q 4.203125 32.671875 5.25 37.75 
Q 6.296875 42.828125 8.65625 46.359375 
Q 11.03125 49.90625 14.8125 51.78125 
Q 18.609375 53.65625 24.03125 53.65625 
Q 29.640625 53.65625 33.765625 51.09375 
Q 37.890625 48.53125 40.140625 43.796875 
L 40.234375 43.796875 
Q 40.234375 45.015625 40.296875 46.53125 
Q 40.375 48.046875 40.453125 49.390625 
Q 40.53125 50.734375 40.625 51.703125 
Q 40.71875 52.6875 40.828125 52.828125 
L 49.171875 52.828125 
Q 49.125 52.390625 49.078125 51.34375 
Q 49.03125 50.296875 48.96875 48.828125 
Q 48.921875 47.359375 48.890625 45.578125 
Q 48.875 43.796875 48.875 41.890625 
L 48.875 1.515625 
Q 48.875 -9.578125 43.421875 -15.15625 
Q 37.984375 -20.75 26.765625 -20.75 
z
M 40.140625 26.421875 
Q 40.140625 31.9375 38.9375 35.859375 
Q 37.75 39.796875 35.796875 42.28125 
Q 33.84375 44.78125 31.328125 45.953125 
Q 28.8125 47.125 26.171875 47.125 
Q 22.796875 47.125 20.375 45.953125 
Q 17.96875 44.78125 16.375 42.265625 
Q 14.796875 39.75 14.03125 35.8125 
Q 13.28125 31.890625 13.28125 26.421875 
Q 13.28125 20.703125 14.03125 16.8125 
Q 14.796875 12.9375 16.359375 10.546875 
Q 17.921875 8.15625 20.3125 7.125 
Q 22.703125 6.109375 26.03125 6.109375 
Q 28.65625 6.109375 31.171875 7.21875 
Q 33.6875 8.34375 35.6875 10.78125 
Q 37.703125 13.234375 38.921875 17.09375 
Q 40.140625 20.953125 40.140625 26.421875 
z
" id="LiberationSans-103"/>
     </defs>
     <g style="fill:#262626;" transform="translate(629.051563 130.791603)scale(0.1 -0.1)">
      <use xlink:href="#LiberationSans-80"/>
      <use x="66.699219" xlink:href="#LiberationSans-111"/>
      <use x="122.314453" xlink:href="#LiberationSans-114"/>
      <use x="155.615234" xlink:href="#LiberationSans-116"/>
      <use x="183.398438" xlink:href="#LiberationSans-117"/>
      <use x="239.013672" xlink:href="#LiberationSans-103"/>
      <use x="294.628906" xlink:href="#LiberationSans-97"/>
      <use x="350.244141" xlink:href="#LiberationSans-108"/>
     </g>
    </g>
    <g id="line2d_47">
     <path d="M 601.051563 141.613478 
L 621.051563 141.613478 
" style="fill:none;stroke:#5feb16;stroke-linecap:round;stroke-width:1.75;"/>
    </g>
    <g id="line2d_48"/>
    <g id="text_28">
     <!-- Russia -->
     <defs>
      <path d="M 56.84375 0 
L 38.96875 28.5625 
L 17.53125 28.5625 
L 17.53125 0 
L 8.203125 0 
L 8.203125 68.796875 
L 40.578125 68.796875 
Q 46.4375 68.796875 50.953125 67.453125 
Q 55.46875 66.109375 58.546875 63.5625 
Q 61.625 61.03125 63.234375 57.375 
Q 64.84375 53.71875 64.84375 49.125 
Q 64.84375 45.84375 63.890625 42.671875 
Q 62.9375 39.5 60.890625 36.859375 
Q 58.84375 34.234375 55.65625 32.328125 
Q 52.484375 30.421875 48.046875 29.640625 
L 67.578125 0 
z
M 55.46875 49.03125 
Q 55.46875 52.15625 54.390625 54.4375 
Q 53.328125 56.734375 51.265625 58.265625 
Q 49.21875 59.8125 46.28125 60.5625 
Q 43.359375 61.328125 39.65625 61.328125 
L 17.53125 61.328125 
L 17.53125 35.9375 
L 40.046875 35.9375 
Q 44.046875 35.9375 46.96875 36.9375 
Q 49.90625 37.9375 51.78125 39.6875 
Q 53.65625 41.453125 54.5625 43.84375 
Q 55.46875 46.234375 55.46875 49.03125 
z
" id="LiberationSans-82"/>
     </defs>
     <g style="fill:#262626;" transform="translate(629.051563 145.113478)scale(0.1 -0.1)">
      <use xlink:href="#LiberationSans-82"/>
      <use x="72.216797" xlink:href="#LiberationSans-117"/>
      <use x="127.832031" xlink:href="#LiberationSans-115"/>
      <use x="177.832031" xlink:href="#LiberationSans-115"/>
      <use x="227.832031" xlink:href="#LiberationSans-105"/>
      <use x="250.048828" xlink:href="#LiberationSans-97"/>
     </g>
    </g>
    <g id="line2d_49">
     <path d="M 601.051563 155.935353 
L 621.051563 155.935353 
" style="fill:none;stroke:#907eba;stroke-linecap:round;stroke-width:1.75;"/>
    </g>
    <g id="line2d_50"/>
    <g id="text_29">
     <!-- Spain -->
     <defs>
      <path d="M 62.109375 19 
Q 62.109375 14.65625 60.421875 10.984375 
Q 58.734375 7.328125 55.21875 4.65625 
Q 51.703125 2 46.359375 0.5 
Q 41.015625 -0.984375 33.6875 -0.984375 
Q 20.84375 -0.984375 13.671875 3.515625 
Q 6.5 8.015625 4.546875 16.5 
L 13.578125 18.3125 
Q 14.265625 15.625 15.671875 13.421875 
Q 17.09375 11.234375 19.5 9.640625 
Q 21.921875 8.0625 25.484375 7.171875 
Q 29.046875 6.296875 34.03125 6.296875 
Q 38.1875 6.296875 41.65625 7 
Q 45.125 7.71875 47.609375 9.171875 
Q 50.09375 10.640625 51.484375 12.953125 
Q 52.875 15.28125 52.875 18.5 
Q 52.875 21.875 51.34375 23.96875 
Q 49.8125 26.078125 47.015625 27.4375 
Q 44.234375 28.8125 40.375 29.734375 
Q 36.53125 30.671875 31.84375 31.734375 
Q 28.953125 32.375 26.046875 33.125 
Q 23.140625 33.890625 20.484375 34.9375 
Q 17.828125 35.984375 15.484375 37.390625 
Q 13.140625 38.8125 11.421875 40.796875 
Q 9.71875 42.78125 8.734375 45.390625 
Q 7.765625 48 7.765625 51.421875 
Q 7.765625 56.296875 9.734375 59.78125 
Q 11.71875 63.28125 15.234375 65.53125 
Q 18.75 67.78125 23.53125 68.796875 
Q 28.328125 69.828125 33.890625 69.828125 
Q 40.28125 69.828125 44.8125 68.828125 
Q 49.359375 67.828125 52.484375 65.8125 
Q 55.609375 63.8125 57.484375 60.859375 
Q 59.375 57.90625 60.5 54 
L 51.3125 52.390625 
Q 50.640625 54.890625 49.34375 56.84375 
Q 48.046875 58.796875 45.9375 60.109375 
Q 43.84375 61.421875 40.84375 62.109375 
Q 37.84375 62.796875 33.796875 62.796875 
Q 29 62.796875 25.75 61.9375 
Q 22.515625 61.078125 20.53125 59.609375 
Q 18.5625 58.15625 17.703125 56.171875 
Q 16.84375 54.203125 16.84375 51.90625 
Q 16.84375 48.828125 18.375 46.84375 
Q 19.921875 44.875 22.5625 43.546875 
Q 25.203125 42.234375 28.65625 41.359375 
Q 32.125 40.484375 36.03125 39.59375 
Q 39.203125 38.875 42.359375 38.109375 
Q 45.515625 37.359375 48.390625 36.296875 
Q 51.265625 35.25 53.78125 33.828125 
Q 56.296875 32.421875 58.15625 30.375 
Q 60.015625 28.328125 61.0625 25.53125 
Q 62.109375 22.75 62.109375 19 
z
" id="LiberationSans-83"/>
     </defs>
     <g style="fill:#262626;" transform="translate(629.051563 159.435353)scale(0.1 -0.1)">
      <use xlink:href="#LiberationSans-83"/>
      <use x="66.699219" xlink:href="#LiberationSans-112"/>
      <use x="122.314453" xlink:href="#LiberationSans-97"/>
      <use x="177.929688" xlink:href="#LiberationSans-105"/>
      <use x="200.146484" xlink:href="#LiberationSans-110"/>
     </g>
    </g>
    <g id="line2d_51">
     <path d="M 601.051563 170.257228 
L 621.051563 170.257228 
" style="fill:none;stroke:#221cdf;stroke-linecap:round;stroke-width:1.75;"/>
    </g>
    <g id="line2d_52"/>
    <g id="text_30">
     <!-- Turkey -->
     <defs>
      <path d="M 35.15625 61.1875 
L 35.15625 0 
L 25.875 0 
L 25.875 61.1875 
L 2.25 61.1875 
L 2.25 68.796875 
L 58.796875 68.796875 
L 58.796875 61.1875 
z
" id="LiberationSans-84"/>
      <path d="M 39.84375 0 
L 21.96875 24.125 
L 15.53125 18.796875 
L 15.53125 0 
L 6.734375 0 
L 6.734375 72.46875 
L 15.53125 72.46875 
L 15.53125 27.203125 
L 38.71875 52.828125 
L 49.03125 52.828125 
L 27.59375 30.125 
L 50.140625 0 
z
" id="LiberationSans-107"/>
     </defs>
     <g style="fill:#262626;" transform="translate(629.051563 173.757228)scale(0.1 -0.1)">
      <use xlink:href="#LiberationSans-84"/>
      <use x="61.037109" xlink:href="#LiberationSans-117"/>
      <use x="116.652344" xlink:href="#LiberationSans-114"/>
      <use x="149.953125" xlink:href="#LiberationSans-107"/>
      <use x="199.953125" xlink:href="#LiberationSans-101"/>
      <use x="255.568359" xlink:href="#LiberationSans-121"/>
     </g>
    </g>
    <g id="line2d_53">
     <path d="M 601.051563 184.579103 
L 621.051563 184.579103 
" style="fill:none;stroke:#7516fd;stroke-dasharray:6.475,2.8;stroke-dashoffset:0;stroke-width:1.75;"/>
    </g>
    <g id="line2d_54"/>
    <g id="text_31">
     <!-- US -->
     <defs>
      <path d="M 35.6875 -0.984375 
Q 30.03125 -0.984375 24.953125 0.53125 
Q 19.875 2.046875 16.03125 5.25 
Q 12.203125 8.453125 9.953125 13.359375 
Q 7.71875 18.265625 7.71875 25 
L 7.71875 68.796875 
L 17.046875 68.796875 
L 17.046875 25.78125 
Q 17.046875 20.5625 18.4375 16.921875 
Q 19.828125 13.28125 22.3125 10.984375 
Q 24.8125 8.6875 28.203125 7.640625 
Q 31.59375 6.59375 35.640625 6.59375 
Q 39.65625 6.59375 43.21875 7.65625 
Q 46.78125 8.734375 49.46875 11.078125 
Q 52.15625 13.421875 53.6875 17.203125 
Q 55.21875 21 55.21875 26.421875 
L 55.21875 68.796875 
L 64.5 68.796875 
L 64.5 25.875 
Q 64.5 19 62.234375 13.9375 
Q 59.96875 8.890625 56.0625 5.5625 
Q 52.15625 2.25 46.90625 0.625 
Q 41.65625 -0.984375 35.6875 -0.984375 
z
" id="LiberationSans-85"/>
     </defs>
     <g style="fill:#262626;" transform="translate(629.051563 188.079103)scale(0.1 -0.1)">
      <use xlink:href="#LiberationSans-85"/>
      <use x="72.216797" xlink:href="#LiberationSans-83"/>
     </g>
    </g>
    <g id="line2d_55">
     <path d="M 601.051563 198.900978 
L 621.051563 198.900978 
" style="fill:none;stroke:#89f9c9;stroke-linecap:round;stroke-width:1.75;"/>
    </g>
    <g id="line2d_56"/>
    <g id="text_32">
     <!-- United Kingdom -->
     <defs>
      <path d="M 54 0 
L 26.515625 33.203125 
L 17.53125 26.375 
L 17.53125 0 
L 8.203125 0 
L 8.203125 68.796875 
L 17.53125 68.796875 
L 17.53125 34.328125 
L 50.6875 68.796875 
L 61.671875 68.796875 
L 32.375 38.921875 
L 65.578125 0 
z
" id="LiberationSans-75"/>
     </defs>
     <g style="fill:#262626;" transform="translate(629.051563 202.400978)scale(0.1 -0.1)">
      <use xlink:href="#LiberationSans-85"/>
      <use x="72.216797" xlink:href="#LiberationSans-110"/>
      <use x="127.832031" xlink:href="#LiberationSans-105"/>
      <use x="150.048828" xlink:href="#LiberationSans-116"/>
      <use x="177.832031" xlink:href="#LiberationSans-101"/>
      <use x="233.447266" xlink:href="#LiberationSans-100"/>
      <use x="289.0625" xlink:href="#LiberationSans-32"/>
      <use x="316.845703" xlink:href="#LiberationSans-75"/>
      <use x="383.544922" xlink:href="#LiberationSans-105"/>
      <use x="405.761719" xlink:href="#LiberationSans-110"/>
      <use x="461.376953" xlink:href="#LiberationSans-103"/>
      <use x="516.992188" xlink:href="#LiberationSans-100"/>
      <use x="572.607422" xlink:href="#LiberationSans-111"/>
      <use x="628.222656" xlink:href="#LiberationSans-109"/>
     </g>
    </g>
   </g>
  </g>
 </g>
 <defs>
  <clipPath id="p4d36b23a81">
   <rect height="298.745809" width="657.79" x="51.41" y="14.291603"/>
  </clipPath>
 </defs>
</svg>
