<?xml version="1.0" encoding="utf-8" standalone="no"?>
<!DOCTYPE svg PUBLIC "-//W3C//DTD SVG 1.1//EN"
  "http://www.w3.org/Graphics/SVG/1.1/DTD/svg11.dtd">
<!-- Created with matplotlib (https://matplotlib.org/) -->
<svg height="360pt" version="1.1" viewBox="0 0 720 360" width="720pt" xmlns="http://www.w3.org/2000/svg" xmlns:xlink="http://www.w3.org/1999/xlink">
 <defs>
  <style type="text/css">
*{stroke-linecap:butt;stroke-linejoin:round;}
  </style>
 </defs>
 <g id="figure_1">
  <g id="patch_1">
   <path d="M 0 360 
L 720 360 
L 720 0 
L 0 0 
z
" style="fill:#ffffff;"/>
  </g>
  <g id="axes_1">
   <g id="patch_2">
    <path d="M 48.89 309.155396 
L 709.2 309.155396 
L 709.2 10.8 
L 48.89 10.8 
z
" style="fill:#eaeaf2;"/>
   </g>
   <g id="matplotlib.axis_1">
    <g id="xtick_1">
     <g id="line2d_1"/>
     <g id="text_1">
      <!-- 0 -->
      <defs>
       <path d="M 51.703125 34.421875 
Q 51.703125 24.515625 49.828125 17.75 
Q 47.953125 10.984375 44.703125 6.8125 
Q 41.453125 2.640625 37.0625 0.828125 
Q 32.671875 -0.984375 27.6875 -0.984375 
Q 22.65625 -0.984375 18.3125 0.828125 
Q 13.96875 2.640625 10.765625 6.78125 
Q 7.5625 10.9375 5.734375 17.703125 
Q 3.90625 24.46875 3.90625 34.421875 
Q 3.90625 44.828125 5.734375 51.640625 
Q 7.5625 58.453125 10.78125 62.5 
Q 14.015625 66.546875 18.40625 68.1875 
Q 22.796875 69.828125 27.984375 69.828125 
Q 32.90625 69.828125 37.21875 68.1875 
Q 41.546875 66.546875 44.765625 62.5 
Q 48 58.453125 49.84375 51.640625 
Q 51.703125 44.828125 51.703125 34.421875 
z
M 42.78125 34.421875 
Q 42.78125 42.625 41.796875 48.0625 
Q 40.828125 53.515625 38.921875 56.765625 
Q 37.015625 60.015625 34.25 61.359375 
Q 31.5 62.703125 27.984375 62.703125 
Q 24.265625 62.703125 21.4375 61.328125 
Q 18.609375 59.96875 16.671875 56.71875 
Q 14.75 53.46875 13.765625 48.015625 
Q 12.796875 42.578125 12.796875 34.421875 
Q 12.796875 26.515625 13.796875 21.09375 
Q 14.796875 15.671875 16.71875 12.375 
Q 18.65625 9.078125 21.4375 7.640625 
Q 24.21875 6.203125 27.78125 6.203125 
Q 31.25 6.203125 34.03125 7.640625 
Q 36.8125 9.078125 38.734375 12.375 
Q 40.671875 15.671875 41.71875 21.09375 
Q 42.78125 26.515625 42.78125 34.421875 
z
" id="LiberationSans-48"/>
      </defs>
      <g style="fill:#262626;" transform="translate(78.766537 325.211887)rotate(-45)scale(0.1 -0.1)">
       <use xlink:href="#LiberationSans-48"/>
      </g>
     </g>
    </g>
    <g id="xtick_2">
     <g id="line2d_2"/>
     <g id="text_2">
      <!-- 20 -->
      <defs>
       <path d="M 5.03125 0 
L 5.03125 6.203125 
Q 7.515625 11.921875 11.109375 16.28125 
Q 14.703125 20.65625 18.65625 24.1875 
Q 22.609375 27.734375 26.484375 30.765625 
Q 30.375 33.796875 33.5 36.8125 
Q 36.625 39.84375 38.546875 43.15625 
Q 40.484375 46.484375 40.484375 50.6875 
Q 40.484375 53.609375 39.59375 55.828125 
Q 38.71875 58.0625 37.0625 59.5625 
Q 35.40625 61.078125 33.078125 61.828125 
Q 30.765625 62.59375 27.9375 62.59375 
Q 25.296875 62.59375 22.96875 61.859375 
Q 20.65625 61.140625 18.84375 59.671875 
Q 17.046875 58.203125 15.890625 56.03125 
Q 14.75 53.859375 14.40625 50.984375 
L 5.421875 51.8125 
Q 5.859375 55.515625 7.46875 58.78125 
Q 9.078125 62.0625 11.90625 64.53125 
Q 14.75 67 18.71875 68.40625 
Q 22.703125 69.828125 27.9375 69.828125 
Q 33.0625 69.828125 37.0625 68.609375 
Q 41.0625 67.390625 43.8125 64.984375 
Q 46.578125 62.59375 48.046875 59.078125 
Q 49.515625 55.5625 49.515625 50.984375 
Q 49.515625 47.515625 48.265625 44.390625 
Q 47.015625 41.265625 44.9375 38.421875 
Q 42.875 35.59375 40.140625 32.953125 
Q 37.40625 30.328125 34.421875 27.8125 
Q 31.453125 25.296875 28.421875 22.828125 
Q 25.390625 20.359375 22.71875 17.859375 
Q 20.0625 15.375 17.96875 12.8125 
Q 15.875 10.25 14.703125 7.46875 
L 50.59375 7.46875 
L 50.59375 0 
z
" id="LiberationSans-50"/>
      </defs>
      <g style="fill:#262626;" transform="translate(163.171933 329.144064)rotate(-45)scale(0.1 -0.1)">
       <use xlink:href="#LiberationSans-50"/>
       <use x="55.615234" xlink:href="#LiberationSans-48"/>
      </g>
     </g>
    </g>
    <g id="xtick_3">
     <g id="line2d_3"/>
     <g id="text_3">
      <!-- 40 -->
      <defs>
       <path d="M 43.015625 15.578125 
L 43.015625 0 
L 34.71875 0 
L 34.71875 15.578125 
L 2.296875 15.578125 
L 2.296875 22.40625 
L 33.796875 68.796875 
L 43.015625 68.796875 
L 43.015625 22.515625 
L 52.6875 22.515625 
L 52.6875 15.578125 
z
M 34.71875 58.890625 
Q 34.625 58.640625 34.234375 57.9375 
Q 33.84375 57.234375 33.34375 56.34375 
Q 32.859375 55.46875 32.34375 54.5625 
Q 31.84375 53.65625 31.453125 53.078125 
L 13.8125 27.09375 
Q 13.578125 26.703125 13.109375 26.0625 
Q 12.640625 25.4375 12.15625 24.78125 
Q 11.671875 24.125 11.171875 23.484375 
Q 10.6875 22.859375 10.40625 22.515625 
L 34.71875 22.515625 
z
" id="LiberationSans-52"/>
      </defs>
      <g style="fill:#262626;" transform="translate(249.543417 329.144064)rotate(-45)scale(0.1 -0.1)">
       <use xlink:href="#LiberationSans-52"/>
       <use x="55.615234" xlink:href="#LiberationSans-48"/>
      </g>
     </g>
    </g>
    <g id="xtick_4">
     <g id="line2d_4"/>
     <g id="text_4">
      <!-- 60 -->
      <defs>
       <path d="M 51.21875 22.515625 
Q 51.21875 17.328125 49.78125 13 
Q 48.34375 8.6875 45.53125 5.578125 
Q 42.71875 2.484375 38.5625 0.75 
Q 34.421875 -0.984375 29 -0.984375 
Q 23 -0.984375 18.5 1.3125 
Q 14.015625 3.609375 11.03125 7.921875 
Q 8.0625 12.25 6.5625 18.53125 
Q 5.078125 24.8125 5.078125 32.8125 
Q 5.078125 42 6.765625 48.921875 
Q 8.453125 55.859375 11.625 60.5 
Q 14.796875 65.140625 19.359375 67.484375 
Q 23.921875 69.828125 29.6875 69.828125 
Q 33.203125 69.828125 36.28125 69.09375 
Q 39.359375 68.359375 41.875 66.71875 
Q 44.390625 65.09375 46.28125 62.40625 
Q 48.1875 59.71875 49.3125 55.8125 
L 40.921875 54.296875 
Q 39.546875 58.734375 36.546875 60.71875 
Q 33.546875 62.703125 29.59375 62.703125 
Q 25.984375 62.703125 23.046875 60.984375 
Q 20.125 59.28125 18.0625 55.875 
Q 16.015625 52.484375 14.90625 47.359375 
Q 13.8125 42.234375 13.8125 35.40625 
Q 16.21875 39.84375 20.5625 42.15625 
Q 24.90625 44.484375 30.515625 44.484375 
Q 35.203125 44.484375 39.015625 42.96875 
Q 42.828125 41.453125 45.53125 38.59375 
Q 48.25 35.75 49.734375 31.671875 
Q 51.21875 27.59375 51.21875 22.515625 
z
M 42.28125 22.125 
Q 42.28125 25.6875 41.40625 28.5625 
Q 40.53125 31.453125 38.765625 33.46875 
Q 37.015625 35.5 34.421875 36.59375 
Q 31.84375 37.703125 28.421875 37.703125 
Q 26.03125 37.703125 23.578125 36.984375 
Q 21.140625 36.28125 19.15625 34.6875 
Q 17.1875 33.109375 15.9375 30.515625 
Q 14.703125 27.9375 14.703125 24.21875 
Q 14.703125 20.40625 15.671875 17.109375 
Q 16.65625 13.8125 18.484375 11.375 
Q 20.3125 8.9375 22.890625 7.515625 
Q 25.484375 6.109375 28.71875 6.109375 
Q 31.890625 6.109375 34.40625 7.203125 
Q 36.921875 8.296875 38.671875 10.375 
Q 40.4375 12.453125 41.359375 15.421875 
Q 42.28125 18.40625 42.28125 22.125 
z
" id="LiberationSans-54"/>
      </defs>
      <g style="fill:#262626;" transform="translate(335.914902 329.144064)rotate(-45)scale(0.1 -0.1)">
       <use xlink:href="#LiberationSans-54"/>
       <use x="55.615234" xlink:href="#LiberationSans-48"/>
      </g>
     </g>
    </g>
    <g id="xtick_5">
     <g id="line2d_5"/>
     <g id="text_5">
      <!-- 80 -->
      <defs>
       <path d="M 51.265625 19.1875 
Q 51.265625 14.796875 49.875 11.109375 
Q 48.484375 7.421875 45.625 4.734375 
Q 42.78125 2.046875 38.328125 0.53125 
Q 33.890625 -0.984375 27.828125 -0.984375 
Q 21.78125 -0.984375 17.359375 0.53125 
Q 12.9375 2.046875 10.03125 4.703125 
Q 7.125 7.375 5.734375 11.0625 
Q 4.34375 14.75 4.34375 19.09375 
Q 4.34375 22.859375 5.484375 25.78125 
Q 6.640625 28.71875 8.5625 30.828125 
Q 10.5 32.953125 12.96875 34.25 
Q 15.4375 35.546875 18.0625 35.984375 
L 18.0625 36.1875 
Q 15.1875 36.859375 12.90625 38.375 
Q 10.640625 39.890625 9.09375 42.015625 
Q 7.5625 44.140625 6.75 46.71875 
Q 5.953125 49.3125 5.953125 52.203125 
Q 5.953125 55.8125 7.34375 59 
Q 8.734375 62.203125 11.46875 64.625 
Q 14.203125 67.046875 18.25 68.4375 
Q 22.3125 69.828125 27.640625 69.828125 
Q 33.25 69.828125 37.375 68.40625 
Q 41.5 67 44.203125 64.578125 
Q 46.921875 62.15625 48.234375 58.9375 
Q 49.5625 55.71875 49.5625 52.09375 
Q 49.5625 49.265625 48.75 46.671875 
Q 47.953125 44.09375 46.40625 41.96875 
Q 44.875 39.84375 42.59375 38.34375 
Q 40.328125 36.859375 37.359375 36.28125 
L 37.359375 36.078125 
Q 40.328125 35.59375 42.859375 34.296875 
Q 45.40625 33.015625 47.265625 30.890625 
Q 49.125 28.765625 50.1875 25.828125 
Q 51.265625 22.90625 51.265625 19.1875 
z
M 40.4375 51.609375 
Q 40.4375 54.203125 39.765625 56.34375 
Q 39.109375 58.5 37.59375 60.03125 
Q 36.078125 61.578125 33.640625 62.421875 
Q 31.203125 63.28125 27.640625 63.28125 
Q 24.171875 63.28125 21.78125 62.421875 
Q 19.390625 61.578125 17.84375 60.03125 
Q 16.3125 58.5 15.625 56.34375 
Q 14.9375 54.203125 14.9375 51.609375 
Q 14.9375 49.5625 15.46875 47.40625 
Q 16.015625 45.265625 17.421875 43.5 
Q 18.84375 41.75 21.328125 40.625 
Q 23.828125 39.5 27.734375 39.5 
Q 31.890625 39.5 34.40625 40.625 
Q 36.921875 41.75 38.25 43.5 
Q 39.59375 45.265625 40.015625 47.40625 
Q 40.4375 49.5625 40.4375 51.609375 
z
M 42.140625 20.015625 
Q 42.140625 22.515625 41.453125 24.828125 
Q 40.765625 27.15625 39.109375 28.9375 
Q 37.453125 30.71875 34.640625 31.8125 
Q 31.84375 32.90625 27.640625 32.90625 
Q 23.78125 32.90625 21.0625 31.8125 
Q 18.359375 30.71875 16.671875 28.90625 
Q 14.984375 27.09375 14.203125 24.71875 
Q 13.421875 22.359375 13.421875 19.828125 
Q 13.421875 16.65625 14.203125 14.03125 
Q 14.984375 11.421875 16.6875 9.546875 
Q 18.40625 7.671875 21.1875 6.640625 
Q 23.96875 5.609375 27.9375 5.609375 
Q 31.9375 5.609375 34.671875 6.640625 
Q 37.40625 7.671875 39.0625 9.546875 
Q 40.71875 11.421875 41.421875 14.078125 
Q 42.140625 16.75 42.140625 20.015625 
z
" id="LiberationSans-56"/>
      </defs>
      <g style="fill:#262626;" transform="translate(422.286387 329.144064)rotate(-45)scale(0.1 -0.1)">
       <use xlink:href="#LiberationSans-56"/>
       <use x="55.615234" xlink:href="#LiberationSans-48"/>
      </g>
     </g>
    </g>
    <g id="xtick_6">
     <g id="line2d_6"/>
     <g id="text_6">
      <!-- 100 -->
      <defs>
       <path d="M 7.625 0 
L 7.625 7.46875 
L 25.140625 7.46875 
L 25.140625 60.40625 
L 9.625 49.3125 
L 9.625 57.625 
L 25.875 68.796875 
L 33.984375 68.796875 
L 33.984375 7.46875 
L 50.734375 7.46875 
L 50.734375 0 
z
" id="LiberationSans-49"/>
      </defs>
      <g style="fill:#262626;" transform="translate(506.691783 333.07624)rotate(-45)scale(0.1 -0.1)">
       <use xlink:href="#LiberationSans-49"/>
       <use x="55.615234" xlink:href="#LiberationSans-48"/>
       <use x="111.230469" xlink:href="#LiberationSans-48"/>
      </g>
     </g>
    </g>
    <g id="xtick_7">
     <g id="line2d_7"/>
     <g id="text_7">
      <!-- 120 -->
      <g style="fill:#262626;" transform="translate(593.063268 333.07624)rotate(-45)scale(0.1 -0.1)">
       <use xlink:href="#LiberationSans-49"/>
       <use x="55.615234" xlink:href="#LiberationSans-50"/>
       <use x="111.230469" xlink:href="#LiberationSans-48"/>
      </g>
     </g>
    </g>
    <g id="xtick_8">
     <g id="line2d_8"/>
     <g id="text_8">
      <!-- 140 -->
      <g style="fill:#262626;" transform="translate(679.434752 333.07624)rotate(-45)scale(0.1 -0.1)">
       <use xlink:href="#LiberationSans-49"/>
       <use x="55.615234" xlink:href="#LiberationSans-52"/>
       <use x="111.230469" xlink:href="#LiberationSans-48"/>
      </g>
     </g>
    </g>
    <g id="text_9">
     <!-- Days since case nº20 -->
     <defs>
      <path d="M 67.4375 35.109375 
Q 67.4375 26.515625 64.84375 19.9375 
Q 62.25 13.375 57.75 8.953125 
Q 53.265625 4.546875 47.140625 2.265625 
Q 41.015625 0 33.9375 0 
L 8.203125 0 
L 8.203125 68.796875 
L 30.953125 68.796875 
Q 38.921875 68.796875 45.625 66.8125 
Q 52.34375 64.84375 57.171875 60.71875 
Q 62.015625 56.59375 64.71875 50.234375 
Q 67.4375 43.890625 67.4375 35.109375 
z
M 58.0625 35.109375 
Q 58.0625 42.09375 56.046875 47.046875 
Q 54.046875 52 50.4375 55.171875 
Q 46.828125 58.34375 41.796875 59.828125 
Q 36.765625 61.328125 30.765625 61.328125 
L 17.53125 61.328125 
L 17.53125 7.46875 
L 32.859375 7.46875 
Q 38.28125 7.46875 42.890625 9.21875 
Q 47.515625 10.984375 50.875 14.453125 
Q 54.25 17.921875 56.15625 23.09375 
Q 58.0625 28.265625 58.0625 35.109375 
z
" id="LiberationSans-68"/>
      <path d="M 20.21875 -0.984375 
Q 12.25 -0.984375 8.25 3.21875 
Q 4.25 7.421875 4.25 14.75 
Q 4.25 19.96875 6.21875 23.3125 
Q 8.203125 26.65625 11.390625 28.5625 
Q 14.59375 30.46875 18.6875 31.203125 
Q 22.796875 31.9375 27.046875 32.03125 
L 38.921875 32.234375 
L 38.921875 35.109375 
Q 38.921875 38.375 38.234375 40.671875 
Q 37.546875 42.96875 36.125 44.375 
Q 34.71875 45.796875 32.59375 46.453125 
Q 30.46875 47.125 27.59375 47.125 
Q 25.046875 47.125 23 46.75 
Q 20.953125 46.390625 19.4375 45.4375 
Q 17.921875 44.484375 16.984375 42.84375 
Q 16.0625 41.21875 15.765625 38.71875 
L 6.59375 39.546875 
Q 7.078125 42.671875 8.4375 45.28125 
Q 9.8125 47.90625 12.328125 49.796875 
Q 14.84375 51.703125 18.625 52.75 
Q 22.40625 53.8125 27.78125 53.8125 
Q 37.75 53.8125 42.765625 49.234375 
Q 47.796875 44.671875 47.796875 36.03125 
L 47.796875 13.28125 
Q 47.796875 9.375 48.828125 7.390625 
Q 49.859375 5.421875 52.734375 5.421875 
Q 53.46875 5.421875 54.203125 5.515625 
Q 54.9375 5.609375 55.609375 5.765625 
L 55.609375 0.296875 
Q 53.953125 -0.09375 52.3125 -0.28125 
Q 50.6875 -0.484375 48.828125 -0.484375 
Q 46.34375 -0.484375 44.5625 0.171875 
Q 42.78125 0.828125 41.65625 2.171875 
Q 40.53125 3.515625 39.9375 5.484375 
Q 39.359375 7.46875 39.203125 10.109375 
L 38.921875 10.109375 
Q 37.5 7.5625 35.8125 5.515625 
Q 34.125 3.46875 31.875 2.03125 
Q 29.640625 0.59375 26.78125 -0.1875 
Q 23.921875 -0.984375 20.21875 -0.984375 
z
M 22.21875 5.609375 
Q 26.421875 5.609375 29.5625 7.140625 
Q 32.71875 8.6875 34.78125 11.078125 
Q 36.859375 13.484375 37.890625 16.3125 
Q 38.921875 19.140625 38.921875 21.734375 
L 38.921875 26.078125 
L 29.296875 25.875 
Q 26.078125 25.828125 23.171875 25.40625 
Q 20.265625 25 18.0625 23.78125 
Q 15.875 22.5625 14.578125 20.359375 
Q 13.28125 18.171875 13.28125 14.59375 
Q 13.28125 10.296875 15.59375 7.953125 
Q 17.921875 5.609375 22.21875 5.609375 
z
" id="LiberationSans-97"/>
      <path d="M 29.5 0 
Q 27.640625 -4.78125 25.703125 -8.609375 
Q 23.78125 -12.453125 21.390625 -15.15625 
Q 19 -17.875 16.0625 -19.3125 
Q 13.140625 -20.75 9.328125 -20.75 
Q 7.671875 -20.75 6.25 -20.65625 
Q 4.828125 -20.5625 3.265625 -20.21875 
L 3.265625 -13.625 
Q 4.203125 -13.765625 5.375 -13.84375 
Q 6.546875 -13.921875 7.375 -13.921875 
Q 11.234375 -13.921875 14.546875 -11.03125 
Q 17.875 -8.15625 20.359375 -1.859375 
L 21.1875 0.25 
L 0.25 52.828125 
L 9.625 52.828125 
L 20.75 23.640625 
Q 21.234375 22.3125 21.984375 20.109375 
Q 22.75 17.921875 23.5 15.71875 
Q 24.265625 13.53125 24.84375 11.765625 
Q 25.4375 10.015625 25.53125 9.578125 
Q 25.6875 10.109375 26.25 11.6875 
Q 26.8125 13.28125 27.515625 15.234375 
Q 28.21875 17.1875 28.953125 19.1875 
Q 29.6875 21.1875 30.171875 22.65625 
L 40.53125 52.828125 
L 49.8125 52.828125 
z
" id="LiberationSans-121"/>
      <path d="M 46.390625 14.59375 
Q 46.390625 10.890625 44.9375 7.984375 
Q 43.5 5.078125 40.765625 3.09375 
Q 38.03125 1.125 34.046875 0.0625 
Q 30.078125 -0.984375 24.953125 -0.984375 
Q 20.359375 -0.984375 16.671875 -0.265625 
Q 12.984375 0.4375 10.203125 2 
Q 7.421875 3.5625 5.53125 6.125 
Q 3.65625 8.6875 2.78125 12.40625 
L 10.546875 13.921875 
Q 11.671875 9.671875 15.1875 7.6875 
Q 18.703125 5.71875 24.953125 5.71875 
Q 27.78125 5.71875 30.140625 6.109375 
Q 32.515625 6.5 34.21875 7.453125 
Q 35.9375 8.40625 36.890625 9.984375 
Q 37.84375 11.578125 37.84375 13.921875 
Q 37.84375 16.3125 36.71875 17.84375 
Q 35.59375 19.390625 33.59375 20.40625 
Q 31.59375 21.4375 28.734375 22.1875 
Q 25.875 22.953125 22.46875 23.875 
Q 19.28125 24.703125 16.15625 25.734375 
Q 13.03125 26.765625 10.515625 28.4375 
Q 8.015625 30.125 6.453125 32.609375 
Q 4.890625 35.109375 4.890625 38.875 
Q 4.890625 46.09375 10.03125 49.875 
Q 15.1875 53.65625 25.046875 53.65625 
Q 33.796875 53.65625 38.9375 50.578125 
Q 44.09375 47.515625 45.453125 40.71875 
L 37.546875 39.75 
Q 37.109375 41.796875 35.9375 43.1875 
Q 34.765625 44.578125 33.109375 45.4375 
Q 31.453125 46.296875 29.375 46.65625 
Q 27.296875 47.015625 25.046875 47.015625 
Q 19.09375 47.015625 16.25 45.203125 
Q 13.421875 43.40625 13.421875 39.75 
Q 13.421875 37.59375 14.46875 36.203125 
Q 15.53125 34.8125 17.40625 33.859375 
Q 19.28125 32.90625 21.921875 32.203125 
Q 24.5625 31.5 27.734375 30.71875 
Q 29.828125 30.171875 32.03125 29.5625 
Q 34.234375 28.953125 36.296875 28.09375 
Q 38.375 27.25 40.203125 26.09375 
Q 42.046875 24.953125 43.40625 23.34375 
Q 44.78125 21.734375 45.578125 19.578125 
Q 46.390625 17.4375 46.390625 14.59375 
z
" id="LiberationSans-115"/>
      <path id="LiberationSans-32"/>
      <path d="M 6.6875 64.0625 
L 6.6875 72.46875 
L 15.484375 72.46875 
L 15.484375 64.0625 
z
M 6.6875 0 
L 6.6875 52.828125 
L 15.484375 52.828125 
L 15.484375 0 
z
" id="LiberationSans-105"/>
      <path d="M 40.28125 0 
L 40.28125 33.5 
Q 40.28125 37.359375 39.71875 39.9375 
Q 39.15625 42.53125 37.890625 44.109375 
Q 36.625 45.703125 34.546875 46.359375 
Q 32.46875 47.015625 29.390625 47.015625 
Q 26.265625 47.015625 23.75 45.921875 
Q 21.234375 44.828125 19.453125 42.75 
Q 17.671875 40.671875 16.6875 37.625 
Q 15.71875 34.578125 15.71875 30.609375 
L 15.71875 0 
L 6.9375 0 
L 6.9375 41.546875 
Q 6.9375 43.21875 6.90625 45.046875 
Q 6.890625 46.875 6.828125 48.5 
Q 6.78125 50.140625 6.734375 51.3125 
Q 6.6875 52.484375 6.640625 52.828125 
L 14.9375 52.828125 
Q 14.984375 52.59375 15.03125 51.515625 
Q 15.09375 50.4375 15.15625 49.046875 
Q 15.234375 47.65625 15.28125 46.21875 
Q 15.328125 44.78125 15.328125 43.796875 
L 15.484375 43.796875 
Q 16.75 46.09375 18.265625 47.953125 
Q 19.78125 49.8125 21.78125 51.09375 
Q 23.78125 52.390625 26.359375 53.09375 
Q 28.953125 53.8125 32.375 53.8125 
Q 36.765625 53.8125 39.9375 52.734375 
Q 43.109375 51.65625 45.15625 49.40625 
Q 47.21875 47.171875 48.171875 43.625 
Q 49.125 40.09375 49.125 35.203125 
L 49.125 0 
z
" id="LiberationSans-110"/>
      <path d="M 13.421875 26.65625 
Q 13.421875 22.125 14.078125 18.3125 
Q 14.75 14.5 16.3125 11.734375 
Q 17.875 8.984375 20.4375 7.46875 
Q 23 5.953125 26.765625 5.953125 
Q 31.453125 5.953125 34.59375 8.484375 
Q 37.75 11.03125 38.484375 16.3125 
L 47.359375 15.71875 
Q 46.921875 12.453125 45.453125 9.421875 
Q 44 6.390625 41.484375 4.09375 
Q 38.96875 1.8125 35.34375 0.40625 
Q 31.734375 -0.984375 27 -0.984375 
Q 20.796875 -0.984375 16.453125 1.109375 
Q 12.109375 3.21875 9.390625 6.90625 
Q 6.6875 10.59375 5.46875 15.59375 
Q 4.25 20.609375 4.25 26.46875 
Q 4.25 31.78125 5.125 35.859375 
Q 6 39.9375 7.59375 42.984375 
Q 9.1875 46.046875 11.328125 48.125 
Q 13.484375 50.203125 15.984375 51.4375 
Q 18.5 52.6875 21.28125 53.25 
Q 24.078125 53.8125 26.90625 53.8125 
Q 31.34375 53.8125 34.8125 52.59375 
Q 38.28125 51.375 40.796875 49.25 
Q 43.3125 47.125 44.875 44.234375 
Q 46.4375 41.359375 47.078125 38.03125 
L 38.03125 37.359375 
Q 37.359375 41.75 34.5625 44.328125 
Q 31.78125 46.921875 26.65625 46.921875 
Q 22.90625 46.921875 20.390625 45.671875 
Q 17.875 44.4375 16.3125 41.921875 
Q 14.75 39.40625 14.078125 35.59375 
Q 13.421875 31.78125 13.421875 26.65625 
z
" id="LiberationSans-99"/>
      <path d="M 13.484375 24.5625 
Q 13.484375 20.40625 14.328125 16.90625 
Q 15.1875 13.421875 16.96875 10.90625 
Q 18.75 8.40625 21.53125 7 
Q 24.3125 5.609375 28.21875 5.609375 
Q 33.9375 5.609375 37.375 7.90625 
Q 40.828125 10.203125 42.046875 13.71875 
L 49.75 11.53125 
Q 48.921875 9.328125 47.4375 7.109375 
Q 45.953125 4.890625 43.453125 3.09375 
Q 40.96875 1.3125 37.234375 0.15625 
Q 33.5 -0.984375 28.21875 -0.984375 
Q 16.5 -0.984375 10.375 6 
Q 4.25 12.984375 4.25 26.765625 
Q 4.25 34.1875 6.09375 39.328125 
Q 7.953125 44.484375 11.171875 47.703125 
Q 14.40625 50.921875 18.703125 52.359375 
Q 23 53.8125 27.875 53.8125 
Q 34.515625 53.8125 38.984375 51.65625 
Q 43.453125 49.515625 46.15625 45.71875 
Q 48.875 41.9375 50.015625 36.8125 
Q 51.171875 31.6875 51.171875 25.734375 
L 51.171875 24.5625 
z
M 42.09375 31.296875 
Q 41.359375 39.65625 37.84375 43.484375 
Q 34.328125 47.3125 27.734375 47.3125 
Q 25.53125 47.3125 23.109375 46.609375 
Q 20.703125 45.90625 18.65625 44.09375 
Q 16.609375 42.28125 15.1875 39.171875 
Q 13.765625 36.078125 13.578125 31.296875 
z
" id="LiberationSans-101"/>
      <path d="M 35.296875 50.875 
Q 35.296875 41.703125 31 36.734375 
Q 26.703125 31.78125 18.171875 31.78125 
Q 9.96875 31.78125 5.640625 36.6875 
Q 1.3125 41.609375 1.3125 50.875 
Q 1.3125 55.328125 2.359375 58.859375 
Q 3.421875 62.40625 5.546875 64.859375 
Q 7.671875 67.328125 10.859375 68.625 
Q 14.0625 69.921875 18.359375 69.921875 
Q 22.90625 69.921875 26.09375 68.625 
Q 29.296875 67.328125 31.34375 64.890625 
Q 33.40625 62.453125 34.34375 58.90625 
Q 35.296875 55.375 35.296875 50.875 
z
M 28.03125 50.875 
Q 28.03125 54.9375 27.421875 57.609375 
Q 26.8125 60.296875 25.578125 61.890625 
Q 24.359375 63.484375 22.59375 64.140625 
Q 20.84375 64.796875 18.5 64.796875 
Q 16.15625 64.796875 14.328125 64.140625 
Q 12.5 63.484375 11.25 61.859375 
Q 10.015625 60.25 9.375 57.5625 
Q 8.734375 54.890625 8.734375 50.875 
Q 8.734375 46.78125 9.421875 44.09375 
Q 10.109375 41.40625 11.34375 39.796875 
Q 12.59375 38.1875 14.296875 37.546875 
Q 16.015625 36.921875 18.109375 36.921875 
Q 20.515625 36.921875 22.34375 37.546875 
Q 24.171875 38.1875 25.4375 39.796875 
Q 26.703125 41.40625 27.359375 44.09375 
Q 28.03125 46.78125 28.03125 50.875 
z
" id="LiberationSans-186"/>
     </defs>
     <g style="fill:#262626;" transform="translate(326.289688 346.51505)scale(0.11 -0.11)">
      <use xlink:href="#LiberationSans-68"/>
      <use x="72.216797" xlink:href="#LiberationSans-97"/>
      <use x="127.832031" xlink:href="#LiberationSans-121"/>
      <use x="177.832031" xlink:href="#LiberationSans-115"/>
      <use x="227.832031" xlink:href="#LiberationSans-32"/>
      <use x="255.615234" xlink:href="#LiberationSans-115"/>
      <use x="305.615234" xlink:href="#LiberationSans-105"/>
      <use x="327.832031" xlink:href="#LiberationSans-110"/>
      <use x="383.447266" xlink:href="#LiberationSans-99"/>
      <use x="433.447266" xlink:href="#LiberationSans-101"/>
      <use x="489.0625" xlink:href="#LiberationSans-32"/>
      <use x="516.845703" xlink:href="#LiberationSans-99"/>
      <use x="566.845703" xlink:href="#LiberationSans-97"/>
      <use x="622.460938" xlink:href="#LiberationSans-115"/>
      <use x="672.460938" xlink:href="#LiberationSans-101"/>
      <use x="728.076172" xlink:href="#LiberationSans-32"/>
      <use x="755.859375" xlink:href="#LiberationSans-110"/>
      <use x="811.474609" xlink:href="#LiberationSans-186"/>
      <use x="847.998047" xlink:href="#LiberationSans-50"/>
      <use x="903.613281" xlink:href="#LiberationSans-48"/>
     </g>
    </g>
   </g>
   <g id="matplotlib.axis_2">
    <g id="ytick_1">
     <g id="line2d_9"/>
     <g id="text_10">
      <!-- −50 -->
      <defs>
       <path d="M 4.9375 29.6875 
L 4.9375 36.8125 
L 53.515625 36.8125 
L 53.515625 29.6875 
z
" id="LiberationSans-8722"/>
       <path d="M 51.421875 22.40625 
Q 51.421875 17.234375 49.859375 12.9375 
Q 48.296875 8.640625 45.21875 5.53125 
Q 42.140625 2.4375 37.578125 0.71875 
Q 33.015625 -0.984375 27 -0.984375 
Q 21.578125 -0.984375 17.546875 0.28125 
Q 13.53125 1.5625 10.734375 3.78125 
Q 7.953125 6 6.3125 8.984375 
Q 4.6875 11.96875 4 15.375 
L 12.890625 16.40625 
Q 13.421875 14.453125 14.390625 12.625 
Q 15.375 10.796875 17.0625 9.34375 
Q 18.75 7.90625 21.21875 7.046875 
Q 23.6875 6.203125 27.203125 6.203125 
Q 30.609375 6.203125 33.390625 7.25 
Q 36.1875 8.296875 38.15625 10.34375 
Q 40.140625 12.40625 41.203125 15.375 
Q 42.28125 18.359375 42.28125 22.21875 
Q 42.28125 25.390625 41.25 28.046875 
Q 40.234375 30.71875 38.328125 32.640625 
Q 36.421875 34.578125 33.65625 35.640625 
Q 30.90625 36.71875 27.390625 36.71875 
Q 25.203125 36.71875 23.34375 36.328125 
Q 21.484375 35.9375 19.890625 35.25 
Q 18.3125 34.578125 17.015625 33.671875 
Q 15.71875 32.765625 14.59375 31.78125 
L 6 31.78125 
L 8.296875 68.796875 
L 47.40625 68.796875 
L 47.40625 61.328125 
L 16.3125 61.328125 
L 14.984375 39.5 
Q 17.328125 41.3125 20.84375 42.59375 
Q 24.359375 43.890625 29.203125 43.890625 
Q 34.328125 43.890625 38.421875 42.328125 
Q 42.53125 40.765625 45.40625 37.90625 
Q 48.296875 35.0625 49.859375 31.109375 
Q 51.421875 27.15625 51.421875 22.40625 
z
" id="LiberationSans-53"/>
      </defs>
      <g style="fill:#262626;" transform="translate(24.9275 312.047212)scale(0.1 -0.1)">
       <use xlink:href="#LiberationSans-8722"/>
       <use x="58.398438" xlink:href="#LiberationSans-53"/>
       <use x="114.013672" xlink:href="#LiberationSans-48"/>
      </g>
     </g>
    </g>
    <g id="ytick_2">
     <g id="line2d_10"/>
     <g id="text_11">
      <!-- 0 -->
      <g style="fill:#262626;" transform="translate(36.329063 254.969163)scale(0.1 -0.1)">
       <use xlink:href="#LiberationSans-48"/>
      </g>
     </g>
    </g>
    <g id="ytick_3">
     <g id="line2d_11"/>
     <g id="text_12">
      <!-- 50 -->
      <g style="fill:#262626;" transform="translate(30.768125 197.891114)scale(0.1 -0.1)">
       <use xlink:href="#LiberationSans-53"/>
       <use x="55.615234" xlink:href="#LiberationSans-48"/>
      </g>
     </g>
    </g>
    <g id="ytick_4">
     <g id="line2d_12"/>
     <g id="text_13">
      <!-- 100 -->
      <g style="fill:#262626;" transform="translate(25.207188 140.813065)scale(0.1 -0.1)">
       <use xlink:href="#LiberationSans-49"/>
       <use x="55.615234" xlink:href="#LiberationSans-48"/>
       <use x="111.230469" xlink:href="#LiberationSans-48"/>
      </g>
     </g>
    </g>
    <g id="ytick_5">
     <g id="line2d_13"/>
     <g id="text_14">
      <!-- 150 -->
      <g style="fill:#262626;" transform="translate(25.207188 83.735016)scale(0.1 -0.1)">
       <use xlink:href="#LiberationSans-49"/>
       <use x="55.615234" xlink:href="#LiberationSans-53"/>
       <use x="111.230469" xlink:href="#LiberationSans-48"/>
      </g>
     </g>
    </g>
    <g id="ytick_6">
     <g id="line2d_14"/>
     <g id="text_15">
      <!-- 200 -->
      <g style="fill:#262626;" transform="translate(25.207188 26.656967)scale(0.1 -0.1)">
       <use xlink:href="#LiberationSans-50"/>
       <use x="55.615234" xlink:href="#LiberationSans-48"/>
       <use x="111.230469" xlink:href="#LiberationSans-48"/>
      </g>
     </g>
    </g>
    <g id="text_16">
     <!-- New infections over 1M population -->
     <defs>
      <path d="M 52.828125 0 
L 16.015625 58.59375 
Q 16.109375 56.203125 16.265625 53.859375 
Q 16.359375 51.859375 16.421875 49.625 
Q 16.5 47.40625 16.5 45.703125 
L 16.5 0 
L 8.203125 0 
L 8.203125 68.796875 
L 19.046875 68.796875 
L 56.25 9.8125 
Q 56.109375 12.203125 55.953125 14.59375 
Q 55.859375 16.65625 55.765625 19.0625 
Q 55.671875 21.484375 55.671875 23.6875 
L 55.671875 68.796875 
L 64.0625 68.796875 
L 64.0625 0 
z
" id="LiberationSans-78"/>
      <path d="M 57.328125 0 
L 47.125 0 
L 38.671875 34.078125 
Q 38.28125 35.40625 37.859375 37.359375 
Q 37.453125 39.3125 37.0625 41.15625 
Q 36.578125 43.3125 36.140625 45.609375 
Q 35.6875 43.40625 35.203125 41.265625 
Q 34.8125 39.40625 34.34375 37.40625 
Q 33.890625 35.40625 33.5 33.890625 
L 24.8125 0 
L 14.65625 0 
L -0.140625 52.828125 
L 8.546875 52.828125 
L 17.484375 16.9375 
Q 17.828125 15.828125 18.15625 14.1875 
Q 18.5 12.546875 18.84375 10.984375 
Q 19.1875 9.1875 19.578125 7.28125 
Q 19.96875 9.125 20.40625 10.890625 
Q 20.796875 12.40625 21.1875 13.96875 
Q 21.578125 15.53125 21.875 16.546875 
L 31.453125 52.828125 
L 40.875 52.828125 
L 50.09375 16.546875 
Q 50.4375 15.28125 50.828125 13.671875 
Q 51.21875 12.0625 51.5625 10.640625 
Q 51.953125 8.984375 52.34375 7.28125 
Q 52.734375 9.125 53.125 10.890625 
Q 53.46875 12.40625 53.828125 14.03125 
Q 54.203125 15.671875 54.546875 16.9375 
L 63.875 52.828125 
L 72.46875 52.828125 
z
" id="LiberationSans-119"/>
      <path d="M 17.625 46.4375 
L 17.625 0 
L 8.84375 0 
L 8.84375 46.4375 
L 1.421875 46.4375 
L 1.421875 52.828125 
L 8.84375 52.828125 
L 8.84375 58.796875 
Q 8.84375 61.671875 9.375 64.140625 
Q 9.90625 66.609375 11.34375 68.4375 
Q 12.796875 70.265625 15.28125 71.3125 
Q 17.78125 72.359375 21.734375 72.359375 
Q 23.296875 72.359375 24.96875 72.21875 
Q 26.65625 72.078125 27.9375 71.78125 
L 27.9375 65.09375 
Q 27.09375 65.234375 26 65.359375 
Q 24.90625 65.484375 24.03125 65.484375 
Q 22.078125 65.484375 20.828125 64.9375 
Q 19.578125 64.40625 18.875 63.40625 
Q 18.171875 62.40625 17.890625 60.9375 
Q 17.625 59.46875 17.625 57.5625 
L 17.625 52.828125 
L 27.9375 52.828125 
L 27.9375 46.4375 
z
" id="LiberationSans-102"/>
      <path d="M 27.046875 0.390625 
Q 25.046875 -0.140625 22.96875 -0.453125 
Q 20.90625 -0.78125 18.171875 -0.78125 
Q 7.625 -0.78125 7.625 11.1875 
L 7.625 46.4375 
L 1.515625 46.4375 
L 1.515625 52.828125 
L 7.953125 52.828125 
L 10.546875 64.65625 
L 16.40625 64.65625 
L 16.40625 52.828125 
L 26.171875 52.828125 
L 26.171875 46.4375 
L 16.40625 46.4375 
L 16.40625 13.09375 
Q 16.40625 9.28125 17.640625 7.734375 
Q 18.890625 6.203125 21.96875 6.203125 
Q 23.25 6.203125 24.4375 6.390625 
Q 25.640625 6.59375 27.046875 6.890625 
z
" id="LiberationSans-116"/>
      <path d="M 51.421875 26.46875 
Q 51.421875 12.59375 45.3125 5.796875 
Q 39.203125 -0.984375 27.59375 -0.984375 
Q 22.078125 -0.984375 17.71875 0.671875 
Q 13.375 2.34375 10.375 5.765625 
Q 7.375 9.1875 5.78125 14.328125 
Q 4.203125 19.484375 4.203125 26.46875 
Q 4.203125 53.8125 27.875 53.8125 
Q 34.03125 53.8125 38.5 52.09375 
Q 42.96875 50.390625 45.828125 46.96875 
Q 48.6875 43.5625 50.046875 38.421875 
Q 51.421875 33.296875 51.421875 26.46875 
z
M 42.1875 26.46875 
Q 42.1875 32.625 41.234375 36.625 
Q 40.28125 40.625 38.453125 43.015625 
Q 36.625 45.40625 33.984375 46.359375 
Q 31.34375 47.3125 28.03125 47.3125 
Q 24.65625 47.3125 21.9375 46.3125 
Q 19.234375 45.3125 17.328125 42.890625 
Q 15.4375 40.484375 14.421875 36.46875 
Q 13.421875 32.46875 13.421875 26.46875 
Q 13.421875 20.3125 14.5 16.28125 
Q 15.578125 12.25 17.453125 9.859375 
Q 19.34375 7.46875 21.90625 6.484375 
Q 24.46875 5.515625 27.484375 5.515625 
Q 30.859375 5.515625 33.59375 6.46875 
Q 36.328125 7.421875 38.234375 9.8125 
Q 40.140625 12.203125 41.15625 16.25 
Q 42.1875 20.3125 42.1875 26.46875 
z
" id="LiberationSans-111"/>
      <path d="M 29.9375 0 
L 19.53125 0 
L 0.34375 52.828125 
L 9.71875 52.828125 
L 21.34375 18.453125 
Q 21.6875 17.390625 22.140625 15.84375 
Q 22.609375 14.3125 23.09375 12.640625 
Q 23.578125 10.984375 24 9.4375 
Q 24.421875 7.90625 24.703125 6.890625 
Q 25 7.90625 25.453125 9.4375 
Q 25.921875 10.984375 26.40625 12.59375 
Q 26.90625 14.203125 27.421875 15.734375 
Q 27.9375 17.28125 28.328125 18.359375 
L 40.328125 52.828125 
L 49.65625 52.828125 
z
" id="LiberationSans-118"/>
      <path d="M 6.9375 0 
L 6.9375 40.53125 
Q 6.9375 42.1875 6.90625 43.921875 
Q 6.890625 45.65625 6.828125 47.265625 
Q 6.78125 48.875 6.734375 50.28125 
Q 6.6875 51.703125 6.640625 52.828125 
L 14.9375 52.828125 
Q 14.984375 51.703125 15.0625 50.265625 
Q 15.140625 48.828125 15.203125 47.3125 
Q 15.28125 45.796875 15.296875 44.40625 
Q 15.328125 43.015625 15.328125 42.046875 
L 15.53125 42.046875 
Q 16.453125 45.0625 17.5 47.28125 
Q 18.5625 49.515625 19.96875 50.953125 
Q 21.390625 52.390625 23.34375 53.09375 
Q 25.296875 53.8125 28.078125 53.8125 
Q 29.15625 53.8125 30.125 53.640625 
Q 31.109375 53.46875 31.640625 53.328125 
L 31.640625 45.265625 
Q 30.765625 45.515625 29.59375 45.625 
Q 28.421875 45.75 26.953125 45.75 
Q 23.921875 45.75 21.796875 44.375 
Q 19.671875 43.015625 18.328125 40.59375 
Q 17 38.1875 16.359375 34.84375 
Q 15.71875 31.5 15.71875 27.546875 
L 15.71875 0 
z
" id="LiberationSans-114"/>
      <path d="M 66.703125 0 
L 66.703125 45.90625 
Q 66.703125 48.390625 66.75 50.96875 
Q 66.796875 53.5625 66.890625 55.71875 
Q 67 58.203125 67.140625 60.546875 
Q 66.453125 58.0625 65.71875 55.609375 
Q 65.09375 53.515625 64.328125 51.140625 
Q 63.578125 48.78125 62.84375 46.875 
L 45.0625 0 
L 38.53125 0 
L 20.515625 46.875 
Q 20.21875 47.609375 19.890625 48.578125 
Q 19.578125 49.5625 19.203125 50.65625 
Q 18.84375 51.765625 18.46875 52.90625 
Q 18.109375 54.046875 17.78125 55.171875 
Q 16.9375 57.765625 16.15625 60.546875 
Q 16.21875 57.8125 16.3125 55.125 
Q 16.40625 52.828125 16.453125 50.3125 
Q 16.5 47.796875 16.5 45.90625 
L 16.5 0 
L 8.203125 0 
L 8.203125 68.796875 
L 20.453125 68.796875 
L 38.765625 21.09375 
Q 39.109375 20.125 39.59375 18.578125 
Q 40.09375 17.046875 40.53125 15.421875 
Q 40.96875 13.8125 41.328125 12.375 
Q 41.703125 10.9375 41.84375 10.15625 
Q 42 10.9375 42.390625 12.40625 
Q 42.78125 13.875 43.28125 15.484375 
Q 43.796875 17.09375 44.28125 18.609375 
Q 44.78125 20.125 45.171875 21.09375 
L 63.140625 68.796875 
L 75.09375 68.796875 
L 75.09375 0 
z
" id="LiberationSans-77"/>
      <path d="M 51.421875 26.65625 
Q 51.421875 20.65625 50.4375 15.578125 
Q 49.46875 10.5 47.1875 6.828125 
Q 44.921875 3.171875 41.1875 1.09375 
Q 37.453125 -0.984375 31.984375 -0.984375 
Q 26.3125 -0.984375 22.0625 1.171875 
Q 17.828125 3.328125 15.578125 8.203125 
L 15.328125 8.203125 
Q 15.375 8.109375 15.40625 7.328125 
Q 15.4375 6.546875 15.453125 5.375 
Q 15.484375 4.203125 15.5 2.75 
Q 15.53125 1.3125 15.53125 -0.09375 
L 15.53125 -20.75 
L 6.734375 -20.75 
L 6.734375 42.046875 
Q 6.734375 43.953125 6.703125 45.703125 
Q 6.6875 47.46875 6.640625 48.90625 
Q 6.59375 50.34375 6.546875 51.359375 
Q 6.5 52.390625 6.453125 52.828125 
L 14.9375 52.828125 
Q 14.984375 52.6875 15.0625 51.796875 
Q 15.140625 50.921875 15.203125 49.671875 
Q 15.28125 48.4375 15.359375 47.015625 
Q 15.4375 45.609375 15.4375 44.34375 
L 15.625 44.34375 
Q 16.84375 46.875 18.40625 48.65625 
Q 19.96875 50.4375 21.96875 51.578125 
Q 23.96875 52.734375 26.4375 53.25 
Q 28.90625 53.765625 31.984375 53.765625 
Q 37.453125 53.765625 41.1875 51.8125 
Q 44.921875 49.859375 47.1875 46.3125 
Q 49.46875 42.78125 50.4375 37.765625 
Q 51.421875 32.765625 51.421875 26.65625 
z
M 42.1875 26.46875 
Q 42.1875 31.34375 41.59375 35.15625 
Q 41.015625 38.96875 39.578125 41.59375 
Q 38.140625 44.234375 35.734375 45.59375 
Q 33.34375 46.96875 29.734375 46.96875 
Q 26.8125 46.96875 24.21875 46.140625 
Q 21.625 45.3125 19.703125 42.96875 
Q 17.78125 40.625 16.65625 36.5 
Q 15.53125 32.375 15.53125 25.78125 
Q 15.53125 20.171875 16.453125 16.28125 
Q 17.390625 12.40625 19.171875 10.015625 
Q 20.953125 7.625 23.578125 6.5625 
Q 26.21875 5.515625 29.640625 5.515625 
Q 33.296875 5.515625 35.71875 6.921875 
Q 38.140625 8.34375 39.578125 11.03125 
Q 41.015625 13.71875 41.59375 17.59375 
Q 42.1875 21.484375 42.1875 26.46875 
z
" id="LiberationSans-112"/>
      <path d="M 15.328125 52.828125 
L 15.328125 19.34375 
Q 15.328125 15.484375 15.890625 12.890625 
Q 16.453125 10.296875 17.71875 8.703125 
Q 19 7.125 21.0625 6.46875 
Q 23.140625 5.8125 26.21875 5.8125 
Q 29.34375 5.8125 31.859375 6.90625 
Q 34.375 8.015625 36.15625 10.078125 
Q 37.9375 12.15625 38.90625 15.203125 
Q 39.890625 18.265625 39.890625 22.21875 
L 39.890625 52.828125 
L 48.6875 52.828125 
L 48.6875 11.28125 
Q 48.6875 9.625 48.703125 7.78125 
Q 48.734375 5.953125 48.78125 4.3125 
Q 48.828125 2.6875 48.875 1.515625 
Q 48.921875 0.34375 48.96875 0 
L 40.671875 0 
Q 40.625 0.25 40.578125 1.3125 
Q 40.53125 2.390625 40.453125 3.78125 
Q 40.375 5.171875 40.328125 6.609375 
Q 40.28125 8.0625 40.28125 9.03125 
L 40.140625 9.03125 
Q 38.875 6.734375 37.359375 4.875 
Q 35.84375 3.03125 33.84375 1.734375 
Q 31.84375 0.4375 29.25 -0.265625 
Q 26.65625 -0.984375 23.25 -0.984375 
Q 18.84375 -0.984375 15.671875 0.09375 
Q 12.5 1.171875 10.453125 3.421875 
Q 8.40625 5.671875 7.453125 9.1875 
Q 6.5 12.703125 6.5 17.625 
L 6.5 52.828125 
z
" id="LiberationSans-117"/>
      <path d="M 6.734375 0 
L 6.734375 72.46875 
L 15.53125 72.46875 
L 15.53125 0 
z
" id="LiberationSans-108"/>
     </defs>
     <g style="fill:#262626;" transform="translate(18.645 244.046057)rotate(-90)scale(0.11 -0.11)">
      <use xlink:href="#LiberationSans-78"/>
      <use x="72.216797" xlink:href="#LiberationSans-101"/>
      <use x="127.832031" xlink:href="#LiberationSans-119"/>
      <use x="200.048828" xlink:href="#LiberationSans-32"/>
      <use x="227.832031" xlink:href="#LiberationSans-105"/>
      <use x="250.048828" xlink:href="#LiberationSans-110"/>
      <use x="305.664062" xlink:href="#LiberationSans-102"/>
      <use x="333.447266" xlink:href="#LiberationSans-101"/>
      <use x="389.0625" xlink:href="#LiberationSans-99"/>
      <use x="439.0625" xlink:href="#LiberationSans-116"/>
      <use x="466.845703" xlink:href="#LiberationSans-105"/>
      <use x="489.0625" xlink:href="#LiberationSans-111"/>
      <use x="544.677734" xlink:href="#LiberationSans-110"/>
      <use x="600.292969" xlink:href="#LiberationSans-115"/>
      <use x="650.292969" xlink:href="#LiberationSans-32"/>
      <use x="678.076172" xlink:href="#LiberationSans-111"/>
      <use x="733.691406" xlink:href="#LiberationSans-118"/>
      <use x="783.691406" xlink:href="#LiberationSans-101"/>
      <use x="839.306641" xlink:href="#LiberationSans-114"/>
      <use x="872.607422" xlink:href="#LiberationSans-32"/>
      <use x="900.390625" xlink:href="#LiberationSans-49"/>
      <use x="956.005859" xlink:href="#LiberationSans-77"/>
      <use x="1039.306641" xlink:href="#LiberationSans-32"/>
      <use x="1067.089844" xlink:href="#LiberationSans-112"/>
      <use x="1122.705078" xlink:href="#LiberationSans-111"/>
      <use x="1178.320312" xlink:href="#LiberationSans-112"/>
      <use x="1233.935547" xlink:href="#LiberationSans-117"/>
      <use x="1289.550781" xlink:href="#LiberationSans-108"/>
      <use x="1311.767578" xlink:href="#LiberationSans-97"/>
      <use x="1367.382812" xlink:href="#LiberationSans-116"/>
      <use x="1395.166016" xlink:href="#LiberationSans-105"/>
      <use x="1417.382812" xlink:href="#LiberationSans-111"/>
      <use x="1472.998047" xlink:href="#LiberationSans-110"/>
     </g>
    </g>
   </g>
   <g id="line2d_15">
    <path clip-path="url(#p66897aeb71)" d="M 78.904091 250.939941 
L 83.222665 250.440208 
L 87.541239 249.854791 
L 91.859814 249.24889 
L 96.178388 248.578232 
L 100.496962 247.959482 
L 104.815536 246.913618 
L 109.134111 245.165292 
L 113.452685 242.986793 
L 117.771259 238.578652 
L 122.089833 232.431401 
L 126.408407 229.088905 
L 130.726982 227.263282 
L 135.045556 223.35645 
L 139.36413 216.048574 
L 143.682704 209.711802 
L 148.001279 205.106847 
L 152.319853 198.889847 
L 156.638427 184.115272 
L 160.957001 161.745809 
L 165.275576 149.821628 
L 169.59415 156.818483 
L 173.912724 156.641787 
L 178.231298 139.403911 
L 182.549872 145.437078 
L 186.868447 164.49265 
L 191.187021 169.216807 
L 195.505595 166.016266 
L 199.824169 172.591046 
L 204.142744 184.231632 
L 208.461318 194.407451 
L 212.779892 203.739956 
L 217.098466 212.102222 
L 221.417041 216.081211 
L 225.735615 215.15943 
L 230.054189 212.167789 
L 234.372763 211.342626 
L 238.691337 212.160579 
L 243.009912 214.629369 
L 247.328486 221.230142 
L 251.64706 229.596019 
L 255.965634 233.457143 
L 260.284209 233.177312 
L 264.602783 233.860061 
L 268.921357 235.021852 
L 273.239931 236.990488 
L 277.558506 239.842728 
L 281.87708 242.009524 
L 286.195654 243.076276 
L 290.514228 243.081214 
L 294.832802 242.913155 
L 299.151377 242.426496 
L 303.469951 241.985538 
L 307.788525 241.839516 
L 312.107099 242.291907 
L 316.425674 242.883158 
L 320.744248 243.139386 
L 325.062822 243.902422 
L 329.381396 244.061296 
L 333.699971 244.206992 
L 338.018545 245.695754 
L 342.337119 246.930907 
L 346.655693 247.465909 
L 350.974267 247.254586 
L 355.292842 246.174679 
L 359.611416 245.430721 
L 363.92999 245.705784 
L 368.248564 245.803455 
L 372.567139 246.425369 
L 376.885713 246.401122 
L 381.204287 245.03918 
L 385.522861 244.594322 
L 389.841436 244.247045 
L 394.16001 243.322543 
L 398.478584 243.048607 
L 402.797158 244.728738 
L 407.115733 246.113565 
L 411.434307 246.098372 
L 415.752881 246.002489 
L 420.071455 245.96987 
L 424.390029 246.137803 
L 428.708604 246.592357 
L 433.027178 247.376131 
L 437.345752 247.763634 
L 441.664326 247.802247 
L 445.982901 247.39968 
L 450.301475 247.143004 
L 454.620049 247.282614 
L 458.938623 247.203937 
L 463.257198 247.569558 
L 467.575772 248.658381 
L 471.894346 248.965844 
L 476.21292 248.509626 
L 480.531494 247.453715 
L 484.850069 246.432609 
L 489.168643 246.478927 
L 493.487217 246.981117 
L 497.805791 246.947538 
L 502.124366 247.842434 
" style="fill:none;stroke:#989173;stroke-linecap:round;stroke-width:1.75;"/>
   </g>
   <g id="line2d_16">
    <path clip-path="url(#p66897aeb71)" d="M 78.904091 251.335543 
L 83.222665 251.324299 
L 87.541239 251.310222 
L 91.859814 251.27203 
L 96.178388 251.15672 
L 100.496962 251.032342 
L 104.815536 251.062022 
L 109.134111 251.132204 
L 113.452685 251.048645 
L 117.771259 250.882027 
L 122.089833 250.677445 
L 126.408407 250.391584 
L 130.726982 250.158298 
L 135.045556 249.733446 
L 139.36413 249.241024 
L 143.682704 249.228424 
L 148.001279 249.438183 
L 152.319853 249.416446 
L 156.638427 249.172701 
L 160.957001 248.980021 
L 165.275576 248.989973 
L 169.59415 249.006546 
L 173.912724 248.158272 
L 178.231298 246.462563 
L 182.549872 245.372094 
L 186.868447 245.149396 
L 191.187021 245.209377 
L 195.505595 245.413979 
L 199.824169 245.647854 
L 204.142744 244.518522 
L 208.461318 242.214326 
L 212.779892 240.868657 
L 217.098466 241.355917 
L 221.417041 242.858108 
L 225.735615 243.961721 
L 230.054189 243.958133 
L 234.372763 242.975479 
L 238.691337 240.514616 
L 243.009912 238.04356 
L 247.328486 236.913864 
L 251.64706 235.945344 
L 255.965634 236.547602 
L 260.284209 238.531685 
L 264.602783 239.21407 
L 268.921357 237.92941 
L 273.239931 234.788744 
L 277.558506 230.79353 
L 281.87708 227.908549 
L 286.195654 226.796931 
L 290.514228 227.23815 
L 294.832802 225.489177 
L 299.151377 220.881114 
L 303.469951 216.747033 
L 307.788525 216.46694 
L 312.107099 220.420813 
L 316.425674 223.248735 
L 320.744248 221.637224 
L 325.062822 216.170626 
L 329.381396 208.234665 
L 333.699971 200.266075 
L 338.018545 196.886341 
L 342.337119 197.297044 
L 346.655693 202.671662 
L 350.974267 209.303218 
L 355.292842 209.332285 
L 359.611416 201.237833 
L 363.92999 189.177246 
L 368.248564 177.758557 
L 372.567139 173.017023 
L 376.885713 181.136062 
L 381.204287 187.760947 
L 385.522861 177.78471 
L 389.841436 161.903953 
L 394.16001 151.18857 
L 398.478584 147.011417 
L 402.797158 148.56018 
L 407.115733 157.177096 
L 411.434307 167.695554 
L 415.752881 171.286302 
L 420.071455 159.5597 
L 424.390029 137.371198 
L 428.708604 115.64141 
L 433.027178 102.158704 
L 437.345752 109.121521 
L 441.664326 138.440232 
L 445.982901 146.44431 
L 450.301475 119.571765 
L 454.620049 96.235249 
L 458.938623 88.090057 
L 463.257198 92.377936 
L 467.575772 111.356056 
L 471.894346 133.549754 
L 476.21292 131.217187 
L 480.531494 106.967012 
" style="fill:none;stroke:#42537f;stroke-linecap:round;stroke-width:1.75;"/>
   </g>
   <g id="line2d_17">
    <path clip-path="url(#p66897aeb71)" d="M 78.904091 251.307337 
L 87.541239 251.105938 
L 96.178388 250.737165 
L 104.815536 250.076674 
L 109.134111 250.101729 
L 113.452685 249.994009 
L 117.771259 249.716418 
L 126.408407 248.484329 
L 130.726982 248.314789 
L 139.36413 248.374912 
L 160.957001 249.304198 
L 165.275576 249.259245 
L 169.59415 247.382914 
L 173.912724 244.810705 
L 178.231298 245.671099 
L 182.549872 248.19728 
L 186.868447 249.440038 
L 204.142744 250.868763 
L 212.779892 250.736788 
L 221.417041 251.081098 
L 234.372763 251.010868 
L 251.64706 251.112583 
L 260.284209 251.231323 
L 454.620049 251.259168 
L 467.575772 251.32681 
L 679.185909 251.342892 
L 679.185909 251.342892 
" style="fill:none;stroke:#ae54a5;stroke-dasharray:6.475,2.8;stroke-dashoffset:0;stroke-width:1.75;"/>
   </g>
   <g id="line2d_18">
    <path clip-path="url(#p66897aeb71)" d="M 78.904091 251.200004 
L 83.222665 250.994357 
L 87.541239 250.775974 
L 91.859814 250.655083 
L 96.178388 250.604393 
L 100.496962 250.495465 
L 104.815536 249.962201 
L 109.134111 248.84781 
L 113.452685 247.469085 
L 117.771259 247.070648 
L 122.089833 247.602341 
L 126.408407 246.700248 
L 130.726982 243.63154 
L 135.045556 239.900566 
L 139.36413 235.351133 
L 143.682704 233.389558 
L 148.001279 236.496009 
L 152.319853 235.974844 
L 156.638427 229.324937 
L 160.957001 226.942844 
L 165.275576 225.314155 
L 169.59415 221.85594 
L 173.912724 220.248033 
L 178.231298 218.427676 
L 182.549872 210.604965 
L 186.868447 200.974537 
L 191.187021 198.704731 
L 195.505595 195.111794 
L 199.824169 187.164973 
L 204.142744 181.586231 
L 208.461318 182.005109 
L 212.779892 182.406447 
L 217.098466 166.693628 
L 221.417041 152.288441 
L 225.735615 165.099155 
L 230.054189 180.75716 
L 234.372763 179.325085 
L 238.691337 184.060819 
L 243.009912 193.746623 
L 247.328486 190.793572 
L 251.64706 184.599937 
L 255.965634 181.037511 
L 260.284209 176.883317 
L 264.602783 159.180281 
L 268.921357 88.160656 
L 273.239931 24.361609 
L 277.558506 82.641449 
L 281.87708 149.26832 
L 286.195654 146.866699 
L 290.514228 135.92737 
L 294.832802 175.720428 
L 299.151377 207.200838 
L 303.469951 201.255839 
L 307.788525 203.540386 
L 312.107099 224.01347 
L 316.425674 240.651045 
L 320.744248 232.83672 
L 325.062822 223.682487 
L 329.381396 224.157924 
L 333.699971 219.673831 
L 338.018545 210.041271 
L 342.337119 222.997012 
L 346.655693 248.883838 
L 350.974267 252.285703 
L 355.292842 244.613608 
L 359.611416 239.821681 
L 363.92999 239.136067 
L 368.248564 235.719512 
L 372.567139 224.489631 
L 376.885713 216.931948 
L 381.204287 224.266958 
L 385.522861 233.124416 
L 389.841436 239.04728 
L 394.16001 242.72311 
L 398.478584 242.861014 
L 402.797158 243.324121 
L 407.115733 244.552103 
L 411.434307 242.51754 
L 415.752881 241.94655 
L 420.071455 244.746179 
L 424.390029 246.325255 
L 428.708604 243.675499 
L 433.027178 240.003766 
L 437.345752 240.381057 
L 441.664326 243.41032 
L 445.982901 245.159795 
L 450.301475 246.55498 
L 454.620049 248.050207 
L 458.938623 248.908028 
L 463.257198 247.302738 
L 467.575772 235.762331 
L 471.894346 223.224049 
L 476.21292 225.03653 
L 480.531494 231.594669 
L 484.850069 240.075798 
L 489.168643 246.433411 
L 493.487217 241.871018 
L 497.805791 238.713668 
L 502.124366 251.854784 
L 506.44294 252.387417 
L 510.761514 245.323958 
L 515.080088 244.98295 
L 519.398663 246.701528 
L 523.717237 247.477616 
" style="fill:none;stroke:#0309a6;stroke-linecap:round;stroke-width:1.75;"/>
   </g>
   <g id="line2d_19">
    <path clip-path="url(#p66897aeb71)" d="M 78.904091 251.264971 
L 83.222665 251.207873 
L 87.541239 251.129237 
L 91.859814 250.962337 
L 96.178388 250.833151 
L 100.496962 250.809352 
L 104.815536 250.613842 
L 109.134111 249.959698 
L 113.452685 249.159555 
L 117.771259 248.920652 
L 122.089833 248.930793 
L 126.408407 248.759347 
L 130.726982 248.414922 
L 135.045556 247.449228 
L 139.36413 246.0261 
L 143.682704 242.652789 
L 148.001279 237.683964 
L 152.319853 235.678657 
L 156.638427 233.949283 
L 160.957001 229.428211 
L 165.275576 221.947148 
L 169.59415 213.360497 
L 173.912724 206.275527 
L 178.231298 204.165325 
L 182.549872 208.803733 
L 186.868447 208.338065 
L 191.187021 200.934242 
L 195.505595 194.118346 
L 199.824169 183.805881 
L 204.142744 169.258472 
L 208.461318 161.803187 
L 212.779892 167.378122 
L 217.098466 179.163503 
L 221.417041 183.793429 
L 225.735615 179.187374 
L 230.054189 170.016225 
L 234.372763 164.382922 
L 238.691337 169.194803 
L 243.009912 181.678006 
L 247.328486 193.462474 
L 251.64706 197.423159 
L 255.965634 191.239074 
L 260.284209 184.297053 
L 264.602783 187.096358 
L 268.921357 197.467463 
L 273.239931 207.661137 
L 277.558506 214.359175 
L 281.87708 220.187339 
L 286.195654 220.917766 
L 290.514228 214.046699 
L 294.832802 209.047441 
L 299.151377 210.805563 
L 303.469951 218.456535 
L 307.788525 224.592228 
L 312.107099 227.304057 
L 316.425674 227.132574 
L 320.744248 223.161954 
L 325.062822 221.52049 
L 329.381396 225.041831 
L 333.699971 229.898756 
L 338.018545 233.67023 
L 342.337119 235.404481 
L 346.655693 234.173389 
L 350.974267 232.079976 
L 355.292842 232.741151 
L 359.611416 235.847296 
L 363.92999 239.014672 
L 368.248564 241.370952 
L 372.567139 241.864733 
L 376.885713 239.633124 
L 381.204287 236.673213 
L 385.522861 235.489009 
L 389.841436 236.997731 
L 394.16001 240.070049 
L 398.478584 242.119839 
L 402.797158 242.387721 
L 407.115733 241.915384 
L 411.434307 241.89575 
L 415.752881 242.779147 
L 420.071455 243.037856 
L 424.390029 243.404013 
L 428.708604 244.108308 
L 433.027178 243.25086 
L 437.345752 240.784577 
L 441.664326 240.952432 
L 445.982901 242.60859 
L 450.301475 243.981438 
L 454.620049 245.725751 
L 458.938623 246.646222 
L 463.257198 246.202363 
L 467.575772 245.271872 
L 471.894346 244.575242 
L 476.21292 243.511979 
L 480.531494 243.805556 
L 484.850069 246.070074 
L 489.168643 247.834662 
L 493.487217 248.215547 
L 497.805791 247.903314 
L 502.124366 247.393879 
L 506.44294 246.491451 
L 510.761514 245.521058 
L 515.080088 245.406721 
L 519.398663 246.092445 
L 523.717237 246.334794 
L 528.035811 246.12507 
" style="fill:none;stroke:#d8b009;stroke-linecap:round;stroke-width:1.75;"/>
   </g>
   <g id="line2d_20">
    <path clip-path="url(#p66897aeb71)" d="M 78.904091 251.000651 
L 83.222665 250.514348 
L 87.541239 250.004293 
L 91.859814 249.739235 
L 96.178388 249.377588 
L 100.496962 248.659716 
L 104.815536 247.754837 
L 109.134111 246.807575 
L 113.452685 245.260628 
L 117.771259 243.616221 
L 122.089833 243.097315 
L 126.408407 242.110042 
L 130.726982 239.945246 
L 135.045556 237.363766 
L 139.36413 233.903632 
L 143.682704 228.751282 
L 148.001279 224.052244 
L 152.319853 222.507306 
L 156.638427 220.552807 
L 160.957001 212.35733 
L 165.275576 203.988735 
L 169.59415 197.505848 
L 173.912724 190.259012 
L 178.231298 186.55253 
L 182.549872 185.725513 
L 186.868447 180.653311 
L 191.187021 168.681877 
L 195.505595 153.320291 
L 199.824169 140.935686 
L 204.142744 137.698205 
L 208.461318 144.90625 
L 212.779892 152.509976 
L 217.098466 152.725455 
L 221.417041 147.527383 
L 225.735615 141.145436 
L 230.054189 139.392914 
L 234.372763 143.89769 
L 238.691337 154.824562 
L 243.009912 166.321277 
L 247.328486 169.199147 
L 251.64706 165.522861 
L 255.965634 163.337733 
L 260.284209 163.297965 
L 264.602783 165.091169 
L 268.921357 171.663091 
L 273.239931 180.82793 
L 277.558506 184.818638 
L 281.87708 180.64679 
L 286.195654 175.298716 
L 290.514228 172.046488 
L 294.832802 170.88485 
L 299.151377 176.767179 
L 303.469951 186.932867 
L 307.788525 193.437759 
L 312.107099 192.753115 
L 316.425674 187.343744 
L 320.744248 185.286601 
L 325.062822 188.329544 
L 329.381396 194.991416 
L 333.699971 200.264971 
L 338.018545 198.543434 
L 342.337119 195.367932 
L 346.655693 196.449606 
L 350.974267 199.366854 
L 355.292842 204.072066 
L 359.611416 209.363725 
L 363.92999 212.995275 
L 368.248564 213.339324 
L 372.567139 213.258955 
L 376.885713 214.271955 
L 381.204287 215.36227 
L 385.522861 218.171371 
L 389.841436 223.143057 
L 394.16001 227.110271 
L 398.478584 227.871062 
L 402.797158 226.260328 
L 407.115733 225.67104 
L 411.434307 227.471902 
L 415.752881 230.962269 
L 420.071455 233.918769 
L 424.390029 233.402329 
L 428.708604 231.2698 
L 433.027178 231.945965 
L 437.345752 233.708749 
L 441.664326 235.06518 
L 445.982901 236.396853 
L 450.301475 238.383536 
L 454.620049 239.416023 
L 458.938623 238.605824 
L 463.257198 238.404763 
L 467.575772 238.855043 
L 471.894346 239.088836 
L 476.21292 239.809837 
L 480.531494 241.711034 
L 484.850069 243.434918 
L 489.168643 243.040701 
L 493.487217 241.476588 
L 497.805791 240.934415 
L 502.124366 241.830493 
L 506.44294 243.42077 
L 510.761514 245.073179 
L 515.080088 246.034857 
L 519.398663 245.951731 
L 523.717237 245.863717 
L 528.035811 245.525378 
L 532.354385 244.800127 
L 536.672959 245.507565 
L 540.991534 246.475934 
L 545.310108 246.395376 
L 549.628682 246.096689 
" style="fill:none;stroke:#1007e1;stroke-linecap:round;stroke-width:1.75;"/>
   </g>
   <g id="line2d_21">
    <path clip-path="url(#p66897aeb71)" d="M 78.904091 250.891164 
L 83.222665 250.095923 
L 87.541239 249.007267 
L 91.859814 248.153239 
L 96.178388 247.447619 
L 100.496962 247.062109 
L 104.815536 246.972322 
L 109.134111 245.811116 
L 113.452685 242.507963 
L 117.771259 238.2335 
L 122.089833 236.427197 
L 126.408407 237.805325 
L 130.726982 237.571146 
L 135.045556 234.605719 
L 139.36413 231.43133 
L 143.682704 227.973446 
L 148.001279 223.081491 
L 152.319853 217.201736 
L 156.638427 213.289412 
L 160.957001 212.298292 
L 165.275576 209.171912 
L 169.59415 201.474262 
L 173.912724 192.976102 
L 178.231298 184.547397 
L 182.549872 178.086322 
L 186.868447 177.051877 
L 191.187021 181.813418 
L 195.505595 188.556646 
L 199.824169 190.250477 
L 204.142744 186.209122 
L 208.461318 183.212506 
L 212.779892 184.092687 
L 217.098466 183.948286 
L 221.417041 182.410771 
L 225.735615 186.686932 
L 230.054189 190.647312 
L 234.372763 185.1262 
L 238.691337 174.513418 
L 243.009912 167.656607 
L 247.328486 168.477467 
L 251.64706 175.904223 
L 255.965634 185.671067 
L 260.284209 192.910267 
L 264.602783 192.873414 
L 268.921357 184.394255 
L 273.239931 176.996325 
L 277.558506 177.847209 
L 281.87708 185.714012 
L 286.195654 195.923507 
L 290.514228 201.502879 
L 294.832802 200.935295 
L 299.151377 198.603026 
L 303.469951 200.520129 
L 307.788525 206.150887 
L 312.107099 213.594463 
L 316.425674 223.662348 
L 320.744248 229.892719 
L 325.062822 226.929817 
L 329.381396 221.800963 
L 333.699971 220.984455 
L 338.018545 224.088298 
L 342.337119 229.325163 
L 346.655693 233.103892 
L 350.974267 233.16264 
L 355.292842 230.990279 
L 359.611416 228.417964 
L 363.92999 229.364384 
L 368.248564 232.526601 
L 372.567139 235.770592 
L 376.885713 238.132972 
L 381.204287 238.092197 
L 385.522861 236.605371 
L 389.841436 236.054293 
L 394.16001 237.467053 
L 398.478584 239.645024 
L 402.797158 241.513838 
L 407.115733 242.320084 
L 411.434307 241.610856 
L 415.752881 239.164721 
L 420.071455 237.498319 
L 424.390029 238.200136 
L 428.708604 239.265373 
L 433.027178 239.437233 
L 437.345752 239.602161 
L 441.664326 240.161051 
L 445.982901 239.919193 
L 450.301475 239.721959 
L 454.620049 240.360144 
L 458.938623 241.065075 
L 463.257198 241.692135 
L 467.575772 243.164789 
L 471.894346 244.123251 
L 476.21292 242.897495 
L 480.531494 240.050564 
L 484.850069 238.397959 
L 489.168643 238.034881 
L 493.487217 238.137149 
L 497.805791 239.293599 
L 502.124366 240.278925 
" style="fill:none;stroke:#a67d4c;stroke-linecap:round;stroke-width:1.75;"/>
   </g>
   <g id="line2d_22">
    <path clip-path="url(#p66897aeb71)" d="M 78.904091 250.941531 
L 83.222665 250.537014 
L 87.541239 250.185446 
L 91.859814 249.786817 
L 96.178388 248.874402 
L 100.496962 247.398191 
L 104.815536 245.877773 
L 109.134111 244.529339 
L 113.452685 242.950014 
L 117.771259 240.40862 
L 122.089833 235.064237 
L 126.408407 226.899608 
L 130.726982 221.417599 
L 135.045556 221.206852 
L 139.36413 219.741519 
L 143.682704 213.968818 
L 148.001279 208.330851 
L 152.319853 202.697042 
L 156.638427 192.491687 
L 160.957001 182.447198 
L 165.275576 171.036453 
L 169.59415 163.505976 
L 173.912724 168.480586 
L 178.231298 171.168707 
L 182.549872 161.121108 
L 186.868447 157.825786 
L 191.187021 161.062386 
L 195.505595 164.968293 
L 199.824169 171.43873 
L 204.142744 178.239045 
L 208.461318 182.792501 
L 212.779892 178.103202 
L 217.098466 166.576365 
L 221.417041 147.428687 
L 225.735615 139.700359 
L 230.054189 163.790408 
L 234.372763 188.483052 
L 238.691337 197.723447 
L 243.009912 193.236609 
L 247.328486 184.823591 
L 251.64706 188.22952 
L 255.965634 197.582488 
L 260.284209 193.864673 
L 264.602783 187.688575 
L 268.921357 186.24228 
L 273.239931 188.480847 
L 277.558506 193.405522 
L 281.87708 199.347691 
L 286.195654 198.721055 
L 290.514228 196.506002 
L 294.832802 205.167874 
L 299.151377 218.227465 
L 303.469951 222.351811 
L 307.788525 217.695885 
L 312.107099 213.195515 
L 316.425674 225.587362 
L 320.744248 242.873267 
L 325.062822 241.641285 
L 329.381396 230.948752 
L 333.699971 219.991094 
L 338.018545 205.919769 
L 342.337119 197.664703 
L 346.655693 204.565174 
L 350.974267 221.413719 
L 355.292842 232.078159 
L 359.611416 233.428139 
L 363.92999 229.998479 
L 368.248564 227.86639 
L 372.567139 227.060014 
L 376.885713 225.552464 
L 381.204287 225.640125 
L 385.522861 227.361157 
L 389.841436 228.539168 
L 394.16001 227.471414 
L 398.478584 225.366427 
L 402.797158 223.079235 
L 407.115733 221.94435 
L 411.434307 224.685768 
L 415.752881 229.499596 
L 420.071455 230.351664 
L 424.390029 226.407429 
L 428.708604 221.252212 
L 433.027178 217.597762 
L 437.345752 216.931211 
L 441.664326 219.183459 
L 445.982901 222.18864 
L 450.301475 225.082649 
L 454.620049 223.301228 
L 458.938623 217.061821 
L 463.257198 212.834155 
L 467.575772 210.883711 
L 471.894346 211.415444 
L 476.21292 215.468757 
L 480.531494 217.10023 
L 484.850069 212.503087 
" style="fill:none;stroke:#ea71b3;stroke-linecap:round;stroke-width:1.75;"/>
   </g>
   <g id="line2d_23">
    <path clip-path="url(#p66897aeb71)" d="M 78.904091 251.3227 
L 83.222665 251.297185 
L 87.541239 251.266574 
L 91.859814 251.244003 
L 96.178388 251.245374 
L 100.496962 251.235757 
L 104.815536 251.184577 
L 109.134111 251.129049 
L 113.452685 251.059815 
L 117.771259 250.979526 
L 122.089833 250.931308 
L 126.408407 250.903041 
L 130.726982 250.861335 
L 135.045556 250.795732 
L 139.36413 250.606103 
L 143.682704 250.250786 
L 148.001279 249.951972 
L 152.319853 249.746379 
L 156.638427 249.506123 
L 160.957001 249.161567 
L 165.275576 248.60047 
L 169.59415 247.874461 
L 173.912724 247.111511 
L 178.231298 246.428967 
L 182.549872 246.344362 
L 186.868447 246.311398 
L 191.187021 245.517003 
L 195.505595 244.050965 
L 199.824169 242.650622 
L 204.142744 241.394472 
L 208.461318 239.770602 
L 212.779892 238.173692 
L 217.098466 236.64257 
L 221.417041 234.260079 
L 225.735615 231.45699 
L 230.054189 228.62572 
L 234.372763 225.694585 
L 238.691337 222.689333 
L 243.009912 218.495111 
L 247.328486 213.28472 
L 251.64706 210.4857 
L 255.965634 210.931107 
L 260.284209 210.39215 
L 264.602783 210.184275 
L 268.921357 209.773271 
L 273.239931 207.008672 
L 277.558506 204.102375 
L 281.87708 202.431249 
L 286.195654 201.893869 
L 290.514228 201.882477 
L 294.832802 200.506588 
L 299.151377 195.195397 
L 303.469951 186.738884 
L 307.788525 177.409181 
L 312.107099 170.883218 
L 316.425674 169.062786 
L 320.744248 169.039266 
L 325.062822 167.437619 
L 329.381396 165.61028 
L 333.699971 165.493796 
L 338.018545 165.216716 
L 342.337119 163.701848 
L 346.655693 163.086805 
L 350.974267 165.822482 
L 355.292842 169.618512 
L 359.611416 171.140299 
L 363.92999 172.156568 
L 368.248564 174.773821 
L 372.567139 176.949091 
L 376.885713 178.583973 
L 381.204287 179.765297 
L 385.522861 180.81171 
L 389.841436 181.093355 
L 394.16001 180.302692 
L 398.478584 179.945489 
L 402.797158 180.893309 
L 407.115733 181.467862 
L 411.434307 182.320918 
L 415.752881 183.916901 
L 420.071455 184.361292 
L 424.390029 183.077379 
L 428.708604 181.21887 
L 433.027178 180.759142 
L 437.345752 181.870815 
L 441.664326 182.550766 
L 445.982901 182.67532 
L 450.301475 182.387368 
L 454.620049 181.986824 
L 458.938623 181.444736 
L 463.257198 181.005801 
L 467.575772 181.437502 
L 471.894346 182.425556 
" style="fill:none;stroke:#5feb16;stroke-linecap:round;stroke-width:1.75;"/>
   </g>
   <g id="line2d_24">
    <path clip-path="url(#p66897aeb71)" d="M 78.904091 251.193427 
L 83.222665 250.938476 
L 87.541239 250.617557 
L 91.859814 250.410857 
L 96.178388 250.251089 
L 100.496962 250.069103 
L 104.815536 249.616634 
L 109.134111 248.833074 
L 113.452685 247.897443 
L 117.771259 245.681198 
L 122.089833 241.727788 
L 126.408407 236.72891 
L 130.726982 227.209239 
L 135.045556 211.051581 
L 139.36413 202.795424 
L 143.682704 209.257063 
L 148.001279 211.782658 
L 152.319853 206.749592 
L 156.638427 201.173314 
L 160.957001 189.497902 
L 165.275576 175.799559 
L 169.59415 166.803346 
L 173.912724 154.870913 
L 178.231298 141.371953 
L 182.549872 121.989855 
L 186.868447 95.236704 
L 191.187021 62.330681 
L 195.505595 51.265908 
L 199.824169 59.444401 
L 204.142744 69.173272 
L 208.461318 72.505897 
L 212.779892 66.496178 
L 217.098466 59.605467 
L 221.417041 58.034882 
L 225.735615 63.968661 
L 230.054189 75.911764 
L 234.372763 91.845555 
L 238.691337 110.499448 
L 243.009912 121.28554 
L 247.328486 119.32919 
L 251.64706 116.366244 
L 255.965634 122.708845 
L 260.284209 131.398948 
L 264.602783 141.875489 
L 268.921357 156.773994 
L 273.239931 169.021148 
L 277.558506 163.120121 
L 281.87708 132.559456 
L 286.195654 111.058072 
L 290.514228 130.37075 
L 294.832802 155.103207 
L 299.151377 155.976809 
L 303.469951 164.856822 
L 307.788525 165.244596 
L 312.107099 170.390893 
L 316.425674 231.333176 
L 320.744248 295.593787 
L 325.062822 262.769042 
L 329.381396 217.537436 
L 333.699971 210.294546 
L 338.018545 212.049019 
L 342.337119 214.908278 
L 346.655693 219.584237 
L 350.974267 218.969577 
L 355.292842 220.799573 
L 359.611416 227.410584 
L 363.92999 229.796574 
L 368.248564 226.68275 
L 372.567139 224.721559 
L 376.885713 223.619935 
L 381.204287 224.168124 
L 385.522861 225.94509 
L 389.841436 218.800128 
L 394.16001 211.519021 
L 398.478584 221.413783 
L 402.797158 231.509126 
L 407.115733 233.660183 
L 411.434307 235.192865 
L 415.752881 236.03323 
L 420.071455 234.598523 
L 424.390029 234.418731 
L 428.708604 237.031528 
L 433.027178 237.354542 
L 437.345752 231.882209 
L 441.664326 227.235193 
L 445.982901 233.272128 
L 450.301475 242.495862 
L 454.620049 244.470017 
L 458.938623 234.991475 
L 463.257198 224.088724 
L 467.575772 222.289791 
L 471.894346 229.397261 
L 476.21292 237.089643 
L 480.531494 242.639562 
L 484.850069 245.127225 
L 489.168643 244.399632 
L 493.487217 243.179789 
L 497.805791 243.093845 
L 502.124366 243.50041 
L 506.44294 244.151165 
L 510.761514 245.304438 
L 515.080088 246.059576 
L 519.398663 245.91322 
" style="fill:none;stroke:#907eba;stroke-linecap:round;stroke-width:1.75;"/>
   </g>
   <g id="line2d_25">
    <path clip-path="url(#p66897aeb71)" d="M 78.904091 251.043561 
L 83.222665 250.585712 
L 87.541239 249.797517 
L 91.859814 248.530615 
L 96.178388 246.766594 
L 100.496962 245.658997 
L 104.815536 245.832826 
L 109.134111 244.997118 
L 113.452685 240.975853 
L 117.771259 233.918242 
L 122.089833 227.832611 
L 126.408407 226.11697 
L 130.726982 225.933607 
L 135.045556 223.59667 
L 139.36413 219.713042 
L 143.682704 217.93811 
L 148.001279 215.972268 
L 152.319853 212.544447 
L 156.638427 209.46103 
L 160.957001 207.101761 
L 165.275576 203.70486 
L 169.59415 198.593029 
L 173.912724 194.421539 
L 178.231298 190.79069 
L 182.549872 185.86004 
L 186.868447 183.050869 
L 191.187021 185.545585 
L 195.505595 190.226823 
L 199.824169 191.90493 
L 204.142744 189.92818 
L 208.461318 188.269558 
L 212.779892 190.609989 
L 217.098466 193.755513 
L 221.417041 192.680455 
L 225.735615 189.929751 
L 230.054189 192.988843 
L 234.372763 201.172733 
L 238.691337 206.424358 
L 243.009912 208.735993 
L 247.328486 212.134784 
L 251.64706 216.403556 
L 255.965634 218.312461 
L 260.284209 216.427243 
L 264.602783 214.110052 
L 268.921357 215.511263 
L 273.239931 219.526665 
L 277.558506 223.449993 
L 281.87708 226.258746 
L 286.195654 226.779192 
L 290.514228 224.774494 
L 294.832802 222.780132 
L 299.151377 223.406685 
L 303.469951 225.803499 
L 307.788525 228.433451 
L 312.107099 230.620237 
L 316.425674 231.317858 
L 320.744248 229.698857 
L 325.062822 228.340281 
L 329.381396 228.002579 
L 333.699971 228.151258 
L 338.018545 229.456012 
L 342.337119 231.924226 
L 346.655693 234.508821 
L 350.974267 236.363088 
L 355.292842 237.315151 
L 359.611416 237.520785 
L 363.92999 236.90033 
L 368.248564 235.897678 
L 372.567139 235.909495 
L 376.885713 236.811147 
L 381.204287 237.170395 
L 385.522861 236.472192 
L 389.841436 235.655529 
L 394.16001 235.971227 
L 398.478584 237.388106 
L 402.797158 238.828612 
L 407.115733 239.582159 
L 411.434307 239.608606 
L 415.752881 238.944552 
L 420.071455 238.253577 
L 424.390029 238.253239 
L 428.708604 238.46676 
L 433.027178 238.218723 
L 437.345752 237.702775 
L 441.664326 237.407589 
" style="fill:none;stroke:#221cdf;stroke-linecap:round;stroke-width:1.75;"/>
   </g>
   <g id="line2d_26">
    <path clip-path="url(#p66897aeb71)" d="M 78.904091 251.33829 
L 83.222665 251.33199 
L 87.541239 251.330959 
L 91.859814 251.334839 
L 96.178388 251.33261 
L 100.496962 251.322708 
L 104.815536 251.305685 
L 109.134111 251.281889 
L 113.452685 251.25621 
L 117.771259 251.210783 
L 122.089833 251.150017 
L 126.408407 251.075757 
L 130.726982 250.985376 
L 135.045556 250.925445 
L 139.36413 250.742642 
L 143.682704 250.390102 
L 148.001279 250.137405 
L 152.319853 249.91963 
L 156.638427 249.608297 
L 160.957001 249.150655 
L 165.275576 248.34914 
L 169.59415 247.139923 
L 173.912724 245.416302 
L 178.231298 241.571376 
L 182.549872 235.573126 
L 186.868447 231.380275 
L 191.187021 228.092081 
L 195.505595 223.160254 
L 199.824169 217.826536 
L 204.142744 213.118127 
L 208.461318 205.226964 
L 212.779892 194.836438 
L 217.098466 187.843589 
L 221.417041 184.313829 
L 225.735615 181.055813 
L 230.054189 174.373411 
L 234.372763 165.573799 
L 238.691337 157.490705 
L 243.009912 148.776906 
L 247.328486 142.47188 
L 251.64706 142.626527 
L 255.965634 146.94111 
L 260.284209 147.555276 
L 264.602783 144.109318 
L 268.921357 139.385066 
L 273.239931 135.805333 
L 277.558506 137.944 
L 281.87708 145.066189 
L 286.195654 152.568657 
L 290.514228 157.05773 
L 294.832802 155.585741 
L 299.151377 149.932682 
L 303.469951 144.15805 
L 307.788525 141.557803 
L 312.107099 145.183643 
L 316.425674 153.417713 
L 320.744248 157.771034 
L 325.062822 156.174321 
L 329.381396 151.805788 
L 333.699971 144.491539 
L 338.018545 137.600375 
L 342.337119 141.328296 
L 346.655693 153.974744 
L 350.974267 163.86833 
L 355.292842 163.586619 
L 359.611416 156.270084 
L 363.92999 147.625872 
L 368.248564 143.810891 
L 372.567139 150.027344 
L 376.885713 160.652333 
L 381.204287 167.325856 
L 385.522861 167.117243 
L 389.841436 162.869654 
L 394.16001 158.986348 
L 398.478584 159.791593 
L 402.797158 166.867573 
L 407.115733 176.667555 
L 411.434307 180.990774 
L 415.752881 178.278123 
L 420.071455 171.88592 
L 424.390029 164.994576 
L 428.708604 164.061082 
L 433.027178 169.546303 
L 437.345752 176.352768 
L 441.664326 178.362246 
L 445.982901 176.187702 
L 450.301475 171.288978 
L 454.620049 167.829506 
L 458.938623 169.681983 
L 463.257198 174.653975 
L 467.575772 179.558591 
L 471.894346 183.428225 
L 476.21292 185.064367 
L 480.531494 182.282454 
L 484.850069 175.340783 
L 489.168643 170.289155 
L 493.487217 171.560281 
L 497.805791 176.353061 
L 502.124366 178.892012 
L 506.44294 179.553684 
L 510.761514 178.260746 
L 515.080088 171.093193 
L 519.398663 164.521562 
L 523.717237 170.761023 
L 528.035811 183.392077 
L 532.354385 194.332455 
L 536.672959 202.762691 
" style="fill:none;stroke:#7516fd;stroke-dasharray:6.475,2.8;stroke-dashoffset:0;stroke-width:1.75;"/>
   </g>
   <g id="line2d_27">
    <path clip-path="url(#p66897aeb71)" d="M 78.904091 251.317336 
L 83.222665 251.266934 
L 87.541239 251.215734 
L 91.859814 251.182346 
L 96.178388 251.066812 
L 100.496962 250.88681 
L 104.815536 250.744765 
L 109.134111 250.620447 
L 113.452685 250.500505 
L 117.771259 250.405965 
L 122.089833 250.359343 
L 126.408407 250.133912 
L 130.726982 249.329073 
L 135.045556 247.827244 
L 139.36413 246.638847 
L 143.682704 247.001166 
L 148.001279 247.497774 
L 152.319853 245.921693 
L 156.638427 243.88806 
L 160.957001 243.073679 
L 165.275576 241.25607 
L 169.59415 236.524208 
L 173.912724 234.915539 
L 178.231298 235.719428 
L 182.549872 233.368138 
L 186.868447 228.522307 
L 191.187021 222.591601 
L 195.505595 214.472234 
L 199.824169 207.947118 
L 204.142744 206.843597 
L 208.461318 206.998725 
L 212.779892 203.587187 
L 217.098466 194.916015 
L 221.417041 184.232789 
L 225.735615 178.47324 
L 230.054189 177.263125 
L 234.372763 174.327154 
L 238.691337 171.130046 
L 243.009912 176.295991 
L 247.328486 177.322079 
L 251.64706 168.135504 
L 255.965634 153.781858 
L 260.284209 141.574294 
L 264.602783 148.704555 
L 268.921357 161.844408 
L 273.239931 167.849171 
L 277.558506 168.372787 
L 281.87708 168.861526 
L 286.195654 166.646308 
L 290.514228 160.658244 
L 294.832802 157.072003 
L 299.151377 159.550504 
L 303.469951 167.602421 
L 307.788525 173.849096 
L 312.107099 174.130732 
L 316.425674 170.198115 
L 320.744248 166.518195 
L 325.062822 168.364484 
L 329.381396 173.598553 
L 333.699971 177.97657 
L 338.018545 179.011997 
L 342.337119 171.784984 
L 346.655693 159.112257 
L 350.974267 156.092934 
L 355.292842 165.292563 
L 359.611416 174.867134 
L 363.92999 177.205193 
L 368.248564 169.841806 
L 372.567139 159.883585 
L 376.885713 160.55536 
L 381.204287 170.665034 
L 385.522861 180.068179 
L 389.841436 184.531668 
L 394.16001 187.552624 
L 398.478584 191.453175 
L 402.797158 193.602819 
L 407.115733 192.933383 
L 411.434307 191.94365 
L 415.752881 192.505833 
L 420.071455 196.16406 
L 424.390029 205.153075 
L 428.708604 219.610162 
L 433.027178 228.007098 
L 437.345752 216.694451 
L 441.664326 203.856508 
L 445.982901 203.516558 
L 450.301475 208.930466 
L 454.620049 208.649128 
L 458.938623 204.426363 
L 463.257198 209.398106 
L 467.575772 216.054035 
L 471.894346 218.589154 
L 476.21292 220.283435 
L 480.531494 221.288213 
L 484.850069 222.294856 
L 489.168643 222.147557 
L 493.487217 221.064631 
L 497.805791 221.31471 
L 502.124366 223.049279 
L 506.44294 225.400352 
L 510.761514 227.501004 
L 515.080088 227.174359 
L 519.398663 224.719879 
" style="fill:none;stroke:#89f9c9;stroke-linecap:round;stroke-width:1.75;"/>
   </g>
   <g id="patch_3">
    <path d="M 48.89 309.155396 
L 48.89 10.8 
" style="fill:none;"/>
   </g>
   <g id="patch_4">
    <path d="M 709.2 309.155396 
L 709.2 10.8 
" style="fill:none;"/>
   </g>
   <g id="patch_5">
    <path d="M 48.89 309.155396 
L 709.2 309.155396 
" style="fill:none;"/>
   </g>
   <g id="patch_6">
    <path d="M 48.89 10.8 
L 709.2 10.8 
" style="fill:none;"/>
   </g>
   <g id="legend_1">
    <g id="line2d_28">
     <path d="M 601.051563 23.546875 
L 621.051563 23.546875 
" style="fill:none;stroke:#989173;stroke-linecap:round;stroke-width:1.75;"/>
    </g>
    <g id="line2d_29"/>
    <g id="text_17">
     <!-- Austria -->
     <defs>
      <path d="M 56.984375 0 
L 49.125 20.125 
L 17.78125 20.125 
L 9.859375 0 
L 0.203125 0 
L 28.265625 68.796875 
L 38.875 68.796875 
L 66.5 0 
z
M 37.5 50.09375 
Q 36.71875 52.046875 36 54.046875 
Q 35.296875 56.0625 34.765625 57.6875 
Q 34.234375 59.328125 33.859375 60.421875 
Q 33.5 61.53125 33.453125 61.765625 
Q 33.34375 61.53125 33 60.40625 
Q 32.671875 59.28125 32.109375 57.609375 
Q 31.546875 55.953125 30.828125 53.953125 
Q 30.125 51.953125 29.390625 50 
L 20.609375 27.390625 
L 46.34375 27.390625 
z
" id="LiberationSans-65"/>
     </defs>
     <g style="fill:#262626;" transform="translate(629.051563 27.046875)scale(0.1 -0.1)">
      <use xlink:href="#LiberationSans-65"/>
      <use x="66.699219" xlink:href="#LiberationSans-117"/>
      <use x="122.314453" xlink:href="#LiberationSans-115"/>
      <use x="172.314453" xlink:href="#LiberationSans-116"/>
      <use x="200.097656" xlink:href="#LiberationSans-114"/>
      <use x="233.398438" xlink:href="#LiberationSans-105"/>
      <use x="255.615234" xlink:href="#LiberationSans-97"/>
     </g>
    </g>
    <g id="line2d_30">
     <path d="M 601.051563 37.86875 
L 621.051563 37.86875 
" style="fill:none;stroke:#42537f;stroke-linecap:round;stroke-width:1.75;"/>
    </g>
    <g id="line2d_31"/>
    <g id="text_18">
     <!-- Brazil -->
     <defs>
      <path d="M 61.421875 19.390625 
Q 61.421875 14.15625 59.375 10.46875 
Q 57.328125 6.78125 53.859375 4.46875 
Q 50.390625 2.15625 45.796875 1.078125 
Q 41.21875 0 36.140625 0 
L 8.203125 0 
L 8.203125 68.796875 
L 33.203125 68.796875 
Q 38.921875 68.796875 43.40625 67.84375 
Q 47.90625 66.890625 51.03125 64.84375 
Q 54.15625 62.796875 55.78125 59.640625 
Q 57.421875 56.5 57.421875 52.09375 
Q 57.421875 49.21875 56.609375 46.671875 
Q 55.8125 44.140625 54.171875 42.0625 
Q 52.546875 39.984375 50.078125 38.5 
Q 47.609375 37.015625 44.34375 36.28125 
Q 48.484375 35.796875 51.6875 34.375 
Q 54.890625 32.953125 57.03125 30.75 
Q 59.1875 28.5625 60.296875 25.65625 
Q 61.421875 22.75 61.421875 19.390625 
z
M 48.046875 50.984375 
Q 48.046875 56.546875 44.234375 58.9375 
Q 40.4375 61.328125 33.203125 61.328125 
L 17.53125 61.328125 
L 17.53125 39.546875 
L 33.203125 39.546875 
Q 37.3125 39.546875 40.140625 40.34375 
Q 42.96875 41.15625 44.71875 42.640625 
Q 46.484375 44.140625 47.265625 46.234375 
Q 48.046875 48.34375 48.046875 50.984375 
z
M 52 20.125 
Q 52 23.390625 50.796875 25.6875 
Q 49.609375 27.984375 47.359375 29.4375 
Q 45.125 30.90625 41.96875 31.59375 
Q 38.8125 32.28125 34.90625 32.28125 
L 17.53125 32.28125 
L 17.53125 7.46875 
L 35.640625 7.46875 
Q 39.203125 7.46875 42.203125 8.046875 
Q 45.21875 8.640625 47.390625 10.109375 
Q 49.5625 11.578125 50.78125 14.015625 
Q 52 16.453125 52 20.125 
z
" id="LiberationSans-66"/>
      <path d="M 2.390625 0 
L 2.390625 6.6875 
L 34.671875 46.046875 
L 4.34375 46.046875 
L 4.34375 52.828125 
L 44.578125 52.828125 
L 44.578125 46.140625 
L 12.25 6.78125 
L 46.390625 6.78125 
L 46.390625 0 
z
" id="LiberationSans-122"/>
     </defs>
     <g style="fill:#262626;" transform="translate(629.051563 41.36875)scale(0.1 -0.1)">
      <use xlink:href="#LiberationSans-66"/>
      <use x="66.699219" xlink:href="#LiberationSans-114"/>
      <use x="100" xlink:href="#LiberationSans-97"/>
      <use x="155.615234" xlink:href="#LiberationSans-122"/>
      <use x="205.615234" xlink:href="#LiberationSans-105"/>
      <use x="227.832031" xlink:href="#LiberationSans-108"/>
     </g>
    </g>
    <g id="line2d_32">
     <path d="M 601.051563 52.190625 
L 621.051563 52.190625 
" style="fill:none;stroke:#ae54a5;stroke-dasharray:6.475,2.8;stroke-dashoffset:0;stroke-width:1.75;"/>
    </g>
    <g id="line2d_33"/>
    <g id="text_19">
     <!-- China -->
     <defs>
      <path d="M 38.671875 62.203125 
Q 32.8125 62.203125 28.296875 60.25 
Q 23.78125 58.296875 20.71875 54.6875 
Q 17.671875 51.078125 16.109375 46 
Q 14.546875 40.921875 14.546875 34.71875 
Q 14.546875 28.515625 16.234375 23.359375 
Q 17.921875 18.21875 21.0625 14.5 
Q 24.21875 10.796875 28.78125 8.734375 
Q 33.34375 6.6875 39.0625 6.6875 
Q 43.0625 6.6875 46.359375 7.734375 
Q 49.65625 8.796875 52.3125 10.6875 
Q 54.984375 12.59375 57.078125 15.203125 
Q 59.1875 17.828125 60.796875 21 
L 68.40625 17.1875 
Q 66.546875 13.328125 63.8125 10 
Q 61.078125 6.6875 57.390625 4.25 
Q 53.71875 1.8125 49.046875 0.40625 
Q 44.390625 -0.984375 38.625 -0.984375 
Q 30.28125 -0.984375 24 1.671875 
Q 17.71875 4.34375 13.5 9.109375 
Q 9.28125 13.875 7.171875 20.40625 
Q 5.078125 26.953125 5.078125 34.71875 
Q 5.078125 42.78125 7.296875 49.265625 
Q 9.515625 55.765625 13.78125 60.328125 
Q 18.0625 64.890625 24.3125 67.359375 
Q 30.5625 69.828125 38.578125 69.828125 
Q 49.5625 69.828125 56.9375 65.53125 
Q 64.3125 61.234375 67.78125 52.78125 
L 58.9375 49.859375 
Q 57.953125 52.296875 56.296875 54.515625 
Q 54.640625 56.734375 52.140625 58.4375 
Q 49.65625 60.15625 46.3125 61.171875 
Q 42.96875 62.203125 38.671875 62.203125 
z
" id="LiberationSans-67"/>
      <path d="M 15.484375 43.796875 
Q 16.9375 46.484375 18.640625 48.359375 
Q 20.359375 50.25 22.40625 51.46875 
Q 24.46875 52.6875 26.90625 53.25 
Q 29.34375 53.8125 32.375 53.8125 
Q 37.453125 53.8125 40.703125 52.4375 
Q 43.953125 51.078125 45.828125 48.609375 
Q 47.703125 46.140625 48.40625 42.71875 
Q 49.125 39.3125 49.125 35.203125 
L 49.125 0 
L 40.28125 0 
L 40.28125 33.5 
Q 40.28125 36.859375 39.859375 39.390625 
Q 39.453125 41.9375 38.28125 43.625 
Q 37.109375 45.3125 34.953125 46.15625 
Q 32.8125 47.015625 29.390625 47.015625 
Q 26.265625 47.015625 23.75 45.890625 
Q 21.234375 44.78125 19.453125 42.71875 
Q 17.671875 40.671875 16.6875 37.734375 
Q 15.71875 34.8125 15.71875 31.15625 
L 15.71875 0 
L 6.9375 0 
L 6.9375 72.46875 
L 15.71875 72.46875 
L 15.71875 53.609375 
Q 15.71875 52 15.671875 50.390625 
Q 15.625 48.78125 15.546875 47.40625 
Q 15.484375 46.046875 15.421875 45.09375 
Q 15.375 44.140625 15.328125 43.796875 
z
" id="LiberationSans-104"/>
     </defs>
     <g style="fill:#262626;" transform="translate(629.051563 55.690625)scale(0.1 -0.1)">
      <use xlink:href="#LiberationSans-67"/>
      <use x="72.216797" xlink:href="#LiberationSans-104"/>
      <use x="127.832031" xlink:href="#LiberationSans-105"/>
      <use x="150.048828" xlink:href="#LiberationSans-110"/>
      <use x="205.664062" xlink:href="#LiberationSans-97"/>
     </g>
    </g>
    <g id="line2d_34">
     <path d="M 601.051563 66.5125 
L 621.051563 66.5125 
" style="fill:none;stroke:#0309a6;stroke-linecap:round;stroke-width:1.75;"/>
    </g>
    <g id="line2d_35"/>
    <g id="text_20">
     <!-- France -->
     <defs>
      <path d="M 17.53125 61.1875 
L 17.53125 35.59375 
L 55.90625 35.59375 
L 55.90625 27.875 
L 17.53125 27.875 
L 17.53125 0 
L 8.203125 0 
L 8.203125 68.796875 
L 57.078125 68.796875 
L 57.078125 61.1875 
z
" id="LiberationSans-70"/>
     </defs>
     <g style="fill:#262626;" transform="translate(629.051563 70.0125)scale(0.1 -0.1)">
      <use xlink:href="#LiberationSans-70"/>
      <use x="61.083984" xlink:href="#LiberationSans-114"/>
      <use x="94.384766" xlink:href="#LiberationSans-97"/>
      <use x="150" xlink:href="#LiberationSans-110"/>
      <use x="205.615234" xlink:href="#LiberationSans-99"/>
      <use x="255.615234" xlink:href="#LiberationSans-101"/>
     </g>
    </g>
    <g id="line2d_36">
     <path d="M 601.051563 80.834375 
L 621.051563 80.834375 
" style="fill:none;stroke:#d8b009;stroke-linecap:round;stroke-width:1.75;"/>
    </g>
    <g id="line2d_37"/>
    <g id="text_21">
     <!-- Germany -->
     <defs>
      <path d="M 5.03125 34.71875 
Q 5.03125 42.78125 7.203125 49.265625 
Q 9.375 55.765625 13.6875 60.328125 
Q 18.015625 64.890625 24.40625 67.359375 
Q 30.8125 69.828125 39.265625 69.828125 
Q 45.609375 69.828125 50.390625 68.703125 
Q 55.171875 67.578125 58.6875 65.46875 
Q 62.203125 63.375 64.640625 60.375 
Q 67.09375 57.375 68.796875 53.609375 
L 59.90625 50.984375 
Q 58.640625 53.515625 56.859375 55.59375 
Q 55.078125 57.671875 52.53125 59.125 
Q 50 60.59375 46.65625 61.390625 
Q 43.3125 62.203125 39.015625 62.203125 
Q 32.765625 62.203125 28.140625 60.25 
Q 23.53125 58.296875 20.5 54.6875 
Q 17.484375 51.078125 15.984375 46 
Q 14.5 40.921875 14.5 34.71875 
Q 14.5 28.515625 16.109375 23.359375 
Q 17.71875 18.21875 20.890625 14.484375 
Q 24.078125 10.75 28.78125 8.671875 
Q 33.5 6.59375 39.703125 6.59375 
Q 43.75 6.59375 47.171875 7.265625 
Q 50.59375 7.953125 53.34375 9.046875 
Q 56.109375 10.15625 58.203125 11.5 
Q 60.296875 12.84375 61.71875 14.203125 
L 61.71875 26.609375 
L 41.15625 26.609375 
L 41.15625 34.421875 
L 70.3125 34.421875 
L 70.3125 10.6875 
Q 68.015625 8.34375 64.90625 6.21875 
Q 61.8125 4.109375 57.953125 2.484375 
Q 54.109375 0.875 49.515625 -0.046875 
Q 44.921875 -0.984375 39.703125 -0.984375 
Q 31 -0.984375 24.5 1.671875 
Q 18.015625 4.34375 13.6875 9.109375 
Q 9.375 13.875 7.203125 20.40625 
Q 5.03125 26.953125 5.03125 34.71875 
z
" id="LiberationSans-71"/>
      <path d="M 37.5 0 
L 37.5 33.5 
Q 37.5 37.359375 37.015625 39.9375 
Q 36.53125 42.53125 35.375 44.109375 
Q 34.234375 45.703125 32.375 46.359375 
Q 30.515625 47.015625 27.828125 47.015625 
Q 25.046875 47.015625 22.796875 45.921875 
Q 20.5625 44.828125 18.96875 42.75 
Q 17.390625 40.671875 16.53125 37.625 
Q 15.671875 34.578125 15.671875 30.609375 
L 15.671875 0 
L 6.9375 0 
L 6.9375 41.546875 
Q 6.9375 43.21875 6.90625 45.046875 
Q 6.890625 46.875 6.828125 48.5 
Q 6.78125 50.140625 6.734375 51.3125 
Q 6.6875 52.484375 6.640625 52.828125 
L 14.9375 52.828125 
Q 14.984375 52.59375 15.03125 51.515625 
Q 15.09375 50.4375 15.15625 49.046875 
Q 15.234375 47.65625 15.28125 46.21875 
Q 15.328125 44.78125 15.328125 43.796875 
L 15.484375 43.796875 
Q 16.65625 46.09375 18.015625 47.953125 
Q 19.390625 49.8125 21.21875 51.09375 
Q 23.046875 52.390625 25.40625 53.09375 
Q 27.78125 53.8125 30.90625 53.8125 
Q 36.921875 53.8125 40.40625 51.421875 
Q 43.890625 49.03125 45.265625 43.796875 
L 45.40625 43.796875 
Q 46.578125 46.09375 48.046875 47.953125 
Q 49.515625 49.8125 51.46875 51.09375 
Q 53.421875 52.390625 55.859375 53.09375 
Q 58.296875 53.8125 61.421875 53.8125 
Q 65.4375 53.8125 68.328125 52.734375 
Q 71.234375 51.65625 73.09375 49.40625 
Q 74.953125 47.171875 75.828125 43.625 
Q 76.703125 40.09375 76.703125 35.203125 
L 76.703125 0 
L 68.015625 0 
L 68.015625 33.5 
Q 68.015625 37.359375 67.53125 39.9375 
Q 67.046875 42.53125 65.890625 44.109375 
Q 64.75 45.703125 62.890625 46.359375 
Q 61.03125 47.015625 58.34375 47.015625 
Q 55.5625 47.015625 53.3125 45.96875 
Q 51.078125 44.921875 49.484375 42.875 
Q 47.90625 40.828125 47.046875 37.75 
Q 46.1875 34.671875 46.1875 30.609375 
L 46.1875 0 
z
" id="LiberationSans-109"/>
     </defs>
     <g style="fill:#262626;" transform="translate(629.051563 84.334375)scale(0.1 -0.1)">
      <use xlink:href="#LiberationSans-71"/>
      <use x="77.783203" xlink:href="#LiberationSans-101"/>
      <use x="133.398438" xlink:href="#LiberationSans-114"/>
      <use x="166.699219" xlink:href="#LiberationSans-109"/>
      <use x="250" xlink:href="#LiberationSans-97"/>
      <use x="305.615234" xlink:href="#LiberationSans-110"/>
      <use x="361.230469" xlink:href="#LiberationSans-121"/>
     </g>
    </g>
    <g id="line2d_38">
     <path d="M 601.051563 95.15625 
L 621.051563 95.15625 
" style="fill:none;stroke:#1007e1;stroke-linecap:round;stroke-width:1.75;"/>
    </g>
    <g id="line2d_39"/>
    <g id="text_22">
     <!-- Italy -->
     <defs>
      <path d="M 9.234375 0 
L 9.234375 68.796875 
L 18.5625 68.796875 
L 18.5625 0 
z
" id="LiberationSans-73"/>
     </defs>
     <g style="fill:#262626;" transform="translate(629.051563 98.65625)scale(0.1 -0.1)">
      <use xlink:href="#LiberationSans-73"/>
      <use x="27.783203" xlink:href="#LiberationSans-116"/>
      <use x="55.566406" xlink:href="#LiberationSans-97"/>
      <use x="111.181641" xlink:href="#LiberationSans-108"/>
      <use x="133.398438" xlink:href="#LiberationSans-121"/>
     </g>
    </g>
    <g id="line2d_40">
     <path d="M 601.051563 109.478125 
L 621.051563 109.478125 
" style="fill:none;stroke:#a67d4c;stroke-linecap:round;stroke-width:1.75;"/>
    </g>
    <g id="line2d_41"/>
    <g id="text_23">
     <!-- Netherlands -->
     <defs>
      <path d="M 40.09375 8.5 
Q 37.640625 3.421875 33.609375 1.21875 
Q 29.59375 -0.984375 23.640625 -0.984375 
Q 13.625 -0.984375 8.90625 5.75 
Q 4.203125 12.5 4.203125 26.171875 
Q 4.203125 53.8125 23.640625 53.8125 
Q 29.640625 53.8125 33.640625 51.609375 
Q 37.640625 49.421875 40.09375 44.625 
L 40.1875 44.625 
Q 40.1875 45.125 40.15625 46.171875 
Q 40.140625 47.21875 40.109375 48.359375 
Q 40.09375 49.515625 40.09375 50.53125 
Q 40.09375 51.5625 40.09375 52 
L 40.09375 72.46875 
L 48.875 72.46875 
L 48.875 10.890625 
Q 48.875 8.984375 48.890625 7.21875 
Q 48.921875 5.46875 48.96875 4 
Q 49.03125 2.546875 49.078125 1.484375 
Q 49.125 0.4375 49.171875 0 
L 40.765625 0 
Q 40.671875 0.484375 40.59375 1.390625 
Q 40.53125 2.296875 40.453125 3.46875 
Q 40.375 4.640625 40.328125 5.9375 
Q 40.28125 7.234375 40.28125 8.5 
z
M 13.421875 26.46875 
Q 13.421875 21 14.109375 17.09375 
Q 14.796875 13.1875 16.3125 10.671875 
Q 17.828125 8.15625 20.171875 6.984375 
Q 22.515625 5.8125 25.875 5.8125 
Q 29.34375 5.8125 32 6.9375 
Q 34.671875 8.0625 36.453125 10.578125 
Q 38.234375 13.09375 39.15625 17.140625 
Q 40.09375 21.1875 40.09375 27.046875 
Q 40.09375 32.671875 39.15625 36.546875 
Q 38.234375 40.4375 36.421875 42.828125 
Q 34.625 45.21875 32 46.265625 
Q 29.390625 47.3125 25.984375 47.3125 
Q 22.75 47.3125 20.40625 46.1875 
Q 18.0625 45.0625 16.5 42.578125 
Q 14.9375 40.09375 14.171875 36.109375 
Q 13.421875 32.125 13.421875 26.46875 
z
" id="LiberationSans-100"/>
     </defs>
     <g style="fill:#262626;" transform="translate(629.051563 112.978125)scale(0.1 -0.1)">
      <use xlink:href="#LiberationSans-78"/>
      <use x="72.216797" xlink:href="#LiberationSans-101"/>
      <use x="127.832031" xlink:href="#LiberationSans-116"/>
      <use x="155.615234" xlink:href="#LiberationSans-104"/>
      <use x="211.230469" xlink:href="#LiberationSans-101"/>
      <use x="266.845703" xlink:href="#LiberationSans-114"/>
      <use x="300.146484" xlink:href="#LiberationSans-108"/>
      <use x="322.363281" xlink:href="#LiberationSans-97"/>
      <use x="377.978516" xlink:href="#LiberationSans-110"/>
      <use x="433.59375" xlink:href="#LiberationSans-100"/>
      <use x="489.208984" xlink:href="#LiberationSans-115"/>
     </g>
    </g>
    <g id="line2d_42">
     <path d="M 601.051563 123.8 
L 621.051563 123.8 
" style="fill:none;stroke:#ea71b3;stroke-linecap:round;stroke-width:1.75;"/>
    </g>
    <g id="line2d_43"/>
    <g id="text_24">
     <!-- Portugal -->
     <defs>
      <path d="M 61.421875 48.09375 
Q 61.421875 43.609375 59.9375 39.71875 
Q 58.453125 35.84375 55.5 32.984375 
Q 52.546875 30.125 48.09375 28.46875 
Q 43.65625 26.8125 37.75 26.8125 
L 17.53125 26.8125 
L 17.53125 0 
L 8.203125 0 
L 8.203125 68.796875 
L 37.15625 68.796875 
Q 43.265625 68.796875 47.796875 67.3125 
Q 52.34375 65.828125 55.375 63.109375 
Q 58.40625 60.40625 59.90625 56.5625 
Q 61.421875 52.734375 61.421875 48.09375 
z
M 52.046875 48 
Q 52.046875 54.546875 48.046875 57.9375 
Q 44.046875 61.328125 36.03125 61.328125 
L 17.53125 61.328125 
L 17.53125 34.1875 
L 36.421875 34.1875 
Q 44.484375 34.1875 48.265625 37.75 
Q 52.046875 41.3125 52.046875 48 
z
" id="LiberationSans-80"/>
      <path d="M 26.765625 -20.75 
Q 22.21875 -20.75 18.703125 -19.8125 
Q 15.1875 -18.890625 12.6875 -17.15625 
Q 10.203125 -15.4375 8.640625 -13.03125 
Q 7.078125 -10.640625 6.390625 -7.71875 
L 15.234375 -6.453125 
Q 16.109375 -10.109375 19.109375 -12.078125 
Q 22.125 -14.0625 27 -14.0625 
Q 29.984375 -14.0625 32.421875 -13.234375 
Q 34.859375 -12.40625 36.5625 -10.5625 
Q 38.28125 -8.734375 39.203125 -5.796875 
Q 40.140625 -2.875 40.140625 1.3125 
L 40.140625 9.8125 
L 40.046875 9.8125 
Q 39.0625 7.8125 37.625 5.984375 
Q 36.1875 4.15625 34.109375 2.734375 
Q 32.03125 1.3125 29.296875 0.453125 
Q 26.5625 -0.390625 23.046875 -0.390625 
Q 18.015625 -0.390625 14.421875 1.296875 
Q 10.84375 2.984375 8.5625 6.34375 
Q 6.296875 9.71875 5.25 14.71875 
Q 4.203125 19.734375 4.203125 26.3125 
Q 4.203125 32.671875 5.25 37.75 
Q 6.296875 42.828125 8.65625 46.359375 
Q 11.03125 49.90625 14.8125 51.78125 
Q 18.609375 53.65625 24.03125 53.65625 
Q 29.640625 53.65625 33.765625 51.09375 
Q 37.890625 48.53125 40.140625 43.796875 
L 40.234375 43.796875 
Q 40.234375 45.015625 40.296875 46.53125 
Q 40.375 48.046875 40.453125 49.390625 
Q 40.53125 50.734375 40.625 51.703125 
Q 40.71875 52.6875 40.828125 52.828125 
L 49.171875 52.828125 
Q 49.125 52.390625 49.078125 51.34375 
Q 49.03125 50.296875 48.96875 48.828125 
Q 48.921875 47.359375 48.890625 45.578125 
Q 48.875 43.796875 48.875 41.890625 
L 48.875 1.515625 
Q 48.875 -9.578125 43.421875 -15.15625 
Q 37.984375 -20.75 26.765625 -20.75 
z
M 40.140625 26.421875 
Q 40.140625 31.9375 38.9375 35.859375 
Q 37.75 39.796875 35.796875 42.28125 
Q 33.84375 44.78125 31.328125 45.953125 
Q 28.8125 47.125 26.171875 47.125 
Q 22.796875 47.125 20.375 45.953125 
Q 17.96875 44.78125 16.375 42.265625 
Q 14.796875 39.75 14.03125 35.8125 
Q 13.28125 31.890625 13.28125 26.421875 
Q 13.28125 20.703125 14.03125 16.8125 
Q 14.796875 12.9375 16.359375 10.546875 
Q 17.921875 8.15625 20.3125 7.125 
Q 22.703125 6.109375 26.03125 6.109375 
Q 28.65625 6.109375 31.171875 7.21875 
Q 33.6875 8.34375 35.6875 10.78125 
Q 37.703125 13.234375 38.921875 17.09375 
Q 40.140625 20.953125 40.140625 26.421875 
z
" id="LiberationSans-103"/>
     </defs>
     <g style="fill:#262626;" transform="translate(629.051563 127.3)scale(0.1 -0.1)">
      <use xlink:href="#LiberationSans-80"/>
      <use x="66.699219" xlink:href="#LiberationSans-111"/>
      <use x="122.314453" xlink:href="#LiberationSans-114"/>
      <use x="155.615234" xlink:href="#LiberationSans-116"/>
      <use x="183.398438" xlink:href="#LiberationSans-117"/>
      <use x="239.013672" xlink:href="#LiberationSans-103"/>
      <use x="294.628906" xlink:href="#LiberationSans-97"/>
      <use x="350.244141" xlink:href="#LiberationSans-108"/>
     </g>
    </g>
    <g id="line2d_44">
     <path d="M 601.051563 138.121875 
L 621.051563 138.121875 
" style="fill:none;stroke:#5feb16;stroke-linecap:round;stroke-width:1.75;"/>
    </g>
    <g id="line2d_45"/>
    <g id="text_25">
     <!-- Russia -->
     <defs>
      <path d="M 56.84375 0 
L 38.96875 28.5625 
L 17.53125 28.5625 
L 17.53125 0 
L 8.203125 0 
L 8.203125 68.796875 
L 40.578125 68.796875 
Q 46.4375 68.796875 50.953125 67.453125 
Q 55.46875 66.109375 58.546875 63.5625 
Q 61.625 61.03125 63.234375 57.375 
Q 64.84375 53.71875 64.84375 49.125 
Q 64.84375 45.84375 63.890625 42.671875 
Q 62.9375 39.5 60.890625 36.859375 
Q 58.84375 34.234375 55.65625 32.328125 
Q 52.484375 30.421875 48.046875 29.640625 
L 67.578125 0 
z
M 55.46875 49.03125 
Q 55.46875 52.15625 54.390625 54.4375 
Q 53.328125 56.734375 51.265625 58.265625 
Q 49.21875 59.8125 46.28125 60.5625 
Q 43.359375 61.328125 39.65625 61.328125 
L 17.53125 61.328125 
L 17.53125 35.9375 
L 40.046875 35.9375 
Q 44.046875 35.9375 46.96875 36.9375 
Q 49.90625 37.9375 51.78125 39.6875 
Q 53.65625 41.453125 54.5625 43.84375 
Q 55.46875 46.234375 55.46875 49.03125 
z
" id="LiberationSans-82"/>
     </defs>
     <g style="fill:#262626;" transform="translate(629.051563 141.621875)scale(0.1 -0.1)">
      <use xlink:href="#LiberationSans-82"/>
      <use x="72.216797" xlink:href="#LiberationSans-117"/>
      <use x="127.832031" xlink:href="#LiberationSans-115"/>
      <use x="177.832031" xlink:href="#LiberationSans-115"/>
      <use x="227.832031" xlink:href="#LiberationSans-105"/>
      <use x="250.048828" xlink:href="#LiberationSans-97"/>
     </g>
    </g>
    <g id="line2d_46">
     <path d="M 601.051563 152.44375 
L 621.051563 152.44375 
" style="fill:none;stroke:#907eba;stroke-linecap:round;stroke-width:1.75;"/>
    </g>
    <g id="line2d_47"/>
    <g id="text_26">
     <!-- Spain -->
     <defs>
      <path d="M 62.109375 19 
Q 62.109375 14.65625 60.421875 10.984375 
Q 58.734375 7.328125 55.21875 4.65625 
Q 51.703125 2 46.359375 0.5 
Q 41.015625 -0.984375 33.6875 -0.984375 
Q 20.84375 -0.984375 13.671875 3.515625 
Q 6.5 8.015625 4.546875 16.5 
L 13.578125 18.3125 
Q 14.265625 15.625 15.671875 13.421875 
Q 17.09375 11.234375 19.5 9.640625 
Q 21.921875 8.0625 25.484375 7.171875 
Q 29.046875 6.296875 34.03125 6.296875 
Q 38.1875 6.296875 41.65625 7 
Q 45.125 7.71875 47.609375 9.171875 
Q 50.09375 10.640625 51.484375 12.953125 
Q 52.875 15.28125 52.875 18.5 
Q 52.875 21.875 51.34375 23.96875 
Q 49.8125 26.078125 47.015625 27.4375 
Q 44.234375 28.8125 40.375 29.734375 
Q 36.53125 30.671875 31.84375 31.734375 
Q 28.953125 32.375 26.046875 33.125 
Q 23.140625 33.890625 20.484375 34.9375 
Q 17.828125 35.984375 15.484375 37.390625 
Q 13.140625 38.8125 11.421875 40.796875 
Q 9.71875 42.78125 8.734375 45.390625 
Q 7.765625 48 7.765625 51.421875 
Q 7.765625 56.296875 9.734375 59.78125 
Q 11.71875 63.28125 15.234375 65.53125 
Q 18.75 67.78125 23.53125 68.796875 
Q 28.328125 69.828125 33.890625 69.828125 
Q 40.28125 69.828125 44.8125 68.828125 
Q 49.359375 67.828125 52.484375 65.8125 
Q 55.609375 63.8125 57.484375 60.859375 
Q 59.375 57.90625 60.5 54 
L 51.3125 52.390625 
Q 50.640625 54.890625 49.34375 56.84375 
Q 48.046875 58.796875 45.9375 60.109375 
Q 43.84375 61.421875 40.84375 62.109375 
Q 37.84375 62.796875 33.796875 62.796875 
Q 29 62.796875 25.75 61.9375 
Q 22.515625 61.078125 20.53125 59.609375 
Q 18.5625 58.15625 17.703125 56.171875 
Q 16.84375 54.203125 16.84375 51.90625 
Q 16.84375 48.828125 18.375 46.84375 
Q 19.921875 44.875 22.5625 43.546875 
Q 25.203125 42.234375 28.65625 41.359375 
Q 32.125 40.484375 36.03125 39.59375 
Q 39.203125 38.875 42.359375 38.109375 
Q 45.515625 37.359375 48.390625 36.296875 
Q 51.265625 35.25 53.78125 33.828125 
Q 56.296875 32.421875 58.15625 30.375 
Q 60.015625 28.328125 61.0625 25.53125 
Q 62.109375 22.75 62.109375 19 
z
" id="LiberationSans-83"/>
     </defs>
     <g style="fill:#262626;" transform="translate(629.051563 155.94375)scale(0.1 -0.1)">
      <use xlink:href="#LiberationSans-83"/>
      <use x="66.699219" xlink:href="#LiberationSans-112"/>
      <use x="122.314453" xlink:href="#LiberationSans-97"/>
      <use x="177.929688" xlink:href="#LiberationSans-105"/>
      <use x="200.146484" xlink:href="#LiberationSans-110"/>
     </g>
    </g>
    <g id="line2d_48">
     <path d="M 601.051563 166.765625 
L 621.051563 166.765625 
" style="fill:none;stroke:#221cdf;stroke-linecap:round;stroke-width:1.75;"/>
    </g>
    <g id="line2d_49"/>
    <g id="text_27">
     <!-- Turkey -->
     <defs>
      <path d="M 35.15625 61.1875 
L 35.15625 0 
L 25.875 0 
L 25.875 61.1875 
L 2.25 61.1875 
L 2.25 68.796875 
L 58.796875 68.796875 
L 58.796875 61.1875 
z
" id="LiberationSans-84"/>
      <path d="M 39.84375 0 
L 21.96875 24.125 
L 15.53125 18.796875 
L 15.53125 0 
L 6.734375 0 
L 6.734375 72.46875 
L 15.53125 72.46875 
L 15.53125 27.203125 
L 38.71875 52.828125 
L 49.03125 52.828125 
L 27.59375 30.125 
L 50.140625 0 
z
" id="LiberationSans-107"/>
     </defs>
     <g style="fill:#262626;" transform="translate(629.051563 170.265625)scale(0.1 -0.1)">
      <use xlink:href="#LiberationSans-84"/>
      <use x="57.333984" xlink:href="#LiberationSans-117"/>
      <use x="112.949219" xlink:href="#LiberationSans-114"/>
      <use x="146.25" xlink:href="#LiberationSans-107"/>
      <use x="196.25" xlink:href="#LiberationSans-101"/>
      <use x="251.865234" xlink:href="#LiberationSans-121"/>
     </g>
    </g>
    <g id="line2d_50">
     <path d="M 601.051563 181.0875 
L 621.051563 181.0875 
" style="fill:none;stroke:#7516fd;stroke-dasharray:6.475,2.8;stroke-dashoffset:0;stroke-width:1.75;"/>
    </g>
    <g id="line2d_51"/>
    <g id="text_28">
     <!-- US -->
     <defs>
      <path d="M 35.6875 -0.984375 
Q 30.03125 -0.984375 24.953125 0.53125 
Q 19.875 2.046875 16.03125 5.25 
Q 12.203125 8.453125 9.953125 13.359375 
Q 7.71875 18.265625 7.71875 25 
L 7.71875 68.796875 
L 17.046875 68.796875 
L 17.046875 25.78125 
Q 17.046875 20.5625 18.4375 16.921875 
Q 19.828125 13.28125 22.3125 10.984375 
Q 24.8125 8.6875 28.203125 7.640625 
Q 31.59375 6.59375 35.640625 6.59375 
Q 39.65625 6.59375 43.21875 7.65625 
Q 46.78125 8.734375 49.46875 11.078125 
Q 52.15625 13.421875 53.6875 17.203125 
Q 55.21875 21 55.21875 26.421875 
L 55.21875 68.796875 
L 64.5 68.796875 
L 64.5 25.875 
Q 64.5 19 62.234375 13.9375 
Q 59.96875 8.890625 56.0625 5.5625 
Q 52.15625 2.25 46.90625 0.625 
Q 41.65625 -0.984375 35.6875 -0.984375 
z
" id="LiberationSans-85"/>
     </defs>
     <g style="fill:#262626;" transform="translate(629.051563 184.5875)scale(0.1 -0.1)">
      <use xlink:href="#LiberationSans-85"/>
      <use x="72.216797" xlink:href="#LiberationSans-83"/>
     </g>
    </g>
    <g id="line2d_52">
     <path d="M 601.051563 195.409375 
L 621.051563 195.409375 
" style="fill:none;stroke:#89f9c9;stroke-linecap:round;stroke-width:1.75;"/>
    </g>
    <g id="line2d_53"/>
    <g id="text_29">
     <!-- United Kingdom -->
     <defs>
      <path d="M 54 0 
L 26.515625 33.203125 
L 17.53125 26.375 
L 17.53125 0 
L 8.203125 0 
L 8.203125 68.796875 
L 17.53125 68.796875 
L 17.53125 34.328125 
L 50.6875 68.796875 
L 61.671875 68.796875 
L 32.375 38.921875 
L 65.578125 0 
z
" id="LiberationSans-75"/>
     </defs>
     <g style="fill:#262626;" transform="translate(629.051563 198.909375)scale(0.1 -0.1)">
      <use xlink:href="#LiberationSans-85"/>
      <use x="72.216797" xlink:href="#LiberationSans-110"/>
      <use x="127.832031" xlink:href="#LiberationSans-105"/>
      <use x="150.048828" xlink:href="#LiberationSans-116"/>
      <use x="177.832031" xlink:href="#LiberationSans-101"/>
      <use x="233.447266" xlink:href="#LiberationSans-100"/>
      <use x="289.0625" xlink:href="#LiberationSans-32"/>
      <use x="316.845703" xlink:href="#LiberationSans-75"/>
      <use x="383.544922" xlink:href="#LiberationSans-105"/>
      <use x="405.761719" xlink:href="#LiberationSans-110"/>
      <use x="461.376953" xlink:href="#LiberationSans-103"/>
      <use x="516.992188" xlink:href="#LiberationSans-100"/>
      <use x="572.607422" xlink:href="#LiberationSans-111"/>
      <use x="628.222656" xlink:href="#LiberationSans-109"/>
     </g>
    </g>
   </g>
  </g>
 </g>
 <defs>
  <clipPath id="p66897aeb71">
   <rect height="298.355396" width="660.31" x="48.89" y="10.8"/>
  </clipPath>
 </defs>
</svg>
