<?xml version="1.0" encoding="utf-8" standalone="no"?>
<!DOCTYPE svg PUBLIC "-//W3C//DTD SVG 1.1//EN"
  "http://www.w3.org/Graphics/SVG/1.1/DTD/svg11.dtd">
<!-- Created with matplotlib (https://matplotlib.org/) -->
<svg height="360pt" version="1.1" viewBox="0 0 720 360" width="720pt" xmlns="http://www.w3.org/2000/svg" xmlns:xlink="http://www.w3.org/1999/xlink">
 <defs>
  <style type="text/css">
*{stroke-linecap:butt;stroke-linejoin:round;}
  </style>
 </defs>
 <g id="figure_1">
  <g id="patch_1">
   <path d="M 0 360 
L 720 360 
L 720 0 
L 0 0 
z
" style="fill:#ffffff;"/>
  </g>
  <g id="axes_1">
   <g id="patch_2">
    <path d="M 48.177724 309.219036 
L 709.2 309.219036 
L 709.2 10.8 
L 48.177724 10.8 
z
" style="fill:#eaeaf2;"/>
   </g>
   <g id="matplotlib.axis_1">
    <g id="xtick_1">
     <g id="line2d_1"/>
     <g id="text_1">
      <!-- 0 -->
      <defs>
       <path d="M 51.703125 34.421875 
Q 51.703125 24.515625 49.828125 17.75 
Q 47.953125 10.984375 44.703125 6.8125 
Q 41.453125 2.640625 37.0625 0.828125 
Q 32.671875 -0.984375 27.6875 -0.984375 
Q 22.65625 -0.984375 18.3125 0.828125 
Q 13.96875 2.640625 10.765625 6.78125 
Q 7.5625 10.9375 5.734375 17.703125 
Q 3.90625 24.46875 3.90625 34.421875 
Q 3.90625 44.828125 5.734375 51.640625 
Q 7.5625 58.453125 10.78125 62.5 
Q 14.015625 66.546875 18.40625 68.1875 
Q 22.796875 69.828125 27.984375 69.828125 
Q 32.90625 69.828125 37.21875 68.1875 
Q 41.546875 66.546875 44.765625 62.5 
Q 48 58.453125 49.84375 51.640625 
Q 51.703125 44.828125 51.703125 34.421875 
z
M 42.78125 34.421875 
Q 42.78125 42.625 41.796875 48.0625 
Q 40.828125 53.515625 38.921875 56.765625 
Q 37.015625 60.015625 34.25 61.359375 
Q 31.5 62.703125 27.984375 62.703125 
Q 24.265625 62.703125 21.4375 61.328125 
Q 18.609375 59.96875 16.671875 56.71875 
Q 14.75 53.46875 13.765625 48.015625 
Q 12.796875 42.578125 12.796875 34.421875 
Q 12.796875 26.515625 13.796875 21.09375 
Q 14.796875 15.671875 16.71875 12.375 
Q 18.65625 9.078125 21.4375 7.640625 
Q 24.21875 6.203125 27.78125 6.203125 
Q 31.25 6.203125 34.03125 7.640625 
Q 36.8125 9.078125 38.734375 12.375 
Q 40.671875 15.671875 41.71875 21.09375 
Q 42.78125 26.515625 42.78125 34.421875 
z
" id="LiberationSans-48"/>
      </defs>
      <g style="fill:#262626;" transform="translate(78.086637 325.275527)rotate(-45)scale(0.1 -0.1)">
       <use xlink:href="#LiberationSans-48"/>
      </g>
     </g>
    </g>
    <g id="xtick_2">
     <g id="line2d_2"/>
     <g id="text_2">
      <!-- 20 -->
      <defs>
       <path d="M 5.03125 0 
L 5.03125 6.203125 
Q 7.515625 11.921875 11.109375 16.28125 
Q 14.703125 20.65625 18.65625 24.1875 
Q 22.609375 27.734375 26.484375 30.765625 
Q 30.375 33.796875 33.5 36.8125 
Q 36.625 39.84375 38.546875 43.15625 
Q 40.484375 46.484375 40.484375 50.6875 
Q 40.484375 53.609375 39.59375 55.828125 
Q 38.71875 58.0625 37.0625 59.5625 
Q 35.40625 61.078125 33.078125 61.828125 
Q 30.765625 62.59375 27.9375 62.59375 
Q 25.296875 62.59375 22.96875 61.859375 
Q 20.65625 61.140625 18.84375 59.671875 
Q 17.046875 58.203125 15.890625 56.03125 
Q 14.75 53.859375 14.40625 50.984375 
L 5.421875 51.8125 
Q 5.859375 55.515625 7.46875 58.78125 
Q 9.078125 62.0625 11.90625 64.53125 
Q 14.75 67 18.71875 68.40625 
Q 22.703125 69.828125 27.9375 69.828125 
Q 33.0625 69.828125 37.0625 68.609375 
Q 41.0625 67.390625 43.8125 64.984375 
Q 46.578125 62.59375 48.046875 59.078125 
Q 49.515625 55.5625 49.515625 50.984375 
Q 49.515625 47.515625 48.265625 44.390625 
Q 47.015625 41.265625 44.9375 38.421875 
Q 42.875 35.59375 40.140625 32.953125 
Q 37.40625 30.328125 34.421875 27.8125 
Q 31.453125 25.296875 28.421875 22.828125 
Q 25.390625 20.359375 22.71875 17.859375 
Q 20.0625 15.375 17.96875 12.8125 
Q 15.875 10.25 14.703125 7.46875 
L 50.59375 7.46875 
L 50.59375 0 
z
" id="LiberationSans-50"/>
      </defs>
      <g style="fill:#262626;" transform="translate(193.949831 329.207703)rotate(-45)scale(0.1 -0.1)">
       <use xlink:href="#LiberationSans-50"/>
       <use x="55.615234" xlink:href="#LiberationSans-48"/>
      </g>
     </g>
    </g>
    <g id="xtick_3">
     <g id="line2d_3"/>
     <g id="text_3">
      <!-- 40 -->
      <defs>
       <path d="M 43.015625 15.578125 
L 43.015625 0 
L 34.71875 0 
L 34.71875 15.578125 
L 2.296875 15.578125 
L 2.296875 22.40625 
L 33.796875 68.796875 
L 43.015625 68.796875 
L 43.015625 22.515625 
L 52.6875 22.515625 
L 52.6875 15.578125 
z
M 34.71875 58.890625 
Q 34.625 58.640625 34.234375 57.9375 
Q 33.84375 57.234375 33.34375 56.34375 
Q 32.859375 55.46875 32.34375 54.5625 
Q 31.84375 53.65625 31.453125 53.078125 
L 13.8125 27.09375 
Q 13.578125 26.703125 13.109375 26.0625 
Q 12.640625 25.4375 12.15625 24.78125 
Q 11.671875 24.125 11.171875 23.484375 
Q 10.6875 22.859375 10.40625 22.515625 
L 34.71875 22.515625 
z
" id="LiberationSans-52"/>
      </defs>
      <g style="fill:#262626;" transform="translate(311.779114 329.207703)rotate(-45)scale(0.1 -0.1)">
       <use xlink:href="#LiberationSans-52"/>
       <use x="55.615234" xlink:href="#LiberationSans-48"/>
      </g>
     </g>
    </g>
    <g id="xtick_4">
     <g id="line2d_4"/>
     <g id="text_4">
      <!-- 60 -->
      <defs>
       <path d="M 51.21875 22.515625 
Q 51.21875 17.328125 49.78125 13 
Q 48.34375 8.6875 45.53125 5.578125 
Q 42.71875 2.484375 38.5625 0.75 
Q 34.421875 -0.984375 29 -0.984375 
Q 23 -0.984375 18.5 1.3125 
Q 14.015625 3.609375 11.03125 7.921875 
Q 8.0625 12.25 6.5625 18.53125 
Q 5.078125 24.8125 5.078125 32.8125 
Q 5.078125 42 6.765625 48.921875 
Q 8.453125 55.859375 11.625 60.5 
Q 14.796875 65.140625 19.359375 67.484375 
Q 23.921875 69.828125 29.6875 69.828125 
Q 33.203125 69.828125 36.28125 69.09375 
Q 39.359375 68.359375 41.875 66.71875 
Q 44.390625 65.09375 46.28125 62.40625 
Q 48.1875 59.71875 49.3125 55.8125 
L 40.921875 54.296875 
Q 39.546875 58.734375 36.546875 60.71875 
Q 33.546875 62.703125 29.59375 62.703125 
Q 25.984375 62.703125 23.046875 60.984375 
Q 20.125 59.28125 18.0625 55.875 
Q 16.015625 52.484375 14.90625 47.359375 
Q 13.8125 42.234375 13.8125 35.40625 
Q 16.21875 39.84375 20.5625 42.15625 
Q 24.90625 44.484375 30.515625 44.484375 
Q 35.203125 44.484375 39.015625 42.96875 
Q 42.828125 41.453125 45.53125 38.59375 
Q 48.25 35.75 49.734375 31.671875 
Q 51.21875 27.59375 51.21875 22.515625 
z
M 42.28125 22.125 
Q 42.28125 25.6875 41.40625 28.5625 
Q 40.53125 31.453125 38.765625 33.46875 
Q 37.015625 35.5 34.421875 36.59375 
Q 31.84375 37.703125 28.421875 37.703125 
Q 26.03125 37.703125 23.578125 36.984375 
Q 21.140625 36.28125 19.15625 34.6875 
Q 17.1875 33.109375 15.9375 30.515625 
Q 14.703125 27.9375 14.703125 24.21875 
Q 14.703125 20.40625 15.671875 17.109375 
Q 16.65625 13.8125 18.484375 11.375 
Q 20.3125 8.9375 22.890625 7.515625 
Q 25.484375 6.109375 28.71875 6.109375 
Q 31.890625 6.109375 34.40625 7.203125 
Q 36.921875 8.296875 38.671875 10.375 
Q 40.4375 12.453125 41.359375 15.421875 
Q 42.28125 18.40625 42.28125 22.125 
z
" id="LiberationSans-54"/>
      </defs>
      <g style="fill:#262626;" transform="translate(429.608396 329.207703)rotate(-45)scale(0.1 -0.1)">
       <use xlink:href="#LiberationSans-54"/>
       <use x="55.615234" xlink:href="#LiberationSans-48"/>
      </g>
     </g>
    </g>
    <g id="xtick_5">
     <g id="line2d_5"/>
     <g id="text_5">
      <!-- 80 -->
      <defs>
       <path d="M 51.265625 19.1875 
Q 51.265625 14.796875 49.875 11.109375 
Q 48.484375 7.421875 45.625 4.734375 
Q 42.78125 2.046875 38.328125 0.53125 
Q 33.890625 -0.984375 27.828125 -0.984375 
Q 21.78125 -0.984375 17.359375 0.53125 
Q 12.9375 2.046875 10.03125 4.703125 
Q 7.125 7.375 5.734375 11.0625 
Q 4.34375 14.75 4.34375 19.09375 
Q 4.34375 22.859375 5.484375 25.78125 
Q 6.640625 28.71875 8.5625 30.828125 
Q 10.5 32.953125 12.96875 34.25 
Q 15.4375 35.546875 18.0625 35.984375 
L 18.0625 36.1875 
Q 15.1875 36.859375 12.90625 38.375 
Q 10.640625 39.890625 9.09375 42.015625 
Q 7.5625 44.140625 6.75 46.71875 
Q 5.953125 49.3125 5.953125 52.203125 
Q 5.953125 55.8125 7.34375 59 
Q 8.734375 62.203125 11.46875 64.625 
Q 14.203125 67.046875 18.25 68.4375 
Q 22.3125 69.828125 27.640625 69.828125 
Q 33.25 69.828125 37.375 68.40625 
Q 41.5 67 44.203125 64.578125 
Q 46.921875 62.15625 48.234375 58.9375 
Q 49.5625 55.71875 49.5625 52.09375 
Q 49.5625 49.265625 48.75 46.671875 
Q 47.953125 44.09375 46.40625 41.96875 
Q 44.875 39.84375 42.59375 38.34375 
Q 40.328125 36.859375 37.359375 36.28125 
L 37.359375 36.078125 
Q 40.328125 35.59375 42.859375 34.296875 
Q 45.40625 33.015625 47.265625 30.890625 
Q 49.125 28.765625 50.1875 25.828125 
Q 51.265625 22.90625 51.265625 19.1875 
z
M 40.4375 51.609375 
Q 40.4375 54.203125 39.765625 56.34375 
Q 39.109375 58.5 37.59375 60.03125 
Q 36.078125 61.578125 33.640625 62.421875 
Q 31.203125 63.28125 27.640625 63.28125 
Q 24.171875 63.28125 21.78125 62.421875 
Q 19.390625 61.578125 17.84375 60.03125 
Q 16.3125 58.5 15.625 56.34375 
Q 14.9375 54.203125 14.9375 51.609375 
Q 14.9375 49.5625 15.46875 47.40625 
Q 16.015625 45.265625 17.421875 43.5 
Q 18.84375 41.75 21.328125 40.625 
Q 23.828125 39.5 27.734375 39.5 
Q 31.890625 39.5 34.40625 40.625 
Q 36.921875 41.75 38.25 43.5 
Q 39.59375 45.265625 40.015625 47.40625 
Q 40.4375 49.5625 40.4375 51.609375 
z
M 42.140625 20.015625 
Q 42.140625 22.515625 41.453125 24.828125 
Q 40.765625 27.15625 39.109375 28.9375 
Q 37.453125 30.71875 34.640625 31.8125 
Q 31.84375 32.90625 27.640625 32.90625 
Q 23.78125 32.90625 21.0625 31.8125 
Q 18.359375 30.71875 16.671875 28.90625 
Q 14.984375 27.09375 14.203125 24.71875 
Q 13.421875 22.359375 13.421875 19.828125 
Q 13.421875 16.65625 14.203125 14.03125 
Q 14.984375 11.421875 16.6875 9.546875 
Q 18.40625 7.671875 21.1875 6.640625 
Q 23.96875 5.609375 27.9375 5.609375 
Q 31.9375 5.609375 34.671875 6.640625 
Q 37.40625 7.671875 39.0625 9.546875 
Q 40.71875 11.421875 41.421875 14.078125 
Q 42.140625 16.75 42.140625 20.015625 
z
" id="LiberationSans-56"/>
      </defs>
      <g style="fill:#262626;" transform="translate(547.437679 329.207703)rotate(-45)scale(0.1 -0.1)">
       <use xlink:href="#LiberationSans-56"/>
       <use x="55.615234" xlink:href="#LiberationSans-48"/>
      </g>
     </g>
    </g>
    <g id="xtick_6">
     <g id="line2d_6"/>
     <g id="text_6">
      <!-- 100 -->
      <defs>
       <path d="M 7.625 0 
L 7.625 7.46875 
L 25.140625 7.46875 
L 25.140625 60.40625 
L 9.625 49.3125 
L 9.625 57.625 
L 25.875 68.796875 
L 33.984375 68.796875 
L 33.984375 7.46875 
L 50.734375 7.46875 
L 50.734375 0 
z
" id="LiberationSans-49"/>
      </defs>
      <g style="fill:#262626;" transform="translate(663.300874 333.13988)rotate(-45)scale(0.1 -0.1)">
       <use xlink:href="#LiberationSans-49"/>
       <use x="55.615234" xlink:href="#LiberationSans-48"/>
       <use x="111.230469" xlink:href="#LiberationSans-48"/>
      </g>
     </g>
    </g>
    <g id="text_7">
     <!-- Days since case nº20 -->
     <defs>
      <path d="M 67.4375 35.109375 
Q 67.4375 26.515625 64.84375 19.9375 
Q 62.25 13.375 57.75 8.953125 
Q 53.265625 4.546875 47.140625 2.265625 
Q 41.015625 0 33.9375 0 
L 8.203125 0 
L 8.203125 68.796875 
L 30.953125 68.796875 
Q 38.921875 68.796875 45.625 66.8125 
Q 52.34375 64.84375 57.171875 60.71875 
Q 62.015625 56.59375 64.71875 50.234375 
Q 67.4375 43.890625 67.4375 35.109375 
z
M 58.0625 35.109375 
Q 58.0625 42.09375 56.046875 47.046875 
Q 54.046875 52 50.4375 55.171875 
Q 46.828125 58.34375 41.796875 59.828125 
Q 36.765625 61.328125 30.765625 61.328125 
L 17.53125 61.328125 
L 17.53125 7.46875 
L 32.859375 7.46875 
Q 38.28125 7.46875 42.890625 9.21875 
Q 47.515625 10.984375 50.875 14.453125 
Q 54.25 17.921875 56.15625 23.09375 
Q 58.0625 28.265625 58.0625 35.109375 
z
" id="LiberationSans-68"/>
      <path d="M 20.21875 -0.984375 
Q 12.25 -0.984375 8.25 3.21875 
Q 4.25 7.421875 4.25 14.75 
Q 4.25 19.96875 6.21875 23.3125 
Q 8.203125 26.65625 11.390625 28.5625 
Q 14.59375 30.46875 18.6875 31.203125 
Q 22.796875 31.9375 27.046875 32.03125 
L 38.921875 32.234375 
L 38.921875 35.109375 
Q 38.921875 38.375 38.234375 40.671875 
Q 37.546875 42.96875 36.125 44.375 
Q 34.71875 45.796875 32.59375 46.453125 
Q 30.46875 47.125 27.59375 47.125 
Q 25.046875 47.125 23 46.75 
Q 20.953125 46.390625 19.4375 45.4375 
Q 17.921875 44.484375 16.984375 42.84375 
Q 16.0625 41.21875 15.765625 38.71875 
L 6.59375 39.546875 
Q 7.078125 42.671875 8.4375 45.28125 
Q 9.8125 47.90625 12.328125 49.796875 
Q 14.84375 51.703125 18.625 52.75 
Q 22.40625 53.8125 27.78125 53.8125 
Q 37.75 53.8125 42.765625 49.234375 
Q 47.796875 44.671875 47.796875 36.03125 
L 47.796875 13.28125 
Q 47.796875 9.375 48.828125 7.390625 
Q 49.859375 5.421875 52.734375 5.421875 
Q 53.46875 5.421875 54.203125 5.515625 
Q 54.9375 5.609375 55.609375 5.765625 
L 55.609375 0.296875 
Q 53.953125 -0.09375 52.3125 -0.28125 
Q 50.6875 -0.484375 48.828125 -0.484375 
Q 46.34375 -0.484375 44.5625 0.171875 
Q 42.78125 0.828125 41.65625 2.171875 
Q 40.53125 3.515625 39.9375 5.484375 
Q 39.359375 7.46875 39.203125 10.109375 
L 38.921875 10.109375 
Q 37.5 7.5625 35.8125 5.515625 
Q 34.125 3.46875 31.875 2.03125 
Q 29.640625 0.59375 26.78125 -0.1875 
Q 23.921875 -0.984375 20.21875 -0.984375 
z
M 22.21875 5.609375 
Q 26.421875 5.609375 29.5625 7.140625 
Q 32.71875 8.6875 34.78125 11.078125 
Q 36.859375 13.484375 37.890625 16.3125 
Q 38.921875 19.140625 38.921875 21.734375 
L 38.921875 26.078125 
L 29.296875 25.875 
Q 26.078125 25.828125 23.171875 25.40625 
Q 20.265625 25 18.0625 23.78125 
Q 15.875 22.5625 14.578125 20.359375 
Q 13.28125 18.171875 13.28125 14.59375 
Q 13.28125 10.296875 15.59375 7.953125 
Q 17.921875 5.609375 22.21875 5.609375 
z
" id="LiberationSans-97"/>
      <path d="M 29.5 0 
Q 27.640625 -4.78125 25.703125 -8.609375 
Q 23.78125 -12.453125 21.390625 -15.15625 
Q 19 -17.875 16.0625 -19.3125 
Q 13.140625 -20.75 9.328125 -20.75 
Q 7.671875 -20.75 6.25 -20.65625 
Q 4.828125 -20.5625 3.265625 -20.21875 
L 3.265625 -13.625 
Q 4.203125 -13.765625 5.375 -13.84375 
Q 6.546875 -13.921875 7.375 -13.921875 
Q 11.234375 -13.921875 14.546875 -11.03125 
Q 17.875 -8.15625 20.359375 -1.859375 
L 21.1875 0.25 
L 0.25 52.828125 
L 9.625 52.828125 
L 20.75 23.640625 
Q 21.234375 22.3125 21.984375 20.109375 
Q 22.75 17.921875 23.5 15.71875 
Q 24.265625 13.53125 24.84375 11.765625 
Q 25.4375 10.015625 25.53125 9.578125 
Q 25.6875 10.109375 26.25 11.6875 
Q 26.8125 13.28125 27.515625 15.234375 
Q 28.21875 17.1875 28.953125 19.1875 
Q 29.6875 21.1875 30.171875 22.65625 
L 40.53125 52.828125 
L 49.8125 52.828125 
z
" id="LiberationSans-121"/>
      <path d="M 46.390625 14.59375 
Q 46.390625 10.890625 44.9375 7.984375 
Q 43.5 5.078125 40.765625 3.09375 
Q 38.03125 1.125 34.046875 0.0625 
Q 30.078125 -0.984375 24.953125 -0.984375 
Q 20.359375 -0.984375 16.671875 -0.265625 
Q 12.984375 0.4375 10.203125 2 
Q 7.421875 3.5625 5.53125 6.125 
Q 3.65625 8.6875 2.78125 12.40625 
L 10.546875 13.921875 
Q 11.671875 9.671875 15.1875 7.6875 
Q 18.703125 5.71875 24.953125 5.71875 
Q 27.78125 5.71875 30.140625 6.109375 
Q 32.515625 6.5 34.21875 7.453125 
Q 35.9375 8.40625 36.890625 9.984375 
Q 37.84375 11.578125 37.84375 13.921875 
Q 37.84375 16.3125 36.71875 17.84375 
Q 35.59375 19.390625 33.59375 20.40625 
Q 31.59375 21.4375 28.734375 22.1875 
Q 25.875 22.953125 22.46875 23.875 
Q 19.28125 24.703125 16.15625 25.734375 
Q 13.03125 26.765625 10.515625 28.4375 
Q 8.015625 30.125 6.453125 32.609375 
Q 4.890625 35.109375 4.890625 38.875 
Q 4.890625 46.09375 10.03125 49.875 
Q 15.1875 53.65625 25.046875 53.65625 
Q 33.796875 53.65625 38.9375 50.578125 
Q 44.09375 47.515625 45.453125 40.71875 
L 37.546875 39.75 
Q 37.109375 41.796875 35.9375 43.1875 
Q 34.765625 44.578125 33.109375 45.4375 
Q 31.453125 46.296875 29.375 46.65625 
Q 27.296875 47.015625 25.046875 47.015625 
Q 19.09375 47.015625 16.25 45.203125 
Q 13.421875 43.40625 13.421875 39.75 
Q 13.421875 37.59375 14.46875 36.203125 
Q 15.53125 34.8125 17.40625 33.859375 
Q 19.28125 32.90625 21.921875 32.203125 
Q 24.5625 31.5 27.734375 30.71875 
Q 29.828125 30.171875 32.03125 29.5625 
Q 34.234375 28.953125 36.296875 28.09375 
Q 38.375 27.25 40.203125 26.09375 
Q 42.046875 24.953125 43.40625 23.34375 
Q 44.78125 21.734375 45.578125 19.578125 
Q 46.390625 17.4375 46.390625 14.59375 
z
" id="LiberationSans-115"/>
      <path id="LiberationSans-32"/>
      <path d="M 6.6875 64.0625 
L 6.6875 72.46875 
L 15.484375 72.46875 
L 15.484375 64.0625 
z
M 6.6875 0 
L 6.6875 52.828125 
L 15.484375 52.828125 
L 15.484375 0 
z
" id="LiberationSans-105"/>
      <path d="M 40.28125 0 
L 40.28125 33.5 
Q 40.28125 37.359375 39.71875 39.9375 
Q 39.15625 42.53125 37.890625 44.109375 
Q 36.625 45.703125 34.546875 46.359375 
Q 32.46875 47.015625 29.390625 47.015625 
Q 26.265625 47.015625 23.75 45.921875 
Q 21.234375 44.828125 19.453125 42.75 
Q 17.671875 40.671875 16.6875 37.625 
Q 15.71875 34.578125 15.71875 30.609375 
L 15.71875 0 
L 6.9375 0 
L 6.9375 41.546875 
Q 6.9375 43.21875 6.90625 45.046875 
Q 6.890625 46.875 6.828125 48.5 
Q 6.78125 50.140625 6.734375 51.3125 
Q 6.6875 52.484375 6.640625 52.828125 
L 14.9375 52.828125 
Q 14.984375 52.59375 15.03125 51.515625 
Q 15.09375 50.4375 15.15625 49.046875 
Q 15.234375 47.65625 15.28125 46.21875 
Q 15.328125 44.78125 15.328125 43.796875 
L 15.484375 43.796875 
Q 16.75 46.09375 18.265625 47.953125 
Q 19.78125 49.8125 21.78125 51.09375 
Q 23.78125 52.390625 26.359375 53.09375 
Q 28.953125 53.8125 32.375 53.8125 
Q 36.765625 53.8125 39.9375 52.734375 
Q 43.109375 51.65625 45.15625 49.40625 
Q 47.21875 47.171875 48.171875 43.625 
Q 49.125 40.09375 49.125 35.203125 
L 49.125 0 
z
" id="LiberationSans-110"/>
      <path d="M 13.421875 26.65625 
Q 13.421875 22.125 14.078125 18.3125 
Q 14.75 14.5 16.3125 11.734375 
Q 17.875 8.984375 20.4375 7.46875 
Q 23 5.953125 26.765625 5.953125 
Q 31.453125 5.953125 34.59375 8.484375 
Q 37.75 11.03125 38.484375 16.3125 
L 47.359375 15.71875 
Q 46.921875 12.453125 45.453125 9.421875 
Q 44 6.390625 41.484375 4.09375 
Q 38.96875 1.8125 35.34375 0.40625 
Q 31.734375 -0.984375 27 -0.984375 
Q 20.796875 -0.984375 16.453125 1.109375 
Q 12.109375 3.21875 9.390625 6.90625 
Q 6.6875 10.59375 5.46875 15.59375 
Q 4.25 20.609375 4.25 26.46875 
Q 4.25 31.78125 5.125 35.859375 
Q 6 39.9375 7.59375 42.984375 
Q 9.1875 46.046875 11.328125 48.125 
Q 13.484375 50.203125 15.984375 51.4375 
Q 18.5 52.6875 21.28125 53.25 
Q 24.078125 53.8125 26.90625 53.8125 
Q 31.34375 53.8125 34.8125 52.59375 
Q 38.28125 51.375 40.796875 49.25 
Q 43.3125 47.125 44.875 44.234375 
Q 46.4375 41.359375 47.078125 38.03125 
L 38.03125 37.359375 
Q 37.359375 41.75 34.5625 44.328125 
Q 31.78125 46.921875 26.65625 46.921875 
Q 22.90625 46.921875 20.390625 45.671875 
Q 17.875 44.4375 16.3125 41.921875 
Q 14.75 39.40625 14.078125 35.59375 
Q 13.421875 31.78125 13.421875 26.65625 
z
" id="LiberationSans-99"/>
      <path d="M 13.484375 24.5625 
Q 13.484375 20.40625 14.328125 16.90625 
Q 15.1875 13.421875 16.96875 10.90625 
Q 18.75 8.40625 21.53125 7 
Q 24.3125 5.609375 28.21875 5.609375 
Q 33.9375 5.609375 37.375 7.90625 
Q 40.828125 10.203125 42.046875 13.71875 
L 49.75 11.53125 
Q 48.921875 9.328125 47.4375 7.109375 
Q 45.953125 4.890625 43.453125 3.09375 
Q 40.96875 1.3125 37.234375 0.15625 
Q 33.5 -0.984375 28.21875 -0.984375 
Q 16.5 -0.984375 10.375 6 
Q 4.25 12.984375 4.25 26.765625 
Q 4.25 34.1875 6.09375 39.328125 
Q 7.953125 44.484375 11.171875 47.703125 
Q 14.40625 50.921875 18.703125 52.359375 
Q 23 53.8125 27.875 53.8125 
Q 34.515625 53.8125 38.984375 51.65625 
Q 43.453125 49.515625 46.15625 45.71875 
Q 48.875 41.9375 50.015625 36.8125 
Q 51.171875 31.6875 51.171875 25.734375 
L 51.171875 24.5625 
z
M 42.09375 31.296875 
Q 41.359375 39.65625 37.84375 43.484375 
Q 34.328125 47.3125 27.734375 47.3125 
Q 25.53125 47.3125 23.109375 46.609375 
Q 20.703125 45.90625 18.65625 44.09375 
Q 16.609375 42.28125 15.1875 39.171875 
Q 13.765625 36.078125 13.578125 31.296875 
z
" id="LiberationSans-101"/>
      <path d="M 35.296875 50.875 
Q 35.296875 41.703125 31 36.734375 
Q 26.703125 31.78125 18.171875 31.78125 
Q 9.96875 31.78125 5.640625 36.6875 
Q 1.3125 41.609375 1.3125 50.875 
Q 1.3125 55.328125 2.359375 58.859375 
Q 3.421875 62.40625 5.546875 64.859375 
Q 7.671875 67.328125 10.859375 68.625 
Q 14.0625 69.921875 18.359375 69.921875 
Q 22.90625 69.921875 26.09375 68.625 
Q 29.296875 67.328125 31.34375 64.890625 
Q 33.40625 62.453125 34.34375 58.90625 
Q 35.296875 55.375 35.296875 50.875 
z
M 28.03125 50.875 
Q 28.03125 54.9375 27.421875 57.609375 
Q 26.8125 60.296875 25.578125 61.890625 
Q 24.359375 63.484375 22.59375 64.140625 
Q 20.84375 64.796875 18.5 64.796875 
Q 16.15625 64.796875 14.328125 64.140625 
Q 12.5 63.484375 11.25 61.859375 
Q 10.015625 60.25 9.375 57.5625 
Q 8.734375 54.890625 8.734375 50.875 
Q 8.734375 46.78125 9.421875 44.09375 
Q 10.109375 41.40625 11.34375 39.796875 
Q 12.59375 38.1875 14.296875 37.546875 
Q 16.015625 36.921875 18.109375 36.921875 
Q 20.515625 36.921875 22.34375 37.546875 
Q 24.171875 38.1875 25.4375 39.796875 
Q 26.703125 41.40625 27.359375 44.09375 
Q 28.03125 46.78125 28.03125 50.875 
z
" id="LiberationSans-186"/>
     </defs>
     <g style="fill:#262626;" transform="translate(325.933549 346.578689)scale(0.11 -0.11)">
      <use xlink:href="#LiberationSans-68"/>
      <use x="72.216797" xlink:href="#LiberationSans-97"/>
      <use x="127.832031" xlink:href="#LiberationSans-121"/>
      <use x="177.832031" xlink:href="#LiberationSans-115"/>
      <use x="227.832031" xlink:href="#LiberationSans-32"/>
      <use x="255.615234" xlink:href="#LiberationSans-115"/>
      <use x="305.615234" xlink:href="#LiberationSans-105"/>
      <use x="327.832031" xlink:href="#LiberationSans-110"/>
      <use x="383.447266" xlink:href="#LiberationSans-99"/>
      <use x="433.447266" xlink:href="#LiberationSans-101"/>
      <use x="489.0625" xlink:href="#LiberationSans-32"/>
      <use x="516.845703" xlink:href="#LiberationSans-99"/>
      <use x="566.845703" xlink:href="#LiberationSans-97"/>
      <use x="622.460938" xlink:href="#LiberationSans-115"/>
      <use x="672.460938" xlink:href="#LiberationSans-101"/>
      <use x="728.076172" xlink:href="#LiberationSans-32"/>
      <use x="755.859375" xlink:href="#LiberationSans-110"/>
      <use x="811.474609" xlink:href="#LiberationSans-186"/>
      <use x="847.998047" xlink:href="#LiberationSans-50"/>
      <use x="903.613281" xlink:href="#LiberationSans-48"/>
     </g>
    </g>
   </g>
   <g id="matplotlib.axis_2">
    <g id="ytick_1">
     <g id="line2d_7"/>
     <g id="text_8">
      <!-- $\mathdefault{10^{2}}$ -->
      <g style="fill:#262626;" transform="translate(25.777724 259.428433)scale(0.1 -0.1)">
       <use transform="translate(0 0.140625)" xlink:href="#LiberationSans-49"/>
       <use transform="translate(55.615234 0.140625)" xlink:href="#LiberationSans-48"/>
       <use transform="translate(112.154961 37.120312)scale(0.7)" xlink:href="#LiberationSans-50"/>
      </g>
     </g>
    </g>
    <g id="ytick_2">
     <g id="line2d_8"/>
     <g id="text_9">
      <!-- $\mathdefault{10^{3}}$ -->
      <defs>
       <path d="M 51.21875 19 
Q 51.21875 14.265625 49.671875 10.546875 
Q 48.140625 6.84375 45.1875 4.265625 
Q 42.234375 1.703125 37.859375 0.359375 
Q 33.5 -0.984375 27.875 -0.984375 
Q 21.484375 -0.984375 17.109375 0.609375 
Q 12.75 2.203125 9.90625 4.8125 
Q 7.078125 7.421875 5.65625 10.765625 
Q 4.25 14.109375 3.8125 17.671875 
L 12.890625 18.5 
Q 13.28125 15.765625 14.328125 13.515625 
Q 15.375 11.28125 17.1875 9.671875 
Q 19 8.0625 21.625 7.171875 
Q 24.265625 6.296875 27.875 6.296875 
Q 34.515625 6.296875 38.296875 9.5625 
Q 42.09375 12.84375 42.09375 19.28125 
Q 42.09375 23.09375 40.40625 25.40625 
Q 38.71875 27.734375 36.203125 29.03125 
Q 33.6875 30.328125 30.734375 30.765625 
Q 27.78125 31.203125 25.296875 31.203125 
L 20.3125 31.203125 
L 20.3125 38.8125 
L 25.09375 38.8125 
Q 27.59375 38.8125 30.265625 39.328125 
Q 32.953125 39.84375 35.171875 41.1875 
Q 37.40625 42.53125 38.84375 44.828125 
Q 40.28125 47.125 40.28125 50.6875 
Q 40.28125 56.203125 37.03125 59.390625 
Q 33.796875 62.59375 27.390625 62.59375 
Q 21.578125 62.59375 17.984375 59.609375 
Q 14.40625 56.640625 13.8125 51.21875 
L 4.984375 51.90625 
Q 5.515625 56.453125 7.46875 59.8125 
Q 9.421875 63.1875 12.421875 65.40625 
Q 15.4375 67.625 19.28125 68.71875 
Q 23.140625 69.828125 27.484375 69.828125 
Q 33.25 69.828125 37.390625 68.375 
Q 41.546875 66.9375 44.1875 64.46875 
Q 46.828125 62.015625 48.0625 58.6875 
Q 49.3125 55.375 49.3125 51.609375 
Q 49.3125 48.578125 48.484375 45.9375 
Q 47.65625 43.3125 45.890625 41.203125 
Q 44.140625 39.109375 41.421875 37.59375 
Q 38.71875 36.078125 34.90625 35.296875 
L 34.90625 35.109375 
Q 39.0625 34.671875 42.140625 33.21875 
Q 45.21875 31.78125 47.21875 29.625 
Q 49.21875 27.484375 50.21875 24.75 
Q 51.21875 22.015625 51.21875 19 
z
" id="LiberationSans-51"/>
      </defs>
      <g style="fill:#262626;" transform="translate(25.777724 202.416633)scale(0.1 -0.1)">
       <use transform="translate(0 0.140625)" xlink:href="#LiberationSans-49"/>
       <use transform="translate(55.615234 0.140625)" xlink:href="#LiberationSans-48"/>
       <use transform="translate(112.154961 37.120312)scale(0.7)" xlink:href="#LiberationSans-51"/>
      </g>
     </g>
    </g>
    <g id="ytick_3">
     <g id="line2d_9"/>
     <g id="text_10">
      <!-- $\mathdefault{10^{4}}$ -->
      <g style="fill:#262626;" transform="translate(25.777724 145.404832)scale(0.1 -0.1)">
       <use transform="translate(0 0.8625)" xlink:href="#LiberationSans-49"/>
       <use transform="translate(55.615234 0.8625)" xlink:href="#LiberationSans-48"/>
       <use transform="translate(112.154961 37.842188)scale(0.7)" xlink:href="#LiberationSans-52"/>
      </g>
     </g>
    </g>
    <g id="ytick_4">
     <g id="line2d_10"/>
     <g id="text_11">
      <!-- $\mathdefault{10^{5}}$ -->
      <defs>
       <path d="M 51.421875 22.40625 
Q 51.421875 17.234375 49.859375 12.9375 
Q 48.296875 8.640625 45.21875 5.53125 
Q 42.140625 2.4375 37.578125 0.71875 
Q 33.015625 -0.984375 27 -0.984375 
Q 21.578125 -0.984375 17.546875 0.28125 
Q 13.53125 1.5625 10.734375 3.78125 
Q 7.953125 6 6.3125 8.984375 
Q 4.6875 11.96875 4 15.375 
L 12.890625 16.40625 
Q 13.421875 14.453125 14.390625 12.625 
Q 15.375 10.796875 17.0625 9.34375 
Q 18.75 7.90625 21.21875 7.046875 
Q 23.6875 6.203125 27.203125 6.203125 
Q 30.609375 6.203125 33.390625 7.25 
Q 36.1875 8.296875 38.15625 10.34375 
Q 40.140625 12.40625 41.203125 15.375 
Q 42.28125 18.359375 42.28125 22.21875 
Q 42.28125 25.390625 41.25 28.046875 
Q 40.234375 30.71875 38.328125 32.640625 
Q 36.421875 34.578125 33.65625 35.640625 
Q 30.90625 36.71875 27.390625 36.71875 
Q 25.203125 36.71875 23.34375 36.328125 
Q 21.484375 35.9375 19.890625 35.25 
Q 18.3125 34.578125 17.015625 33.671875 
Q 15.71875 32.765625 14.59375 31.78125 
L 6 31.78125 
L 8.296875 68.796875 
L 47.40625 68.796875 
L 47.40625 61.328125 
L 16.3125 61.328125 
L 14.984375 39.5 
Q 17.328125 41.3125 20.84375 42.59375 
Q 24.359375 43.890625 29.203125 43.890625 
Q 34.328125 43.890625 38.421875 42.328125 
Q 42.53125 40.765625 45.40625 37.90625 
Q 48.296875 35.0625 49.859375 31.109375 
Q 51.421875 27.15625 51.421875 22.40625 
z
" id="LiberationSans-53"/>
      </defs>
      <g style="fill:#262626;" transform="translate(25.777724 88.393032)scale(0.1 -0.1)">
       <use transform="translate(0 0.8625)" xlink:href="#LiberationSans-49"/>
       <use transform="translate(55.615234 0.8625)" xlink:href="#LiberationSans-48"/>
       <use transform="translate(112.154961 37.842188)scale(0.7)" xlink:href="#LiberationSans-53"/>
      </g>
     </g>
    </g>
    <g id="ytick_5">
     <g id="line2d_11"/>
     <g id="text_12">
      <!-- $\mathdefault{10^{6}}$ -->
      <g style="fill:#262626;" transform="translate(25.777724 31.381231)scale(0.1 -0.1)">
       <use transform="translate(0 0.140625)" xlink:href="#LiberationSans-49"/>
       <use transform="translate(55.615234 0.140625)" xlink:href="#LiberationSans-48"/>
       <use transform="translate(112.154961 37.120312)scale(0.7)" xlink:href="#LiberationSans-54"/>
      </g>
     </g>
    </g>
    <g id="ytick_6">
     <g id="line2d_12">
      <path clip-path="url(#pac3c1c5971)" d="M 48.177724 295.654534 
L 709.2 295.654534 
" style="fill:none;stroke:#ffffff;stroke-linecap:round;"/>
     </g>
     <g id="line2d_13"/>
    </g>
    <g id="ytick_7">
     <g id="line2d_14">
      <path clip-path="url(#pac3c1c5971)" d="M 48.177724 285.615254 
L 709.2 285.615254 
" style="fill:none;stroke:#ffffff;stroke-linecap:round;"/>
     </g>
     <g id="line2d_15"/>
    </g>
    <g id="ytick_8">
     <g id="line2d_16">
      <path clip-path="url(#pac3c1c5971)" d="M 48.177724 278.492272 
L 709.2 278.492272 
" style="fill:none;stroke:#ffffff;stroke-linecap:round;"/>
     </g>
     <g id="line2d_17"/>
    </g>
    <g id="ytick_9">
     <g id="line2d_18">
      <path clip-path="url(#pac3c1c5971)" d="M 48.177724 272.967258 
L 709.2 272.967258 
" style="fill:none;stroke:#ffffff;stroke-linecap:round;"/>
     </g>
     <g id="line2d_19"/>
    </g>
    <g id="ytick_10">
     <g id="line2d_20">
      <path clip-path="url(#pac3c1c5971)" d="M 48.177724 268.452992 
L 709.2 268.452992 
" style="fill:none;stroke:#ffffff;stroke-linecap:round;"/>
     </g>
     <g id="line2d_21"/>
    </g>
    <g id="ytick_11">
     <g id="line2d_22">
      <path clip-path="url(#pac3c1c5971)" d="M 48.177724 264.636235 
L 709.2 264.636235 
" style="fill:none;stroke:#ffffff;stroke-linecap:round;"/>
     </g>
     <g id="line2d_23"/>
    </g>
    <g id="ytick_12">
     <g id="line2d_24">
      <path clip-path="url(#pac3c1c5971)" d="M 48.177724 261.33001 
L 709.2 261.33001 
" style="fill:none;stroke:#ffffff;stroke-linecap:round;"/>
     </g>
     <g id="line2d_25"/>
    </g>
    <g id="ytick_13">
     <g id="line2d_26">
      <path clip-path="url(#pac3c1c5971)" d="M 48.177724 258.413713 
L 709.2 258.413713 
" style="fill:none;stroke:#ffffff;stroke-linecap:round;"/>
     </g>
     <g id="line2d_27"/>
    </g>
    <g id="ytick_14">
     <g id="line2d_28">
      <path clip-path="url(#pac3c1c5971)" d="M 48.177724 238.642734 
L 709.2 238.642734 
" style="fill:none;stroke:#ffffff;stroke-linecap:round;"/>
     </g>
     <g id="line2d_29"/>
    </g>
    <g id="ytick_15">
     <g id="line2d_30">
      <path clip-path="url(#pac3c1c5971)" d="M 48.177724 228.603454 
L 709.2 228.603454 
" style="fill:none;stroke:#ffffff;stroke-linecap:round;"/>
     </g>
     <g id="line2d_31"/>
    </g>
    <g id="ytick_16">
     <g id="line2d_32">
      <path clip-path="url(#pac3c1c5971)" d="M 48.177724 221.480472 
L 709.2 221.480472 
" style="fill:none;stroke:#ffffff;stroke-linecap:round;"/>
     </g>
     <g id="line2d_33"/>
    </g>
    <g id="ytick_17">
     <g id="line2d_34">
      <path clip-path="url(#pac3c1c5971)" d="M 48.177724 215.955457 
L 709.2 215.955457 
" style="fill:none;stroke:#ffffff;stroke-linecap:round;"/>
     </g>
     <g id="line2d_35"/>
    </g>
    <g id="ytick_18">
     <g id="line2d_36">
      <path clip-path="url(#pac3c1c5971)" d="M 48.177724 211.441192 
L 709.2 211.441192 
" style="fill:none;stroke:#ffffff;stroke-linecap:round;"/>
     </g>
     <g id="line2d_37"/>
    </g>
    <g id="ytick_19">
     <g id="line2d_38">
      <path clip-path="url(#pac3c1c5971)" d="M 48.177724 207.624435 
L 709.2 207.624435 
" style="fill:none;stroke:#ffffff;stroke-linecap:round;"/>
     </g>
     <g id="line2d_39"/>
    </g>
    <g id="ytick_20">
     <g id="line2d_40">
      <path clip-path="url(#pac3c1c5971)" d="M 48.177724 204.318209 
L 709.2 204.318209 
" style="fill:none;stroke:#ffffff;stroke-linecap:round;"/>
     </g>
     <g id="line2d_41"/>
    </g>
    <g id="ytick_21">
     <g id="line2d_42">
      <path clip-path="url(#pac3c1c5971)" d="M 48.177724 201.401912 
L 709.2 201.401912 
" style="fill:none;stroke:#ffffff;stroke-linecap:round;"/>
     </g>
     <g id="line2d_43"/>
    </g>
    <g id="ytick_22">
     <g id="line2d_44">
      <path clip-path="url(#pac3c1c5971)" d="M 48.177724 181.630933 
L 709.2 181.630933 
" style="fill:none;stroke:#ffffff;stroke-linecap:round;"/>
     </g>
     <g id="line2d_45"/>
    </g>
    <g id="ytick_23">
     <g id="line2d_46">
      <path clip-path="url(#pac3c1c5971)" d="M 48.177724 171.591653 
L 709.2 171.591653 
" style="fill:none;stroke:#ffffff;stroke-linecap:round;"/>
     </g>
     <g id="line2d_47"/>
    </g>
    <g id="ytick_24">
     <g id="line2d_48">
      <path clip-path="url(#pac3c1c5971)" d="M 48.177724 164.468671 
L 709.2 164.468671 
" style="fill:none;stroke:#ffffff;stroke-linecap:round;"/>
     </g>
     <g id="line2d_49"/>
    </g>
    <g id="ytick_25">
     <g id="line2d_50">
      <path clip-path="url(#pac3c1c5971)" d="M 48.177724 158.943657 
L 709.2 158.943657 
" style="fill:none;stroke:#ffffff;stroke-linecap:round;"/>
     </g>
     <g id="line2d_51"/>
    </g>
    <g id="ytick_26">
     <g id="line2d_52">
      <path clip-path="url(#pac3c1c5971)" d="M 48.177724 154.429391 
L 709.2 154.429391 
" style="fill:none;stroke:#ffffff;stroke-linecap:round;"/>
     </g>
     <g id="line2d_53"/>
    </g>
    <g id="ytick_27">
     <g id="line2d_54">
      <path clip-path="url(#pac3c1c5971)" d="M 48.177724 150.612634 
L 709.2 150.612634 
" style="fill:none;stroke:#ffffff;stroke-linecap:round;"/>
     </g>
     <g id="line2d_55"/>
    </g>
    <g id="ytick_28">
     <g id="line2d_56">
      <path clip-path="url(#pac3c1c5971)" d="M 48.177724 147.306409 
L 709.2 147.306409 
" style="fill:none;stroke:#ffffff;stroke-linecap:round;"/>
     </g>
     <g id="line2d_57"/>
    </g>
    <g id="ytick_29">
     <g id="line2d_58">
      <path clip-path="url(#pac3c1c5971)" d="M 48.177724 144.390112 
L 709.2 144.390112 
" style="fill:none;stroke:#ffffff;stroke-linecap:round;"/>
     </g>
     <g id="line2d_59"/>
    </g>
    <g id="ytick_30">
     <g id="line2d_60">
      <path clip-path="url(#pac3c1c5971)" d="M 48.177724 124.619133 
L 709.2 124.619133 
" style="fill:none;stroke:#ffffff;stroke-linecap:round;"/>
     </g>
     <g id="line2d_61"/>
    </g>
    <g id="ytick_31">
     <g id="line2d_62">
      <path clip-path="url(#pac3c1c5971)" d="M 48.177724 114.579853 
L 709.2 114.579853 
" style="fill:none;stroke:#ffffff;stroke-linecap:round;"/>
     </g>
     <g id="line2d_63"/>
    </g>
    <g id="ytick_32">
     <g id="line2d_64">
      <path clip-path="url(#pac3c1c5971)" d="M 48.177724 107.45687 
L 709.2 107.45687 
" style="fill:none;stroke:#ffffff;stroke-linecap:round;"/>
     </g>
     <g id="line2d_65"/>
    </g>
    <g id="ytick_33">
     <g id="line2d_66">
      <path clip-path="url(#pac3c1c5971)" d="M 48.177724 101.931856 
L 709.2 101.931856 
" style="fill:none;stroke:#ffffff;stroke-linecap:round;"/>
     </g>
     <g id="line2d_67"/>
    </g>
    <g id="ytick_34">
     <g id="line2d_68">
      <path clip-path="url(#pac3c1c5971)" d="M 48.177724 97.417591 
L 709.2 97.417591 
" style="fill:none;stroke:#ffffff;stroke-linecap:round;"/>
     </g>
     <g id="line2d_69"/>
    </g>
    <g id="ytick_35">
     <g id="line2d_70">
      <path clip-path="url(#pac3c1c5971)" d="M 48.177724 93.600834 
L 709.2 93.600834 
" style="fill:none;stroke:#ffffff;stroke-linecap:round;"/>
     </g>
     <g id="line2d_71"/>
    </g>
    <g id="ytick_36">
     <g id="line2d_72">
      <path clip-path="url(#pac3c1c5971)" d="M 48.177724 90.294608 
L 709.2 90.294608 
" style="fill:none;stroke:#ffffff;stroke-linecap:round;"/>
     </g>
     <g id="line2d_73"/>
    </g>
    <g id="ytick_37">
     <g id="line2d_74">
      <path clip-path="url(#pac3c1c5971)" d="M 48.177724 87.378311 
L 709.2 87.378311 
" style="fill:none;stroke:#ffffff;stroke-linecap:round;"/>
     </g>
     <g id="line2d_75"/>
    </g>
    <g id="ytick_38">
     <g id="line2d_76">
      <path clip-path="url(#pac3c1c5971)" d="M 48.177724 67.607332 
L 709.2 67.607332 
" style="fill:none;stroke:#ffffff;stroke-linecap:round;"/>
     </g>
     <g id="line2d_77"/>
    </g>
    <g id="ytick_39">
     <g id="line2d_78">
      <path clip-path="url(#pac3c1c5971)" d="M 48.177724 57.568052 
L 709.2 57.568052 
" style="fill:none;stroke:#ffffff;stroke-linecap:round;"/>
     </g>
     <g id="line2d_79"/>
    </g>
    <g id="ytick_40">
     <g id="line2d_80">
      <path clip-path="url(#pac3c1c5971)" d="M 48.177724 50.44507 
L 709.2 50.44507 
" style="fill:none;stroke:#ffffff;stroke-linecap:round;"/>
     </g>
     <g id="line2d_81"/>
    </g>
    <g id="ytick_41">
     <g id="line2d_82">
      <path clip-path="url(#pac3c1c5971)" d="M 48.177724 44.920056 
L 709.2 44.920056 
" style="fill:none;stroke:#ffffff;stroke-linecap:round;"/>
     </g>
     <g id="line2d_83"/>
    </g>
    <g id="ytick_42">
     <g id="line2d_84">
      <path clip-path="url(#pac3c1c5971)" d="M 48.177724 40.40579 
L 709.2 40.40579 
" style="fill:none;stroke:#ffffff;stroke-linecap:round;"/>
     </g>
     <g id="line2d_85"/>
    </g>
    <g id="ytick_43">
     <g id="line2d_86">
      <path clip-path="url(#pac3c1c5971)" d="M 48.177724 36.589033 
L 709.2 36.589033 
" style="fill:none;stroke:#ffffff;stroke-linecap:round;"/>
     </g>
     <g id="line2d_87"/>
    </g>
    <g id="ytick_44">
     <g id="line2d_88">
      <path clip-path="url(#pac3c1c5971)" d="M 48.177724 33.282808 
L 709.2 33.282808 
" style="fill:none;stroke:#ffffff;stroke-linecap:round;"/>
     </g>
     <g id="line2d_89"/>
    </g>
    <g id="ytick_45">
     <g id="line2d_90">
      <path clip-path="url(#pac3c1c5971)" d="M 48.177724 30.36651 
L 709.2 30.36651 
" style="fill:none;stroke:#ffffff;stroke-linecap:round;"/>
     </g>
     <g id="line2d_91"/>
    </g>
    <g id="text_13">
     <!-- Total infections -->
     <defs>
      <path d="M 35.15625 61.1875 
L 35.15625 0 
L 25.875 0 
L 25.875 61.1875 
L 2.25 61.1875 
L 2.25 68.796875 
L 58.796875 68.796875 
L 58.796875 61.1875 
z
" id="LiberationSans-84"/>
      <path d="M 51.421875 26.46875 
Q 51.421875 12.59375 45.3125 5.796875 
Q 39.203125 -0.984375 27.59375 -0.984375 
Q 22.078125 -0.984375 17.71875 0.671875 
Q 13.375 2.34375 10.375 5.765625 
Q 7.375 9.1875 5.78125 14.328125 
Q 4.203125 19.484375 4.203125 26.46875 
Q 4.203125 53.8125 27.875 53.8125 
Q 34.03125 53.8125 38.5 52.09375 
Q 42.96875 50.390625 45.828125 46.96875 
Q 48.6875 43.5625 50.046875 38.421875 
Q 51.421875 33.296875 51.421875 26.46875 
z
M 42.1875 26.46875 
Q 42.1875 32.625 41.234375 36.625 
Q 40.28125 40.625 38.453125 43.015625 
Q 36.625 45.40625 33.984375 46.359375 
Q 31.34375 47.3125 28.03125 47.3125 
Q 24.65625 47.3125 21.9375 46.3125 
Q 19.234375 45.3125 17.328125 42.890625 
Q 15.4375 40.484375 14.421875 36.46875 
Q 13.421875 32.46875 13.421875 26.46875 
Q 13.421875 20.3125 14.5 16.28125 
Q 15.578125 12.25 17.453125 9.859375 
Q 19.34375 7.46875 21.90625 6.484375 
Q 24.46875 5.515625 27.484375 5.515625 
Q 30.859375 5.515625 33.59375 6.46875 
Q 36.328125 7.421875 38.234375 9.8125 
Q 40.140625 12.203125 41.15625 16.25 
Q 42.1875 20.3125 42.1875 26.46875 
z
" id="LiberationSans-111"/>
      <path d="M 27.046875 0.390625 
Q 25.046875 -0.140625 22.96875 -0.453125 
Q 20.90625 -0.78125 18.171875 -0.78125 
Q 7.625 -0.78125 7.625 11.1875 
L 7.625 46.4375 
L 1.515625 46.4375 
L 1.515625 52.828125 
L 7.953125 52.828125 
L 10.546875 64.65625 
L 16.40625 64.65625 
L 16.40625 52.828125 
L 26.171875 52.828125 
L 26.171875 46.4375 
L 16.40625 46.4375 
L 16.40625 13.09375 
Q 16.40625 9.28125 17.640625 7.734375 
Q 18.890625 6.203125 21.96875 6.203125 
Q 23.25 6.203125 24.4375 6.390625 
Q 25.640625 6.59375 27.046875 6.890625 
z
" id="LiberationSans-116"/>
      <path d="M 6.734375 0 
L 6.734375 72.46875 
L 15.53125 72.46875 
L 15.53125 0 
z
" id="LiberationSans-108"/>
      <path d="M 17.625 46.4375 
L 17.625 0 
L 8.84375 0 
L 8.84375 46.4375 
L 1.421875 46.4375 
L 1.421875 52.828125 
L 8.84375 52.828125 
L 8.84375 58.796875 
Q 8.84375 61.671875 9.375 64.140625 
Q 9.90625 66.609375 11.34375 68.4375 
Q 12.796875 70.265625 15.28125 71.3125 
Q 17.78125 72.359375 21.734375 72.359375 
Q 23.296875 72.359375 24.96875 72.21875 
Q 26.65625 72.078125 27.9375 71.78125 
L 27.9375 65.09375 
Q 27.09375 65.234375 26 65.359375 
Q 24.90625 65.484375 24.03125 65.484375 
Q 22.078125 65.484375 20.828125 64.9375 
Q 19.578125 64.40625 18.875 63.40625 
Q 18.171875 62.40625 17.890625 60.9375 
Q 17.625 59.46875 17.625 57.5625 
L 17.625 52.828125 
L 27.9375 52.828125 
L 27.9375 46.4375 
z
" id="LiberationSans-102"/>
     </defs>
     <g style="fill:#262626;" transform="translate(19.495224 196.988424)rotate(-90)scale(0.11 -0.11)">
      <use xlink:href="#LiberationSans-84"/>
      <use x="60.912109" xlink:href="#LiberationSans-111"/>
      <use x="116.527344" xlink:href="#LiberationSans-116"/>
      <use x="144.310547" xlink:href="#LiberationSans-97"/>
      <use x="199.925781" xlink:href="#LiberationSans-108"/>
      <use x="222.142578" xlink:href="#LiberationSans-32"/>
      <use x="249.925781" xlink:href="#LiberationSans-105"/>
      <use x="272.142578" xlink:href="#LiberationSans-110"/>
      <use x="327.757812" xlink:href="#LiberationSans-102"/>
      <use x="355.541016" xlink:href="#LiberationSans-101"/>
      <use x="411.15625" xlink:href="#LiberationSans-99"/>
      <use x="461.15625" xlink:href="#LiberationSans-116"/>
      <use x="488.939453" xlink:href="#LiberationSans-105"/>
      <use x="511.15625" xlink:href="#LiberationSans-111"/>
      <use x="566.771484" xlink:href="#LiberationSans-110"/>
      <use x="622.386719" xlink:href="#LiberationSans-115"/>
     </g>
    </g>
   </g>
   <g id="line2d_92">
    <path clip-path="url(#pac3c1c5971)" d="M 78.224191 291.140269 
L 84.115655 284.803381 
L 90.007119 277.284232 
L 95.898583 269.292392 
L 101.790047 261.33001 
L 107.681512 254.362263 
L 113.572976 247.473973 
L 119.46444 240.174763 
L 125.355904 232.822369 
L 131.247368 224.716055 
L 137.138832 216.104464 
L 143.030296 208.745966 
L 148.921761 202.671929 
L 154.813225 197.071736 
L 160.704689 191.454506 
L 166.596153 186.155104 
L 172.487617 181.335583 
L 178.379081 176.819279 
L 184.270545 172.016191 
L 190.16201 166.796994 
L 196.053474 161.962922 
L 201.944938 158.182954 
L 207.836402 154.895944 
L 213.727866 151.502092 
L 219.61933 148.667815 
L 225.510794 146.565523 
L 231.402258 144.730831 
L 237.293723 142.955166 
L 243.185187 141.424954 
L 249.076651 140.189617 
L 254.968115 139.188529 
L 260.859579 138.38126 
L 266.751043 137.735785 
L 272.642507 137.168287 
L 278.533972 136.601451 
L 284.425436 136.000207 
L 290.3169 135.401733 
L 296.208364 134.828601 
L 302.099828 134.303192 
L 307.991292 133.880308 
L 313.882756 133.579815 
L 319.774221 133.335681 
L 325.665685 133.090445 
L 331.557149 132.854519 
L 337.448613 132.637929 
L 343.340077 132.44868 
L 349.231541 132.297978 
L 355.123005 132.17673 
L 361.01447 132.069449 
L 366.905934 131.964297 
L 372.797398 131.854615 
L 378.688862 131.740464 
L 384.580326 131.621909 
L 390.47179 131.502284 
L 396.363254 131.388115 
L 402.254718 131.28095 
L 408.146183 131.179087 
L 414.037647 131.085678 
L 419.929111 130.995823 
L 425.820575 130.907888 
L 431.712039 130.840948 
L 437.603503 130.802777 
" style="fill:none;stroke:#989173;stroke-linecap:round;stroke-width:1.75;"/>
   </g>
   <g id="line2d_93">
    <path clip-path="url(#pac3c1c5971)" d="M 78.224191 293.294663 
L 84.115655 290.12952 
L 90.007119 284.017286 
L 95.898583 275.575975 
L 101.790047 262.276364 
L 107.681512 251.085253 
L 113.572976 245.601198 
L 119.46444 241.667593 
L 125.355904 235.398486 
L 131.247368 227.553121 
L 137.138832 219.403573 
L 143.030296 211.031928 
L 148.921761 203.496355 
L 154.813225 195.943012 
L 160.704689 188.622213 
L 166.596153 182.966194 
L 172.487617 178.78075 
L 178.379081 175.153871 
L 184.270545 171.632954 
L 190.16201 168.282333 
L 196.053474 165.350797 
L 201.944938 162.747212 
L 207.836402 159.585765 
L 213.727866 155.414362 
L 219.61933 151.116461 
L 225.510794 147.324986 
L 231.402258 144.070307 
L 237.293723 141.283802 
L 243.185187 138.873902 
L 249.076651 136.264305 
L 254.968115 133.155022 
L 260.859579 130.011419 
L 266.751043 127.345048 
L 272.642507 125.285392 
L 278.533972 123.623046 
L 284.425436 122.064203 
L 290.3169 120.410049 
L 296.208364 118.420969 
L 302.099828 116.177821 
L 307.991292 113.954781 
L 313.882756 111.784163 
L 319.774221 109.862838 
L 325.665685 108.31207 
L 331.557149 106.928356 
L 337.448613 105.483211 
L 343.340077 103.8087 
L 349.231541 101.875962 
L 355.123005 99.841756 
L 361.01447 97.876576 
L 366.905934 96.087233 
L 372.797398 94.301819 
L 378.688862 92.351057 
L 384.580326 90.307611 
L 390.47179 88.4054 
L 396.363254 86.841383 
L 402.254718 85.601225 
L 408.146183 84.820404 
" style="fill:none;stroke:#42537f;stroke-linecap:round;stroke-width:1.75;"/>
   </g>
   <g id="line2d_94">
    <path clip-path="url(#pac3c1c5971)" d="M 78.224191 211.39996 
L 84.115655 206.619346 
L 90.007119 198.302884 
L 95.898583 188.704445 
L 101.790047 178.802828 
L 107.681512 168.289555 
L 113.572976 159.097646 
L 119.46444 152.523843 
L 125.355904 146.934719 
L 131.247368 141.537477 
L 137.138832 135.707879 
L 143.030296 129.754171 
L 148.921761 124.700975 
L 154.813225 120.492699 
L 160.704689 116.974908 
L 166.596153 114.061238 
L 172.487617 111.590301 
L 178.379081 109.492477 
L 184.270545 107.68759 
L 190.16201 106.185244 
L 196.053474 104.738894 
L 201.944938 102.204723 
L 207.836402 98.520069 
L 213.727866 95.713075 
L 219.61933 94.282541 
L 225.510794 93.45518 
L 231.402258 92.806196 
L 237.293723 92.323496 
L 243.185187 92.039923 
L 249.076651 91.848378 
L 254.968115 91.624317 
L 260.859579 91.384147 
L 266.751043 91.232603 
L 272.642507 91.129633 
L 278.533972 91.005101 
L 284.425436 90.870104 
L 290.3169 90.74151 
L 296.208364 90.61703 
L 302.099828 90.483814 
L 307.991292 90.356275 
L 313.882756 90.268624 
L 319.774221 90.215812 
L 325.665685 90.172965 
L 331.557149 90.129885 
L 337.448613 90.09087 
L 343.340077 90.062339 
L 349.231541 90.043949 
L 355.123005 90.031391 
L 361.01447 90.021594 
L 366.905934 90.013636 
L 372.797398 90.007823 
L 378.688862 90.002011 
L 384.580326 89.994365 
L 390.47179 89.986111 
L 396.363254 89.977248 
L 402.254718 89.967167 
L 408.146183 89.953731 
L 414.037647 89.935422 
L 419.929111 89.913164 
L 425.820575 89.887881 
L 431.712039 89.860191 
L 437.603503 89.833747 
L 443.494967 89.808242 
L 449.386432 89.780944 
L 455.277896 89.749134 
L 461.16936 89.715551 
L 467.060824 89.682618 
L 472.952288 89.651235 
L 478.843752 89.62411 
L 484.735216 89.599421 
L 490.626681 89.575659 
L 496.518145 89.553422 
L 502.409609 89.533905 
L 508.301073 89.517703 
L 514.192537 89.501512 
L 520.084001 89.483534 
L 525.975465 89.463773 
L 531.866929 89.441636 
L 537.758394 89.419817 
L 543.649858 89.398615 
L 549.541322 89.374448 
L 555.432786 89.34673 
L 561.32425 89.319639 
L 567.215714 89.296143 
L 573.107178 89.272968 
L 578.998643 89.236168 
L 584.890107 89.187582 
L 590.781571 89.15623 
L 596.673035 89.145 
L 602.564499 89.138796 
L 608.455963 89.132003 
L 614.347427 89.125803 
L 620.238892 89.121079 
L 626.130356 89.117242 
L 632.02182 89.114291 
L 637.913284 89.112226 
L 643.804748 89.10957 
L 649.696212 89.10603 
L 655.587676 89.102785 
L 661.47914 89.100721 
L 667.370605 89.099246 
L 673.262069 89.098362 
L 679.153533 89.097772 
" style="fill:none;stroke:#ae54a5;stroke-dasharray:6.475,2.8;stroke-dashoffset:0;stroke-width:1.75;"/>
   </g>
   <g id="line2d_95">
    <path clip-path="url(#pac3c1c5971)" d="M 78.224191 274.499287 
L 84.115655 266.093121 
L 90.007119 256.305213 
L 95.898583 248.01031 
L 101.790047 241.389389 
L 107.681512 235.398486 
L 113.572976 228.113143 
L 119.46444 218.674463 
L 125.355904 208.745966 
L 131.247368 201.073961 
L 137.138832 195.898916 
L 143.030296 190.746773 
L 148.921761 184.641808 
L 154.813225 179.349969 
L 160.704689 173.963082 
L 166.596153 167.647886 
L 172.487617 162.614759 
L 178.379081 158.067969 
L 184.270545 152.711782 
L 190.16201 147.876203 
L 196.053474 143.586227 
L 201.944938 139.482372 
L 207.836402 135.785496 
L 213.727866 132.392695 
L 219.61933 128.7511 
L 225.510794 124.882989 
L 231.402258 121.3977 
L 237.293723 118.146836 
L 243.185187 114.89381 
L 249.076651 111.784163 
L 254.968115 109.037678 
L 260.859579 106.578793 
L 266.751043 103.860036 
L 272.642507 101.016527 
L 278.533972 98.781613 
L 284.425436 97.091676 
L 290.3169 95.478441 
L 296.208364 94.06102 
L 302.099828 92.908828 
L 307.991292 91.752666 
L 313.882756 90.537827 
L 319.774221 89.319639 
L 325.665685 88.091388 
L 331.557149 86.651246 
L 337.448613 84.290209 
L 343.340077 81.340771 
L 349.231541 79.355753 
L 355.123005 78.22781 
L 361.01447 77.124097 
L 366.905934 75.95936 
L 372.797398 75.224974 
L 378.688862 74.80603 
L 384.580326 74.339241 
L 390.47179 73.901674 
L 396.363254 73.654997 
L 402.254718 73.559088 
L 408.146183 73.394169 
L 414.037647 73.149529 
L 419.929111 72.911424 
L 425.820575 72.636877 
L 431.712039 72.283411 
L 437.603503 72.043677 
L 443.494967 72.022953 
L 449.386432 72.030944 
L 455.277896 71.974762 
L 461.16936 71.884545 
L 467.060824 71.821061 
" style="fill:none;stroke:#0309a6;stroke-linecap:round;stroke-width:1.75;"/>
   </g>
   <g id="line2d_96">
    <path clip-path="url(#pac3c1c5971)" d="M 78.224191 282.516226 
L 84.115655 276.701619 
L 90.007119 269.292392 
L 95.898583 259.539357 
L 101.790047 250.478857 
L 107.681512 243.707798 
L 113.572976 236.737185 
L 119.46444 227.238705 
L 125.355904 217.121441 
L 131.247368 209.345328 
L 137.138832 203.436548 
L 143.030296 198.35148 
L 148.921761 193.627316 
L 154.813225 188.491208 
L 160.704689 182.848879 
L 166.596153 175.7324 
L 172.487617 167.535532 
L 178.379081 160.602444 
L 184.270545 154.657404 
L 190.16201 148.762826 
L 196.053474 142.568767 
L 201.944938 136.341701 
L 207.836402 130.545082 
L 213.727866 125.651814 
L 219.61933 121.940567 
L 225.510794 118.680633 
L 231.402258 115.336573 
L 237.293723 112.018224 
L 243.185187 108.600155 
L 249.076651 104.995355 
L 254.968115 101.582738 
L 260.859579 98.760257 
L 266.751043 96.567409 
L 272.642507 94.677254 
L 278.533972 92.805853 
L 284.425436 90.853637 
L 290.3169 88.923221 
L 296.208364 87.228555 
L 302.099828 85.876992 
L 307.991292 84.807506 
L 313.882756 83.851164 
L 319.774221 82.826934 
L 325.665685 81.732324 
L 331.557149 80.726929 
L 337.448613 79.91435 
L 343.340077 79.274309 
L 349.231541 78.745143 
L 355.123005 78.307976 
L 361.01447 77.88833 
L 366.905934 77.383639 
L 372.797398 76.8232 
L 378.688862 76.297841 
L 384.580326 75.879693 
L 390.47179 75.544625 
L 396.363254 75.247381 
L 402.254718 74.951497 
L 408.146183 74.611587 
L 414.037647 74.256839 
L 419.929111 73.948171 
L 425.820575 73.699449 
L 431.712039 73.496192 
L 437.603503 73.314224 
L 443.494967 73.119815 
L 449.386432 72.90345 
L 455.277896 72.696409 
L 461.16936 72.525489 
L 467.060824 72.395065 
L 472.952288 72.317678 
" style="fill:none;stroke:#d8b009;stroke-linecap:round;stroke-width:1.75;"/>
   </g>
   <g id="line2d_97">
    <path clip-path="url(#pac3c1c5971)" d="M 78.224191 277.880885 
L 84.115655 260.718623 
L 90.007119 245.437765 
L 95.898583 234.439918 
L 101.790047 225.431709 
L 107.681512 216.811938 
L 113.572976 208.635184 
L 119.46444 201.073961 
L 125.355904 193.607226 
L 131.247368 186.529468 
L 137.138832 180.707493 
L 143.030296 175.480042 
L 148.921761 170.258167 
L 154.813225 165.070156 
L 160.704689 159.830915 
L 166.596153 154.359337 
L 172.487617 149.046742 
L 178.379081 144.478304 
L 184.270545 140.663124 
L 190.16201 137.221778 
L 196.053474 133.265366 
L 201.944938 128.119955 
L 207.836402 123.309902 
L 213.727866 119.456268 
L 219.61933 116.189268 
L 225.510794 113.102885 
L 231.402258 109.923626 
L 237.293723 106.61646 
L 243.185187 103.354027 
L 249.076651 100.392142 
L 254.968115 97.906862 
L 260.859579 95.802993 
L 266.751043 93.868265 
L 272.642507 91.982536 
L 278.533972 90.126503 
L 284.425436 88.37359 
L 290.3169 86.800497 
L 296.208364 85.467668 
L 302.099828 84.350266 
L 307.991292 83.316586 
L 313.882756 82.280857 
L 319.774221 81.261994 
L 325.665685 80.282993 
L 331.557149 79.359932 
L 337.448613 78.536757 
L 343.340077 77.830454 
L 349.231541 77.181984 
L 355.123005 76.511189 
L 361.01447 75.809247 
L 366.905934 75.097824 
L 372.797398 74.396337 
L 378.688862 73.76334 
L 384.580326 73.229565 
L 390.47179 72.759132 
L 396.363254 72.292086 
L 402.254718 71.791871 
L 408.146183 71.285902 
L 414.037647 70.812742 
L 419.929111 70.397182 
L 425.820575 70.026264 
L 431.712039 69.648719 
L 437.603503 69.254737 
L 443.494967 68.874222 
L 449.386432 68.519239 
L 455.277896 68.200827 
L 461.16936 67.921414 
L 467.060824 67.668937 
L 472.952288 67.42122 
L 478.843752 67.17547 
L 484.735216 66.93852 
L 490.626681 66.711338 
L 496.518145 66.512384 
L 502.409609 66.388919 
" style="fill:none;stroke:#1007e1;stroke-linecap:round;stroke-width:1.75;"/>
   </g>
   <g id="line2d_98">
    <path clip-path="url(#pac3c1c5971)" d="M 78.224191 284.017286 
L 84.115655 272.967258 
L 90.007119 259.82895 
L 95.898583 248.558522 
L 101.790047 239.524859 
L 107.681512 232.242032 
L 113.572976 226.697905 
L 119.46444 221.666871 
L 125.355904 216.914677 
L 131.247368 211.606811 
L 137.138832 205.200335 
L 143.030296 199.624058 
L 148.921761 194.758102 
L 154.813225 189.902603 
L 160.704689 185.136034 
L 166.596153 180.517397 
L 172.487617 175.879169 
L 178.379081 171.231145 
L 184.270545 166.91287 
L 190.16201 163.143006 
L 196.053474 159.631546 
L 201.944938 156.036164 
L 207.836402 152.398071 
L 213.727866 148.798959 
L 219.61933 145.375082 
L 225.510794 142.327131 
L 231.402258 139.777461 
L 237.293723 137.683272 
L 243.185187 135.801049 
L 249.076651 133.941568 
L 254.968115 132.134768 
L 260.859579 130.471272 
L 266.751043 128.909593 
L 272.642507 127.408706 
L 278.533972 126.078832 
L 284.425436 124.891749 
L 290.3169 123.658747 
L 296.208364 122.302065 
L 302.099828 120.902679 
L 307.991292 119.592314 
L 313.882756 118.455691 
L 319.774221 117.507914 
L 325.665685 116.692865 
L 331.557149 115.904663 
L 337.448613 115.031272 
L 343.340077 114.096016 
L 349.231541 113.204952 
L 355.123005 112.435502 
L 361.01447 111.804076 
L 366.905934 111.249601 
L 372.797398 110.70092 
L 378.688862 110.139979 
L 384.580326 109.611039 
L 390.47179 109.149437 
L 396.363254 108.771235 
L 402.254718 108.497297 
L 408.146183 108.286453 
L 414.037647 108.049478 
L 419.929111 107.765186 
L 425.820575 107.477306 
L 431.712039 107.229507 
L 437.603503 107.077255 
" style="fill:none;stroke:#a67d4c;stroke-linecap:round;stroke-width:1.75;"/>
   </g>
   <g id="line2d_99">
    <path clip-path="url(#pac3c1c5971)" d="M 78.224191 292.194041 
L 84.115655 288.223971 
L 90.007119 283.255383 
L 95.898583 276.701619 
L 101.790047 270.16125 
L 107.681512 262.276364 
L 113.572976 251.917597 
L 119.46444 241.667593 
L 125.355904 233.018877 
L 131.247368 225.723865 
L 137.138832 219.805249 
L 143.030296 213.282448 
L 148.921761 205.264563 
L 154.813225 198.109446 
L 160.704689 192.088454 
L 166.596153 186.454141 
L 172.487617 181.23791 
L 178.379081 176.424891 
L 184.270545 171.624689 
L 190.16201 166.981286 
L 196.053474 162.483012 
L 201.944938 158.346768 
L 207.836402 154.988631 
L 213.727866 152.125856 
L 219.61933 149.256813 
L 225.510794 146.595578 
L 231.402258 144.272096 
L 237.293723 142.236176 
L 243.185187 140.490959 
L 249.076651 138.997503 
L 254.968115 137.672783 
L 260.859579 136.331765 
L 266.751043 134.864153 
L 272.642507 133.177751 
L 278.533972 131.485942 
L 284.425436 130.234065 
L 290.3169 129.373241 
L 296.208364 128.662028 
L 302.099828 127.914042 
L 307.991292 127.083836 
L 313.882756 126.321643 
L 319.774221 125.690566 
L 325.665685 125.032338 
L 331.557149 124.323782 
L 337.448613 123.619479 
L 343.340077 122.957798 
L 349.231541 122.36415 
L 355.123005 121.84188 
L 361.01447 121.324981 
L 366.905934 120.797424 
L 372.797398 120.362051 
L 378.688862 120.054367 
L 384.580326 119.788118 
L 390.47179 119.482411 
L 396.363254 119.140711 
L 402.254718 118.913536 
L 408.146183 118.852652 
L 414.037647 118.840886 
" style="fill:none;stroke:#ea71b3;stroke-linecap:round;stroke-width:1.75;"/>
   </g>
   <g id="line2d_100">
    <path clip-path="url(#pac3c1c5971)" d="M 78.224191 295.654534 
L 84.115655 292.194041 
L 90.007119 284.803381 
L 95.898583 276.701619 
L 101.790047 270.16125 
L 107.681512 264.636235 
L 113.572976 258.413713 
L 119.46444 251.706873 
L 125.355904 245.114102 
L 131.247368 238.642734 
L 137.138832 232.822369 
L 143.030296 227.871581 
L 148.921761 223.410792 
L 154.813225 219.1206 
L 160.704689 214.372969 
L 166.596153 208.635184 
L 172.487617 202.846296 
L 178.379081 197.561585 
L 184.270545 192.603708 
L 190.16201 187.782814 
L 196.053474 182.796917 
L 201.944938 177.669577 
L 207.836402 172.576624 
L 213.727866 167.732487 
L 219.61933 163.622876 
L 225.510794 160.078516 
L 231.402258 156.52084 
L 237.293723 152.688692 
L 243.185187 148.779243 
L 249.076651 144.95498 
L 254.968115 141.138625 
L 260.859579 137.411985 
L 266.751043 133.822789 
L 272.642507 130.215434 
L 278.533972 126.588297 
L 284.425436 123.005308 
L 290.3169 119.49952 
L 296.208364 116.093451 
L 302.099828 112.689593 
L 307.991292 109.255046 
L 313.882756 106.031663 
L 319.774221 103.209694 
L 325.665685 100.644241 
L 331.557149 98.308271 
L 337.448613 96.153805 
L 343.340077 94.04553 
L 349.231541 91.980548 
L 355.123005 90.009658 
L 361.01447 88.164832 
L 366.905934 86.447716 
L 372.797398 84.798828 
L 378.688862 83.097149 
L 384.580326 81.284138 
L 390.47179 79.481623 
L 396.363254 78.231042 
" style="fill:none;stroke:#5feb16;stroke-linecap:round;stroke-width:1.75;"/>
   </g>
   <g id="line2d_101">
    <path clip-path="url(#pac3c1c5971)" d="M 78.224191 279.119139 
L 84.115655 270.607386 
L 90.007119 259.82895 
L 95.898583 250.679343 
L 101.790047 242.812764 
L 107.681512 236.170572 
L 113.572976 229.188032 
L 119.46444 221.666871 
L 125.355904 214.095803 
L 131.247368 205.168284 
L 137.138832 195.054378 
L 143.030296 186.066093 
L 148.921761 178.802828 
L 154.813225 169.978215 
L 160.704689 160.052608 
L 166.596153 152.73104 
L 172.487617 147.139841 
L 178.379081 142.037744 
L 184.270545 137.32497 
L 190.16201 132.533748 
L 196.053474 127.711229 
L 201.944938 123.238377 
L 207.836402 118.960774 
L 213.727866 114.843709 
L 219.61933 110.741882 
L 225.510794 106.554908 
L 231.402258 102.281949 
L 237.293723 98.441239 
L 243.185187 95.244496 
L 249.076651 92.549936 
L 254.968115 90.162188 
L 260.859579 87.914768 
L 266.751043 85.780859 
L 272.642507 83.800874 
L 278.533972 82.021796 
L 284.425436 80.464607 
L 290.3169 79.129171 
L 296.208364 78.00694 
L 302.099828 77.013977 
L 307.991292 76.045201 
L 313.882756 75.092464 
L 319.774221 74.217357 
L 325.665685 73.428287 
L 331.557149 72.729425 
L 337.448613 72.141165 
L 343.340077 71.640318 
L 349.231541 71.11443 
L 355.123005 70.423801 
L 361.01447 69.632054 
L 366.905934 68.969 
L 372.797398 68.453947 
L 378.688862 67.954035 
L 384.580326 67.509106 
L 390.47179 67.073971 
L 396.363254 66.671729 
L 402.254718 66.573339 
L 408.146183 66.791466 
L 414.037647 66.84819 
L 419.929111 66.68091 
L 425.820575 66.47936 
L 431.712039 66.288827 
L 437.603503 66.122939 
L 443.494967 66.009171 
L 449.386432 65.886797 
L 455.277896 65.713937 
L 461.16936 65.593239 
" style="fill:none;stroke:#907eba;stroke-linecap:round;stroke-width:1.75;"/>
   </g>
   <g id="line2d_102">
    <path clip-path="url(#pac3c1c5971)" d="M 78.224191 263.938727 
L 84.115655 250.881466 
L 90.007119 235.074822 
L 95.898583 219.632304 
L 101.790047 205.751659 
L 107.681512 195.182446 
L 113.572976 187.974011 
L 119.46444 181.668101 
L 125.355904 173.917709 
L 131.247368 164.686274 
L 137.138832 156.009758 
L 143.030296 149.186592 
L 148.921761 143.808266 
L 154.813225 139.02407 
L 160.704689 134.501684 
L 166.596153 130.48382 
L 172.487617 126.837535 
L 178.379081 123.372215 
L 184.270545 120.106931 
L 190.16201 117.069641 
L 196.053474 114.168153 
L 201.944938 111.308832 
L 207.836402 108.553525 
L 213.727866 105.924952 
L 219.61933 103.364519 
L 225.510794 100.949806 
L 231.402258 98.826566 
L 237.293723 97.00508 
L 243.185187 95.353598 
L 249.076651 93.755891 
L 254.968115 92.215562 
L 260.859579 90.817575 
L 266.751043 89.561233 
L 272.642507 88.344109 
L 278.533972 87.13058 
L 284.425436 86.030231 
L 290.3169 85.121696 
L 296.208364 84.335664 
L 302.099828 83.612541 
L 307.991292 82.965125 
L 313.882756 82.402296 
L 319.774221 81.881484 
L 325.665685 81.342927 
L 331.557149 80.781035 
L 337.448613 80.252028 
L 343.340077 79.793151 
L 349.231541 79.417112 
L 355.123005 79.183449 
" style="fill:none;stroke:#221cdf;stroke-linecap:round;stroke-width:1.75;"/>
   </g>
   <g id="line2d_103">
    <path clip-path="url(#pac3c1c5971)" d="M 78.224191 272.476946 
L 84.115655 271.996156 
L 90.007119 270.607386 
L 95.898583 269.292392 
L 101.790047 267.641119 
L 107.681512 265.353964 
L 113.572976 261.33001 
L 119.46444 256.305213 
L 125.355904 250.478857 
L 131.247368 243.860167 
L 137.138832 236.737185 
L 143.030296 229.188032 
L 148.921761 221.666871 
L 154.813225 215.127615 
L 160.704689 208.016609 
L 166.596153 199.72669 
L 172.487617 192.126255 
L 178.379081 185.394102 
L 184.270545 179.102817 
L 190.16201 172.974869 
L 196.053474 166.506294 
L 201.944938 159.49952 
L 207.836402 152.077024 
L 213.727866 143.289729 
L 219.61933 133.567373 
L 225.510794 125.047448 
L 231.402258 117.82108 
L 237.293723 111.202031 
L 243.185187 105.124588 
L 249.076651 99.63148 
L 254.968115 94.284723 
L 260.859579 89.008873 
L 266.751043 84.187695 
L 272.642507 79.932265 
L 278.533972 76.127498 
L 284.425436 72.545278 
L 290.3169 69.086605 
L 296.208364 65.792392 
L 302.099828 62.630889 
L 307.991292 59.657795 
L 313.882756 56.998571 
L 319.774221 54.683688 
L 325.665685 52.583308 
L 331.557149 50.591897 
L 337.448613 48.677057 
L 343.340077 46.847111 
L 349.231541 45.1674 
L 355.123005 43.684488 
L 361.01447 42.379021 
L 366.905934 41.196784 
L 372.797398 40.056591 
L 378.688862 38.90675 
L 384.580326 37.744823 
L 390.47179 36.605557 
L 396.363254 35.549122 
L 402.254718 34.612418 
L 408.146183 33.750612 
L 414.037647 32.9024 
L 419.929111 32.045604 
L 425.820575 31.159394 
L 431.712039 30.250138 
L 437.603503 29.401388 
L 443.494967 28.673734 
L 449.386432 28.037771 
L 455.277896 27.415757 
L 461.16936 26.759067 
L 467.060824 26.062055 
L 472.952288 25.361844 
L 478.843752 24.748968 
L 484.735216 24.364502 
" style="fill:none;stroke:#7516fd;stroke-dasharray:6.475,2.8;stroke-dashoffset:0;stroke-width:1.75;"/>
   </g>
   <g id="line2d_104">
    <path clip-path="url(#pac3c1c5971)" d="M 78.224191 294.446494 
L 84.115655 289.158418 
L 90.007119 283.255383 
L 95.898583 276.701619 
L 101.790047 268.869135 
L 107.681512 259.539357 
L 113.572976 250.881466 
L 119.46444 243.556361 
L 125.355904 236.967512 
L 131.247368 231.304044 
L 137.138832 226.545536 
L 143.030296 222.362597 
L 148.921761 218.345058 
L 154.813225 212.408992 
L 160.704689 204.225533 
L 166.596153 197.655999 
L 172.487617 192.836197 
L 178.379081 187.311182 
L 184.270545 181.286698 
L 190.16201 175.96765 
L 196.053474 170.731904 
L 201.944938 164.611451 
L 207.836402 159.23255 
L 213.727866 155.018195 
L 219.61933 150.915131 
L 225.510794 146.529504 
L 231.402258 141.92044 
L 237.293723 137.043242 
L 243.185187 132.313176 
L 249.076651 128.251498 
L 254.968115 124.774368 
L 260.859579 121.505544 
L 266.751043 118.129684 
L 272.642507 114.634385 
L 278.533972 111.325471 
L 284.425436 108.362099 
L 290.3169 105.616172 
L 296.208364 103.047541 
L 302.099828 100.86381 
L 307.991292 98.883419 
L 313.882756 96.831178 
L 319.774221 94.623745 
L 325.665685 92.354757 
L 331.557149 90.406279 
L 337.448613 88.823861 
L 343.340077 87.43367 
L 349.231541 86.125246 
L 355.123005 84.889723 
L 361.01447 83.682346 
L 366.905934 82.451399 
L 372.797398 81.233644 
L 378.688862 80.102906 
L 384.580326 79.114388 
L 390.47179 78.233514 
L 396.363254 77.386028 
L 402.254718 76.525561 
L 408.146183 75.656782 
L 414.037647 74.83552 
L 419.929111 74.090118 
L 425.820575 73.406527 
L 431.712039 72.75075 
L 437.603503 72.048861 
L 443.494967 71.259345 
L 449.386432 70.472121 
L 455.277896 69.814228 
L 461.16936 69.411099 
" style="fill:none;stroke:#89f9c9;stroke-linecap:round;stroke-width:1.75;"/>
   </g>
   <g id="patch_3">
    <path d="M 48.177724 309.219036 
L 48.177724 10.8 
" style="fill:none;"/>
   </g>
   <g id="patch_4">
    <path d="M 709.2 309.219036 
L 709.2 10.8 
" style="fill:none;"/>
   </g>
   <g id="patch_5">
    <path d="M 48.177724 309.219036 
L 709.2 309.219036 
" style="fill:none;"/>
   </g>
   <g id="patch_6">
    <path d="M 48.177724 10.8 
L 709.2 10.8 
" style="fill:none;"/>
   </g>
   <g id="legend_1">
    <g id="line2d_105">
     <path d="M 601.051563 122.781536 
L 621.051563 122.781536 
" style="fill:none;stroke:#989173;stroke-linecap:round;stroke-width:1.75;"/>
    </g>
    <g id="line2d_106"/>
    <g id="text_14">
     <!-- Austria -->
     <defs>
      <path d="M 56.984375 0 
L 49.125 20.125 
L 17.78125 20.125 
L 9.859375 0 
L 0.203125 0 
L 28.265625 68.796875 
L 38.875 68.796875 
L 66.5 0 
z
M 37.5 50.09375 
Q 36.71875 52.046875 36 54.046875 
Q 35.296875 56.0625 34.765625 57.6875 
Q 34.234375 59.328125 33.859375 60.421875 
Q 33.5 61.53125 33.453125 61.765625 
Q 33.34375 61.53125 33 60.40625 
Q 32.671875 59.28125 32.109375 57.609375 
Q 31.546875 55.953125 30.828125 53.953125 
Q 30.125 51.953125 29.390625 50 
L 20.609375 27.390625 
L 46.34375 27.390625 
z
" id="LiberationSans-65"/>
      <path d="M 15.328125 52.828125 
L 15.328125 19.34375 
Q 15.328125 15.484375 15.890625 12.890625 
Q 16.453125 10.296875 17.71875 8.703125 
Q 19 7.125 21.0625 6.46875 
Q 23.140625 5.8125 26.21875 5.8125 
Q 29.34375 5.8125 31.859375 6.90625 
Q 34.375 8.015625 36.15625 10.078125 
Q 37.9375 12.15625 38.90625 15.203125 
Q 39.890625 18.265625 39.890625 22.21875 
L 39.890625 52.828125 
L 48.6875 52.828125 
L 48.6875 11.28125 
Q 48.6875 9.625 48.703125 7.78125 
Q 48.734375 5.953125 48.78125 4.3125 
Q 48.828125 2.6875 48.875 1.515625 
Q 48.921875 0.34375 48.96875 0 
L 40.671875 0 
Q 40.625 0.25 40.578125 1.3125 
Q 40.53125 2.390625 40.453125 3.78125 
Q 40.375 5.171875 40.328125 6.609375 
Q 40.28125 8.0625 40.28125 9.03125 
L 40.140625 9.03125 
Q 38.875 6.734375 37.359375 4.875 
Q 35.84375 3.03125 33.84375 1.734375 
Q 31.84375 0.4375 29.25 -0.265625 
Q 26.65625 -0.984375 23.25 -0.984375 
Q 18.84375 -0.984375 15.671875 0.09375 
Q 12.5 1.171875 10.453125 3.421875 
Q 8.40625 5.671875 7.453125 9.1875 
Q 6.5 12.703125 6.5 17.625 
L 6.5 52.828125 
z
" id="LiberationSans-117"/>
      <path d="M 6.9375 0 
L 6.9375 40.53125 
Q 6.9375 42.1875 6.90625 43.921875 
Q 6.890625 45.65625 6.828125 47.265625 
Q 6.78125 48.875 6.734375 50.28125 
Q 6.6875 51.703125 6.640625 52.828125 
L 14.9375 52.828125 
Q 14.984375 51.703125 15.0625 50.265625 
Q 15.140625 48.828125 15.203125 47.3125 
Q 15.28125 45.796875 15.296875 44.40625 
Q 15.328125 43.015625 15.328125 42.046875 
L 15.53125 42.046875 
Q 16.453125 45.0625 17.5 47.28125 
Q 18.5625 49.515625 19.96875 50.953125 
Q 21.390625 52.390625 23.34375 53.09375 
Q 25.296875 53.8125 28.078125 53.8125 
Q 29.15625 53.8125 30.125 53.640625 
Q 31.109375 53.46875 31.640625 53.328125 
L 31.640625 45.265625 
Q 30.765625 45.515625 29.59375 45.625 
Q 28.421875 45.75 26.953125 45.75 
Q 23.921875 45.75 21.796875 44.375 
Q 19.671875 43.015625 18.328125 40.59375 
Q 17 38.1875 16.359375 34.84375 
Q 15.71875 31.5 15.71875 27.546875 
L 15.71875 0 
z
" id="LiberationSans-114"/>
     </defs>
     <g style="fill:#262626;" transform="translate(629.051563 126.281536)scale(0.1 -0.1)">
      <use xlink:href="#LiberationSans-65"/>
      <use x="66.699219" xlink:href="#LiberationSans-117"/>
      <use x="122.314453" xlink:href="#LiberationSans-115"/>
      <use x="172.314453" xlink:href="#LiberationSans-116"/>
      <use x="200.097656" xlink:href="#LiberationSans-114"/>
      <use x="233.398438" xlink:href="#LiberationSans-105"/>
      <use x="255.615234" xlink:href="#LiberationSans-97"/>
     </g>
    </g>
    <g id="line2d_107">
     <path d="M 601.051563 137.103411 
L 621.051563 137.103411 
" style="fill:none;stroke:#42537f;stroke-linecap:round;stroke-width:1.75;"/>
    </g>
    <g id="line2d_108"/>
    <g id="text_15">
     <!-- Brazil -->
     <defs>
      <path d="M 61.421875 19.390625 
Q 61.421875 14.15625 59.375 10.46875 
Q 57.328125 6.78125 53.859375 4.46875 
Q 50.390625 2.15625 45.796875 1.078125 
Q 41.21875 0 36.140625 0 
L 8.203125 0 
L 8.203125 68.796875 
L 33.203125 68.796875 
Q 38.921875 68.796875 43.40625 67.84375 
Q 47.90625 66.890625 51.03125 64.84375 
Q 54.15625 62.796875 55.78125 59.640625 
Q 57.421875 56.5 57.421875 52.09375 
Q 57.421875 49.21875 56.609375 46.671875 
Q 55.8125 44.140625 54.171875 42.0625 
Q 52.546875 39.984375 50.078125 38.5 
Q 47.609375 37.015625 44.34375 36.28125 
Q 48.484375 35.796875 51.6875 34.375 
Q 54.890625 32.953125 57.03125 30.75 
Q 59.1875 28.5625 60.296875 25.65625 
Q 61.421875 22.75 61.421875 19.390625 
z
M 48.046875 50.984375 
Q 48.046875 56.546875 44.234375 58.9375 
Q 40.4375 61.328125 33.203125 61.328125 
L 17.53125 61.328125 
L 17.53125 39.546875 
L 33.203125 39.546875 
Q 37.3125 39.546875 40.140625 40.34375 
Q 42.96875 41.15625 44.71875 42.640625 
Q 46.484375 44.140625 47.265625 46.234375 
Q 48.046875 48.34375 48.046875 50.984375 
z
M 52 20.125 
Q 52 23.390625 50.796875 25.6875 
Q 49.609375 27.984375 47.359375 29.4375 
Q 45.125 30.90625 41.96875 31.59375 
Q 38.8125 32.28125 34.90625 32.28125 
L 17.53125 32.28125 
L 17.53125 7.46875 
L 35.640625 7.46875 
Q 39.203125 7.46875 42.203125 8.046875 
Q 45.21875 8.640625 47.390625 10.109375 
Q 49.5625 11.578125 50.78125 14.015625 
Q 52 16.453125 52 20.125 
z
" id="LiberationSans-66"/>
      <path d="M 2.390625 0 
L 2.390625 6.6875 
L 34.671875 46.046875 
L 4.34375 46.046875 
L 4.34375 52.828125 
L 44.578125 52.828125 
L 44.578125 46.140625 
L 12.25 6.78125 
L 46.390625 6.78125 
L 46.390625 0 
z
" id="LiberationSans-122"/>
     </defs>
     <g style="fill:#262626;" transform="translate(629.051563 140.603411)scale(0.1 -0.1)">
      <use xlink:href="#LiberationSans-66"/>
      <use x="66.699219" xlink:href="#LiberationSans-114"/>
      <use x="100" xlink:href="#LiberationSans-97"/>
      <use x="155.615234" xlink:href="#LiberationSans-122"/>
      <use x="205.615234" xlink:href="#LiberationSans-105"/>
      <use x="227.832031" xlink:href="#LiberationSans-108"/>
     </g>
    </g>
    <g id="line2d_109">
     <path d="M 601.051563 151.425286 
L 621.051563 151.425286 
" style="fill:none;stroke:#ae54a5;stroke-dasharray:6.475,2.8;stroke-dashoffset:0;stroke-width:1.75;"/>
    </g>
    <g id="line2d_110"/>
    <g id="text_16">
     <!-- China -->
     <defs>
      <path d="M 38.671875 62.203125 
Q 32.8125 62.203125 28.296875 60.25 
Q 23.78125 58.296875 20.71875 54.6875 
Q 17.671875 51.078125 16.109375 46 
Q 14.546875 40.921875 14.546875 34.71875 
Q 14.546875 28.515625 16.234375 23.359375 
Q 17.921875 18.21875 21.0625 14.5 
Q 24.21875 10.796875 28.78125 8.734375 
Q 33.34375 6.6875 39.0625 6.6875 
Q 43.0625 6.6875 46.359375 7.734375 
Q 49.65625 8.796875 52.3125 10.6875 
Q 54.984375 12.59375 57.078125 15.203125 
Q 59.1875 17.828125 60.796875 21 
L 68.40625 17.1875 
Q 66.546875 13.328125 63.8125 10 
Q 61.078125 6.6875 57.390625 4.25 
Q 53.71875 1.8125 49.046875 0.40625 
Q 44.390625 -0.984375 38.625 -0.984375 
Q 30.28125 -0.984375 24 1.671875 
Q 17.71875 4.34375 13.5 9.109375 
Q 9.28125 13.875 7.171875 20.40625 
Q 5.078125 26.953125 5.078125 34.71875 
Q 5.078125 42.78125 7.296875 49.265625 
Q 9.515625 55.765625 13.78125 60.328125 
Q 18.0625 64.890625 24.3125 67.359375 
Q 30.5625 69.828125 38.578125 69.828125 
Q 49.5625 69.828125 56.9375 65.53125 
Q 64.3125 61.234375 67.78125 52.78125 
L 58.9375 49.859375 
Q 57.953125 52.296875 56.296875 54.515625 
Q 54.640625 56.734375 52.140625 58.4375 
Q 49.65625 60.15625 46.3125 61.171875 
Q 42.96875 62.203125 38.671875 62.203125 
z
" id="LiberationSans-67"/>
      <path d="M 15.484375 43.796875 
Q 16.9375 46.484375 18.640625 48.359375 
Q 20.359375 50.25 22.40625 51.46875 
Q 24.46875 52.6875 26.90625 53.25 
Q 29.34375 53.8125 32.375 53.8125 
Q 37.453125 53.8125 40.703125 52.4375 
Q 43.953125 51.078125 45.828125 48.609375 
Q 47.703125 46.140625 48.40625 42.71875 
Q 49.125 39.3125 49.125 35.203125 
L 49.125 0 
L 40.28125 0 
L 40.28125 33.5 
Q 40.28125 36.859375 39.859375 39.390625 
Q 39.453125 41.9375 38.28125 43.625 
Q 37.109375 45.3125 34.953125 46.15625 
Q 32.8125 47.015625 29.390625 47.015625 
Q 26.265625 47.015625 23.75 45.890625 
Q 21.234375 44.78125 19.453125 42.71875 
Q 17.671875 40.671875 16.6875 37.734375 
Q 15.71875 34.8125 15.71875 31.15625 
L 15.71875 0 
L 6.9375 0 
L 6.9375 72.46875 
L 15.71875 72.46875 
L 15.71875 53.609375 
Q 15.71875 52 15.671875 50.390625 
Q 15.625 48.78125 15.546875 47.40625 
Q 15.484375 46.046875 15.421875 45.09375 
Q 15.375 44.140625 15.328125 43.796875 
z
" id="LiberationSans-104"/>
     </defs>
     <g style="fill:#262626;" transform="translate(629.051563 154.925286)scale(0.1 -0.1)">
      <use xlink:href="#LiberationSans-67"/>
      <use x="72.216797" xlink:href="#LiberationSans-104"/>
      <use x="127.832031" xlink:href="#LiberationSans-105"/>
      <use x="150.048828" xlink:href="#LiberationSans-110"/>
      <use x="205.664062" xlink:href="#LiberationSans-97"/>
     </g>
    </g>
    <g id="line2d_111">
     <path d="M 601.051563 165.747161 
L 621.051563 165.747161 
" style="fill:none;stroke:#0309a6;stroke-linecap:round;stroke-width:1.75;"/>
    </g>
    <g id="line2d_112"/>
    <g id="text_17">
     <!-- France -->
     <defs>
      <path d="M 17.53125 61.1875 
L 17.53125 35.59375 
L 55.90625 35.59375 
L 55.90625 27.875 
L 17.53125 27.875 
L 17.53125 0 
L 8.203125 0 
L 8.203125 68.796875 
L 57.078125 68.796875 
L 57.078125 61.1875 
z
" id="LiberationSans-70"/>
     </defs>
     <g style="fill:#262626;" transform="translate(629.051563 169.247161)scale(0.1 -0.1)">
      <use xlink:href="#LiberationSans-70"/>
      <use x="61.083984" xlink:href="#LiberationSans-114"/>
      <use x="94.384766" xlink:href="#LiberationSans-97"/>
      <use x="150" xlink:href="#LiberationSans-110"/>
      <use x="205.615234" xlink:href="#LiberationSans-99"/>
      <use x="255.615234" xlink:href="#LiberationSans-101"/>
     </g>
    </g>
    <g id="line2d_113">
     <path d="M 601.051563 180.069036 
L 621.051563 180.069036 
" style="fill:none;stroke:#d8b009;stroke-linecap:round;stroke-width:1.75;"/>
    </g>
    <g id="line2d_114"/>
    <g id="text_18">
     <!-- Germany -->
     <defs>
      <path d="M 5.03125 34.71875 
Q 5.03125 42.78125 7.203125 49.265625 
Q 9.375 55.765625 13.6875 60.328125 
Q 18.015625 64.890625 24.40625 67.359375 
Q 30.8125 69.828125 39.265625 69.828125 
Q 45.609375 69.828125 50.390625 68.703125 
Q 55.171875 67.578125 58.6875 65.46875 
Q 62.203125 63.375 64.640625 60.375 
Q 67.09375 57.375 68.796875 53.609375 
L 59.90625 50.984375 
Q 58.640625 53.515625 56.859375 55.59375 
Q 55.078125 57.671875 52.53125 59.125 
Q 50 60.59375 46.65625 61.390625 
Q 43.3125 62.203125 39.015625 62.203125 
Q 32.765625 62.203125 28.140625 60.25 
Q 23.53125 58.296875 20.5 54.6875 
Q 17.484375 51.078125 15.984375 46 
Q 14.5 40.921875 14.5 34.71875 
Q 14.5 28.515625 16.109375 23.359375 
Q 17.71875 18.21875 20.890625 14.484375 
Q 24.078125 10.75 28.78125 8.671875 
Q 33.5 6.59375 39.703125 6.59375 
Q 43.75 6.59375 47.171875 7.265625 
Q 50.59375 7.953125 53.34375 9.046875 
Q 56.109375 10.15625 58.203125 11.5 
Q 60.296875 12.84375 61.71875 14.203125 
L 61.71875 26.609375 
L 41.15625 26.609375 
L 41.15625 34.421875 
L 70.3125 34.421875 
L 70.3125 10.6875 
Q 68.015625 8.34375 64.90625 6.21875 
Q 61.8125 4.109375 57.953125 2.484375 
Q 54.109375 0.875 49.515625 -0.046875 
Q 44.921875 -0.984375 39.703125 -0.984375 
Q 31 -0.984375 24.5 1.671875 
Q 18.015625 4.34375 13.6875 9.109375 
Q 9.375 13.875 7.203125 20.40625 
Q 5.03125 26.953125 5.03125 34.71875 
z
" id="LiberationSans-71"/>
      <path d="M 37.5 0 
L 37.5 33.5 
Q 37.5 37.359375 37.015625 39.9375 
Q 36.53125 42.53125 35.375 44.109375 
Q 34.234375 45.703125 32.375 46.359375 
Q 30.515625 47.015625 27.828125 47.015625 
Q 25.046875 47.015625 22.796875 45.921875 
Q 20.5625 44.828125 18.96875 42.75 
Q 17.390625 40.671875 16.53125 37.625 
Q 15.671875 34.578125 15.671875 30.609375 
L 15.671875 0 
L 6.9375 0 
L 6.9375 41.546875 
Q 6.9375 43.21875 6.90625 45.046875 
Q 6.890625 46.875 6.828125 48.5 
Q 6.78125 50.140625 6.734375 51.3125 
Q 6.6875 52.484375 6.640625 52.828125 
L 14.9375 52.828125 
Q 14.984375 52.59375 15.03125 51.515625 
Q 15.09375 50.4375 15.15625 49.046875 
Q 15.234375 47.65625 15.28125 46.21875 
Q 15.328125 44.78125 15.328125 43.796875 
L 15.484375 43.796875 
Q 16.65625 46.09375 18.015625 47.953125 
Q 19.390625 49.8125 21.21875 51.09375 
Q 23.046875 52.390625 25.40625 53.09375 
Q 27.78125 53.8125 30.90625 53.8125 
Q 36.921875 53.8125 40.40625 51.421875 
Q 43.890625 49.03125 45.265625 43.796875 
L 45.40625 43.796875 
Q 46.578125 46.09375 48.046875 47.953125 
Q 49.515625 49.8125 51.46875 51.09375 
Q 53.421875 52.390625 55.859375 53.09375 
Q 58.296875 53.8125 61.421875 53.8125 
Q 65.4375 53.8125 68.328125 52.734375 
Q 71.234375 51.65625 73.09375 49.40625 
Q 74.953125 47.171875 75.828125 43.625 
Q 76.703125 40.09375 76.703125 35.203125 
L 76.703125 0 
L 68.015625 0 
L 68.015625 33.5 
Q 68.015625 37.359375 67.53125 39.9375 
Q 67.046875 42.53125 65.890625 44.109375 
Q 64.75 45.703125 62.890625 46.359375 
Q 61.03125 47.015625 58.34375 47.015625 
Q 55.5625 47.015625 53.3125 45.96875 
Q 51.078125 44.921875 49.484375 42.875 
Q 47.90625 40.828125 47.046875 37.75 
Q 46.1875 34.671875 46.1875 30.609375 
L 46.1875 0 
z
" id="LiberationSans-109"/>
     </defs>
     <g style="fill:#262626;" transform="translate(629.051563 183.569036)scale(0.1 -0.1)">
      <use xlink:href="#LiberationSans-71"/>
      <use x="77.783203" xlink:href="#LiberationSans-101"/>
      <use x="133.398438" xlink:href="#LiberationSans-114"/>
      <use x="166.699219" xlink:href="#LiberationSans-109"/>
      <use x="250" xlink:href="#LiberationSans-97"/>
      <use x="305.615234" xlink:href="#LiberationSans-110"/>
      <use x="361.230469" xlink:href="#LiberationSans-121"/>
     </g>
    </g>
    <g id="line2d_115">
     <path d="M 601.051563 194.390911 
L 621.051563 194.390911 
" style="fill:none;stroke:#1007e1;stroke-linecap:round;stroke-width:1.75;"/>
    </g>
    <g id="line2d_116"/>
    <g id="text_19">
     <!-- Italy -->
     <defs>
      <path d="M 9.234375 0 
L 9.234375 68.796875 
L 18.5625 68.796875 
L 18.5625 0 
z
" id="LiberationSans-73"/>
     </defs>
     <g style="fill:#262626;" transform="translate(629.051563 197.890911)scale(0.1 -0.1)">
      <use xlink:href="#LiberationSans-73"/>
      <use x="27.783203" xlink:href="#LiberationSans-116"/>
      <use x="55.566406" xlink:href="#LiberationSans-97"/>
      <use x="111.181641" xlink:href="#LiberationSans-108"/>
      <use x="133.398438" xlink:href="#LiberationSans-121"/>
     </g>
    </g>
    <g id="line2d_117">
     <path d="M 601.051563 208.712786 
L 621.051563 208.712786 
" style="fill:none;stroke:#a67d4c;stroke-linecap:round;stroke-width:1.75;"/>
    </g>
    <g id="line2d_118"/>
    <g id="text_20">
     <!-- Netherlands -->
     <defs>
      <path d="M 52.828125 0 
L 16.015625 58.59375 
Q 16.109375 56.203125 16.265625 53.859375 
Q 16.359375 51.859375 16.421875 49.625 
Q 16.5 47.40625 16.5 45.703125 
L 16.5 0 
L 8.203125 0 
L 8.203125 68.796875 
L 19.046875 68.796875 
L 56.25 9.8125 
Q 56.109375 12.203125 55.953125 14.59375 
Q 55.859375 16.65625 55.765625 19.0625 
Q 55.671875 21.484375 55.671875 23.6875 
L 55.671875 68.796875 
L 64.0625 68.796875 
L 64.0625 0 
z
" id="LiberationSans-78"/>
      <path d="M 40.09375 8.5 
Q 37.640625 3.421875 33.609375 1.21875 
Q 29.59375 -0.984375 23.640625 -0.984375 
Q 13.625 -0.984375 8.90625 5.75 
Q 4.203125 12.5 4.203125 26.171875 
Q 4.203125 53.8125 23.640625 53.8125 
Q 29.640625 53.8125 33.640625 51.609375 
Q 37.640625 49.421875 40.09375 44.625 
L 40.1875 44.625 
Q 40.1875 45.125 40.15625 46.171875 
Q 40.140625 47.21875 40.109375 48.359375 
Q 40.09375 49.515625 40.09375 50.53125 
Q 40.09375 51.5625 40.09375 52 
L 40.09375 72.46875 
L 48.875 72.46875 
L 48.875 10.890625 
Q 48.875 8.984375 48.890625 7.21875 
Q 48.921875 5.46875 48.96875 4 
Q 49.03125 2.546875 49.078125 1.484375 
Q 49.125 0.4375 49.171875 0 
L 40.765625 0 
Q 40.671875 0.484375 40.59375 1.390625 
Q 40.53125 2.296875 40.453125 3.46875 
Q 40.375 4.640625 40.328125 5.9375 
Q 40.28125 7.234375 40.28125 8.5 
z
M 13.421875 26.46875 
Q 13.421875 21 14.109375 17.09375 
Q 14.796875 13.1875 16.3125 10.671875 
Q 17.828125 8.15625 20.171875 6.984375 
Q 22.515625 5.8125 25.875 5.8125 
Q 29.34375 5.8125 32 6.9375 
Q 34.671875 8.0625 36.453125 10.578125 
Q 38.234375 13.09375 39.15625 17.140625 
Q 40.09375 21.1875 40.09375 27.046875 
Q 40.09375 32.671875 39.15625 36.546875 
Q 38.234375 40.4375 36.421875 42.828125 
Q 34.625 45.21875 32 46.265625 
Q 29.390625 47.3125 25.984375 47.3125 
Q 22.75 47.3125 20.40625 46.1875 
Q 18.0625 45.0625 16.5 42.578125 
Q 14.9375 40.09375 14.171875 36.109375 
Q 13.421875 32.125 13.421875 26.46875 
z
" id="LiberationSans-100"/>
     </defs>
     <g style="fill:#262626;" transform="translate(629.051563 212.212786)scale(0.1 -0.1)">
      <use xlink:href="#LiberationSans-78"/>
      <use x="72.216797" xlink:href="#LiberationSans-101"/>
      <use x="127.832031" xlink:href="#LiberationSans-116"/>
      <use x="155.615234" xlink:href="#LiberationSans-104"/>
      <use x="211.230469" xlink:href="#LiberationSans-101"/>
      <use x="266.845703" xlink:href="#LiberationSans-114"/>
      <use x="300.146484" xlink:href="#LiberationSans-108"/>
      <use x="322.363281" xlink:href="#LiberationSans-97"/>
      <use x="377.978516" xlink:href="#LiberationSans-110"/>
      <use x="433.59375" xlink:href="#LiberationSans-100"/>
      <use x="489.208984" xlink:href="#LiberationSans-115"/>
     </g>
    </g>
    <g id="line2d_119">
     <path d="M 601.051563 223.034661 
L 621.051563 223.034661 
" style="fill:none;stroke:#ea71b3;stroke-linecap:round;stroke-width:1.75;"/>
    </g>
    <g id="line2d_120"/>
    <g id="text_21">
     <!-- Portugal -->
     <defs>
      <path d="M 61.421875 48.09375 
Q 61.421875 43.609375 59.9375 39.71875 
Q 58.453125 35.84375 55.5 32.984375 
Q 52.546875 30.125 48.09375 28.46875 
Q 43.65625 26.8125 37.75 26.8125 
L 17.53125 26.8125 
L 17.53125 0 
L 8.203125 0 
L 8.203125 68.796875 
L 37.15625 68.796875 
Q 43.265625 68.796875 47.796875 67.3125 
Q 52.34375 65.828125 55.375 63.109375 
Q 58.40625 60.40625 59.90625 56.5625 
Q 61.421875 52.734375 61.421875 48.09375 
z
M 52.046875 48 
Q 52.046875 54.546875 48.046875 57.9375 
Q 44.046875 61.328125 36.03125 61.328125 
L 17.53125 61.328125 
L 17.53125 34.1875 
L 36.421875 34.1875 
Q 44.484375 34.1875 48.265625 37.75 
Q 52.046875 41.3125 52.046875 48 
z
" id="LiberationSans-80"/>
      <path d="M 26.765625 -20.75 
Q 22.21875 -20.75 18.703125 -19.8125 
Q 15.1875 -18.890625 12.6875 -17.15625 
Q 10.203125 -15.4375 8.640625 -13.03125 
Q 7.078125 -10.640625 6.390625 -7.71875 
L 15.234375 -6.453125 
Q 16.109375 -10.109375 19.109375 -12.078125 
Q 22.125 -14.0625 27 -14.0625 
Q 29.984375 -14.0625 32.421875 -13.234375 
Q 34.859375 -12.40625 36.5625 -10.5625 
Q 38.28125 -8.734375 39.203125 -5.796875 
Q 40.140625 -2.875 40.140625 1.3125 
L 40.140625 9.8125 
L 40.046875 9.8125 
Q 39.0625 7.8125 37.625 5.984375 
Q 36.1875 4.15625 34.109375 2.734375 
Q 32.03125 1.3125 29.296875 0.453125 
Q 26.5625 -0.390625 23.046875 -0.390625 
Q 18.015625 -0.390625 14.421875 1.296875 
Q 10.84375 2.984375 8.5625 6.34375 
Q 6.296875 9.71875 5.25 14.71875 
Q 4.203125 19.734375 4.203125 26.3125 
Q 4.203125 32.671875 5.25 37.75 
Q 6.296875 42.828125 8.65625 46.359375 
Q 11.03125 49.90625 14.8125 51.78125 
Q 18.609375 53.65625 24.03125 53.65625 
Q 29.640625 53.65625 33.765625 51.09375 
Q 37.890625 48.53125 40.140625 43.796875 
L 40.234375 43.796875 
Q 40.234375 45.015625 40.296875 46.53125 
Q 40.375 48.046875 40.453125 49.390625 
Q 40.53125 50.734375 40.625 51.703125 
Q 40.71875 52.6875 40.828125 52.828125 
L 49.171875 52.828125 
Q 49.125 52.390625 49.078125 51.34375 
Q 49.03125 50.296875 48.96875 48.828125 
Q 48.921875 47.359375 48.890625 45.578125 
Q 48.875 43.796875 48.875 41.890625 
L 48.875 1.515625 
Q 48.875 -9.578125 43.421875 -15.15625 
Q 37.984375 -20.75 26.765625 -20.75 
z
M 40.140625 26.421875 
Q 40.140625 31.9375 38.9375 35.859375 
Q 37.75 39.796875 35.796875 42.28125 
Q 33.84375 44.78125 31.328125 45.953125 
Q 28.8125 47.125 26.171875 47.125 
Q 22.796875 47.125 20.375 45.953125 
Q 17.96875 44.78125 16.375 42.265625 
Q 14.796875 39.75 14.03125 35.8125 
Q 13.28125 31.890625 13.28125 26.421875 
Q 13.28125 20.703125 14.03125 16.8125 
Q 14.796875 12.9375 16.359375 10.546875 
Q 17.921875 8.15625 20.3125 7.125 
Q 22.703125 6.109375 26.03125 6.109375 
Q 28.65625 6.109375 31.171875 7.21875 
Q 33.6875 8.34375 35.6875 10.78125 
Q 37.703125 13.234375 38.921875 17.09375 
Q 40.140625 20.953125 40.140625 26.421875 
z
" id="LiberationSans-103"/>
     </defs>
     <g style="fill:#262626;" transform="translate(629.051563 226.534661)scale(0.1 -0.1)">
      <use xlink:href="#LiberationSans-80"/>
      <use x="66.699219" xlink:href="#LiberationSans-111"/>
      <use x="122.314453" xlink:href="#LiberationSans-114"/>
      <use x="155.615234" xlink:href="#LiberationSans-116"/>
      <use x="183.398438" xlink:href="#LiberationSans-117"/>
      <use x="239.013672" xlink:href="#LiberationSans-103"/>
      <use x="294.628906" xlink:href="#LiberationSans-97"/>
      <use x="350.244141" xlink:href="#LiberationSans-108"/>
     </g>
    </g>
    <g id="line2d_121">
     <path d="M 601.051563 237.356536 
L 621.051563 237.356536 
" style="fill:none;stroke:#5feb16;stroke-linecap:round;stroke-width:1.75;"/>
    </g>
    <g id="line2d_122"/>
    <g id="text_22">
     <!-- Russia -->
     <defs>
      <path d="M 56.84375 0 
L 38.96875 28.5625 
L 17.53125 28.5625 
L 17.53125 0 
L 8.203125 0 
L 8.203125 68.796875 
L 40.578125 68.796875 
Q 46.4375 68.796875 50.953125 67.453125 
Q 55.46875 66.109375 58.546875 63.5625 
Q 61.625 61.03125 63.234375 57.375 
Q 64.84375 53.71875 64.84375 49.125 
Q 64.84375 45.84375 63.890625 42.671875 
Q 62.9375 39.5 60.890625 36.859375 
Q 58.84375 34.234375 55.65625 32.328125 
Q 52.484375 30.421875 48.046875 29.640625 
L 67.578125 0 
z
M 55.46875 49.03125 
Q 55.46875 52.15625 54.390625 54.4375 
Q 53.328125 56.734375 51.265625 58.265625 
Q 49.21875 59.8125 46.28125 60.5625 
Q 43.359375 61.328125 39.65625 61.328125 
L 17.53125 61.328125 
L 17.53125 35.9375 
L 40.046875 35.9375 
Q 44.046875 35.9375 46.96875 36.9375 
Q 49.90625 37.9375 51.78125 39.6875 
Q 53.65625 41.453125 54.5625 43.84375 
Q 55.46875 46.234375 55.46875 49.03125 
z
" id="LiberationSans-82"/>
     </defs>
     <g style="fill:#262626;" transform="translate(629.051563 240.856536)scale(0.1 -0.1)">
      <use xlink:href="#LiberationSans-82"/>
      <use x="72.216797" xlink:href="#LiberationSans-117"/>
      <use x="127.832031" xlink:href="#LiberationSans-115"/>
      <use x="177.832031" xlink:href="#LiberationSans-115"/>
      <use x="227.832031" xlink:href="#LiberationSans-105"/>
      <use x="250.048828" xlink:href="#LiberationSans-97"/>
     </g>
    </g>
    <g id="line2d_123">
     <path d="M 601.051563 251.678411 
L 621.051563 251.678411 
" style="fill:none;stroke:#907eba;stroke-linecap:round;stroke-width:1.75;"/>
    </g>
    <g id="line2d_124"/>
    <g id="text_23">
     <!-- Spain -->
     <defs>
      <path d="M 62.109375 19 
Q 62.109375 14.65625 60.421875 10.984375 
Q 58.734375 7.328125 55.21875 4.65625 
Q 51.703125 2 46.359375 0.5 
Q 41.015625 -0.984375 33.6875 -0.984375 
Q 20.84375 -0.984375 13.671875 3.515625 
Q 6.5 8.015625 4.546875 16.5 
L 13.578125 18.3125 
Q 14.265625 15.625 15.671875 13.421875 
Q 17.09375 11.234375 19.5 9.640625 
Q 21.921875 8.0625 25.484375 7.171875 
Q 29.046875 6.296875 34.03125 6.296875 
Q 38.1875 6.296875 41.65625 7 
Q 45.125 7.71875 47.609375 9.171875 
Q 50.09375 10.640625 51.484375 12.953125 
Q 52.875 15.28125 52.875 18.5 
Q 52.875 21.875 51.34375 23.96875 
Q 49.8125 26.078125 47.015625 27.4375 
Q 44.234375 28.8125 40.375 29.734375 
Q 36.53125 30.671875 31.84375 31.734375 
Q 28.953125 32.375 26.046875 33.125 
Q 23.140625 33.890625 20.484375 34.9375 
Q 17.828125 35.984375 15.484375 37.390625 
Q 13.140625 38.8125 11.421875 40.796875 
Q 9.71875 42.78125 8.734375 45.390625 
Q 7.765625 48 7.765625 51.421875 
Q 7.765625 56.296875 9.734375 59.78125 
Q 11.71875 63.28125 15.234375 65.53125 
Q 18.75 67.78125 23.53125 68.796875 
Q 28.328125 69.828125 33.890625 69.828125 
Q 40.28125 69.828125 44.8125 68.828125 
Q 49.359375 67.828125 52.484375 65.8125 
Q 55.609375 63.8125 57.484375 60.859375 
Q 59.375 57.90625 60.5 54 
L 51.3125 52.390625 
Q 50.640625 54.890625 49.34375 56.84375 
Q 48.046875 58.796875 45.9375 60.109375 
Q 43.84375 61.421875 40.84375 62.109375 
Q 37.84375 62.796875 33.796875 62.796875 
Q 29 62.796875 25.75 61.9375 
Q 22.515625 61.078125 20.53125 59.609375 
Q 18.5625 58.15625 17.703125 56.171875 
Q 16.84375 54.203125 16.84375 51.90625 
Q 16.84375 48.828125 18.375 46.84375 
Q 19.921875 44.875 22.5625 43.546875 
Q 25.203125 42.234375 28.65625 41.359375 
Q 32.125 40.484375 36.03125 39.59375 
Q 39.203125 38.875 42.359375 38.109375 
Q 45.515625 37.359375 48.390625 36.296875 
Q 51.265625 35.25 53.78125 33.828125 
Q 56.296875 32.421875 58.15625 30.375 
Q 60.015625 28.328125 61.0625 25.53125 
Q 62.109375 22.75 62.109375 19 
z
" id="LiberationSans-83"/>
      <path d="M 51.421875 26.65625 
Q 51.421875 20.65625 50.4375 15.578125 
Q 49.46875 10.5 47.1875 6.828125 
Q 44.921875 3.171875 41.1875 1.09375 
Q 37.453125 -0.984375 31.984375 -0.984375 
Q 26.3125 -0.984375 22.0625 1.171875 
Q 17.828125 3.328125 15.578125 8.203125 
L 15.328125 8.203125 
Q 15.375 8.109375 15.40625 7.328125 
Q 15.4375 6.546875 15.453125 5.375 
Q 15.484375 4.203125 15.5 2.75 
Q 15.53125 1.3125 15.53125 -0.09375 
L 15.53125 -20.75 
L 6.734375 -20.75 
L 6.734375 42.046875 
Q 6.734375 43.953125 6.703125 45.703125 
Q 6.6875 47.46875 6.640625 48.90625 
Q 6.59375 50.34375 6.546875 51.359375 
Q 6.5 52.390625 6.453125 52.828125 
L 14.9375 52.828125 
Q 14.984375 52.6875 15.0625 51.796875 
Q 15.140625 50.921875 15.203125 49.671875 
Q 15.28125 48.4375 15.359375 47.015625 
Q 15.4375 45.609375 15.4375 44.34375 
L 15.625 44.34375 
Q 16.84375 46.875 18.40625 48.65625 
Q 19.96875 50.4375 21.96875 51.578125 
Q 23.96875 52.734375 26.4375 53.25 
Q 28.90625 53.765625 31.984375 53.765625 
Q 37.453125 53.765625 41.1875 51.8125 
Q 44.921875 49.859375 47.1875 46.3125 
Q 49.46875 42.78125 50.4375 37.765625 
Q 51.421875 32.765625 51.421875 26.65625 
z
M 42.1875 26.46875 
Q 42.1875 31.34375 41.59375 35.15625 
Q 41.015625 38.96875 39.578125 41.59375 
Q 38.140625 44.234375 35.734375 45.59375 
Q 33.34375 46.96875 29.734375 46.96875 
Q 26.8125 46.96875 24.21875 46.140625 
Q 21.625 45.3125 19.703125 42.96875 
Q 17.78125 40.625 16.65625 36.5 
Q 15.53125 32.375 15.53125 25.78125 
Q 15.53125 20.171875 16.453125 16.28125 
Q 17.390625 12.40625 19.171875 10.015625 
Q 20.953125 7.625 23.578125 6.5625 
Q 26.21875 5.515625 29.640625 5.515625 
Q 33.296875 5.515625 35.71875 6.921875 
Q 38.140625 8.34375 39.578125 11.03125 
Q 41.015625 13.71875 41.59375 17.59375 
Q 42.1875 21.484375 42.1875 26.46875 
z
" id="LiberationSans-112"/>
     </defs>
     <g style="fill:#262626;" transform="translate(629.051563 255.178411)scale(0.1 -0.1)">
      <use xlink:href="#LiberationSans-83"/>
      <use x="66.699219" xlink:href="#LiberationSans-112"/>
      <use x="122.314453" xlink:href="#LiberationSans-97"/>
      <use x="177.929688" xlink:href="#LiberationSans-105"/>
      <use x="200.146484" xlink:href="#LiberationSans-110"/>
     </g>
    </g>
    <g id="line2d_125">
     <path d="M 601.051563 266.000286 
L 621.051563 266.000286 
" style="fill:none;stroke:#221cdf;stroke-linecap:round;stroke-width:1.75;"/>
    </g>
    <g id="line2d_126"/>
    <g id="text_24">
     <!-- Turkey -->
     <defs>
      <path d="M 39.84375 0 
L 21.96875 24.125 
L 15.53125 18.796875 
L 15.53125 0 
L 6.734375 0 
L 6.734375 72.46875 
L 15.53125 72.46875 
L 15.53125 27.203125 
L 38.71875 52.828125 
L 49.03125 52.828125 
L 27.59375 30.125 
L 50.140625 0 
z
" id="LiberationSans-107"/>
     </defs>
     <g style="fill:#262626;" transform="translate(629.051563 269.500286)scale(0.1 -0.1)">
      <use xlink:href="#LiberationSans-84"/>
      <use x="61.037109" xlink:href="#LiberationSans-117"/>
      <use x="116.652344" xlink:href="#LiberationSans-114"/>
      <use x="149.953125" xlink:href="#LiberationSans-107"/>
      <use x="199.953125" xlink:href="#LiberationSans-101"/>
      <use x="255.568359" xlink:href="#LiberationSans-121"/>
     </g>
    </g>
    <g id="line2d_127">
     <path d="M 601.051563 280.322161 
L 621.051563 280.322161 
" style="fill:none;stroke:#7516fd;stroke-dasharray:6.475,2.8;stroke-dashoffset:0;stroke-width:1.75;"/>
    </g>
    <g id="line2d_128"/>
    <g id="text_25">
     <!-- US -->
     <defs>
      <path d="M 35.6875 -0.984375 
Q 30.03125 -0.984375 24.953125 0.53125 
Q 19.875 2.046875 16.03125 5.25 
Q 12.203125 8.453125 9.953125 13.359375 
Q 7.71875 18.265625 7.71875 25 
L 7.71875 68.796875 
L 17.046875 68.796875 
L 17.046875 25.78125 
Q 17.046875 20.5625 18.4375 16.921875 
Q 19.828125 13.28125 22.3125 10.984375 
Q 24.8125 8.6875 28.203125 7.640625 
Q 31.59375 6.59375 35.640625 6.59375 
Q 39.65625 6.59375 43.21875 7.65625 
Q 46.78125 8.734375 49.46875 11.078125 
Q 52.15625 13.421875 53.6875 17.203125 
Q 55.21875 21 55.21875 26.421875 
L 55.21875 68.796875 
L 64.5 68.796875 
L 64.5 25.875 
Q 64.5 19 62.234375 13.9375 
Q 59.96875 8.890625 56.0625 5.5625 
Q 52.15625 2.25 46.90625 0.625 
Q 41.65625 -0.984375 35.6875 -0.984375 
z
" id="LiberationSans-85"/>
     </defs>
     <g style="fill:#262626;" transform="translate(629.051563 283.822161)scale(0.1 -0.1)">
      <use xlink:href="#LiberationSans-85"/>
      <use x="72.216797" xlink:href="#LiberationSans-83"/>
     </g>
    </g>
    <g id="line2d_129">
     <path d="M 601.051563 294.644036 
L 621.051563 294.644036 
" style="fill:none;stroke:#89f9c9;stroke-linecap:round;stroke-width:1.75;"/>
    </g>
    <g id="line2d_130"/>
    <g id="text_26">
     <!-- United Kingdom -->
     <defs>
      <path d="M 54 0 
L 26.515625 33.203125 
L 17.53125 26.375 
L 17.53125 0 
L 8.203125 0 
L 8.203125 68.796875 
L 17.53125 68.796875 
L 17.53125 34.328125 
L 50.6875 68.796875 
L 61.671875 68.796875 
L 32.375 38.921875 
L 65.578125 0 
z
" id="LiberationSans-75"/>
     </defs>
     <g style="fill:#262626;" transform="translate(629.051563 298.144036)scale(0.1 -0.1)">
      <use xlink:href="#LiberationSans-85"/>
      <use x="72.216797" xlink:href="#LiberationSans-110"/>
      <use x="127.832031" xlink:href="#LiberationSans-105"/>
      <use x="150.048828" xlink:href="#LiberationSans-116"/>
      <use x="177.832031" xlink:href="#LiberationSans-101"/>
      <use x="233.447266" xlink:href="#LiberationSans-100"/>
      <use x="289.0625" xlink:href="#LiberationSans-32"/>
      <use x="316.845703" xlink:href="#LiberationSans-75"/>
      <use x="383.544922" xlink:href="#LiberationSans-105"/>
      <use x="405.761719" xlink:href="#LiberationSans-110"/>
      <use x="461.376953" xlink:href="#LiberationSans-103"/>
      <use x="516.992188" xlink:href="#LiberationSans-100"/>
      <use x="572.607422" xlink:href="#LiberationSans-111"/>
      <use x="628.222656" xlink:href="#LiberationSans-109"/>
     </g>
    </g>
   </g>
  </g>
 </g>
 <defs>
  <clipPath id="pac3c1c5971">
   <rect height="298.419036" width="661.022276" x="48.177724" y="10.8"/>
  </clipPath>
 </defs>
</svg>
