<?xml version="1.0" encoding="utf-8" standalone="no"?>
<!DOCTYPE svg PUBLIC "-//W3C//DTD SVG 1.1//EN"
  "http://www.w3.org/Graphics/SVG/1.1/DTD/svg11.dtd">
<!-- Created with matplotlib (https://matplotlib.org/) -->
<svg height="360pt" version="1.1" viewBox="0 0 720 360" width="720pt" xmlns="http://www.w3.org/2000/svg" xmlns:xlink="http://www.w3.org/1999/xlink">
 <defs>
  <style type="text/css">
*{stroke-linecap:butt;stroke-linejoin:round;}
  </style>
 </defs>
 <g id="figure_1">
  <g id="patch_1">
   <path d="M 0 360 
L 720 360 
L 720 0 
L 0 0 
z
" style="fill:#ffffff;"/>
  </g>
  <g id="axes_1">
   <g id="patch_2">
    <path d="M 54.29 313.037412 
L 709.2 313.037412 
L 709.2 10.8 
L 54.29 10.8 
z
" style="fill:#eaeaf2;"/>
   </g>
   <g id="matplotlib.axis_1">
    <g id="xtick_1">
     <g id="line2d_1"/>
     <g id="text_1">
      <!-- 0 -->
      <defs>
       <path d="M 51.703125 34.421875 
Q 51.703125 24.515625 49.828125 17.75 
Q 47.953125 10.984375 44.703125 6.8125 
Q 41.453125 2.640625 37.0625 0.828125 
Q 32.671875 -0.984375 27.6875 -0.984375 
Q 22.65625 -0.984375 18.3125 0.828125 
Q 13.96875 2.640625 10.765625 6.78125 
Q 7.5625 10.9375 5.734375 17.703125 
Q 3.90625 24.46875 3.90625 34.421875 
Q 3.90625 44.828125 5.734375 51.640625 
Q 7.5625 58.453125 10.78125 62.5 
Q 14.015625 66.546875 18.40625 68.1875 
Q 22.796875 69.828125 27.984375 69.828125 
Q 32.90625 69.828125 37.21875 68.1875 
Q 41.546875 66.546875 44.765625 62.5 
Q 48 58.453125 49.84375 51.640625 
Q 51.703125 44.828125 51.703125 34.421875 
z
M 42.78125 34.421875 
Q 42.78125 42.625 41.796875 48.0625 
Q 40.828125 53.515625 38.921875 56.765625 
Q 37.015625 60.015625 34.25 61.359375 
Q 31.5 62.703125 27.984375 62.703125 
Q 24.265625 62.703125 21.4375 61.328125 
Q 18.609375 59.96875 16.671875 56.71875 
Q 14.75 53.46875 13.765625 48.015625 
Q 12.796875 42.578125 12.796875 34.421875 
Q 12.796875 26.515625 13.796875 21.09375 
Q 14.796875 15.671875 16.71875 12.375 
Q 18.65625 9.078125 21.4375 7.640625 
Q 24.21875 6.203125 27.78125 6.203125 
Q 31.25 6.203125 34.03125 7.640625 
Q 36.8125 9.078125 38.734375 12.375 
Q 40.671875 15.671875 41.71875 21.09375 
Q 42.78125 26.515625 42.78125 34.421875 
z
" id="LiberationSans-48"/>
      </defs>
      <g style="fill:#262626;" transform="translate(83.921082 329.093903)rotate(-45)scale(0.1 -0.1)">
       <use xlink:href="#LiberationSans-48"/>
      </g>
     </g>
    </g>
    <g id="xtick_2">
     <g id="line2d_2"/>
     <g id="text_2">
      <!-- 20 -->
      <defs>
       <path d="M 5.03125 0 
L 5.03125 6.203125 
Q 7.515625 11.921875 11.109375 16.28125 
Q 14.703125 20.65625 18.65625 24.1875 
Q 22.609375 27.734375 26.484375 30.765625 
Q 30.375 33.796875 33.5 36.8125 
Q 36.625 39.84375 38.546875 43.15625 
Q 40.484375 46.484375 40.484375 50.6875 
Q 40.484375 53.609375 39.59375 55.828125 
Q 38.71875 58.0625 37.0625 59.5625 
Q 35.40625 61.078125 33.078125 61.828125 
Q 30.765625 62.59375 27.9375 62.59375 
Q 25.296875 62.59375 22.96875 61.859375 
Q 20.65625 61.140625 18.84375 59.671875 
Q 17.046875 58.203125 15.890625 56.03125 
Q 14.75 53.859375 14.40625 50.984375 
L 5.421875 51.8125 
Q 5.859375 55.515625 7.46875 58.78125 
Q 9.078125 62.0625 11.90625 64.53125 
Q 14.75 67 18.71875 68.40625 
Q 22.703125 69.828125 27.9375 69.828125 
Q 33.0625 69.828125 37.0625 68.609375 
Q 41.0625 67.390625 43.8125 64.984375 
Q 46.578125 62.59375 48.046875 59.078125 
Q 49.515625 55.5625 49.515625 50.984375 
Q 49.515625 47.515625 48.265625 44.390625 
Q 47.015625 41.265625 44.9375 38.421875 
Q 42.875 35.59375 40.140625 32.953125 
Q 37.40625 30.328125 34.421875 27.8125 
Q 31.453125 25.296875 28.421875 22.828125 
Q 25.390625 20.359375 22.71875 17.859375 
Q 20.0625 15.375 17.96875 12.8125 
Q 15.875 10.25 14.703125 7.46875 
L 50.59375 7.46875 
L 50.59375 0 
z
" id="LiberationSans-50"/>
      </defs>
      <g style="fill:#262626;" transform="translate(217.266977 333.02608)rotate(-45)scale(0.1 -0.1)">
       <use xlink:href="#LiberationSans-50"/>
       <use x="55.615234" xlink:href="#LiberationSans-48"/>
      </g>
     </g>
    </g>
    <g id="xtick_3">
     <g id="line2d_3"/>
     <g id="text_3">
      <!-- 40 -->
      <defs>
       <path d="M 43.015625 15.578125 
L 43.015625 0 
L 34.71875 0 
L 34.71875 15.578125 
L 2.296875 15.578125 
L 2.296875 22.40625 
L 33.796875 68.796875 
L 43.015625 68.796875 
L 43.015625 22.515625 
L 52.6875 22.515625 
L 52.6875 15.578125 
z
M 34.71875 58.890625 
Q 34.625 58.640625 34.234375 57.9375 
Q 33.84375 57.234375 33.34375 56.34375 
Q 32.859375 55.46875 32.34375 54.5625 
Q 31.84375 53.65625 31.453125 53.078125 
L 13.8125 27.09375 
Q 13.578125 26.703125 13.109375 26.0625 
Q 12.640625 25.4375 12.15625 24.78125 
Q 11.671875 24.125 11.171875 23.484375 
Q 10.6875 22.859375 10.40625 22.515625 
L 34.71875 22.515625 
z
" id="LiberationSans-52"/>
      </defs>
      <g style="fill:#262626;" transform="translate(352.578961 333.02608)rotate(-45)scale(0.1 -0.1)">
       <use xlink:href="#LiberationSans-52"/>
       <use x="55.615234" xlink:href="#LiberationSans-48"/>
      </g>
     </g>
    </g>
    <g id="xtick_4">
     <g id="line2d_4"/>
     <g id="text_4">
      <!-- 60 -->
      <defs>
       <path d="M 51.21875 22.515625 
Q 51.21875 17.328125 49.78125 13 
Q 48.34375 8.6875 45.53125 5.578125 
Q 42.71875 2.484375 38.5625 0.75 
Q 34.421875 -0.984375 29 -0.984375 
Q 23 -0.984375 18.5 1.3125 
Q 14.015625 3.609375 11.03125 7.921875 
Q 8.0625 12.25 6.5625 18.53125 
Q 5.078125 24.8125 5.078125 32.8125 
Q 5.078125 42 6.765625 48.921875 
Q 8.453125 55.859375 11.625 60.5 
Q 14.796875 65.140625 19.359375 67.484375 
Q 23.921875 69.828125 29.6875 69.828125 
Q 33.203125 69.828125 36.28125 69.09375 
Q 39.359375 68.359375 41.875 66.71875 
Q 44.390625 65.09375 46.28125 62.40625 
Q 48.1875 59.71875 49.3125 55.8125 
L 40.921875 54.296875 
Q 39.546875 58.734375 36.546875 60.71875 
Q 33.546875 62.703125 29.59375 62.703125 
Q 25.984375 62.703125 23.046875 60.984375 
Q 20.125 59.28125 18.0625 55.875 
Q 16.015625 52.484375 14.90625 47.359375 
Q 13.8125 42.234375 13.8125 35.40625 
Q 16.21875 39.84375 20.5625 42.15625 
Q 24.90625 44.484375 30.515625 44.484375 
Q 35.203125 44.484375 39.015625 42.96875 
Q 42.828125 41.453125 45.53125 38.59375 
Q 48.25 35.75 49.734375 31.671875 
Q 51.21875 27.59375 51.21875 22.515625 
z
M 42.28125 22.125 
Q 42.28125 25.6875 41.40625 28.5625 
Q 40.53125 31.453125 38.765625 33.46875 
Q 37.015625 35.5 34.421875 36.59375 
Q 31.84375 37.703125 28.421875 37.703125 
Q 26.03125 37.703125 23.578125 36.984375 
Q 21.140625 36.28125 19.15625 34.6875 
Q 17.1875 33.109375 15.9375 30.515625 
Q 14.703125 27.9375 14.703125 24.21875 
Q 14.703125 20.40625 15.671875 17.109375 
Q 16.65625 13.8125 18.484375 11.375 
Q 20.3125 8.9375 22.890625 7.515625 
Q 25.484375 6.109375 28.71875 6.109375 
Q 31.890625 6.109375 34.40625 7.203125 
Q 36.921875 8.296875 38.671875 10.375 
Q 40.4375 12.453125 41.359375 15.421875 
Q 42.28125 18.40625 42.28125 22.125 
z
" id="LiberationSans-54"/>
      </defs>
      <g style="fill:#262626;" transform="translate(487.890944 333.02608)rotate(-45)scale(0.1 -0.1)">
       <use xlink:href="#LiberationSans-54"/>
       <use x="55.615234" xlink:href="#LiberationSans-48"/>
      </g>
     </g>
    </g>
    <g id="xtick_5">
     <g id="line2d_5"/>
     <g id="text_5">
      <!-- 80 -->
      <defs>
       <path d="M 51.265625 19.1875 
Q 51.265625 14.796875 49.875 11.109375 
Q 48.484375 7.421875 45.625 4.734375 
Q 42.78125 2.046875 38.328125 0.53125 
Q 33.890625 -0.984375 27.828125 -0.984375 
Q 21.78125 -0.984375 17.359375 0.53125 
Q 12.9375 2.046875 10.03125 4.703125 
Q 7.125 7.375 5.734375 11.0625 
Q 4.34375 14.75 4.34375 19.09375 
Q 4.34375 22.859375 5.484375 25.78125 
Q 6.640625 28.71875 8.5625 30.828125 
Q 10.5 32.953125 12.96875 34.25 
Q 15.4375 35.546875 18.0625 35.984375 
L 18.0625 36.1875 
Q 15.1875 36.859375 12.90625 38.375 
Q 10.640625 39.890625 9.09375 42.015625 
Q 7.5625 44.140625 6.75 46.71875 
Q 5.953125 49.3125 5.953125 52.203125 
Q 5.953125 55.8125 7.34375 59 
Q 8.734375 62.203125 11.46875 64.625 
Q 14.203125 67.046875 18.25 68.4375 
Q 22.3125 69.828125 27.640625 69.828125 
Q 33.25 69.828125 37.375 68.40625 
Q 41.5 67 44.203125 64.578125 
Q 46.921875 62.15625 48.234375 58.9375 
Q 49.5625 55.71875 49.5625 52.09375 
Q 49.5625 49.265625 48.75 46.671875 
Q 47.953125 44.09375 46.40625 41.96875 
Q 44.875 39.84375 42.59375 38.34375 
Q 40.328125 36.859375 37.359375 36.28125 
L 37.359375 36.078125 
Q 40.328125 35.59375 42.859375 34.296875 
Q 45.40625 33.015625 47.265625 30.890625 
Q 49.125 28.765625 50.1875 25.828125 
Q 51.265625 22.90625 51.265625 19.1875 
z
M 40.4375 51.609375 
Q 40.4375 54.203125 39.765625 56.34375 
Q 39.109375 58.5 37.59375 60.03125 
Q 36.078125 61.578125 33.640625 62.421875 
Q 31.203125 63.28125 27.640625 63.28125 
Q 24.171875 63.28125 21.78125 62.421875 
Q 19.390625 61.578125 17.84375 60.03125 
Q 16.3125 58.5 15.625 56.34375 
Q 14.9375 54.203125 14.9375 51.609375 
Q 14.9375 49.5625 15.46875 47.40625 
Q 16.015625 45.265625 17.421875 43.5 
Q 18.84375 41.75 21.328125 40.625 
Q 23.828125 39.5 27.734375 39.5 
Q 31.890625 39.5 34.40625 40.625 
Q 36.921875 41.75 38.25 43.5 
Q 39.59375 45.265625 40.015625 47.40625 
Q 40.4375 49.5625 40.4375 51.609375 
z
M 42.140625 20.015625 
Q 42.140625 22.515625 41.453125 24.828125 
Q 40.765625 27.15625 39.109375 28.9375 
Q 37.453125 30.71875 34.640625 31.8125 
Q 31.84375 32.90625 27.640625 32.90625 
Q 23.78125 32.90625 21.0625 31.8125 
Q 18.359375 30.71875 16.671875 28.90625 
Q 14.984375 27.09375 14.203125 24.71875 
Q 13.421875 22.359375 13.421875 19.828125 
Q 13.421875 16.65625 14.203125 14.03125 
Q 14.984375 11.421875 16.6875 9.546875 
Q 18.40625 7.671875 21.1875 6.640625 
Q 23.96875 5.609375 27.9375 5.609375 
Q 31.9375 5.609375 34.671875 6.640625 
Q 37.40625 7.671875 39.0625 9.546875 
Q 40.71875 11.421875 41.421875 14.078125 
Q 42.140625 16.75 42.140625 20.015625 
z
" id="LiberationSans-56"/>
      </defs>
      <g style="fill:#262626;" transform="translate(623.202928 333.02608)rotate(-45)scale(0.1 -0.1)">
       <use xlink:href="#LiberationSans-56"/>
       <use x="55.615234" xlink:href="#LiberationSans-48"/>
      </g>
     </g>
    </g>
    <g id="text_6">
     <!-- Days since case nº20 -->
     <defs>
      <path d="M 67.4375 35.109375 
Q 67.4375 26.515625 64.84375 19.9375 
Q 62.25 13.375 57.75 8.953125 
Q 53.265625 4.546875 47.140625 2.265625 
Q 41.015625 0 33.9375 0 
L 8.203125 0 
L 8.203125 68.796875 
L 30.953125 68.796875 
Q 38.921875 68.796875 45.625 66.8125 
Q 52.34375 64.84375 57.171875 60.71875 
Q 62.015625 56.59375 64.71875 50.234375 
Q 67.4375 43.890625 67.4375 35.109375 
z
M 58.0625 35.109375 
Q 58.0625 42.09375 56.046875 47.046875 
Q 54.046875 52 50.4375 55.171875 
Q 46.828125 58.34375 41.796875 59.828125 
Q 36.765625 61.328125 30.765625 61.328125 
L 17.53125 61.328125 
L 17.53125 7.46875 
L 32.859375 7.46875 
Q 38.28125 7.46875 42.890625 9.21875 
Q 47.515625 10.984375 50.875 14.453125 
Q 54.25 17.921875 56.15625 23.09375 
Q 58.0625 28.265625 58.0625 35.109375 
z
" id="LiberationSans-68"/>
      <path d="M 20.21875 -0.984375 
Q 12.25 -0.984375 8.25 3.21875 
Q 4.25 7.421875 4.25 14.75 
Q 4.25 19.96875 6.21875 23.3125 
Q 8.203125 26.65625 11.390625 28.5625 
Q 14.59375 30.46875 18.6875 31.203125 
Q 22.796875 31.9375 27.046875 32.03125 
L 38.921875 32.234375 
L 38.921875 35.109375 
Q 38.921875 38.375 38.234375 40.671875 
Q 37.546875 42.96875 36.125 44.375 
Q 34.71875 45.796875 32.59375 46.453125 
Q 30.46875 47.125 27.59375 47.125 
Q 25.046875 47.125 23 46.75 
Q 20.953125 46.390625 19.4375 45.4375 
Q 17.921875 44.484375 16.984375 42.84375 
Q 16.0625 41.21875 15.765625 38.71875 
L 6.59375 39.546875 
Q 7.078125 42.671875 8.4375 45.28125 
Q 9.8125 47.90625 12.328125 49.796875 
Q 14.84375 51.703125 18.625 52.75 
Q 22.40625 53.8125 27.78125 53.8125 
Q 37.75 53.8125 42.765625 49.234375 
Q 47.796875 44.671875 47.796875 36.03125 
L 47.796875 13.28125 
Q 47.796875 9.375 48.828125 7.390625 
Q 49.859375 5.421875 52.734375 5.421875 
Q 53.46875 5.421875 54.203125 5.515625 
Q 54.9375 5.609375 55.609375 5.765625 
L 55.609375 0.296875 
Q 53.953125 -0.09375 52.3125 -0.28125 
Q 50.6875 -0.484375 48.828125 -0.484375 
Q 46.34375 -0.484375 44.5625 0.171875 
Q 42.78125 0.828125 41.65625 2.171875 
Q 40.53125 3.515625 39.9375 5.484375 
Q 39.359375 7.46875 39.203125 10.109375 
L 38.921875 10.109375 
Q 37.5 7.5625 35.8125 5.515625 
Q 34.125 3.46875 31.875 2.03125 
Q 29.640625 0.59375 26.78125 -0.1875 
Q 23.921875 -0.984375 20.21875 -0.984375 
z
M 22.21875 5.609375 
Q 26.421875 5.609375 29.5625 7.140625 
Q 32.71875 8.6875 34.78125 11.078125 
Q 36.859375 13.484375 37.890625 16.3125 
Q 38.921875 19.140625 38.921875 21.734375 
L 38.921875 26.078125 
L 29.296875 25.875 
Q 26.078125 25.828125 23.171875 25.40625 
Q 20.265625 25 18.0625 23.78125 
Q 15.875 22.5625 14.578125 20.359375 
Q 13.28125 18.171875 13.28125 14.59375 
Q 13.28125 10.296875 15.59375 7.953125 
Q 17.921875 5.609375 22.21875 5.609375 
z
" id="LiberationSans-97"/>
      <path d="M 29.5 0 
Q 27.640625 -4.78125 25.703125 -8.609375 
Q 23.78125 -12.453125 21.390625 -15.15625 
Q 19 -17.875 16.0625 -19.3125 
Q 13.140625 -20.75 9.328125 -20.75 
Q 7.671875 -20.75 6.25 -20.65625 
Q 4.828125 -20.5625 3.265625 -20.21875 
L 3.265625 -13.625 
Q 4.203125 -13.765625 5.375 -13.84375 
Q 6.546875 -13.921875 7.375 -13.921875 
Q 11.234375 -13.921875 14.546875 -11.03125 
Q 17.875 -8.15625 20.359375 -1.859375 
L 21.1875 0.25 
L 0.25 52.828125 
L 9.625 52.828125 
L 20.75 23.640625 
Q 21.234375 22.3125 21.984375 20.109375 
Q 22.75 17.921875 23.5 15.71875 
Q 24.265625 13.53125 24.84375 11.765625 
Q 25.4375 10.015625 25.53125 9.578125 
Q 25.6875 10.109375 26.25 11.6875 
Q 26.8125 13.28125 27.515625 15.234375 
Q 28.21875 17.1875 28.953125 19.1875 
Q 29.6875 21.1875 30.171875 22.65625 
L 40.53125 52.828125 
L 49.8125 52.828125 
z
" id="LiberationSans-121"/>
      <path d="M 46.390625 14.59375 
Q 46.390625 10.890625 44.9375 7.984375 
Q 43.5 5.078125 40.765625 3.09375 
Q 38.03125 1.125 34.046875 0.0625 
Q 30.078125 -0.984375 24.953125 -0.984375 
Q 20.359375 -0.984375 16.671875 -0.265625 
Q 12.984375 0.4375 10.203125 2 
Q 7.421875 3.5625 5.53125 6.125 
Q 3.65625 8.6875 2.78125 12.40625 
L 10.546875 13.921875 
Q 11.671875 9.671875 15.1875 7.6875 
Q 18.703125 5.71875 24.953125 5.71875 
Q 27.78125 5.71875 30.140625 6.109375 
Q 32.515625 6.5 34.21875 7.453125 
Q 35.9375 8.40625 36.890625 9.984375 
Q 37.84375 11.578125 37.84375 13.921875 
Q 37.84375 16.3125 36.71875 17.84375 
Q 35.59375 19.390625 33.59375 20.40625 
Q 31.59375 21.4375 28.734375 22.1875 
Q 25.875 22.953125 22.46875 23.875 
Q 19.28125 24.703125 16.15625 25.734375 
Q 13.03125 26.765625 10.515625 28.4375 
Q 8.015625 30.125 6.453125 32.609375 
Q 4.890625 35.109375 4.890625 38.875 
Q 4.890625 46.09375 10.03125 49.875 
Q 15.1875 53.65625 25.046875 53.65625 
Q 33.796875 53.65625 38.9375 50.578125 
Q 44.09375 47.515625 45.453125 40.71875 
L 37.546875 39.75 
Q 37.109375 41.796875 35.9375 43.1875 
Q 34.765625 44.578125 33.109375 45.4375 
Q 31.453125 46.296875 29.375 46.65625 
Q 27.296875 47.015625 25.046875 47.015625 
Q 19.09375 47.015625 16.25 45.203125 
Q 13.421875 43.40625 13.421875 39.75 
Q 13.421875 37.59375 14.46875 36.203125 
Q 15.53125 34.8125 17.40625 33.859375 
Q 19.28125 32.90625 21.921875 32.203125 
Q 24.5625 31.5 27.734375 30.71875 
Q 29.828125 30.171875 32.03125 29.5625 
Q 34.234375 28.953125 36.296875 28.09375 
Q 38.375 27.25 40.203125 26.09375 
Q 42.046875 24.953125 43.40625 23.34375 
Q 44.78125 21.734375 45.578125 19.578125 
Q 46.390625 17.4375 46.390625 14.59375 
z
" id="LiberationSans-115"/>
      <path id="LiberationSans-32"/>
      <path d="M 6.6875 64.0625 
L 6.6875 72.46875 
L 15.484375 72.46875 
L 15.484375 64.0625 
z
M 6.6875 0 
L 6.6875 52.828125 
L 15.484375 52.828125 
L 15.484375 0 
z
" id="LiberationSans-105"/>
      <path d="M 40.28125 0 
L 40.28125 33.5 
Q 40.28125 37.359375 39.71875 39.9375 
Q 39.15625 42.53125 37.890625 44.109375 
Q 36.625 45.703125 34.546875 46.359375 
Q 32.46875 47.015625 29.390625 47.015625 
Q 26.265625 47.015625 23.75 45.921875 
Q 21.234375 44.828125 19.453125 42.75 
Q 17.671875 40.671875 16.6875 37.625 
Q 15.71875 34.578125 15.71875 30.609375 
L 15.71875 0 
L 6.9375 0 
L 6.9375 41.546875 
Q 6.9375 43.21875 6.90625 45.046875 
Q 6.890625 46.875 6.828125 48.5 
Q 6.78125 50.140625 6.734375 51.3125 
Q 6.6875 52.484375 6.640625 52.828125 
L 14.9375 52.828125 
Q 14.984375 52.59375 15.03125 51.515625 
Q 15.09375 50.4375 15.15625 49.046875 
Q 15.234375 47.65625 15.28125 46.21875 
Q 15.328125 44.78125 15.328125 43.796875 
L 15.484375 43.796875 
Q 16.75 46.09375 18.265625 47.953125 
Q 19.78125 49.8125 21.78125 51.09375 
Q 23.78125 52.390625 26.359375 53.09375 
Q 28.953125 53.8125 32.375 53.8125 
Q 36.765625 53.8125 39.9375 52.734375 
Q 43.109375 51.65625 45.15625 49.40625 
Q 47.21875 47.171875 48.171875 43.625 
Q 49.125 40.09375 49.125 35.203125 
L 49.125 0 
z
" id="LiberationSans-110"/>
      <path d="M 13.421875 26.65625 
Q 13.421875 22.125 14.078125 18.3125 
Q 14.75 14.5 16.3125 11.734375 
Q 17.875 8.984375 20.4375 7.46875 
Q 23 5.953125 26.765625 5.953125 
Q 31.453125 5.953125 34.59375 8.484375 
Q 37.75 11.03125 38.484375 16.3125 
L 47.359375 15.71875 
Q 46.921875 12.453125 45.453125 9.421875 
Q 44 6.390625 41.484375 4.09375 
Q 38.96875 1.8125 35.34375 0.40625 
Q 31.734375 -0.984375 27 -0.984375 
Q 20.796875 -0.984375 16.453125 1.109375 
Q 12.109375 3.21875 9.390625 6.90625 
Q 6.6875 10.59375 5.46875 15.59375 
Q 4.25 20.609375 4.25 26.46875 
Q 4.25 31.78125 5.125 35.859375 
Q 6 39.9375 7.59375 42.984375 
Q 9.1875 46.046875 11.328125 48.125 
Q 13.484375 50.203125 15.984375 51.4375 
Q 18.5 52.6875 21.28125 53.25 
Q 24.078125 53.8125 26.90625 53.8125 
Q 31.34375 53.8125 34.8125 52.59375 
Q 38.28125 51.375 40.796875 49.25 
Q 43.3125 47.125 44.875 44.234375 
Q 46.4375 41.359375 47.078125 38.03125 
L 38.03125 37.359375 
Q 37.359375 41.75 34.5625 44.328125 
Q 31.78125 46.921875 26.65625 46.921875 
Q 22.90625 46.921875 20.390625 45.671875 
Q 17.875 44.4375 16.3125 41.921875 
Q 14.75 39.40625 14.078125 35.59375 
Q 13.421875 31.78125 13.421875 26.65625 
z
" id="LiberationSans-99"/>
      <path d="M 13.484375 24.5625 
Q 13.484375 20.40625 14.328125 16.90625 
Q 15.1875 13.421875 16.96875 10.90625 
Q 18.75 8.40625 21.53125 7 
Q 24.3125 5.609375 28.21875 5.609375 
Q 33.9375 5.609375 37.375 7.90625 
Q 40.828125 10.203125 42.046875 13.71875 
L 49.75 11.53125 
Q 48.921875 9.328125 47.4375 7.109375 
Q 45.953125 4.890625 43.453125 3.09375 
Q 40.96875 1.3125 37.234375 0.15625 
Q 33.5 -0.984375 28.21875 -0.984375 
Q 16.5 -0.984375 10.375 6 
Q 4.25 12.984375 4.25 26.765625 
Q 4.25 34.1875 6.09375 39.328125 
Q 7.953125 44.484375 11.171875 47.703125 
Q 14.40625 50.921875 18.703125 52.359375 
Q 23 53.8125 27.875 53.8125 
Q 34.515625 53.8125 38.984375 51.65625 
Q 43.453125 49.515625 46.15625 45.71875 
Q 48.875 41.9375 50.015625 36.8125 
Q 51.171875 31.6875 51.171875 25.734375 
L 51.171875 24.5625 
z
M 42.09375 31.296875 
Q 41.359375 39.65625 37.84375 43.484375 
Q 34.328125 47.3125 27.734375 47.3125 
Q 25.53125 47.3125 23.109375 46.609375 
Q 20.703125 45.90625 18.65625 44.09375 
Q 16.609375 42.28125 15.1875 39.171875 
Q 13.765625 36.078125 13.578125 31.296875 
z
" id="LiberationSans-101"/>
      <path d="M 35.296875 50.875 
Q 35.296875 41.703125 31 36.734375 
Q 26.703125 31.78125 18.171875 31.78125 
Q 9.96875 31.78125 5.640625 36.6875 
Q 1.3125 41.609375 1.3125 50.875 
Q 1.3125 55.328125 2.359375 58.859375 
Q 3.421875 62.40625 5.546875 64.859375 
Q 7.671875 67.328125 10.859375 68.625 
Q 14.0625 69.921875 18.359375 69.921875 
Q 22.90625 69.921875 26.09375 68.625 
Q 29.296875 67.328125 31.34375 64.890625 
Q 33.40625 62.453125 34.34375 58.90625 
Q 35.296875 55.375 35.296875 50.875 
z
M 28.03125 50.875 
Q 28.03125 54.9375 27.421875 57.609375 
Q 26.8125 60.296875 25.578125 61.890625 
Q 24.359375 63.484375 22.59375 64.140625 
Q 20.84375 64.796875 18.5 64.796875 
Q 16.15625 64.796875 14.328125 64.140625 
Q 12.5 63.484375 11.25 61.859375 
Q 10.015625 60.25 9.375 57.5625 
Q 8.734375 54.890625 8.734375 50.875 
Q 8.734375 46.78125 9.421875 44.09375 
Q 10.109375 41.40625 11.34375 39.796875 
Q 12.59375 38.1875 14.296875 37.546875 
Q 16.015625 36.921875 18.109375 36.921875 
Q 20.515625 36.921875 22.34375 37.546875 
Q 24.171875 38.1875 25.4375 39.796875 
Q 26.703125 41.40625 27.359375 44.09375 
Q 28.03125 46.78125 28.03125 50.875 
z
" id="LiberationSans-186"/>
     </defs>
     <g style="fill:#262626;" transform="translate(328.989688 346.464889)scale(0.11 -0.11)">
      <use xlink:href="#LiberationSans-68"/>
      <use x="72.216797" xlink:href="#LiberationSans-97"/>
      <use x="127.832031" xlink:href="#LiberationSans-121"/>
      <use x="177.832031" xlink:href="#LiberationSans-115"/>
      <use x="227.832031" xlink:href="#LiberationSans-32"/>
      <use x="255.615234" xlink:href="#LiberationSans-115"/>
      <use x="305.615234" xlink:href="#LiberationSans-105"/>
      <use x="327.832031" xlink:href="#LiberationSans-110"/>
      <use x="383.447266" xlink:href="#LiberationSans-99"/>
      <use x="433.447266" xlink:href="#LiberationSans-101"/>
      <use x="489.0625" xlink:href="#LiberationSans-32"/>
      <use x="516.845703" xlink:href="#LiberationSans-99"/>
      <use x="566.845703" xlink:href="#LiberationSans-97"/>
      <use x="622.460938" xlink:href="#LiberationSans-115"/>
      <use x="672.460938" xlink:href="#LiberationSans-101"/>
      <use x="728.076172" xlink:href="#LiberationSans-32"/>
      <use x="755.859375" xlink:href="#LiberationSans-110"/>
      <use x="811.474609" xlink:href="#LiberationSans-186"/>
      <use x="847.998047" xlink:href="#LiberationSans-50"/>
      <use x="903.613281" xlink:href="#LiberationSans-48"/>
     </g>
    </g>
   </g>
   <g id="matplotlib.axis_2">
    <g id="ytick_1">
     <g id="line2d_6"/>
     <g id="text_7">
      <!-- 0 -->
      <g style="fill:#262626;" transform="translate(41.729063 302.929813)scale(0.1 -0.1)">
       <use xlink:href="#LiberationSans-48"/>
      </g>
     </g>
    </g>
    <g id="ytick_2">
     <g id="line2d_7"/>
     <g id="text_8">
      <!-- 1000 -->
      <defs>
       <path d="M 7.625 0 
L 7.625 7.46875 
L 25.140625 7.46875 
L 25.140625 60.40625 
L 9.625 49.3125 
L 9.625 57.625 
L 25.875 68.796875 
L 33.984375 68.796875 
L 33.984375 7.46875 
L 50.734375 7.46875 
L 50.734375 0 
z
" id="LiberationSans-49"/>
      </defs>
      <g style="fill:#262626;" transform="translate(25.04625 236.799986)scale(0.1 -0.1)">
       <use xlink:href="#LiberationSans-49"/>
       <use x="55.615234" xlink:href="#LiberationSans-48"/>
       <use x="111.230469" xlink:href="#LiberationSans-48"/>
       <use x="166.845703" xlink:href="#LiberationSans-48"/>
      </g>
     </g>
    </g>
    <g id="ytick_3">
     <g id="line2d_8"/>
     <g id="text_9">
      <!-- 2000 -->
      <g style="fill:#262626;" transform="translate(25.04625 170.670158)scale(0.1 -0.1)">
       <use xlink:href="#LiberationSans-50"/>
       <use x="55.615234" xlink:href="#LiberationSans-48"/>
       <use x="111.230469" xlink:href="#LiberationSans-48"/>
       <use x="166.845703" xlink:href="#LiberationSans-48"/>
      </g>
     </g>
    </g>
    <g id="ytick_4">
     <g id="line2d_9"/>
     <g id="text_10">
      <!-- 3000 -->
      <defs>
       <path d="M 51.21875 19 
Q 51.21875 14.265625 49.671875 10.546875 
Q 48.140625 6.84375 45.1875 4.265625 
Q 42.234375 1.703125 37.859375 0.359375 
Q 33.5 -0.984375 27.875 -0.984375 
Q 21.484375 -0.984375 17.109375 0.609375 
Q 12.75 2.203125 9.90625 4.8125 
Q 7.078125 7.421875 5.65625 10.765625 
Q 4.25 14.109375 3.8125 17.671875 
L 12.890625 18.5 
Q 13.28125 15.765625 14.328125 13.515625 
Q 15.375 11.28125 17.1875 9.671875 
Q 19 8.0625 21.625 7.171875 
Q 24.265625 6.296875 27.875 6.296875 
Q 34.515625 6.296875 38.296875 9.5625 
Q 42.09375 12.84375 42.09375 19.28125 
Q 42.09375 23.09375 40.40625 25.40625 
Q 38.71875 27.734375 36.203125 29.03125 
Q 33.6875 30.328125 30.734375 30.765625 
Q 27.78125 31.203125 25.296875 31.203125 
L 20.3125 31.203125 
L 20.3125 38.8125 
L 25.09375 38.8125 
Q 27.59375 38.8125 30.265625 39.328125 
Q 32.953125 39.84375 35.171875 41.1875 
Q 37.40625 42.53125 38.84375 44.828125 
Q 40.28125 47.125 40.28125 50.6875 
Q 40.28125 56.203125 37.03125 59.390625 
Q 33.796875 62.59375 27.390625 62.59375 
Q 21.578125 62.59375 17.984375 59.609375 
Q 14.40625 56.640625 13.8125 51.21875 
L 4.984375 51.90625 
Q 5.515625 56.453125 7.46875 59.8125 
Q 9.421875 63.1875 12.421875 65.40625 
Q 15.4375 67.625 19.28125 68.71875 
Q 23.140625 69.828125 27.484375 69.828125 
Q 33.25 69.828125 37.390625 68.375 
Q 41.546875 66.9375 44.1875 64.46875 
Q 46.828125 62.015625 48.0625 58.6875 
Q 49.3125 55.375 49.3125 51.609375 
Q 49.3125 48.578125 48.484375 45.9375 
Q 47.65625 43.3125 45.890625 41.203125 
Q 44.140625 39.109375 41.421875 37.59375 
Q 38.71875 36.078125 34.90625 35.296875 
L 34.90625 35.109375 
Q 39.0625 34.671875 42.140625 33.21875 
Q 45.21875 31.78125 47.21875 29.625 
Q 49.21875 27.484375 50.21875 24.75 
Q 51.21875 22.015625 51.21875 19 
z
" id="LiberationSans-51"/>
      </defs>
      <g style="fill:#262626;" transform="translate(25.04625 104.540331)scale(0.1 -0.1)">
       <use xlink:href="#LiberationSans-51"/>
       <use x="55.615234" xlink:href="#LiberationSans-48"/>
       <use x="111.230469" xlink:href="#LiberationSans-48"/>
       <use x="166.845703" xlink:href="#LiberationSans-48"/>
      </g>
     </g>
    </g>
    <g id="ytick_5">
     <g id="line2d_10"/>
     <g id="text_11">
      <!-- 4000 -->
      <g style="fill:#262626;" transform="translate(25.04625 38.410504)scale(0.1 -0.1)">
       <use xlink:href="#LiberationSans-52"/>
       <use x="55.615234" xlink:href="#LiberationSans-48"/>
       <use x="111.230469" xlink:href="#LiberationSans-48"/>
       <use x="166.845703" xlink:href="#LiberationSans-48"/>
      </g>
     </g>
    </g>
    <g id="text_12">
     <!-- Total infections over 1M population -->
     <defs>
      <path d="M 35.15625 61.1875 
L 35.15625 0 
L 25.875 0 
L 25.875 61.1875 
L 2.25 61.1875 
L 2.25 68.796875 
L 58.796875 68.796875 
L 58.796875 61.1875 
z
" id="LiberationSans-84"/>
      <path d="M 51.421875 26.46875 
Q 51.421875 12.59375 45.3125 5.796875 
Q 39.203125 -0.984375 27.59375 -0.984375 
Q 22.078125 -0.984375 17.71875 0.671875 
Q 13.375 2.34375 10.375 5.765625 
Q 7.375 9.1875 5.78125 14.328125 
Q 4.203125 19.484375 4.203125 26.46875 
Q 4.203125 53.8125 27.875 53.8125 
Q 34.03125 53.8125 38.5 52.09375 
Q 42.96875 50.390625 45.828125 46.96875 
Q 48.6875 43.5625 50.046875 38.421875 
Q 51.421875 33.296875 51.421875 26.46875 
z
M 42.1875 26.46875 
Q 42.1875 32.625 41.234375 36.625 
Q 40.28125 40.625 38.453125 43.015625 
Q 36.625 45.40625 33.984375 46.359375 
Q 31.34375 47.3125 28.03125 47.3125 
Q 24.65625 47.3125 21.9375 46.3125 
Q 19.234375 45.3125 17.328125 42.890625 
Q 15.4375 40.484375 14.421875 36.46875 
Q 13.421875 32.46875 13.421875 26.46875 
Q 13.421875 20.3125 14.5 16.28125 
Q 15.578125 12.25 17.453125 9.859375 
Q 19.34375 7.46875 21.90625 6.484375 
Q 24.46875 5.515625 27.484375 5.515625 
Q 30.859375 5.515625 33.59375 6.46875 
Q 36.328125 7.421875 38.234375 9.8125 
Q 40.140625 12.203125 41.15625 16.25 
Q 42.1875 20.3125 42.1875 26.46875 
z
" id="LiberationSans-111"/>
      <path d="M 27.046875 0.390625 
Q 25.046875 -0.140625 22.96875 -0.453125 
Q 20.90625 -0.78125 18.171875 -0.78125 
Q 7.625 -0.78125 7.625 11.1875 
L 7.625 46.4375 
L 1.515625 46.4375 
L 1.515625 52.828125 
L 7.953125 52.828125 
L 10.546875 64.65625 
L 16.40625 64.65625 
L 16.40625 52.828125 
L 26.171875 52.828125 
L 26.171875 46.4375 
L 16.40625 46.4375 
L 16.40625 13.09375 
Q 16.40625 9.28125 17.640625 7.734375 
Q 18.890625 6.203125 21.96875 6.203125 
Q 23.25 6.203125 24.4375 6.390625 
Q 25.640625 6.59375 27.046875 6.890625 
z
" id="LiberationSans-116"/>
      <path d="M 6.734375 0 
L 6.734375 72.46875 
L 15.53125 72.46875 
L 15.53125 0 
z
" id="LiberationSans-108"/>
      <path d="M 17.625 46.4375 
L 17.625 0 
L 8.84375 0 
L 8.84375 46.4375 
L 1.421875 46.4375 
L 1.421875 52.828125 
L 8.84375 52.828125 
L 8.84375 58.796875 
Q 8.84375 61.671875 9.375 64.140625 
Q 9.90625 66.609375 11.34375 68.4375 
Q 12.796875 70.265625 15.28125 71.3125 
Q 17.78125 72.359375 21.734375 72.359375 
Q 23.296875 72.359375 24.96875 72.21875 
Q 26.65625 72.078125 27.9375 71.78125 
L 27.9375 65.09375 
Q 27.09375 65.234375 26 65.359375 
Q 24.90625 65.484375 24.03125 65.484375 
Q 22.078125 65.484375 20.828125 64.9375 
Q 19.578125 64.40625 18.875 63.40625 
Q 18.171875 62.40625 17.890625 60.9375 
Q 17.625 59.46875 17.625 57.5625 
L 17.625 52.828125 
L 27.9375 52.828125 
L 27.9375 46.4375 
z
" id="LiberationSans-102"/>
      <path d="M 29.9375 0 
L 19.53125 0 
L 0.34375 52.828125 
L 9.71875 52.828125 
L 21.34375 18.453125 
Q 21.6875 17.390625 22.140625 15.84375 
Q 22.609375 14.3125 23.09375 12.640625 
Q 23.578125 10.984375 24 9.4375 
Q 24.421875 7.90625 24.703125 6.890625 
Q 25 7.90625 25.453125 9.4375 
Q 25.921875 10.984375 26.40625 12.59375 
Q 26.90625 14.203125 27.421875 15.734375 
Q 27.9375 17.28125 28.328125 18.359375 
L 40.328125 52.828125 
L 49.65625 52.828125 
z
" id="LiberationSans-118"/>
      <path d="M 6.9375 0 
L 6.9375 40.53125 
Q 6.9375 42.1875 6.90625 43.921875 
Q 6.890625 45.65625 6.828125 47.265625 
Q 6.78125 48.875 6.734375 50.28125 
Q 6.6875 51.703125 6.640625 52.828125 
L 14.9375 52.828125 
Q 14.984375 51.703125 15.0625 50.265625 
Q 15.140625 48.828125 15.203125 47.3125 
Q 15.28125 45.796875 15.296875 44.40625 
Q 15.328125 43.015625 15.328125 42.046875 
L 15.53125 42.046875 
Q 16.453125 45.0625 17.5 47.28125 
Q 18.5625 49.515625 19.96875 50.953125 
Q 21.390625 52.390625 23.34375 53.09375 
Q 25.296875 53.8125 28.078125 53.8125 
Q 29.15625 53.8125 30.125 53.640625 
Q 31.109375 53.46875 31.640625 53.328125 
L 31.640625 45.265625 
Q 30.765625 45.515625 29.59375 45.625 
Q 28.421875 45.75 26.953125 45.75 
Q 23.921875 45.75 21.796875 44.375 
Q 19.671875 43.015625 18.328125 40.59375 
Q 17 38.1875 16.359375 34.84375 
Q 15.71875 31.5 15.71875 27.546875 
L 15.71875 0 
z
" id="LiberationSans-114"/>
      <path d="M 66.703125 0 
L 66.703125 45.90625 
Q 66.703125 48.390625 66.75 50.96875 
Q 66.796875 53.5625 66.890625 55.71875 
Q 67 58.203125 67.140625 60.546875 
Q 66.453125 58.0625 65.71875 55.609375 
Q 65.09375 53.515625 64.328125 51.140625 
Q 63.578125 48.78125 62.84375 46.875 
L 45.0625 0 
L 38.53125 0 
L 20.515625 46.875 
Q 20.21875 47.609375 19.890625 48.578125 
Q 19.578125 49.5625 19.203125 50.65625 
Q 18.84375 51.765625 18.46875 52.90625 
Q 18.109375 54.046875 17.78125 55.171875 
Q 16.9375 57.765625 16.15625 60.546875 
Q 16.21875 57.8125 16.3125 55.125 
Q 16.40625 52.828125 16.453125 50.3125 
Q 16.5 47.796875 16.5 45.90625 
L 16.5 0 
L 8.203125 0 
L 8.203125 68.796875 
L 20.453125 68.796875 
L 38.765625 21.09375 
Q 39.109375 20.125 39.59375 18.578125 
Q 40.09375 17.046875 40.53125 15.421875 
Q 40.96875 13.8125 41.328125 12.375 
Q 41.703125 10.9375 41.84375 10.15625 
Q 42 10.9375 42.390625 12.40625 
Q 42.78125 13.875 43.28125 15.484375 
Q 43.796875 17.09375 44.28125 18.609375 
Q 44.78125 20.125 45.171875 21.09375 
L 63.140625 68.796875 
L 75.09375 68.796875 
L 75.09375 0 
z
" id="LiberationSans-77"/>
      <path d="M 51.421875 26.65625 
Q 51.421875 20.65625 50.4375 15.578125 
Q 49.46875 10.5 47.1875 6.828125 
Q 44.921875 3.171875 41.1875 1.09375 
Q 37.453125 -0.984375 31.984375 -0.984375 
Q 26.3125 -0.984375 22.0625 1.171875 
Q 17.828125 3.328125 15.578125 8.203125 
L 15.328125 8.203125 
Q 15.375 8.109375 15.40625 7.328125 
Q 15.4375 6.546875 15.453125 5.375 
Q 15.484375 4.203125 15.5 2.75 
Q 15.53125 1.3125 15.53125 -0.09375 
L 15.53125 -20.75 
L 6.734375 -20.75 
L 6.734375 42.046875 
Q 6.734375 43.953125 6.703125 45.703125 
Q 6.6875 47.46875 6.640625 48.90625 
Q 6.59375 50.34375 6.546875 51.359375 
Q 6.5 52.390625 6.453125 52.828125 
L 14.9375 52.828125 
Q 14.984375 52.6875 15.0625 51.796875 
Q 15.140625 50.921875 15.203125 49.671875 
Q 15.28125 48.4375 15.359375 47.015625 
Q 15.4375 45.609375 15.4375 44.34375 
L 15.625 44.34375 
Q 16.84375 46.875 18.40625 48.65625 
Q 19.96875 50.4375 21.96875 51.578125 
Q 23.96875 52.734375 26.4375 53.25 
Q 28.90625 53.765625 31.984375 53.765625 
Q 37.453125 53.765625 41.1875 51.8125 
Q 44.921875 49.859375 47.1875 46.3125 
Q 49.46875 42.78125 50.4375 37.765625 
Q 51.421875 32.765625 51.421875 26.65625 
z
M 42.1875 26.46875 
Q 42.1875 31.34375 41.59375 35.15625 
Q 41.015625 38.96875 39.578125 41.59375 
Q 38.140625 44.234375 35.734375 45.59375 
Q 33.34375 46.96875 29.734375 46.96875 
Q 26.8125 46.96875 24.21875 46.140625 
Q 21.625 45.3125 19.703125 42.96875 
Q 17.78125 40.625 16.65625 36.5 
Q 15.53125 32.375 15.53125 25.78125 
Q 15.53125 20.171875 16.453125 16.28125 
Q 17.390625 12.40625 19.171875 10.015625 
Q 20.953125 7.625 23.578125 6.5625 
Q 26.21875 5.515625 29.640625 5.515625 
Q 33.296875 5.515625 35.71875 6.921875 
Q 38.140625 8.34375 39.578125 11.03125 
Q 41.015625 13.71875 41.59375 17.59375 
Q 42.1875 21.484375 42.1875 26.46875 
z
" id="LiberationSans-112"/>
      <path d="M 15.328125 52.828125 
L 15.328125 19.34375 
Q 15.328125 15.484375 15.890625 12.890625 
Q 16.453125 10.296875 17.71875 8.703125 
Q 19 7.125 21.0625 6.46875 
Q 23.140625 5.8125 26.21875 5.8125 
Q 29.34375 5.8125 31.859375 6.90625 
Q 34.375 8.015625 36.15625 10.078125 
Q 37.9375 12.15625 38.90625 15.203125 
Q 39.890625 18.265625 39.890625 22.21875 
L 39.890625 52.828125 
L 48.6875 52.828125 
L 48.6875 11.28125 
Q 48.6875 9.625 48.703125 7.78125 
Q 48.734375 5.953125 48.78125 4.3125 
Q 48.828125 2.6875 48.875 1.515625 
Q 48.921875 0.34375 48.96875 0 
L 40.671875 0 
Q 40.625 0.25 40.578125 1.3125 
Q 40.53125 2.390625 40.453125 3.78125 
Q 40.375 5.171875 40.328125 6.609375 
Q 40.28125 8.0625 40.28125 9.03125 
L 40.140625 9.03125 
Q 38.875 6.734375 37.359375 4.875 
Q 35.84375 3.03125 33.84375 1.734375 
Q 31.84375 0.4375 29.25 -0.265625 
Q 26.65625 -0.984375 23.25 -0.984375 
Q 18.84375 -0.984375 15.671875 0.09375 
Q 12.5 1.171875 10.453125 3.421875 
Q 8.40625 5.671875 7.453125 9.1875 
Q 6.5 12.703125 6.5 17.625 
L 6.5 52.828125 
z
" id="LiberationSans-117"/>
     </defs>
     <g style="fill:#262626;" transform="translate(18.76375 247.201362)rotate(-90)scale(0.11 -0.11)">
      <use xlink:href="#LiberationSans-84"/>
      <use x="60.912109" xlink:href="#LiberationSans-111"/>
      <use x="116.527344" xlink:href="#LiberationSans-116"/>
      <use x="144.310547" xlink:href="#LiberationSans-97"/>
      <use x="199.925781" xlink:href="#LiberationSans-108"/>
      <use x="222.142578" xlink:href="#LiberationSans-32"/>
      <use x="249.925781" xlink:href="#LiberationSans-105"/>
      <use x="272.142578" xlink:href="#LiberationSans-110"/>
      <use x="327.757812" xlink:href="#LiberationSans-102"/>
      <use x="355.541016" xlink:href="#LiberationSans-101"/>
      <use x="411.15625" xlink:href="#LiberationSans-99"/>
      <use x="461.15625" xlink:href="#LiberationSans-116"/>
      <use x="488.939453" xlink:href="#LiberationSans-105"/>
      <use x="511.15625" xlink:href="#LiberationSans-111"/>
      <use x="566.771484" xlink:href="#LiberationSans-110"/>
      <use x="622.386719" xlink:href="#LiberationSans-115"/>
      <use x="672.386719" xlink:href="#LiberationSans-32"/>
      <use x="700.169922" xlink:href="#LiberationSans-111"/>
      <use x="755.785156" xlink:href="#LiberationSans-118"/>
      <use x="805.785156" xlink:href="#LiberationSans-101"/>
      <use x="861.400391" xlink:href="#LiberationSans-114"/>
      <use x="894.701172" xlink:href="#LiberationSans-32"/>
      <use x="922.484375" xlink:href="#LiberationSans-49"/>
      <use x="978.099609" xlink:href="#LiberationSans-77"/>
      <use x="1061.400391" xlink:href="#LiberationSans-32"/>
      <use x="1089.183594" xlink:href="#LiberationSans-112"/>
      <use x="1144.798828" xlink:href="#LiberationSans-111"/>
      <use x="1200.414062" xlink:href="#LiberationSans-112"/>
      <use x="1256.029297" xlink:href="#LiberationSans-117"/>
      <use x="1311.644531" xlink:href="#LiberationSans-108"/>
      <use x="1333.861328" xlink:href="#LiberationSans-97"/>
      <use x="1389.476562" xlink:href="#LiberationSans-116"/>
      <use x="1417.259766" xlink:href="#LiberationSans-105"/>
      <use x="1439.476562" xlink:href="#LiberationSans-111"/>
      <use x="1495.091797" xlink:href="#LiberationSans-110"/>
     </g>
    </g>
   </g>
   <g id="line2d_11">
    <path clip-path="url(#pca59acb39f)" d="M 84.058636 299.12123 
L 90.824236 299.072702 
L 97.589835 298.986619 
L 104.355434 298.865159 
L 111.121033 298.70484 
L 117.886632 298.508678 
L 124.652231 298.251929 
L 131.417831 297.893901 
L 138.18343 297.409673 
L 144.949029 296.670086 
L 151.714628 295.574392 
L 158.480227 294.28507 
L 165.245826 292.889991 
L 172.011426 291.268592 
L 178.777025 289.223853 
L 185.542624 286.812029 
L 192.308223 284.133443 
L 199.073822 281.094711 
L 205.839421 277.200098 
L 212.605021 272.009637 
L 219.37062 266.128418 
L 226.136219 260.652521 
L 232.901818 255.166388 
L 239.667417 248.681677 
L 246.433017 242.546463 
L 253.198616 237.515126 
L 259.964215 232.757455 
L 266.729814 227.814379 
L 273.495413 223.252176 
L 280.261012 219.364303 
L 287.026612 216.065909 
L 293.792211 213.30814 
L 300.55781 211.034792 
L 307.323409 208.991943 
L 314.089008 206.895696 
L 320.854607 204.626146 
L 327.620207 202.308794 
L 334.385806 200.038826 
L 341.151405 197.911874 
L 347.917004 196.167299 
L 354.682603 194.907354 
L 361.448202 193.871081 
L 368.213802 192.818597 
L 374.979401 191.805665 
L 381.745 190.860081 
L 388.510599 190.030176 
L 395.276198 189.387744 
L 402.041798 188.997925 
" style="fill:none;stroke:#989173;stroke-linecap:round;stroke-width:1.75;"/>
   </g>
   <g id="line2d_12">
    <path clip-path="url(#pca59acb39f)" d="M 84.058636 299.299348 
L 90.824236 299.298208 
L 97.589835 299.296161 
L 104.355434 299.29197 
L 111.121033 299.28196 
L 117.886632 299.268017 
L 124.652231 299.258525 
L 131.417831 299.250367 
L 138.18343 299.234097 
L 144.949029 299.207312 
L 151.714628 299.168601 
L 158.480227 299.113329 
L 165.245826 299.044542 
L 172.011426 298.951144 
L 178.777025 298.82922 
L 185.542624 298.706566 
L 192.308223 298.596063 
L 199.073822 298.484302 
L 205.839421 298.35842 
L 212.605021 298.221376 
L 219.37062 298.084909 
L 226.136219 297.949402 
L 232.901818 297.764755 
L 239.667417 297.481877 
L 246.433017 297.135829 
L 253.198616 296.77688 
L 259.964215 296.421405 
L 266.729814 296.077783 
L 273.495413 295.74771 
L 280.261012 295.352215 
L 287.026612 294.823239 
L 293.792211 294.21631 
L 300.55781 293.637607 
L 307.323409 293.145925 
L 314.089008 292.718175 
L 320.854607 292.290217 
L 327.620207 291.805335 
L 334.385806 291.177896 
L 341.151405 290.407311 
L 347.917004 289.571372 
L 354.682603 288.682351 
L 361.448202 287.867108 
L 368.213802 287.366991 
" style="fill:none;stroke:#42537f;stroke-linecap:round;stroke-width:1.75;"/>
   </g>
   <g id="line2d_13">
    <path clip-path="url(#pca59acb39f)" d="M 84.058636 299.277654 
L 90.824236 299.271555 
L 97.589835 299.257687 
L 104.355434 299.234644 
L 111.121033 299.199391 
L 117.886632 299.142769 
L 124.652231 299.069254 
L 131.417831 298.99719 
L 138.18343 298.918886 
L 144.949029 298.824501 
L 151.714628 298.696602 
L 158.480227 298.530843 
L 165.245826 298.355263 
L 172.011426 298.17904 
L 178.777025 298.006943 
L 185.542624 297.844686 
L 192.308223 297.691283 
L 199.073822 297.548473 
L 205.839421 297.415539 
L 212.605021 297.297274 
L 219.37062 297.176406 
L 226.136219 296.946843 
L 232.901818 296.568274 
L 239.667417 296.239547 
L 246.433017 296.05716 
L 253.198616 295.946765 
L 259.964215 295.857531 
L 266.729814 295.789643 
L 273.495413 295.749142 
L 280.261012 295.721512 
L 287.026612 295.688926 
L 293.792211 295.653651 
L 300.55781 295.631241 
L 307.323409 295.615912 
L 314.089008 295.597308 
L 320.854607 295.577015 
L 327.620207 295.557617 
L 334.385806 295.538723 
L 341.151405 295.518378 
L 347.917004 295.498829 
L 354.682603 295.485323 
L 361.448202 295.477147 
L 368.213802 295.47052 
L 374.979401 295.46385 
L 381.745 295.457776 
L 388.510599 295.453358 
L 395.276198 295.450495 
L 402.041798 295.448537 
L 408.807397 295.447018 
L 415.572996 295.445785 
L 422.338595 295.444867 
L 429.104194 295.443956 
L 435.869793 295.442778 
L 442.635393 295.441457 
L 449.400992 295.440087 
L 456.166591 295.438523 
L 462.93219 295.436436 
L 469.697789 295.433575 
L 476.463388 295.430059 
L 483.228988 295.426095 
L 489.994587 295.421749 
L 496.760186 295.417607 
L 503.525785 295.413618 
L 510.291384 295.409306 
L 517.056983 295.404324 
L 523.822583 295.399026 
L 530.588182 295.393797 
L 537.353781 295.388852 
L 544.11938 295.384535 
L 550.884979 295.38063 
L 557.650579 295.376881 
L 564.416178 295.37335 
L 571.181777 295.370263 
L 577.947376 295.367686 
L 584.712975 295.365091 
L 591.478574 295.362248 
L 598.244174 295.359099 
L 605.009773 295.35556 
L 611.775372 295.352067 
L 618.540971 295.348694 
L 625.30657 295.344815 
L 632.072169 295.34036 
L 638.837769 295.336055 
L 645.603368 295.332274 
L 652.368967 295.328551 
L 659.134566 295.322627 
L 665.900165 295.314783 
L 672.665764 295.309811 
L 679.431364 295.308281 
" style="fill:none;stroke:#ae54a5;stroke-dasharray:6.475,2.8;stroke-dashoffset:0;stroke-width:1.75;"/>
   </g>
   <g id="line2d_14">
    <path clip-path="url(#pca59acb39f)" d="M 84.058636 299.257762 
L 90.824236 299.238744 
L 97.589835 299.205833 
L 104.355434 299.165827 
L 111.121033 299.122882 
L 117.886632 299.073627 
L 124.652231 298.99348 
L 131.417831 298.848778 
L 138.18343 298.624207 
L 144.949029 298.376555 
L 151.714628 298.159832 
L 158.480227 297.894985 
L 165.245826 297.500039 
L 172.011426 297.069766 
L 178.777025 296.52693 
L 185.542624 295.719479 
L 192.308223 294.911176 
L 199.073822 294.025014 
L 205.839421 292.749494 
L 212.605021 291.335852 
L 219.37062 289.827862 
L 226.136219 288.119539 
L 232.901818 286.318072 
L 239.667417 284.411152 
L 246.433017 282.051068 
L 253.198616 279.133101 
L 259.964215 276.083645 
L 266.729814 272.826053 
L 273.495413 269.108107 
L 280.261012 265.066988 
L 287.026612 261.050135 
L 293.792211 257.056531 
L 300.55781 252.152694 
L 307.323409 246.414375 
L 314.089008 241.418172 
L 320.854607 237.329025 
L 327.620207 233.15692 
L 334.385806 229.259153 
L 341.151405 225.922477 
L 347.917004 222.414733 
L 354.682603 218.548197 
L 361.448202 214.475291 
L 368.213802 210.161736 
L 374.979401 204.82252 
L 381.745 195.364824 
L 388.510599 182.160966 
L 395.276198 172.142212 
L 402.041798 165.822439 
L 408.807397 159.517529 
L 415.572996 152.760516 
L 422.338595 148.364509 
L 429.104194 145.951756 
L 435.869793 144.038251 
" style="fill:none;stroke:#0309a6;stroke-linecap:round;stroke-width:1.75;"/>
   </g>
   <g id="line2d_15">
    <path clip-path="url(#pca59acb39f)" d="M 84.058636 299.279284 
L 90.824236 299.272191 
L 97.589835 299.259719 
L 104.355434 299.237511 
L 111.121033 299.207818 
L 117.886632 299.176747 
L 124.652231 299.134349 
L 131.417831 299.054057 
L 138.18343 298.927414 
L 144.949029 298.786931 
L 151.714628 298.647036 
L 158.480227 298.497209 
L 165.245826 298.327429 
L 172.011426 298.101708 
L 178.777025 297.793546 
L 185.542624 297.28997 
L 192.308223 296.498554 
L 199.073822 295.590972 
L 205.839421 294.583208 
L 212.605021 293.313542 
L 219.37062 291.610503 
L 226.136219 289.410045 
L 232.901818 286.79916 
L 239.667417 284.066033 
L 246.433017 281.601605 
L 253.198616 279.110201 
L 259.964215 276.189899 
L 266.729814 272.874757 
L 273.495413 268.962221 
L 280.261012 264.206964 
L 287.026612 259.019828 
L 293.792211 254.155644 
L 300.55781 249.974178 
L 307.323409 246.060921 
L 314.089008 241.880838 
L 320.854607 237.169477 
L 327.620207 232.131783 
L 334.385806 227.372838 
L 341.151405 223.337035 
L 347.917004 219.983899 
L 354.682603 216.860203 
L 361.448202 213.378267 
L 368.213802 209.494184 
L 374.979401 205.772263 
L 381.745 202.651133 
L 388.510599 200.120516 
L 395.276198 197.977911 
L 402.041798 196.172927 
L 408.807397 194.410257 
L 415.572996 192.24955 
L 422.338595 189.79944 
L 429.104194 187.457926 
L 435.869793 185.644619 
L 442.635393 184.603793 
" style="fill:none;stroke:#d8b009;stroke-linecap:round;stroke-width:1.75;"/>
   </g>
   <g id="line2d_16">
    <path clip-path="url(#pca59acb39f)" d="M 84.058636 299.261035 
L 90.824236 299.216044 
L 97.589835 299.13856 
L 104.355434 299.045503 
L 111.121033 298.93149 
L 117.886632 298.775892 
L 124.652231 298.567874 
L 131.417831 298.304982 
L 138.18343 297.952477 
L 144.949029 297.504712 
L 151.714628 297.026887 
L 158.480227 296.491871 
L 165.245826 295.831449 
L 172.011426 295.021484 
L 178.777025 294.011075 
L 185.542624 292.702195 
L 192.308223 291.121492 
L 199.073822 289.463408 
L 205.839421 287.823787 
L 212.605021 286.11214 
L 219.37062 283.825488 
L 226.136219 280.249876 
L 232.901818 276.164242 
L 239.667417 272.266627 
L 246.433017 268.452789 
L 253.198616 264.357237 
L 259.964215 259.568579 
L 266.729814 253.890034 
L 273.495413 247.494058 
L 280.261012 240.910537 
L 287.026612 234.744573 
L 293.792211 229.019087 
L 300.55781 223.306084 
L 307.323409 217.29196 
L 314.089008 210.908134 
L 320.854607 204.422787 
L 327.620207 198.198397 
L 334.385806 192.606994 
L 341.151405 187.681587 
L 347.917004 182.922893 
L 354.682603 177.951235 
L 361.448202 172.852994 
L 368.213802 167.752449 
L 374.979401 162.755783 
L 381.745 158.139824 
L 388.510599 154.054777 
L 395.276198 150.20091 
L 402.041798 146.10537 
L 408.807397 141.70002 
L 415.572996 137.106271 
L 422.338595 132.445229 
L 429.104194 128.124946 
L 435.869793 124.393554 
L 442.635393 121.038986 
L 449.400992 117.644757 
L 456.166591 113.937499 
L 462.93219 110.122561 
L 469.697789 106.63486 
L 476.463388 104.345937 
" style="fill:none;stroke:#1007e1;stroke-linecap:round;stroke-width:1.75;"/>
   </g>
   <g id="line2d_17">
    <path clip-path="url(#pca59acb39f)" d="M 84.058636 299.184711 
L 90.824236 299.116204 
L 97.589835 298.981004 
L 104.355434 298.796073 
L 111.121033 298.570258 
L 117.886632 298.322219 
L 124.652231 298.07244 
L 131.417831 297.795303 
L 138.18343 297.478198 
L 144.949029 297.039886 
L 151.714628 296.370527 
L 158.480227 295.62962 
L 165.245826 294.835237 
L 172.011426 293.865608 
L 178.777025 292.711981 
L 185.542624 291.358041 
L 192.308223 289.720714 
L 199.073822 287.742777 
L 205.839421 285.538201 
L 212.605021 283.276211 
L 219.37062 280.833111 
L 226.136219 277.944092 
L 232.901818 274.562781 
L 239.667417 270.693201 
L 246.433017 266.449335 
L 253.198616 262.145544 
L 259.964215 258.117586 
L 266.729814 254.480259 
L 273.495413 250.941054 
L 280.261012 247.167736 
L 287.026612 243.220827 
L 293.792211 239.324905 
L 300.55781 235.420619 
L 307.323409 231.427265 
L 314.089008 227.681627 
L 320.854607 224.16541 
L 327.620207 220.32936 
L 334.385806 215.878518 
L 341.151405 211.030466 
L 347.917004 206.229966 
L 354.682603 201.859692 
L 361.448202 198.055206 
L 368.213802 194.67008 
L 374.979401 191.28282 
L 381.745 187.40475 
L 388.510599 183.111283 
L 395.276198 179.03865 
L 402.041798 176.32781 
" style="fill:none;stroke:#a67d4c;stroke-linecap:round;stroke-width:1.75;"/>
   </g>
   <g id="line2d_18">
    <path clip-path="url(#pca59acb39f)" d="M 84.058636 299.153676 
L 90.824236 299.127058 
L 97.589835 299.088207 
L 104.355434 299.026695 
L 111.121033 298.942668 
L 117.886632 298.805752 
L 124.652231 298.54448 
L 131.417831 298.162186 
L 138.18343 297.683341 
L 144.949029 297.128942 
L 151.714628 296.540488 
L 158.480227 295.709179 
L 165.245826 294.330185 
L 172.011426 292.66341 
L 178.777025 290.839097 
L 185.542624 288.674076 
L 192.308223 286.182254 
L 199.073822 283.36407 
L 205.839421 279.954697 
L 212.605021 275.963453 
L 219.37062 271.311193 
L 226.136219 266.222698 
L 232.901818 261.422379 
L 239.667417 256.77778 
L 246.433017 251.551132 
L 253.198616 246.133587 
L 259.964215 240.903537 
L 266.729814 235.899752 
L 273.495413 231.270796 
L 280.261012 227.035777 
L 287.026612 223.064537 
L 293.792211 218.821649 
L 300.55781 213.91102 
L 307.323409 207.891178 
L 314.089008 201.423641 
L 320.854607 196.351622 
L 327.620207 192.710032 
L 334.385806 189.603731 
L 341.151405 186.23751 
L 347.917004 182.38393 
L 354.682603 178.72822 
L 361.448202 175.633454 
L 368.213802 172.56347 
L 374.979401 170.300803 
" style="fill:none;stroke:#ea71b3;stroke-linecap:round;stroke-width:1.75;"/>
   </g>
   <g id="line2d_19">
    <path clip-path="url(#pca59acb39f)" d="M 84.058636 299.296954 
L 90.824236 299.295637 
L 97.589835 299.291938 
L 104.355434 299.286243 
L 111.121033 299.280446 
L 117.886632 299.274076 
L 124.652231 299.264741 
L 131.417831 299.252189 
L 138.18343 299.235626 
L 144.949029 299.214413 
L 151.714628 299.190406 
L 158.480227 299.164761 
L 165.245826 299.136701 
L 172.011426 299.10484 
L 178.777025 299.061994 
L 185.542624 298.998565 
L 192.308223 298.917826 
L 199.073822 298.825177 
L 205.839421 298.71861 
L 212.605021 298.592084 
L 219.37062 298.433053 
L 226.136219 298.231965 
L 232.901818 297.98668 
L 239.667417 297.701855 
L 246.433017 297.41213 
L 253.198616 297.120495 
L 259.964215 296.782841 
L 266.729814 296.360261 
L 273.495413 295.85656 
L 280.261012 295.28009 
L 287.026612 294.609552 
L 293.792211 293.846505 
L 300.55781 292.994761 
L 307.323409 292.005002 
L 314.089008 290.852861 
L 320.854607 289.536707 
L 327.620207 288.050755 
L 334.385806 286.390972 
L 341.151405 284.497332 
L 347.917004 282.42229 
L 354.682603 280.837932 
" style="fill:none;stroke:#5feb16;stroke-linecap:round;stroke-width:1.75;"/>
   </g>
   <g id="line2d_20">
    <path clip-path="url(#pca59acb39f)" d="M 84.058636 299.251301 
L 90.824236 299.22903 
L 97.589835 299.186938 
L 104.355434 299.132784 
L 111.121033 299.069373 
L 117.886632 298.995419 
L 124.652231 298.895254 
L 131.417831 298.749697 
L 138.18343 298.549941 
L 144.949029 298.22213 
L 151.714628 297.675952 
L 158.480227 296.963002 
L 165.245826 296.164405 
L 172.011426 294.818787 
L 178.777025 292.605914 
L 185.542624 290.301539 
L 192.308223 288.020661 
L 199.073822 285.43757 
L 205.839421 282.531117 
L 212.605021 278.948316 
L 219.37062 274.57198 
L 226.136219 269.674499 
L 232.901818 264.085781 
L 239.667417 257.715077 
L 246.433017 250.221582 
L 253.198616 241.178296 
L 259.964215 230.228787 
L 266.729814 218.638303 
L 273.495413 207.521594 
L 280.261012 196.968472 
L 287.026612 186.608406 
L 293.792211 175.900201 
L 300.55781 164.792822 
L 307.323409 153.594461 
L 314.089008 142.739839 
L 320.854607 132.577072 
L 327.620207 123.337339 
L 334.385806 115.178213 
L 341.151405 107.643918 
L 347.917004 99.996292 
L 354.682603 92.177026 
L 361.448202 84.725181 
L 368.213802 77.776749 
L 374.979401 71.435215 
L 381.745 65.956741 
L 388.510599 61.187736 
L 395.276198 56.076888 
L 402.041798 49.195683 
L 408.807397 41.069205 
L 415.572996 34.072795 
L 422.338595 28.68248 
L 429.104194 24.538064 
" style="fill:none;stroke:#907eba;stroke-linecap:round;stroke-width:1.75;"/>
   </g>
   <g id="line2d_21">
    <path clip-path="url(#pca59acb39f)" d="M 84.058636 299.247395 
L 90.824236 299.206176 
L 97.589835 299.11669 
L 104.355434 298.953618 
L 111.121033 298.688352 
L 117.886632 298.358924 
L 124.652231 298.039566 
L 131.417831 297.671795 
L 138.18343 297.071076 
L 144.949029 296.061514 
L 151.714628 294.699416 
L 158.480227 293.237932 
L 165.245826 291.765826 
L 172.011426 290.158342 
L 178.777025 288.325883 
L 185.542624 286.390603 
L 192.308223 284.341444 
L 199.073822 282.093713 
L 205.839421 279.667362 
L 212.605021 277.10434 
L 219.37062 274.344538 
L 226.136219 271.288611 
L 232.901818 267.991033 
L 239.667417 264.483122 
L 246.433017 260.689582 
L 253.198616 256.733309 
L 259.964215 252.921553 
L 266.729814 249.380978 
L 273.495413 245.937615 
L 280.261012 242.379739 
L 287.026612 238.726293 
L 293.792211 235.225806 
L 300.55781 232.128055 
L 307.323409 230.060298 
" style="fill:none;stroke:#221cdf;stroke-linecap:round;stroke-width:1.75;"/>
   </g>
   <g id="line2d_22">
    <path clip-path="url(#pca59acb39f)" d="M 84.058636 299.29599 
L 90.824236 299.295689 
L 97.589835 299.295128 
L 104.355434 299.294562 
L 111.121033 299.293808 
L 117.886632 299.292475 
L 124.652231 299.290155 
L 131.417831 299.286459 
L 138.18343 299.281298 
L 144.949029 299.273608 
L 151.714628 299.262535 
L 158.480227 299.247044 
L 165.245826 299.226057 
L 172.011426 299.201724 
L 178.777025 299.166982 
L 185.542624 299.111702 
L 192.308223 299.04171 
L 199.073822 298.959061 
L 205.839421 298.858636 
L 212.605021 298.732992 
L 219.37062 298.561653 
L 226.136219 298.318249 
L 232.901818 297.972857 
L 239.667417 297.404638 
L 246.433017 296.490149 
L 253.198616 295.333516 
L 259.964215 293.986893 
L 266.729814 292.35688 
L 273.495413 290.423452 
L 280.261012 288.216976 
L 287.026612 285.544018 
L 293.792211 282.275819 
L 300.55781 278.614923 
L 307.323409 274.734704 
L 314.089008 270.653268 
L 320.854607 266.191581 
L 327.620207 261.220721 
L 334.385806 255.790373 
L 341.151405 249.855519 
L 347.917004 243.542034 
L 354.682603 237.217035 
L 361.448202 231.12667 
L 368.213802 225.084578 
L 374.979401 218.870332 
L 381.745 212.424157 
L 388.510599 205.79491 
L 395.276198 199.251861 
L 402.041798 193.080957 
L 408.807397 187.330359 
L 415.572996 181.854056 
L 422.338595 176.319023 
L 429.104194 170.472666 
L 435.869793 164.283275 
L 442.635393 157.946545 
L 449.400992 152.098924 
L 456.166591 148.286112 
" style="fill:none;stroke:#7516fd;stroke-dasharray:6.475,2.8;stroke-dashoffset:0;stroke-width:1.75;"/>
   </g>
   <g id="line2d_23">
    <path clip-path="url(#pca59acb39f)" d="M 84.058636 299.284753 
L 90.824236 299.280421 
L 97.589835 299.272906 
L 104.355434 299.263442 
L 111.121033 299.247285 
L 117.886632 299.2207 
L 124.652231 299.185887 
L 131.417831 299.143872 
L 138.18343 299.094909 
L 144.949029 299.040497 
L 151.714628 298.98427 
L 158.480227 298.925202 
L 165.245826 298.858267 
L 172.011426 298.736696 
L 178.777025 298.513919 
L 185.542624 298.273373 
L 192.308223 298.051378 
L 199.073822 297.737195 
L 205.839421 297.305177 
L 212.605021 296.825984 
L 219.37062 296.241497 
L 226.136219 295.382897 
L 232.901818 294.431108 
L 239.667417 293.525887 
L 246.433017 292.484458 
L 253.198616 291.162313 
L 259.964215 289.496607 
L 266.729814 287.360552 
L 273.495413 284.846501 
L 280.261012 282.268524 
L 287.026612 279.699533 
L 293.792211 276.932914 
L 300.55781 273.663981 
L 307.323409 269.776175 
L 314.089008 265.554723 
L 320.854607 261.26317 
L 327.620207 256.801538 
L 334.385806 252.1547 
L 341.151405 247.807122 
L 347.917004 243.518984 
L 354.682603 238.698674 
L 361.448202 233.046868 
L 368.213802 226.687886 
L 374.979401 220.741954 
L 381.745 215.557206 
L 388.510599 210.720309 
L 395.276198 205.913745 
L 402.041798 201.135493 
L 408.807397 196.229534 
L 415.572996 190.997893 
L 422.338595 185.83196 
L 429.104194 182.219399 
" style="fill:none;stroke:#89f9c9;stroke-linecap:round;stroke-width:1.75;"/>
   </g>
   <g id="patch_3">
    <path d="M 54.29 313.037412 
L 54.29 10.8 
" style="fill:none;"/>
   </g>
   <g id="patch_4">
    <path d="M 709.2 313.037412 
L 709.2 10.8 
" style="fill:none;"/>
   </g>
   <g id="patch_5">
    <path d="M 54.29 313.037412 
L 709.2 313.037412 
" style="fill:none;"/>
   </g>
   <g id="patch_6">
    <path d="M 54.29 10.8 
L 709.2 10.8 
" style="fill:none;"/>
   </g>
   <g id="legend_1">
    <g id="line2d_24">
     <path d="M 601.051563 23.546875 
L 621.051563 23.546875 
" style="fill:none;stroke:#989173;stroke-linecap:round;stroke-width:1.75;"/>
    </g>
    <g id="line2d_25"/>
    <g id="text_13">
     <!-- Austria -->
     <defs>
      <path d="M 56.984375 0 
L 49.125 20.125 
L 17.78125 20.125 
L 9.859375 0 
L 0.203125 0 
L 28.265625 68.796875 
L 38.875 68.796875 
L 66.5 0 
z
M 37.5 50.09375 
Q 36.71875 52.046875 36 54.046875 
Q 35.296875 56.0625 34.765625 57.6875 
Q 34.234375 59.328125 33.859375 60.421875 
Q 33.5 61.53125 33.453125 61.765625 
Q 33.34375 61.53125 33 60.40625 
Q 32.671875 59.28125 32.109375 57.609375 
Q 31.546875 55.953125 30.828125 53.953125 
Q 30.125 51.953125 29.390625 50 
L 20.609375 27.390625 
L 46.34375 27.390625 
z
" id="LiberationSans-65"/>
     </defs>
     <g style="fill:#262626;" transform="translate(629.051563 27.046875)scale(0.1 -0.1)">
      <use xlink:href="#LiberationSans-65"/>
      <use x="66.699219" xlink:href="#LiberationSans-117"/>
      <use x="122.314453" xlink:href="#LiberationSans-115"/>
      <use x="172.314453" xlink:href="#LiberationSans-116"/>
      <use x="200.097656" xlink:href="#LiberationSans-114"/>
      <use x="233.398438" xlink:href="#LiberationSans-105"/>
      <use x="255.615234" xlink:href="#LiberationSans-97"/>
     </g>
    </g>
    <g id="line2d_26">
     <path d="M 601.051563 37.86875 
L 621.051563 37.86875 
" style="fill:none;stroke:#42537f;stroke-linecap:round;stroke-width:1.75;"/>
    </g>
    <g id="line2d_27"/>
    <g id="text_14">
     <!-- Brazil -->
     <defs>
      <path d="M 61.421875 19.390625 
Q 61.421875 14.15625 59.375 10.46875 
Q 57.328125 6.78125 53.859375 4.46875 
Q 50.390625 2.15625 45.796875 1.078125 
Q 41.21875 0 36.140625 0 
L 8.203125 0 
L 8.203125 68.796875 
L 33.203125 68.796875 
Q 38.921875 68.796875 43.40625 67.84375 
Q 47.90625 66.890625 51.03125 64.84375 
Q 54.15625 62.796875 55.78125 59.640625 
Q 57.421875 56.5 57.421875 52.09375 
Q 57.421875 49.21875 56.609375 46.671875 
Q 55.8125 44.140625 54.171875 42.0625 
Q 52.546875 39.984375 50.078125 38.5 
Q 47.609375 37.015625 44.34375 36.28125 
Q 48.484375 35.796875 51.6875 34.375 
Q 54.890625 32.953125 57.03125 30.75 
Q 59.1875 28.5625 60.296875 25.65625 
Q 61.421875 22.75 61.421875 19.390625 
z
M 48.046875 50.984375 
Q 48.046875 56.546875 44.234375 58.9375 
Q 40.4375 61.328125 33.203125 61.328125 
L 17.53125 61.328125 
L 17.53125 39.546875 
L 33.203125 39.546875 
Q 37.3125 39.546875 40.140625 40.34375 
Q 42.96875 41.15625 44.71875 42.640625 
Q 46.484375 44.140625 47.265625 46.234375 
Q 48.046875 48.34375 48.046875 50.984375 
z
M 52 20.125 
Q 52 23.390625 50.796875 25.6875 
Q 49.609375 27.984375 47.359375 29.4375 
Q 45.125 30.90625 41.96875 31.59375 
Q 38.8125 32.28125 34.90625 32.28125 
L 17.53125 32.28125 
L 17.53125 7.46875 
L 35.640625 7.46875 
Q 39.203125 7.46875 42.203125 8.046875 
Q 45.21875 8.640625 47.390625 10.109375 
Q 49.5625 11.578125 50.78125 14.015625 
Q 52 16.453125 52 20.125 
z
" id="LiberationSans-66"/>
      <path d="M 2.390625 0 
L 2.390625 6.6875 
L 34.671875 46.046875 
L 4.34375 46.046875 
L 4.34375 52.828125 
L 44.578125 52.828125 
L 44.578125 46.140625 
L 12.25 6.78125 
L 46.390625 6.78125 
L 46.390625 0 
z
" id="LiberationSans-122"/>
     </defs>
     <g style="fill:#262626;" transform="translate(629.051563 41.36875)scale(0.1 -0.1)">
      <use xlink:href="#LiberationSans-66"/>
      <use x="66.699219" xlink:href="#LiberationSans-114"/>
      <use x="100" xlink:href="#LiberationSans-97"/>
      <use x="155.615234" xlink:href="#LiberationSans-122"/>
      <use x="205.615234" xlink:href="#LiberationSans-105"/>
      <use x="227.832031" xlink:href="#LiberationSans-108"/>
     </g>
    </g>
    <g id="line2d_28">
     <path d="M 601.051563 52.190625 
L 621.051563 52.190625 
" style="fill:none;stroke:#ae54a5;stroke-dasharray:6.475,2.8;stroke-dashoffset:0;stroke-width:1.75;"/>
    </g>
    <g id="line2d_29"/>
    <g id="text_15">
     <!-- China -->
     <defs>
      <path d="M 38.671875 62.203125 
Q 32.8125 62.203125 28.296875 60.25 
Q 23.78125 58.296875 20.71875 54.6875 
Q 17.671875 51.078125 16.109375 46 
Q 14.546875 40.921875 14.546875 34.71875 
Q 14.546875 28.515625 16.234375 23.359375 
Q 17.921875 18.21875 21.0625 14.5 
Q 24.21875 10.796875 28.78125 8.734375 
Q 33.34375 6.6875 39.0625 6.6875 
Q 43.0625 6.6875 46.359375 7.734375 
Q 49.65625 8.796875 52.3125 10.6875 
Q 54.984375 12.59375 57.078125 15.203125 
Q 59.1875 17.828125 60.796875 21 
L 68.40625 17.1875 
Q 66.546875 13.328125 63.8125 10 
Q 61.078125 6.6875 57.390625 4.25 
Q 53.71875 1.8125 49.046875 0.40625 
Q 44.390625 -0.984375 38.625 -0.984375 
Q 30.28125 -0.984375 24 1.671875 
Q 17.71875 4.34375 13.5 9.109375 
Q 9.28125 13.875 7.171875 20.40625 
Q 5.078125 26.953125 5.078125 34.71875 
Q 5.078125 42.78125 7.296875 49.265625 
Q 9.515625 55.765625 13.78125 60.328125 
Q 18.0625 64.890625 24.3125 67.359375 
Q 30.5625 69.828125 38.578125 69.828125 
Q 49.5625 69.828125 56.9375 65.53125 
Q 64.3125 61.234375 67.78125 52.78125 
L 58.9375 49.859375 
Q 57.953125 52.296875 56.296875 54.515625 
Q 54.640625 56.734375 52.140625 58.4375 
Q 49.65625 60.15625 46.3125 61.171875 
Q 42.96875 62.203125 38.671875 62.203125 
z
" id="LiberationSans-67"/>
      <path d="M 15.484375 43.796875 
Q 16.9375 46.484375 18.640625 48.359375 
Q 20.359375 50.25 22.40625 51.46875 
Q 24.46875 52.6875 26.90625 53.25 
Q 29.34375 53.8125 32.375 53.8125 
Q 37.453125 53.8125 40.703125 52.4375 
Q 43.953125 51.078125 45.828125 48.609375 
Q 47.703125 46.140625 48.40625 42.71875 
Q 49.125 39.3125 49.125 35.203125 
L 49.125 0 
L 40.28125 0 
L 40.28125 33.5 
Q 40.28125 36.859375 39.859375 39.390625 
Q 39.453125 41.9375 38.28125 43.625 
Q 37.109375 45.3125 34.953125 46.15625 
Q 32.8125 47.015625 29.390625 47.015625 
Q 26.265625 47.015625 23.75 45.890625 
Q 21.234375 44.78125 19.453125 42.71875 
Q 17.671875 40.671875 16.6875 37.734375 
Q 15.71875 34.8125 15.71875 31.15625 
L 15.71875 0 
L 6.9375 0 
L 6.9375 72.46875 
L 15.71875 72.46875 
L 15.71875 53.609375 
Q 15.71875 52 15.671875 50.390625 
Q 15.625 48.78125 15.546875 47.40625 
Q 15.484375 46.046875 15.421875 45.09375 
Q 15.375 44.140625 15.328125 43.796875 
z
" id="LiberationSans-104"/>
     </defs>
     <g style="fill:#262626;" transform="translate(629.051563 55.690625)scale(0.1 -0.1)">
      <use xlink:href="#LiberationSans-67"/>
      <use x="72.216797" xlink:href="#LiberationSans-104"/>
      <use x="127.832031" xlink:href="#LiberationSans-105"/>
      <use x="150.048828" xlink:href="#LiberationSans-110"/>
      <use x="205.664062" xlink:href="#LiberationSans-97"/>
     </g>
    </g>
    <g id="line2d_30">
     <path d="M 601.051563 66.5125 
L 621.051563 66.5125 
" style="fill:none;stroke:#0309a6;stroke-linecap:round;stroke-width:1.75;"/>
    </g>
    <g id="line2d_31"/>
    <g id="text_16">
     <!-- France -->
     <defs>
      <path d="M 17.53125 61.1875 
L 17.53125 35.59375 
L 55.90625 35.59375 
L 55.90625 27.875 
L 17.53125 27.875 
L 17.53125 0 
L 8.203125 0 
L 8.203125 68.796875 
L 57.078125 68.796875 
L 57.078125 61.1875 
z
" id="LiberationSans-70"/>
     </defs>
     <g style="fill:#262626;" transform="translate(629.051563 70.0125)scale(0.1 -0.1)">
      <use xlink:href="#LiberationSans-70"/>
      <use x="61.083984" xlink:href="#LiberationSans-114"/>
      <use x="94.384766" xlink:href="#LiberationSans-97"/>
      <use x="150" xlink:href="#LiberationSans-110"/>
      <use x="205.615234" xlink:href="#LiberationSans-99"/>
      <use x="255.615234" xlink:href="#LiberationSans-101"/>
     </g>
    </g>
    <g id="line2d_32">
     <path d="M 601.051563 80.834375 
L 621.051563 80.834375 
" style="fill:none;stroke:#d8b009;stroke-linecap:round;stroke-width:1.75;"/>
    </g>
    <g id="line2d_33"/>
    <g id="text_17">
     <!-- Germany -->
     <defs>
      <path d="M 5.03125 34.71875 
Q 5.03125 42.78125 7.203125 49.265625 
Q 9.375 55.765625 13.6875 60.328125 
Q 18.015625 64.890625 24.40625 67.359375 
Q 30.8125 69.828125 39.265625 69.828125 
Q 45.609375 69.828125 50.390625 68.703125 
Q 55.171875 67.578125 58.6875 65.46875 
Q 62.203125 63.375 64.640625 60.375 
Q 67.09375 57.375 68.796875 53.609375 
L 59.90625 50.984375 
Q 58.640625 53.515625 56.859375 55.59375 
Q 55.078125 57.671875 52.53125 59.125 
Q 50 60.59375 46.65625 61.390625 
Q 43.3125 62.203125 39.015625 62.203125 
Q 32.765625 62.203125 28.140625 60.25 
Q 23.53125 58.296875 20.5 54.6875 
Q 17.484375 51.078125 15.984375 46 
Q 14.5 40.921875 14.5 34.71875 
Q 14.5 28.515625 16.109375 23.359375 
Q 17.71875 18.21875 20.890625 14.484375 
Q 24.078125 10.75 28.78125 8.671875 
Q 33.5 6.59375 39.703125 6.59375 
Q 43.75 6.59375 47.171875 7.265625 
Q 50.59375 7.953125 53.34375 9.046875 
Q 56.109375 10.15625 58.203125 11.5 
Q 60.296875 12.84375 61.71875 14.203125 
L 61.71875 26.609375 
L 41.15625 26.609375 
L 41.15625 34.421875 
L 70.3125 34.421875 
L 70.3125 10.6875 
Q 68.015625 8.34375 64.90625 6.21875 
Q 61.8125 4.109375 57.953125 2.484375 
Q 54.109375 0.875 49.515625 -0.046875 
Q 44.921875 -0.984375 39.703125 -0.984375 
Q 31 -0.984375 24.5 1.671875 
Q 18.015625 4.34375 13.6875 9.109375 
Q 9.375 13.875 7.203125 20.40625 
Q 5.03125 26.953125 5.03125 34.71875 
z
" id="LiberationSans-71"/>
      <path d="M 37.5 0 
L 37.5 33.5 
Q 37.5 37.359375 37.015625 39.9375 
Q 36.53125 42.53125 35.375 44.109375 
Q 34.234375 45.703125 32.375 46.359375 
Q 30.515625 47.015625 27.828125 47.015625 
Q 25.046875 47.015625 22.796875 45.921875 
Q 20.5625 44.828125 18.96875 42.75 
Q 17.390625 40.671875 16.53125 37.625 
Q 15.671875 34.578125 15.671875 30.609375 
L 15.671875 0 
L 6.9375 0 
L 6.9375 41.546875 
Q 6.9375 43.21875 6.90625 45.046875 
Q 6.890625 46.875 6.828125 48.5 
Q 6.78125 50.140625 6.734375 51.3125 
Q 6.6875 52.484375 6.640625 52.828125 
L 14.9375 52.828125 
Q 14.984375 52.59375 15.03125 51.515625 
Q 15.09375 50.4375 15.15625 49.046875 
Q 15.234375 47.65625 15.28125 46.21875 
Q 15.328125 44.78125 15.328125 43.796875 
L 15.484375 43.796875 
Q 16.65625 46.09375 18.015625 47.953125 
Q 19.390625 49.8125 21.21875 51.09375 
Q 23.046875 52.390625 25.40625 53.09375 
Q 27.78125 53.8125 30.90625 53.8125 
Q 36.921875 53.8125 40.40625 51.421875 
Q 43.890625 49.03125 45.265625 43.796875 
L 45.40625 43.796875 
Q 46.578125 46.09375 48.046875 47.953125 
Q 49.515625 49.8125 51.46875 51.09375 
Q 53.421875 52.390625 55.859375 53.09375 
Q 58.296875 53.8125 61.421875 53.8125 
Q 65.4375 53.8125 68.328125 52.734375 
Q 71.234375 51.65625 73.09375 49.40625 
Q 74.953125 47.171875 75.828125 43.625 
Q 76.703125 40.09375 76.703125 35.203125 
L 76.703125 0 
L 68.015625 0 
L 68.015625 33.5 
Q 68.015625 37.359375 67.53125 39.9375 
Q 67.046875 42.53125 65.890625 44.109375 
Q 64.75 45.703125 62.890625 46.359375 
Q 61.03125 47.015625 58.34375 47.015625 
Q 55.5625 47.015625 53.3125 45.96875 
Q 51.078125 44.921875 49.484375 42.875 
Q 47.90625 40.828125 47.046875 37.75 
Q 46.1875 34.671875 46.1875 30.609375 
L 46.1875 0 
z
" id="LiberationSans-109"/>
     </defs>
     <g style="fill:#262626;" transform="translate(629.051563 84.334375)scale(0.1 -0.1)">
      <use xlink:href="#LiberationSans-71"/>
      <use x="77.783203" xlink:href="#LiberationSans-101"/>
      <use x="133.398438" xlink:href="#LiberationSans-114"/>
      <use x="166.699219" xlink:href="#LiberationSans-109"/>
      <use x="250" xlink:href="#LiberationSans-97"/>
      <use x="305.615234" xlink:href="#LiberationSans-110"/>
      <use x="361.230469" xlink:href="#LiberationSans-121"/>
     </g>
    </g>
    <g id="line2d_34">
     <path d="M 601.051563 95.15625 
L 621.051563 95.15625 
" style="fill:none;stroke:#1007e1;stroke-linecap:round;stroke-width:1.75;"/>
    </g>
    <g id="line2d_35"/>
    <g id="text_18">
     <!-- Italy -->
     <defs>
      <path d="M 9.234375 0 
L 9.234375 68.796875 
L 18.5625 68.796875 
L 18.5625 0 
z
" id="LiberationSans-73"/>
     </defs>
     <g style="fill:#262626;" transform="translate(629.051563 98.65625)scale(0.1 -0.1)">
      <use xlink:href="#LiberationSans-73"/>
      <use x="27.783203" xlink:href="#LiberationSans-116"/>
      <use x="55.566406" xlink:href="#LiberationSans-97"/>
      <use x="111.181641" xlink:href="#LiberationSans-108"/>
      <use x="133.398438" xlink:href="#LiberationSans-121"/>
     </g>
    </g>
    <g id="line2d_36">
     <path d="M 601.051563 109.478125 
L 621.051563 109.478125 
" style="fill:none;stroke:#a67d4c;stroke-linecap:round;stroke-width:1.75;"/>
    </g>
    <g id="line2d_37"/>
    <g id="text_19">
     <!-- Netherlands -->
     <defs>
      <path d="M 52.828125 0 
L 16.015625 58.59375 
Q 16.109375 56.203125 16.265625 53.859375 
Q 16.359375 51.859375 16.421875 49.625 
Q 16.5 47.40625 16.5 45.703125 
L 16.5 0 
L 8.203125 0 
L 8.203125 68.796875 
L 19.046875 68.796875 
L 56.25 9.8125 
Q 56.109375 12.203125 55.953125 14.59375 
Q 55.859375 16.65625 55.765625 19.0625 
Q 55.671875 21.484375 55.671875 23.6875 
L 55.671875 68.796875 
L 64.0625 68.796875 
L 64.0625 0 
z
" id="LiberationSans-78"/>
      <path d="M 40.09375 8.5 
Q 37.640625 3.421875 33.609375 1.21875 
Q 29.59375 -0.984375 23.640625 -0.984375 
Q 13.625 -0.984375 8.90625 5.75 
Q 4.203125 12.5 4.203125 26.171875 
Q 4.203125 53.8125 23.640625 53.8125 
Q 29.640625 53.8125 33.640625 51.609375 
Q 37.640625 49.421875 40.09375 44.625 
L 40.1875 44.625 
Q 40.1875 45.125 40.15625 46.171875 
Q 40.140625 47.21875 40.109375 48.359375 
Q 40.09375 49.515625 40.09375 50.53125 
Q 40.09375 51.5625 40.09375 52 
L 40.09375 72.46875 
L 48.875 72.46875 
L 48.875 10.890625 
Q 48.875 8.984375 48.890625 7.21875 
Q 48.921875 5.46875 48.96875 4 
Q 49.03125 2.546875 49.078125 1.484375 
Q 49.125 0.4375 49.171875 0 
L 40.765625 0 
Q 40.671875 0.484375 40.59375 1.390625 
Q 40.53125 2.296875 40.453125 3.46875 
Q 40.375 4.640625 40.328125 5.9375 
Q 40.28125 7.234375 40.28125 8.5 
z
M 13.421875 26.46875 
Q 13.421875 21 14.109375 17.09375 
Q 14.796875 13.1875 16.3125 10.671875 
Q 17.828125 8.15625 20.171875 6.984375 
Q 22.515625 5.8125 25.875 5.8125 
Q 29.34375 5.8125 32 6.9375 
Q 34.671875 8.0625 36.453125 10.578125 
Q 38.234375 13.09375 39.15625 17.140625 
Q 40.09375 21.1875 40.09375 27.046875 
Q 40.09375 32.671875 39.15625 36.546875 
Q 38.234375 40.4375 36.421875 42.828125 
Q 34.625 45.21875 32 46.265625 
Q 29.390625 47.3125 25.984375 47.3125 
Q 22.75 47.3125 20.40625 46.1875 
Q 18.0625 45.0625 16.5 42.578125 
Q 14.9375 40.09375 14.171875 36.109375 
Q 13.421875 32.125 13.421875 26.46875 
z
" id="LiberationSans-100"/>
     </defs>
     <g style="fill:#262626;" transform="translate(629.051563 112.978125)scale(0.1 -0.1)">
      <use xlink:href="#LiberationSans-78"/>
      <use x="72.216797" xlink:href="#LiberationSans-101"/>
      <use x="127.832031" xlink:href="#LiberationSans-116"/>
      <use x="155.615234" xlink:href="#LiberationSans-104"/>
      <use x="211.230469" xlink:href="#LiberationSans-101"/>
      <use x="266.845703" xlink:href="#LiberationSans-114"/>
      <use x="300.146484" xlink:href="#LiberationSans-108"/>
      <use x="322.363281" xlink:href="#LiberationSans-97"/>
      <use x="377.978516" xlink:href="#LiberationSans-110"/>
      <use x="433.59375" xlink:href="#LiberationSans-100"/>
      <use x="489.208984" xlink:href="#LiberationSans-115"/>
     </g>
    </g>
    <g id="line2d_38">
     <path d="M 601.051563 123.8 
L 621.051563 123.8 
" style="fill:none;stroke:#ea71b3;stroke-linecap:round;stroke-width:1.75;"/>
    </g>
    <g id="line2d_39"/>
    <g id="text_20">
     <!-- Portugal -->
     <defs>
      <path d="M 61.421875 48.09375 
Q 61.421875 43.609375 59.9375 39.71875 
Q 58.453125 35.84375 55.5 32.984375 
Q 52.546875 30.125 48.09375 28.46875 
Q 43.65625 26.8125 37.75 26.8125 
L 17.53125 26.8125 
L 17.53125 0 
L 8.203125 0 
L 8.203125 68.796875 
L 37.15625 68.796875 
Q 43.265625 68.796875 47.796875 67.3125 
Q 52.34375 65.828125 55.375 63.109375 
Q 58.40625 60.40625 59.90625 56.5625 
Q 61.421875 52.734375 61.421875 48.09375 
z
M 52.046875 48 
Q 52.046875 54.546875 48.046875 57.9375 
Q 44.046875 61.328125 36.03125 61.328125 
L 17.53125 61.328125 
L 17.53125 34.1875 
L 36.421875 34.1875 
Q 44.484375 34.1875 48.265625 37.75 
Q 52.046875 41.3125 52.046875 48 
z
" id="LiberationSans-80"/>
      <path d="M 26.765625 -20.75 
Q 22.21875 -20.75 18.703125 -19.8125 
Q 15.1875 -18.890625 12.6875 -17.15625 
Q 10.203125 -15.4375 8.640625 -13.03125 
Q 7.078125 -10.640625 6.390625 -7.71875 
L 15.234375 -6.453125 
Q 16.109375 -10.109375 19.109375 -12.078125 
Q 22.125 -14.0625 27 -14.0625 
Q 29.984375 -14.0625 32.421875 -13.234375 
Q 34.859375 -12.40625 36.5625 -10.5625 
Q 38.28125 -8.734375 39.203125 -5.796875 
Q 40.140625 -2.875 40.140625 1.3125 
L 40.140625 9.8125 
L 40.046875 9.8125 
Q 39.0625 7.8125 37.625 5.984375 
Q 36.1875 4.15625 34.109375 2.734375 
Q 32.03125 1.3125 29.296875 0.453125 
Q 26.5625 -0.390625 23.046875 -0.390625 
Q 18.015625 -0.390625 14.421875 1.296875 
Q 10.84375 2.984375 8.5625 6.34375 
Q 6.296875 9.71875 5.25 14.71875 
Q 4.203125 19.734375 4.203125 26.3125 
Q 4.203125 32.671875 5.25 37.75 
Q 6.296875 42.828125 8.65625 46.359375 
Q 11.03125 49.90625 14.8125 51.78125 
Q 18.609375 53.65625 24.03125 53.65625 
Q 29.640625 53.65625 33.765625 51.09375 
Q 37.890625 48.53125 40.140625 43.796875 
L 40.234375 43.796875 
Q 40.234375 45.015625 40.296875 46.53125 
Q 40.375 48.046875 40.453125 49.390625 
Q 40.53125 50.734375 40.625 51.703125 
Q 40.71875 52.6875 40.828125 52.828125 
L 49.171875 52.828125 
Q 49.125 52.390625 49.078125 51.34375 
Q 49.03125 50.296875 48.96875 48.828125 
Q 48.921875 47.359375 48.890625 45.578125 
Q 48.875 43.796875 48.875 41.890625 
L 48.875 1.515625 
Q 48.875 -9.578125 43.421875 -15.15625 
Q 37.984375 -20.75 26.765625 -20.75 
z
M 40.140625 26.421875 
Q 40.140625 31.9375 38.9375 35.859375 
Q 37.75 39.796875 35.796875 42.28125 
Q 33.84375 44.78125 31.328125 45.953125 
Q 28.8125 47.125 26.171875 47.125 
Q 22.796875 47.125 20.375 45.953125 
Q 17.96875 44.78125 16.375 42.265625 
Q 14.796875 39.75 14.03125 35.8125 
Q 13.28125 31.890625 13.28125 26.421875 
Q 13.28125 20.703125 14.03125 16.8125 
Q 14.796875 12.9375 16.359375 10.546875 
Q 17.921875 8.15625 20.3125 7.125 
Q 22.703125 6.109375 26.03125 6.109375 
Q 28.65625 6.109375 31.171875 7.21875 
Q 33.6875 8.34375 35.6875 10.78125 
Q 37.703125 13.234375 38.921875 17.09375 
Q 40.140625 20.953125 40.140625 26.421875 
z
" id="LiberationSans-103"/>
     </defs>
     <g style="fill:#262626;" transform="translate(629.051563 127.3)scale(0.1 -0.1)">
      <use xlink:href="#LiberationSans-80"/>
      <use x="66.699219" xlink:href="#LiberationSans-111"/>
      <use x="122.314453" xlink:href="#LiberationSans-114"/>
      <use x="155.615234" xlink:href="#LiberationSans-116"/>
      <use x="183.398438" xlink:href="#LiberationSans-117"/>
      <use x="239.013672" xlink:href="#LiberationSans-103"/>
      <use x="294.628906" xlink:href="#LiberationSans-97"/>
      <use x="350.244141" xlink:href="#LiberationSans-108"/>
     </g>
    </g>
    <g id="line2d_40">
     <path d="M 601.051563 138.121875 
L 621.051563 138.121875 
" style="fill:none;stroke:#5feb16;stroke-linecap:round;stroke-width:1.75;"/>
    </g>
    <g id="line2d_41"/>
    <g id="text_21">
     <!-- Russia -->
     <defs>
      <path d="M 56.84375 0 
L 38.96875 28.5625 
L 17.53125 28.5625 
L 17.53125 0 
L 8.203125 0 
L 8.203125 68.796875 
L 40.578125 68.796875 
Q 46.4375 68.796875 50.953125 67.453125 
Q 55.46875 66.109375 58.546875 63.5625 
Q 61.625 61.03125 63.234375 57.375 
Q 64.84375 53.71875 64.84375 49.125 
Q 64.84375 45.84375 63.890625 42.671875 
Q 62.9375 39.5 60.890625 36.859375 
Q 58.84375 34.234375 55.65625 32.328125 
Q 52.484375 30.421875 48.046875 29.640625 
L 67.578125 0 
z
M 55.46875 49.03125 
Q 55.46875 52.15625 54.390625 54.4375 
Q 53.328125 56.734375 51.265625 58.265625 
Q 49.21875 59.8125 46.28125 60.5625 
Q 43.359375 61.328125 39.65625 61.328125 
L 17.53125 61.328125 
L 17.53125 35.9375 
L 40.046875 35.9375 
Q 44.046875 35.9375 46.96875 36.9375 
Q 49.90625 37.9375 51.78125 39.6875 
Q 53.65625 41.453125 54.5625 43.84375 
Q 55.46875 46.234375 55.46875 49.03125 
z
" id="LiberationSans-82"/>
     </defs>
     <g style="fill:#262626;" transform="translate(629.051563 141.621875)scale(0.1 -0.1)">
      <use xlink:href="#LiberationSans-82"/>
      <use x="72.216797" xlink:href="#LiberationSans-117"/>
      <use x="127.832031" xlink:href="#LiberationSans-115"/>
      <use x="177.832031" xlink:href="#LiberationSans-115"/>
      <use x="227.832031" xlink:href="#LiberationSans-105"/>
      <use x="250.048828" xlink:href="#LiberationSans-97"/>
     </g>
    </g>
    <g id="line2d_42">
     <path d="M 601.051563 152.44375 
L 621.051563 152.44375 
" style="fill:none;stroke:#907eba;stroke-linecap:round;stroke-width:1.75;"/>
    </g>
    <g id="line2d_43"/>
    <g id="text_22">
     <!-- Spain -->
     <defs>
      <path d="M 62.109375 19 
Q 62.109375 14.65625 60.421875 10.984375 
Q 58.734375 7.328125 55.21875 4.65625 
Q 51.703125 2 46.359375 0.5 
Q 41.015625 -0.984375 33.6875 -0.984375 
Q 20.84375 -0.984375 13.671875 3.515625 
Q 6.5 8.015625 4.546875 16.5 
L 13.578125 18.3125 
Q 14.265625 15.625 15.671875 13.421875 
Q 17.09375 11.234375 19.5 9.640625 
Q 21.921875 8.0625 25.484375 7.171875 
Q 29.046875 6.296875 34.03125 6.296875 
Q 38.1875 6.296875 41.65625 7 
Q 45.125 7.71875 47.609375 9.171875 
Q 50.09375 10.640625 51.484375 12.953125 
Q 52.875 15.28125 52.875 18.5 
Q 52.875 21.875 51.34375 23.96875 
Q 49.8125 26.078125 47.015625 27.4375 
Q 44.234375 28.8125 40.375 29.734375 
Q 36.53125 30.671875 31.84375 31.734375 
Q 28.953125 32.375 26.046875 33.125 
Q 23.140625 33.890625 20.484375 34.9375 
Q 17.828125 35.984375 15.484375 37.390625 
Q 13.140625 38.8125 11.421875 40.796875 
Q 9.71875 42.78125 8.734375 45.390625 
Q 7.765625 48 7.765625 51.421875 
Q 7.765625 56.296875 9.734375 59.78125 
Q 11.71875 63.28125 15.234375 65.53125 
Q 18.75 67.78125 23.53125 68.796875 
Q 28.328125 69.828125 33.890625 69.828125 
Q 40.28125 69.828125 44.8125 68.828125 
Q 49.359375 67.828125 52.484375 65.8125 
Q 55.609375 63.8125 57.484375 60.859375 
Q 59.375 57.90625 60.5 54 
L 51.3125 52.390625 
Q 50.640625 54.890625 49.34375 56.84375 
Q 48.046875 58.796875 45.9375 60.109375 
Q 43.84375 61.421875 40.84375 62.109375 
Q 37.84375 62.796875 33.796875 62.796875 
Q 29 62.796875 25.75 61.9375 
Q 22.515625 61.078125 20.53125 59.609375 
Q 18.5625 58.15625 17.703125 56.171875 
Q 16.84375 54.203125 16.84375 51.90625 
Q 16.84375 48.828125 18.375 46.84375 
Q 19.921875 44.875 22.5625 43.546875 
Q 25.203125 42.234375 28.65625 41.359375 
Q 32.125 40.484375 36.03125 39.59375 
Q 39.203125 38.875 42.359375 38.109375 
Q 45.515625 37.359375 48.390625 36.296875 
Q 51.265625 35.25 53.78125 33.828125 
Q 56.296875 32.421875 58.15625 30.375 
Q 60.015625 28.328125 61.0625 25.53125 
Q 62.109375 22.75 62.109375 19 
z
" id="LiberationSans-83"/>
     </defs>
     <g style="fill:#262626;" transform="translate(629.051563 155.94375)scale(0.1 -0.1)">
      <use xlink:href="#LiberationSans-83"/>
      <use x="66.699219" xlink:href="#LiberationSans-112"/>
      <use x="122.314453" xlink:href="#LiberationSans-97"/>
      <use x="177.929688" xlink:href="#LiberationSans-105"/>
      <use x="200.146484" xlink:href="#LiberationSans-110"/>
     </g>
    </g>
    <g id="line2d_44">
     <path d="M 601.051563 166.765625 
L 621.051563 166.765625 
" style="fill:none;stroke:#221cdf;stroke-linecap:round;stroke-width:1.75;"/>
    </g>
    <g id="line2d_45"/>
    <g id="text_23">
     <!-- Turkey -->
     <defs>
      <path d="M 39.84375 0 
L 21.96875 24.125 
L 15.53125 18.796875 
L 15.53125 0 
L 6.734375 0 
L 6.734375 72.46875 
L 15.53125 72.46875 
L 15.53125 27.203125 
L 38.71875 52.828125 
L 49.03125 52.828125 
L 27.59375 30.125 
L 50.140625 0 
z
" id="LiberationSans-107"/>
     </defs>
     <g style="fill:#262626;" transform="translate(629.051563 170.265625)scale(0.1 -0.1)">
      <use xlink:href="#LiberationSans-84"/>
      <use x="61.037109" xlink:href="#LiberationSans-117"/>
      <use x="116.652344" xlink:href="#LiberationSans-114"/>
      <use x="149.953125" xlink:href="#LiberationSans-107"/>
      <use x="199.953125" xlink:href="#LiberationSans-101"/>
      <use x="255.568359" xlink:href="#LiberationSans-121"/>
     </g>
    </g>
    <g id="line2d_46">
     <path d="M 601.051563 181.0875 
L 621.051563 181.0875 
" style="fill:none;stroke:#7516fd;stroke-dasharray:6.475,2.8;stroke-dashoffset:0;stroke-width:1.75;"/>
    </g>
    <g id="line2d_47"/>
    <g id="text_24">
     <!-- US -->
     <defs>
      <path d="M 35.6875 -0.984375 
Q 30.03125 -0.984375 24.953125 0.53125 
Q 19.875 2.046875 16.03125 5.25 
Q 12.203125 8.453125 9.953125 13.359375 
Q 7.71875 18.265625 7.71875 25 
L 7.71875 68.796875 
L 17.046875 68.796875 
L 17.046875 25.78125 
Q 17.046875 20.5625 18.4375 16.921875 
Q 19.828125 13.28125 22.3125 10.984375 
Q 24.8125 8.6875 28.203125 7.640625 
Q 31.59375 6.59375 35.640625 6.59375 
Q 39.65625 6.59375 43.21875 7.65625 
Q 46.78125 8.734375 49.46875 11.078125 
Q 52.15625 13.421875 53.6875 17.203125 
Q 55.21875 21 55.21875 26.421875 
L 55.21875 68.796875 
L 64.5 68.796875 
L 64.5 25.875 
Q 64.5 19 62.234375 13.9375 
Q 59.96875 8.890625 56.0625 5.5625 
Q 52.15625 2.25 46.90625 0.625 
Q 41.65625 -0.984375 35.6875 -0.984375 
z
" id="LiberationSans-85"/>
     </defs>
     <g style="fill:#262626;" transform="translate(629.051563 184.5875)scale(0.1 -0.1)">
      <use xlink:href="#LiberationSans-85"/>
      <use x="72.216797" xlink:href="#LiberationSans-83"/>
     </g>
    </g>
    <g id="line2d_48">
     <path d="M 601.051563 195.409375 
L 621.051563 195.409375 
" style="fill:none;stroke:#89f9c9;stroke-linecap:round;stroke-width:1.75;"/>
    </g>
    <g id="line2d_49"/>
    <g id="text_25">
     <!-- United Kingdom -->
     <defs>
      <path d="M 54 0 
L 26.515625 33.203125 
L 17.53125 26.375 
L 17.53125 0 
L 8.203125 0 
L 8.203125 68.796875 
L 17.53125 68.796875 
L 17.53125 34.328125 
L 50.6875 68.796875 
L 61.671875 68.796875 
L 32.375 38.921875 
L 65.578125 0 
z
" id="LiberationSans-75"/>
     </defs>
     <g style="fill:#262626;" transform="translate(629.051563 198.909375)scale(0.1 -0.1)">
      <use xlink:href="#LiberationSans-85"/>
      <use x="72.216797" xlink:href="#LiberationSans-110"/>
      <use x="127.832031" xlink:href="#LiberationSans-105"/>
      <use x="150.048828" xlink:href="#LiberationSans-116"/>
      <use x="177.832031" xlink:href="#LiberationSans-101"/>
      <use x="233.447266" xlink:href="#LiberationSans-100"/>
      <use x="289.0625" xlink:href="#LiberationSans-32"/>
      <use x="316.845703" xlink:href="#LiberationSans-75"/>
      <use x="383.544922" xlink:href="#LiberationSans-105"/>
      <use x="405.761719" xlink:href="#LiberationSans-110"/>
      <use x="461.376953" xlink:href="#LiberationSans-103"/>
      <use x="516.992188" xlink:href="#LiberationSans-100"/>
      <use x="572.607422" xlink:href="#LiberationSans-111"/>
      <use x="628.222656" xlink:href="#LiberationSans-109"/>
     </g>
    </g>
   </g>
  </g>
 </g>
 <defs>
  <clipPath id="pca59acb39f">
   <rect height="302.237412" width="654.91" x="54.29" y="10.8"/>
  </clipPath>
 </defs>
</svg>
