<?xml version="1.0" encoding="utf-8" standalone="no"?>
<!DOCTYPE svg PUBLIC "-//W3C//DTD SVG 1.1//EN"
  "http://www.w3.org/Graphics/SVG/1.1/DTD/svg11.dtd">
<!-- Created with matplotlib (https://matplotlib.org/) -->
<svg height="360pt" version="1.1" viewBox="0 0 720 360" width="720pt" xmlns="http://www.w3.org/2000/svg" xmlns:xlink="http://www.w3.org/1999/xlink">
 <defs>
  <style type="text/css">
*{stroke-linecap:butt;stroke-linejoin:round;}
  </style>
 </defs>
 <g id="figure_1">
  <g id="patch_1">
   <path d="M 0 360 
L 720 360 
L 720 0 
L 0 0 
z
" style="fill:#ffffff;"/>
  </g>
  <g id="axes_1">
   <g id="patch_2">
    <path d="M 54.29 309.219036 
L 709.2 309.219036 
L 709.2 10.8 
L 54.29 10.8 
z
" style="fill:#eaeaf2;"/>
   </g>
   <g id="matplotlib.axis_1">
    <g id="xtick_1">
     <g id="line2d_1"/>
     <g id="text_1">
      <!-- 0 -->
      <defs>
       <path d="M 51.703125 34.421875 
Q 51.703125 24.515625 49.828125 17.75 
Q 47.953125 10.984375 44.703125 6.8125 
Q 41.453125 2.640625 37.0625 0.828125 
Q 32.671875 -0.984375 27.6875 -0.984375 
Q 22.65625 -0.984375 18.3125 0.828125 
Q 13.96875 2.640625 10.765625 6.78125 
Q 7.5625 10.9375 5.734375 17.703125 
Q 3.90625 24.46875 3.90625 34.421875 
Q 3.90625 44.828125 5.734375 51.640625 
Q 7.5625 58.453125 10.78125 62.5 
Q 14.015625 66.546875 18.40625 68.1875 
Q 22.796875 69.828125 27.984375 69.828125 
Q 32.90625 69.828125 37.21875 68.1875 
Q 41.546875 66.546875 44.765625 62.5 
Q 48 58.453125 49.84375 51.640625 
Q 51.703125 44.828125 51.703125 34.421875 
z
M 42.78125 34.421875 
Q 42.78125 42.625 41.796875 48.0625 
Q 40.828125 53.515625 38.921875 56.765625 
Q 37.015625 60.015625 34.25 61.359375 
Q 31.5 62.703125 27.984375 62.703125 
Q 24.265625 62.703125 21.4375 61.328125 
Q 18.609375 59.96875 16.671875 56.71875 
Q 14.75 53.46875 13.765625 48.015625 
Q 12.796875 42.578125 12.796875 34.421875 
Q 12.796875 26.515625 13.796875 21.09375 
Q 14.796875 15.671875 16.71875 12.375 
Q 18.65625 9.078125 21.4375 7.640625 
Q 24.21875 6.203125 27.78125 6.203125 
Q 31.25 6.203125 34.03125 7.640625 
Q 36.8125 9.078125 38.734375 12.375 
Q 40.671875 15.671875 41.71875 21.09375 
Q 42.78125 26.515625 42.78125 34.421875 
z
" id="LiberationSans-48"/>
      </defs>
      <g style="fill:#262626;" transform="translate(83.921082 325.275527)rotate(-45)scale(0.1 -0.1)">
       <use xlink:href="#LiberationSans-48"/>
      </g>
     </g>
    </g>
    <g id="xtick_2">
     <g id="line2d_2"/>
     <g id="text_2">
      <!-- 20 -->
      <defs>
       <path d="M 5.03125 0 
L 5.03125 6.203125 
Q 7.515625 11.921875 11.109375 16.28125 
Q 14.703125 20.65625 18.65625 24.1875 
Q 22.609375 27.734375 26.484375 30.765625 
Q 30.375 33.796875 33.5 36.8125 
Q 36.625 39.84375 38.546875 43.15625 
Q 40.484375 46.484375 40.484375 50.6875 
Q 40.484375 53.609375 39.59375 55.828125 
Q 38.71875 58.0625 37.0625 59.5625 
Q 35.40625 61.078125 33.078125 61.828125 
Q 30.765625 62.59375 27.9375 62.59375 
Q 25.296875 62.59375 22.96875 61.859375 
Q 20.65625 61.140625 18.84375 59.671875 
Q 17.046875 58.203125 15.890625 56.03125 
Q 14.75 53.859375 14.40625 50.984375 
L 5.421875 51.8125 
Q 5.859375 55.515625 7.46875 58.78125 
Q 9.078125 62.0625 11.90625 64.53125 
Q 14.75 67 18.71875 68.40625 
Q 22.703125 69.828125 27.9375 69.828125 
Q 33.0625 69.828125 37.0625 68.609375 
Q 41.0625 67.390625 43.8125 64.984375 
Q 46.578125 62.59375 48.046875 59.078125 
Q 49.515625 55.5625 49.515625 50.984375 
Q 49.515625 47.515625 48.265625 44.390625 
Q 47.015625 41.265625 44.9375 38.421875 
Q 42.875 35.59375 40.140625 32.953125 
Q 37.40625 30.328125 34.421875 27.8125 
Q 31.453125 25.296875 28.421875 22.828125 
Q 25.390625 20.359375 22.71875 17.859375 
Q 20.0625 15.375 17.96875 12.8125 
Q 15.875 10.25 14.703125 7.46875 
L 50.59375 7.46875 
L 50.59375 0 
z
" id="LiberationSans-50"/>
      </defs>
      <g style="fill:#262626;" transform="translate(195.359323 329.207703)rotate(-45)scale(0.1 -0.1)">
       <use xlink:href="#LiberationSans-50"/>
       <use x="55.615234" xlink:href="#LiberationSans-48"/>
      </g>
     </g>
    </g>
    <g id="xtick_3">
     <g id="line2d_3"/>
     <g id="text_3">
      <!-- 40 -->
      <defs>
       <path d="M 43.015625 15.578125 
L 43.015625 0 
L 34.71875 0 
L 34.71875 15.578125 
L 2.296875 15.578125 
L 2.296875 22.40625 
L 33.796875 68.796875 
L 43.015625 68.796875 
L 43.015625 22.515625 
L 52.6875 22.515625 
L 52.6875 15.578125 
z
M 34.71875 58.890625 
Q 34.625 58.640625 34.234375 57.9375 
Q 33.84375 57.234375 33.34375 56.34375 
Q 32.859375 55.46875 32.34375 54.5625 
Q 31.84375 53.65625 31.453125 53.078125 
L 13.8125 27.09375 
Q 13.578125 26.703125 13.109375 26.0625 
Q 12.640625 25.4375 12.15625 24.78125 
Q 11.671875 24.125 11.171875 23.484375 
Q 10.6875 22.859375 10.40625 22.515625 
L 34.71875 22.515625 
z
" id="LiberationSans-52"/>
      </defs>
      <g style="fill:#262626;" transform="translate(308.763652 329.207703)rotate(-45)scale(0.1 -0.1)">
       <use xlink:href="#LiberationSans-52"/>
       <use x="55.615234" xlink:href="#LiberationSans-48"/>
      </g>
     </g>
    </g>
    <g id="xtick_4">
     <g id="line2d_4"/>
     <g id="text_4">
      <!-- 60 -->
      <defs>
       <path d="M 51.21875 22.515625 
Q 51.21875 17.328125 49.78125 13 
Q 48.34375 8.6875 45.53125 5.578125 
Q 42.71875 2.484375 38.5625 0.75 
Q 34.421875 -0.984375 29 -0.984375 
Q 23 -0.984375 18.5 1.3125 
Q 14.015625 3.609375 11.03125 7.921875 
Q 8.0625 12.25 6.5625 18.53125 
Q 5.078125 24.8125 5.078125 32.8125 
Q 5.078125 42 6.765625 48.921875 
Q 8.453125 55.859375 11.625 60.5 
Q 14.796875 65.140625 19.359375 67.484375 
Q 23.921875 69.828125 29.6875 69.828125 
Q 33.203125 69.828125 36.28125 69.09375 
Q 39.359375 68.359375 41.875 66.71875 
Q 44.390625 65.09375 46.28125 62.40625 
Q 48.1875 59.71875 49.3125 55.8125 
L 40.921875 54.296875 
Q 39.546875 58.734375 36.546875 60.71875 
Q 33.546875 62.703125 29.59375 62.703125 
Q 25.984375 62.703125 23.046875 60.984375 
Q 20.125 59.28125 18.0625 55.875 
Q 16.015625 52.484375 14.90625 47.359375 
Q 13.8125 42.234375 13.8125 35.40625 
Q 16.21875 39.84375 20.5625 42.15625 
Q 24.90625 44.484375 30.515625 44.484375 
Q 35.203125 44.484375 39.015625 42.96875 
Q 42.828125 41.453125 45.53125 38.59375 
Q 48.25 35.75 49.734375 31.671875 
Q 51.21875 27.59375 51.21875 22.515625 
z
M 42.28125 22.125 
Q 42.28125 25.6875 41.40625 28.5625 
Q 40.53125 31.453125 38.765625 33.46875 
Q 37.015625 35.5 34.421875 36.59375 
Q 31.84375 37.703125 28.421875 37.703125 
Q 26.03125 37.703125 23.578125 36.984375 
Q 21.140625 36.28125 19.15625 34.6875 
Q 17.1875 33.109375 15.9375 30.515625 
Q 14.703125 27.9375 14.703125 24.21875 
Q 14.703125 20.40625 15.671875 17.109375 
Q 16.65625 13.8125 18.484375 11.375 
Q 20.3125 8.9375 22.890625 7.515625 
Q 25.484375 6.109375 28.71875 6.109375 
Q 31.890625 6.109375 34.40625 7.203125 
Q 36.921875 8.296875 38.671875 10.375 
Q 40.4375 12.453125 41.359375 15.421875 
Q 42.28125 18.40625 42.28125 22.125 
z
" id="LiberationSans-54"/>
      </defs>
      <g style="fill:#262626;" transform="translate(422.167981 329.207703)rotate(-45)scale(0.1 -0.1)">
       <use xlink:href="#LiberationSans-54"/>
       <use x="55.615234" xlink:href="#LiberationSans-48"/>
      </g>
     </g>
    </g>
    <g id="xtick_5">
     <g id="line2d_5"/>
     <g id="text_5">
      <!-- 80 -->
      <defs>
       <path d="M 51.265625 19.1875 
Q 51.265625 14.796875 49.875 11.109375 
Q 48.484375 7.421875 45.625 4.734375 
Q 42.78125 2.046875 38.328125 0.53125 
Q 33.890625 -0.984375 27.828125 -0.984375 
Q 21.78125 -0.984375 17.359375 0.53125 
Q 12.9375 2.046875 10.03125 4.703125 
Q 7.125 7.375 5.734375 11.0625 
Q 4.34375 14.75 4.34375 19.09375 
Q 4.34375 22.859375 5.484375 25.78125 
Q 6.640625 28.71875 8.5625 30.828125 
Q 10.5 32.953125 12.96875 34.25 
Q 15.4375 35.546875 18.0625 35.984375 
L 18.0625 36.1875 
Q 15.1875 36.859375 12.90625 38.375 
Q 10.640625 39.890625 9.09375 42.015625 
Q 7.5625 44.140625 6.75 46.71875 
Q 5.953125 49.3125 5.953125 52.203125 
Q 5.953125 55.8125 7.34375 59 
Q 8.734375 62.203125 11.46875 64.625 
Q 14.203125 67.046875 18.25 68.4375 
Q 22.3125 69.828125 27.640625 69.828125 
Q 33.25 69.828125 37.375 68.40625 
Q 41.5 67 44.203125 64.578125 
Q 46.921875 62.15625 48.234375 58.9375 
Q 49.5625 55.71875 49.5625 52.09375 
Q 49.5625 49.265625 48.75 46.671875 
Q 47.953125 44.09375 46.40625 41.96875 
Q 44.875 39.84375 42.59375 38.34375 
Q 40.328125 36.859375 37.359375 36.28125 
L 37.359375 36.078125 
Q 40.328125 35.59375 42.859375 34.296875 
Q 45.40625 33.015625 47.265625 30.890625 
Q 49.125 28.765625 50.1875 25.828125 
Q 51.265625 22.90625 51.265625 19.1875 
z
M 40.4375 51.609375 
Q 40.4375 54.203125 39.765625 56.34375 
Q 39.109375 58.5 37.59375 60.03125 
Q 36.078125 61.578125 33.640625 62.421875 
Q 31.203125 63.28125 27.640625 63.28125 
Q 24.171875 63.28125 21.78125 62.421875 
Q 19.390625 61.578125 17.84375 60.03125 
Q 16.3125 58.5 15.625 56.34375 
Q 14.9375 54.203125 14.9375 51.609375 
Q 14.9375 49.5625 15.46875 47.40625 
Q 16.015625 45.265625 17.421875 43.5 
Q 18.84375 41.75 21.328125 40.625 
Q 23.828125 39.5 27.734375 39.5 
Q 31.890625 39.5 34.40625 40.625 
Q 36.921875 41.75 38.25 43.5 
Q 39.59375 45.265625 40.015625 47.40625 
Q 40.4375 49.5625 40.4375 51.609375 
z
M 42.140625 20.015625 
Q 42.140625 22.515625 41.453125 24.828125 
Q 40.765625 27.15625 39.109375 28.9375 
Q 37.453125 30.71875 34.640625 31.8125 
Q 31.84375 32.90625 27.640625 32.90625 
Q 23.78125 32.90625 21.0625 31.8125 
Q 18.359375 30.71875 16.671875 28.90625 
Q 14.984375 27.09375 14.203125 24.71875 
Q 13.421875 22.359375 13.421875 19.828125 
Q 13.421875 16.65625 14.203125 14.03125 
Q 14.984375 11.421875 16.6875 9.546875 
Q 18.40625 7.671875 21.1875 6.640625 
Q 23.96875 5.609375 27.9375 5.609375 
Q 31.9375 5.609375 34.671875 6.640625 
Q 37.40625 7.671875 39.0625 9.546875 
Q 40.71875 11.421875 41.421875 14.078125 
Q 42.140625 16.75 42.140625 20.015625 
z
" id="LiberationSans-56"/>
      </defs>
      <g style="fill:#262626;" transform="translate(535.57231 329.207703)rotate(-45)scale(0.1 -0.1)">
       <use xlink:href="#LiberationSans-56"/>
       <use x="55.615234" xlink:href="#LiberationSans-48"/>
      </g>
     </g>
    </g>
    <g id="xtick_6">
     <g id="line2d_6"/>
     <g id="text_6">
      <!-- 100 -->
      <defs>
       <path d="M 7.625 0 
L 7.625 7.46875 
L 25.140625 7.46875 
L 25.140625 60.40625 
L 9.625 49.3125 
L 9.625 57.625 
L 25.875 68.796875 
L 33.984375 68.796875 
L 33.984375 7.46875 
L 50.734375 7.46875 
L 50.734375 0 
z
" id="LiberationSans-49"/>
      </defs>
      <g style="fill:#262626;" transform="translate(647.01055 333.13988)rotate(-45)scale(0.1 -0.1)">
       <use xlink:href="#LiberationSans-49"/>
       <use x="55.615234" xlink:href="#LiberationSans-48"/>
       <use x="111.230469" xlink:href="#LiberationSans-48"/>
      </g>
     </g>
    </g>
    <g id="text_7">
     <!-- Days since case nº20 -->
     <defs>
      <path d="M 67.4375 35.109375 
Q 67.4375 26.515625 64.84375 19.9375 
Q 62.25 13.375 57.75 8.953125 
Q 53.265625 4.546875 47.140625 2.265625 
Q 41.015625 0 33.9375 0 
L 8.203125 0 
L 8.203125 68.796875 
L 30.953125 68.796875 
Q 38.921875 68.796875 45.625 66.8125 
Q 52.34375 64.84375 57.171875 60.71875 
Q 62.015625 56.59375 64.71875 50.234375 
Q 67.4375 43.890625 67.4375 35.109375 
z
M 58.0625 35.109375 
Q 58.0625 42.09375 56.046875 47.046875 
Q 54.046875 52 50.4375 55.171875 
Q 46.828125 58.34375 41.796875 59.828125 
Q 36.765625 61.328125 30.765625 61.328125 
L 17.53125 61.328125 
L 17.53125 7.46875 
L 32.859375 7.46875 
Q 38.28125 7.46875 42.890625 9.21875 
Q 47.515625 10.984375 50.875 14.453125 
Q 54.25 17.921875 56.15625 23.09375 
Q 58.0625 28.265625 58.0625 35.109375 
z
" id="LiberationSans-68"/>
      <path d="M 20.21875 -0.984375 
Q 12.25 -0.984375 8.25 3.21875 
Q 4.25 7.421875 4.25 14.75 
Q 4.25 19.96875 6.21875 23.3125 
Q 8.203125 26.65625 11.390625 28.5625 
Q 14.59375 30.46875 18.6875 31.203125 
Q 22.796875 31.9375 27.046875 32.03125 
L 38.921875 32.234375 
L 38.921875 35.109375 
Q 38.921875 38.375 38.234375 40.671875 
Q 37.546875 42.96875 36.125 44.375 
Q 34.71875 45.796875 32.59375 46.453125 
Q 30.46875 47.125 27.59375 47.125 
Q 25.046875 47.125 23 46.75 
Q 20.953125 46.390625 19.4375 45.4375 
Q 17.921875 44.484375 16.984375 42.84375 
Q 16.0625 41.21875 15.765625 38.71875 
L 6.59375 39.546875 
Q 7.078125 42.671875 8.4375 45.28125 
Q 9.8125 47.90625 12.328125 49.796875 
Q 14.84375 51.703125 18.625 52.75 
Q 22.40625 53.8125 27.78125 53.8125 
Q 37.75 53.8125 42.765625 49.234375 
Q 47.796875 44.671875 47.796875 36.03125 
L 47.796875 13.28125 
Q 47.796875 9.375 48.828125 7.390625 
Q 49.859375 5.421875 52.734375 5.421875 
Q 53.46875 5.421875 54.203125 5.515625 
Q 54.9375 5.609375 55.609375 5.765625 
L 55.609375 0.296875 
Q 53.953125 -0.09375 52.3125 -0.28125 
Q 50.6875 -0.484375 48.828125 -0.484375 
Q 46.34375 -0.484375 44.5625 0.171875 
Q 42.78125 0.828125 41.65625 2.171875 
Q 40.53125 3.515625 39.9375 5.484375 
Q 39.359375 7.46875 39.203125 10.109375 
L 38.921875 10.109375 
Q 37.5 7.5625 35.8125 5.515625 
Q 34.125 3.46875 31.875 2.03125 
Q 29.640625 0.59375 26.78125 -0.1875 
Q 23.921875 -0.984375 20.21875 -0.984375 
z
M 22.21875 5.609375 
Q 26.421875 5.609375 29.5625 7.140625 
Q 32.71875 8.6875 34.78125 11.078125 
Q 36.859375 13.484375 37.890625 16.3125 
Q 38.921875 19.140625 38.921875 21.734375 
L 38.921875 26.078125 
L 29.296875 25.875 
Q 26.078125 25.828125 23.171875 25.40625 
Q 20.265625 25 18.0625 23.78125 
Q 15.875 22.5625 14.578125 20.359375 
Q 13.28125 18.171875 13.28125 14.59375 
Q 13.28125 10.296875 15.59375 7.953125 
Q 17.921875 5.609375 22.21875 5.609375 
z
" id="LiberationSans-97"/>
      <path d="M 29.5 0 
Q 27.640625 -4.78125 25.703125 -8.609375 
Q 23.78125 -12.453125 21.390625 -15.15625 
Q 19 -17.875 16.0625 -19.3125 
Q 13.140625 -20.75 9.328125 -20.75 
Q 7.671875 -20.75 6.25 -20.65625 
Q 4.828125 -20.5625 3.265625 -20.21875 
L 3.265625 -13.625 
Q 4.203125 -13.765625 5.375 -13.84375 
Q 6.546875 -13.921875 7.375 -13.921875 
Q 11.234375 -13.921875 14.546875 -11.03125 
Q 17.875 -8.15625 20.359375 -1.859375 
L 21.1875 0.25 
L 0.25 52.828125 
L 9.625 52.828125 
L 20.75 23.640625 
Q 21.234375 22.3125 21.984375 20.109375 
Q 22.75 17.921875 23.5 15.71875 
Q 24.265625 13.53125 24.84375 11.765625 
Q 25.4375 10.015625 25.53125 9.578125 
Q 25.6875 10.109375 26.25 11.6875 
Q 26.8125 13.28125 27.515625 15.234375 
Q 28.21875 17.1875 28.953125 19.1875 
Q 29.6875 21.1875 30.171875 22.65625 
L 40.53125 52.828125 
L 49.8125 52.828125 
z
" id="LiberationSans-121"/>
      <path d="M 46.390625 14.59375 
Q 46.390625 10.890625 44.9375 7.984375 
Q 43.5 5.078125 40.765625 3.09375 
Q 38.03125 1.125 34.046875 0.0625 
Q 30.078125 -0.984375 24.953125 -0.984375 
Q 20.359375 -0.984375 16.671875 -0.265625 
Q 12.984375 0.4375 10.203125 2 
Q 7.421875 3.5625 5.53125 6.125 
Q 3.65625 8.6875 2.78125 12.40625 
L 10.546875 13.921875 
Q 11.671875 9.671875 15.1875 7.6875 
Q 18.703125 5.71875 24.953125 5.71875 
Q 27.78125 5.71875 30.140625 6.109375 
Q 32.515625 6.5 34.21875 7.453125 
Q 35.9375 8.40625 36.890625 9.984375 
Q 37.84375 11.578125 37.84375 13.921875 
Q 37.84375 16.3125 36.71875 17.84375 
Q 35.59375 19.390625 33.59375 20.40625 
Q 31.59375 21.4375 28.734375 22.1875 
Q 25.875 22.953125 22.46875 23.875 
Q 19.28125 24.703125 16.15625 25.734375 
Q 13.03125 26.765625 10.515625 28.4375 
Q 8.015625 30.125 6.453125 32.609375 
Q 4.890625 35.109375 4.890625 38.875 
Q 4.890625 46.09375 10.03125 49.875 
Q 15.1875 53.65625 25.046875 53.65625 
Q 33.796875 53.65625 38.9375 50.578125 
Q 44.09375 47.515625 45.453125 40.71875 
L 37.546875 39.75 
Q 37.109375 41.796875 35.9375 43.1875 
Q 34.765625 44.578125 33.109375 45.4375 
Q 31.453125 46.296875 29.375 46.65625 
Q 27.296875 47.015625 25.046875 47.015625 
Q 19.09375 47.015625 16.25 45.203125 
Q 13.421875 43.40625 13.421875 39.75 
Q 13.421875 37.59375 14.46875 36.203125 
Q 15.53125 34.8125 17.40625 33.859375 
Q 19.28125 32.90625 21.921875 32.203125 
Q 24.5625 31.5 27.734375 30.71875 
Q 29.828125 30.171875 32.03125 29.5625 
Q 34.234375 28.953125 36.296875 28.09375 
Q 38.375 27.25 40.203125 26.09375 
Q 42.046875 24.953125 43.40625 23.34375 
Q 44.78125 21.734375 45.578125 19.578125 
Q 46.390625 17.4375 46.390625 14.59375 
z
" id="LiberationSans-115"/>
      <path id="LiberationSans-32"/>
      <path d="M 6.6875 64.0625 
L 6.6875 72.46875 
L 15.484375 72.46875 
L 15.484375 64.0625 
z
M 6.6875 0 
L 6.6875 52.828125 
L 15.484375 52.828125 
L 15.484375 0 
z
" id="LiberationSans-105"/>
      <path d="M 40.28125 0 
L 40.28125 33.5 
Q 40.28125 37.359375 39.71875 39.9375 
Q 39.15625 42.53125 37.890625 44.109375 
Q 36.625 45.703125 34.546875 46.359375 
Q 32.46875 47.015625 29.390625 47.015625 
Q 26.265625 47.015625 23.75 45.921875 
Q 21.234375 44.828125 19.453125 42.75 
Q 17.671875 40.671875 16.6875 37.625 
Q 15.71875 34.578125 15.71875 30.609375 
L 15.71875 0 
L 6.9375 0 
L 6.9375 41.546875 
Q 6.9375 43.21875 6.90625 45.046875 
Q 6.890625 46.875 6.828125 48.5 
Q 6.78125 50.140625 6.734375 51.3125 
Q 6.6875 52.484375 6.640625 52.828125 
L 14.9375 52.828125 
Q 14.984375 52.59375 15.03125 51.515625 
Q 15.09375 50.4375 15.15625 49.046875 
Q 15.234375 47.65625 15.28125 46.21875 
Q 15.328125 44.78125 15.328125 43.796875 
L 15.484375 43.796875 
Q 16.75 46.09375 18.265625 47.953125 
Q 19.78125 49.8125 21.78125 51.09375 
Q 23.78125 52.390625 26.359375 53.09375 
Q 28.953125 53.8125 32.375 53.8125 
Q 36.765625 53.8125 39.9375 52.734375 
Q 43.109375 51.65625 45.15625 49.40625 
Q 47.21875 47.171875 48.171875 43.625 
Q 49.125 40.09375 49.125 35.203125 
L 49.125 0 
z
" id="LiberationSans-110"/>
      <path d="M 13.421875 26.65625 
Q 13.421875 22.125 14.078125 18.3125 
Q 14.75 14.5 16.3125 11.734375 
Q 17.875 8.984375 20.4375 7.46875 
Q 23 5.953125 26.765625 5.953125 
Q 31.453125 5.953125 34.59375 8.484375 
Q 37.75 11.03125 38.484375 16.3125 
L 47.359375 15.71875 
Q 46.921875 12.453125 45.453125 9.421875 
Q 44 6.390625 41.484375 4.09375 
Q 38.96875 1.8125 35.34375 0.40625 
Q 31.734375 -0.984375 27 -0.984375 
Q 20.796875 -0.984375 16.453125 1.109375 
Q 12.109375 3.21875 9.390625 6.90625 
Q 6.6875 10.59375 5.46875 15.59375 
Q 4.25 20.609375 4.25 26.46875 
Q 4.25 31.78125 5.125 35.859375 
Q 6 39.9375 7.59375 42.984375 
Q 9.1875 46.046875 11.328125 48.125 
Q 13.484375 50.203125 15.984375 51.4375 
Q 18.5 52.6875 21.28125 53.25 
Q 24.078125 53.8125 26.90625 53.8125 
Q 31.34375 53.8125 34.8125 52.59375 
Q 38.28125 51.375 40.796875 49.25 
Q 43.3125 47.125 44.875 44.234375 
Q 46.4375 41.359375 47.078125 38.03125 
L 38.03125 37.359375 
Q 37.359375 41.75 34.5625 44.328125 
Q 31.78125 46.921875 26.65625 46.921875 
Q 22.90625 46.921875 20.390625 45.671875 
Q 17.875 44.4375 16.3125 41.921875 
Q 14.75 39.40625 14.078125 35.59375 
Q 13.421875 31.78125 13.421875 26.65625 
z
" id="LiberationSans-99"/>
      <path d="M 13.484375 24.5625 
Q 13.484375 20.40625 14.328125 16.90625 
Q 15.1875 13.421875 16.96875 10.90625 
Q 18.75 8.40625 21.53125 7 
Q 24.3125 5.609375 28.21875 5.609375 
Q 33.9375 5.609375 37.375 7.90625 
Q 40.828125 10.203125 42.046875 13.71875 
L 49.75 11.53125 
Q 48.921875 9.328125 47.4375 7.109375 
Q 45.953125 4.890625 43.453125 3.09375 
Q 40.96875 1.3125 37.234375 0.15625 
Q 33.5 -0.984375 28.21875 -0.984375 
Q 16.5 -0.984375 10.375 6 
Q 4.25 12.984375 4.25 26.765625 
Q 4.25 34.1875 6.09375 39.328125 
Q 7.953125 44.484375 11.171875 47.703125 
Q 14.40625 50.921875 18.703125 52.359375 
Q 23 53.8125 27.875 53.8125 
Q 34.515625 53.8125 38.984375 51.65625 
Q 43.453125 49.515625 46.15625 45.71875 
Q 48.875 41.9375 50.015625 36.8125 
Q 51.171875 31.6875 51.171875 25.734375 
L 51.171875 24.5625 
z
M 42.09375 31.296875 
Q 41.359375 39.65625 37.84375 43.484375 
Q 34.328125 47.3125 27.734375 47.3125 
Q 25.53125 47.3125 23.109375 46.609375 
Q 20.703125 45.90625 18.65625 44.09375 
Q 16.609375 42.28125 15.1875 39.171875 
Q 13.765625 36.078125 13.578125 31.296875 
z
" id="LiberationSans-101"/>
      <path d="M 35.296875 50.875 
Q 35.296875 41.703125 31 36.734375 
Q 26.703125 31.78125 18.171875 31.78125 
Q 9.96875 31.78125 5.640625 36.6875 
Q 1.3125 41.609375 1.3125 50.875 
Q 1.3125 55.328125 2.359375 58.859375 
Q 3.421875 62.40625 5.546875 64.859375 
Q 7.671875 67.328125 10.859375 68.625 
Q 14.0625 69.921875 18.359375 69.921875 
Q 22.90625 69.921875 26.09375 68.625 
Q 29.296875 67.328125 31.34375 64.890625 
Q 33.40625 62.453125 34.34375 58.90625 
Q 35.296875 55.375 35.296875 50.875 
z
M 28.03125 50.875 
Q 28.03125 54.9375 27.421875 57.609375 
Q 26.8125 60.296875 25.578125 61.890625 
Q 24.359375 63.484375 22.59375 64.140625 
Q 20.84375 64.796875 18.5 64.796875 
Q 16.15625 64.796875 14.328125 64.140625 
Q 12.5 63.484375 11.25 61.859375 
Q 10.015625 60.25 9.375 57.5625 
Q 8.734375 54.890625 8.734375 50.875 
Q 8.734375 46.78125 9.421875 44.09375 
Q 10.109375 41.40625 11.34375 39.796875 
Q 12.59375 38.1875 14.296875 37.546875 
Q 16.015625 36.921875 18.109375 36.921875 
Q 20.515625 36.921875 22.34375 37.546875 
Q 24.171875 38.1875 25.4375 39.796875 
Q 26.703125 41.40625 27.359375 44.09375 
Q 28.03125 46.78125 28.03125 50.875 
z
" id="LiberationSans-186"/>
     </defs>
     <g style="fill:#262626;" transform="translate(328.989688 346.578689)scale(0.11 -0.11)">
      <use xlink:href="#LiberationSans-68"/>
      <use x="72.216797" xlink:href="#LiberationSans-97"/>
      <use x="127.832031" xlink:href="#LiberationSans-121"/>
      <use x="177.832031" xlink:href="#LiberationSans-115"/>
      <use x="227.832031" xlink:href="#LiberationSans-32"/>
      <use x="255.615234" xlink:href="#LiberationSans-115"/>
      <use x="305.615234" xlink:href="#LiberationSans-105"/>
      <use x="327.832031" xlink:href="#LiberationSans-110"/>
      <use x="383.447266" xlink:href="#LiberationSans-99"/>
      <use x="433.447266" xlink:href="#LiberationSans-101"/>
      <use x="489.0625" xlink:href="#LiberationSans-32"/>
      <use x="516.845703" xlink:href="#LiberationSans-99"/>
      <use x="566.845703" xlink:href="#LiberationSans-97"/>
      <use x="622.460938" xlink:href="#LiberationSans-115"/>
      <use x="672.460938" xlink:href="#LiberationSans-101"/>
      <use x="728.076172" xlink:href="#LiberationSans-32"/>
      <use x="755.859375" xlink:href="#LiberationSans-110"/>
      <use x="811.474609" xlink:href="#LiberationSans-186"/>
      <use x="847.998047" xlink:href="#LiberationSans-50"/>
      <use x="903.613281" xlink:href="#LiberationSans-48"/>
     </g>
    </g>
   </g>
   <g id="matplotlib.axis_2">
    <g id="ytick_1">
     <g id="line2d_7"/>
     <g id="text_8">
      <!-- 0 -->
      <g style="fill:#262626;" transform="translate(41.729063 299.284159)scale(0.1 -0.1)">
       <use xlink:href="#LiberationSans-48"/>
      </g>
     </g>
    </g>
    <g id="ytick_2">
     <g id="line2d_8"/>
     <g id="text_9">
      <!-- 1000 -->
      <g style="fill:#262626;" transform="translate(25.04625 241.053583)scale(0.1 -0.1)">
       <use xlink:href="#LiberationSans-49"/>
       <use x="55.615234" xlink:href="#LiberationSans-48"/>
       <use x="111.230469" xlink:href="#LiberationSans-48"/>
       <use x="166.845703" xlink:href="#LiberationSans-48"/>
      </g>
     </g>
    </g>
    <g id="ytick_3">
     <g id="line2d_9"/>
     <g id="text_10">
      <!-- 2000 -->
      <g style="fill:#262626;" transform="translate(25.04625 182.823006)scale(0.1 -0.1)">
       <use xlink:href="#LiberationSans-50"/>
       <use x="55.615234" xlink:href="#LiberationSans-48"/>
       <use x="111.230469" xlink:href="#LiberationSans-48"/>
       <use x="166.845703" xlink:href="#LiberationSans-48"/>
      </g>
     </g>
    </g>
    <g id="ytick_4">
     <g id="line2d_10"/>
     <g id="text_11">
      <!-- 3000 -->
      <defs>
       <path d="M 51.21875 19 
Q 51.21875 14.265625 49.671875 10.546875 
Q 48.140625 6.84375 45.1875 4.265625 
Q 42.234375 1.703125 37.859375 0.359375 
Q 33.5 -0.984375 27.875 -0.984375 
Q 21.484375 -0.984375 17.109375 0.609375 
Q 12.75 2.203125 9.90625 4.8125 
Q 7.078125 7.421875 5.65625 10.765625 
Q 4.25 14.109375 3.8125 17.671875 
L 12.890625 18.5 
Q 13.28125 15.765625 14.328125 13.515625 
Q 15.375 11.28125 17.1875 9.671875 
Q 19 8.0625 21.625 7.171875 
Q 24.265625 6.296875 27.875 6.296875 
Q 34.515625 6.296875 38.296875 9.5625 
Q 42.09375 12.84375 42.09375 19.28125 
Q 42.09375 23.09375 40.40625 25.40625 
Q 38.71875 27.734375 36.203125 29.03125 
Q 33.6875 30.328125 30.734375 30.765625 
Q 27.78125 31.203125 25.296875 31.203125 
L 20.3125 31.203125 
L 20.3125 38.8125 
L 25.09375 38.8125 
Q 27.59375 38.8125 30.265625 39.328125 
Q 32.953125 39.84375 35.171875 41.1875 
Q 37.40625 42.53125 38.84375 44.828125 
Q 40.28125 47.125 40.28125 50.6875 
Q 40.28125 56.203125 37.03125 59.390625 
Q 33.796875 62.59375 27.390625 62.59375 
Q 21.578125 62.59375 17.984375 59.609375 
Q 14.40625 56.640625 13.8125 51.21875 
L 4.984375 51.90625 
Q 5.515625 56.453125 7.46875 59.8125 
Q 9.421875 63.1875 12.421875 65.40625 
Q 15.4375 67.625 19.28125 68.71875 
Q 23.140625 69.828125 27.484375 69.828125 
Q 33.25 69.828125 37.390625 68.375 
Q 41.546875 66.9375 44.1875 64.46875 
Q 46.828125 62.015625 48.0625 58.6875 
Q 49.3125 55.375 49.3125 51.609375 
Q 49.3125 48.578125 48.484375 45.9375 
Q 47.65625 43.3125 45.890625 41.203125 
Q 44.140625 39.109375 41.421875 37.59375 
Q 38.71875 36.078125 34.90625 35.296875 
L 34.90625 35.109375 
Q 39.0625 34.671875 42.140625 33.21875 
Q 45.21875 31.78125 47.21875 29.625 
Q 49.21875 27.484375 50.21875 24.75 
Q 51.21875 22.015625 51.21875 19 
z
" id="LiberationSans-51"/>
      </defs>
      <g style="fill:#262626;" transform="translate(25.04625 124.59243)scale(0.1 -0.1)">
       <use xlink:href="#LiberationSans-51"/>
       <use x="55.615234" xlink:href="#LiberationSans-48"/>
       <use x="111.230469" xlink:href="#LiberationSans-48"/>
       <use x="166.845703" xlink:href="#LiberationSans-48"/>
      </g>
     </g>
    </g>
    <g id="ytick_5">
     <g id="line2d_11"/>
     <g id="text_12">
      <!-- 4000 -->
      <g style="fill:#262626;" transform="translate(25.04625 66.361854)scale(0.1 -0.1)">
       <use xlink:href="#LiberationSans-52"/>
       <use x="55.615234" xlink:href="#LiberationSans-48"/>
       <use x="111.230469" xlink:href="#LiberationSans-48"/>
       <use x="166.845703" xlink:href="#LiberationSans-48"/>
      </g>
     </g>
    </g>
    <g id="text_13">
     <!-- Total infections over 1M population -->
     <defs>
      <path d="M 35.15625 61.1875 
L 35.15625 0 
L 25.875 0 
L 25.875 61.1875 
L 2.25 61.1875 
L 2.25 68.796875 
L 58.796875 68.796875 
L 58.796875 61.1875 
z
" id="LiberationSans-84"/>
      <path d="M 51.421875 26.46875 
Q 51.421875 12.59375 45.3125 5.796875 
Q 39.203125 -0.984375 27.59375 -0.984375 
Q 22.078125 -0.984375 17.71875 0.671875 
Q 13.375 2.34375 10.375 5.765625 
Q 7.375 9.1875 5.78125 14.328125 
Q 4.203125 19.484375 4.203125 26.46875 
Q 4.203125 53.8125 27.875 53.8125 
Q 34.03125 53.8125 38.5 52.09375 
Q 42.96875 50.390625 45.828125 46.96875 
Q 48.6875 43.5625 50.046875 38.421875 
Q 51.421875 33.296875 51.421875 26.46875 
z
M 42.1875 26.46875 
Q 42.1875 32.625 41.234375 36.625 
Q 40.28125 40.625 38.453125 43.015625 
Q 36.625 45.40625 33.984375 46.359375 
Q 31.34375 47.3125 28.03125 47.3125 
Q 24.65625 47.3125 21.9375 46.3125 
Q 19.234375 45.3125 17.328125 42.890625 
Q 15.4375 40.484375 14.421875 36.46875 
Q 13.421875 32.46875 13.421875 26.46875 
Q 13.421875 20.3125 14.5 16.28125 
Q 15.578125 12.25 17.453125 9.859375 
Q 19.34375 7.46875 21.90625 6.484375 
Q 24.46875 5.515625 27.484375 5.515625 
Q 30.859375 5.515625 33.59375 6.46875 
Q 36.328125 7.421875 38.234375 9.8125 
Q 40.140625 12.203125 41.15625 16.25 
Q 42.1875 20.3125 42.1875 26.46875 
z
" id="LiberationSans-111"/>
      <path d="M 27.046875 0.390625 
Q 25.046875 -0.140625 22.96875 -0.453125 
Q 20.90625 -0.78125 18.171875 -0.78125 
Q 7.625 -0.78125 7.625 11.1875 
L 7.625 46.4375 
L 1.515625 46.4375 
L 1.515625 52.828125 
L 7.953125 52.828125 
L 10.546875 64.65625 
L 16.40625 64.65625 
L 16.40625 52.828125 
L 26.171875 52.828125 
L 26.171875 46.4375 
L 16.40625 46.4375 
L 16.40625 13.09375 
Q 16.40625 9.28125 17.640625 7.734375 
Q 18.890625 6.203125 21.96875 6.203125 
Q 23.25 6.203125 24.4375 6.390625 
Q 25.640625 6.59375 27.046875 6.890625 
z
" id="LiberationSans-116"/>
      <path d="M 6.734375 0 
L 6.734375 72.46875 
L 15.53125 72.46875 
L 15.53125 0 
z
" id="LiberationSans-108"/>
      <path d="M 17.625 46.4375 
L 17.625 0 
L 8.84375 0 
L 8.84375 46.4375 
L 1.421875 46.4375 
L 1.421875 52.828125 
L 8.84375 52.828125 
L 8.84375 58.796875 
Q 8.84375 61.671875 9.375 64.140625 
Q 9.90625 66.609375 11.34375 68.4375 
Q 12.796875 70.265625 15.28125 71.3125 
Q 17.78125 72.359375 21.734375 72.359375 
Q 23.296875 72.359375 24.96875 72.21875 
Q 26.65625 72.078125 27.9375 71.78125 
L 27.9375 65.09375 
Q 27.09375 65.234375 26 65.359375 
Q 24.90625 65.484375 24.03125 65.484375 
Q 22.078125 65.484375 20.828125 64.9375 
Q 19.578125 64.40625 18.875 63.40625 
Q 18.171875 62.40625 17.890625 60.9375 
Q 17.625 59.46875 17.625 57.5625 
L 17.625 52.828125 
L 27.9375 52.828125 
L 27.9375 46.4375 
z
" id="LiberationSans-102"/>
      <path d="M 29.9375 0 
L 19.53125 0 
L 0.34375 52.828125 
L 9.71875 52.828125 
L 21.34375 18.453125 
Q 21.6875 17.390625 22.140625 15.84375 
Q 22.609375 14.3125 23.09375 12.640625 
Q 23.578125 10.984375 24 9.4375 
Q 24.421875 7.90625 24.703125 6.890625 
Q 25 7.90625 25.453125 9.4375 
Q 25.921875 10.984375 26.40625 12.59375 
Q 26.90625 14.203125 27.421875 15.734375 
Q 27.9375 17.28125 28.328125 18.359375 
L 40.328125 52.828125 
L 49.65625 52.828125 
z
" id="LiberationSans-118"/>
      <path d="M 6.9375 0 
L 6.9375 40.53125 
Q 6.9375 42.1875 6.90625 43.921875 
Q 6.890625 45.65625 6.828125 47.265625 
Q 6.78125 48.875 6.734375 50.28125 
Q 6.6875 51.703125 6.640625 52.828125 
L 14.9375 52.828125 
Q 14.984375 51.703125 15.0625 50.265625 
Q 15.140625 48.828125 15.203125 47.3125 
Q 15.28125 45.796875 15.296875 44.40625 
Q 15.328125 43.015625 15.328125 42.046875 
L 15.53125 42.046875 
Q 16.453125 45.0625 17.5 47.28125 
Q 18.5625 49.515625 19.96875 50.953125 
Q 21.390625 52.390625 23.34375 53.09375 
Q 25.296875 53.8125 28.078125 53.8125 
Q 29.15625 53.8125 30.125 53.640625 
Q 31.109375 53.46875 31.640625 53.328125 
L 31.640625 45.265625 
Q 30.765625 45.515625 29.59375 45.625 
Q 28.421875 45.75 26.953125 45.75 
Q 23.921875 45.75 21.796875 44.375 
Q 19.671875 43.015625 18.328125 40.59375 
Q 17 38.1875 16.359375 34.84375 
Q 15.71875 31.5 15.71875 27.546875 
L 15.71875 0 
z
" id="LiberationSans-114"/>
      <path d="M 66.703125 0 
L 66.703125 45.90625 
Q 66.703125 48.390625 66.75 50.96875 
Q 66.796875 53.5625 66.890625 55.71875 
Q 67 58.203125 67.140625 60.546875 
Q 66.453125 58.0625 65.71875 55.609375 
Q 65.09375 53.515625 64.328125 51.140625 
Q 63.578125 48.78125 62.84375 46.875 
L 45.0625 0 
L 38.53125 0 
L 20.515625 46.875 
Q 20.21875 47.609375 19.890625 48.578125 
Q 19.578125 49.5625 19.203125 50.65625 
Q 18.84375 51.765625 18.46875 52.90625 
Q 18.109375 54.046875 17.78125 55.171875 
Q 16.9375 57.765625 16.15625 60.546875 
Q 16.21875 57.8125 16.3125 55.125 
Q 16.40625 52.828125 16.453125 50.3125 
Q 16.5 47.796875 16.5 45.90625 
L 16.5 0 
L 8.203125 0 
L 8.203125 68.796875 
L 20.453125 68.796875 
L 38.765625 21.09375 
Q 39.109375 20.125 39.59375 18.578125 
Q 40.09375 17.046875 40.53125 15.421875 
Q 40.96875 13.8125 41.328125 12.375 
Q 41.703125 10.9375 41.84375 10.15625 
Q 42 10.9375 42.390625 12.40625 
Q 42.78125 13.875 43.28125 15.484375 
Q 43.796875 17.09375 44.28125 18.609375 
Q 44.78125 20.125 45.171875 21.09375 
L 63.140625 68.796875 
L 75.09375 68.796875 
L 75.09375 0 
z
" id="LiberationSans-77"/>
      <path d="M 51.421875 26.65625 
Q 51.421875 20.65625 50.4375 15.578125 
Q 49.46875 10.5 47.1875 6.828125 
Q 44.921875 3.171875 41.1875 1.09375 
Q 37.453125 -0.984375 31.984375 -0.984375 
Q 26.3125 -0.984375 22.0625 1.171875 
Q 17.828125 3.328125 15.578125 8.203125 
L 15.328125 8.203125 
Q 15.375 8.109375 15.40625 7.328125 
Q 15.4375 6.546875 15.453125 5.375 
Q 15.484375 4.203125 15.5 2.75 
Q 15.53125 1.3125 15.53125 -0.09375 
L 15.53125 -20.75 
L 6.734375 -20.75 
L 6.734375 42.046875 
Q 6.734375 43.953125 6.703125 45.703125 
Q 6.6875 47.46875 6.640625 48.90625 
Q 6.59375 50.34375 6.546875 51.359375 
Q 6.5 52.390625 6.453125 52.828125 
L 14.9375 52.828125 
Q 14.984375 52.6875 15.0625 51.796875 
Q 15.140625 50.921875 15.203125 49.671875 
Q 15.28125 48.4375 15.359375 47.015625 
Q 15.4375 45.609375 15.4375 44.34375 
L 15.625 44.34375 
Q 16.84375 46.875 18.40625 48.65625 
Q 19.96875 50.4375 21.96875 51.578125 
Q 23.96875 52.734375 26.4375 53.25 
Q 28.90625 53.765625 31.984375 53.765625 
Q 37.453125 53.765625 41.1875 51.8125 
Q 44.921875 49.859375 47.1875 46.3125 
Q 49.46875 42.78125 50.4375 37.765625 
Q 51.421875 32.765625 51.421875 26.65625 
z
M 42.1875 26.46875 
Q 42.1875 31.34375 41.59375 35.15625 
Q 41.015625 38.96875 39.578125 41.59375 
Q 38.140625 44.234375 35.734375 45.59375 
Q 33.34375 46.96875 29.734375 46.96875 
Q 26.8125 46.96875 24.21875 46.140625 
Q 21.625 45.3125 19.703125 42.96875 
Q 17.78125 40.625 16.65625 36.5 
Q 15.53125 32.375 15.53125 25.78125 
Q 15.53125 20.171875 16.453125 16.28125 
Q 17.390625 12.40625 19.171875 10.015625 
Q 20.953125 7.625 23.578125 6.5625 
Q 26.21875 5.515625 29.640625 5.515625 
Q 33.296875 5.515625 35.71875 6.921875 
Q 38.140625 8.34375 39.578125 11.03125 
Q 41.015625 13.71875 41.59375 17.59375 
Q 42.1875 21.484375 42.1875 26.46875 
z
" id="LiberationSans-112"/>
      <path d="M 15.328125 52.828125 
L 15.328125 19.34375 
Q 15.328125 15.484375 15.890625 12.890625 
Q 16.453125 10.296875 17.71875 8.703125 
Q 19 7.125 21.0625 6.46875 
Q 23.140625 5.8125 26.21875 5.8125 
Q 29.34375 5.8125 31.859375 6.90625 
Q 34.375 8.015625 36.15625 10.078125 
Q 37.9375 12.15625 38.90625 15.203125 
Q 39.890625 18.265625 39.890625 22.21875 
L 39.890625 52.828125 
L 48.6875 52.828125 
L 48.6875 11.28125 
Q 48.6875 9.625 48.703125 7.78125 
Q 48.734375 5.953125 48.78125 4.3125 
Q 48.828125 2.6875 48.875 1.515625 
Q 48.921875 0.34375 48.96875 0 
L 40.671875 0 
Q 40.625 0.25 40.578125 1.3125 
Q 40.53125 2.390625 40.453125 3.78125 
Q 40.375 5.171875 40.328125 6.609375 
Q 40.28125 8.0625 40.28125 9.03125 
L 40.140625 9.03125 
Q 38.875 6.734375 37.359375 4.875 
Q 35.84375 3.03125 33.84375 1.734375 
Q 31.84375 0.4375 29.25 -0.265625 
Q 26.65625 -0.984375 23.25 -0.984375 
Q 18.84375 -0.984375 15.671875 0.09375 
Q 12.5 1.171875 10.453125 3.421875 
Q 8.40625 5.671875 7.453125 9.1875 
Q 6.5 12.703125 6.5 17.625 
L 6.5 52.828125 
z
" id="LiberationSans-117"/>
     </defs>
     <g style="fill:#262626;" transform="translate(18.76375 245.292174)rotate(-90)scale(0.11 -0.11)">
      <use xlink:href="#LiberationSans-84"/>
      <use x="60.912109" xlink:href="#LiberationSans-111"/>
      <use x="116.527344" xlink:href="#LiberationSans-116"/>
      <use x="144.310547" xlink:href="#LiberationSans-97"/>
      <use x="199.925781" xlink:href="#LiberationSans-108"/>
      <use x="222.142578" xlink:href="#LiberationSans-32"/>
      <use x="249.925781" xlink:href="#LiberationSans-105"/>
      <use x="272.142578" xlink:href="#LiberationSans-110"/>
      <use x="327.757812" xlink:href="#LiberationSans-102"/>
      <use x="355.541016" xlink:href="#LiberationSans-101"/>
      <use x="411.15625" xlink:href="#LiberationSans-99"/>
      <use x="461.15625" xlink:href="#LiberationSans-116"/>
      <use x="488.939453" xlink:href="#LiberationSans-105"/>
      <use x="511.15625" xlink:href="#LiberationSans-111"/>
      <use x="566.771484" xlink:href="#LiberationSans-110"/>
      <use x="622.386719" xlink:href="#LiberationSans-115"/>
      <use x="672.386719" xlink:href="#LiberationSans-32"/>
      <use x="700.169922" xlink:href="#LiberationSans-111"/>
      <use x="755.785156" xlink:href="#LiberationSans-118"/>
      <use x="805.785156" xlink:href="#LiberationSans-101"/>
      <use x="861.400391" xlink:href="#LiberationSans-114"/>
      <use x="894.701172" xlink:href="#LiberationSans-32"/>
      <use x="922.484375" xlink:href="#LiberationSans-49"/>
      <use x="978.099609" xlink:href="#LiberationSans-77"/>
      <use x="1061.400391" xlink:href="#LiberationSans-32"/>
      <use x="1089.183594" xlink:href="#LiberationSans-112"/>
      <use x="1144.798828" xlink:href="#LiberationSans-111"/>
      <use x="1200.414062" xlink:href="#LiberationSans-112"/>
      <use x="1256.029297" xlink:href="#LiberationSans-117"/>
      <use x="1311.644531" xlink:href="#LiberationSans-108"/>
      <use x="1333.861328" xlink:href="#LiberationSans-97"/>
      <use x="1389.476562" xlink:href="#LiberationSans-116"/>
      <use x="1417.259766" xlink:href="#LiberationSans-105"/>
      <use x="1439.476562" xlink:href="#LiberationSans-111"/>
      <use x="1495.091797" xlink:href="#LiberationSans-110"/>
     </g>
    </g>
   </g>
   <g id="line2d_12">
    <path clip-path="url(#p92e175f244)" d="M 84.058636 295.497692 
L 89.728853 295.454961 
L 95.399069 295.379161 
L 101.069286 295.272209 
L 106.739502 295.131041 
L 112.409719 294.95831 
L 118.079935 294.73223 
L 123.750152 294.416968 
L 129.420368 293.990582 
L 135.090584 293.339339 
L 140.760801 292.374527 
L 146.431017 291.239215 
L 152.101234 290.010779 
L 157.77145 288.583057 
L 163.441667 286.782563 
L 169.111883 284.658833 
L 174.7821 282.300206 
L 180.452316 279.624453 
L 186.122532 276.195054 
L 191.792749 271.624597 
L 197.462965 266.445893 
L 203.133182 261.624095 
L 208.803398 256.793285 
L 214.473615 251.083177 
L 220.143831 245.680818 
L 225.814048 241.250477 
L 231.484264 237.061113 
L 237.154481 232.708491 
L 242.824697 228.691246 
L 248.494913 225.267782 
L 254.16513 222.363383 
L 259.835346 219.935032 
L 265.505563 217.933236 
L 271.175779 216.134407 
L 276.845996 214.288559 
L 282.516212 212.290107 
L 288.186429 210.249565 
L 293.856645 208.250746 
L 299.526861 206.377859 
L 305.197078 204.841675 
L 310.867294 203.732231 
L 316.537511 202.819742 
L 322.207727 201.892978 
L 327.877944 201.001041 
L 333.54816 200.168367 
L 339.218377 199.436112 
L 344.888593 198.849348 
L 350.55881 198.373112 
L 356.229026 197.951291 
L 361.899242 197.529722 
L 367.569459 197.09958 
L 373.239675 196.644613 
L 378.909892 196.167154 
L 384.580108 195.682246 
L 390.250325 195.220414 
L 395.920541 194.788742 
L 401.590758 194.37014 
L 407.260974 193.99046 
L 412.93119 193.618884 
L 418.601407 193.25474 
L 424.271623 192.966537 
L 429.94184 192.741399 
L 435.612056 192.54553 
L 441.282273 192.362791 
L 446.952489 192.230211 
" style="fill:none;stroke:#989173;stroke-linecap:round;stroke-width:1.75;"/>
   </g>
   <g id="line2d_13">
    <path clip-path="url(#p92e175f244)" d="M 84.058636 295.654534 
L 89.728853 295.65353 
L 95.399069 295.651728 
L 101.069286 295.648037 
L 106.739502 295.639223 
L 112.409719 295.626946 
L 118.079935 295.618587 
L 123.750152 295.611404 
L 129.420368 295.597077 
L 135.090584 295.573492 
L 140.760801 295.539405 
L 146.431017 295.490735 
L 152.101234 295.430165 
L 157.77145 295.347923 
L 163.441667 295.240563 
L 169.111883 295.13256 
L 174.7821 295.035257 
L 180.452316 294.936845 
L 186.122532 294.826 
L 191.792749 294.705327 
L 197.462965 294.585161 
L 203.133182 294.46584 
L 208.803398 294.303249 
L 214.473615 294.054161 
L 220.143831 293.749448 
L 225.814048 293.433376 
L 231.484264 293.120363 
L 237.154481 292.817787 
L 242.824697 292.527141 
L 248.494913 292.178888 
L 254.16513 291.713099 
L 259.835346 291.178668 
L 265.505563 290.669092 
L 271.175779 290.236142 
L 276.845996 289.859487 
L 282.516212 289.482648 
L 288.186429 289.055685 
L 293.856645 288.503195 
L 299.526861 287.824657 
L 305.197078 287.088493 
L 310.867294 286.302926 
L 316.537511 285.548079 
L 322.207727 284.89444 
L 327.877944 284.275609 
L 333.54816 283.591248 
L 339.218377 282.746683 
L 344.888593 281.698323 
L 350.55881 280.502802 
L 356.229026 279.250578 
L 361.899242 278.02086 
L 367.569459 276.701928 
L 373.239675 275.14794 
L 378.909892 273.383074 
L 384.580108 271.603921 
L 390.250325 270.026453 
L 395.920541 268.593237 
L 401.590758 267.07816 
L 407.260974 265.296035 
L 412.93119 263.262883 
L 418.601407 261.630371 
" style="fill:none;stroke:#42537f;stroke-linecap:round;stroke-width:1.75;"/>
   </g>
   <g id="line2d_14">
    <path clip-path="url(#p92e175f244)" d="M 84.058636 295.635431 
L 89.728853 295.630061 
L 95.399069 295.617849 
L 101.069286 295.597559 
L 106.739502 295.566516 
L 112.409719 295.516659 
L 118.079935 295.451925 
L 123.750152 295.388469 
L 129.420368 295.319519 
L 135.090584 295.236408 
L 140.760801 295.123786 
L 146.431017 294.977827 
L 152.101234 294.82322 
L 157.77145 294.668047 
L 163.441667 294.516507 
L 169.111883 294.373632 
L 174.7821 294.238553 
L 180.452316 294.112802 
L 186.122532 293.995747 
L 191.792749 293.891609 
L 197.462965 293.785179 
L 203.133182 293.583037 
L 208.803398 293.249689 
L 214.473615 292.960228 
L 220.143831 292.799627 
L 225.814048 292.702419 
L 231.484264 292.623844 
L 237.154481 292.564065 
L 242.824697 292.528402 
L 248.494913 292.504073 
L 254.16513 292.475379 
L 259.835346 292.444318 
L 265.505563 292.424585 
L 271.175779 292.411086 
L 276.845996 292.394705 
L 282.516212 292.376836 
L 288.186429 292.359755 
L 293.856645 292.343118 
L 299.526861 292.325204 
L 305.197078 292.307989 
L 310.867294 292.296097 
L 316.537511 292.288898 
L 322.207727 292.283062 
L 327.877944 292.277189 
L 333.54816 292.271841 
L 339.218377 292.26795 
L 344.888593 292.265429 
L 350.55881 292.263705 
L 356.229026 292.262367 
L 361.899242 292.261281 
L 367.569459 292.260473 
L 373.239675 292.259671 
L 378.909892 292.258634 
L 384.580108 292.257471 
L 390.250325 292.256264 
L 395.920541 292.254887 
L 401.590758 292.253049 
L 407.260974 292.25053 
L 412.93119 292.247434 
L 418.601407 292.243944 
L 424.271623 292.240117 
L 429.94184 292.23647 
L 435.612056 292.232957 
L 441.282273 292.22916 
L 446.952489 292.224773 
L 452.622706 292.220108 
L 458.292922 292.215503 
L 463.963139 292.211149 
L 469.633355 292.207348 
L 475.303571 292.20391 
L 480.973788 292.200609 
L 486.644004 292.197499 
L 492.314221 292.194781 
L 497.984437 292.192511 
L 503.654654 292.190226 
L 509.32487 292.187724 
L 514.995087 292.18495 
L 520.665303 292.181834 
L 526.335519 292.178758 
L 532.005736 292.175788 
L 537.675952 292.172373 
L 543.346169 292.16845 
L 549.016385 292.164659 
L 554.686602 292.16133 
L 560.356818 292.158052 
L 566.027035 292.152835 
L 571.697251 292.145925 
L 577.367468 292.14151 
L 583.037684 292.139908 
L 588.7079 292.138993 
L 594.378117 292.138028 
L 600.048333 292.137181 
L 605.71855 292.136501 
L 611.388766 292.135936 
L 617.058983 292.135529 
L 622.729199 292.135228 
L 628.399416 292.134836 
L 634.069632 292.134329 
L 639.739848 292.133896 
L 645.410065 292.133571 
L 651.080281 292.133374 
L 656.750498 292.13326 
L 662.420714 292.133142 
L 668.090931 292.133032 
L 673.761147 292.132947 
L 679.431364 292.132892 
" style="fill:none;stroke:#ae54a5;stroke-dasharray:6.475,2.8;stroke-dashoffset:0;stroke-width:1.75;"/>
   </g>
   <g id="line2d_15">
    <path clip-path="url(#p92e175f244)" d="M 84.058636 295.617916 
L 89.728853 295.601169 
L 95.399069 295.572189 
L 101.069286 295.536962 
L 106.739502 295.499147 
L 112.409719 295.455776 
L 118.079935 295.385202 
L 123.750152 295.257785 
L 129.420368 295.060039 
L 135.090584 294.841969 
L 140.760801 294.651134 
L 146.431017 294.417923 
L 152.101234 294.070153 
L 157.77145 293.691277 
L 163.441667 293.213283 
L 169.111883 292.502282 
L 174.7821 291.790532 
L 180.452316 291.010223 
L 186.122532 289.887064 
L 191.792749 288.642283 
L 197.462965 287.314423 
L 203.133182 285.81016 
L 208.803398 284.223879 
L 214.473615 282.544743 
L 220.143831 280.466572 
L 225.814048 277.897158 
L 231.484264 275.211962 
L 237.154481 272.343491 
L 242.824697 269.069656 
L 248.494913 265.511252 
L 254.16513 261.974214 
L 259.835346 258.457649 
L 265.505563 254.139578 
L 271.175779 249.086705 
L 276.845996 244.687302 
L 282.516212 241.086607 
L 288.186429 237.412862 
L 293.856645 233.980686 
L 299.526861 231.042578 
L 305.197078 227.953836 
L 310.867294 224.54916 
L 316.537511 220.962766 
L 322.207727 217.164468 
L 327.877944 212.463145 
L 333.54816 204.139138 
L 339.218377 192.560768 
L 344.888593 183.955229 
L 350.55881 178.748301 
L 356.229026 173.418867 
L 361.899242 167.531422 
L 367.569459 163.673805 
L 373.239675 161.421992 
L 378.909892 158.866926 
L 384.580108 156.428395 
L 390.250325 155.034187 
L 395.920541 154.488656 
L 401.590758 153.544519 
L 407.260974 152.133428 
L 412.93119 150.746589 
L 418.601407 149.131018 
L 424.271623 147.024094 
L 429.94184 145.578037 
L 435.612056 145.452457 
L 441.282273 145.500405 
L 446.952489 145.157002 
L 452.622706 144.569166 
L 458.292922 143.946439 
L 463.963139 143.152692 
L 469.633355 141.83579 
L 475.303571 140.47157 
" style="fill:none;stroke:#0309a6;stroke-linecap:round;stroke-width:1.75;"/>
   </g>
   <g id="line2d_16">
    <path clip-path="url(#p92e175f244)" d="M 84.058636 295.636867 
L 89.728853 295.630621 
L 95.399069 295.619638 
L 101.069286 295.600084 
L 106.739502 295.573938 
L 112.409719 295.546577 
L 118.079935 295.509244 
L 123.750152 295.438544 
L 129.420368 295.327028 
L 135.090584 295.203326 
L 140.760801 295.080141 
L 146.431017 294.948211 
L 152.101234 294.798712 
L 157.77145 294.599953 
L 163.441667 294.328601 
L 169.111883 293.885178 
L 174.7821 293.188297 
L 180.452316 292.389126 
L 186.122532 291.50174 
L 191.792749 290.383736 
L 197.462965 288.884126 
L 203.133182 286.946515 
L 208.803398 284.647502 
L 214.473615 282.240848 
L 220.143831 280.070798 
L 225.814048 277.876994 
L 231.484264 275.305524 
L 237.154481 272.386378 
L 242.824697 268.941197 
L 248.494913 264.753958 
L 254.16513 260.186429 
L 259.835346 255.903274 
L 265.505563 252.221288 
L 271.175779 248.775471 
L 276.845996 245.094702 
L 282.516212 240.946117 
L 288.186429 236.510178 
L 293.856645 232.319692 
L 299.526861 228.765969 
L 305.197078 225.813367 
L 310.867294 223.062798 
L 316.537511 219.996781 
L 322.207727 216.576655 
L 327.877944 213.29932 
L 333.54816 210.551011 
L 339.218377 208.322678 
L 344.888593 206.436008 
L 350.55881 204.846631 
L 356.229026 203.294513 
L 361.899242 201.391904 
L 367.569459 199.234285 
L 373.239675 197.166348 
L 378.909892 195.488683 
L 384.580108 194.123998 
L 390.250325 192.897642 
L 395.920541 191.662538 
L 401.590758 190.224895 
L 407.260974 188.703522 
L 412.93119 187.36177 
L 418.601407 186.267769 
L 424.271623 185.366149 
L 429.94184 184.552992 
L 435.612056 183.677038 
L 441.282273 182.6943 
L 446.952489 181.745288 
L 452.622706 180.954719 
L 458.292922 180.325717 
L 463.963139 179.817026 
L 469.633355 179.337552 
L 475.303571 178.795308 
L 480.973788 178.353892 
" style="fill:none;stroke:#d8b009;stroke-linecap:round;stroke-width:1.75;"/>
   </g>
   <g id="line2d_17">
    <path clip-path="url(#p92e175f244)" d="M 84.058636 295.620798 
L 89.728853 295.581181 
L 95.399069 295.512952 
L 101.069286 295.431011 
L 106.739502 295.330617 
L 112.409719 295.193605 
L 118.079935 295.010435 
L 123.750152 294.778946 
L 129.420368 294.468547 
L 135.090584 294.074268 
L 140.760801 293.65352 
L 146.431017 293.182412 
L 152.101234 292.600878 
L 157.77145 291.887663 
L 163.441667 290.997949 
L 169.111883 289.845415 
L 174.7821 288.453528 
L 180.452316 286.993503 
L 186.122532 285.549736 
L 191.792749 284.042546 
L 197.462965 282.029037 
L 203.133182 278.880534 
L 208.803398 275.282932 
L 214.473615 271.850889 
L 220.143831 268.492616 
L 225.814048 264.886281 
L 231.484264 260.669631 
L 237.154481 255.669392 
L 242.824697 250.037419 
L 248.494913 244.240304 
L 254.16513 238.810868 
L 259.835346 233.769296 
L 265.505563 228.738714 
L 271.175779 223.442982 
L 276.845996 217.821708 
L 282.516212 212.111039 
L 288.186429 206.630157 
L 293.856645 201.706651 
L 299.526861 197.369587 
L 305.197078 193.179323 
L 310.867294 188.801532 
L 316.537511 184.312279 
L 322.207727 179.820997 
L 327.877944 175.421186 
L 333.54816 171.356606 
L 339.218377 167.759522 
L 344.888593 164.366001 
L 350.55881 160.759676 
L 356.229026 156.880548 
L 361.899242 152.835525 
L 367.569459 148.731248 
L 373.239675 144.927025 
L 378.909892 141.641351 
L 384.580108 138.687488 
L 390.250325 135.698702 
L 395.920541 132.433986 
L 401.590758 129.064336 
L 407.260974 125.849906 
L 412.93119 122.975294 
L 418.601407 120.369685 
L 424.271623 117.676261 
L 429.94184 114.820856 
L 435.612056 112.020626 
L 441.282273 109.369205 
L 446.952489 106.957794 
L 452.622706 104.816309 
L 458.292922 102.860067 
L 463.963139 100.921376 
L 469.633355 98.978584 
L 475.303571 97.087466 
L 480.973788 95.251964 
L 486.644004 93.559753 
L 492.314221 92.121328 
L 497.984437 90.891445 
L 503.654654 89.779259 
L 509.32487 88.981363 
" style="fill:none;stroke:#1007e1;stroke-linecap:round;stroke-width:1.75;"/>
   </g>
   <g id="line2d_18">
    <path clip-path="url(#p92e175f244)" d="M 84.058636 295.55359 
L 89.728853 295.493267 
L 95.399069 295.374216 
L 101.069286 295.211375 
L 106.739502 295.012534 
L 112.409719 294.794124 
L 118.079935 294.574181 
L 123.750152 294.330148 
L 129.420368 294.050921 
L 135.090584 293.664966 
L 140.760801 293.075562 
L 146.431017 292.423157 
L 152.101234 291.723664 
L 157.77145 290.869858 
L 163.441667 289.854032 
L 169.111883 288.661822 
L 174.7821 287.220074 
L 180.452316 285.478403 
L 186.122532 283.537165 
L 191.792749 281.545371 
L 197.462965 279.394101 
L 203.133182 276.850178 
L 208.803398 273.872766 
L 214.473615 270.46541 
L 220.143831 266.728476 
L 225.814048 262.938776 
L 231.484264 259.391961 
L 237.154481 256.189114 
L 242.824697 253.07267 
L 248.494913 249.750077 
L 254.16513 246.274629 
L 259.835346 242.844078 
L 265.505563 239.406161 
L 271.175779 235.889816 
L 276.845996 232.591596 
L 282.516212 229.495394 
L 288.186429 226.117562 
L 293.856645 222.198376 
L 299.526861 217.929427 
L 305.197078 213.70235 
L 310.867294 209.854109 
L 316.537511 206.50407 
L 322.207727 203.5233 
L 327.877944 200.540651 
L 333.54816 197.125483 
L 339.218377 193.332949 
L 344.888593 189.583819 
L 350.55881 186.235971 
L 356.229026 183.408905 
L 361.899242 180.866441 
L 367.569459 178.295025 
L 373.239675 175.604641 
L 378.909892 173.012047 
L 384.580108 170.706676 
L 390.250325 168.780999 
L 395.920541 167.368881 
L 401.590758 166.274571 
L 407.260974 165.029125 
L 412.93119 163.522059 
L 418.601407 161.973342 
L 424.271623 160.582952 
L 429.94184 159.459895 
L 435.612056 158.536378 
L 441.282273 157.699475 
L 446.952489 157.138114 
" style="fill:none;stroke:#a67d4c;stroke-linecap:round;stroke-width:1.75;"/>
   </g>
   <g id="line2d_19">
    <path clip-path="url(#p92e175f244)" d="M 84.058636 295.526263 
L 89.728853 295.502824 
L 95.399069 295.468614 
L 101.069286 295.414449 
L 106.739502 295.34046 
L 112.409719 295.219898 
L 118.079935 294.989836 
L 123.750152 294.653207 
L 129.420368 294.23156 
L 135.090584 293.743385 
L 140.760801 293.225222 
L 146.431017 292.493213 
L 152.101234 291.27894 
L 157.77145 289.811263 
L 163.441667 288.204866 
L 169.111883 286.298457 
L 174.7821 284.104285 
L 180.452316 281.622735 
L 186.122532 278.620614 
L 191.792749 275.106127 
L 197.462965 271.009583 
L 203.133182 266.528912 
L 208.803398 262.301993 
L 214.473615 258.212195 
L 220.143831 253.609873 
L 225.814048 248.839458 
L 231.484264 244.23414 
L 237.154481 239.828061 
L 242.824697 235.752037 
L 248.494913 232.022894 
L 254.16513 228.526021 
L 259.835346 224.789949 
L 265.505563 220.465897 
L 271.175779 215.16513 
L 276.845996 209.470143 
L 282.516212 205.003981 
L 288.186429 201.797381 
L 293.856645 199.062129 
L 299.526861 196.098006 
L 305.197078 192.704738 
L 310.867294 189.485206 
L 316.537511 186.742764 
L 322.207727 183.810678 
L 327.877944 180.563552 
L 333.54816 177.242651 
L 339.218377 174.035938 
L 344.888593 171.080431 
L 350.55881 168.428032 
L 356.229026 165.743668 
L 361.899242 162.946316 
L 367.569459 160.590801 
L 373.239675 158.901452 
L 378.909892 157.422484 
L 384.580108 155.706019 
L 390.250325 153.759992 
L 395.920541 152.446068 
L 401.590758 152.013891 
L 407.260974 151.519277 
L 412.93119 150.493054 
L 418.601407 149.083585 
L 424.271623 147.825266 
" style="fill:none;stroke:#ea71b3;stroke-linecap:round;stroke-width:1.75;"/>
   </g>
   <g id="line2d_20">
    <path clip-path="url(#p92e175f244)" d="M 84.058636 295.652426 
L 89.728853 295.651266 
L 95.399069 295.648009 
L 101.069286 295.642995 
L 106.739502 295.63789 
L 112.409719 295.632281 
L 118.079935 295.624061 
L 123.750152 295.613008 
L 129.420368 295.598424 
L 135.090584 295.579744 
L 140.760801 295.558605 
L 146.431017 295.536024 
L 152.101234 295.511315 
L 157.77145 295.48326 
L 163.441667 295.445532 
L 169.111883 295.38968 
L 174.7821 295.318585 
L 180.452316 295.237003 
L 186.122532 295.143166 
L 191.792749 295.031753 
L 197.462965 294.891718 
L 203.133182 294.71465 
L 208.803398 294.498665 
L 214.473615 294.247863 
L 220.143831 293.992745 
L 225.814048 293.735946 
L 231.484264 293.438625 
L 237.154481 293.066523 
L 242.824697 292.622989 
L 248.494913 292.115379 
L 254.16513 291.524937 
L 259.835346 290.853037 
L 265.505563 290.103034 
L 271.175779 289.231502 
L 276.845996 288.216986 
L 282.516212 287.058047 
L 288.186429 285.749593 
L 293.856645 284.287841 
L 299.526861 282.612144 
L 305.197078 280.670667 
L 310.867294 278.586414 
L 316.537511 276.52488 
L 322.207727 274.435854 
L 327.877944 272.336225 
L 333.54816 270.21563 
L 339.218377 267.954015 
L 344.888593 265.54415 
L 350.55881 263.049042 
L 356.229026 260.526522 
L 361.899242 258.003421 
L 367.569459 255.410137 
L 373.239675 252.54593 
L 378.909892 249.250361 
L 384.580108 245.478887 
L 390.250325 241.375132 
L 395.920541 237.199116 
L 401.590758 233.284146 
L 407.260974 230.600199 
" style="fill:none;stroke:#5feb16;stroke-linecap:round;stroke-width:1.75;"/>
   </g>
   <g id="line2d_21">
    <path clip-path="url(#p92e175f244)" d="M 84.058636 295.612226 
L 89.728853 295.592615 
L 95.399069 295.555551 
L 101.069286 295.507866 
L 106.739502 295.452029 
L 112.409719 295.386909 
L 118.079935 295.298709 
L 123.750152 295.17054 
L 129.420368 294.994644 
L 135.090584 294.705991 
L 140.760801 294.225054 
L 146.431017 293.597266 
L 152.101234 292.894062 
L 157.77145 291.709179 
L 163.441667 289.760635 
L 169.111883 287.731519 
L 174.7821 285.723093 
L 180.452316 283.448554 
L 186.122532 280.889279 
L 191.792749 277.734446 
L 197.462965 273.880866 
L 203.133182 269.568392 
L 208.803398 264.64725 
L 214.473615 259.037531 
L 220.143831 252.439139 
L 225.814048 244.476079 
L 231.484264 234.834496 
L 237.154481 224.628504 
L 242.824697 214.839692 
L 248.494913 205.547147 
L 254.16513 196.424598 
L 259.835346 186.995495 
L 265.505563 177.2149 
L 271.175779 167.35419 
L 276.845996 157.79616 
L 282.516212 148.847342 
L 288.186429 140.711302 
L 293.856645 133.526788 
L 299.526861 126.892469 
L 305.197078 120.158358 
L 310.867294 113.273108 
L 316.537511 106.711391 
L 322.207727 100.592953 
L 327.877944 95.008919 
L 333.54816 90.184853 
L 339.218377 85.985508 
L 344.888593 81.485155 
L 350.55881 75.425914 
L 356.229026 68.269896 
L 361.899242 62.09901 
L 367.569459 57.189717 
L 373.239675 52.324986 
L 378.909892 47.913221 
L 384.580108 43.521237 
L 390.250325 39.391762 
L 395.920541 38.37093 
L 401.590758 40.628006 
L 407.260974 41.210705 
L 412.93119 39.486158 
L 418.601407 37.392447 
L 424.271623 35.397382 
L 429.94184 33.647627 
L 435.612056 32.440563 
L 441.282273 31.134007 
L 446.952489 29.230921 
L 452.622706 27.597107 
L 458.292922 26.395522 
L 463.963139 25.216264 
L 469.633355 24.364502 
" style="fill:none;stroke:#907eba;stroke-linecap:round;stroke-width:1.75;"/>
   </g>
   <g id="line2d_22">
    <path clip-path="url(#p92e175f244)" d="M 84.058636 295.608787 
L 89.728853 295.572491 
L 95.399069 295.493695 
L 101.069286 295.350102 
L 106.739502 295.116522 
L 112.409719 294.826444 
L 118.079935 294.545234 
L 123.750152 294.221394 
L 129.420368 293.69243 
L 135.090584 292.803461 
L 140.760801 291.604067 
L 146.431017 290.317158 
L 152.101234 289.020896 
L 157.77145 287.605427 
L 163.441667 285.991857 
L 169.111883 284.287747 
L 174.7821 282.483361 
L 180.452316 280.504123 
L 186.122532 278.367601 
L 191.792749 276.110734 
L 197.462965 273.680592 
L 203.133182 270.989698 
L 208.803398 268.086018 
L 214.473615 264.997129 
L 220.143831 261.65673 
L 225.814048 258.173036 
L 231.484264 254.816597 
L 237.154481 251.698946 
L 242.824697 248.666894 
L 248.494913 245.534009 
L 254.16513 242.316519 
L 259.835346 239.218413 
L 265.505563 236.280759 
L 271.175779 233.288266 
L 276.845996 230.155462 
L 282.516212 227.1787 
L 288.186429 224.619396 
L 293.856645 222.327974 
L 299.526861 220.154469 
L 305.197078 218.154334 
L 310.867294 216.371948 
L 316.537511 214.686934 
L 322.207727 212.905756 
L 327.877944 211.006379 
L 333.54816 209.178477 
L 339.218377 207.555399 
L 344.888593 206.132449 
L 350.55881 204.852962 
L 356.229026 203.606542 
L 361.899242 202.341492 
L 367.569459 201.399728 
" style="fill:none;stroke:#221cdf;stroke-linecap:round;stroke-width:1.75;"/>
   </g>
   <g id="line2d_23">
    <path clip-path="url(#p92e175f244)" d="M 84.058636 295.651577 
L 89.728853 295.651312 
L 95.399069 295.650818 
L 101.069286 295.65032 
L 106.739502 295.649656 
L 112.409719 295.648482 
L 118.079935 295.646439 
L 123.750152 295.643185 
L 129.420368 295.63864 
L 135.090584 295.631869 
L 140.760801 295.622118 
L 146.431017 295.608477 
L 152.101234 295.589997 
L 157.77145 295.568571 
L 163.441667 295.537979 
L 169.111883 295.489302 
L 174.7821 295.427671 
L 180.452316 295.354895 
L 186.122532 295.266465 
L 191.792749 295.155829 
L 197.462965 295.004957 
L 203.133182 294.790628 
L 208.803398 294.486493 
L 214.473615 293.986149 
L 220.143831 293.180896 
L 225.814048 292.162423 
L 231.484264 290.976655 
L 237.154481 289.541349 
L 242.824697 287.83887 
L 248.494913 285.895958 
L 254.16513 283.542287 
L 259.835346 280.664476 
L 265.505563 277.440877 
L 271.175779 274.024156 
L 276.845996 270.430353 
L 282.516212 266.502876 
L 288.186429 262.131544 
L 293.856645 257.360264 
L 299.526861 252.143943 
L 305.197078 246.591915 
L 310.867294 241.028587 
L 316.537511 235.674331 
L 322.207727 230.36373 
L 327.877944 224.89505 
L 333.54816 219.205016 
L 339.218377 213.340373 
L 344.888593 207.56192 
L 350.55881 202.124322 
L 356.229026 197.060323 
L 361.899242 192.238159 
L 367.569459 187.364289 
L 373.239675 182.21629 
L 378.909892 176.765836 
L 384.580108 171.167272 
L 390.250325 165.740518 
L 395.920541 160.731461 
L 401.590758 155.952331 
L 407.260974 151.083256 
L 412.93119 145.992674 
L 418.601407 140.538706 
L 424.271623 134.736308 
L 429.94184 129.124353 
L 435.612056 124.157498 
L 441.282273 119.69531 
L 446.952489 115.218753 
L 452.622706 110.368982 
L 458.292922 105.078273 
L 463.963139 99.592963 
L 469.633355 94.42477 
L 475.303571 89.799769 
L 480.973788 85.544004 
L 486.644004 81.586504 
L 492.314221 78.849231 
" style="fill:none;stroke:#7516fd;stroke-dasharray:6.475,2.8;stroke-dashoffset:0;stroke-width:1.75;"/>
   </g>
   <g id="line2d_24">
    <path clip-path="url(#p92e175f244)" d="M 84.058636 295.641683 
L 89.728853 295.637868 
L 95.399069 295.63125 
L 101.069286 295.622917 
L 106.739502 295.60869 
L 112.409719 295.585281 
L 118.079935 295.554626 
L 123.750152 295.51763 
L 129.420368 295.474515 
L 135.090584 295.426603 
L 140.760801 295.377092 
L 146.431017 295.32508 
L 152.101234 295.266141 
L 157.77145 295.159091 
L 163.441667 294.962925 
L 169.111883 294.751112 
L 174.7821 294.555634 
L 180.452316 294.278981 
L 186.122532 293.898568 
L 191.792749 293.476614 
L 197.462965 292.961945 
L 203.133182 292.205905 
L 208.803398 291.367808 
L 214.473615 290.570717 
L 220.143831 289.653687 
L 225.814048 288.489473 
L 231.484264 287.022737 
L 237.154481 285.141835 
L 242.824697 282.928089 
L 248.494913 280.658053 
L 254.16513 278.39593 
L 259.835346 275.959785 
L 265.505563 273.081328 
L 271.175779 269.657923 
L 276.845996 265.940727 
L 282.516212 262.161802 
L 288.186429 258.233115 
L 293.856645 254.141345 
L 299.526861 250.313088 
L 305.197078 246.537171 
L 310.867294 242.29265 
L 316.537511 237.315955 
L 322.207727 231.716558 
L 327.877944 226.480872 
L 333.54816 221.915445 
L 339.218377 217.656319 
L 344.888593 213.423902 
L 350.55881 209.216415 
L 356.229026 204.895931 
L 361.899242 200.269999 
L 367.569459 195.461133 
L 373.239675 190.778695 
L 378.909892 186.506982 
L 384.580108 182.553909 
L 390.250325 178.615203 
L 395.920541 174.475895 
L 401.590758 170.148876 
L 407.260974 165.916036 
L 412.93119 161.950183 
L 418.601407 158.207651 
L 424.271623 154.517936 
L 429.94184 150.459574 
L 435.612056 145.754781 
L 441.282273 140.895974 
L 446.952489 136.506436 
L 452.622706 132.605946 
L 458.292922 128.846946 
L 463.963139 124.995363 
L 469.633355 122.048659 
" style="fill:none;stroke:#89f9c9;stroke-linecap:round;stroke-width:1.75;"/>
   </g>
   <g id="patch_3">
    <path d="M 54.29 309.219036 
L 54.29 10.8 
" style="fill:none;"/>
   </g>
   <g id="patch_4">
    <path d="M 709.2 309.219036 
L 709.2 10.8 
" style="fill:none;"/>
   </g>
   <g id="patch_5">
    <path d="M 54.29 309.219036 
L 709.2 309.219036 
" style="fill:none;"/>
   </g>
   <g id="patch_6">
    <path d="M 54.29 10.8 
L 709.2 10.8 
" style="fill:none;"/>
   </g>
   <g id="legend_1">
    <g id="line2d_25">
     <path d="M 601.051563 23.546875 
L 621.051563 23.546875 
" style="fill:none;stroke:#989173;stroke-linecap:round;stroke-width:1.75;"/>
    </g>
    <g id="line2d_26"/>
    <g id="text_14">
     <!-- Austria -->
     <defs>
      <path d="M 56.984375 0 
L 49.125 20.125 
L 17.78125 20.125 
L 9.859375 0 
L 0.203125 0 
L 28.265625 68.796875 
L 38.875 68.796875 
L 66.5 0 
z
M 37.5 50.09375 
Q 36.71875 52.046875 36 54.046875 
Q 35.296875 56.0625 34.765625 57.6875 
Q 34.234375 59.328125 33.859375 60.421875 
Q 33.5 61.53125 33.453125 61.765625 
Q 33.34375 61.53125 33 60.40625 
Q 32.671875 59.28125 32.109375 57.609375 
Q 31.546875 55.953125 30.828125 53.953125 
Q 30.125 51.953125 29.390625 50 
L 20.609375 27.390625 
L 46.34375 27.390625 
z
" id="LiberationSans-65"/>
     </defs>
     <g style="fill:#262626;" transform="translate(629.051563 27.046875)scale(0.1 -0.1)">
      <use xlink:href="#LiberationSans-65"/>
      <use x="66.699219" xlink:href="#LiberationSans-117"/>
      <use x="122.314453" xlink:href="#LiberationSans-115"/>
      <use x="172.314453" xlink:href="#LiberationSans-116"/>
      <use x="200.097656" xlink:href="#LiberationSans-114"/>
      <use x="233.398438" xlink:href="#LiberationSans-105"/>
      <use x="255.615234" xlink:href="#LiberationSans-97"/>
     </g>
    </g>
    <g id="line2d_27">
     <path d="M 601.051563 37.86875 
L 621.051563 37.86875 
" style="fill:none;stroke:#42537f;stroke-linecap:round;stroke-width:1.75;"/>
    </g>
    <g id="line2d_28"/>
    <g id="text_15">
     <!-- Brazil -->
     <defs>
      <path d="M 61.421875 19.390625 
Q 61.421875 14.15625 59.375 10.46875 
Q 57.328125 6.78125 53.859375 4.46875 
Q 50.390625 2.15625 45.796875 1.078125 
Q 41.21875 0 36.140625 0 
L 8.203125 0 
L 8.203125 68.796875 
L 33.203125 68.796875 
Q 38.921875 68.796875 43.40625 67.84375 
Q 47.90625 66.890625 51.03125 64.84375 
Q 54.15625 62.796875 55.78125 59.640625 
Q 57.421875 56.5 57.421875 52.09375 
Q 57.421875 49.21875 56.609375 46.671875 
Q 55.8125 44.140625 54.171875 42.0625 
Q 52.546875 39.984375 50.078125 38.5 
Q 47.609375 37.015625 44.34375 36.28125 
Q 48.484375 35.796875 51.6875 34.375 
Q 54.890625 32.953125 57.03125 30.75 
Q 59.1875 28.5625 60.296875 25.65625 
Q 61.421875 22.75 61.421875 19.390625 
z
M 48.046875 50.984375 
Q 48.046875 56.546875 44.234375 58.9375 
Q 40.4375 61.328125 33.203125 61.328125 
L 17.53125 61.328125 
L 17.53125 39.546875 
L 33.203125 39.546875 
Q 37.3125 39.546875 40.140625 40.34375 
Q 42.96875 41.15625 44.71875 42.640625 
Q 46.484375 44.140625 47.265625 46.234375 
Q 48.046875 48.34375 48.046875 50.984375 
z
M 52 20.125 
Q 52 23.390625 50.796875 25.6875 
Q 49.609375 27.984375 47.359375 29.4375 
Q 45.125 30.90625 41.96875 31.59375 
Q 38.8125 32.28125 34.90625 32.28125 
L 17.53125 32.28125 
L 17.53125 7.46875 
L 35.640625 7.46875 
Q 39.203125 7.46875 42.203125 8.046875 
Q 45.21875 8.640625 47.390625 10.109375 
Q 49.5625 11.578125 50.78125 14.015625 
Q 52 16.453125 52 20.125 
z
" id="LiberationSans-66"/>
      <path d="M 2.390625 0 
L 2.390625 6.6875 
L 34.671875 46.046875 
L 4.34375 46.046875 
L 4.34375 52.828125 
L 44.578125 52.828125 
L 44.578125 46.140625 
L 12.25 6.78125 
L 46.390625 6.78125 
L 46.390625 0 
z
" id="LiberationSans-122"/>
     </defs>
     <g style="fill:#262626;" transform="translate(629.051563 41.36875)scale(0.1 -0.1)">
      <use xlink:href="#LiberationSans-66"/>
      <use x="66.699219" xlink:href="#LiberationSans-114"/>
      <use x="100" xlink:href="#LiberationSans-97"/>
      <use x="155.615234" xlink:href="#LiberationSans-122"/>
      <use x="205.615234" xlink:href="#LiberationSans-105"/>
      <use x="227.832031" xlink:href="#LiberationSans-108"/>
     </g>
    </g>
    <g id="line2d_29">
     <path d="M 601.051563 52.190625 
L 621.051563 52.190625 
" style="fill:none;stroke:#ae54a5;stroke-dasharray:6.475,2.8;stroke-dashoffset:0;stroke-width:1.75;"/>
    </g>
    <g id="line2d_30"/>
    <g id="text_16">
     <!-- China -->
     <defs>
      <path d="M 38.671875 62.203125 
Q 32.8125 62.203125 28.296875 60.25 
Q 23.78125 58.296875 20.71875 54.6875 
Q 17.671875 51.078125 16.109375 46 
Q 14.546875 40.921875 14.546875 34.71875 
Q 14.546875 28.515625 16.234375 23.359375 
Q 17.921875 18.21875 21.0625 14.5 
Q 24.21875 10.796875 28.78125 8.734375 
Q 33.34375 6.6875 39.0625 6.6875 
Q 43.0625 6.6875 46.359375 7.734375 
Q 49.65625 8.796875 52.3125 10.6875 
Q 54.984375 12.59375 57.078125 15.203125 
Q 59.1875 17.828125 60.796875 21 
L 68.40625 17.1875 
Q 66.546875 13.328125 63.8125 10 
Q 61.078125 6.6875 57.390625 4.25 
Q 53.71875 1.8125 49.046875 0.40625 
Q 44.390625 -0.984375 38.625 -0.984375 
Q 30.28125 -0.984375 24 1.671875 
Q 17.71875 4.34375 13.5 9.109375 
Q 9.28125 13.875 7.171875 20.40625 
Q 5.078125 26.953125 5.078125 34.71875 
Q 5.078125 42.78125 7.296875 49.265625 
Q 9.515625 55.765625 13.78125 60.328125 
Q 18.0625 64.890625 24.3125 67.359375 
Q 30.5625 69.828125 38.578125 69.828125 
Q 49.5625 69.828125 56.9375 65.53125 
Q 64.3125 61.234375 67.78125 52.78125 
L 58.9375 49.859375 
Q 57.953125 52.296875 56.296875 54.515625 
Q 54.640625 56.734375 52.140625 58.4375 
Q 49.65625 60.15625 46.3125 61.171875 
Q 42.96875 62.203125 38.671875 62.203125 
z
" id="LiberationSans-67"/>
      <path d="M 15.484375 43.796875 
Q 16.9375 46.484375 18.640625 48.359375 
Q 20.359375 50.25 22.40625 51.46875 
Q 24.46875 52.6875 26.90625 53.25 
Q 29.34375 53.8125 32.375 53.8125 
Q 37.453125 53.8125 40.703125 52.4375 
Q 43.953125 51.078125 45.828125 48.609375 
Q 47.703125 46.140625 48.40625 42.71875 
Q 49.125 39.3125 49.125 35.203125 
L 49.125 0 
L 40.28125 0 
L 40.28125 33.5 
Q 40.28125 36.859375 39.859375 39.390625 
Q 39.453125 41.9375 38.28125 43.625 
Q 37.109375 45.3125 34.953125 46.15625 
Q 32.8125 47.015625 29.390625 47.015625 
Q 26.265625 47.015625 23.75 45.890625 
Q 21.234375 44.78125 19.453125 42.71875 
Q 17.671875 40.671875 16.6875 37.734375 
Q 15.71875 34.8125 15.71875 31.15625 
L 15.71875 0 
L 6.9375 0 
L 6.9375 72.46875 
L 15.71875 72.46875 
L 15.71875 53.609375 
Q 15.71875 52 15.671875 50.390625 
Q 15.625 48.78125 15.546875 47.40625 
Q 15.484375 46.046875 15.421875 45.09375 
Q 15.375 44.140625 15.328125 43.796875 
z
" id="LiberationSans-104"/>
     </defs>
     <g style="fill:#262626;" transform="translate(629.051563 55.690625)scale(0.1 -0.1)">
      <use xlink:href="#LiberationSans-67"/>
      <use x="72.216797" xlink:href="#LiberationSans-104"/>
      <use x="127.832031" xlink:href="#LiberationSans-105"/>
      <use x="150.048828" xlink:href="#LiberationSans-110"/>
      <use x="205.664062" xlink:href="#LiberationSans-97"/>
     </g>
    </g>
    <g id="line2d_31">
     <path d="M 601.051563 66.5125 
L 621.051563 66.5125 
" style="fill:none;stroke:#0309a6;stroke-linecap:round;stroke-width:1.75;"/>
    </g>
    <g id="line2d_32"/>
    <g id="text_17">
     <!-- France -->
     <defs>
      <path d="M 17.53125 61.1875 
L 17.53125 35.59375 
L 55.90625 35.59375 
L 55.90625 27.875 
L 17.53125 27.875 
L 17.53125 0 
L 8.203125 0 
L 8.203125 68.796875 
L 57.078125 68.796875 
L 57.078125 61.1875 
z
" id="LiberationSans-70"/>
     </defs>
     <g style="fill:#262626;" transform="translate(629.051563 70.0125)scale(0.1 -0.1)">
      <use xlink:href="#LiberationSans-70"/>
      <use x="61.083984" xlink:href="#LiberationSans-114"/>
      <use x="94.384766" xlink:href="#LiberationSans-97"/>
      <use x="150" xlink:href="#LiberationSans-110"/>
      <use x="205.615234" xlink:href="#LiberationSans-99"/>
      <use x="255.615234" xlink:href="#LiberationSans-101"/>
     </g>
    </g>
    <g id="line2d_33">
     <path d="M 601.051563 80.834375 
L 621.051563 80.834375 
" style="fill:none;stroke:#d8b009;stroke-linecap:round;stroke-width:1.75;"/>
    </g>
    <g id="line2d_34"/>
    <g id="text_18">
     <!-- Germany -->
     <defs>
      <path d="M 5.03125 34.71875 
Q 5.03125 42.78125 7.203125 49.265625 
Q 9.375 55.765625 13.6875 60.328125 
Q 18.015625 64.890625 24.40625 67.359375 
Q 30.8125 69.828125 39.265625 69.828125 
Q 45.609375 69.828125 50.390625 68.703125 
Q 55.171875 67.578125 58.6875 65.46875 
Q 62.203125 63.375 64.640625 60.375 
Q 67.09375 57.375 68.796875 53.609375 
L 59.90625 50.984375 
Q 58.640625 53.515625 56.859375 55.59375 
Q 55.078125 57.671875 52.53125 59.125 
Q 50 60.59375 46.65625 61.390625 
Q 43.3125 62.203125 39.015625 62.203125 
Q 32.765625 62.203125 28.140625 60.25 
Q 23.53125 58.296875 20.5 54.6875 
Q 17.484375 51.078125 15.984375 46 
Q 14.5 40.921875 14.5 34.71875 
Q 14.5 28.515625 16.109375 23.359375 
Q 17.71875 18.21875 20.890625 14.484375 
Q 24.078125 10.75 28.78125 8.671875 
Q 33.5 6.59375 39.703125 6.59375 
Q 43.75 6.59375 47.171875 7.265625 
Q 50.59375 7.953125 53.34375 9.046875 
Q 56.109375 10.15625 58.203125 11.5 
Q 60.296875 12.84375 61.71875 14.203125 
L 61.71875 26.609375 
L 41.15625 26.609375 
L 41.15625 34.421875 
L 70.3125 34.421875 
L 70.3125 10.6875 
Q 68.015625 8.34375 64.90625 6.21875 
Q 61.8125 4.109375 57.953125 2.484375 
Q 54.109375 0.875 49.515625 -0.046875 
Q 44.921875 -0.984375 39.703125 -0.984375 
Q 31 -0.984375 24.5 1.671875 
Q 18.015625 4.34375 13.6875 9.109375 
Q 9.375 13.875 7.203125 20.40625 
Q 5.03125 26.953125 5.03125 34.71875 
z
" id="LiberationSans-71"/>
      <path d="M 37.5 0 
L 37.5 33.5 
Q 37.5 37.359375 37.015625 39.9375 
Q 36.53125 42.53125 35.375 44.109375 
Q 34.234375 45.703125 32.375 46.359375 
Q 30.515625 47.015625 27.828125 47.015625 
Q 25.046875 47.015625 22.796875 45.921875 
Q 20.5625 44.828125 18.96875 42.75 
Q 17.390625 40.671875 16.53125 37.625 
Q 15.671875 34.578125 15.671875 30.609375 
L 15.671875 0 
L 6.9375 0 
L 6.9375 41.546875 
Q 6.9375 43.21875 6.90625 45.046875 
Q 6.890625 46.875 6.828125 48.5 
Q 6.78125 50.140625 6.734375 51.3125 
Q 6.6875 52.484375 6.640625 52.828125 
L 14.9375 52.828125 
Q 14.984375 52.59375 15.03125 51.515625 
Q 15.09375 50.4375 15.15625 49.046875 
Q 15.234375 47.65625 15.28125 46.21875 
Q 15.328125 44.78125 15.328125 43.796875 
L 15.484375 43.796875 
Q 16.65625 46.09375 18.015625 47.953125 
Q 19.390625 49.8125 21.21875 51.09375 
Q 23.046875 52.390625 25.40625 53.09375 
Q 27.78125 53.8125 30.90625 53.8125 
Q 36.921875 53.8125 40.40625 51.421875 
Q 43.890625 49.03125 45.265625 43.796875 
L 45.40625 43.796875 
Q 46.578125 46.09375 48.046875 47.953125 
Q 49.515625 49.8125 51.46875 51.09375 
Q 53.421875 52.390625 55.859375 53.09375 
Q 58.296875 53.8125 61.421875 53.8125 
Q 65.4375 53.8125 68.328125 52.734375 
Q 71.234375 51.65625 73.09375 49.40625 
Q 74.953125 47.171875 75.828125 43.625 
Q 76.703125 40.09375 76.703125 35.203125 
L 76.703125 0 
L 68.015625 0 
L 68.015625 33.5 
Q 68.015625 37.359375 67.53125 39.9375 
Q 67.046875 42.53125 65.890625 44.109375 
Q 64.75 45.703125 62.890625 46.359375 
Q 61.03125 47.015625 58.34375 47.015625 
Q 55.5625 47.015625 53.3125 45.96875 
Q 51.078125 44.921875 49.484375 42.875 
Q 47.90625 40.828125 47.046875 37.75 
Q 46.1875 34.671875 46.1875 30.609375 
L 46.1875 0 
z
" id="LiberationSans-109"/>
     </defs>
     <g style="fill:#262626;" transform="translate(629.051563 84.334375)scale(0.1 -0.1)">
      <use xlink:href="#LiberationSans-71"/>
      <use x="77.783203" xlink:href="#LiberationSans-101"/>
      <use x="133.398438" xlink:href="#LiberationSans-114"/>
      <use x="166.699219" xlink:href="#LiberationSans-109"/>
      <use x="250" xlink:href="#LiberationSans-97"/>
      <use x="305.615234" xlink:href="#LiberationSans-110"/>
      <use x="361.230469" xlink:href="#LiberationSans-121"/>
     </g>
    </g>
    <g id="line2d_35">
     <path d="M 601.051563 95.15625 
L 621.051563 95.15625 
" style="fill:none;stroke:#1007e1;stroke-linecap:round;stroke-width:1.75;"/>
    </g>
    <g id="line2d_36"/>
    <g id="text_19">
     <!-- Italy -->
     <defs>
      <path d="M 9.234375 0 
L 9.234375 68.796875 
L 18.5625 68.796875 
L 18.5625 0 
z
" id="LiberationSans-73"/>
     </defs>
     <g style="fill:#262626;" transform="translate(629.051563 98.65625)scale(0.1 -0.1)">
      <use xlink:href="#LiberationSans-73"/>
      <use x="27.783203" xlink:href="#LiberationSans-116"/>
      <use x="55.566406" xlink:href="#LiberationSans-97"/>
      <use x="111.181641" xlink:href="#LiberationSans-108"/>
      <use x="133.398438" xlink:href="#LiberationSans-121"/>
     </g>
    </g>
    <g id="line2d_37">
     <path d="M 601.051563 109.478125 
L 621.051563 109.478125 
" style="fill:none;stroke:#a67d4c;stroke-linecap:round;stroke-width:1.75;"/>
    </g>
    <g id="line2d_38"/>
    <g id="text_20">
     <!-- Netherlands -->
     <defs>
      <path d="M 52.828125 0 
L 16.015625 58.59375 
Q 16.109375 56.203125 16.265625 53.859375 
Q 16.359375 51.859375 16.421875 49.625 
Q 16.5 47.40625 16.5 45.703125 
L 16.5 0 
L 8.203125 0 
L 8.203125 68.796875 
L 19.046875 68.796875 
L 56.25 9.8125 
Q 56.109375 12.203125 55.953125 14.59375 
Q 55.859375 16.65625 55.765625 19.0625 
Q 55.671875 21.484375 55.671875 23.6875 
L 55.671875 68.796875 
L 64.0625 68.796875 
L 64.0625 0 
z
" id="LiberationSans-78"/>
      <path d="M 40.09375 8.5 
Q 37.640625 3.421875 33.609375 1.21875 
Q 29.59375 -0.984375 23.640625 -0.984375 
Q 13.625 -0.984375 8.90625 5.75 
Q 4.203125 12.5 4.203125 26.171875 
Q 4.203125 53.8125 23.640625 53.8125 
Q 29.640625 53.8125 33.640625 51.609375 
Q 37.640625 49.421875 40.09375 44.625 
L 40.1875 44.625 
Q 40.1875 45.125 40.15625 46.171875 
Q 40.140625 47.21875 40.109375 48.359375 
Q 40.09375 49.515625 40.09375 50.53125 
Q 40.09375 51.5625 40.09375 52 
L 40.09375 72.46875 
L 48.875 72.46875 
L 48.875 10.890625 
Q 48.875 8.984375 48.890625 7.21875 
Q 48.921875 5.46875 48.96875 4 
Q 49.03125 2.546875 49.078125 1.484375 
Q 49.125 0.4375 49.171875 0 
L 40.765625 0 
Q 40.671875 0.484375 40.59375 1.390625 
Q 40.53125 2.296875 40.453125 3.46875 
Q 40.375 4.640625 40.328125 5.9375 
Q 40.28125 7.234375 40.28125 8.5 
z
M 13.421875 26.46875 
Q 13.421875 21 14.109375 17.09375 
Q 14.796875 13.1875 16.3125 10.671875 
Q 17.828125 8.15625 20.171875 6.984375 
Q 22.515625 5.8125 25.875 5.8125 
Q 29.34375 5.8125 32 6.9375 
Q 34.671875 8.0625 36.453125 10.578125 
Q 38.234375 13.09375 39.15625 17.140625 
Q 40.09375 21.1875 40.09375 27.046875 
Q 40.09375 32.671875 39.15625 36.546875 
Q 38.234375 40.4375 36.421875 42.828125 
Q 34.625 45.21875 32 46.265625 
Q 29.390625 47.3125 25.984375 47.3125 
Q 22.75 47.3125 20.40625 46.1875 
Q 18.0625 45.0625 16.5 42.578125 
Q 14.9375 40.09375 14.171875 36.109375 
Q 13.421875 32.125 13.421875 26.46875 
z
" id="LiberationSans-100"/>
     </defs>
     <g style="fill:#262626;" transform="translate(629.051563 112.978125)scale(0.1 -0.1)">
      <use xlink:href="#LiberationSans-78"/>
      <use x="72.216797" xlink:href="#LiberationSans-101"/>
      <use x="127.832031" xlink:href="#LiberationSans-116"/>
      <use x="155.615234" xlink:href="#LiberationSans-104"/>
      <use x="211.230469" xlink:href="#LiberationSans-101"/>
      <use x="266.845703" xlink:href="#LiberationSans-114"/>
      <use x="300.146484" xlink:href="#LiberationSans-108"/>
      <use x="322.363281" xlink:href="#LiberationSans-97"/>
      <use x="377.978516" xlink:href="#LiberationSans-110"/>
      <use x="433.59375" xlink:href="#LiberationSans-100"/>
      <use x="489.208984" xlink:href="#LiberationSans-115"/>
     </g>
    </g>
    <g id="line2d_39">
     <path d="M 601.051563 123.8 
L 621.051563 123.8 
" style="fill:none;stroke:#ea71b3;stroke-linecap:round;stroke-width:1.75;"/>
    </g>
    <g id="line2d_40"/>
    <g id="text_21">
     <!-- Portugal -->
     <defs>
      <path d="M 61.421875 48.09375 
Q 61.421875 43.609375 59.9375 39.71875 
Q 58.453125 35.84375 55.5 32.984375 
Q 52.546875 30.125 48.09375 28.46875 
Q 43.65625 26.8125 37.75 26.8125 
L 17.53125 26.8125 
L 17.53125 0 
L 8.203125 0 
L 8.203125 68.796875 
L 37.15625 68.796875 
Q 43.265625 68.796875 47.796875 67.3125 
Q 52.34375 65.828125 55.375 63.109375 
Q 58.40625 60.40625 59.90625 56.5625 
Q 61.421875 52.734375 61.421875 48.09375 
z
M 52.046875 48 
Q 52.046875 54.546875 48.046875 57.9375 
Q 44.046875 61.328125 36.03125 61.328125 
L 17.53125 61.328125 
L 17.53125 34.1875 
L 36.421875 34.1875 
Q 44.484375 34.1875 48.265625 37.75 
Q 52.046875 41.3125 52.046875 48 
z
" id="LiberationSans-80"/>
      <path d="M 26.765625 -20.75 
Q 22.21875 -20.75 18.703125 -19.8125 
Q 15.1875 -18.890625 12.6875 -17.15625 
Q 10.203125 -15.4375 8.640625 -13.03125 
Q 7.078125 -10.640625 6.390625 -7.71875 
L 15.234375 -6.453125 
Q 16.109375 -10.109375 19.109375 -12.078125 
Q 22.125 -14.0625 27 -14.0625 
Q 29.984375 -14.0625 32.421875 -13.234375 
Q 34.859375 -12.40625 36.5625 -10.5625 
Q 38.28125 -8.734375 39.203125 -5.796875 
Q 40.140625 -2.875 40.140625 1.3125 
L 40.140625 9.8125 
L 40.046875 9.8125 
Q 39.0625 7.8125 37.625 5.984375 
Q 36.1875 4.15625 34.109375 2.734375 
Q 32.03125 1.3125 29.296875 0.453125 
Q 26.5625 -0.390625 23.046875 -0.390625 
Q 18.015625 -0.390625 14.421875 1.296875 
Q 10.84375 2.984375 8.5625 6.34375 
Q 6.296875 9.71875 5.25 14.71875 
Q 4.203125 19.734375 4.203125 26.3125 
Q 4.203125 32.671875 5.25 37.75 
Q 6.296875 42.828125 8.65625 46.359375 
Q 11.03125 49.90625 14.8125 51.78125 
Q 18.609375 53.65625 24.03125 53.65625 
Q 29.640625 53.65625 33.765625 51.09375 
Q 37.890625 48.53125 40.140625 43.796875 
L 40.234375 43.796875 
Q 40.234375 45.015625 40.296875 46.53125 
Q 40.375 48.046875 40.453125 49.390625 
Q 40.53125 50.734375 40.625 51.703125 
Q 40.71875 52.6875 40.828125 52.828125 
L 49.171875 52.828125 
Q 49.125 52.390625 49.078125 51.34375 
Q 49.03125 50.296875 48.96875 48.828125 
Q 48.921875 47.359375 48.890625 45.578125 
Q 48.875 43.796875 48.875 41.890625 
L 48.875 1.515625 
Q 48.875 -9.578125 43.421875 -15.15625 
Q 37.984375 -20.75 26.765625 -20.75 
z
M 40.140625 26.421875 
Q 40.140625 31.9375 38.9375 35.859375 
Q 37.75 39.796875 35.796875 42.28125 
Q 33.84375 44.78125 31.328125 45.953125 
Q 28.8125 47.125 26.171875 47.125 
Q 22.796875 47.125 20.375 45.953125 
Q 17.96875 44.78125 16.375 42.265625 
Q 14.796875 39.75 14.03125 35.8125 
Q 13.28125 31.890625 13.28125 26.421875 
Q 13.28125 20.703125 14.03125 16.8125 
Q 14.796875 12.9375 16.359375 10.546875 
Q 17.921875 8.15625 20.3125 7.125 
Q 22.703125 6.109375 26.03125 6.109375 
Q 28.65625 6.109375 31.171875 7.21875 
Q 33.6875 8.34375 35.6875 10.78125 
Q 37.703125 13.234375 38.921875 17.09375 
Q 40.140625 20.953125 40.140625 26.421875 
z
" id="LiberationSans-103"/>
     </defs>
     <g style="fill:#262626;" transform="translate(629.051563 127.3)scale(0.1 -0.1)">
      <use xlink:href="#LiberationSans-80"/>
      <use x="66.699219" xlink:href="#LiberationSans-111"/>
      <use x="122.314453" xlink:href="#LiberationSans-114"/>
      <use x="155.615234" xlink:href="#LiberationSans-116"/>
      <use x="183.398438" xlink:href="#LiberationSans-117"/>
      <use x="239.013672" xlink:href="#LiberationSans-103"/>
      <use x="294.628906" xlink:href="#LiberationSans-97"/>
      <use x="350.244141" xlink:href="#LiberationSans-108"/>
     </g>
    </g>
    <g id="line2d_41">
     <path d="M 601.051563 138.121875 
L 621.051563 138.121875 
" style="fill:none;stroke:#5feb16;stroke-linecap:round;stroke-width:1.75;"/>
    </g>
    <g id="line2d_42"/>
    <g id="text_22">
     <!-- Russia -->
     <defs>
      <path d="M 56.84375 0 
L 38.96875 28.5625 
L 17.53125 28.5625 
L 17.53125 0 
L 8.203125 0 
L 8.203125 68.796875 
L 40.578125 68.796875 
Q 46.4375 68.796875 50.953125 67.453125 
Q 55.46875 66.109375 58.546875 63.5625 
Q 61.625 61.03125 63.234375 57.375 
Q 64.84375 53.71875 64.84375 49.125 
Q 64.84375 45.84375 63.890625 42.671875 
Q 62.9375 39.5 60.890625 36.859375 
Q 58.84375 34.234375 55.65625 32.328125 
Q 52.484375 30.421875 48.046875 29.640625 
L 67.578125 0 
z
M 55.46875 49.03125 
Q 55.46875 52.15625 54.390625 54.4375 
Q 53.328125 56.734375 51.265625 58.265625 
Q 49.21875 59.8125 46.28125 60.5625 
Q 43.359375 61.328125 39.65625 61.328125 
L 17.53125 61.328125 
L 17.53125 35.9375 
L 40.046875 35.9375 
Q 44.046875 35.9375 46.96875 36.9375 
Q 49.90625 37.9375 51.78125 39.6875 
Q 53.65625 41.453125 54.5625 43.84375 
Q 55.46875 46.234375 55.46875 49.03125 
z
" id="LiberationSans-82"/>
     </defs>
     <g style="fill:#262626;" transform="translate(629.051563 141.621875)scale(0.1 -0.1)">
      <use xlink:href="#LiberationSans-82"/>
      <use x="72.216797" xlink:href="#LiberationSans-117"/>
      <use x="127.832031" xlink:href="#LiberationSans-115"/>
      <use x="177.832031" xlink:href="#LiberationSans-115"/>
      <use x="227.832031" xlink:href="#LiberationSans-105"/>
      <use x="250.048828" xlink:href="#LiberationSans-97"/>
     </g>
    </g>
    <g id="line2d_43">
     <path d="M 601.051563 152.44375 
L 621.051563 152.44375 
" style="fill:none;stroke:#907eba;stroke-linecap:round;stroke-width:1.75;"/>
    </g>
    <g id="line2d_44"/>
    <g id="text_23">
     <!-- Spain -->
     <defs>
      <path d="M 62.109375 19 
Q 62.109375 14.65625 60.421875 10.984375 
Q 58.734375 7.328125 55.21875 4.65625 
Q 51.703125 2 46.359375 0.5 
Q 41.015625 -0.984375 33.6875 -0.984375 
Q 20.84375 -0.984375 13.671875 3.515625 
Q 6.5 8.015625 4.546875 16.5 
L 13.578125 18.3125 
Q 14.265625 15.625 15.671875 13.421875 
Q 17.09375 11.234375 19.5 9.640625 
Q 21.921875 8.0625 25.484375 7.171875 
Q 29.046875 6.296875 34.03125 6.296875 
Q 38.1875 6.296875 41.65625 7 
Q 45.125 7.71875 47.609375 9.171875 
Q 50.09375 10.640625 51.484375 12.953125 
Q 52.875 15.28125 52.875 18.5 
Q 52.875 21.875 51.34375 23.96875 
Q 49.8125 26.078125 47.015625 27.4375 
Q 44.234375 28.8125 40.375 29.734375 
Q 36.53125 30.671875 31.84375 31.734375 
Q 28.953125 32.375 26.046875 33.125 
Q 23.140625 33.890625 20.484375 34.9375 
Q 17.828125 35.984375 15.484375 37.390625 
Q 13.140625 38.8125 11.421875 40.796875 
Q 9.71875 42.78125 8.734375 45.390625 
Q 7.765625 48 7.765625 51.421875 
Q 7.765625 56.296875 9.734375 59.78125 
Q 11.71875 63.28125 15.234375 65.53125 
Q 18.75 67.78125 23.53125 68.796875 
Q 28.328125 69.828125 33.890625 69.828125 
Q 40.28125 69.828125 44.8125 68.828125 
Q 49.359375 67.828125 52.484375 65.8125 
Q 55.609375 63.8125 57.484375 60.859375 
Q 59.375 57.90625 60.5 54 
L 51.3125 52.390625 
Q 50.640625 54.890625 49.34375 56.84375 
Q 48.046875 58.796875 45.9375 60.109375 
Q 43.84375 61.421875 40.84375 62.109375 
Q 37.84375 62.796875 33.796875 62.796875 
Q 29 62.796875 25.75 61.9375 
Q 22.515625 61.078125 20.53125 59.609375 
Q 18.5625 58.15625 17.703125 56.171875 
Q 16.84375 54.203125 16.84375 51.90625 
Q 16.84375 48.828125 18.375 46.84375 
Q 19.921875 44.875 22.5625 43.546875 
Q 25.203125 42.234375 28.65625 41.359375 
Q 32.125 40.484375 36.03125 39.59375 
Q 39.203125 38.875 42.359375 38.109375 
Q 45.515625 37.359375 48.390625 36.296875 
Q 51.265625 35.25 53.78125 33.828125 
Q 56.296875 32.421875 58.15625 30.375 
Q 60.015625 28.328125 61.0625 25.53125 
Q 62.109375 22.75 62.109375 19 
z
" id="LiberationSans-83"/>
     </defs>
     <g style="fill:#262626;" transform="translate(629.051563 155.94375)scale(0.1 -0.1)">
      <use xlink:href="#LiberationSans-83"/>
      <use x="66.699219" xlink:href="#LiberationSans-112"/>
      <use x="122.314453" xlink:href="#LiberationSans-97"/>
      <use x="177.929688" xlink:href="#LiberationSans-105"/>
      <use x="200.146484" xlink:href="#LiberationSans-110"/>
     </g>
    </g>
    <g id="line2d_45">
     <path d="M 601.051563 166.765625 
L 621.051563 166.765625 
" style="fill:none;stroke:#221cdf;stroke-linecap:round;stroke-width:1.75;"/>
    </g>
    <g id="line2d_46"/>
    <g id="text_24">
     <!-- Turkey -->
     <defs>
      <path d="M 39.84375 0 
L 21.96875 24.125 
L 15.53125 18.796875 
L 15.53125 0 
L 6.734375 0 
L 6.734375 72.46875 
L 15.53125 72.46875 
L 15.53125 27.203125 
L 38.71875 52.828125 
L 49.03125 52.828125 
L 27.59375 30.125 
L 50.140625 0 
z
" id="LiberationSans-107"/>
     </defs>
     <g style="fill:#262626;" transform="translate(629.051563 170.265625)scale(0.1 -0.1)">
      <use xlink:href="#LiberationSans-84"/>
      <use x="61.037109" xlink:href="#LiberationSans-117"/>
      <use x="116.652344" xlink:href="#LiberationSans-114"/>
      <use x="149.953125" xlink:href="#LiberationSans-107"/>
      <use x="199.953125" xlink:href="#LiberationSans-101"/>
      <use x="255.568359" xlink:href="#LiberationSans-121"/>
     </g>
    </g>
    <g id="line2d_47">
     <path d="M 601.051563 181.0875 
L 621.051563 181.0875 
" style="fill:none;stroke:#7516fd;stroke-dasharray:6.475,2.8;stroke-dashoffset:0;stroke-width:1.75;"/>
    </g>
    <g id="line2d_48"/>
    <g id="text_25">
     <!-- US -->
     <defs>
      <path d="M 35.6875 -0.984375 
Q 30.03125 -0.984375 24.953125 0.53125 
Q 19.875 2.046875 16.03125 5.25 
Q 12.203125 8.453125 9.953125 13.359375 
Q 7.71875 18.265625 7.71875 25 
L 7.71875 68.796875 
L 17.046875 68.796875 
L 17.046875 25.78125 
Q 17.046875 20.5625 18.4375 16.921875 
Q 19.828125 13.28125 22.3125 10.984375 
Q 24.8125 8.6875 28.203125 7.640625 
Q 31.59375 6.59375 35.640625 6.59375 
Q 39.65625 6.59375 43.21875 7.65625 
Q 46.78125 8.734375 49.46875 11.078125 
Q 52.15625 13.421875 53.6875 17.203125 
Q 55.21875 21 55.21875 26.421875 
L 55.21875 68.796875 
L 64.5 68.796875 
L 64.5 25.875 
Q 64.5 19 62.234375 13.9375 
Q 59.96875 8.890625 56.0625 5.5625 
Q 52.15625 2.25 46.90625 0.625 
Q 41.65625 -0.984375 35.6875 -0.984375 
z
" id="LiberationSans-85"/>
     </defs>
     <g style="fill:#262626;" transform="translate(629.051563 184.5875)scale(0.1 -0.1)">
      <use xlink:href="#LiberationSans-85"/>
      <use x="72.216797" xlink:href="#LiberationSans-83"/>
     </g>
    </g>
    <g id="line2d_49">
     <path d="M 601.051563 195.409375 
L 621.051563 195.409375 
" style="fill:none;stroke:#89f9c9;stroke-linecap:round;stroke-width:1.75;"/>
    </g>
    <g id="line2d_50"/>
    <g id="text_26">
     <!-- United Kingdom -->
     <defs>
      <path d="M 54 0 
L 26.515625 33.203125 
L 17.53125 26.375 
L 17.53125 0 
L 8.203125 0 
L 8.203125 68.796875 
L 17.53125 68.796875 
L 17.53125 34.328125 
L 50.6875 68.796875 
L 61.671875 68.796875 
L 32.375 38.921875 
L 65.578125 0 
z
" id="LiberationSans-75"/>
     </defs>
     <g style="fill:#262626;" transform="translate(629.051563 198.909375)scale(0.1 -0.1)">
      <use xlink:href="#LiberationSans-85"/>
      <use x="72.216797" xlink:href="#LiberationSans-110"/>
      <use x="127.832031" xlink:href="#LiberationSans-105"/>
      <use x="150.048828" xlink:href="#LiberationSans-116"/>
      <use x="177.832031" xlink:href="#LiberationSans-101"/>
      <use x="233.447266" xlink:href="#LiberationSans-100"/>
      <use x="289.0625" xlink:href="#LiberationSans-32"/>
      <use x="316.845703" xlink:href="#LiberationSans-75"/>
      <use x="383.544922" xlink:href="#LiberationSans-105"/>
      <use x="405.761719" xlink:href="#LiberationSans-110"/>
      <use x="461.376953" xlink:href="#LiberationSans-103"/>
      <use x="516.992188" xlink:href="#LiberationSans-100"/>
      <use x="572.607422" xlink:href="#LiberationSans-111"/>
      <use x="628.222656" xlink:href="#LiberationSans-109"/>
     </g>
    </g>
   </g>
  </g>
 </g>
 <defs>
  <clipPath id="p92e175f244">
   <rect height="298.419036" width="654.91" x="54.29" y="10.8"/>
  </clipPath>
 </defs>
</svg>
