<?xml version="1.0" encoding="utf-8" standalone="no"?>
<!DOCTYPE svg PUBLIC "-//W3C//DTD SVG 1.1//EN"
  "http://www.w3.org/Graphics/SVG/1.1/DTD/svg11.dtd">
<!-- Created with matplotlib (https://matplotlib.org/) -->
<svg height="360pt" version="1.1" viewBox="0 0 720 360" width="720pt" xmlns="http://www.w3.org/2000/svg" xmlns:xlink="http://www.w3.org/1999/xlink">
 <defs>
  <style type="text/css">
*{stroke-linecap:butt;stroke-linejoin:round;}
  </style>
 </defs>
 <g id="figure_1">
  <g id="patch_1">
   <path d="M 0 360 
L 720 360 
L 720 0 
L 0 0 
z
" style="fill:#ffffff;"/>
  </g>
  <g id="axes_1">
   <g id="patch_2">
    <path d="M 48.177724 309.155396 
L 706.325275 309.155396 
L 706.325275 10.8 
L 48.177724 10.8 
z
" style="fill:#eaeaf2;"/>
   </g>
   <g id="matplotlib.axis_1">
    <g id="xtick_1">
     <g id="line2d_1"/>
     <g id="text_1">
      <!-- 0 -->
      <defs>
       <path d="M 51.703125 34.421875 
Q 51.703125 24.515625 49.828125 17.75 
Q 47.953125 10.984375 44.703125 6.8125 
Q 41.453125 2.640625 37.0625 0.828125 
Q 32.671875 -0.984375 27.6875 -0.984375 
Q 22.65625 -0.984375 18.3125 0.828125 
Q 13.96875 2.640625 10.765625 6.78125 
Q 7.5625 10.9375 5.734375 17.703125 
Q 3.90625 24.46875 3.90625 34.421875 
Q 3.90625 44.828125 5.734375 51.640625 
Q 7.5625 58.453125 10.78125 62.5 
Q 14.015625 66.546875 18.40625 68.1875 
Q 22.796875 69.828125 27.984375 69.828125 
Q 32.90625 69.828125 37.21875 68.1875 
Q 41.546875 66.546875 44.765625 62.5 
Q 48 58.453125 49.84375 51.640625 
Q 51.703125 44.828125 51.703125 34.421875 
z
M 42.78125 34.421875 
Q 42.78125 42.625 41.796875 48.0625 
Q 40.828125 53.515625 38.921875 56.765625 
Q 37.015625 60.015625 34.25 61.359375 
Q 31.5 62.703125 27.984375 62.703125 
Q 24.265625 62.703125 21.4375 61.328125 
Q 18.609375 59.96875 16.671875 56.71875 
Q 14.75 53.46875 13.765625 48.015625 
Q 12.796875 42.578125 12.796875 34.421875 
Q 12.796875 26.515625 13.796875 21.09375 
Q 14.796875 15.671875 16.71875 12.375 
Q 18.65625 9.078125 21.4375 7.640625 
Q 24.21875 6.203125 27.78125 6.203125 
Q 31.25 6.203125 34.03125 7.640625 
Q 36.8125 9.078125 38.734375 12.375 
Q 40.671875 15.671875 41.71875 21.09375 
Q 42.78125 26.515625 42.78125 34.421875 
z
" id="LiberationSans-48"/>
      </defs>
      <g style="fill:#262626;" transform="translate(77.955967 325.211887)rotate(-45)scale(0.1 -0.1)">
       <use xlink:href="#LiberationSans-48"/>
      </g>
     </g>
    </g>
    <g id="xtick_2">
     <g id="line2d_2"/>
     <g id="text_2">
      <!-- 20 -->
      <defs>
       <path d="M 5.03125 0 
L 5.03125 6.203125 
Q 7.515625 11.921875 11.109375 16.28125 
Q 14.703125 20.65625 18.65625 24.1875 
Q 22.609375 27.734375 26.484375 30.765625 
Q 30.375 33.796875 33.5 36.8125 
Q 36.625 39.84375 38.546875 43.15625 
Q 40.484375 46.484375 40.484375 50.6875 
Q 40.484375 53.609375 39.59375 55.828125 
Q 38.71875 58.0625 37.0625 59.5625 
Q 35.40625 61.078125 33.078125 61.828125 
Q 30.765625 62.59375 27.9375 62.59375 
Q 25.296875 62.59375 22.96875 61.859375 
Q 20.65625 61.140625 18.84375 59.671875 
Q 17.046875 58.203125 15.890625 56.03125 
Q 14.75 53.859375 14.40625 50.984375 
L 5.421875 51.8125 
Q 5.859375 55.515625 7.46875 58.78125 
Q 9.078125 62.0625 11.90625 64.53125 
Q 14.75 67 18.71875 68.40625 
Q 22.703125 69.828125 27.9375 69.828125 
Q 33.0625 69.828125 37.0625 68.609375 
Q 41.0625 67.390625 43.8125 64.984375 
Q 46.578125 62.59375 48.046875 59.078125 
Q 49.515625 55.5625 49.515625 50.984375 
Q 49.515625 47.515625 48.265625 44.390625 
Q 47.015625 41.265625 44.9375 38.421875 
Q 42.875 35.59375 40.140625 32.953125 
Q 37.40625 30.328125 34.421875 27.8125 
Q 31.453125 25.296875 28.421875 22.828125 
Q 25.390625 20.359375 22.71875 17.859375 
Q 20.0625 15.375 17.96875 12.8125 
Q 15.875 10.25 14.703125 7.46875 
L 50.59375 7.46875 
L 50.59375 0 
z
" id="LiberationSans-50"/>
      </defs>
      <g style="fill:#262626;" transform="translate(164.62928 329.144064)rotate(-45)scale(0.1 -0.1)">
       <use xlink:href="#LiberationSans-50"/>
       <use x="55.615234" xlink:href="#LiberationSans-48"/>
      </g>
     </g>
    </g>
    <g id="xtick_3">
     <g id="line2d_3"/>
     <g id="text_3">
      <!-- 40 -->
      <defs>
       <path d="M 43.015625 15.578125 
L 43.015625 0 
L 34.71875 0 
L 34.71875 15.578125 
L 2.296875 15.578125 
L 2.296875 22.40625 
L 33.796875 68.796875 
L 43.015625 68.796875 
L 43.015625 22.515625 
L 52.6875 22.515625 
L 52.6875 15.578125 
z
M 34.71875 58.890625 
Q 34.625 58.640625 34.234375 57.9375 
Q 33.84375 57.234375 33.34375 56.34375 
Q 32.859375 55.46875 32.34375 54.5625 
Q 31.84375 53.65625 31.453125 53.078125 
L 13.8125 27.09375 
Q 13.578125 26.703125 13.109375 26.0625 
Q 12.640625 25.4375 12.15625 24.78125 
Q 11.671875 24.125 11.171875 23.484375 
Q 10.6875 22.859375 10.40625 22.515625 
L 34.71875 22.515625 
z
" id="LiberationSans-52"/>
      </defs>
      <g style="fill:#262626;" transform="translate(253.268681 329.144064)rotate(-45)scale(0.1 -0.1)">
       <use xlink:href="#LiberationSans-52"/>
       <use x="55.615234" xlink:href="#LiberationSans-48"/>
      </g>
     </g>
    </g>
    <g id="xtick_4">
     <g id="line2d_4"/>
     <g id="text_4">
      <!-- 60 -->
      <defs>
       <path d="M 51.21875 22.515625 
Q 51.21875 17.328125 49.78125 13 
Q 48.34375 8.6875 45.53125 5.578125 
Q 42.71875 2.484375 38.5625 0.75 
Q 34.421875 -0.984375 29 -0.984375 
Q 23 -0.984375 18.5 1.3125 
Q 14.015625 3.609375 11.03125 7.921875 
Q 8.0625 12.25 6.5625 18.53125 
Q 5.078125 24.8125 5.078125 32.8125 
Q 5.078125 42 6.765625 48.921875 
Q 8.453125 55.859375 11.625 60.5 
Q 14.796875 65.140625 19.359375 67.484375 
Q 23.921875 69.828125 29.6875 69.828125 
Q 33.203125 69.828125 36.28125 69.09375 
Q 39.359375 68.359375 41.875 66.71875 
Q 44.390625 65.09375 46.28125 62.40625 
Q 48.1875 59.71875 49.3125 55.8125 
L 40.921875 54.296875 
Q 39.546875 58.734375 36.546875 60.71875 
Q 33.546875 62.703125 29.59375 62.703125 
Q 25.984375 62.703125 23.046875 60.984375 
Q 20.125 59.28125 18.0625 55.875 
Q 16.015625 52.484375 14.90625 47.359375 
Q 13.8125 42.234375 13.8125 35.40625 
Q 16.21875 39.84375 20.5625 42.15625 
Q 24.90625 44.484375 30.515625 44.484375 
Q 35.203125 44.484375 39.015625 42.96875 
Q 42.828125 41.453125 45.53125 38.59375 
Q 48.25 35.75 49.734375 31.671875 
Q 51.21875 27.59375 51.21875 22.515625 
z
M 42.28125 22.125 
Q 42.28125 25.6875 41.40625 28.5625 
Q 40.53125 31.453125 38.765625 33.46875 
Q 37.015625 35.5 34.421875 36.59375 
Q 31.84375 37.703125 28.421875 37.703125 
Q 26.03125 37.703125 23.578125 36.984375 
Q 21.140625 36.28125 19.15625 34.6875 
Q 17.1875 33.109375 15.9375 30.515625 
Q 14.703125 27.9375 14.703125 24.21875 
Q 14.703125 20.40625 15.671875 17.109375 
Q 16.65625 13.8125 18.484375 11.375 
Q 20.3125 8.9375 22.890625 7.515625 
Q 25.484375 6.109375 28.71875 6.109375 
Q 31.890625 6.109375 34.40625 7.203125 
Q 36.921875 8.296875 38.671875 10.375 
Q 40.4375 12.453125 41.359375 15.421875 
Q 42.28125 18.40625 42.28125 22.125 
z
" id="LiberationSans-54"/>
      </defs>
      <g style="fill:#262626;" transform="translate(341.908082 329.144064)rotate(-45)scale(0.1 -0.1)">
       <use xlink:href="#LiberationSans-54"/>
       <use x="55.615234" xlink:href="#LiberationSans-48"/>
      </g>
     </g>
    </g>
    <g id="xtick_5">
     <g id="line2d_5"/>
     <g id="text_5">
      <!-- 80 -->
      <defs>
       <path d="M 51.265625 19.1875 
Q 51.265625 14.796875 49.875 11.109375 
Q 48.484375 7.421875 45.625 4.734375 
Q 42.78125 2.046875 38.328125 0.53125 
Q 33.890625 -0.984375 27.828125 -0.984375 
Q 21.78125 -0.984375 17.359375 0.53125 
Q 12.9375 2.046875 10.03125 4.703125 
Q 7.125 7.375 5.734375 11.0625 
Q 4.34375 14.75 4.34375 19.09375 
Q 4.34375 22.859375 5.484375 25.78125 
Q 6.640625 28.71875 8.5625 30.828125 
Q 10.5 32.953125 12.96875 34.25 
Q 15.4375 35.546875 18.0625 35.984375 
L 18.0625 36.1875 
Q 15.1875 36.859375 12.90625 38.375 
Q 10.640625 39.890625 9.09375 42.015625 
Q 7.5625 44.140625 6.75 46.71875 
Q 5.953125 49.3125 5.953125 52.203125 
Q 5.953125 55.8125 7.34375 59 
Q 8.734375 62.203125 11.46875 64.625 
Q 14.203125 67.046875 18.25 68.4375 
Q 22.3125 69.828125 27.640625 69.828125 
Q 33.25 69.828125 37.375 68.40625 
Q 41.5 67 44.203125 64.578125 
Q 46.921875 62.15625 48.234375 58.9375 
Q 49.5625 55.71875 49.5625 52.09375 
Q 49.5625 49.265625 48.75 46.671875 
Q 47.953125 44.09375 46.40625 41.96875 
Q 44.875 39.84375 42.59375 38.34375 
Q 40.328125 36.859375 37.359375 36.28125 
L 37.359375 36.078125 
Q 40.328125 35.59375 42.859375 34.296875 
Q 45.40625 33.015625 47.265625 30.890625 
Q 49.125 28.765625 50.1875 25.828125 
Q 51.265625 22.90625 51.265625 19.1875 
z
M 40.4375 51.609375 
Q 40.4375 54.203125 39.765625 56.34375 
Q 39.109375 58.5 37.59375 60.03125 
Q 36.078125 61.578125 33.640625 62.421875 
Q 31.203125 63.28125 27.640625 63.28125 
Q 24.171875 63.28125 21.78125 62.421875 
Q 19.390625 61.578125 17.84375 60.03125 
Q 16.3125 58.5 15.625 56.34375 
Q 14.9375 54.203125 14.9375 51.609375 
Q 14.9375 49.5625 15.46875 47.40625 
Q 16.015625 45.265625 17.421875 43.5 
Q 18.84375 41.75 21.328125 40.625 
Q 23.828125 39.5 27.734375 39.5 
Q 31.890625 39.5 34.40625 40.625 
Q 36.921875 41.75 38.25 43.5 
Q 39.59375 45.265625 40.015625 47.40625 
Q 40.4375 49.5625 40.4375 51.609375 
z
M 42.140625 20.015625 
Q 42.140625 22.515625 41.453125 24.828125 
Q 40.765625 27.15625 39.109375 28.9375 
Q 37.453125 30.71875 34.640625 31.8125 
Q 31.84375 32.90625 27.640625 32.90625 
Q 23.78125 32.90625 21.0625 31.8125 
Q 18.359375 30.71875 16.671875 28.90625 
Q 14.984375 27.09375 14.203125 24.71875 
Q 13.421875 22.359375 13.421875 19.828125 
Q 13.421875 16.65625 14.203125 14.03125 
Q 14.984375 11.421875 16.6875 9.546875 
Q 18.40625 7.671875 21.1875 6.640625 
Q 23.96875 5.609375 27.9375 5.609375 
Q 31.9375 5.609375 34.671875 6.640625 
Q 37.40625 7.671875 39.0625 9.546875 
Q 40.71875 11.421875 41.421875 14.078125 
Q 42.140625 16.75 42.140625 20.015625 
z
" id="LiberationSans-56"/>
      </defs>
      <g style="fill:#262626;" transform="translate(430.547483 329.144064)rotate(-45)scale(0.1 -0.1)">
       <use xlink:href="#LiberationSans-56"/>
       <use x="55.615234" xlink:href="#LiberationSans-48"/>
      </g>
     </g>
    </g>
    <g id="xtick_6">
     <g id="line2d_6"/>
     <g id="text_6">
      <!-- 100 -->
      <defs>
       <path d="M 7.625 0 
L 7.625 7.46875 
L 25.140625 7.46875 
L 25.140625 60.40625 
L 9.625 49.3125 
L 9.625 57.625 
L 25.875 68.796875 
L 33.984375 68.796875 
L 33.984375 7.46875 
L 50.734375 7.46875 
L 50.734375 0 
z
" id="LiberationSans-49"/>
      </defs>
      <g style="fill:#262626;" transform="translate(517.220795 333.07624)rotate(-45)scale(0.1 -0.1)">
       <use xlink:href="#LiberationSans-49"/>
       <use x="55.615234" xlink:href="#LiberationSans-48"/>
       <use x="111.230469" xlink:href="#LiberationSans-48"/>
      </g>
     </g>
    </g>
    <g id="xtick_7">
     <g id="line2d_7"/>
     <g id="text_7">
      <!-- 120 -->
      <g style="fill:#262626;" transform="translate(605.860196 333.07624)rotate(-45)scale(0.1 -0.1)">
       <use xlink:href="#LiberationSans-49"/>
       <use x="55.615234" xlink:href="#LiberationSans-50"/>
       <use x="111.230469" xlink:href="#LiberationSans-48"/>
      </g>
     </g>
    </g>
    <g id="xtick_8">
     <g id="line2d_8"/>
     <g id="text_8">
      <!-- 140 -->
      <g style="fill:#262626;" transform="translate(694.499597 333.07624)rotate(-45)scale(0.1 -0.1)">
       <use xlink:href="#LiberationSans-49"/>
       <use x="55.615234" xlink:href="#LiberationSans-52"/>
       <use x="111.230469" xlink:href="#LiberationSans-48"/>
      </g>
     </g>
    </g>
    <g id="text_9">
     <!-- Days since case nº20 -->
     <defs>
      <path d="M 67.4375 35.109375 
Q 67.4375 26.515625 64.84375 19.9375 
Q 62.25 13.375 57.75 8.953125 
Q 53.265625 4.546875 47.140625 2.265625 
Q 41.015625 0 33.9375 0 
L 8.203125 0 
L 8.203125 68.796875 
L 30.953125 68.796875 
Q 38.921875 68.796875 45.625 66.8125 
Q 52.34375 64.84375 57.171875 60.71875 
Q 62.015625 56.59375 64.71875 50.234375 
Q 67.4375 43.890625 67.4375 35.109375 
z
M 58.0625 35.109375 
Q 58.0625 42.09375 56.046875 47.046875 
Q 54.046875 52 50.4375 55.171875 
Q 46.828125 58.34375 41.796875 59.828125 
Q 36.765625 61.328125 30.765625 61.328125 
L 17.53125 61.328125 
L 17.53125 7.46875 
L 32.859375 7.46875 
Q 38.28125 7.46875 42.890625 9.21875 
Q 47.515625 10.984375 50.875 14.453125 
Q 54.25 17.921875 56.15625 23.09375 
Q 58.0625 28.265625 58.0625 35.109375 
z
" id="LiberationSans-68"/>
      <path d="M 20.21875 -0.984375 
Q 12.25 -0.984375 8.25 3.21875 
Q 4.25 7.421875 4.25 14.75 
Q 4.25 19.96875 6.21875 23.3125 
Q 8.203125 26.65625 11.390625 28.5625 
Q 14.59375 30.46875 18.6875 31.203125 
Q 22.796875 31.9375 27.046875 32.03125 
L 38.921875 32.234375 
L 38.921875 35.109375 
Q 38.921875 38.375 38.234375 40.671875 
Q 37.546875 42.96875 36.125 44.375 
Q 34.71875 45.796875 32.59375 46.453125 
Q 30.46875 47.125 27.59375 47.125 
Q 25.046875 47.125 23 46.75 
Q 20.953125 46.390625 19.4375 45.4375 
Q 17.921875 44.484375 16.984375 42.84375 
Q 16.0625 41.21875 15.765625 38.71875 
L 6.59375 39.546875 
Q 7.078125 42.671875 8.4375 45.28125 
Q 9.8125 47.90625 12.328125 49.796875 
Q 14.84375 51.703125 18.625 52.75 
Q 22.40625 53.8125 27.78125 53.8125 
Q 37.75 53.8125 42.765625 49.234375 
Q 47.796875 44.671875 47.796875 36.03125 
L 47.796875 13.28125 
Q 47.796875 9.375 48.828125 7.390625 
Q 49.859375 5.421875 52.734375 5.421875 
Q 53.46875 5.421875 54.203125 5.515625 
Q 54.9375 5.609375 55.609375 5.765625 
L 55.609375 0.296875 
Q 53.953125 -0.09375 52.3125 -0.28125 
Q 50.6875 -0.484375 48.828125 -0.484375 
Q 46.34375 -0.484375 44.5625 0.171875 
Q 42.78125 0.828125 41.65625 2.171875 
Q 40.53125 3.515625 39.9375 5.484375 
Q 39.359375 7.46875 39.203125 10.109375 
L 38.921875 10.109375 
Q 37.5 7.5625 35.8125 5.515625 
Q 34.125 3.46875 31.875 2.03125 
Q 29.640625 0.59375 26.78125 -0.1875 
Q 23.921875 -0.984375 20.21875 -0.984375 
z
M 22.21875 5.609375 
Q 26.421875 5.609375 29.5625 7.140625 
Q 32.71875 8.6875 34.78125 11.078125 
Q 36.859375 13.484375 37.890625 16.3125 
Q 38.921875 19.140625 38.921875 21.734375 
L 38.921875 26.078125 
L 29.296875 25.875 
Q 26.078125 25.828125 23.171875 25.40625 
Q 20.265625 25 18.0625 23.78125 
Q 15.875 22.5625 14.578125 20.359375 
Q 13.28125 18.171875 13.28125 14.59375 
Q 13.28125 10.296875 15.59375 7.953125 
Q 17.921875 5.609375 22.21875 5.609375 
z
" id="LiberationSans-97"/>
      <path d="M 29.5 0 
Q 27.640625 -4.78125 25.703125 -8.609375 
Q 23.78125 -12.453125 21.390625 -15.15625 
Q 19 -17.875 16.0625 -19.3125 
Q 13.140625 -20.75 9.328125 -20.75 
Q 7.671875 -20.75 6.25 -20.65625 
Q 4.828125 -20.5625 3.265625 -20.21875 
L 3.265625 -13.625 
Q 4.203125 -13.765625 5.375 -13.84375 
Q 6.546875 -13.921875 7.375 -13.921875 
Q 11.234375 -13.921875 14.546875 -11.03125 
Q 17.875 -8.15625 20.359375 -1.859375 
L 21.1875 0.25 
L 0.25 52.828125 
L 9.625 52.828125 
L 20.75 23.640625 
Q 21.234375 22.3125 21.984375 20.109375 
Q 22.75 17.921875 23.5 15.71875 
Q 24.265625 13.53125 24.84375 11.765625 
Q 25.4375 10.015625 25.53125 9.578125 
Q 25.6875 10.109375 26.25 11.6875 
Q 26.8125 13.28125 27.515625 15.234375 
Q 28.21875 17.1875 28.953125 19.1875 
Q 29.6875 21.1875 30.171875 22.65625 
L 40.53125 52.828125 
L 49.8125 52.828125 
z
" id="LiberationSans-121"/>
      <path d="M 46.390625 14.59375 
Q 46.390625 10.890625 44.9375 7.984375 
Q 43.5 5.078125 40.765625 3.09375 
Q 38.03125 1.125 34.046875 0.0625 
Q 30.078125 -0.984375 24.953125 -0.984375 
Q 20.359375 -0.984375 16.671875 -0.265625 
Q 12.984375 0.4375 10.203125 2 
Q 7.421875 3.5625 5.53125 6.125 
Q 3.65625 8.6875 2.78125 12.40625 
L 10.546875 13.921875 
Q 11.671875 9.671875 15.1875 7.6875 
Q 18.703125 5.71875 24.953125 5.71875 
Q 27.78125 5.71875 30.140625 6.109375 
Q 32.515625 6.5 34.21875 7.453125 
Q 35.9375 8.40625 36.890625 9.984375 
Q 37.84375 11.578125 37.84375 13.921875 
Q 37.84375 16.3125 36.71875 17.84375 
Q 35.59375 19.390625 33.59375 20.40625 
Q 31.59375 21.4375 28.734375 22.1875 
Q 25.875 22.953125 22.46875 23.875 
Q 19.28125 24.703125 16.15625 25.734375 
Q 13.03125 26.765625 10.515625 28.4375 
Q 8.015625 30.125 6.453125 32.609375 
Q 4.890625 35.109375 4.890625 38.875 
Q 4.890625 46.09375 10.03125 49.875 
Q 15.1875 53.65625 25.046875 53.65625 
Q 33.796875 53.65625 38.9375 50.578125 
Q 44.09375 47.515625 45.453125 40.71875 
L 37.546875 39.75 
Q 37.109375 41.796875 35.9375 43.1875 
Q 34.765625 44.578125 33.109375 45.4375 
Q 31.453125 46.296875 29.375 46.65625 
Q 27.296875 47.015625 25.046875 47.015625 
Q 19.09375 47.015625 16.25 45.203125 
Q 13.421875 43.40625 13.421875 39.75 
Q 13.421875 37.59375 14.46875 36.203125 
Q 15.53125 34.8125 17.40625 33.859375 
Q 19.28125 32.90625 21.921875 32.203125 
Q 24.5625 31.5 27.734375 30.71875 
Q 29.828125 30.171875 32.03125 29.5625 
Q 34.234375 28.953125 36.296875 28.09375 
Q 38.375 27.25 40.203125 26.09375 
Q 42.046875 24.953125 43.40625 23.34375 
Q 44.78125 21.734375 45.578125 19.578125 
Q 46.390625 17.4375 46.390625 14.59375 
z
" id="LiberationSans-115"/>
      <path id="LiberationSans-32"/>
      <path d="M 6.6875 64.0625 
L 6.6875 72.46875 
L 15.484375 72.46875 
L 15.484375 64.0625 
z
M 6.6875 0 
L 6.6875 52.828125 
L 15.484375 52.828125 
L 15.484375 0 
z
" id="LiberationSans-105"/>
      <path d="M 40.28125 0 
L 40.28125 33.5 
Q 40.28125 37.359375 39.71875 39.9375 
Q 39.15625 42.53125 37.890625 44.109375 
Q 36.625 45.703125 34.546875 46.359375 
Q 32.46875 47.015625 29.390625 47.015625 
Q 26.265625 47.015625 23.75 45.921875 
Q 21.234375 44.828125 19.453125 42.75 
Q 17.671875 40.671875 16.6875 37.625 
Q 15.71875 34.578125 15.71875 30.609375 
L 15.71875 0 
L 6.9375 0 
L 6.9375 41.546875 
Q 6.9375 43.21875 6.90625 45.046875 
Q 6.890625 46.875 6.828125 48.5 
Q 6.78125 50.140625 6.734375 51.3125 
Q 6.6875 52.484375 6.640625 52.828125 
L 14.9375 52.828125 
Q 14.984375 52.59375 15.03125 51.515625 
Q 15.09375 50.4375 15.15625 49.046875 
Q 15.234375 47.65625 15.28125 46.21875 
Q 15.328125 44.78125 15.328125 43.796875 
L 15.484375 43.796875 
Q 16.75 46.09375 18.265625 47.953125 
Q 19.78125 49.8125 21.78125 51.09375 
Q 23.78125 52.390625 26.359375 53.09375 
Q 28.953125 53.8125 32.375 53.8125 
Q 36.765625 53.8125 39.9375 52.734375 
Q 43.109375 51.65625 45.15625 49.40625 
Q 47.21875 47.171875 48.171875 43.625 
Q 49.125 40.09375 49.125 35.203125 
L 49.125 0 
z
" id="LiberationSans-110"/>
      <path d="M 13.421875 26.65625 
Q 13.421875 22.125 14.078125 18.3125 
Q 14.75 14.5 16.3125 11.734375 
Q 17.875 8.984375 20.4375 7.46875 
Q 23 5.953125 26.765625 5.953125 
Q 31.453125 5.953125 34.59375 8.484375 
Q 37.75 11.03125 38.484375 16.3125 
L 47.359375 15.71875 
Q 46.921875 12.453125 45.453125 9.421875 
Q 44 6.390625 41.484375 4.09375 
Q 38.96875 1.8125 35.34375 0.40625 
Q 31.734375 -0.984375 27 -0.984375 
Q 20.796875 -0.984375 16.453125 1.109375 
Q 12.109375 3.21875 9.390625 6.90625 
Q 6.6875 10.59375 5.46875 15.59375 
Q 4.25 20.609375 4.25 26.46875 
Q 4.25 31.78125 5.125 35.859375 
Q 6 39.9375 7.59375 42.984375 
Q 9.1875 46.046875 11.328125 48.125 
Q 13.484375 50.203125 15.984375 51.4375 
Q 18.5 52.6875 21.28125 53.25 
Q 24.078125 53.8125 26.90625 53.8125 
Q 31.34375 53.8125 34.8125 52.59375 
Q 38.28125 51.375 40.796875 49.25 
Q 43.3125 47.125 44.875 44.234375 
Q 46.4375 41.359375 47.078125 38.03125 
L 38.03125 37.359375 
Q 37.359375 41.75 34.5625 44.328125 
Q 31.78125 46.921875 26.65625 46.921875 
Q 22.90625 46.921875 20.390625 45.671875 
Q 17.875 44.4375 16.3125 41.921875 
Q 14.75 39.40625 14.078125 35.59375 
Q 13.421875 31.78125 13.421875 26.65625 
z
" id="LiberationSans-99"/>
      <path d="M 13.484375 24.5625 
Q 13.484375 20.40625 14.328125 16.90625 
Q 15.1875 13.421875 16.96875 10.90625 
Q 18.75 8.40625 21.53125 7 
Q 24.3125 5.609375 28.21875 5.609375 
Q 33.9375 5.609375 37.375 7.90625 
Q 40.828125 10.203125 42.046875 13.71875 
L 49.75 11.53125 
Q 48.921875 9.328125 47.4375 7.109375 
Q 45.953125 4.890625 43.453125 3.09375 
Q 40.96875 1.3125 37.234375 0.15625 
Q 33.5 -0.984375 28.21875 -0.984375 
Q 16.5 -0.984375 10.375 6 
Q 4.25 12.984375 4.25 26.765625 
Q 4.25 34.1875 6.09375 39.328125 
Q 7.953125 44.484375 11.171875 47.703125 
Q 14.40625 50.921875 18.703125 52.359375 
Q 23 53.8125 27.875 53.8125 
Q 34.515625 53.8125 38.984375 51.65625 
Q 43.453125 49.515625 46.15625 45.71875 
Q 48.875 41.9375 50.015625 36.8125 
Q 51.171875 31.6875 51.171875 25.734375 
L 51.171875 24.5625 
z
M 42.09375 31.296875 
Q 41.359375 39.65625 37.84375 43.484375 
Q 34.328125 47.3125 27.734375 47.3125 
Q 25.53125 47.3125 23.109375 46.609375 
Q 20.703125 45.90625 18.65625 44.09375 
Q 16.609375 42.28125 15.1875 39.171875 
Q 13.765625 36.078125 13.578125 31.296875 
z
" id="LiberationSans-101"/>
      <path d="M 35.296875 50.875 
Q 35.296875 41.703125 31 36.734375 
Q 26.703125 31.78125 18.171875 31.78125 
Q 9.96875 31.78125 5.640625 36.6875 
Q 1.3125 41.609375 1.3125 50.875 
Q 1.3125 55.328125 2.359375 58.859375 
Q 3.421875 62.40625 5.546875 64.859375 
Q 7.671875 67.328125 10.859375 68.625 
Q 14.0625 69.921875 18.359375 69.921875 
Q 22.90625 69.921875 26.09375 68.625 
Q 29.296875 67.328125 31.34375 64.890625 
Q 33.40625 62.453125 34.34375 58.90625 
Q 35.296875 55.375 35.296875 50.875 
z
M 28.03125 50.875 
Q 28.03125 54.9375 27.421875 57.609375 
Q 26.8125 60.296875 25.578125 61.890625 
Q 24.359375 63.484375 22.59375 64.140625 
Q 20.84375 64.796875 18.5 64.796875 
Q 16.15625 64.796875 14.328125 64.140625 
Q 12.5 63.484375 11.25 61.859375 
Q 10.015625 60.25 9.375 57.5625 
Q 8.734375 54.890625 8.734375 50.875 
Q 8.734375 46.78125 9.421875 44.09375 
Q 10.109375 41.40625 11.34375 39.796875 
Q 12.59375 38.1875 14.296875 37.546875 
Q 16.015625 36.921875 18.109375 36.921875 
Q 20.515625 36.921875 22.34375 37.546875 
Q 24.171875 38.1875 25.4375 39.796875 
Q 26.703125 41.40625 27.359375 44.09375 
Q 28.03125 46.78125 28.03125 50.875 
z
" id="LiberationSans-186"/>
     </defs>
     <g style="fill:#262626;" transform="translate(324.496187 346.51505)scale(0.11 -0.11)">
      <use xlink:href="#LiberationSans-68"/>
      <use x="72.216797" xlink:href="#LiberationSans-97"/>
      <use x="127.832031" xlink:href="#LiberationSans-121"/>
      <use x="177.832031" xlink:href="#LiberationSans-115"/>
      <use x="227.832031" xlink:href="#LiberationSans-32"/>
      <use x="255.615234" xlink:href="#LiberationSans-115"/>
      <use x="305.615234" xlink:href="#LiberationSans-105"/>
      <use x="327.832031" xlink:href="#LiberationSans-110"/>
      <use x="383.447266" xlink:href="#LiberationSans-99"/>
      <use x="433.447266" xlink:href="#LiberationSans-101"/>
      <use x="489.0625" xlink:href="#LiberationSans-32"/>
      <use x="516.845703" xlink:href="#LiberationSans-99"/>
      <use x="566.845703" xlink:href="#LiberationSans-97"/>
      <use x="622.460938" xlink:href="#LiberationSans-115"/>
      <use x="672.460938" xlink:href="#LiberationSans-101"/>
      <use x="728.076172" xlink:href="#LiberationSans-32"/>
      <use x="755.859375" xlink:href="#LiberationSans-110"/>
      <use x="811.474609" xlink:href="#LiberationSans-186"/>
      <use x="847.998047" xlink:href="#LiberationSans-50"/>
      <use x="903.613281" xlink:href="#LiberationSans-48"/>
     </g>
    </g>
   </g>
   <g id="matplotlib.axis_2">
    <g id="ytick_1">
     <g id="line2d_9"/>
     <g id="text_10">
      <!-- $\mathdefault{10^{2}}$ -->
      <g style="fill:#262626;" transform="translate(25.777724 249.799037)scale(0.1 -0.1)">
       <use transform="translate(0 0.140625)" xlink:href="#LiberationSans-49"/>
       <use transform="translate(55.615234 0.140625)" xlink:href="#LiberationSans-48"/>
       <use transform="translate(112.154961 37.120312)scale(0.7)" xlink:href="#LiberationSans-50"/>
      </g>
     </g>
    </g>
    <g id="ytick_2">
     <g id="line2d_10"/>
     <g id="text_11">
      <!-- $\mathdefault{10^{3}}$ -->
      <defs>
       <path d="M 51.21875 19 
Q 51.21875 14.265625 49.671875 10.546875 
Q 48.140625 6.84375 45.1875 4.265625 
Q 42.234375 1.703125 37.859375 0.359375 
Q 33.5 -0.984375 27.875 -0.984375 
Q 21.484375 -0.984375 17.109375 0.609375 
Q 12.75 2.203125 9.90625 4.8125 
Q 7.078125 7.421875 5.65625 10.765625 
Q 4.25 14.109375 3.8125 17.671875 
L 12.890625 18.5 
Q 13.28125 15.765625 14.328125 13.515625 
Q 15.375 11.28125 17.1875 9.671875 
Q 19 8.0625 21.625 7.171875 
Q 24.265625 6.296875 27.875 6.296875 
Q 34.515625 6.296875 38.296875 9.5625 
Q 42.09375 12.84375 42.09375 19.28125 
Q 42.09375 23.09375 40.40625 25.40625 
Q 38.71875 27.734375 36.203125 29.03125 
Q 33.6875 30.328125 30.734375 30.765625 
Q 27.78125 31.203125 25.296875 31.203125 
L 20.3125 31.203125 
L 20.3125 38.8125 
L 25.09375 38.8125 
Q 27.59375 38.8125 30.265625 39.328125 
Q 32.953125 39.84375 35.171875 41.1875 
Q 37.40625 42.53125 38.84375 44.828125 
Q 40.28125 47.125 40.28125 50.6875 
Q 40.28125 56.203125 37.03125 59.390625 
Q 33.796875 62.59375 27.390625 62.59375 
Q 21.578125 62.59375 17.984375 59.609375 
Q 14.40625 56.640625 13.8125 51.21875 
L 4.984375 51.90625 
Q 5.515625 56.453125 7.46875 59.8125 
Q 9.421875 63.1875 12.421875 65.40625 
Q 15.4375 67.625 19.28125 68.71875 
Q 23.140625 69.828125 27.484375 69.828125 
Q 33.25 69.828125 37.390625 68.375 
Q 41.546875 66.9375 44.1875 64.46875 
Q 46.828125 62.015625 48.0625 58.6875 
Q 49.3125 55.375 49.3125 51.609375 
Q 49.3125 48.578125 48.484375 45.9375 
Q 47.65625 43.3125 45.890625 41.203125 
Q 44.140625 39.109375 41.421875 37.59375 
Q 38.71875 36.078125 34.90625 35.296875 
L 34.90625 35.109375 
Q 39.0625 34.671875 42.140625 33.21875 
Q 45.21875 31.78125 47.21875 29.625 
Q 49.21875 27.484375 50.21875 24.75 
Q 51.21875 22.015625 51.21875 19 
z
" id="LiberationSans-51"/>
      </defs>
      <g style="fill:#262626;" transform="translate(25.777724 176.887272)scale(0.1 -0.1)">
       <use transform="translate(0 0.140625)" xlink:href="#LiberationSans-49"/>
       <use transform="translate(55.615234 0.140625)" xlink:href="#LiberationSans-48"/>
       <use transform="translate(112.154961 37.120312)scale(0.7)" xlink:href="#LiberationSans-51"/>
      </g>
     </g>
    </g>
    <g id="ytick_3">
     <g id="line2d_11"/>
     <g id="text_12">
      <!-- $\mathdefault{10^{4}}$ -->
      <g style="fill:#262626;" transform="translate(25.777724 103.975507)scale(0.1 -0.1)">
       <use transform="translate(0 0.8625)" xlink:href="#LiberationSans-49"/>
       <use transform="translate(55.615234 0.8625)" xlink:href="#LiberationSans-48"/>
       <use transform="translate(112.154961 37.842188)scale(0.7)" xlink:href="#LiberationSans-52"/>
      </g>
     </g>
    </g>
    <g id="ytick_4">
     <g id="line2d_12"/>
     <g id="text_13">
      <!-- $\mathdefault{10^{5}}$ -->
      <defs>
       <path d="M 51.421875 22.40625 
Q 51.421875 17.234375 49.859375 12.9375 
Q 48.296875 8.640625 45.21875 5.53125 
Q 42.140625 2.4375 37.578125 0.71875 
Q 33.015625 -0.984375 27 -0.984375 
Q 21.578125 -0.984375 17.546875 0.28125 
Q 13.53125 1.5625 10.734375 3.78125 
Q 7.953125 6 6.3125 8.984375 
Q 4.6875 11.96875 4 15.375 
L 12.890625 16.40625 
Q 13.421875 14.453125 14.390625 12.625 
Q 15.375 10.796875 17.0625 9.34375 
Q 18.75 7.90625 21.21875 7.046875 
Q 23.6875 6.203125 27.203125 6.203125 
Q 30.609375 6.203125 33.390625 7.25 
Q 36.1875 8.296875 38.15625 10.34375 
Q 40.140625 12.40625 41.203125 15.375 
Q 42.28125 18.359375 42.28125 22.21875 
Q 42.28125 25.390625 41.25 28.046875 
Q 40.234375 30.71875 38.328125 32.640625 
Q 36.421875 34.578125 33.65625 35.640625 
Q 30.90625 36.71875 27.390625 36.71875 
Q 25.203125 36.71875 23.34375 36.328125 
Q 21.484375 35.9375 19.890625 35.25 
Q 18.3125 34.578125 17.015625 33.671875 
Q 15.71875 32.765625 14.59375 31.78125 
L 6 31.78125 
L 8.296875 68.796875 
L 47.40625 68.796875 
L 47.40625 61.328125 
L 16.3125 61.328125 
L 14.984375 39.5 
Q 17.328125 41.3125 20.84375 42.59375 
Q 24.359375 43.890625 29.203125 43.890625 
Q 34.328125 43.890625 38.421875 42.328125 
Q 42.53125 40.765625 45.40625 37.90625 
Q 48.296875 35.0625 49.859375 31.109375 
Q 51.421875 27.15625 51.421875 22.40625 
z
" id="LiberationSans-53"/>
      </defs>
      <g style="fill:#262626;" transform="translate(25.777724 31.063742)scale(0.1 -0.1)">
       <use transform="translate(0 0.8625)" xlink:href="#LiberationSans-49"/>
       <use transform="translate(55.615234 0.8625)" xlink:href="#LiberationSans-48"/>
       <use transform="translate(112.154961 37.842188)scale(0.7)" xlink:href="#LiberationSans-53"/>
      </g>
     </g>
    </g>
    <g id="ytick_5">
     <g id="line2d_13">
      <path clip-path="url(#p0d2c1d27af)" d="M 48.177724 297.138736 
L 706.325275 297.138736 
" style="fill:none;stroke:#ffffff;stroke-linecap:round;"/>
     </g>
     <g id="line2d_14"/>
    </g>
    <g id="ytick_6">
     <g id="line2d_15">
      <path clip-path="url(#p0d2c1d27af)" d="M 48.177724 284.299612 
L 706.325275 284.299612 
" style="fill:none;stroke:#ffffff;stroke-linecap:round;"/>
     </g>
     <g id="line2d_16"/>
    </g>
    <g id="ytick_7">
     <g id="line2d_17">
      <path clip-path="url(#p0d2c1d27af)" d="M 48.177724 275.190108 
L 706.325275 275.190108 
" style="fill:none;stroke:#ffffff;stroke-linecap:round;"/>
     </g>
     <g id="line2d_18"/>
    </g>
    <g id="ytick_8">
     <g id="line2d_19">
      <path clip-path="url(#p0d2c1d27af)" d="M 48.177724 268.124228 
L 706.325275 268.124228 
" style="fill:none;stroke:#ffffff;stroke-linecap:round;"/>
     </g>
     <g id="line2d_20"/>
    </g>
    <g id="ytick_9">
     <g id="line2d_21">
      <path clip-path="url(#p0d2c1d27af)" d="M 48.177724 262.350984 
L 706.325275 262.350984 
" style="fill:none;stroke:#ffffff;stroke-linecap:round;"/>
     </g>
     <g id="line2d_22"/>
    </g>
    <g id="ytick_10">
     <g id="line2d_23">
      <path clip-path="url(#p0d2c1d27af)" d="M 48.177724 257.469775 
L 706.325275 257.469775 
" style="fill:none;stroke:#ffffff;stroke-linecap:round;"/>
     </g>
     <g id="line2d_24"/>
    </g>
    <g id="ytick_11">
     <g id="line2d_25">
      <path clip-path="url(#p0d2c1d27af)" d="M 48.177724 253.24148 
L 706.325275 253.24148 
" style="fill:none;stroke:#ffffff;stroke-linecap:round;"/>
     </g>
     <g id="line2d_26"/>
    </g>
    <g id="ytick_12">
     <g id="line2d_27">
      <path clip-path="url(#p0d2c1d27af)" d="M 48.177724 249.511859 
L 706.325275 249.511859 
" style="fill:none;stroke:#ffffff;stroke-linecap:round;"/>
     </g>
     <g id="line2d_28"/>
    </g>
    <g id="ytick_13">
     <g id="line2d_29">
      <path clip-path="url(#p0d2c1d27af)" d="M 48.177724 224.226971 
L 706.325275 224.226971 
" style="fill:none;stroke:#ffffff;stroke-linecap:round;"/>
     </g>
     <g id="line2d_30"/>
    </g>
    <g id="ytick_14">
     <g id="line2d_31">
      <path clip-path="url(#p0d2c1d27af)" d="M 48.177724 211.387847 
L 706.325275 211.387847 
" style="fill:none;stroke:#ffffff;stroke-linecap:round;"/>
     </g>
     <g id="line2d_32"/>
    </g>
    <g id="ytick_15">
     <g id="line2d_33">
      <path clip-path="url(#p0d2c1d27af)" d="M 48.177724 202.278343 
L 706.325275 202.278343 
" style="fill:none;stroke:#ffffff;stroke-linecap:round;"/>
     </g>
     <g id="line2d_34"/>
    </g>
    <g id="ytick_16">
     <g id="line2d_35">
      <path clip-path="url(#p0d2c1d27af)" d="M 48.177724 195.212463 
L 706.325275 195.212463 
" style="fill:none;stroke:#ffffff;stroke-linecap:round;"/>
     </g>
     <g id="line2d_36"/>
    </g>
    <g id="ytick_17">
     <g id="line2d_37">
      <path clip-path="url(#p0d2c1d27af)" d="M 48.177724 189.439218 
L 706.325275 189.439218 
" style="fill:none;stroke:#ffffff;stroke-linecap:round;"/>
     </g>
     <g id="line2d_38"/>
    </g>
    <g id="ytick_18">
     <g id="line2d_39">
      <path clip-path="url(#p0d2c1d27af)" d="M 48.177724 184.55801 
L 706.325275 184.55801 
" style="fill:none;stroke:#ffffff;stroke-linecap:round;"/>
     </g>
     <g id="line2d_40"/>
    </g>
    <g id="ytick_19">
     <g id="line2d_41">
      <path clip-path="url(#p0d2c1d27af)" d="M 48.177724 180.329715 
L 706.325275 180.329715 
" style="fill:none;stroke:#ffffff;stroke-linecap:round;"/>
     </g>
     <g id="line2d_42"/>
    </g>
    <g id="ytick_20">
     <g id="line2d_43">
      <path clip-path="url(#p0d2c1d27af)" d="M 48.177724 176.600094 
L 706.325275 176.600094 
" style="fill:none;stroke:#ffffff;stroke-linecap:round;"/>
     </g>
     <g id="line2d_44"/>
    </g>
    <g id="ytick_21">
     <g id="line2d_45">
      <path clip-path="url(#p0d2c1d27af)" d="M 48.177724 151.315206 
L 706.325275 151.315206 
" style="fill:none;stroke:#ffffff;stroke-linecap:round;"/>
     </g>
     <g id="line2d_46"/>
    </g>
    <g id="ytick_22">
     <g id="line2d_47">
      <path clip-path="url(#p0d2c1d27af)" d="M 48.177724 138.476082 
L 706.325275 138.476082 
" style="fill:none;stroke:#ffffff;stroke-linecap:round;"/>
     </g>
     <g id="line2d_48"/>
    </g>
    <g id="ytick_23">
     <g id="line2d_49">
      <path clip-path="url(#p0d2c1d27af)" d="M 48.177724 129.366578 
L 706.325275 129.366578 
" style="fill:none;stroke:#ffffff;stroke-linecap:round;"/>
     </g>
     <g id="line2d_50"/>
    </g>
    <g id="ytick_24">
     <g id="line2d_51">
      <path clip-path="url(#p0d2c1d27af)" d="M 48.177724 122.300698 
L 706.325275 122.300698 
" style="fill:none;stroke:#ffffff;stroke-linecap:round;"/>
     </g>
     <g id="line2d_52"/>
    </g>
    <g id="ytick_25">
     <g id="line2d_53">
      <path clip-path="url(#p0d2c1d27af)" d="M 48.177724 116.527453 
L 706.325275 116.527453 
" style="fill:none;stroke:#ffffff;stroke-linecap:round;"/>
     </g>
     <g id="line2d_54"/>
    </g>
    <g id="ytick_26">
     <g id="line2d_55">
      <path clip-path="url(#p0d2c1d27af)" d="M 48.177724 111.646245 
L 706.325275 111.646245 
" style="fill:none;stroke:#ffffff;stroke-linecap:round;"/>
     </g>
     <g id="line2d_56"/>
    </g>
    <g id="ytick_27">
     <g id="line2d_57">
      <path clip-path="url(#p0d2c1d27af)" d="M 48.177724 107.417949 
L 706.325275 107.417949 
" style="fill:none;stroke:#ffffff;stroke-linecap:round;"/>
     </g>
     <g id="line2d_58"/>
    </g>
    <g id="ytick_28">
     <g id="line2d_59">
      <path clip-path="url(#p0d2c1d27af)" d="M 48.177724 103.688329 
L 706.325275 103.688329 
" style="fill:none;stroke:#ffffff;stroke-linecap:round;"/>
     </g>
     <g id="line2d_60"/>
    </g>
    <g id="ytick_29">
     <g id="line2d_61">
      <path clip-path="url(#p0d2c1d27af)" d="M 48.177724 78.403441 
L 706.325275 78.403441 
" style="fill:none;stroke:#ffffff;stroke-linecap:round;"/>
     </g>
     <g id="line2d_62"/>
    </g>
    <g id="ytick_30">
     <g id="line2d_63">
      <path clip-path="url(#p0d2c1d27af)" d="M 48.177724 65.564316 
L 706.325275 65.564316 
" style="fill:none;stroke:#ffffff;stroke-linecap:round;"/>
     </g>
     <g id="line2d_64"/>
    </g>
    <g id="ytick_31">
     <g id="line2d_65">
      <path clip-path="url(#p0d2c1d27af)" d="M 48.177724 56.454813 
L 706.325275 56.454813 
" style="fill:none;stroke:#ffffff;stroke-linecap:round;"/>
     </g>
     <g id="line2d_66"/>
    </g>
    <g id="ytick_32">
     <g id="line2d_67">
      <path clip-path="url(#p0d2c1d27af)" d="M 48.177724 49.388932 
L 706.325275 49.388932 
" style="fill:none;stroke:#ffffff;stroke-linecap:round;"/>
     </g>
     <g id="line2d_68"/>
    </g>
    <g id="ytick_33">
     <g id="line2d_69">
      <path clip-path="url(#p0d2c1d27af)" d="M 48.177724 43.615688 
L 706.325275 43.615688 
" style="fill:none;stroke:#ffffff;stroke-linecap:round;"/>
     </g>
     <g id="line2d_70"/>
    </g>
    <g id="ytick_34">
     <g id="line2d_71">
      <path clip-path="url(#p0d2c1d27af)" d="M 48.177724 38.734479 
L 706.325275 38.734479 
" style="fill:none;stroke:#ffffff;stroke-linecap:round;"/>
     </g>
     <g id="line2d_72"/>
    </g>
    <g id="ytick_35">
     <g id="line2d_73">
      <path clip-path="url(#p0d2c1d27af)" d="M 48.177724 34.506184 
L 706.325275 34.506184 
" style="fill:none;stroke:#ffffff;stroke-linecap:round;"/>
     </g>
     <g id="line2d_74"/>
    </g>
    <g id="ytick_36">
     <g id="line2d_75">
      <path clip-path="url(#p0d2c1d27af)" d="M 48.177724 30.776563 
L 706.325275 30.776563 
" style="fill:none;stroke:#ffffff;stroke-linecap:round;"/>
     </g>
     <g id="line2d_76"/>
    </g>
    <g id="text_14">
     <!-- Total deaths -->
     <defs>
      <path d="M 35.15625 61.1875 
L 35.15625 0 
L 25.875 0 
L 25.875 61.1875 
L 2.25 61.1875 
L 2.25 68.796875 
L 58.796875 68.796875 
L 58.796875 61.1875 
z
" id="LiberationSans-84"/>
      <path d="M 51.421875 26.46875 
Q 51.421875 12.59375 45.3125 5.796875 
Q 39.203125 -0.984375 27.59375 -0.984375 
Q 22.078125 -0.984375 17.71875 0.671875 
Q 13.375 2.34375 10.375 5.765625 
Q 7.375 9.1875 5.78125 14.328125 
Q 4.203125 19.484375 4.203125 26.46875 
Q 4.203125 53.8125 27.875 53.8125 
Q 34.03125 53.8125 38.5 52.09375 
Q 42.96875 50.390625 45.828125 46.96875 
Q 48.6875 43.5625 50.046875 38.421875 
Q 51.421875 33.296875 51.421875 26.46875 
z
M 42.1875 26.46875 
Q 42.1875 32.625 41.234375 36.625 
Q 40.28125 40.625 38.453125 43.015625 
Q 36.625 45.40625 33.984375 46.359375 
Q 31.34375 47.3125 28.03125 47.3125 
Q 24.65625 47.3125 21.9375 46.3125 
Q 19.234375 45.3125 17.328125 42.890625 
Q 15.4375 40.484375 14.421875 36.46875 
Q 13.421875 32.46875 13.421875 26.46875 
Q 13.421875 20.3125 14.5 16.28125 
Q 15.578125 12.25 17.453125 9.859375 
Q 19.34375 7.46875 21.90625 6.484375 
Q 24.46875 5.515625 27.484375 5.515625 
Q 30.859375 5.515625 33.59375 6.46875 
Q 36.328125 7.421875 38.234375 9.8125 
Q 40.140625 12.203125 41.15625 16.25 
Q 42.1875 20.3125 42.1875 26.46875 
z
" id="LiberationSans-111"/>
      <path d="M 27.046875 0.390625 
Q 25.046875 -0.140625 22.96875 -0.453125 
Q 20.90625 -0.78125 18.171875 -0.78125 
Q 7.625 -0.78125 7.625 11.1875 
L 7.625 46.4375 
L 1.515625 46.4375 
L 1.515625 52.828125 
L 7.953125 52.828125 
L 10.546875 64.65625 
L 16.40625 64.65625 
L 16.40625 52.828125 
L 26.171875 52.828125 
L 26.171875 46.4375 
L 16.40625 46.4375 
L 16.40625 13.09375 
Q 16.40625 9.28125 17.640625 7.734375 
Q 18.890625 6.203125 21.96875 6.203125 
Q 23.25 6.203125 24.4375 6.390625 
Q 25.640625 6.59375 27.046875 6.890625 
z
" id="LiberationSans-116"/>
      <path d="M 6.734375 0 
L 6.734375 72.46875 
L 15.53125 72.46875 
L 15.53125 0 
z
" id="LiberationSans-108"/>
      <path d="M 40.09375 8.5 
Q 37.640625 3.421875 33.609375 1.21875 
Q 29.59375 -0.984375 23.640625 -0.984375 
Q 13.625 -0.984375 8.90625 5.75 
Q 4.203125 12.5 4.203125 26.171875 
Q 4.203125 53.8125 23.640625 53.8125 
Q 29.640625 53.8125 33.640625 51.609375 
Q 37.640625 49.421875 40.09375 44.625 
L 40.1875 44.625 
Q 40.1875 45.125 40.15625 46.171875 
Q 40.140625 47.21875 40.109375 48.359375 
Q 40.09375 49.515625 40.09375 50.53125 
Q 40.09375 51.5625 40.09375 52 
L 40.09375 72.46875 
L 48.875 72.46875 
L 48.875 10.890625 
Q 48.875 8.984375 48.890625 7.21875 
Q 48.921875 5.46875 48.96875 4 
Q 49.03125 2.546875 49.078125 1.484375 
Q 49.125 0.4375 49.171875 0 
L 40.765625 0 
Q 40.671875 0.484375 40.59375 1.390625 
Q 40.53125 2.296875 40.453125 3.46875 
Q 40.375 4.640625 40.328125 5.9375 
Q 40.28125 7.234375 40.28125 8.5 
z
M 13.421875 26.46875 
Q 13.421875 21 14.109375 17.09375 
Q 14.796875 13.1875 16.3125 10.671875 
Q 17.828125 8.15625 20.171875 6.984375 
Q 22.515625 5.8125 25.875 5.8125 
Q 29.34375 5.8125 32 6.9375 
Q 34.671875 8.0625 36.453125 10.578125 
Q 38.234375 13.09375 39.15625 17.140625 
Q 40.09375 21.1875 40.09375 27.046875 
Q 40.09375 32.671875 39.15625 36.546875 
Q 38.234375 40.4375 36.421875 42.828125 
Q 34.625 45.21875 32 46.265625 
Q 29.390625 47.3125 25.984375 47.3125 
Q 22.75 47.3125 20.40625 46.1875 
Q 18.0625 45.0625 16.5 42.578125 
Q 14.9375 40.09375 14.171875 36.109375 
Q 13.421875 32.125 13.421875 26.46875 
z
" id="LiberationSans-100"/>
      <path d="M 15.484375 43.796875 
Q 16.9375 46.484375 18.640625 48.359375 
Q 20.359375 50.25 22.40625 51.46875 
Q 24.46875 52.6875 26.90625 53.25 
Q 29.34375 53.8125 32.375 53.8125 
Q 37.453125 53.8125 40.703125 52.4375 
Q 43.953125 51.078125 45.828125 48.609375 
Q 47.703125 46.140625 48.40625 42.71875 
Q 49.125 39.3125 49.125 35.203125 
L 49.125 0 
L 40.28125 0 
L 40.28125 33.5 
Q 40.28125 36.859375 39.859375 39.390625 
Q 39.453125 41.9375 38.28125 43.625 
Q 37.109375 45.3125 34.953125 46.15625 
Q 32.8125 47.015625 29.390625 47.015625 
Q 26.265625 47.015625 23.75 45.890625 
Q 21.234375 44.78125 19.453125 42.71875 
Q 17.671875 40.671875 16.6875 37.734375 
Q 15.71875 34.8125 15.71875 31.15625 
L 15.71875 0 
L 6.9375 0 
L 6.9375 72.46875 
L 15.71875 72.46875 
L 15.71875 53.609375 
Q 15.71875 52 15.671875 50.390625 
Q 15.625 48.78125 15.546875 47.40625 
Q 15.484375 46.046875 15.421875 45.09375 
Q 15.375 44.140625 15.328125 43.796875 
z
" id="LiberationSans-104"/>
     </defs>
     <g style="fill:#262626;" transform="translate(19.495224 189.632151)rotate(-90)scale(0.11 -0.11)">
      <use xlink:href="#LiberationSans-84"/>
      <use x="49.958984" xlink:href="#LiberationSans-111"/>
      <use x="105.574219" xlink:href="#LiberationSans-116"/>
      <use x="133.357422" xlink:href="#LiberationSans-97"/>
      <use x="188.972656" xlink:href="#LiberationSans-108"/>
      <use x="211.189453" xlink:href="#LiberationSans-32"/>
      <use x="238.972656" xlink:href="#LiberationSans-100"/>
      <use x="294.587891" xlink:href="#LiberationSans-101"/>
      <use x="350.203125" xlink:href="#LiberationSans-97"/>
      <use x="405.818359" xlink:href="#LiberationSans-116"/>
      <use x="433.601562" xlink:href="#LiberationSans-104"/>
      <use x="489.216797" xlink:href="#LiberationSans-115"/>
     </g>
    </g>
   </g>
   <g id="line2d_77">
    <path clip-path="url(#p0d2c1d27af)" d="M 78.093522 292.71315 
L 82.525492 287.635871 
L 86.957462 279.418403 
L 91.389432 270.764521 
L 95.821402 263.424482 
L 100.253372 257.020616 
L 104.685342 250.585358 
L 109.117312 244.033176 
L 113.549282 238.857406 
L 117.981252 234.849775 
L 122.413222 231.89221 
L 126.845192 229.373162 
L 131.277162 226.524935 
L 135.709132 223.755521 
L 140.141102 220.922393 
L 144.573072 217.800813 
L 149.005042 214.724106 
L 153.437012 212.027569 
L 157.868982 209.742532 
L 162.300952 207.893656 
L 166.732923 206.416295 
L 171.164893 205.0048 
L 175.596863 203.819334 
L 180.028833 202.676652 
L 184.460803 201.419309 
L 188.892773 200.20999 
L 193.324743 199.188444 
L 197.756713 198.198827 
L 202.188683 197.104457 
L 206.620653 195.852185 
L 211.052623 194.772225 
L 215.484593 194.031485 
L 219.916563 193.487085 
L 224.348533 193.07004 
L 228.780503 192.600047 
L 233.212473 192.022199 
L 237.644443 191.286425 
L 242.076413 190.676927 
L 246.508383 190.349354 
L 250.940353 190.025134 
L 255.372323 189.757464 
L 259.804293 189.597941 
L 264.236264 189.386487 
L 268.668234 189.228818 
L 273.100204 189.07193 
L 277.532174 188.915815 
L 281.964144 188.812165 
L 286.396114 188.657322 
L 290.828084 188.554513 
L 295.260054 188.400923 
L 299.692024 188.298941 
L 304.123994 188.197288 
L 308.555964 188.146583 
L 312.987934 188.045416 
L 317.419904 187.994953 
L 321.851874 187.944571 
L 326.283844 187.944571 
L 330.715814 187.844047 
L 335.147784 187.793904 
L 339.579754 187.74384 
L 344.011724 187.64395 
L 348.443694 187.494703 
L 352.875664 187.44511 
L 357.307634 187.346156 
L 361.739604 187.198303 
L 366.171575 186.855974 
L 370.603545 186.421205 
L 375.035515 186.13464 
L 379.467485 186.08713 
L 383.899455 186.039692 
L 388.331425 186.039692 
L 392.763395 185.992324 
L 397.195365 185.992324 
L 401.627335 185.945028 
L 406.059305 185.897801 
L 410.491275 185.897801 
L 414.923245 185.897801 
" style="fill:none;stroke:#989173;stroke-linecap:round;stroke-width:1.75;"/>
   </g>
   <g id="line2d_78">
    <path clip-path="url(#p0d2c1d27af)" d="M 78.093522 285.373111 
L 82.525492 279.418403 
L 86.957462 270.764521 
L 91.389432 262.350984 
L 95.821402 254.865691 
L 100.253372 248.473563 
L 104.685342 242.305557 
L 109.117312 236.439042 
L 113.549282 230.318461 
L 117.981252 223.755521 
L 122.413222 216.783371 
L 126.845192 210.145916 
L 131.277162 204.661543 
L 135.709132 199.695098 
L 140.141102 195.275857 
L 144.573072 190.403715 
L 149.005042 184.921981 
L 153.437012 179.663879 
L 157.868982 175.290575 
L 162.300952 171.961067 
L 166.732923 169.309836 
L 171.164893 166.631556 
L 175.596863 163.434281 
L 180.028833 159.653113 
L 184.460803 155.870887 
L 188.892773 152.41055 
L 193.324743 149.261689 
L 197.756713 146.670103 
L 202.188683 144.721473 
L 206.620653 143.007395 
L 211.052623 141.081975 
L 215.484593 138.497199 
L 219.916563 135.209562 
L 224.348533 131.946696 
L 228.780503 129.24017 
L 233.212473 126.929593 
L 237.644443 124.503469 
L 242.076413 121.804299 
L 246.508383 119.127617 
L 250.940353 116.664967 
L 255.372323 114.573013 
L 259.804293 112.854176 
L 264.236264 111.322209 
L 268.668234 109.60969 
L 273.100204 107.497211 
L 277.532174 105.164744 
L 281.964144 102.800202 
L 286.396114 100.504428 
L 290.828084 98.545832 
L 295.260054 96.902335 
L 299.692024 95.232013 
L 304.123994 93.369896 
L 308.555964 91.457827 
L 312.987934 89.575714 
L 317.419904 87.799221 
L 321.851874 86.317734 
L 326.283844 85.02518 
L 330.715814 83.553357 
L 335.147784 81.854254 
L 339.579754 80.117776 
L 344.011724 78.414526 
L 348.443694 76.850953 
L 352.875664 75.519568 
L 357.307634 74.371284 
L 361.739604 73.205362 
L 366.171575 71.915306 
L 370.603545 70.556901 
L 375.035515 69.214083 
L 379.467485 67.993069 
L 383.899455 67.009046 
L 388.331425 66.230976 
L 392.763395 65.372795 
L 397.195365 64.244334 
L 401.627335 62.960649 
L 406.059305 61.741012 
L 410.491275 60.743782 
L 414.923245 60.014393 
L 419.355215 59.612142 
" style="fill:none;stroke:#42537f;stroke-linecap:round;stroke-width:1.75;"/>
   </g>
   <g id="line2d_79">
    <path clip-path="url(#p0d2c1d27af)" d="M 78.093522 282.255988 
L 82.525492 272.900061 
L 86.957462 261.82758 
L 91.389432 250.223466 
L 95.821402 241.204048 
L 104.685342 228.455266 
L 109.117312 221.498139 
L 117.981252 206.506638 
L 122.413222 200.508018 
L 126.845192 195.658908 
L 131.277162 191.454708 
L 140.141102 183.665974 
L 144.573072 179.936353 
L 149.005042 176.354762 
L 153.437012 173.105903 
L 157.868982 170.476954 
L 162.300952 167.649313 
L 166.732923 163.854931 
L 171.164893 160.235287 
L 175.596863 157.464322 
L 180.028833 155.291188 
L 188.892773 151.3786 
L 193.324743 149.604825 
L 197.756713 148.21095 
L 215.484593 143.337945 
L 219.916563 142.380341 
L 224.348533 141.718657 
L 242.076413 139.845775 
L 255.372323 138.677265 
L 268.668234 137.735403 
L 281.964144 137.031817 
L 295.260054 136.62103 
L 330.715814 135.834522 
L 352.875664 135.554169 
L 401.627335 135.13349 
L 437.083095 134.97244 
L 441.515065 134.317791 
L 445.947035 131.554077 
L 450.379005 127.461793 
L 454.810975 125.217545 
L 459.242945 124.735149 
L 476.970826 124.694141 
L 676.409478 124.680484 
L 676.409478 124.680484 
" style="fill:none;stroke:#ae54a5;stroke-dasharray:6.475,2.8;stroke-dashoffset:0;stroke-width:1.75;"/>
   </g>
   <g id="line2d_80">
    <path clip-path="url(#p0d2c1d27af)" d="M 78.093522 276.814319 
L 82.525492 271.460487 
L 86.957462 263.975195 
L 91.389432 256.140971 
L 95.821402 250.223466 
L 100.253372 244.033176 
L 104.685342 237.625142 
L 109.117312 232.917063 
L 113.549282 226.018281 
L 117.981252 213.123359 
L 122.413222 200.433248 
L 126.845192 191.511001 
L 131.277162 184.332634 
L 135.709132 177.096535 
L 140.141102 169.959256 
L 144.573072 163.133916 
L 149.005042 156.779642 
L 153.437012 151.315206 
L 157.868982 146.670103 
L 162.300952 142.273062 
L 166.732923 137.519608 
L 171.164893 131.981068 
L 175.596863 125.756808 
L 180.028833 119.577676 
L 184.460803 114.129585 
L 188.892773 109.895175 
L 193.324743 106.612892 
L 197.756713 103.324518 
L 202.188683 99.999391 
L 206.620653 97.047491 
L 211.052623 94.255909 
L 215.484593 91.891175 
L 219.916563 90.150944 
L 224.348533 88.752849 
L 228.780503 87.32562 
L 233.212473 85.56843 
L 237.644443 83.616758 
L 242.076413 81.958593 
L 246.508383 80.663973 
L 250.940353 79.635114 
L 255.372323 78.788926 
L 259.804293 77.978821 
L 264.236264 77.16151 
L 268.668234 76.373674 
L 273.100204 75.662991 
L 277.532174 75.063224 
L 281.964144 74.561433 
L 286.396114 74.092331 
L 290.828084 73.587892 
L 295.260054 73.065938 
L 299.692024 72.5801 
L 304.123994 72.183453 
L 308.555964 71.885651 
L 312.987934 71.644294 
L 317.419904 71.388266 
L 321.851874 71.060126 
L 326.283844 70.695609 
L 330.715814 70.36962 
L 335.147784 70.100502 
L 339.579754 69.880794 
L 344.011724 69.719113 
L 348.443694 69.546282 
L 352.875664 69.286417 
L 357.307634 68.995714 
L 361.739604 68.734477 
L 366.171575 68.493897 
L 370.603545 68.303431 
L 375.035515 68.085516 
L 379.467485 67.790859 
L 383.899455 67.624833 
L 388.331425 67.615822 
L 392.763395 67.587681 
L 397.195365 67.51014 
L 401.627335 67.435029 
L 406.059305 67.37462 
L 410.491275 67.313211 
L 414.923245 67.237452 
L 419.355215 67.156323 
L 423.787185 67.080938 
L 428.219155 67.011255 
L 432.651125 66.949444 
L 437.083095 66.895457 
L 441.515065 66.848157 
L 445.947035 66.789954 
L 450.379005 66.707774 
L 454.810975 66.627989 
L 459.242945 66.566921 
L 463.674916 66.521196 
L 468.106886 66.489663 
L 472.538856 66.473365 
" style="fill:none;stroke:#0309a6;stroke-linecap:round;stroke-width:1.75;"/>
   </g>
   <g id="line2d_81">
    <path clip-path="url(#p0d2c1d27af)" d="M 78.093522 288.830925 
L 82.525492 281.281598 
L 86.957462 270.764521 
L 91.389432 260.30736 
L 95.821402 252.459584 
L 100.253372 246.1756 
L 104.685342 238.857406 
L 109.117312 230.704627 
L 113.549282 222.381876 
L 117.981252 214.374211 
L 122.413222 206.59724 
L 126.845192 199.40459 
L 131.277162 192.834171 
L 135.709132 186.758841 
L 140.141102 180.969437 
L 144.573072 175.392011 
L 149.005042 170.1883 
L 153.437012 165.645495 
L 157.868982 161.761356 
L 162.300952 158.144483 
L 166.732923 154.388682 
L 171.164893 150.440767 
L 175.596863 146.588174 
L 180.028833 143.547853 
L 184.460803 141.695279 
L 188.892773 140.312101 
L 193.324743 138.507763 
L 197.756713 136.571297 
L 202.188683 134.317791 
L 206.620653 131.528639 
L 211.052623 129.020163 
L 215.484593 127.187184 
L 219.916563 125.898391 
L 224.348533 124.707805 
L 228.780503 123.343638 
L 233.212473 121.948019 
L 237.644443 120.49147 
L 242.076413 119.09326 
L 246.508383 118.002026 
L 250.940353 117.226469 
L 255.372323 116.553852 
L 259.804293 115.797087 
L 264.236264 114.967429 
L 268.668234 114.17365 
L 273.100204 113.490254 
L 277.532174 112.948306 
L 281.964144 112.540865 
L 286.396114 112.175378 
L 290.828084 111.791332 
L 295.260054 111.299829 
L 299.692024 110.618165 
L 304.123994 109.980895 
L 308.555964 109.55036 
L 312.987934 109.288942 
L 317.419904 109.07551 
L 321.851874 108.784887 
L 326.283844 108.435537 
L 330.715814 108.114267 
L 335.147784 107.916624 
L 339.579754 107.796224 
L 344.011724 107.680271 
L 348.443694 107.54089 
L 352.875664 107.354682 
L 357.307634 107.114629 
L 361.739604 106.872492 
L 366.171575 106.674693 
L 370.603545 106.528113 
L 375.035515 106.416703 
L 379.467485 106.305685 
L 383.899455 106.168408 
L 388.331425 105.986292 
L 392.763395 105.790176 
L 397.195365 105.628915 
L 401.627335 105.501985 
L 406.059305 105.412693 
L 410.491275 105.349597 
L 414.923245 105.297729 
L 419.355215 105.227473 
L 423.787185 105.124221 
L 428.219155 105.017635 
L 432.651125 104.929697 
L 437.083095 104.871206 
L 441.515065 104.838353 
" style="fill:none;stroke:#d8b009;stroke-linecap:round;stroke-width:1.75;"/>
   </g>
   <g id="line2d_82">
    <path clip-path="url(#p0d2c1d27af)" d="M 78.093522 291.365492 
L 82.525492 285.373111 
L 86.957462 275.991801 
L 91.389432 264.535655 
L 95.821402 253.24148 
L 100.253372 242.587027 
L 104.685342 233.126074 
L 109.117312 224.545217 
L 113.549282 215.315996 
L 117.981252 205.351819 
L 122.413222 195.981695 
L 126.845192 187.149172 
L 131.277162 179.163994 
L 135.709132 172.205116 
L 140.141102 166.096788 
L 144.573072 160.319335 
L 149.005042 154.406134 
L 153.437012 148.819636 
L 157.868982 143.659547 
L 162.300952 138.666645 
L 166.732923 133.730872 
L 171.164893 128.623321 
L 175.596863 123.712301 
L 180.028833 119.525419 
L 184.460803 115.895226 
L 188.892773 112.522258 
L 193.324743 109.364615 
L 197.756713 106.294222 
L 202.188683 103.241152 
L 206.620653 100.424983 
L 211.052623 97.941483 
L 215.484593 95.663244 
L 219.916563 93.56352 
L 224.348533 91.656912 
L 228.780503 89.897283 
L 233.212473 88.280014 
L 237.644443 86.873476 
L 242.076413 85.63998 
L 246.508383 84.468075 
L 250.940353 83.350952 
L 255.372323 82.295166 
L 259.804293 81.26825 
L 264.236264 80.273593 
L 268.668234 79.349988 
L 273.100204 78.501755 
L 277.532174 77.647815 
L 281.964144 76.771156 
L 286.396114 75.926899 
L 290.828084 75.130258 
L 295.260054 74.378255 
L 299.692024 73.696871 
L 304.123994 73.071289 
L 308.555964 72.448643 
L 312.987934 71.823853 
L 317.419904 71.228819 
L 321.851874 70.669555 
L 326.283844 70.150483 
L 330.715814 69.695052 
L 335.147784 69.298291 
L 339.579754 68.907613 
L 344.011724 68.506635 
L 348.443694 68.131268 
L 352.875664 67.782933 
L 357.307634 67.422714 
L 361.739604 67.061013 
L 366.171575 66.773501 
L 370.603545 66.527724 
L 375.035515 66.248228 
L 379.467485 65.930576 
L 383.899455 65.629825 
L 388.331425 65.375942 
L 392.763395 65.163659 
L 397.195365 64.97661 
L 401.627335 64.79478 
L 406.059305 64.604771 
L 410.491275 64.393509 
L 414.923245 64.161425 
L 419.355215 63.944063 
L 423.787185 63.768051 
L 428.219155 63.625758 
L 432.651125 63.494975 
L 437.083095 63.351932 
L 441.515065 63.199736 
L 445.947035 63.054117 
L 450.379005 62.926641 
L 454.810975 62.824834 
L 459.242945 62.743624 
L 463.674916 62.665511 
L 468.106886 62.579905 
L 472.538856 62.490697 
L 476.970826 62.406517 
L 481.402796 62.320655 
L 485.834766 62.234074 
L 490.266736 62.158154 
L 494.698706 62.095657 
L 499.130676 62.036116 
L 503.562646 61.969147 
L 507.994616 61.892919 
L 512.426586 61.81875 
L 516.858556 61.755982 
L 521.290526 61.717634 
" style="fill:none;stroke:#1007e1;stroke-linecap:round;stroke-width:1.75;"/>
   </g>
   <g id="line2d_83">
    <path clip-path="url(#p0d2c1d27af)" d="M 78.093522 294.120723 
L 82.525492 285.373111 
L 86.957462 273.645159 
L 91.389432 262.883184 
L 95.821402 252.848118 
L 100.253372 243.738615 
L 104.685342 235.295771 
L 109.117312 227.739639 
L 113.549282 220.497351 
L 117.981252 213.012058 
L 122.413222 205.702683 
L 126.845192 198.831449 
L 131.277162 192.541785 
L 135.709132 186.855974 
L 140.141102 181.746285 
L 144.573072 176.953898 
L 149.005042 172.266424 
L 153.437012 167.942388 
L 157.868982 164.067371 
L 162.300952 160.615273 
L 166.732923 157.63783 
L 171.164893 155.165781 
L 175.596863 152.690411 
L 180.028833 150.012439 
L 184.460803 147.613745 
L 188.892773 145.647689 
L 193.324743 143.984449 
L 197.756713 142.535945 
L 202.188683 141.300475 
L 206.620653 140.111405 
L 211.052623 138.677265 
L 215.484593 136.991504 
L 219.916563 135.343131 
L 224.348533 133.922258 
L 228.780503 132.790918 
L 233.212473 131.895208 
L 237.644443 131.024138 
L 242.076413 129.974005 
L 246.508383 128.895127 
L 250.940353 127.927355 
L 255.372323 127.061807 
L 259.804293 126.326981 
L 264.236264 125.785074 
L 268.668234 125.363708 
L 273.100204 124.851629 
L 277.532174 124.18597 
L 281.964144 123.514269 
L 286.396114 122.90167 
L 290.828084 122.357746 
L 295.260054 121.935496 
L 299.692024 121.586839 
L 304.123994 121.22361 
L 308.555964 120.852399 
L 312.987934 120.437684 
L 317.419904 120.040121 
L 321.851874 119.729129 
L 326.283844 119.531221 
L 330.715814 119.351847 
L 335.147784 119.116161 
L 339.579754 118.865165 
L 344.011724 118.633061 
L 348.443694 118.419448 
L 352.875664 118.257391 
L 357.307634 118.15722 
L 361.739604 118.062904 
L 366.171575 117.941264 
L 370.603545 117.798107 
L 375.035515 117.661063 
L 379.467485 117.557306 
L 383.899455 117.459322 
L 388.331425 117.383321 
L 392.763395 117.307502 
L 397.195365 117.204895 
L 401.627335 117.0865 
L 406.059305 116.952495 
L 410.491275 116.819056 
L 414.923245 116.718016 
L 419.355215 116.664967 
L 423.787185 116.63318 
L 428.219155 116.596135 
L 432.651125 116.54329 
L 437.083095 116.479991 
L 441.515065 116.422078 
L 445.947035 116.38528 
L 450.379005 116.369522 
" style="fill:none;stroke:#a67d4c;stroke-linecap:round;stroke-width:1.75;"/>
   </g>
   <g id="line2d_84">
    <path clip-path="url(#p0d2c1d27af)" d="M 78.093522 287.635871 
L 82.525492 280.336299 
L 86.957462 271.460487 
L 91.389432 262.350984 
L 95.821402 254.043173 
L 100.253372 246.815322 
L 104.685342 240.667337 
L 109.117312 235.521147 
L 113.549282 230.89949 
L 117.981252 226.524935 
L 122.413222 222.232863 
L 126.845192 218.322063 
L 131.277162 215.077911 
L 135.709132 212.352343 
L 140.141102 209.742532 
L 144.573072 206.87061 
L 149.005042 204.153534 
L 153.437012 201.651289 
L 157.868982 199.476967 
L 162.300952 197.171758 
L 166.732923 195.086055 
L 171.164893 193.07004 
L 175.596863 191.286425 
L 180.028833 189.544945 
L 184.460803 187.994953 
L 188.892773 186.565465 
L 193.324743 185.243925 
L 197.756713 184.064283 
L 202.188683 182.970008 
L 206.620653 181.912288 
L 211.052623 180.768132 
L 215.484593 179.586458 
L 219.916563 178.410025 
L 224.348533 177.383749 
L 228.780503 176.494719 
L 233.212473 175.698286 
L 237.644443 174.954779 
L 242.076413 174.228331 
L 246.508383 173.614081 
L 250.940353 173.074411 
L 255.372323 172.512846 
L 259.804293 171.961067 
L 264.236264 171.418739 
L 268.668234 171.003258 
L 273.100204 170.564066 
L 277.532174 170.1883 
L 281.964144 169.845352 
L 286.396114 169.534214 
L 290.828084 169.253989 
L 295.260054 168.92096 
L 299.692024 168.564089 
L 304.123994 168.211194 
L 308.555964 167.942388 
L 312.987934 167.702398 
L 317.419904 167.385215 
L 321.851874 167.045148 
L 326.283844 166.68296 
L 330.715814 166.274042 
L 335.147784 165.895418 
L 339.579754 165.546075 
L 344.011724 165.2251 
L 348.443694 164.907345 
L 352.875664 164.592748 
L 357.307634 164.25741 
L 361.739604 163.949173 
L 366.171575 163.643907 
L 370.603545 163.318418 
L 375.035515 163.019145 
L 379.467485 162.699983 
L 383.899455 162.406471 
L 388.331425 162.093395 
L 392.763395 161.827485 
L 397.195365 161.607587 
L 401.627335 161.389206 
L 406.059305 161.193942 
L 410.491275 161.02138 
L 414.923245 160.93545 
" style="fill:none;stroke:#ea71b3;stroke-linecap:round;stroke-width:1.75;"/>
   </g>
   <g id="line2d_85">
    <path clip-path="url(#p0d2c1d27af)" d="M 78.093522 288.830925 
L 82.525492 285.373111 
L 86.957462 279.418403 
L 91.389432 275.190108 
L 95.821402 271.460487 
L 100.253372 268.76395 
L 104.685342 264.535655 
L 109.117312 259.816417 
L 113.549282 254.451761 
L 117.981252 248.815893 
L 122.413222 243.446768 
L 126.845192 238.358731 
L 131.277162 233.548283 
L 135.709132 229.002805 
L 140.141102 224.06904 
L 144.573072 219.25542 
L 149.005042 214.374211 
L 153.437012 209.842898 
L 157.868982 205.614602 
L 162.300952 201.728995 
L 166.732923 198.059945 
L 171.164893 194.647559 
L 175.596863 191.567395 
L 180.028833 188.503234 
L 184.460803 185.475905 
L 188.892773 182.755619 
L 193.324743 180.171783 
L 197.756713 177.347704 
L 202.188683 174.163109 
L 206.620653 171.180654 
L 211.052623 168.75575 
L 215.484593 166.915319 
L 219.916563 165.274269 
L 224.348533 163.457504 
L 228.780503 161.520054 
L 233.212473 159.653113 
L 237.644443 157.812294 
L 242.076413 156.017485 
L 246.508383 154.266793 
L 250.940353 152.67388 
L 255.372323 151.110048 
L 259.804293 149.589828 
L 264.236264 148.139261 
L 268.668234 146.724839 
L 273.100204 145.292266 
L 277.532174 143.896647 
L 281.964144 142.656162 
L 286.396114 141.450849 
L 290.828084 140.155895 
L 295.260054 138.783667 
L 299.692024 137.376558 
L 304.123994 135.970758 
L 308.555964 134.615381 
L 312.987934 133.378481 
L 317.419904 132.196742 
L 321.851874 130.924195 
L 326.283844 129.565106 
L 330.715814 128.124647 
L 335.147784 126.66681 
L 339.579754 125.377663 
L 344.011724 124.273471 
L 348.443694 123.206488 
L 352.875664 122.111274 
L 357.307634 121.040504 
L 361.739604 120.046018 
L 366.171575 119.09326 
L 370.603545 118.218398 
L 375.035515 117.661063 
" style="fill:none;stroke:#5feb16;stroke-linecap:round;stroke-width:1.75;"/>
   </g>
   <g id="line2d_86">
    <path clip-path="url(#p0d2c1d27af)" d="M 78.093522 283.261316 
L 82.525492 275.991801 
L 86.957462 266.279133 
L 91.389432 252.848118 
L 95.821402 237.145358 
L 100.253372 223.599918 
L 104.685342 213.123359 
L 109.117312 203.653548 
L 113.549282 194.461475 
L 117.981252 186.421205 
L 122.413222 178.559389 
L 126.845192 170.505965 
L 131.277162 162.271916 
L 135.709132 154.180015 
L 140.141102 146.533673 
L 144.573072 139.299433 
L 149.005042 132.457505 
L 153.437012 126.471144 
L 157.868982 121.272618 
L 162.300952 116.617299 
L 166.732923 112.447937 
L 171.164893 108.743587 
L 175.596863 105.427558 
L 180.028833 102.301261 
L 184.460803 99.40379 
L 188.892773 96.905175 
L 193.324743 94.790633 
L 197.756713 92.936016 
L 202.188683 91.217243 
L 206.620653 89.575714 
L 211.052623 88.02583 
L 215.484593 86.624134 
L 219.916563 85.382361 
L 224.348533 84.261662 
L 228.780503 83.217959 
L 233.212473 82.298747 
L 237.644443 81.450758 
L 242.076413 80.50792 
L 246.508383 79.52666 
L 250.940353 78.729684 
L 255.372323 78.188846 
L 259.804293 77.666371 
L 264.236264 77.064228 
L 268.668234 76.43164 
L 273.100204 75.799774 
L 277.532174 75.197435 
L 281.964144 74.649904 
L 286.396114 74.15457 
L 290.828084 73.706425 
L 295.260054 73.268572 
L 299.692024 72.812797 
L 304.123994 72.364797 
L 308.555964 72.019963 
L 312.987934 71.717277 
L 317.419904 71.348962 
L 321.851874 71.031261 
L 326.283844 70.788835 
L 330.715814 70.545781 
L 335.147784 70.278843 
L 339.579754 70.010492 
L 344.011724 69.757648 
L 348.443694 69.540298 
L 352.875664 69.356538 
L 357.307634 69.180936 
L 361.739604 68.986305 
L 366.171575 68.770664 
L 370.603545 68.561122 
L 375.035515 68.394481 
L 379.467485 68.283872 
L 383.899455 68.200021 
L 388.331425 68.099235 
L 392.763395 67.99079 
L 397.195365 67.855471 
L 401.627335 67.605688 
L 406.059305 67.268625 
L 410.491275 67.151884 
L 414.923245 67.565186 
L 419.355215 68.331064 
L 423.787185 68.732144 
L 428.219155 68.773 
L 432.651125 68.762489 
L 437.083095 68.758986 
L 441.515065 68.755483 
L 445.947035 68.753149 
L 450.379005 68.753149 
L 454.810975 68.751981 
L 459.242945 68.749647 
L 463.674916 68.747312 
L 468.106886 68.744978 
L 472.538856 68.743811 
L 476.970826 68.742644 
" style="fill:none;stroke:#907eba;stroke-linecap:round;stroke-width:1.75;"/>
   </g>
   <g id="line2d_87">
    <path clip-path="url(#p0d2c1d27af)" d="M 78.093522 281.281598 
L 82.525492 277.658774 
L 86.957462 270.083524 
L 91.389432 262.883184 
L 95.821402 255.285103 
L 100.253372 248.815893 
L 104.685342 242.871021 
L 109.117312 236.207062 
L 113.549282 228.819238 
L 117.981252 221.065351 
L 122.413222 213.235053 
L 126.845192 206.236379 
L 131.277162 200.284235 
L 135.709132 195.212463 
L 140.141102 190.841994 
L 144.573072 186.904652 
L 149.005042 183.272613 
L 153.437012 179.702661 
L 157.868982 176.285015 
L 162.300952 173.105903 
L 166.732923 170.217047 
L 171.164893 167.516989 
L 175.596863 164.980391 
L 180.028833 162.45145 
L 184.460803 159.96366 
L 188.892773 157.541319 
L 193.324743 155.237381 
L 197.756713 153.089767 
L 202.188683 151.078603 
L 206.620653 149.20239 
L 211.052623 147.487224 
L 215.484593 145.886873 
L 219.916563 144.401685 
L 224.348533 143.031762 
L 228.780503 141.788894 
L 233.212473 140.638143 
L 237.644443 139.571426 
L 242.076413 138.581808 
L 246.508383 137.63246 
L 250.940353 136.730719 
L 255.372323 135.902566 
L 259.804293 135.181014 
L 264.236264 134.550043 
L 268.668234 133.967998 
L 273.100204 133.40545 
L 277.532174 132.870401 
L 281.964144 132.379051 
L 286.396114 131.938108 
L 290.828084 131.511692 
L 295.260054 131.090942 
L 299.692024 130.650968 
L 304.123994 130.208893 
L 308.555964 129.764887 
L 312.987934 129.342838 
L 317.419904 128.957583 
L 321.851874 128.623321 
L 326.283844 128.315516 
L 330.715814 128.063811 
L 335.147784 127.844255 
L 339.579754 127.648697 
L 344.011724 127.45434 
L 348.443694 127.246358 
L 352.875664 127.017674 
L 357.307634 126.797929 
L 361.739604 126.579698 
L 366.171575 126.36296 
L 370.603545 126.140546 
L 375.035515 125.926784 
L 379.467485 125.72151 
L 383.899455 125.538596 
L 388.331425 125.363708 
L 392.763395 125.203659 
L 397.195365 125.044416 
L 401.627335 124.892841 
L 406.059305 124.748831 
L 410.491275 124.612284 
L 414.923245 124.476323 
L 419.355215 124.381497 
" style="fill:none;stroke:#221cdf;stroke-linecap:round;stroke-width:1.75;"/>
   </g>
   <g id="line2d_88">
    <path clip-path="url(#p0d2c1d27af)" d="M 78.093522 295.593787 
L 82.525492 291.365492 
L 86.957462 286.484283 
L 91.389432 279.418403 
L 95.821402 273.645159 
L 100.253372 267.497174 
L 104.685342 261.312688 
L 109.117312 253.639789 
L 113.549282 245.239615 
L 117.981252 236.207062 
L 122.413222 226.355148 
L 126.845192 215.676514 
L 131.277162 206.146803 
L 135.709132 197.578597 
L 140.141102 188.812165 
L 144.573072 180.171783 
L 149.005042 171.718885 
L 153.437012 163.318418 
L 157.868982 155.023064 
L 162.300952 147.361208 
L 166.732923 140.42415 
L 171.164893 133.658267 
L 175.596863 126.739586 
L 180.028833 119.863713 
L 184.460803 113.471081 
L 188.892773 107.67628 
L 193.324743 102.473474 
L 197.756713 97.757153 
L 202.188683 93.484399 
L 206.620653 89.331073 
L 211.052623 85.160121 
L 215.484593 81.320288 
L 219.916563 77.93823 
L 224.348533 74.92816 
L 228.780503 72.283781 
L 233.212473 69.93891 
L 237.644443 67.638353 
L 242.076413 65.233565 
L 246.508383 62.884909 
L 250.940353 60.702113 
L 255.372323 58.668618 
L 259.804293 56.955095 
L 264.236264 55.581914 
L 268.668234 54.20087 
L 273.100204 52.655605 
L 277.532174 51.09792 
L 281.964144 49.67457 
L 286.396114 48.411779 
L 290.828084 47.313462 
L 295.260054 46.404905 
L 299.692024 45.494239 
L 304.123994 44.394655 
L 308.555964 43.206172 
L 312.987934 42.122048 
L 317.419904 41.209014 
L 321.851874 40.456934 
L 326.283844 39.790512 
L 330.715814 39.071465 
L 335.147784 38.198027 
L 339.579754 37.248176 
L 344.011724 36.380116 
L 348.443694 35.668388 
L 352.875664 35.103526 
L 357.307634 34.641843 
L 361.739604 34.152723 
L 366.171575 33.561362 
L 370.603545 32.915655 
L 375.035515 32.283221 
L 379.467485 31.724379 
L 383.899455 31.280868 
L 388.331425 30.926801 
L 392.763395 30.557426 
L 397.195365 30.103322 
L 401.627335 29.620678 
L 406.059305 29.17236 
L 410.491275 28.770895 
L 414.923245 28.439096 
L 419.355215 28.191697 
L 423.787185 27.974222 
L 428.219155 27.694963 
L 432.651125 27.327776 
L 437.083095 26.943282 
L 441.515065 26.596066 
L 445.947035 26.307868 
L 450.379005 26.067113 
L 454.810975 25.81975 
L 459.242945 25.539694 
L 463.674916 25.244657 
L 468.106886 24.957906 
L 472.538856 24.702177 
L 476.970826 24.493761 
L 481.402796 24.361609 
" style="fill:none;stroke:#7516fd;stroke-dasharray:6.475,2.8;stroke-dashoffset:0;stroke-width:1.75;"/>
   </g>
   <g id="line2d_89">
    <path clip-path="url(#p0d2c1d27af)" d="M 78.093522 280.336299 
L 82.525492 270.764521 
L 86.957462 259.816417 
L 91.389432 250.223466 
L 95.821402 240.402355 
L 100.253372 231.691161 
L 104.685342 224.226971 
L 109.117312 217.543372 
L 113.549282 211.072768 
L 117.981252 202.998947 
L 122.413222 193.547114 
L 126.845192 184.422592 
L 131.277162 176.076691 
L 135.709132 168.346458 
L 140.141102 161.739343 
L 144.573072 155.980772 
L 149.005042 150.118979 
L 153.437012 143.821582 
L 157.868982 137.284937 
L 162.300952 131.183029 
L 166.732923 125.778005 
L 171.164893 121.144134 
L 175.596863 117.226469 
L 180.028833 113.466289 
L 184.460803 109.398306 
L 188.892773 105.323652 
L 193.324743 101.565641 
L 197.756713 98.340127 
L 202.188683 95.802817 
L 206.620653 93.719791 
L 211.052623 91.685799 
L 215.484593 89.580221 
L 219.916563 87.529837 
L 224.348533 85.552551 
L 228.780503 83.676546 
L 233.212473 82.057946 
L 237.644443 80.788348 
L 242.076413 79.543069 
L 246.508383 78.122867 
L 250.940353 76.757625 
L 255.372323 75.499339 
L 259.804293 74.280806 
L 264.236264 73.255113 
L 268.668234 72.503788 
L 273.100204 71.784006 
L 277.532174 70.891078 
L 281.964144 69.949819 
L 286.396114 69.079343 
L 290.828084 68.293074 
L 295.260054 67.65188 
L 299.692024 67.171866 
L 304.123994 66.693551 
L 308.555964 66.092223 
L 312.987934 65.445268 
L 317.419904 64.839108 
L 321.851874 64.309194 
L 326.283844 63.904976 
L 330.715814 63.59202 
L 335.147784 63.245808 
L 339.579754 62.79484 
L 344.011724 62.325419 
L 348.443694 61.904201 
L 352.875664 61.52101 
L 357.307634 61.191089 
L 361.739604 60.940184 
L 366.171575 60.681298 
L 370.603545 60.342957 
L 375.035515 59.996682 
L 379.467485 59.68482 
L 383.899455 59.406399 
L 388.331425 59.18731 
L 392.763395 59.037507 
L 397.195365 58.908933 
L 401.627335 58.728101 
L 406.059305 58.462148 
L 410.491275 58.169983 
L 414.923245 57.916947 
L 419.355215 57.714481 
L 423.787185 57.492844 
L 428.219155 57.198911 
L 432.651125 56.900455 
L 437.083095 56.648562 
L 441.515065 56.430282 
L 445.947035 56.226068 
L 450.379005 56.071617 
L 454.810975 55.997404 
" style="fill:none;stroke:#89f9c9;stroke-linecap:round;stroke-width:1.75;"/>
   </g>
   <g id="patch_3">
    <path d="M 48.177724 309.155396 
L 48.177724 10.8 
" style="fill:none;"/>
   </g>
   <g id="patch_4">
    <path d="M 706.325275 309.155396 
L 706.325275 10.8 
" style="fill:none;"/>
   </g>
   <g id="patch_5">
    <path d="M 48.177724 309.155396 
L 706.325275 309.155396 
" style="fill:none;"/>
   </g>
   <g id="patch_6">
    <path d="M 48.177724 10.8 
L 706.325275 10.8 
" style="fill:none;"/>
   </g>
   <g id="legend_1">
    <g id="line2d_90">
     <path d="M 598.176838 23.546875 
L 618.176838 23.546875 
" style="fill:none;stroke:#989173;stroke-linecap:round;stroke-width:1.75;"/>
    </g>
    <g id="line2d_91"/>
    <g id="text_15">
     <!-- Austria -->
     <defs>
      <path d="M 56.984375 0 
L 49.125 20.125 
L 17.78125 20.125 
L 9.859375 0 
L 0.203125 0 
L 28.265625 68.796875 
L 38.875 68.796875 
L 66.5 0 
z
M 37.5 50.09375 
Q 36.71875 52.046875 36 54.046875 
Q 35.296875 56.0625 34.765625 57.6875 
Q 34.234375 59.328125 33.859375 60.421875 
Q 33.5 61.53125 33.453125 61.765625 
Q 33.34375 61.53125 33 60.40625 
Q 32.671875 59.28125 32.109375 57.609375 
Q 31.546875 55.953125 30.828125 53.953125 
Q 30.125 51.953125 29.390625 50 
L 20.609375 27.390625 
L 46.34375 27.390625 
z
" id="LiberationSans-65"/>
      <path d="M 15.328125 52.828125 
L 15.328125 19.34375 
Q 15.328125 15.484375 15.890625 12.890625 
Q 16.453125 10.296875 17.71875 8.703125 
Q 19 7.125 21.0625 6.46875 
Q 23.140625 5.8125 26.21875 5.8125 
Q 29.34375 5.8125 31.859375 6.90625 
Q 34.375 8.015625 36.15625 10.078125 
Q 37.9375 12.15625 38.90625 15.203125 
Q 39.890625 18.265625 39.890625 22.21875 
L 39.890625 52.828125 
L 48.6875 52.828125 
L 48.6875 11.28125 
Q 48.6875 9.625 48.703125 7.78125 
Q 48.734375 5.953125 48.78125 4.3125 
Q 48.828125 2.6875 48.875 1.515625 
Q 48.921875 0.34375 48.96875 0 
L 40.671875 0 
Q 40.625 0.25 40.578125 1.3125 
Q 40.53125 2.390625 40.453125 3.78125 
Q 40.375 5.171875 40.328125 6.609375 
Q 40.28125 8.0625 40.28125 9.03125 
L 40.140625 9.03125 
Q 38.875 6.734375 37.359375 4.875 
Q 35.84375 3.03125 33.84375 1.734375 
Q 31.84375 0.4375 29.25 -0.265625 
Q 26.65625 -0.984375 23.25 -0.984375 
Q 18.84375 -0.984375 15.671875 0.09375 
Q 12.5 1.171875 10.453125 3.421875 
Q 8.40625 5.671875 7.453125 9.1875 
Q 6.5 12.703125 6.5 17.625 
L 6.5 52.828125 
z
" id="LiberationSans-117"/>
      <path d="M 6.9375 0 
L 6.9375 40.53125 
Q 6.9375 42.1875 6.90625 43.921875 
Q 6.890625 45.65625 6.828125 47.265625 
Q 6.78125 48.875 6.734375 50.28125 
Q 6.6875 51.703125 6.640625 52.828125 
L 14.9375 52.828125 
Q 14.984375 51.703125 15.0625 50.265625 
Q 15.140625 48.828125 15.203125 47.3125 
Q 15.28125 45.796875 15.296875 44.40625 
Q 15.328125 43.015625 15.328125 42.046875 
L 15.53125 42.046875 
Q 16.453125 45.0625 17.5 47.28125 
Q 18.5625 49.515625 19.96875 50.953125 
Q 21.390625 52.390625 23.34375 53.09375 
Q 25.296875 53.8125 28.078125 53.8125 
Q 29.15625 53.8125 30.125 53.640625 
Q 31.109375 53.46875 31.640625 53.328125 
L 31.640625 45.265625 
Q 30.765625 45.515625 29.59375 45.625 
Q 28.421875 45.75 26.953125 45.75 
Q 23.921875 45.75 21.796875 44.375 
Q 19.671875 43.015625 18.328125 40.59375 
Q 17 38.1875 16.359375 34.84375 
Q 15.71875 31.5 15.71875 27.546875 
L 15.71875 0 
z
" id="LiberationSans-114"/>
     </defs>
     <g style="fill:#262626;" transform="translate(626.176838 27.046875)scale(0.1 -0.1)">
      <use xlink:href="#LiberationSans-65"/>
      <use x="66.699219" xlink:href="#LiberationSans-117"/>
      <use x="122.314453" xlink:href="#LiberationSans-115"/>
      <use x="172.314453" xlink:href="#LiberationSans-116"/>
      <use x="200.097656" xlink:href="#LiberationSans-114"/>
      <use x="233.398438" xlink:href="#LiberationSans-105"/>
      <use x="255.615234" xlink:href="#LiberationSans-97"/>
     </g>
    </g>
    <g id="line2d_92">
     <path d="M 598.176838 37.86875 
L 618.176838 37.86875 
" style="fill:none;stroke:#42537f;stroke-linecap:round;stroke-width:1.75;"/>
    </g>
    <g id="line2d_93"/>
    <g id="text_16">
     <!-- Brazil -->
     <defs>
      <path d="M 61.421875 19.390625 
Q 61.421875 14.15625 59.375 10.46875 
Q 57.328125 6.78125 53.859375 4.46875 
Q 50.390625 2.15625 45.796875 1.078125 
Q 41.21875 0 36.140625 0 
L 8.203125 0 
L 8.203125 68.796875 
L 33.203125 68.796875 
Q 38.921875 68.796875 43.40625 67.84375 
Q 47.90625 66.890625 51.03125 64.84375 
Q 54.15625 62.796875 55.78125 59.640625 
Q 57.421875 56.5 57.421875 52.09375 
Q 57.421875 49.21875 56.609375 46.671875 
Q 55.8125 44.140625 54.171875 42.0625 
Q 52.546875 39.984375 50.078125 38.5 
Q 47.609375 37.015625 44.34375 36.28125 
Q 48.484375 35.796875 51.6875 34.375 
Q 54.890625 32.953125 57.03125 30.75 
Q 59.1875 28.5625 60.296875 25.65625 
Q 61.421875 22.75 61.421875 19.390625 
z
M 48.046875 50.984375 
Q 48.046875 56.546875 44.234375 58.9375 
Q 40.4375 61.328125 33.203125 61.328125 
L 17.53125 61.328125 
L 17.53125 39.546875 
L 33.203125 39.546875 
Q 37.3125 39.546875 40.140625 40.34375 
Q 42.96875 41.15625 44.71875 42.640625 
Q 46.484375 44.140625 47.265625 46.234375 
Q 48.046875 48.34375 48.046875 50.984375 
z
M 52 20.125 
Q 52 23.390625 50.796875 25.6875 
Q 49.609375 27.984375 47.359375 29.4375 
Q 45.125 30.90625 41.96875 31.59375 
Q 38.8125 32.28125 34.90625 32.28125 
L 17.53125 32.28125 
L 17.53125 7.46875 
L 35.640625 7.46875 
Q 39.203125 7.46875 42.203125 8.046875 
Q 45.21875 8.640625 47.390625 10.109375 
Q 49.5625 11.578125 50.78125 14.015625 
Q 52 16.453125 52 20.125 
z
" id="LiberationSans-66"/>
      <path d="M 2.390625 0 
L 2.390625 6.6875 
L 34.671875 46.046875 
L 4.34375 46.046875 
L 4.34375 52.828125 
L 44.578125 52.828125 
L 44.578125 46.140625 
L 12.25 6.78125 
L 46.390625 6.78125 
L 46.390625 0 
z
" id="LiberationSans-122"/>
     </defs>
     <g style="fill:#262626;" transform="translate(626.176838 41.36875)scale(0.1 -0.1)">
      <use xlink:href="#LiberationSans-66"/>
      <use x="66.699219" xlink:href="#LiberationSans-114"/>
      <use x="100" xlink:href="#LiberationSans-97"/>
      <use x="155.615234" xlink:href="#LiberationSans-122"/>
      <use x="205.615234" xlink:href="#LiberationSans-105"/>
      <use x="227.832031" xlink:href="#LiberationSans-108"/>
     </g>
    </g>
    <g id="line2d_94">
     <path d="M 598.176838 52.190625 
L 618.176838 52.190625 
" style="fill:none;stroke:#ae54a5;stroke-dasharray:6.475,2.8;stroke-dashoffset:0;stroke-width:1.75;"/>
    </g>
    <g id="line2d_95"/>
    <g id="text_17">
     <!-- China -->
     <defs>
      <path d="M 38.671875 62.203125 
Q 32.8125 62.203125 28.296875 60.25 
Q 23.78125 58.296875 20.71875 54.6875 
Q 17.671875 51.078125 16.109375 46 
Q 14.546875 40.921875 14.546875 34.71875 
Q 14.546875 28.515625 16.234375 23.359375 
Q 17.921875 18.21875 21.0625 14.5 
Q 24.21875 10.796875 28.78125 8.734375 
Q 33.34375 6.6875 39.0625 6.6875 
Q 43.0625 6.6875 46.359375 7.734375 
Q 49.65625 8.796875 52.3125 10.6875 
Q 54.984375 12.59375 57.078125 15.203125 
Q 59.1875 17.828125 60.796875 21 
L 68.40625 17.1875 
Q 66.546875 13.328125 63.8125 10 
Q 61.078125 6.6875 57.390625 4.25 
Q 53.71875 1.8125 49.046875 0.40625 
Q 44.390625 -0.984375 38.625 -0.984375 
Q 30.28125 -0.984375 24 1.671875 
Q 17.71875 4.34375 13.5 9.109375 
Q 9.28125 13.875 7.171875 20.40625 
Q 5.078125 26.953125 5.078125 34.71875 
Q 5.078125 42.78125 7.296875 49.265625 
Q 9.515625 55.765625 13.78125 60.328125 
Q 18.0625 64.890625 24.3125 67.359375 
Q 30.5625 69.828125 38.578125 69.828125 
Q 49.5625 69.828125 56.9375 65.53125 
Q 64.3125 61.234375 67.78125 52.78125 
L 58.9375 49.859375 
Q 57.953125 52.296875 56.296875 54.515625 
Q 54.640625 56.734375 52.140625 58.4375 
Q 49.65625 60.15625 46.3125 61.171875 
Q 42.96875 62.203125 38.671875 62.203125 
z
" id="LiberationSans-67"/>
     </defs>
     <g style="fill:#262626;" transform="translate(626.176838 55.690625)scale(0.1 -0.1)">
      <use xlink:href="#LiberationSans-67"/>
      <use x="72.216797" xlink:href="#LiberationSans-104"/>
      <use x="127.832031" xlink:href="#LiberationSans-105"/>
      <use x="150.048828" xlink:href="#LiberationSans-110"/>
      <use x="205.664062" xlink:href="#LiberationSans-97"/>
     </g>
    </g>
    <g id="line2d_96">
     <path d="M 598.176838 66.5125 
L 618.176838 66.5125 
" style="fill:none;stroke:#0309a6;stroke-linecap:round;stroke-width:1.75;"/>
    </g>
    <g id="line2d_97"/>
    <g id="text_18">
     <!-- France -->
     <defs>
      <path d="M 17.53125 61.1875 
L 17.53125 35.59375 
L 55.90625 35.59375 
L 55.90625 27.875 
L 17.53125 27.875 
L 17.53125 0 
L 8.203125 0 
L 8.203125 68.796875 
L 57.078125 68.796875 
L 57.078125 61.1875 
z
" id="LiberationSans-70"/>
     </defs>
     <g style="fill:#262626;" transform="translate(626.176838 70.0125)scale(0.1 -0.1)">
      <use xlink:href="#LiberationSans-70"/>
      <use x="61.083984" xlink:href="#LiberationSans-114"/>
      <use x="94.384766" xlink:href="#LiberationSans-97"/>
      <use x="150" xlink:href="#LiberationSans-110"/>
      <use x="205.615234" xlink:href="#LiberationSans-99"/>
      <use x="255.615234" xlink:href="#LiberationSans-101"/>
     </g>
    </g>
    <g id="line2d_98">
     <path d="M 598.176838 80.834375 
L 618.176838 80.834375 
" style="fill:none;stroke:#d8b009;stroke-linecap:round;stroke-width:1.75;"/>
    </g>
    <g id="line2d_99"/>
    <g id="text_19">
     <!-- Germany -->
     <defs>
      <path d="M 5.03125 34.71875 
Q 5.03125 42.78125 7.203125 49.265625 
Q 9.375 55.765625 13.6875 60.328125 
Q 18.015625 64.890625 24.40625 67.359375 
Q 30.8125 69.828125 39.265625 69.828125 
Q 45.609375 69.828125 50.390625 68.703125 
Q 55.171875 67.578125 58.6875 65.46875 
Q 62.203125 63.375 64.640625 60.375 
Q 67.09375 57.375 68.796875 53.609375 
L 59.90625 50.984375 
Q 58.640625 53.515625 56.859375 55.59375 
Q 55.078125 57.671875 52.53125 59.125 
Q 50 60.59375 46.65625 61.390625 
Q 43.3125 62.203125 39.015625 62.203125 
Q 32.765625 62.203125 28.140625 60.25 
Q 23.53125 58.296875 20.5 54.6875 
Q 17.484375 51.078125 15.984375 46 
Q 14.5 40.921875 14.5 34.71875 
Q 14.5 28.515625 16.109375 23.359375 
Q 17.71875 18.21875 20.890625 14.484375 
Q 24.078125 10.75 28.78125 8.671875 
Q 33.5 6.59375 39.703125 6.59375 
Q 43.75 6.59375 47.171875 7.265625 
Q 50.59375 7.953125 53.34375 9.046875 
Q 56.109375 10.15625 58.203125 11.5 
Q 60.296875 12.84375 61.71875 14.203125 
L 61.71875 26.609375 
L 41.15625 26.609375 
L 41.15625 34.421875 
L 70.3125 34.421875 
L 70.3125 10.6875 
Q 68.015625 8.34375 64.90625 6.21875 
Q 61.8125 4.109375 57.953125 2.484375 
Q 54.109375 0.875 49.515625 -0.046875 
Q 44.921875 -0.984375 39.703125 -0.984375 
Q 31 -0.984375 24.5 1.671875 
Q 18.015625 4.34375 13.6875 9.109375 
Q 9.375 13.875 7.203125 20.40625 
Q 5.03125 26.953125 5.03125 34.71875 
z
" id="LiberationSans-71"/>
      <path d="M 37.5 0 
L 37.5 33.5 
Q 37.5 37.359375 37.015625 39.9375 
Q 36.53125 42.53125 35.375 44.109375 
Q 34.234375 45.703125 32.375 46.359375 
Q 30.515625 47.015625 27.828125 47.015625 
Q 25.046875 47.015625 22.796875 45.921875 
Q 20.5625 44.828125 18.96875 42.75 
Q 17.390625 40.671875 16.53125 37.625 
Q 15.671875 34.578125 15.671875 30.609375 
L 15.671875 0 
L 6.9375 0 
L 6.9375 41.546875 
Q 6.9375 43.21875 6.90625 45.046875 
Q 6.890625 46.875 6.828125 48.5 
Q 6.78125 50.140625 6.734375 51.3125 
Q 6.6875 52.484375 6.640625 52.828125 
L 14.9375 52.828125 
Q 14.984375 52.59375 15.03125 51.515625 
Q 15.09375 50.4375 15.15625 49.046875 
Q 15.234375 47.65625 15.28125 46.21875 
Q 15.328125 44.78125 15.328125 43.796875 
L 15.484375 43.796875 
Q 16.65625 46.09375 18.015625 47.953125 
Q 19.390625 49.8125 21.21875 51.09375 
Q 23.046875 52.390625 25.40625 53.09375 
Q 27.78125 53.8125 30.90625 53.8125 
Q 36.921875 53.8125 40.40625 51.421875 
Q 43.890625 49.03125 45.265625 43.796875 
L 45.40625 43.796875 
Q 46.578125 46.09375 48.046875 47.953125 
Q 49.515625 49.8125 51.46875 51.09375 
Q 53.421875 52.390625 55.859375 53.09375 
Q 58.296875 53.8125 61.421875 53.8125 
Q 65.4375 53.8125 68.328125 52.734375 
Q 71.234375 51.65625 73.09375 49.40625 
Q 74.953125 47.171875 75.828125 43.625 
Q 76.703125 40.09375 76.703125 35.203125 
L 76.703125 0 
L 68.015625 0 
L 68.015625 33.5 
Q 68.015625 37.359375 67.53125 39.9375 
Q 67.046875 42.53125 65.890625 44.109375 
Q 64.75 45.703125 62.890625 46.359375 
Q 61.03125 47.015625 58.34375 47.015625 
Q 55.5625 47.015625 53.3125 45.96875 
Q 51.078125 44.921875 49.484375 42.875 
Q 47.90625 40.828125 47.046875 37.75 
Q 46.1875 34.671875 46.1875 30.609375 
L 46.1875 0 
z
" id="LiberationSans-109"/>
     </defs>
     <g style="fill:#262626;" transform="translate(626.176838 84.334375)scale(0.1 -0.1)">
      <use xlink:href="#LiberationSans-71"/>
      <use x="77.783203" xlink:href="#LiberationSans-101"/>
      <use x="133.398438" xlink:href="#LiberationSans-114"/>
      <use x="166.699219" xlink:href="#LiberationSans-109"/>
      <use x="250" xlink:href="#LiberationSans-97"/>
      <use x="305.615234" xlink:href="#LiberationSans-110"/>
      <use x="361.230469" xlink:href="#LiberationSans-121"/>
     </g>
    </g>
    <g id="line2d_100">
     <path d="M 598.176838 95.15625 
L 618.176838 95.15625 
" style="fill:none;stroke:#1007e1;stroke-linecap:round;stroke-width:1.75;"/>
    </g>
    <g id="line2d_101"/>
    <g id="text_20">
     <!-- Italy -->
     <defs>
      <path d="M 9.234375 0 
L 9.234375 68.796875 
L 18.5625 68.796875 
L 18.5625 0 
z
" id="LiberationSans-73"/>
     </defs>
     <g style="fill:#262626;" transform="translate(626.176838 98.65625)scale(0.1 -0.1)">
      <use xlink:href="#LiberationSans-73"/>
      <use x="27.783203" xlink:href="#LiberationSans-116"/>
      <use x="55.566406" xlink:href="#LiberationSans-97"/>
      <use x="111.181641" xlink:href="#LiberationSans-108"/>
      <use x="133.398438" xlink:href="#LiberationSans-121"/>
     </g>
    </g>
    <g id="line2d_102">
     <path d="M 598.176838 109.478125 
L 618.176838 109.478125 
" style="fill:none;stroke:#a67d4c;stroke-linecap:round;stroke-width:1.75;"/>
    </g>
    <g id="line2d_103"/>
    <g id="text_21">
     <!-- Netherlands -->
     <defs>
      <path d="M 52.828125 0 
L 16.015625 58.59375 
Q 16.109375 56.203125 16.265625 53.859375 
Q 16.359375 51.859375 16.421875 49.625 
Q 16.5 47.40625 16.5 45.703125 
L 16.5 0 
L 8.203125 0 
L 8.203125 68.796875 
L 19.046875 68.796875 
L 56.25 9.8125 
Q 56.109375 12.203125 55.953125 14.59375 
Q 55.859375 16.65625 55.765625 19.0625 
Q 55.671875 21.484375 55.671875 23.6875 
L 55.671875 68.796875 
L 64.0625 68.796875 
L 64.0625 0 
z
" id="LiberationSans-78"/>
     </defs>
     <g style="fill:#262626;" transform="translate(626.176838 112.978125)scale(0.1 -0.1)">
      <use xlink:href="#LiberationSans-78"/>
      <use x="72.216797" xlink:href="#LiberationSans-101"/>
      <use x="127.832031" xlink:href="#LiberationSans-116"/>
      <use x="155.615234" xlink:href="#LiberationSans-104"/>
      <use x="211.230469" xlink:href="#LiberationSans-101"/>
      <use x="266.845703" xlink:href="#LiberationSans-114"/>
      <use x="300.146484" xlink:href="#LiberationSans-108"/>
      <use x="322.363281" xlink:href="#LiberationSans-97"/>
      <use x="377.978516" xlink:href="#LiberationSans-110"/>
      <use x="433.59375" xlink:href="#LiberationSans-100"/>
      <use x="489.208984" xlink:href="#LiberationSans-115"/>
     </g>
    </g>
    <g id="line2d_104">
     <path d="M 598.176838 123.8 
L 618.176838 123.8 
" style="fill:none;stroke:#ea71b3;stroke-linecap:round;stroke-width:1.75;"/>
    </g>
    <g id="line2d_105"/>
    <g id="text_22">
     <!-- Portugal -->
     <defs>
      <path d="M 61.421875 48.09375 
Q 61.421875 43.609375 59.9375 39.71875 
Q 58.453125 35.84375 55.5 32.984375 
Q 52.546875 30.125 48.09375 28.46875 
Q 43.65625 26.8125 37.75 26.8125 
L 17.53125 26.8125 
L 17.53125 0 
L 8.203125 0 
L 8.203125 68.796875 
L 37.15625 68.796875 
Q 43.265625 68.796875 47.796875 67.3125 
Q 52.34375 65.828125 55.375 63.109375 
Q 58.40625 60.40625 59.90625 56.5625 
Q 61.421875 52.734375 61.421875 48.09375 
z
M 52.046875 48 
Q 52.046875 54.546875 48.046875 57.9375 
Q 44.046875 61.328125 36.03125 61.328125 
L 17.53125 61.328125 
L 17.53125 34.1875 
L 36.421875 34.1875 
Q 44.484375 34.1875 48.265625 37.75 
Q 52.046875 41.3125 52.046875 48 
z
" id="LiberationSans-80"/>
      <path d="M 26.765625 -20.75 
Q 22.21875 -20.75 18.703125 -19.8125 
Q 15.1875 -18.890625 12.6875 -17.15625 
Q 10.203125 -15.4375 8.640625 -13.03125 
Q 7.078125 -10.640625 6.390625 -7.71875 
L 15.234375 -6.453125 
Q 16.109375 -10.109375 19.109375 -12.078125 
Q 22.125 -14.0625 27 -14.0625 
Q 29.984375 -14.0625 32.421875 -13.234375 
Q 34.859375 -12.40625 36.5625 -10.5625 
Q 38.28125 -8.734375 39.203125 -5.796875 
Q 40.140625 -2.875 40.140625 1.3125 
L 40.140625 9.8125 
L 40.046875 9.8125 
Q 39.0625 7.8125 37.625 5.984375 
Q 36.1875 4.15625 34.109375 2.734375 
Q 32.03125 1.3125 29.296875 0.453125 
Q 26.5625 -0.390625 23.046875 -0.390625 
Q 18.015625 -0.390625 14.421875 1.296875 
Q 10.84375 2.984375 8.5625 6.34375 
Q 6.296875 9.71875 5.25 14.71875 
Q 4.203125 19.734375 4.203125 26.3125 
Q 4.203125 32.671875 5.25 37.75 
Q 6.296875 42.828125 8.65625 46.359375 
Q 11.03125 49.90625 14.8125 51.78125 
Q 18.609375 53.65625 24.03125 53.65625 
Q 29.640625 53.65625 33.765625 51.09375 
Q 37.890625 48.53125 40.140625 43.796875 
L 40.234375 43.796875 
Q 40.234375 45.015625 40.296875 46.53125 
Q 40.375 48.046875 40.453125 49.390625 
Q 40.53125 50.734375 40.625 51.703125 
Q 40.71875 52.6875 40.828125 52.828125 
L 49.171875 52.828125 
Q 49.125 52.390625 49.078125 51.34375 
Q 49.03125 50.296875 48.96875 48.828125 
Q 48.921875 47.359375 48.890625 45.578125 
Q 48.875 43.796875 48.875 41.890625 
L 48.875 1.515625 
Q 48.875 -9.578125 43.421875 -15.15625 
Q 37.984375 -20.75 26.765625 -20.75 
z
M 40.140625 26.421875 
Q 40.140625 31.9375 38.9375 35.859375 
Q 37.75 39.796875 35.796875 42.28125 
Q 33.84375 44.78125 31.328125 45.953125 
Q 28.8125 47.125 26.171875 47.125 
Q 22.796875 47.125 20.375 45.953125 
Q 17.96875 44.78125 16.375 42.265625 
Q 14.796875 39.75 14.03125 35.8125 
Q 13.28125 31.890625 13.28125 26.421875 
Q 13.28125 20.703125 14.03125 16.8125 
Q 14.796875 12.9375 16.359375 10.546875 
Q 17.921875 8.15625 20.3125 7.125 
Q 22.703125 6.109375 26.03125 6.109375 
Q 28.65625 6.109375 31.171875 7.21875 
Q 33.6875 8.34375 35.6875 10.78125 
Q 37.703125 13.234375 38.921875 17.09375 
Q 40.140625 20.953125 40.140625 26.421875 
z
" id="LiberationSans-103"/>
     </defs>
     <g style="fill:#262626;" transform="translate(626.176838 127.3)scale(0.1 -0.1)">
      <use xlink:href="#LiberationSans-80"/>
      <use x="66.699219" xlink:href="#LiberationSans-111"/>
      <use x="122.314453" xlink:href="#LiberationSans-114"/>
      <use x="155.615234" xlink:href="#LiberationSans-116"/>
      <use x="183.398438" xlink:href="#LiberationSans-117"/>
      <use x="239.013672" xlink:href="#LiberationSans-103"/>
      <use x="294.628906" xlink:href="#LiberationSans-97"/>
      <use x="350.244141" xlink:href="#LiberationSans-108"/>
     </g>
    </g>
    <g id="line2d_106">
     <path d="M 598.176838 138.121875 
L 618.176838 138.121875 
" style="fill:none;stroke:#5feb16;stroke-linecap:round;stroke-width:1.75;"/>
    </g>
    <g id="line2d_107"/>
    <g id="text_23">
     <!-- Russia -->
     <defs>
      <path d="M 56.84375 0 
L 38.96875 28.5625 
L 17.53125 28.5625 
L 17.53125 0 
L 8.203125 0 
L 8.203125 68.796875 
L 40.578125 68.796875 
Q 46.4375 68.796875 50.953125 67.453125 
Q 55.46875 66.109375 58.546875 63.5625 
Q 61.625 61.03125 63.234375 57.375 
Q 64.84375 53.71875 64.84375 49.125 
Q 64.84375 45.84375 63.890625 42.671875 
Q 62.9375 39.5 60.890625 36.859375 
Q 58.84375 34.234375 55.65625 32.328125 
Q 52.484375 30.421875 48.046875 29.640625 
L 67.578125 0 
z
M 55.46875 49.03125 
Q 55.46875 52.15625 54.390625 54.4375 
Q 53.328125 56.734375 51.265625 58.265625 
Q 49.21875 59.8125 46.28125 60.5625 
Q 43.359375 61.328125 39.65625 61.328125 
L 17.53125 61.328125 
L 17.53125 35.9375 
L 40.046875 35.9375 
Q 44.046875 35.9375 46.96875 36.9375 
Q 49.90625 37.9375 51.78125 39.6875 
Q 53.65625 41.453125 54.5625 43.84375 
Q 55.46875 46.234375 55.46875 49.03125 
z
" id="LiberationSans-82"/>
     </defs>
     <g style="fill:#262626;" transform="translate(626.176838 141.621875)scale(0.1 -0.1)">
      <use xlink:href="#LiberationSans-82"/>
      <use x="72.216797" xlink:href="#LiberationSans-117"/>
      <use x="127.832031" xlink:href="#LiberationSans-115"/>
      <use x="177.832031" xlink:href="#LiberationSans-115"/>
      <use x="227.832031" xlink:href="#LiberationSans-105"/>
      <use x="250.048828" xlink:href="#LiberationSans-97"/>
     </g>
    </g>
    <g id="line2d_108">
     <path d="M 598.176838 152.44375 
L 618.176838 152.44375 
" style="fill:none;stroke:#907eba;stroke-linecap:round;stroke-width:1.75;"/>
    </g>
    <g id="line2d_109"/>
    <g id="text_24">
     <!-- Spain -->
     <defs>
      <path d="M 62.109375 19 
Q 62.109375 14.65625 60.421875 10.984375 
Q 58.734375 7.328125 55.21875 4.65625 
Q 51.703125 2 46.359375 0.5 
Q 41.015625 -0.984375 33.6875 -0.984375 
Q 20.84375 -0.984375 13.671875 3.515625 
Q 6.5 8.015625 4.546875 16.5 
L 13.578125 18.3125 
Q 14.265625 15.625 15.671875 13.421875 
Q 17.09375 11.234375 19.5 9.640625 
Q 21.921875 8.0625 25.484375 7.171875 
Q 29.046875 6.296875 34.03125 6.296875 
Q 38.1875 6.296875 41.65625 7 
Q 45.125 7.71875 47.609375 9.171875 
Q 50.09375 10.640625 51.484375 12.953125 
Q 52.875 15.28125 52.875 18.5 
Q 52.875 21.875 51.34375 23.96875 
Q 49.8125 26.078125 47.015625 27.4375 
Q 44.234375 28.8125 40.375 29.734375 
Q 36.53125 30.671875 31.84375 31.734375 
Q 28.953125 32.375 26.046875 33.125 
Q 23.140625 33.890625 20.484375 34.9375 
Q 17.828125 35.984375 15.484375 37.390625 
Q 13.140625 38.8125 11.421875 40.796875 
Q 9.71875 42.78125 8.734375 45.390625 
Q 7.765625 48 7.765625 51.421875 
Q 7.765625 56.296875 9.734375 59.78125 
Q 11.71875 63.28125 15.234375 65.53125 
Q 18.75 67.78125 23.53125 68.796875 
Q 28.328125 69.828125 33.890625 69.828125 
Q 40.28125 69.828125 44.8125 68.828125 
Q 49.359375 67.828125 52.484375 65.8125 
Q 55.609375 63.8125 57.484375 60.859375 
Q 59.375 57.90625 60.5 54 
L 51.3125 52.390625 
Q 50.640625 54.890625 49.34375 56.84375 
Q 48.046875 58.796875 45.9375 60.109375 
Q 43.84375 61.421875 40.84375 62.109375 
Q 37.84375 62.796875 33.796875 62.796875 
Q 29 62.796875 25.75 61.9375 
Q 22.515625 61.078125 20.53125 59.609375 
Q 18.5625 58.15625 17.703125 56.171875 
Q 16.84375 54.203125 16.84375 51.90625 
Q 16.84375 48.828125 18.375 46.84375 
Q 19.921875 44.875 22.5625 43.546875 
Q 25.203125 42.234375 28.65625 41.359375 
Q 32.125 40.484375 36.03125 39.59375 
Q 39.203125 38.875 42.359375 38.109375 
Q 45.515625 37.359375 48.390625 36.296875 
Q 51.265625 35.25 53.78125 33.828125 
Q 56.296875 32.421875 58.15625 30.375 
Q 60.015625 28.328125 61.0625 25.53125 
Q 62.109375 22.75 62.109375 19 
z
" id="LiberationSans-83"/>
      <path d="M 51.421875 26.65625 
Q 51.421875 20.65625 50.4375 15.578125 
Q 49.46875 10.5 47.1875 6.828125 
Q 44.921875 3.171875 41.1875 1.09375 
Q 37.453125 -0.984375 31.984375 -0.984375 
Q 26.3125 -0.984375 22.0625 1.171875 
Q 17.828125 3.328125 15.578125 8.203125 
L 15.328125 8.203125 
Q 15.375 8.109375 15.40625 7.328125 
Q 15.4375 6.546875 15.453125 5.375 
Q 15.484375 4.203125 15.5 2.75 
Q 15.53125 1.3125 15.53125 -0.09375 
L 15.53125 -20.75 
L 6.734375 -20.75 
L 6.734375 42.046875 
Q 6.734375 43.953125 6.703125 45.703125 
Q 6.6875 47.46875 6.640625 48.90625 
Q 6.59375 50.34375 6.546875 51.359375 
Q 6.5 52.390625 6.453125 52.828125 
L 14.9375 52.828125 
Q 14.984375 52.6875 15.0625 51.796875 
Q 15.140625 50.921875 15.203125 49.671875 
Q 15.28125 48.4375 15.359375 47.015625 
Q 15.4375 45.609375 15.4375 44.34375 
L 15.625 44.34375 
Q 16.84375 46.875 18.40625 48.65625 
Q 19.96875 50.4375 21.96875 51.578125 
Q 23.96875 52.734375 26.4375 53.25 
Q 28.90625 53.765625 31.984375 53.765625 
Q 37.453125 53.765625 41.1875 51.8125 
Q 44.921875 49.859375 47.1875 46.3125 
Q 49.46875 42.78125 50.4375 37.765625 
Q 51.421875 32.765625 51.421875 26.65625 
z
M 42.1875 26.46875 
Q 42.1875 31.34375 41.59375 35.15625 
Q 41.015625 38.96875 39.578125 41.59375 
Q 38.140625 44.234375 35.734375 45.59375 
Q 33.34375 46.96875 29.734375 46.96875 
Q 26.8125 46.96875 24.21875 46.140625 
Q 21.625 45.3125 19.703125 42.96875 
Q 17.78125 40.625 16.65625 36.5 
Q 15.53125 32.375 15.53125 25.78125 
Q 15.53125 20.171875 16.453125 16.28125 
Q 17.390625 12.40625 19.171875 10.015625 
Q 20.953125 7.625 23.578125 6.5625 
Q 26.21875 5.515625 29.640625 5.515625 
Q 33.296875 5.515625 35.71875 6.921875 
Q 38.140625 8.34375 39.578125 11.03125 
Q 41.015625 13.71875 41.59375 17.59375 
Q 42.1875 21.484375 42.1875 26.46875 
z
" id="LiberationSans-112"/>
     </defs>
     <g style="fill:#262626;" transform="translate(626.176838 155.94375)scale(0.1 -0.1)">
      <use xlink:href="#LiberationSans-83"/>
      <use x="66.699219" xlink:href="#LiberationSans-112"/>
      <use x="122.314453" xlink:href="#LiberationSans-97"/>
      <use x="177.929688" xlink:href="#LiberationSans-105"/>
      <use x="200.146484" xlink:href="#LiberationSans-110"/>
     </g>
    </g>
    <g id="line2d_110">
     <path d="M 598.176838 166.765625 
L 618.176838 166.765625 
" style="fill:none;stroke:#221cdf;stroke-linecap:round;stroke-width:1.75;"/>
    </g>
    <g id="line2d_111"/>
    <g id="text_25">
     <!-- Turkey -->
     <defs>
      <path d="M 39.84375 0 
L 21.96875 24.125 
L 15.53125 18.796875 
L 15.53125 0 
L 6.734375 0 
L 6.734375 72.46875 
L 15.53125 72.46875 
L 15.53125 27.203125 
L 38.71875 52.828125 
L 49.03125 52.828125 
L 27.59375 30.125 
L 50.140625 0 
z
" id="LiberationSans-107"/>
     </defs>
     <g style="fill:#262626;" transform="translate(626.176838 170.265625)scale(0.1 -0.1)">
      <use xlink:href="#LiberationSans-84"/>
      <use x="57.333984" xlink:href="#LiberationSans-117"/>
      <use x="112.949219" xlink:href="#LiberationSans-114"/>
      <use x="146.25" xlink:href="#LiberationSans-107"/>
      <use x="196.25" xlink:href="#LiberationSans-101"/>
      <use x="251.865234" xlink:href="#LiberationSans-121"/>
     </g>
    </g>
    <g id="line2d_112">
     <path d="M 598.176838 181.0875 
L 618.176838 181.0875 
" style="fill:none;stroke:#7516fd;stroke-dasharray:6.475,2.8;stroke-dashoffset:0;stroke-width:1.75;"/>
    </g>
    <g id="line2d_113"/>
    <g id="text_26">
     <!-- US -->
     <defs>
      <path d="M 35.6875 -0.984375 
Q 30.03125 -0.984375 24.953125 0.53125 
Q 19.875 2.046875 16.03125 5.25 
Q 12.203125 8.453125 9.953125 13.359375 
Q 7.71875 18.265625 7.71875 25 
L 7.71875 68.796875 
L 17.046875 68.796875 
L 17.046875 25.78125 
Q 17.046875 20.5625 18.4375 16.921875 
Q 19.828125 13.28125 22.3125 10.984375 
Q 24.8125 8.6875 28.203125 7.640625 
Q 31.59375 6.59375 35.640625 6.59375 
Q 39.65625 6.59375 43.21875 7.65625 
Q 46.78125 8.734375 49.46875 11.078125 
Q 52.15625 13.421875 53.6875 17.203125 
Q 55.21875 21 55.21875 26.421875 
L 55.21875 68.796875 
L 64.5 68.796875 
L 64.5 25.875 
Q 64.5 19 62.234375 13.9375 
Q 59.96875 8.890625 56.0625 5.5625 
Q 52.15625 2.25 46.90625 0.625 
Q 41.65625 -0.984375 35.6875 -0.984375 
z
" id="LiberationSans-85"/>
     </defs>
     <g style="fill:#262626;" transform="translate(626.176838 184.5875)scale(0.1 -0.1)">
      <use xlink:href="#LiberationSans-85"/>
      <use x="72.216797" xlink:href="#LiberationSans-83"/>
     </g>
    </g>
    <g id="line2d_114">
     <path d="M 598.176838 195.409375 
L 618.176838 195.409375 
" style="fill:none;stroke:#89f9c9;stroke-linecap:round;stroke-width:1.75;"/>
    </g>
    <g id="line2d_115"/>
    <g id="text_27">
     <!-- United Kingdom -->
     <defs>
      <path d="M 54 0 
L 26.515625 33.203125 
L 17.53125 26.375 
L 17.53125 0 
L 8.203125 0 
L 8.203125 68.796875 
L 17.53125 68.796875 
L 17.53125 34.328125 
L 50.6875 68.796875 
L 61.671875 68.796875 
L 32.375 38.921875 
L 65.578125 0 
z
" id="LiberationSans-75"/>
     </defs>
     <g style="fill:#262626;" transform="translate(626.176838 198.909375)scale(0.1 -0.1)">
      <use xlink:href="#LiberationSans-85"/>
      <use x="72.216797" xlink:href="#LiberationSans-110"/>
      <use x="127.832031" xlink:href="#LiberationSans-105"/>
      <use x="150.048828" xlink:href="#LiberationSans-116"/>
      <use x="177.832031" xlink:href="#LiberationSans-101"/>
      <use x="233.447266" xlink:href="#LiberationSans-100"/>
      <use x="289.0625" xlink:href="#LiberationSans-32"/>
      <use x="316.845703" xlink:href="#LiberationSans-75"/>
      <use x="383.544922" xlink:href="#LiberationSans-105"/>
      <use x="405.761719" xlink:href="#LiberationSans-110"/>
      <use x="461.376953" xlink:href="#LiberationSans-103"/>
      <use x="516.992188" xlink:href="#LiberationSans-100"/>
      <use x="572.607422" xlink:href="#LiberationSans-111"/>
      <use x="628.222656" xlink:href="#LiberationSans-109"/>
     </g>
    </g>
   </g>
  </g>
 </g>
 <defs>
  <clipPath id="p0d2c1d27af">
   <rect height="298.355396" width="658.147552" x="48.177724" y="10.8"/>
  </clipPath>
 </defs>
</svg>
