<?xml version="1.0" encoding="utf-8" standalone="no"?>
<!DOCTYPE svg PUBLIC "-//W3C//DTD SVG 1.1//EN"
  "http://www.w3.org/Graphics/SVG/1.1/DTD/svg11.dtd">
<!-- Created with matplotlib (https://matplotlib.org/) -->
<svg height="360pt" version="1.1" viewBox="0 0 720 360" width="720pt" xmlns="http://www.w3.org/2000/svg" xmlns:xlink="http://www.w3.org/1999/xlink">
 <defs>
  <style type="text/css">
*{stroke-linecap:butt;stroke-linejoin:round;}
  </style>
 </defs>
 <g id="figure_1">
  <g id="patch_1">
   <path d="M 0 360 
L 720 360 
L 720 0 
L 0 0 
z
" style="fill:#ffffff;"/>
  </g>
  <g id="axes_1">
   <g id="patch_2">
    <path d="M 54.29 309.155396 
L 709.2 309.155396 
L 709.2 10.8 
L 54.29 10.8 
z
" style="fill:#eaeaf2;"/>
   </g>
   <g id="matplotlib.axis_1">
    <g id="xtick_1">
     <g id="line2d_1"/>
     <g id="text_1">
      <!-- 0 -->
      <defs>
       <path d="M 51.703125 34.421875 
Q 51.703125 24.515625 49.828125 17.75 
Q 47.953125 10.984375 44.703125 6.8125 
Q 41.453125 2.640625 37.0625 0.828125 
Q 32.671875 -0.984375 27.6875 -0.984375 
Q 22.65625 -0.984375 18.3125 0.828125 
Q 13.96875 2.640625 10.765625 6.78125 
Q 7.5625 10.9375 5.734375 17.703125 
Q 3.90625 24.46875 3.90625 34.421875 
Q 3.90625 44.828125 5.734375 51.640625 
Q 7.5625 58.453125 10.78125 62.5 
Q 14.015625 66.546875 18.40625 68.1875 
Q 22.796875 69.828125 27.984375 69.828125 
Q 32.90625 69.828125 37.21875 68.1875 
Q 41.546875 66.546875 44.765625 62.5 
Q 48 58.453125 49.84375 51.640625 
Q 51.703125 44.828125 51.703125 34.421875 
z
M 42.78125 34.421875 
Q 42.78125 42.625 41.796875 48.0625 
Q 40.828125 53.515625 38.921875 56.765625 
Q 37.015625 60.015625 34.25 61.359375 
Q 31.5 62.703125 27.984375 62.703125 
Q 24.265625 62.703125 21.4375 61.328125 
Q 18.609375 59.96875 16.671875 56.71875 
Q 14.75 53.46875 13.765625 48.015625 
Q 12.796875 42.578125 12.796875 34.421875 
Q 12.796875 26.515625 13.796875 21.09375 
Q 14.796875 15.671875 16.71875 12.375 
Q 18.65625 9.078125 21.4375 7.640625 
Q 24.21875 6.203125 27.78125 6.203125 
Q 31.25 6.203125 34.03125 7.640625 
Q 36.8125 9.078125 38.734375 12.375 
Q 40.671875 15.671875 41.71875 21.09375 
Q 42.78125 26.515625 42.78125 34.421875 
z
" id="LiberationSans-48"/>
      </defs>
      <g style="fill:#262626;" transform="translate(83.921082 325.211887)rotate(-45)scale(0.1 -0.1)">
       <use xlink:href="#LiberationSans-48"/>
      </g>
     </g>
    </g>
    <g id="xtick_2">
     <g id="line2d_2"/>
     <g id="text_2">
      <!-- 20 -->
      <defs>
       <path d="M 5.03125 0 
L 5.03125 6.203125 
Q 7.515625 11.921875 11.109375 16.28125 
Q 14.703125 20.65625 18.65625 24.1875 
Q 22.609375 27.734375 26.484375 30.765625 
Q 30.375 33.796875 33.5 36.8125 
Q 36.625 39.84375 38.546875 43.15625 
Q 40.484375 46.484375 40.484375 50.6875 
Q 40.484375 53.609375 39.59375 55.828125 
Q 38.71875 58.0625 37.0625 59.5625 
Q 35.40625 61.078125 33.078125 61.828125 
Q 30.765625 62.59375 27.9375 62.59375 
Q 25.296875 62.59375 22.96875 61.859375 
Q 20.65625 61.140625 18.84375 59.671875 
Q 17.046875 58.203125 15.890625 56.03125 
Q 14.75 53.859375 14.40625 50.984375 
L 5.421875 51.8125 
Q 5.859375 55.515625 7.46875 58.78125 
Q 9.078125 62.0625 11.90625 64.53125 
Q 14.75 67 18.71875 68.40625 
Q 22.703125 69.828125 27.9375 69.828125 
Q 33.0625 69.828125 37.0625 68.609375 
Q 41.0625 67.390625 43.8125 64.984375 
Q 46.578125 62.59375 48.046875 59.078125 
Q 49.515625 55.5625 49.515625 50.984375 
Q 49.515625 47.515625 48.265625 44.390625 
Q 47.015625 41.265625 44.9375 38.421875 
Q 42.875 35.59375 40.140625 32.953125 
Q 37.40625 30.328125 34.421875 27.8125 
Q 31.453125 25.296875 28.421875 22.828125 
Q 25.390625 20.359375 22.71875 17.859375 
Q 20.0625 15.375 17.96875 12.8125 
Q 15.875 10.25 14.703125 7.46875 
L 50.59375 7.46875 
L 50.59375 0 
z
" id="LiberationSans-50"/>
      </defs>
      <g style="fill:#262626;" transform="translate(168.87072 329.144064)rotate(-45)scale(0.1 -0.1)">
       <use xlink:href="#LiberationSans-50"/>
       <use x="55.615234" xlink:href="#LiberationSans-48"/>
      </g>
     </g>
    </g>
    <g id="xtick_3">
     <g id="line2d_3"/>
     <g id="text_3">
      <!-- 40 -->
      <defs>
       <path d="M 43.015625 15.578125 
L 43.015625 0 
L 34.71875 0 
L 34.71875 15.578125 
L 2.296875 15.578125 
L 2.296875 22.40625 
L 33.796875 68.796875 
L 43.015625 68.796875 
L 43.015625 22.515625 
L 52.6875 22.515625 
L 52.6875 15.578125 
z
M 34.71875 58.890625 
Q 34.625 58.640625 34.234375 57.9375 
Q 33.84375 57.234375 33.34375 56.34375 
Q 32.859375 55.46875 32.34375 54.5625 
Q 31.84375 53.65625 31.453125 53.078125 
L 13.8125 27.09375 
Q 13.578125 26.703125 13.109375 26.0625 
Q 12.640625 25.4375 12.15625 24.78125 
Q 11.671875 24.125 11.171875 23.484375 
Q 10.6875 22.859375 10.40625 22.515625 
L 34.71875 22.515625 
z
" id="LiberationSans-52"/>
      </defs>
      <g style="fill:#262626;" transform="translate(255.786447 329.144064)rotate(-45)scale(0.1 -0.1)">
       <use xlink:href="#LiberationSans-52"/>
       <use x="55.615234" xlink:href="#LiberationSans-48"/>
      </g>
     </g>
    </g>
    <g id="xtick_4">
     <g id="line2d_4"/>
     <g id="text_4">
      <!-- 60 -->
      <defs>
       <path d="M 51.21875 22.515625 
Q 51.21875 17.328125 49.78125 13 
Q 48.34375 8.6875 45.53125 5.578125 
Q 42.71875 2.484375 38.5625 0.75 
Q 34.421875 -0.984375 29 -0.984375 
Q 23 -0.984375 18.5 1.3125 
Q 14.015625 3.609375 11.03125 7.921875 
Q 8.0625 12.25 6.5625 18.53125 
Q 5.078125 24.8125 5.078125 32.8125 
Q 5.078125 42 6.765625 48.921875 
Q 8.453125 55.859375 11.625 60.5 
Q 14.796875 65.140625 19.359375 67.484375 
Q 23.921875 69.828125 29.6875 69.828125 
Q 33.203125 69.828125 36.28125 69.09375 
Q 39.359375 68.359375 41.875 66.71875 
Q 44.390625 65.09375 46.28125 62.40625 
Q 48.1875 59.71875 49.3125 55.8125 
L 40.921875 54.296875 
Q 39.546875 58.734375 36.546875 60.71875 
Q 33.546875 62.703125 29.59375 62.703125 
Q 25.984375 62.703125 23.046875 60.984375 
Q 20.125 59.28125 18.0625 55.875 
Q 16.015625 52.484375 14.90625 47.359375 
Q 13.8125 42.234375 13.8125 35.40625 
Q 16.21875 39.84375 20.5625 42.15625 
Q 24.90625 44.484375 30.515625 44.484375 
Q 35.203125 44.484375 39.015625 42.96875 
Q 42.828125 41.453125 45.53125 38.59375 
Q 48.25 35.75 49.734375 31.671875 
Q 51.21875 27.59375 51.21875 22.515625 
z
M 42.28125 22.125 
Q 42.28125 25.6875 41.40625 28.5625 
Q 40.53125 31.453125 38.765625 33.46875 
Q 37.015625 35.5 34.421875 36.59375 
Q 31.84375 37.703125 28.421875 37.703125 
Q 26.03125 37.703125 23.578125 36.984375 
Q 21.140625 36.28125 19.15625 34.6875 
Q 17.1875 33.109375 15.9375 30.515625 
Q 14.703125 27.9375 14.703125 24.21875 
Q 14.703125 20.40625 15.671875 17.109375 
Q 16.65625 13.8125 18.484375 11.375 
Q 20.3125 8.9375 22.890625 7.515625 
Q 25.484375 6.109375 28.71875 6.109375 
Q 31.890625 6.109375 34.40625 7.203125 
Q 36.921875 8.296875 38.671875 10.375 
Q 40.4375 12.453125 41.359375 15.421875 
Q 42.28125 18.40625 42.28125 22.125 
z
" id="LiberationSans-54"/>
      </defs>
      <g style="fill:#262626;" transform="translate(342.702174 329.144064)rotate(-45)scale(0.1 -0.1)">
       <use xlink:href="#LiberationSans-54"/>
       <use x="55.615234" xlink:href="#LiberationSans-48"/>
      </g>
     </g>
    </g>
    <g id="xtick_5">
     <g id="line2d_5"/>
     <g id="text_5">
      <!-- 80 -->
      <defs>
       <path d="M 51.265625 19.1875 
Q 51.265625 14.796875 49.875 11.109375 
Q 48.484375 7.421875 45.625 4.734375 
Q 42.78125 2.046875 38.328125 0.53125 
Q 33.890625 -0.984375 27.828125 -0.984375 
Q 21.78125 -0.984375 17.359375 0.53125 
Q 12.9375 2.046875 10.03125 4.703125 
Q 7.125 7.375 5.734375 11.0625 
Q 4.34375 14.75 4.34375 19.09375 
Q 4.34375 22.859375 5.484375 25.78125 
Q 6.640625 28.71875 8.5625 30.828125 
Q 10.5 32.953125 12.96875 34.25 
Q 15.4375 35.546875 18.0625 35.984375 
L 18.0625 36.1875 
Q 15.1875 36.859375 12.90625 38.375 
Q 10.640625 39.890625 9.09375 42.015625 
Q 7.5625 44.140625 6.75 46.71875 
Q 5.953125 49.3125 5.953125 52.203125 
Q 5.953125 55.8125 7.34375 59 
Q 8.734375 62.203125 11.46875 64.625 
Q 14.203125 67.046875 18.25 68.4375 
Q 22.3125 69.828125 27.640625 69.828125 
Q 33.25 69.828125 37.375 68.40625 
Q 41.5 67 44.203125 64.578125 
Q 46.921875 62.15625 48.234375 58.9375 
Q 49.5625 55.71875 49.5625 52.09375 
Q 49.5625 49.265625 48.75 46.671875 
Q 47.953125 44.09375 46.40625 41.96875 
Q 44.875 39.84375 42.59375 38.34375 
Q 40.328125 36.859375 37.359375 36.28125 
L 37.359375 36.078125 
Q 40.328125 35.59375 42.859375 34.296875 
Q 45.40625 33.015625 47.265625 30.890625 
Q 49.125 28.765625 50.1875 25.828125 
Q 51.265625 22.90625 51.265625 19.1875 
z
M 40.4375 51.609375 
Q 40.4375 54.203125 39.765625 56.34375 
Q 39.109375 58.5 37.59375 60.03125 
Q 36.078125 61.578125 33.640625 62.421875 
Q 31.203125 63.28125 27.640625 63.28125 
Q 24.171875 63.28125 21.78125 62.421875 
Q 19.390625 61.578125 17.84375 60.03125 
Q 16.3125 58.5 15.625 56.34375 
Q 14.9375 54.203125 14.9375 51.609375 
Q 14.9375 49.5625 15.46875 47.40625 
Q 16.015625 45.265625 17.421875 43.5 
Q 18.84375 41.75 21.328125 40.625 
Q 23.828125 39.5 27.734375 39.5 
Q 31.890625 39.5 34.40625 40.625 
Q 36.921875 41.75 38.25 43.5 
Q 39.59375 45.265625 40.015625 47.40625 
Q 40.4375 49.5625 40.4375 51.609375 
z
M 42.140625 20.015625 
Q 42.140625 22.515625 41.453125 24.828125 
Q 40.765625 27.15625 39.109375 28.9375 
Q 37.453125 30.71875 34.640625 31.8125 
Q 31.84375 32.90625 27.640625 32.90625 
Q 23.78125 32.90625 21.0625 31.8125 
Q 18.359375 30.71875 16.671875 28.90625 
Q 14.984375 27.09375 14.203125 24.71875 
Q 13.421875 22.359375 13.421875 19.828125 
Q 13.421875 16.65625 14.203125 14.03125 
Q 14.984375 11.421875 16.6875 9.546875 
Q 18.40625 7.671875 21.1875 6.640625 
Q 23.96875 5.609375 27.9375 5.609375 
Q 31.9375 5.609375 34.671875 6.640625 
Q 37.40625 7.671875 39.0625 9.546875 
Q 40.71875 11.421875 41.421875 14.078125 
Q 42.140625 16.75 42.140625 20.015625 
z
" id="LiberationSans-56"/>
      </defs>
      <g style="fill:#262626;" transform="translate(429.6179 329.144064)rotate(-45)scale(0.1 -0.1)">
       <use xlink:href="#LiberationSans-56"/>
       <use x="55.615234" xlink:href="#LiberationSans-48"/>
      </g>
     </g>
    </g>
    <g id="xtick_6">
     <g id="line2d_6"/>
     <g id="text_6">
      <!-- 100 -->
      <defs>
       <path d="M 7.625 0 
L 7.625 7.46875 
L 25.140625 7.46875 
L 25.140625 60.40625 
L 9.625 49.3125 
L 9.625 57.625 
L 25.875 68.796875 
L 33.984375 68.796875 
L 33.984375 7.46875 
L 50.734375 7.46875 
L 50.734375 0 
z
" id="LiberationSans-49"/>
      </defs>
      <g style="fill:#262626;" transform="translate(514.567538 333.07624)rotate(-45)scale(0.1 -0.1)">
       <use xlink:href="#LiberationSans-49"/>
       <use x="55.615234" xlink:href="#LiberationSans-48"/>
       <use x="111.230469" xlink:href="#LiberationSans-48"/>
      </g>
     </g>
    </g>
    <g id="xtick_7">
     <g id="line2d_7"/>
     <g id="text_7">
      <!-- 120 -->
      <g style="fill:#262626;" transform="translate(601.483265 333.07624)rotate(-45)scale(0.1 -0.1)">
       <use xlink:href="#LiberationSans-49"/>
       <use x="55.615234" xlink:href="#LiberationSans-50"/>
       <use x="111.230469" xlink:href="#LiberationSans-48"/>
      </g>
     </g>
    </g>
    <g id="xtick_8">
     <g id="line2d_8"/>
     <g id="text_8">
      <!-- 140 -->
      <g style="fill:#262626;" transform="translate(688.398992 333.07624)rotate(-45)scale(0.1 -0.1)">
       <use xlink:href="#LiberationSans-49"/>
       <use x="55.615234" xlink:href="#LiberationSans-52"/>
       <use x="111.230469" xlink:href="#LiberationSans-48"/>
      </g>
     </g>
    </g>
    <g id="text_9">
     <!-- Days since case nº20 -->
     <defs>
      <path d="M 67.4375 35.109375 
Q 67.4375 26.515625 64.84375 19.9375 
Q 62.25 13.375 57.75 8.953125 
Q 53.265625 4.546875 47.140625 2.265625 
Q 41.015625 0 33.9375 0 
L 8.203125 0 
L 8.203125 68.796875 
L 30.953125 68.796875 
Q 38.921875 68.796875 45.625 66.8125 
Q 52.34375 64.84375 57.171875 60.71875 
Q 62.015625 56.59375 64.71875 50.234375 
Q 67.4375 43.890625 67.4375 35.109375 
z
M 58.0625 35.109375 
Q 58.0625 42.09375 56.046875 47.046875 
Q 54.046875 52 50.4375 55.171875 
Q 46.828125 58.34375 41.796875 59.828125 
Q 36.765625 61.328125 30.765625 61.328125 
L 17.53125 61.328125 
L 17.53125 7.46875 
L 32.859375 7.46875 
Q 38.28125 7.46875 42.890625 9.21875 
Q 47.515625 10.984375 50.875 14.453125 
Q 54.25 17.921875 56.15625 23.09375 
Q 58.0625 28.265625 58.0625 35.109375 
z
" id="LiberationSans-68"/>
      <path d="M 20.21875 -0.984375 
Q 12.25 -0.984375 8.25 3.21875 
Q 4.25 7.421875 4.25 14.75 
Q 4.25 19.96875 6.21875 23.3125 
Q 8.203125 26.65625 11.390625 28.5625 
Q 14.59375 30.46875 18.6875 31.203125 
Q 22.796875 31.9375 27.046875 32.03125 
L 38.921875 32.234375 
L 38.921875 35.109375 
Q 38.921875 38.375 38.234375 40.671875 
Q 37.546875 42.96875 36.125 44.375 
Q 34.71875 45.796875 32.59375 46.453125 
Q 30.46875 47.125 27.59375 47.125 
Q 25.046875 47.125 23 46.75 
Q 20.953125 46.390625 19.4375 45.4375 
Q 17.921875 44.484375 16.984375 42.84375 
Q 16.0625 41.21875 15.765625 38.71875 
L 6.59375 39.546875 
Q 7.078125 42.671875 8.4375 45.28125 
Q 9.8125 47.90625 12.328125 49.796875 
Q 14.84375 51.703125 18.625 52.75 
Q 22.40625 53.8125 27.78125 53.8125 
Q 37.75 53.8125 42.765625 49.234375 
Q 47.796875 44.671875 47.796875 36.03125 
L 47.796875 13.28125 
Q 47.796875 9.375 48.828125 7.390625 
Q 49.859375 5.421875 52.734375 5.421875 
Q 53.46875 5.421875 54.203125 5.515625 
Q 54.9375 5.609375 55.609375 5.765625 
L 55.609375 0.296875 
Q 53.953125 -0.09375 52.3125 -0.28125 
Q 50.6875 -0.484375 48.828125 -0.484375 
Q 46.34375 -0.484375 44.5625 0.171875 
Q 42.78125 0.828125 41.65625 2.171875 
Q 40.53125 3.515625 39.9375 5.484375 
Q 39.359375 7.46875 39.203125 10.109375 
L 38.921875 10.109375 
Q 37.5 7.5625 35.8125 5.515625 
Q 34.125 3.46875 31.875 2.03125 
Q 29.640625 0.59375 26.78125 -0.1875 
Q 23.921875 -0.984375 20.21875 -0.984375 
z
M 22.21875 5.609375 
Q 26.421875 5.609375 29.5625 7.140625 
Q 32.71875 8.6875 34.78125 11.078125 
Q 36.859375 13.484375 37.890625 16.3125 
Q 38.921875 19.140625 38.921875 21.734375 
L 38.921875 26.078125 
L 29.296875 25.875 
Q 26.078125 25.828125 23.171875 25.40625 
Q 20.265625 25 18.0625 23.78125 
Q 15.875 22.5625 14.578125 20.359375 
Q 13.28125 18.171875 13.28125 14.59375 
Q 13.28125 10.296875 15.59375 7.953125 
Q 17.921875 5.609375 22.21875 5.609375 
z
" id="LiberationSans-97"/>
      <path d="M 29.5 0 
Q 27.640625 -4.78125 25.703125 -8.609375 
Q 23.78125 -12.453125 21.390625 -15.15625 
Q 19 -17.875 16.0625 -19.3125 
Q 13.140625 -20.75 9.328125 -20.75 
Q 7.671875 -20.75 6.25 -20.65625 
Q 4.828125 -20.5625 3.265625 -20.21875 
L 3.265625 -13.625 
Q 4.203125 -13.765625 5.375 -13.84375 
Q 6.546875 -13.921875 7.375 -13.921875 
Q 11.234375 -13.921875 14.546875 -11.03125 
Q 17.875 -8.15625 20.359375 -1.859375 
L 21.1875 0.25 
L 0.25 52.828125 
L 9.625 52.828125 
L 20.75 23.640625 
Q 21.234375 22.3125 21.984375 20.109375 
Q 22.75 17.921875 23.5 15.71875 
Q 24.265625 13.53125 24.84375 11.765625 
Q 25.4375 10.015625 25.53125 9.578125 
Q 25.6875 10.109375 26.25 11.6875 
Q 26.8125 13.28125 27.515625 15.234375 
Q 28.21875 17.1875 28.953125 19.1875 
Q 29.6875 21.1875 30.171875 22.65625 
L 40.53125 52.828125 
L 49.8125 52.828125 
z
" id="LiberationSans-121"/>
      <path d="M 46.390625 14.59375 
Q 46.390625 10.890625 44.9375 7.984375 
Q 43.5 5.078125 40.765625 3.09375 
Q 38.03125 1.125 34.046875 0.0625 
Q 30.078125 -0.984375 24.953125 -0.984375 
Q 20.359375 -0.984375 16.671875 -0.265625 
Q 12.984375 0.4375 10.203125 2 
Q 7.421875 3.5625 5.53125 6.125 
Q 3.65625 8.6875 2.78125 12.40625 
L 10.546875 13.921875 
Q 11.671875 9.671875 15.1875 7.6875 
Q 18.703125 5.71875 24.953125 5.71875 
Q 27.78125 5.71875 30.140625 6.109375 
Q 32.515625 6.5 34.21875 7.453125 
Q 35.9375 8.40625 36.890625 9.984375 
Q 37.84375 11.578125 37.84375 13.921875 
Q 37.84375 16.3125 36.71875 17.84375 
Q 35.59375 19.390625 33.59375 20.40625 
Q 31.59375 21.4375 28.734375 22.1875 
Q 25.875 22.953125 22.46875 23.875 
Q 19.28125 24.703125 16.15625 25.734375 
Q 13.03125 26.765625 10.515625 28.4375 
Q 8.015625 30.125 6.453125 32.609375 
Q 4.890625 35.109375 4.890625 38.875 
Q 4.890625 46.09375 10.03125 49.875 
Q 15.1875 53.65625 25.046875 53.65625 
Q 33.796875 53.65625 38.9375 50.578125 
Q 44.09375 47.515625 45.453125 40.71875 
L 37.546875 39.75 
Q 37.109375 41.796875 35.9375 43.1875 
Q 34.765625 44.578125 33.109375 45.4375 
Q 31.453125 46.296875 29.375 46.65625 
Q 27.296875 47.015625 25.046875 47.015625 
Q 19.09375 47.015625 16.25 45.203125 
Q 13.421875 43.40625 13.421875 39.75 
Q 13.421875 37.59375 14.46875 36.203125 
Q 15.53125 34.8125 17.40625 33.859375 
Q 19.28125 32.90625 21.921875 32.203125 
Q 24.5625 31.5 27.734375 30.71875 
Q 29.828125 30.171875 32.03125 29.5625 
Q 34.234375 28.953125 36.296875 28.09375 
Q 38.375 27.25 40.203125 26.09375 
Q 42.046875 24.953125 43.40625 23.34375 
Q 44.78125 21.734375 45.578125 19.578125 
Q 46.390625 17.4375 46.390625 14.59375 
z
" id="LiberationSans-115"/>
      <path id="LiberationSans-32"/>
      <path d="M 6.6875 64.0625 
L 6.6875 72.46875 
L 15.484375 72.46875 
L 15.484375 64.0625 
z
M 6.6875 0 
L 6.6875 52.828125 
L 15.484375 52.828125 
L 15.484375 0 
z
" id="LiberationSans-105"/>
      <path d="M 40.28125 0 
L 40.28125 33.5 
Q 40.28125 37.359375 39.71875 39.9375 
Q 39.15625 42.53125 37.890625 44.109375 
Q 36.625 45.703125 34.546875 46.359375 
Q 32.46875 47.015625 29.390625 47.015625 
Q 26.265625 47.015625 23.75 45.921875 
Q 21.234375 44.828125 19.453125 42.75 
Q 17.671875 40.671875 16.6875 37.625 
Q 15.71875 34.578125 15.71875 30.609375 
L 15.71875 0 
L 6.9375 0 
L 6.9375 41.546875 
Q 6.9375 43.21875 6.90625 45.046875 
Q 6.890625 46.875 6.828125 48.5 
Q 6.78125 50.140625 6.734375 51.3125 
Q 6.6875 52.484375 6.640625 52.828125 
L 14.9375 52.828125 
Q 14.984375 52.59375 15.03125 51.515625 
Q 15.09375 50.4375 15.15625 49.046875 
Q 15.234375 47.65625 15.28125 46.21875 
Q 15.328125 44.78125 15.328125 43.796875 
L 15.484375 43.796875 
Q 16.75 46.09375 18.265625 47.953125 
Q 19.78125 49.8125 21.78125 51.09375 
Q 23.78125 52.390625 26.359375 53.09375 
Q 28.953125 53.8125 32.375 53.8125 
Q 36.765625 53.8125 39.9375 52.734375 
Q 43.109375 51.65625 45.15625 49.40625 
Q 47.21875 47.171875 48.171875 43.625 
Q 49.125 40.09375 49.125 35.203125 
L 49.125 0 
z
" id="LiberationSans-110"/>
      <path d="M 13.421875 26.65625 
Q 13.421875 22.125 14.078125 18.3125 
Q 14.75 14.5 16.3125 11.734375 
Q 17.875 8.984375 20.4375 7.46875 
Q 23 5.953125 26.765625 5.953125 
Q 31.453125 5.953125 34.59375 8.484375 
Q 37.75 11.03125 38.484375 16.3125 
L 47.359375 15.71875 
Q 46.921875 12.453125 45.453125 9.421875 
Q 44 6.390625 41.484375 4.09375 
Q 38.96875 1.8125 35.34375 0.40625 
Q 31.734375 -0.984375 27 -0.984375 
Q 20.796875 -0.984375 16.453125 1.109375 
Q 12.109375 3.21875 9.390625 6.90625 
Q 6.6875 10.59375 5.46875 15.59375 
Q 4.25 20.609375 4.25 26.46875 
Q 4.25 31.78125 5.125 35.859375 
Q 6 39.9375 7.59375 42.984375 
Q 9.1875 46.046875 11.328125 48.125 
Q 13.484375 50.203125 15.984375 51.4375 
Q 18.5 52.6875 21.28125 53.25 
Q 24.078125 53.8125 26.90625 53.8125 
Q 31.34375 53.8125 34.8125 52.59375 
Q 38.28125 51.375 40.796875 49.25 
Q 43.3125 47.125 44.875 44.234375 
Q 46.4375 41.359375 47.078125 38.03125 
L 38.03125 37.359375 
Q 37.359375 41.75 34.5625 44.328125 
Q 31.78125 46.921875 26.65625 46.921875 
Q 22.90625 46.921875 20.390625 45.671875 
Q 17.875 44.4375 16.3125 41.921875 
Q 14.75 39.40625 14.078125 35.59375 
Q 13.421875 31.78125 13.421875 26.65625 
z
" id="LiberationSans-99"/>
      <path d="M 13.484375 24.5625 
Q 13.484375 20.40625 14.328125 16.90625 
Q 15.1875 13.421875 16.96875 10.90625 
Q 18.75 8.40625 21.53125 7 
Q 24.3125 5.609375 28.21875 5.609375 
Q 33.9375 5.609375 37.375 7.90625 
Q 40.828125 10.203125 42.046875 13.71875 
L 49.75 11.53125 
Q 48.921875 9.328125 47.4375 7.109375 
Q 45.953125 4.890625 43.453125 3.09375 
Q 40.96875 1.3125 37.234375 0.15625 
Q 33.5 -0.984375 28.21875 -0.984375 
Q 16.5 -0.984375 10.375 6 
Q 4.25 12.984375 4.25 26.765625 
Q 4.25 34.1875 6.09375 39.328125 
Q 7.953125 44.484375 11.171875 47.703125 
Q 14.40625 50.921875 18.703125 52.359375 
Q 23 53.8125 27.875 53.8125 
Q 34.515625 53.8125 38.984375 51.65625 
Q 43.453125 49.515625 46.15625 45.71875 
Q 48.875 41.9375 50.015625 36.8125 
Q 51.171875 31.6875 51.171875 25.734375 
L 51.171875 24.5625 
z
M 42.09375 31.296875 
Q 41.359375 39.65625 37.84375 43.484375 
Q 34.328125 47.3125 27.734375 47.3125 
Q 25.53125 47.3125 23.109375 46.609375 
Q 20.703125 45.90625 18.65625 44.09375 
Q 16.609375 42.28125 15.1875 39.171875 
Q 13.765625 36.078125 13.578125 31.296875 
z
" id="LiberationSans-101"/>
      <path d="M 35.296875 50.875 
Q 35.296875 41.703125 31 36.734375 
Q 26.703125 31.78125 18.171875 31.78125 
Q 9.96875 31.78125 5.640625 36.6875 
Q 1.3125 41.609375 1.3125 50.875 
Q 1.3125 55.328125 2.359375 58.859375 
Q 3.421875 62.40625 5.546875 64.859375 
Q 7.671875 67.328125 10.859375 68.625 
Q 14.0625 69.921875 18.359375 69.921875 
Q 22.90625 69.921875 26.09375 68.625 
Q 29.296875 67.328125 31.34375 64.890625 
Q 33.40625 62.453125 34.34375 58.90625 
Q 35.296875 55.375 35.296875 50.875 
z
M 28.03125 50.875 
Q 28.03125 54.9375 27.421875 57.609375 
Q 26.8125 60.296875 25.578125 61.890625 
Q 24.359375 63.484375 22.59375 64.140625 
Q 20.84375 64.796875 18.5 64.796875 
Q 16.15625 64.796875 14.328125 64.140625 
Q 12.5 63.484375 11.25 61.859375 
Q 10.015625 60.25 9.375 57.5625 
Q 8.734375 54.890625 8.734375 50.875 
Q 8.734375 46.78125 9.421875 44.09375 
Q 10.109375 41.40625 11.34375 39.796875 
Q 12.59375 38.1875 14.296875 37.546875 
Q 16.015625 36.921875 18.109375 36.921875 
Q 20.515625 36.921875 22.34375 37.546875 
Q 24.171875 38.1875 25.4375 39.796875 
Q 26.703125 41.40625 27.359375 44.09375 
Q 28.03125 46.78125 28.03125 50.875 
z
" id="LiberationSans-186"/>
     </defs>
     <g style="fill:#262626;" transform="translate(328.989688 346.51505)scale(0.11 -0.11)">
      <use xlink:href="#LiberationSans-68"/>
      <use x="72.216797" xlink:href="#LiberationSans-97"/>
      <use x="127.832031" xlink:href="#LiberationSans-121"/>
      <use x="177.832031" xlink:href="#LiberationSans-115"/>
      <use x="227.832031" xlink:href="#LiberationSans-32"/>
      <use x="255.615234" xlink:href="#LiberationSans-115"/>
      <use x="305.615234" xlink:href="#LiberationSans-105"/>
      <use x="327.832031" xlink:href="#LiberationSans-110"/>
      <use x="383.447266" xlink:href="#LiberationSans-99"/>
      <use x="433.447266" xlink:href="#LiberationSans-101"/>
      <use x="489.0625" xlink:href="#LiberationSans-32"/>
      <use x="516.845703" xlink:href="#LiberationSans-99"/>
      <use x="566.845703" xlink:href="#LiberationSans-97"/>
      <use x="622.460938" xlink:href="#LiberationSans-115"/>
      <use x="672.460938" xlink:href="#LiberationSans-101"/>
      <use x="728.076172" xlink:href="#LiberationSans-32"/>
      <use x="755.859375" xlink:href="#LiberationSans-110"/>
      <use x="811.474609" xlink:href="#LiberationSans-186"/>
      <use x="847.998047" xlink:href="#LiberationSans-50"/>
      <use x="903.613281" xlink:href="#LiberationSans-48"/>
     </g>
    </g>
   </g>
   <g id="matplotlib.axis_2">
    <g id="ytick_1">
     <g id="line2d_9"/>
     <g id="text_10">
      <!-- 0 -->
      <g style="fill:#262626;" transform="translate(41.729063 299.222104)scale(0.1 -0.1)">
       <use xlink:href="#LiberationSans-48"/>
      </g>
     </g>
    </g>
    <g id="ytick_2">
     <g id="line2d_10"/>
     <g id="text_11">
      <!-- 1000 -->
      <g style="fill:#262626;" transform="translate(25.04625 253.304998)scale(0.1 -0.1)">
       <use xlink:href="#LiberationSans-49"/>
       <use x="55.615234" xlink:href="#LiberationSans-48"/>
       <use x="111.230469" xlink:href="#LiberationSans-48"/>
       <use x="166.845703" xlink:href="#LiberationSans-48"/>
      </g>
     </g>
    </g>
    <g id="ytick_3">
     <g id="line2d_11"/>
     <g id="text_12">
      <!-- 2000 -->
      <g style="fill:#262626;" transform="translate(25.04625 207.387893)scale(0.1 -0.1)">
       <use xlink:href="#LiberationSans-50"/>
       <use x="55.615234" xlink:href="#LiberationSans-48"/>
       <use x="111.230469" xlink:href="#LiberationSans-48"/>
       <use x="166.845703" xlink:href="#LiberationSans-48"/>
      </g>
     </g>
    </g>
    <g id="ytick_4">
     <g id="line2d_12"/>
     <g id="text_13">
      <!-- 3000 -->
      <defs>
       <path d="M 51.21875 19 
Q 51.21875 14.265625 49.671875 10.546875 
Q 48.140625 6.84375 45.1875 4.265625 
Q 42.234375 1.703125 37.859375 0.359375 
Q 33.5 -0.984375 27.875 -0.984375 
Q 21.484375 -0.984375 17.109375 0.609375 
Q 12.75 2.203125 9.90625 4.8125 
Q 7.078125 7.421875 5.65625 10.765625 
Q 4.25 14.109375 3.8125 17.671875 
L 12.890625 18.5 
Q 13.28125 15.765625 14.328125 13.515625 
Q 15.375 11.28125 17.1875 9.671875 
Q 19 8.0625 21.625 7.171875 
Q 24.265625 6.296875 27.875 6.296875 
Q 34.515625 6.296875 38.296875 9.5625 
Q 42.09375 12.84375 42.09375 19.28125 
Q 42.09375 23.09375 40.40625 25.40625 
Q 38.71875 27.734375 36.203125 29.03125 
Q 33.6875 30.328125 30.734375 30.765625 
Q 27.78125 31.203125 25.296875 31.203125 
L 20.3125 31.203125 
L 20.3125 38.8125 
L 25.09375 38.8125 
Q 27.59375 38.8125 30.265625 39.328125 
Q 32.953125 39.84375 35.171875 41.1875 
Q 37.40625 42.53125 38.84375 44.828125 
Q 40.28125 47.125 40.28125 50.6875 
Q 40.28125 56.203125 37.03125 59.390625 
Q 33.796875 62.59375 27.390625 62.59375 
Q 21.578125 62.59375 17.984375 59.609375 
Q 14.40625 56.640625 13.8125 51.21875 
L 4.984375 51.90625 
Q 5.515625 56.453125 7.46875 59.8125 
Q 9.421875 63.1875 12.421875 65.40625 
Q 15.4375 67.625 19.28125 68.71875 
Q 23.140625 69.828125 27.484375 69.828125 
Q 33.25 69.828125 37.390625 68.375 
Q 41.546875 66.9375 44.1875 64.46875 
Q 46.828125 62.015625 48.0625 58.6875 
Q 49.3125 55.375 49.3125 51.609375 
Q 49.3125 48.578125 48.484375 45.9375 
Q 47.65625 43.3125 45.890625 41.203125 
Q 44.140625 39.109375 41.421875 37.59375 
Q 38.71875 36.078125 34.90625 35.296875 
L 34.90625 35.109375 
Q 39.0625 34.671875 42.140625 33.21875 
Q 45.21875 31.78125 47.21875 29.625 
Q 49.21875 27.484375 50.21875 24.75 
Q 51.21875 22.015625 51.21875 19 
z
" id="LiberationSans-51"/>
      </defs>
      <g style="fill:#262626;" transform="translate(25.04625 161.470787)scale(0.1 -0.1)">
       <use xlink:href="#LiberationSans-51"/>
       <use x="55.615234" xlink:href="#LiberationSans-48"/>
       <use x="111.230469" xlink:href="#LiberationSans-48"/>
       <use x="166.845703" xlink:href="#LiberationSans-48"/>
      </g>
     </g>
    </g>
    <g id="ytick_5">
     <g id="line2d_13"/>
     <g id="text_14">
      <!-- 4000 -->
      <g style="fill:#262626;" transform="translate(25.04625 115.553682)scale(0.1 -0.1)">
       <use xlink:href="#LiberationSans-52"/>
       <use x="55.615234" xlink:href="#LiberationSans-48"/>
       <use x="111.230469" xlink:href="#LiberationSans-48"/>
       <use x="166.845703" xlink:href="#LiberationSans-48"/>
      </g>
     </g>
    </g>
    <g id="ytick_6">
     <g id="line2d_14"/>
     <g id="text_15">
      <!-- 5000 -->
      <defs>
       <path d="M 51.421875 22.40625 
Q 51.421875 17.234375 49.859375 12.9375 
Q 48.296875 8.640625 45.21875 5.53125 
Q 42.140625 2.4375 37.578125 0.71875 
Q 33.015625 -0.984375 27 -0.984375 
Q 21.578125 -0.984375 17.546875 0.28125 
Q 13.53125 1.5625 10.734375 3.78125 
Q 7.953125 6 6.3125 8.984375 
Q 4.6875 11.96875 4 15.375 
L 12.890625 16.40625 
Q 13.421875 14.453125 14.390625 12.625 
Q 15.375 10.796875 17.0625 9.34375 
Q 18.75 7.90625 21.21875 7.046875 
Q 23.6875 6.203125 27.203125 6.203125 
Q 30.609375 6.203125 33.390625 7.25 
Q 36.1875 8.296875 38.15625 10.34375 
Q 40.140625 12.40625 41.203125 15.375 
Q 42.28125 18.359375 42.28125 22.21875 
Q 42.28125 25.390625 41.25 28.046875 
Q 40.234375 30.71875 38.328125 32.640625 
Q 36.421875 34.578125 33.65625 35.640625 
Q 30.90625 36.71875 27.390625 36.71875 
Q 25.203125 36.71875 23.34375 36.328125 
Q 21.484375 35.9375 19.890625 35.25 
Q 18.3125 34.578125 17.015625 33.671875 
Q 15.71875 32.765625 14.59375 31.78125 
L 6 31.78125 
L 8.296875 68.796875 
L 47.40625 68.796875 
L 47.40625 61.328125 
L 16.3125 61.328125 
L 14.984375 39.5 
Q 17.328125 41.3125 20.84375 42.59375 
Q 24.359375 43.890625 29.203125 43.890625 
Q 34.328125 43.890625 38.421875 42.328125 
Q 42.53125 40.765625 45.40625 37.90625 
Q 48.296875 35.0625 49.859375 31.109375 
Q 51.421875 27.15625 51.421875 22.40625 
z
" id="LiberationSans-53"/>
      </defs>
      <g style="fill:#262626;" transform="translate(25.04625 69.636576)scale(0.1 -0.1)">
       <use xlink:href="#LiberationSans-53"/>
       <use x="55.615234" xlink:href="#LiberationSans-48"/>
       <use x="111.230469" xlink:href="#LiberationSans-48"/>
       <use x="166.845703" xlink:href="#LiberationSans-48"/>
      </g>
     </g>
    </g>
    <g id="ytick_7">
     <g id="line2d_15"/>
     <g id="text_16">
      <!-- 6000 -->
      <g style="fill:#262626;" transform="translate(25.04625 23.719471)scale(0.1 -0.1)">
       <use xlink:href="#LiberationSans-54"/>
       <use x="55.615234" xlink:href="#LiberationSans-48"/>
       <use x="111.230469" xlink:href="#LiberationSans-48"/>
       <use x="166.845703" xlink:href="#LiberationSans-48"/>
      </g>
     </g>
    </g>
    <g id="text_17">
     <!-- Total infections over 1M population -->
     <defs>
      <path d="M 35.15625 61.1875 
L 35.15625 0 
L 25.875 0 
L 25.875 61.1875 
L 2.25 61.1875 
L 2.25 68.796875 
L 58.796875 68.796875 
L 58.796875 61.1875 
z
" id="LiberationSans-84"/>
      <path d="M 51.421875 26.46875 
Q 51.421875 12.59375 45.3125 5.796875 
Q 39.203125 -0.984375 27.59375 -0.984375 
Q 22.078125 -0.984375 17.71875 0.671875 
Q 13.375 2.34375 10.375 5.765625 
Q 7.375 9.1875 5.78125 14.328125 
Q 4.203125 19.484375 4.203125 26.46875 
Q 4.203125 53.8125 27.875 53.8125 
Q 34.03125 53.8125 38.5 52.09375 
Q 42.96875 50.390625 45.828125 46.96875 
Q 48.6875 43.5625 50.046875 38.421875 
Q 51.421875 33.296875 51.421875 26.46875 
z
M 42.1875 26.46875 
Q 42.1875 32.625 41.234375 36.625 
Q 40.28125 40.625 38.453125 43.015625 
Q 36.625 45.40625 33.984375 46.359375 
Q 31.34375 47.3125 28.03125 47.3125 
Q 24.65625 47.3125 21.9375 46.3125 
Q 19.234375 45.3125 17.328125 42.890625 
Q 15.4375 40.484375 14.421875 36.46875 
Q 13.421875 32.46875 13.421875 26.46875 
Q 13.421875 20.3125 14.5 16.28125 
Q 15.578125 12.25 17.453125 9.859375 
Q 19.34375 7.46875 21.90625 6.484375 
Q 24.46875 5.515625 27.484375 5.515625 
Q 30.859375 5.515625 33.59375 6.46875 
Q 36.328125 7.421875 38.234375 9.8125 
Q 40.140625 12.203125 41.15625 16.25 
Q 42.1875 20.3125 42.1875 26.46875 
z
" id="LiberationSans-111"/>
      <path d="M 27.046875 0.390625 
Q 25.046875 -0.140625 22.96875 -0.453125 
Q 20.90625 -0.78125 18.171875 -0.78125 
Q 7.625 -0.78125 7.625 11.1875 
L 7.625 46.4375 
L 1.515625 46.4375 
L 1.515625 52.828125 
L 7.953125 52.828125 
L 10.546875 64.65625 
L 16.40625 64.65625 
L 16.40625 52.828125 
L 26.171875 52.828125 
L 26.171875 46.4375 
L 16.40625 46.4375 
L 16.40625 13.09375 
Q 16.40625 9.28125 17.640625 7.734375 
Q 18.890625 6.203125 21.96875 6.203125 
Q 23.25 6.203125 24.4375 6.390625 
Q 25.640625 6.59375 27.046875 6.890625 
z
" id="LiberationSans-116"/>
      <path d="M 6.734375 0 
L 6.734375 72.46875 
L 15.53125 72.46875 
L 15.53125 0 
z
" id="LiberationSans-108"/>
      <path d="M 17.625 46.4375 
L 17.625 0 
L 8.84375 0 
L 8.84375 46.4375 
L 1.421875 46.4375 
L 1.421875 52.828125 
L 8.84375 52.828125 
L 8.84375 58.796875 
Q 8.84375 61.671875 9.375 64.140625 
Q 9.90625 66.609375 11.34375 68.4375 
Q 12.796875 70.265625 15.28125 71.3125 
Q 17.78125 72.359375 21.734375 72.359375 
Q 23.296875 72.359375 24.96875 72.21875 
Q 26.65625 72.078125 27.9375 71.78125 
L 27.9375 65.09375 
Q 27.09375 65.234375 26 65.359375 
Q 24.90625 65.484375 24.03125 65.484375 
Q 22.078125 65.484375 20.828125 64.9375 
Q 19.578125 64.40625 18.875 63.40625 
Q 18.171875 62.40625 17.890625 60.9375 
Q 17.625 59.46875 17.625 57.5625 
L 17.625 52.828125 
L 27.9375 52.828125 
L 27.9375 46.4375 
z
" id="LiberationSans-102"/>
      <path d="M 29.9375 0 
L 19.53125 0 
L 0.34375 52.828125 
L 9.71875 52.828125 
L 21.34375 18.453125 
Q 21.6875 17.390625 22.140625 15.84375 
Q 22.609375 14.3125 23.09375 12.640625 
Q 23.578125 10.984375 24 9.4375 
Q 24.421875 7.90625 24.703125 6.890625 
Q 25 7.90625 25.453125 9.4375 
Q 25.921875 10.984375 26.40625 12.59375 
Q 26.90625 14.203125 27.421875 15.734375 
Q 27.9375 17.28125 28.328125 18.359375 
L 40.328125 52.828125 
L 49.65625 52.828125 
z
" id="LiberationSans-118"/>
      <path d="M 6.9375 0 
L 6.9375 40.53125 
Q 6.9375 42.1875 6.90625 43.921875 
Q 6.890625 45.65625 6.828125 47.265625 
Q 6.78125 48.875 6.734375 50.28125 
Q 6.6875 51.703125 6.640625 52.828125 
L 14.9375 52.828125 
Q 14.984375 51.703125 15.0625 50.265625 
Q 15.140625 48.828125 15.203125 47.3125 
Q 15.28125 45.796875 15.296875 44.40625 
Q 15.328125 43.015625 15.328125 42.046875 
L 15.53125 42.046875 
Q 16.453125 45.0625 17.5 47.28125 
Q 18.5625 49.515625 19.96875 50.953125 
Q 21.390625 52.390625 23.34375 53.09375 
Q 25.296875 53.8125 28.078125 53.8125 
Q 29.15625 53.8125 30.125 53.640625 
Q 31.109375 53.46875 31.640625 53.328125 
L 31.640625 45.265625 
Q 30.765625 45.515625 29.59375 45.625 
Q 28.421875 45.75 26.953125 45.75 
Q 23.921875 45.75 21.796875 44.375 
Q 19.671875 43.015625 18.328125 40.59375 
Q 17 38.1875 16.359375 34.84375 
Q 15.71875 31.5 15.71875 27.546875 
L 15.71875 0 
z
" id="LiberationSans-114"/>
      <path d="M 66.703125 0 
L 66.703125 45.90625 
Q 66.703125 48.390625 66.75 50.96875 
Q 66.796875 53.5625 66.890625 55.71875 
Q 67 58.203125 67.140625 60.546875 
Q 66.453125 58.0625 65.71875 55.609375 
Q 65.09375 53.515625 64.328125 51.140625 
Q 63.578125 48.78125 62.84375 46.875 
L 45.0625 0 
L 38.53125 0 
L 20.515625 46.875 
Q 20.21875 47.609375 19.890625 48.578125 
Q 19.578125 49.5625 19.203125 50.65625 
Q 18.84375 51.765625 18.46875 52.90625 
Q 18.109375 54.046875 17.78125 55.171875 
Q 16.9375 57.765625 16.15625 60.546875 
Q 16.21875 57.8125 16.3125 55.125 
Q 16.40625 52.828125 16.453125 50.3125 
Q 16.5 47.796875 16.5 45.90625 
L 16.5 0 
L 8.203125 0 
L 8.203125 68.796875 
L 20.453125 68.796875 
L 38.765625 21.09375 
Q 39.109375 20.125 39.59375 18.578125 
Q 40.09375 17.046875 40.53125 15.421875 
Q 40.96875 13.8125 41.328125 12.375 
Q 41.703125 10.9375 41.84375 10.15625 
Q 42 10.9375 42.390625 12.40625 
Q 42.78125 13.875 43.28125 15.484375 
Q 43.796875 17.09375 44.28125 18.609375 
Q 44.78125 20.125 45.171875 21.09375 
L 63.140625 68.796875 
L 75.09375 68.796875 
L 75.09375 0 
z
" id="LiberationSans-77"/>
      <path d="M 51.421875 26.65625 
Q 51.421875 20.65625 50.4375 15.578125 
Q 49.46875 10.5 47.1875 6.828125 
Q 44.921875 3.171875 41.1875 1.09375 
Q 37.453125 -0.984375 31.984375 -0.984375 
Q 26.3125 -0.984375 22.0625 1.171875 
Q 17.828125 3.328125 15.578125 8.203125 
L 15.328125 8.203125 
Q 15.375 8.109375 15.40625 7.328125 
Q 15.4375 6.546875 15.453125 5.375 
Q 15.484375 4.203125 15.5 2.75 
Q 15.53125 1.3125 15.53125 -0.09375 
L 15.53125 -20.75 
L 6.734375 -20.75 
L 6.734375 42.046875 
Q 6.734375 43.953125 6.703125 45.703125 
Q 6.6875 47.46875 6.640625 48.90625 
Q 6.59375 50.34375 6.546875 51.359375 
Q 6.5 52.390625 6.453125 52.828125 
L 14.9375 52.828125 
Q 14.984375 52.6875 15.0625 51.796875 
Q 15.140625 50.921875 15.203125 49.671875 
Q 15.28125 48.4375 15.359375 47.015625 
Q 15.4375 45.609375 15.4375 44.34375 
L 15.625 44.34375 
Q 16.84375 46.875 18.40625 48.65625 
Q 19.96875 50.4375 21.96875 51.578125 
Q 23.96875 52.734375 26.4375 53.25 
Q 28.90625 53.765625 31.984375 53.765625 
Q 37.453125 53.765625 41.1875 51.8125 
Q 44.921875 49.859375 47.1875 46.3125 
Q 49.46875 42.78125 50.4375 37.765625 
Q 51.421875 32.765625 51.421875 26.65625 
z
M 42.1875 26.46875 
Q 42.1875 31.34375 41.59375 35.15625 
Q 41.015625 38.96875 39.578125 41.59375 
Q 38.140625 44.234375 35.734375 45.59375 
Q 33.34375 46.96875 29.734375 46.96875 
Q 26.8125 46.96875 24.21875 46.140625 
Q 21.625 45.3125 19.703125 42.96875 
Q 17.78125 40.625 16.65625 36.5 
Q 15.53125 32.375 15.53125 25.78125 
Q 15.53125 20.171875 16.453125 16.28125 
Q 17.390625 12.40625 19.171875 10.015625 
Q 20.953125 7.625 23.578125 6.5625 
Q 26.21875 5.515625 29.640625 5.515625 
Q 33.296875 5.515625 35.71875 6.921875 
Q 38.140625 8.34375 39.578125 11.03125 
Q 41.015625 13.71875 41.59375 17.59375 
Q 42.1875 21.484375 42.1875 26.46875 
z
" id="LiberationSans-112"/>
      <path d="M 15.328125 52.828125 
L 15.328125 19.34375 
Q 15.328125 15.484375 15.890625 12.890625 
Q 16.453125 10.296875 17.71875 8.703125 
Q 19 7.125 21.0625 6.46875 
Q 23.140625 5.8125 26.21875 5.8125 
Q 29.34375 5.8125 31.859375 6.90625 
Q 34.375 8.015625 36.15625 10.078125 
Q 37.9375 12.15625 38.90625 15.203125 
Q 39.890625 18.265625 39.890625 22.21875 
L 39.890625 52.828125 
L 48.6875 52.828125 
L 48.6875 11.28125 
Q 48.6875 9.625 48.703125 7.78125 
Q 48.734375 5.953125 48.78125 4.3125 
Q 48.828125 2.6875 48.875 1.515625 
Q 48.921875 0.34375 48.96875 0 
L 40.671875 0 
Q 40.625 0.25 40.578125 1.3125 
Q 40.53125 2.390625 40.453125 3.78125 
Q 40.375 5.171875 40.328125 6.609375 
Q 40.28125 8.0625 40.28125 9.03125 
L 40.140625 9.03125 
Q 38.875 6.734375 37.359375 4.875 
Q 35.84375 3.03125 33.84375 1.734375 
Q 31.84375 0.4375 29.25 -0.265625 
Q 26.65625 -0.984375 23.25 -0.984375 
Q 18.84375 -0.984375 15.671875 0.09375 
Q 12.5 1.171875 10.453125 3.421875 
Q 8.40625 5.671875 7.453125 9.1875 
Q 6.5 12.703125 6.5 17.625 
L 6.5 52.828125 
z
" id="LiberationSans-117"/>
     </defs>
     <g style="fill:#262626;" transform="translate(18.76375 244.657932)rotate(-90)scale(0.11 -0.11)">
      <use xlink:href="#LiberationSans-84"/>
      <use x="49.958984" xlink:href="#LiberationSans-111"/>
      <use x="105.574219" xlink:href="#LiberationSans-116"/>
      <use x="133.357422" xlink:href="#LiberationSans-97"/>
      <use x="188.972656" xlink:href="#LiberationSans-108"/>
      <use x="211.189453" xlink:href="#LiberationSans-32"/>
      <use x="238.972656" xlink:href="#LiberationSans-105"/>
      <use x="261.189453" xlink:href="#LiberationSans-110"/>
      <use x="316.804688" xlink:href="#LiberationSans-102"/>
      <use x="344.587891" xlink:href="#LiberationSans-101"/>
      <use x="400.203125" xlink:href="#LiberationSans-99"/>
      <use x="450.203125" xlink:href="#LiberationSans-116"/>
      <use x="477.986328" xlink:href="#LiberationSans-105"/>
      <use x="500.203125" xlink:href="#LiberationSans-111"/>
      <use x="555.818359" xlink:href="#LiberationSans-110"/>
      <use x="611.433594" xlink:href="#LiberationSans-115"/>
      <use x="661.433594" xlink:href="#LiberationSans-32"/>
      <use x="689.216797" xlink:href="#LiberationSans-111"/>
      <use x="744.832031" xlink:href="#LiberationSans-118"/>
      <use x="794.832031" xlink:href="#LiberationSans-101"/>
      <use x="850.447266" xlink:href="#LiberationSans-114"/>
      <use x="883.748047" xlink:href="#LiberationSans-32"/>
      <use x="911.53125" xlink:href="#LiberationSans-49"/>
      <use x="967.146484" xlink:href="#LiberationSans-77"/>
      <use x="1050.447266" xlink:href="#LiberationSans-32"/>
      <use x="1078.230469" xlink:href="#LiberationSans-112"/>
      <use x="1133.845703" xlink:href="#LiberationSans-111"/>
      <use x="1189.460938" xlink:href="#LiberationSans-112"/>
      <use x="1245.076172" xlink:href="#LiberationSans-117"/>
      <use x="1300.691406" xlink:href="#LiberationSans-108"/>
      <use x="1322.908203" xlink:href="#LiberationSans-97"/>
      <use x="1378.523438" xlink:href="#LiberationSans-116"/>
      <use x="1406.306641" xlink:href="#LiberationSans-105"/>
      <use x="1428.523438" xlink:href="#LiberationSans-111"/>
      <use x="1484.138672" xlink:href="#LiberationSans-110"/>
     </g>
    </g>
   </g>
   <g id="line2d_16">
    <path clip-path="url(#p2ac70f8e22)" d="M 84.058636 295.470111 
L 88.404423 295.436416 
L 92.750209 295.376645 
L 97.095995 295.292309 
L 101.441782 295.180992 
L 105.787568 295.044787 
L 110.133354 294.866514 
L 114.479141 294.617918 
L 118.824927 294.281696 
L 123.170713 293.768164 
L 127.5165 293.007372 
L 131.862286 292.112134 
L 136.208072 291.143464 
L 140.553859 290.017649 
L 144.899645 288.597888 
L 149.245431 286.923243 
L 153.591218 285.063373 
L 157.937004 282.953436 
L 162.28279 280.249219 
L 166.628577 276.645234 
L 170.974363 272.561622 
L 175.320149 268.759444 
L 179.665936 264.95016 
L 184.011722 260.447515 
L 188.357508 256.187542 
L 192.703295 252.694043 
L 197.049081 249.390565 
L 201.394867 245.95835 
L 205.740654 242.790594 
L 210.08644 240.091058 
L 214.432226 237.800825 
L 218.778013 235.885974 
L 223.123799 234.307479 
L 227.469585 232.889032 
L 231.815372 231.433507 
L 236.161158 229.85765 
L 240.506944 228.248602 
L 244.852731 226.672454 
L 249.198517 225.195609 
L 253.544303 223.984267 
L 257.89009 223.109427 
L 262.235876 222.389893 
L 266.581662 221.659103 
L 270.927449 220.955776 
L 275.273235 220.299179 
L 279.619021 219.721767 
L 283.964808 219.259081 
L 288.310594 218.883551 
L 292.65638 218.550928 
L 297.002167 218.218504 
L 301.347953 217.87932 
L 305.693739 217.520561 
L 310.039526 217.144065 
L 314.385312 216.761696 
L 318.731098 216.397523 
L 323.076885 216.057133 
L 327.422671 215.727049 
L 331.768457 215.427656 
L 336.114244 215.134654 
L 340.46003 214.847512 
L 344.805816 214.620253 
L 349.151603 214.442675 
L 353.497389 214.286617 
L 357.843175 214.122058 
L 362.188962 213.914063 
L 366.534748 213.676143 
L 370.880534 213.449287 
L 375.226321 213.22636 
L 379.572107 213.028448 
L 383.917893 212.829561 
L 388.263679 212.575892 
L 392.609466 212.30433 
L 396.955252 212.018799 
L 401.301038 211.696082 
L 405.646825 211.362346 
L 409.992611 211.096191 
L 414.338397 210.885737 
L 418.684184 210.674672 
L 423.02997 210.459751 
L 427.375756 210.243517 
L 431.721543 210.034039 
L 436.067329 209.842843 
L 440.413115 209.683174 
L 444.758902 209.539091 
L 449.104688 209.396562 
L 453.450474 209.23784 
L 457.796261 209.068793 
L 462.142047 208.905362 
L 466.487833 208.738767 
L 470.83362 208.586878 
L 475.179406 208.478784 
L 479.525192 208.383058 
L 483.870979 208.268982 
L 488.216765 208.112479 
L 492.562551 207.916391 
L 496.908338 207.739572 
L 501.254124 207.652946 
" style="fill:none;stroke:#989173;stroke-linecap:round;stroke-width:1.75;"/>
   </g>
   <g id="line2d_17">
    <path clip-path="url(#p2ac70f8e22)" d="M 84.058636 295.593787 
L 88.404423 295.592996 
L 92.750209 295.591575 
L 97.095995 295.588664 
L 101.441782 295.581714 
L 105.787568 295.572033 
L 110.133354 295.565442 
L 114.479141 295.559777 
L 118.824927 295.54848 
L 123.170713 295.529882 
L 127.5165 295.503004 
L 131.862286 295.464625 
L 136.208072 295.416863 
L 140.553859 295.352012 
L 144.899645 295.267355 
L 149.245431 295.18219 
L 153.591218 295.105463 
L 157.937004 295.027861 
L 162.28279 294.940456 
L 166.628577 294.8453 
L 170.974363 294.750544 
L 175.320149 294.656455 
L 179.665936 294.528246 
L 184.011722 294.33183 
L 188.357508 294.091552 
L 192.703295 293.842317 
L 197.049081 293.595494 
L 201.394867 293.356901 
L 205.740654 293.127715 
L 210.08644 292.853103 
L 214.432226 292.48581 
L 218.778013 292.06439 
L 223.123799 291.662569 
L 227.469585 291.321171 
L 231.815372 291.024164 
L 236.161158 290.727012 
L 240.506944 290.390335 
L 244.852731 289.954674 
L 249.198517 289.41962 
L 253.544303 288.839126 
L 257.89009 288.219675 
L 262.235876 287.624449 
L 266.581662 287.109029 
L 270.927449 286.621056 
L 275.273235 286.08141 
L 279.619021 285.415438 
L 283.964808 284.588765 
L 288.310594 283.646049 
L 292.65638 282.658621 
L 297.002167 281.68894 
L 301.347953 280.64891 
L 305.693739 279.423529 
L 310.039526 278.031863 
L 314.385312 276.62893 
L 318.731098 275.385035 
L 323.076885 274.254887 
L 327.422671 273.05992 
L 331.768457 271.645069 
L 336.114244 269.911009 
L 340.46003 267.856428 
L 344.805816 265.665903 
L 349.151603 263.491898 
L 353.497389 261.534077 
L 357.843175 259.842998 
L 362.188962 258.153088 
L 366.534748 256.137594 
L 370.880534 253.636986 
L 375.226321 250.677083 
L 379.572107 247.52646 
L 383.917893 244.702411 
L 388.263679 242.144835 
L 392.609466 239.185984 
L 396.955252 235.58836 
L 401.301038 231.55973 
L 405.646825 227.363082 
L 409.992611 223.22873 
L 414.338397 219.440977 
L 418.684184 216.076309 
L 423.02997 212.856072 
L 427.375756 209.164155 
L 431.721543 204.579748 
L 436.067329 199.121302 
L 440.413115 193.120539 
L 444.758902 187.399843 
L 449.104688 182.858435 
L 453.450474 178.638977 
L 457.796261 173.338621 
L 462.142047 167.099599 
L 466.487833 160.533413 
L 470.83362 154.155979 
L 475.179406 148.762247 
L 479.525192 145.520273 
" style="fill:none;stroke:#42537f;stroke-linecap:round;stroke-width:1.75;"/>
   </g>
   <g id="line2d_18">
    <path clip-path="url(#p2ac70f8e22)" d="M 84.058636 295.578724 
L 105.787568 295.485067 
L 127.5165 295.175271 
L 179.665936 293.697472 
L 188.357508 293.342581 
L 205.740654 293.128709 
L 275.273235 292.9264 
L 588.169851 292.814046 
L 679.431364 292.809563 
L 679.431364 292.809563 
" style="fill:none;stroke:#ae54a5;stroke-dasharray:6.475,2.8;stroke-dashoffset:0;stroke-width:1.75;"/>
   </g>
   <g id="line2d_19">
    <path clip-path="url(#p2ac70f8e22)" d="M 84.058636 295.564912 
L 88.404423 295.551707 
L 92.750209 295.528855 
L 97.095995 295.501077 
L 101.441782 295.471258 
L 105.787568 295.437058 
L 110.133354 295.381409 
L 114.479141 295.280935 
L 118.824927 295.125004 
L 123.170713 294.953047 
L 127.5165 294.802566 
L 131.862286 294.618671 
L 136.208072 294.34444 
L 140.553859 294.045682 
L 144.899645 293.668764 
L 149.245431 293.108112 
L 153.591218 292.546869 
L 157.937004 291.931565 
L 162.28279 291.04591 
L 166.628577 290.064351 
L 170.974363 289.017281 
L 175.320149 287.83111 
L 179.665936 286.580265 
L 184.011722 285.2562 
L 188.357508 283.617481 
L 192.703295 281.591396 
L 197.049081 279.474013 
L 201.394867 277.21211 
L 205.740654 274.630563 
L 210.08644 271.82462 
L 214.432226 269.035527 
L 218.778013 266.262576 
L 223.123799 262.857608 
L 227.469585 258.873218 
L 231.815372 255.404115 
L 236.161158 252.564825 
L 240.506944 249.667932 
L 244.852731 246.961526 
L 249.198517 244.644712 
L 253.544303 242.209118 
L 257.89009 239.524396 
L 262.235876 236.696383 
L 266.581662 233.701275 
L 270.927449 229.994096 
L 275.273235 223.430289 
L 279.619021 214.300288 
L 283.964808 207.514481 
L 288.310594 203.408613 
L 292.65638 199.206144 
L 297.002167 194.563662 
L 301.347953 191.521779 
L 305.693739 189.746135 
L 310.039526 187.731365 
L 314.385312 185.808487 
L 318.731098 184.709099 
L 323.076885 184.278926 
L 327.422671 183.534437 
L 331.768457 182.421736 
L 336.114244 181.328159 
L 340.46003 180.054217 
L 344.805816 178.392825 
L 349.151603 177.252552 
L 353.497389 177.153527 
L 357.843175 177.191336 
L 362.188962 176.92055 
L 366.534748 176.457017 
L 370.880534 175.965907 
L 375.226321 175.337372 
L 379.572107 174.257137 
L 383.917893 172.872909 
L 388.263679 171.783717 
L 392.609466 171.0508 
L 396.955252 170.556119 
L 401.301038 170.20929 
L 405.646825 169.868009 
L 409.992611 169.545389 
L 414.338397 169.273224 
L 418.684184 168.931485 
L 423.02997 168.613282 
L 427.375756 168.446523 
L 431.721543 168.304446 
L 436.067329 168.009283 
L 440.413115 167.554171 
L 444.758902 167.113171 
L 449.104688 166.793985 
L 453.450474 166.545167 
L 457.796261 166.352469 
L 462.142047 166.219913 
L 466.487833 166.121861 
L 470.83362 165.95924 
L 475.179406 165.332428 
L 479.525192 164.201287 
L 483.870979 163.14305 
L 488.216765 162.348601 
L 492.562551 161.89529 
L 496.908338 161.697702 
L 501.254124 161.3166 
L 505.59991 160.808499 
L 509.945697 160.828995 
L 514.291483 160.87161 
L 518.637269 160.639269 
L 522.983056 160.443165 
" style="fill:none;stroke:#0309a6;stroke-linecap:round;stroke-width:1.75;"/>
   </g>
   <g id="line2d_20">
    <path clip-path="url(#p2ac70f8e22)" d="M 84.058636 295.579856 
L 88.404423 295.57493 
L 92.750209 295.566271 
L 97.095995 295.550851 
L 101.441782 295.530234 
L 105.787568 295.508659 
L 110.133354 295.47922 
L 114.479141 295.42347 
L 118.824927 295.335536 
L 123.170713 295.237992 
L 127.5165 295.140856 
L 131.862286 295.036823 
L 136.208072 294.918938 
L 140.553859 294.762208 
L 144.899645 294.548237 
L 149.245431 294.19858 
L 153.591218 293.649062 
L 157.937004 293.018884 
L 162.28279 292.319145 
L 166.628577 291.437555 
L 170.974363 290.255054 
L 175.320149 288.727171 
L 179.665936 286.914308 
L 184.011722 285.016567 
L 188.357508 283.305397 
L 192.703295 281.575496 
L 197.049081 279.54779 
L 201.394867 277.245928 
L 205.740654 274.529268 
L 210.08644 271.227465 
L 214.432226 267.625788 
L 218.778013 264.248352 
L 223.123799 261.34496 
L 227.469585 258.627798 
L 231.815372 255.725366 
L 236.161158 252.454043 
L 240.506944 248.956131 
L 244.852731 245.651767 
L 249.198517 242.849516 
L 253.544303 240.521273 
L 257.89009 238.352341 
L 262.235876 235.934666 
L 266.581662 233.237762 
L 270.927449 230.653454 
L 275.273235 228.486304 
L 279.619021 226.729175 
L 283.964808 225.241462 
L 288.310594 223.988175 
L 292.65638 222.764269 
L 297.002167 221.263987 
L 301.347953 219.562619 
L 305.693739 217.931969 
L 310.039526 216.609064 
L 314.385312 215.532956 
L 318.731098 214.565926 
L 323.076885 213.591998 
L 327.422671 212.45836 
L 331.768457 211.258697 
L 336.114244 210.200673 
L 340.46003 209.33801 
L 344.805816 208.627047 
L 349.151603 207.985841 
L 353.497389 207.295116 
L 357.843175 206.520189 
L 362.188962 205.771855 
L 366.534748 205.148461 
L 370.880534 204.652468 
L 375.226321 204.251251 
L 379.572107 203.869897 
L 383.917893 203.39878 
L 388.263679 202.808606 
L 392.609466 202.1708 
L 396.955252 201.593679 
L 401.301038 201.140137 
L 405.646825 200.769043 
L 409.992611 200.408724 
L 414.338397 200.029407 
L 418.684184 199.6493 
L 423.02997 199.304726 
L 427.375756 198.970557 
L 431.721543 198.651117 
L 436.067329 198.360006 
L 440.413115 198.034405 
L 444.758902 197.609603 
L 449.104688 197.191553 
L 453.450474 196.840119 
L 457.796261 196.543904 
L 462.142047 196.317852 
L 466.487833 196.128823 
L 470.83362 195.921941 
L 475.179406 195.677632 
L 479.525192 195.405302 
L 483.870979 195.090205 
L 488.216765 194.786916 
L 492.562551 194.574713 
L 496.908338 194.433487 
L 501.254124 194.307582 
L 505.59991 194.169117 
L 509.945697 194.010162 
L 514.291483 193.814934 
L 518.637269 193.581577 
L 522.983056 193.355156 
L 527.328842 193.214845 
" style="fill:none;stroke:#d8b009;stroke-linecap:round;stroke-width:1.75;"/>
   </g>
   <g id="line2d_21">
    <path clip-path="url(#p2ac70f8e22)" d="M 84.058636 295.567185 
L 88.404423 295.535945 
L 92.750209 295.482144 
L 97.095995 295.41753 
L 101.441782 295.338366 
L 105.787568 295.230326 
L 110.133354 295.08589 
L 114.479141 294.903351 
L 118.824927 294.65859 
L 123.170713 294.347685 
L 127.5165 294.015909 
L 131.862286 293.644421 
L 136.208072 293.185859 
L 140.553859 292.623461 
L 144.899645 291.921886 
L 149.245431 291.013068 
L 153.591218 289.91524 
L 157.937004 288.75527 
L 162.28279 287.516683 
L 166.628577 285.94845 
L 170.974363 284.043606 
L 175.320149 281.878 
L 179.665936 279.420903 
L 184.011722 276.814721 
L 188.357508 274.175274 
L 192.703295 271.331807 
L 197.049081 268.006812 
L 201.394867 264.063926 
L 205.740654 259.622894 
L 210.08644 255.05164 
L 214.432226 250.770315 
L 218.778013 246.794837 
L 223.123799 242.828025 
L 227.469585 238.652131 
L 231.815372 234.219535 
L 236.161158 229.716448 
L 240.506944 225.394556 
L 244.852731 221.512177 
L 249.198517 218.092231 
L 253.544303 214.788042 
L 257.89009 211.335982 
L 262.235876 207.796029 
L 266.581662 204.254476 
L 270.927449 200.785052 
L 275.273235 197.57997 
L 279.619021 194.743527 
L 283.964808 192.067602 
L 288.310594 189.223873 
L 292.65638 186.165027 
L 297.002167 182.975367 
L 301.347953 179.738983 
L 305.693739 176.739203 
L 310.039526 174.148319 
L 314.385312 171.819082 
L 318.731098 169.462307 
L 323.076885 166.88795 
L 327.422671 164.230848 
L 331.768457 161.696142 
L 336.114244 159.429398 
L 340.46003 157.374773 
L 344.805816 155.250901 
L 349.151603 152.999302 
L 353.497389 150.791211 
L 357.843175 148.70046 
L 362.188962 146.798967 
L 366.534748 145.110322 
L 370.880534 143.567748 
L 375.226321 142.039014 
L 379.572107 140.507046 
L 383.917893 139.015825 
L 388.263679 137.568459 
L 392.609466 136.234084 
L 396.955252 135.099686 
L 401.301038 134.124861 
L 405.646825 133.180638 
L 409.992611 132.171626 
L 414.338397 131.13891 
L 418.684184 130.178632 
L 423.02997 129.358746 
L 427.375756 128.65778 
L 431.721543 127.936041 
L 436.067329 127.128526 
L 440.413115 126.348207 
L 444.758902 125.638794 
L 449.104688 124.98394 
L 453.450474 124.38265 
L 457.796261 123.861271 
L 462.142047 123.381422 
L 466.487833 122.868983 
L 470.83362 122.348458 
L 475.179406 121.846044 
L 479.525192 121.353034 
L 483.870979 120.889025 
L 488.216765 120.501488 
L 492.562551 120.183291 
L 496.908338 119.849237 
L 501.254124 119.45227 
L 505.59991 119.033495 
L 509.945697 118.650763 
L 514.291483 118.331997 
L 518.637269 118.079696 
L 522.983056 117.866076 
L 527.328842 117.649113 
L 531.674628 117.42861 
L 536.020415 117.194526 
L 540.366201 116.932237 
L 544.711987 116.710605 
L 549.057774 116.588056 
" style="fill:none;stroke:#1007e1;stroke-linecap:round;stroke-width:1.75;"/>
   </g>
   <g id="line2d_22">
    <path clip-path="url(#p2ac70f8e22)" d="M 84.058636 295.514189 
L 88.404423 295.466621 
L 92.750209 295.372746 
L 97.095995 295.244339 
L 101.441782 295.087545 
L 105.787568 294.91532 
L 110.133354 294.741886 
L 114.479141 294.549457 
L 118.824927 294.329275 
L 123.170713 294.024935 
L 127.5165 293.560166 
L 131.862286 293.045719 
L 136.208072 292.494141 
L 140.553859 291.820881 
L 144.899645 291.019863 
L 149.245431 290.079758 
L 153.591218 288.942883 
L 157.937004 287.569506 
L 162.28279 286.038764 
L 166.628577 284.468156 
L 170.974363 282.771795 
L 175.320149 280.765811 
L 179.665936 278.418004 
L 184.011722 275.731169 
L 188.357508 272.78445 
L 192.703295 269.796122 
L 197.049081 266.999318 
L 201.394867 264.473748 
L 205.740654 262.016308 
L 210.08644 259.396313 
L 214.432226 256.655785 
L 218.778013 253.95066 
L 223.123799 251.239727 
L 227.469585 248.46695 
L 231.815372 245.866174 
L 236.161158 243.424697 
L 240.506944 240.761143 
L 244.852731 237.67071 
L 249.198517 234.304476 
L 253.544303 230.971259 
L 257.89009 227.936769 
L 262.235876 225.295131 
L 266.581662 222.944677 
L 270.927449 220.59274 
L 275.273235 217.899745 
L 279.619021 214.909183 
L 283.964808 211.952846 
L 288.310594 209.312936 
L 292.65638 207.083683 
L 297.002167 205.07885 
L 301.347953 203.051187 
L 305.693739 200.929713 
L 310.039526 198.88535 
L 314.385312 197.067475 
L 318.731098 195.549002 
L 323.076885 194.435491 
L 327.422671 193.572585 
L 331.768457 192.590502 
L 336.114244 191.402121 
L 340.46003 190.180897 
L 344.805816 189.084519 
L 349.151603 188.198784 
L 353.497389 187.465041 
L 357.843175 186.733661 
L 362.188962 185.914902 
L 366.534748 184.992677 
L 370.880534 184.108519 
L 375.226321 183.351556 
L 379.572107 182.725076 
L 383.917893 182.193619 
L 388.263679 181.660521 
L 392.609466 181.067618 
L 396.955252 180.45255 
L 401.301038 179.894306 
L 405.646825 179.423668 
L 409.992611 179.028199 
L 414.338397 178.66516 
L 418.684184 178.273594 
L 423.02997 177.783636 
L 427.375756 177.226651 
L 431.721543 176.697895 
L 436.067329 176.211985 
L 440.413115 175.732989 
L 444.758902 175.260627 
L 449.104688 174.810745 
L 453.450474 174.351134 
L 457.796261 173.88359 
L 462.142047 173.441716 
L 466.487833 173.028197 
L 470.83362 172.6399 
L 475.179406 172.310837 
L 479.525192 172.020327 
L 483.870979 171.680513 
L 488.216765 171.226245 
L 492.562551 170.707517 
L 496.908338 170.200444 
L 501.254124 169.836036 
" style="fill:none;stroke:#a67d4c;stroke-linecap:round;stroke-width:1.75;"/>
   </g>
   <g id="line2d_23">
    <path clip-path="url(#p2ac70f8e22)" d="M 84.058636 295.49264 
L 88.404423 295.474158 
L 92.750209 295.447182 
L 97.095995 295.404471 
L 101.441782 295.346127 
L 105.787568 295.25106 
L 110.133354 295.069646 
L 114.479141 294.804201 
L 118.824927 294.471716 
L 123.170713 294.08677 
L 127.5165 293.678179 
L 131.862286 293.100961 
L 136.208072 292.143459 
L 140.553859 290.986138 
L 144.899645 289.71943 
L 149.245431 288.216152 
L 153.591218 286.485961 
L 157.937004 284.529161 
L 162.28279 282.161869 
L 166.628577 279.390558 
L 170.974363 276.160271 
L 175.320149 272.627085 
L 179.665936 269.293994 
L 184.011722 266.069027 
L 188.357508 262.439914 
L 192.703295 258.678254 
L 197.049081 255.046779 
L 201.394867 251.572412 
L 205.740654 248.358306 
L 210.08644 245.41773 
L 214.432226 242.660308 
L 218.778013 239.714267 
L 223.123799 236.304582 
L 227.469585 232.124718 
L 231.815372 227.633997 
L 236.161158 224.112252 
L 240.506944 221.583721 
L 244.852731 219.426868 
L 249.198517 217.08954 
L 253.544303 214.413814 
L 257.89009 211.875086 
L 262.235876 209.712562 
L 266.581662 207.400497 
L 270.927449 204.84001 
L 275.273235 202.221348 
L 279.619021 199.692729 
L 283.964808 197.362195 
L 288.310594 195.270674 
L 292.65638 193.153947 
L 297.002167 190.948124 
L 301.347953 189.090709 
L 305.693739 187.75859 
L 310.039526 186.592365 
L 314.385312 185.238865 
L 318.731098 183.704346 
L 323.076885 182.668265 
L 327.422671 182.327476 
L 331.768457 181.937134 
L 336.114244 181.116705 
L 340.46003 179.855525 
L 344.805816 178.028352 
L 349.151603 175.869136 
L 353.497389 173.987478 
L 357.843175 172.78352 
L 362.188962 172.008519 
L 366.534748 171.287819 
L 370.880534 170.429167 
L 375.226321 169.484755 
L 379.572107 168.507909 
L 383.917893 167.470424 
L 388.263679 166.436466 
L 392.609466 165.471732 
L 396.955252 164.554382 
L 401.301038 163.594084 
L 405.646825 162.549116 
L 409.992611 161.412151 
L 414.338397 160.229537 
L 418.684184 159.157191 
L 423.02997 158.278472 
L 427.375756 157.434026 
L 431.721543 156.430931 
L 436.067329 155.220477 
L 440.413115 153.86303 
L 444.758902 152.478772 
L 449.104688 151.185106 
L 453.450474 150.012318 
L 457.796261 148.955936 
L 462.142047 147.8279 
L 466.487833 146.448896 
L 470.83362 144.899957 
L 475.179406 143.276723 
L 479.525192 141.732732 
L 483.870979 140.698997 
" style="fill:none;stroke:#ea71b3;stroke-linecap:round;stroke-width:1.75;"/>
   </g>
   <g id="line2d_24">
    <path clip-path="url(#p2ac70f8e22)" d="M 84.058636 295.592125 
L 88.404423 295.59121 
L 92.750209 295.588642 
L 97.095995 295.584688 
L 101.441782 295.580663 
L 105.787568 295.57624 
L 110.133354 295.569758 
L 114.479141 295.561042 
L 118.824927 295.549542 
L 123.170713 295.534812 
L 127.5165 295.518143 
L 131.862286 295.500337 
L 136.208072 295.480854 
L 140.553859 295.458731 
L 144.899645 295.428981 
L 149.245431 295.384939 
L 153.591218 295.328878 
L 157.937004 295.264548 
L 162.28279 295.190553 
L 166.628577 295.1027 
L 170.974363 294.992277 
L 175.320149 294.852652 
L 179.665936 294.682339 
L 184.011722 294.484572 
L 188.357508 294.283401 
L 192.703295 294.080905 
L 197.049081 293.846456 
L 201.394867 293.553038 
L 205.740654 293.203294 
L 210.08644 292.803024 
L 214.432226 292.337437 
L 218.778013 291.807617 
L 223.123799 291.216211 
L 227.469585 290.528973 
L 231.815372 289.728987 
L 236.161158 288.815118 
L 240.506944 287.78335 
L 244.852731 286.630702 
L 249.198517 285.309349 
L 253.544303 283.778418 
L 257.89009 282.134901 
L 262.235876 280.509301 
L 266.581662 278.862021 
L 270.927449 277.206381 
L 275.273235 275.534208 
L 279.619021 273.750835 
L 283.964808 271.850562 
L 288.310594 269.883071 
L 292.65638 267.893964 
L 297.002167 265.9044 
L 301.347953 263.859493 
L 305.693739 261.600953 
L 310.039526 259.002267 
L 314.385312 256.028311 
L 318.731098 252.791861 
L 323.076885 249.482187 
L 327.422671 246.171567 
L 331.768457 242.796524 
L 336.114244 239.34798 
L 340.46003 235.89475 
L 344.805816 232.430376 
L 349.151603 228.905069 
L 353.497389 225.355022 
L 357.843175 221.915014 
L 362.188962 218.627693 
L 366.534748 215.401583 
L 370.880534 212.216351 
L 375.226321 209.136393 
L 379.572107 206.14393 
L 383.917893 203.217228 
L 388.263679 200.338042 
L 392.609466 197.500947 
L 396.955252 194.675179 
L 401.301038 191.817609 
L 405.646825 188.945672 
L 409.992611 186.111858 
L 414.338397 183.301155 
L 418.684184 180.524764 
L 423.02997 177.812568 
L 427.375756 175.118248 
L 431.721543 172.372284 
L 436.067329 169.551566 
L 440.413115 166.712355 
L 444.758902 163.91786 
L 449.104688 161.150715 
L 453.450474 158.388579 
L 457.796261 155.615242 
L 462.142047 152.838792 
L 466.487833 150.206521 
L 470.83362 148.393474 
" style="fill:none;stroke:#5feb16;stroke-linecap:round;stroke-width:1.75;"/>
   </g>
   <g id="line2d_25">
    <path clip-path="url(#p2ac70f8e22)" d="M 84.058636 295.560426 
L 88.404423 295.544962 
L 92.750209 295.515735 
L 97.095995 295.478134 
L 101.441782 295.434104 
L 105.787568 295.382754 
L 110.133354 295.313205 
L 114.479141 295.212138 
L 118.824927 295.073438 
L 123.170713 294.845823 
L 127.5165 294.466586 
L 131.862286 293.97155 
L 136.208072 293.417046 
L 140.553859 292.482719 
L 144.899645 290.946216 
L 149.245431 289.346178 
L 153.591218 287.762455 
L 157.937004 285.968891 
L 162.28279 283.950801 
L 166.628577 281.463091 
L 170.974363 278.424391 
L 175.320149 275.023836 
L 179.665936 271.143321 
L 184.011722 266.719837 
L 188.357508 261.516744 
L 192.703295 255.237558 
L 197.049081 247.634789 
L 201.394867 239.586962 
L 205.740654 231.868098 
L 210.08644 224.54056 
L 214.432226 217.34707 
L 218.778013 209.911851 
L 223.123799 202.199466 
L 227.469585 194.423907 
L 231.815372 186.887023 
L 236.161158 179.830528 
L 240.506944 173.414939 
L 244.852731 167.749667 
L 249.198517 162.518245 
L 253.544303 157.208133 
L 257.89009 151.778841 
L 262.235876 146.604669 
L 266.581662 141.78004 
L 270.927449 137.376809 
L 275.273235 133.572842 
L 279.619021 130.261493 
L 283.964808 126.712787 
L 288.310594 121.934837 
L 292.65638 116.292035 
L 297.002167 111.426048 
L 301.347953 107.554877 
L 305.693739 103.718845 
L 310.039526 100.239994 
L 314.385312 96.776741 
L 318.731098 93.520488 
L 323.076885 92.715521 
L 327.422671 94.495315 
L 331.768457 94.954796 
L 336.114244 93.594922 
L 340.46003 91.943717 
L 344.805816 90.363082 
L 349.151603 88.897455 
L 353.497389 87.61991 
L 357.843175 86.317642 
L 362.188962 85.088981 
L 366.534748 84.126236 
L 370.880534 83.259463 
L 375.226321 82.267442 
L 379.572107 81.196536 
L 383.917893 80.081319 
L 388.263679 78.988152 
L 392.609466 77.96646 
L 396.955252 76.657375 
L 401.301038 75.055423 
L 405.646825 73.851467 
L 409.992611 73.053671 
L 414.338397 72.345372 
L 418.684184 71.733028 
L 423.02997 71.284613 
L 427.375756 70.887152 
L 431.721543 70.373797 
L 436.067329 69.83541 
L 440.413115 69.27571 
L 444.758902 68.49292 
L 449.104688 67.52312 
L 453.450474 66.796307 
L 457.796261 66.445741 
L 462.142047 66.234998 
L 466.487833 65.87216 
L 470.83362 65.26214 
L 475.179406 64.388402 
L 479.525192 63.571386 
L 483.870979 63.003365 
L 488.216765 62.653339 
L 492.562551 62.403212 
L 496.908338 62.123819 
L 501.254124 61.79536 
L 505.59991 61.463465 
L 509.945697 61.148686 
L 514.291483 60.870255 
L 518.637269 60.694826 
" style="fill:none;stroke:#907eba;stroke-linecap:round;stroke-width:1.75;"/>
   </g>
   <g id="line2d_26">
    <path clip-path="url(#p2ac70f8e22)" d="M 84.058636 295.557714 
L 88.404423 295.529093 
L 92.750209 295.466959 
L 97.095995 295.35373 
L 101.441782 295.169544 
L 105.787568 294.940806 
L 110.133354 294.71906 
L 114.479141 294.463699 
L 118.824927 294.046591 
L 123.170713 293.345604 
L 127.5165 292.399834 
L 131.862286 291.385056 
L 136.208072 290.362902 
L 140.553859 289.246749 
L 144.899645 287.974385 
L 149.245431 286.630628 
L 153.591218 285.207798 
L 157.937004 283.647091 
L 162.28279 281.962359 
L 166.628577 280.18273 
L 170.974363 278.266468 
L 175.320149 276.144591 
L 179.665936 273.854925 
L 184.011722 271.419215 
L 188.357508 268.785178 
L 192.703295 266.038148 
L 197.049081 263.391464 
L 201.394867 260.933073 
L 205.740654 258.542181 
L 210.08644 256.071777 
L 214.432226 253.534659 
L 218.778013 251.09168 
L 223.123799 248.775224 
L 227.469585 246.415526 
L 231.815372 243.945186 
L 236.161158 241.597892 
L 240.506944 239.57978 
L 244.852731 237.772904 
L 249.198517 236.059009 
L 253.544303 234.481824 
L 257.89009 233.076342 
L 262.235876 231.747642 
L 266.581662 230.343113 
L 270.927449 228.845379 
L 275.273235 227.404006 
L 279.619021 226.124146 
L 283.964808 225.002093 
L 288.310594 223.993017 
L 292.65638 223.004876 
L 297.002167 221.936099 
L 301.347953 220.787102 
L 305.693739 219.663308 
L 310.039526 218.635921 
L 314.385312 217.714318 
L 318.731098 216.880675 
L 323.076885 216.075093 
L 327.422671 215.204389 
L 331.768457 214.279039 
L 336.114244 213.340105 
L 340.46003 212.407152 
L 344.805816 211.526681 
L 349.151603 210.745488 
L 353.497389 210.068256 
L 357.843175 209.465608 
L 362.188962 208.901255 
L 366.534748 208.345173 
L 370.880534 207.764135 
L 375.226321 207.142766 
L 379.572107 206.521874 
L 383.917893 205.937248 
L 388.263679 205.367072 
L 392.609466 204.768813 
L 396.955252 204.137705 
L 401.301038 203.519295 
L 405.646825 202.957877 
L 409.992611 202.4544 
L 414.338397 201.981233 
L 418.684184 201.50913 
L 423.02997 201.010316 
L 427.375756 200.483785 
L 431.721543 199.9598 
L 436.067329 199.477054 
L 440.413115 199.148385 
" style="fill:none;stroke:#221cdf;stroke-linecap:round;stroke-width:1.75;"/>
   </g>
   <g id="line2d_27">
    <path clip-path="url(#p2ac70f8e22)" d="M 84.058636 295.591456 
L 88.404423 295.591247 
L 92.750209 295.590857 
L 97.095995 295.590464 
L 101.441782 295.58994 
L 105.787568 295.589015 
L 110.133354 295.587404 
L 114.479141 295.584836 
L 118.824927 295.581236 
L 123.170713 295.575808 
L 127.5165 295.567936 
L 131.862286 295.557077 
L 136.208072 295.542583 
L 140.553859 295.525678 
L 144.899645 295.50142 
L 149.245431 295.462982 
L 153.591218 295.414379 
L 157.937004 295.357017 
L 162.28279 295.287133 
L 166.628577 295.19884 
L 170.974363 295.078308 
L 175.320149 294.909138 
L 179.665936 294.670638 
L 184.011722 294.277484 
L 188.357508 293.643061 
L 192.703295 292.839989 
L 197.049081 291.904656 
L 201.394867 290.770949 
L 205.740654 289.422704 
L 210.08644 287.885072 
L 214.432226 286.030033 
L 218.778013 283.757055 
L 223.123799 281.202803 
L 227.469585 278.506573 
L 231.815372 275.679296 
L 236.161158 272.583232 
L 240.506944 269.133221 
L 244.852731 265.358082 
L 249.198517 261.232448 
L 253.544303 256.853206 
L 257.89009 252.480184 
L 262.235876 248.280708 
L 266.581662 244.105936 
L 270.927449 239.792557 
L 275.273235 235.289153 
L 279.619021 230.641762 
L 283.964808 226.080395 
L 288.310594 221.805504 
L 292.65638 217.832385 
L 297.002167 214.039831 
L 301.347953 210.188069 
L 305.693739 206.108924 
L 310.039526 201.797505 
L 314.385312 197.381495 
L 318.731098 193.111329 
L 323.076885 189.172362 
L 327.422671 185.408499 
L 331.768457 181.580412 
L 336.114244 177.576608 
L 340.46003 173.278603 
L 344.805816 168.703414 
L 349.151603 164.278173 
L 353.497389 160.361612 
L 357.843175 156.843001 
L 362.188962 153.313059 
L 366.534748 149.488824 
L 370.880534 145.316891 
L 375.226321 140.991508 
L 379.572107 136.91617 
L 383.917893 133.268202 
L 388.263679 129.888664 
L 392.609466 126.500734 
L 396.955252 122.941953 
L 401.301038 119.226974 
L 405.646825 115.544384 
L 409.992611 112.146412 
L 414.338397 109.142626 
L 418.684184 106.312733 
L 423.02997 103.373728 
L 427.375756 100.17761 
L 431.721543 96.7043 
L 436.067329 93.193442 
L 440.413115 89.903217 
L 444.758902 86.886769 
L 449.104688 83.951148 
L 453.450474 80.92806 
L 457.796261 77.707931 
L 462.142047 74.348651 
L 466.487833 71.063883 
L 470.83362 67.979104 
L 475.179406 65.091604 
L 479.525192 62.359753 
L 483.870979 59.693712 
L 488.216765 56.915774 
L 492.562551 53.858621 
L 496.908338 50.598275 
L 501.254124 47.389059 
L 505.59991 44.372622 
L 509.945697 41.458409 
L 514.291483 38.573986 
L 518.637269 35.674279 
L 522.983056 32.625766 
L 527.328842 29.422657 
L 531.674628 26.397628 
L 536.020415 24.361609 
" style="fill:none;stroke:#7516fd;stroke-dasharray:6.475,2.8;stroke-dashoffset:0;stroke-width:1.75;"/>
   </g>
   <g id="line2d_28">
    <path clip-path="url(#p2ac70f8e22)" d="M 84.058636 295.583653 
L 88.404423 295.580645 
L 92.750209 295.575427 
L 97.095995 295.568856 
L 101.441782 295.557637 
L 105.787568 295.539178 
L 110.133354 295.515006 
L 114.479141 295.485833 
L 118.824927 295.451835 
L 123.170713 295.414054 
L 127.5165 295.375013 
L 131.862286 295.334 
L 136.208072 295.287524 
L 140.553859 295.203111 
L 144.899645 295.048426 
L 149.245431 294.881403 
L 153.591218 294.727261 
L 157.937004 294.509109 
L 162.28279 294.209139 
L 166.628577 293.876412 
L 170.974363 293.470575 
L 175.320149 292.874407 
L 179.665936 292.213535 
L 184.011722 291.584997 
L 188.357508 290.861883 
L 192.703295 289.943854 
L 197.049081 288.787275 
L 201.394867 287.304109 
L 205.740654 285.558483 
L 210.08644 283.76847 
L 214.432226 281.984697 
L 218.778013 280.063701 
L 223.123799 277.793924 
L 227.469585 275.094435 
L 231.815372 272.163278 
L 236.161158 269.183448 
L 240.506944 266.085523 
L 244.852731 262.859001 
L 249.198517 259.840269 
L 253.544303 256.862809 
L 257.89009 253.515838 
L 262.235876 249.591518 
L 266.581662 245.176172 
L 270.927449 241.047627 
L 275.273235 237.447608 
L 279.619021 234.089119 
L 283.964808 230.751691 
L 288.310594 227.433922 
L 292.65638 224.02705 
L 297.002167 220.37932 
L 301.347953 216.58734 
L 305.693739 212.895053 
L 310.039526 209.526639 
L 314.385312 206.409485 
L 318.731098 203.30366 
L 323.076885 200.039653 
L 327.422671 196.627627 
L 331.768457 193.289866 
L 336.114244 190.162635 
L 340.46003 187.211501 
L 344.805816 184.302015 
L 349.151603 181.101836 
L 353.497389 177.391922 
L 357.843175 173.560561 
L 362.188962 170.099237 
L 366.534748 167.023032 
L 370.880534 164.040871 
L 375.226321 160.762532 
L 379.572107 157.083642 
L 383.917893 153.431773 
L 388.263679 150.186547 
L 392.609466 147.319544 
L 396.955252 144.632077 
L 401.301038 142.066121 
L 405.646825 139.657058 
L 409.992611 137.33446 
L 414.338397 134.984935 
L 418.684184 132.595601 
L 423.02997 130.228879 
L 427.375756 128.009302 
L 431.721543 126.151291 
L 436.067329 124.874788 
L 440.413115 123.936037 
L 444.758902 122.542256 
L 449.104688 120.632093 
L 453.450474 118.708256 
L 457.796261 117.002183 
L 462.142047 115.284794 
L 466.487833 113.397553 
L 470.83362 111.71029 
L 475.179406 110.29075 
L 479.525192 108.973179 
L 483.870979 107.723758 
L 488.216765 106.514752 
L 492.562551 105.346236 
L 496.908338 104.171796 
L 501.254124 102.953797 
L 505.59991 101.745968 
L 509.945697 100.611762 
L 514.291483 99.622652 
L 518.637269 98.988572 
" style="fill:none;stroke:#89f9c9;stroke-linecap:round;stroke-width:1.75;"/>
   </g>
   <g id="patch_3">
    <path d="M 54.29 309.155396 
L 54.29 10.8 
" style="fill:none;"/>
   </g>
   <g id="patch_4">
    <path d="M 709.2 309.155396 
L 709.2 10.8 
" style="fill:none;"/>
   </g>
   <g id="patch_5">
    <path d="M 54.29 309.155396 
L 709.2 309.155396 
" style="fill:none;"/>
   </g>
   <g id="patch_6">
    <path d="M 54.29 10.8 
L 709.2 10.8 
" style="fill:none;"/>
   </g>
   <g id="legend_1">
    <g id="line2d_29">
     <path d="M 601.051563 23.546875 
L 621.051563 23.546875 
" style="fill:none;stroke:#989173;stroke-linecap:round;stroke-width:1.75;"/>
    </g>
    <g id="line2d_30"/>
    <g id="text_18">
     <!-- Austria -->
     <defs>
      <path d="M 56.984375 0 
L 49.125 20.125 
L 17.78125 20.125 
L 9.859375 0 
L 0.203125 0 
L 28.265625 68.796875 
L 38.875 68.796875 
L 66.5 0 
z
M 37.5 50.09375 
Q 36.71875 52.046875 36 54.046875 
Q 35.296875 56.0625 34.765625 57.6875 
Q 34.234375 59.328125 33.859375 60.421875 
Q 33.5 61.53125 33.453125 61.765625 
Q 33.34375 61.53125 33 60.40625 
Q 32.671875 59.28125 32.109375 57.609375 
Q 31.546875 55.953125 30.828125 53.953125 
Q 30.125 51.953125 29.390625 50 
L 20.609375 27.390625 
L 46.34375 27.390625 
z
" id="LiberationSans-65"/>
     </defs>
     <g style="fill:#262626;" transform="translate(629.051563 27.046875)scale(0.1 -0.1)">
      <use xlink:href="#LiberationSans-65"/>
      <use x="66.699219" xlink:href="#LiberationSans-117"/>
      <use x="122.314453" xlink:href="#LiberationSans-115"/>
      <use x="172.314453" xlink:href="#LiberationSans-116"/>
      <use x="200.097656" xlink:href="#LiberationSans-114"/>
      <use x="233.398438" xlink:href="#LiberationSans-105"/>
      <use x="255.615234" xlink:href="#LiberationSans-97"/>
     </g>
    </g>
    <g id="line2d_31">
     <path d="M 601.051563 37.86875 
L 621.051563 37.86875 
" style="fill:none;stroke:#42537f;stroke-linecap:round;stroke-width:1.75;"/>
    </g>
    <g id="line2d_32"/>
    <g id="text_19">
     <!-- Brazil -->
     <defs>
      <path d="M 61.421875 19.390625 
Q 61.421875 14.15625 59.375 10.46875 
Q 57.328125 6.78125 53.859375 4.46875 
Q 50.390625 2.15625 45.796875 1.078125 
Q 41.21875 0 36.140625 0 
L 8.203125 0 
L 8.203125 68.796875 
L 33.203125 68.796875 
Q 38.921875 68.796875 43.40625 67.84375 
Q 47.90625 66.890625 51.03125 64.84375 
Q 54.15625 62.796875 55.78125 59.640625 
Q 57.421875 56.5 57.421875 52.09375 
Q 57.421875 49.21875 56.609375 46.671875 
Q 55.8125 44.140625 54.171875 42.0625 
Q 52.546875 39.984375 50.078125 38.5 
Q 47.609375 37.015625 44.34375 36.28125 
Q 48.484375 35.796875 51.6875 34.375 
Q 54.890625 32.953125 57.03125 30.75 
Q 59.1875 28.5625 60.296875 25.65625 
Q 61.421875 22.75 61.421875 19.390625 
z
M 48.046875 50.984375 
Q 48.046875 56.546875 44.234375 58.9375 
Q 40.4375 61.328125 33.203125 61.328125 
L 17.53125 61.328125 
L 17.53125 39.546875 
L 33.203125 39.546875 
Q 37.3125 39.546875 40.140625 40.34375 
Q 42.96875 41.15625 44.71875 42.640625 
Q 46.484375 44.140625 47.265625 46.234375 
Q 48.046875 48.34375 48.046875 50.984375 
z
M 52 20.125 
Q 52 23.390625 50.796875 25.6875 
Q 49.609375 27.984375 47.359375 29.4375 
Q 45.125 30.90625 41.96875 31.59375 
Q 38.8125 32.28125 34.90625 32.28125 
L 17.53125 32.28125 
L 17.53125 7.46875 
L 35.640625 7.46875 
Q 39.203125 7.46875 42.203125 8.046875 
Q 45.21875 8.640625 47.390625 10.109375 
Q 49.5625 11.578125 50.78125 14.015625 
Q 52 16.453125 52 20.125 
z
" id="LiberationSans-66"/>
      <path d="M 2.390625 0 
L 2.390625 6.6875 
L 34.671875 46.046875 
L 4.34375 46.046875 
L 4.34375 52.828125 
L 44.578125 52.828125 
L 44.578125 46.140625 
L 12.25 6.78125 
L 46.390625 6.78125 
L 46.390625 0 
z
" id="LiberationSans-122"/>
     </defs>
     <g style="fill:#262626;" transform="translate(629.051563 41.36875)scale(0.1 -0.1)">
      <use xlink:href="#LiberationSans-66"/>
      <use x="66.699219" xlink:href="#LiberationSans-114"/>
      <use x="100" xlink:href="#LiberationSans-97"/>
      <use x="155.615234" xlink:href="#LiberationSans-122"/>
      <use x="205.615234" xlink:href="#LiberationSans-105"/>
      <use x="227.832031" xlink:href="#LiberationSans-108"/>
     </g>
    </g>
    <g id="line2d_33">
     <path d="M 601.051563 52.190625 
L 621.051563 52.190625 
" style="fill:none;stroke:#ae54a5;stroke-dasharray:6.475,2.8;stroke-dashoffset:0;stroke-width:1.75;"/>
    </g>
    <g id="line2d_34"/>
    <g id="text_20">
     <!-- China -->
     <defs>
      <path d="M 38.671875 62.203125 
Q 32.8125 62.203125 28.296875 60.25 
Q 23.78125 58.296875 20.71875 54.6875 
Q 17.671875 51.078125 16.109375 46 
Q 14.546875 40.921875 14.546875 34.71875 
Q 14.546875 28.515625 16.234375 23.359375 
Q 17.921875 18.21875 21.0625 14.5 
Q 24.21875 10.796875 28.78125 8.734375 
Q 33.34375 6.6875 39.0625 6.6875 
Q 43.0625 6.6875 46.359375 7.734375 
Q 49.65625 8.796875 52.3125 10.6875 
Q 54.984375 12.59375 57.078125 15.203125 
Q 59.1875 17.828125 60.796875 21 
L 68.40625 17.1875 
Q 66.546875 13.328125 63.8125 10 
Q 61.078125 6.6875 57.390625 4.25 
Q 53.71875 1.8125 49.046875 0.40625 
Q 44.390625 -0.984375 38.625 -0.984375 
Q 30.28125 -0.984375 24 1.671875 
Q 17.71875 4.34375 13.5 9.109375 
Q 9.28125 13.875 7.171875 20.40625 
Q 5.078125 26.953125 5.078125 34.71875 
Q 5.078125 42.78125 7.296875 49.265625 
Q 9.515625 55.765625 13.78125 60.328125 
Q 18.0625 64.890625 24.3125 67.359375 
Q 30.5625 69.828125 38.578125 69.828125 
Q 49.5625 69.828125 56.9375 65.53125 
Q 64.3125 61.234375 67.78125 52.78125 
L 58.9375 49.859375 
Q 57.953125 52.296875 56.296875 54.515625 
Q 54.640625 56.734375 52.140625 58.4375 
Q 49.65625 60.15625 46.3125 61.171875 
Q 42.96875 62.203125 38.671875 62.203125 
z
" id="LiberationSans-67"/>
      <path d="M 15.484375 43.796875 
Q 16.9375 46.484375 18.640625 48.359375 
Q 20.359375 50.25 22.40625 51.46875 
Q 24.46875 52.6875 26.90625 53.25 
Q 29.34375 53.8125 32.375 53.8125 
Q 37.453125 53.8125 40.703125 52.4375 
Q 43.953125 51.078125 45.828125 48.609375 
Q 47.703125 46.140625 48.40625 42.71875 
Q 49.125 39.3125 49.125 35.203125 
L 49.125 0 
L 40.28125 0 
L 40.28125 33.5 
Q 40.28125 36.859375 39.859375 39.390625 
Q 39.453125 41.9375 38.28125 43.625 
Q 37.109375 45.3125 34.953125 46.15625 
Q 32.8125 47.015625 29.390625 47.015625 
Q 26.265625 47.015625 23.75 45.890625 
Q 21.234375 44.78125 19.453125 42.71875 
Q 17.671875 40.671875 16.6875 37.734375 
Q 15.71875 34.8125 15.71875 31.15625 
L 15.71875 0 
L 6.9375 0 
L 6.9375 72.46875 
L 15.71875 72.46875 
L 15.71875 53.609375 
Q 15.71875 52 15.671875 50.390625 
Q 15.625 48.78125 15.546875 47.40625 
Q 15.484375 46.046875 15.421875 45.09375 
Q 15.375 44.140625 15.328125 43.796875 
z
" id="LiberationSans-104"/>
     </defs>
     <g style="fill:#262626;" transform="translate(629.051563 55.690625)scale(0.1 -0.1)">
      <use xlink:href="#LiberationSans-67"/>
      <use x="72.216797" xlink:href="#LiberationSans-104"/>
      <use x="127.832031" xlink:href="#LiberationSans-105"/>
      <use x="150.048828" xlink:href="#LiberationSans-110"/>
      <use x="205.664062" xlink:href="#LiberationSans-97"/>
     </g>
    </g>
    <g id="line2d_35">
     <path d="M 601.051563 66.5125 
L 621.051563 66.5125 
" style="fill:none;stroke:#0309a6;stroke-linecap:round;stroke-width:1.75;"/>
    </g>
    <g id="line2d_36"/>
    <g id="text_21">
     <!-- France -->
     <defs>
      <path d="M 17.53125 61.1875 
L 17.53125 35.59375 
L 55.90625 35.59375 
L 55.90625 27.875 
L 17.53125 27.875 
L 17.53125 0 
L 8.203125 0 
L 8.203125 68.796875 
L 57.078125 68.796875 
L 57.078125 61.1875 
z
" id="LiberationSans-70"/>
     </defs>
     <g style="fill:#262626;" transform="translate(629.051563 70.0125)scale(0.1 -0.1)">
      <use xlink:href="#LiberationSans-70"/>
      <use x="61.083984" xlink:href="#LiberationSans-114"/>
      <use x="94.384766" xlink:href="#LiberationSans-97"/>
      <use x="150" xlink:href="#LiberationSans-110"/>
      <use x="205.615234" xlink:href="#LiberationSans-99"/>
      <use x="255.615234" xlink:href="#LiberationSans-101"/>
     </g>
    </g>
    <g id="line2d_37">
     <path d="M 601.051563 80.834375 
L 621.051563 80.834375 
" style="fill:none;stroke:#d8b009;stroke-linecap:round;stroke-width:1.75;"/>
    </g>
    <g id="line2d_38"/>
    <g id="text_22">
     <!-- Germany -->
     <defs>
      <path d="M 5.03125 34.71875 
Q 5.03125 42.78125 7.203125 49.265625 
Q 9.375 55.765625 13.6875 60.328125 
Q 18.015625 64.890625 24.40625 67.359375 
Q 30.8125 69.828125 39.265625 69.828125 
Q 45.609375 69.828125 50.390625 68.703125 
Q 55.171875 67.578125 58.6875 65.46875 
Q 62.203125 63.375 64.640625 60.375 
Q 67.09375 57.375 68.796875 53.609375 
L 59.90625 50.984375 
Q 58.640625 53.515625 56.859375 55.59375 
Q 55.078125 57.671875 52.53125 59.125 
Q 50 60.59375 46.65625 61.390625 
Q 43.3125 62.203125 39.015625 62.203125 
Q 32.765625 62.203125 28.140625 60.25 
Q 23.53125 58.296875 20.5 54.6875 
Q 17.484375 51.078125 15.984375 46 
Q 14.5 40.921875 14.5 34.71875 
Q 14.5 28.515625 16.109375 23.359375 
Q 17.71875 18.21875 20.890625 14.484375 
Q 24.078125 10.75 28.78125 8.671875 
Q 33.5 6.59375 39.703125 6.59375 
Q 43.75 6.59375 47.171875 7.265625 
Q 50.59375 7.953125 53.34375 9.046875 
Q 56.109375 10.15625 58.203125 11.5 
Q 60.296875 12.84375 61.71875 14.203125 
L 61.71875 26.609375 
L 41.15625 26.609375 
L 41.15625 34.421875 
L 70.3125 34.421875 
L 70.3125 10.6875 
Q 68.015625 8.34375 64.90625 6.21875 
Q 61.8125 4.109375 57.953125 2.484375 
Q 54.109375 0.875 49.515625 -0.046875 
Q 44.921875 -0.984375 39.703125 -0.984375 
Q 31 -0.984375 24.5 1.671875 
Q 18.015625 4.34375 13.6875 9.109375 
Q 9.375 13.875 7.203125 20.40625 
Q 5.03125 26.953125 5.03125 34.71875 
z
" id="LiberationSans-71"/>
      <path d="M 37.5 0 
L 37.5 33.5 
Q 37.5 37.359375 37.015625 39.9375 
Q 36.53125 42.53125 35.375 44.109375 
Q 34.234375 45.703125 32.375 46.359375 
Q 30.515625 47.015625 27.828125 47.015625 
Q 25.046875 47.015625 22.796875 45.921875 
Q 20.5625 44.828125 18.96875 42.75 
Q 17.390625 40.671875 16.53125 37.625 
Q 15.671875 34.578125 15.671875 30.609375 
L 15.671875 0 
L 6.9375 0 
L 6.9375 41.546875 
Q 6.9375 43.21875 6.90625 45.046875 
Q 6.890625 46.875 6.828125 48.5 
Q 6.78125 50.140625 6.734375 51.3125 
Q 6.6875 52.484375 6.640625 52.828125 
L 14.9375 52.828125 
Q 14.984375 52.59375 15.03125 51.515625 
Q 15.09375 50.4375 15.15625 49.046875 
Q 15.234375 47.65625 15.28125 46.21875 
Q 15.328125 44.78125 15.328125 43.796875 
L 15.484375 43.796875 
Q 16.65625 46.09375 18.015625 47.953125 
Q 19.390625 49.8125 21.21875 51.09375 
Q 23.046875 52.390625 25.40625 53.09375 
Q 27.78125 53.8125 30.90625 53.8125 
Q 36.921875 53.8125 40.40625 51.421875 
Q 43.890625 49.03125 45.265625 43.796875 
L 45.40625 43.796875 
Q 46.578125 46.09375 48.046875 47.953125 
Q 49.515625 49.8125 51.46875 51.09375 
Q 53.421875 52.390625 55.859375 53.09375 
Q 58.296875 53.8125 61.421875 53.8125 
Q 65.4375 53.8125 68.328125 52.734375 
Q 71.234375 51.65625 73.09375 49.40625 
Q 74.953125 47.171875 75.828125 43.625 
Q 76.703125 40.09375 76.703125 35.203125 
L 76.703125 0 
L 68.015625 0 
L 68.015625 33.5 
Q 68.015625 37.359375 67.53125 39.9375 
Q 67.046875 42.53125 65.890625 44.109375 
Q 64.75 45.703125 62.890625 46.359375 
Q 61.03125 47.015625 58.34375 47.015625 
Q 55.5625 47.015625 53.3125 45.96875 
Q 51.078125 44.921875 49.484375 42.875 
Q 47.90625 40.828125 47.046875 37.75 
Q 46.1875 34.671875 46.1875 30.609375 
L 46.1875 0 
z
" id="LiberationSans-109"/>
     </defs>
     <g style="fill:#262626;" transform="translate(629.051563 84.334375)scale(0.1 -0.1)">
      <use xlink:href="#LiberationSans-71"/>
      <use x="77.783203" xlink:href="#LiberationSans-101"/>
      <use x="133.398438" xlink:href="#LiberationSans-114"/>
      <use x="166.699219" xlink:href="#LiberationSans-109"/>
      <use x="250" xlink:href="#LiberationSans-97"/>
      <use x="305.615234" xlink:href="#LiberationSans-110"/>
      <use x="361.230469" xlink:href="#LiberationSans-121"/>
     </g>
    </g>
    <g id="line2d_39">
     <path d="M 601.051563 95.15625 
L 621.051563 95.15625 
" style="fill:none;stroke:#1007e1;stroke-linecap:round;stroke-width:1.75;"/>
    </g>
    <g id="line2d_40"/>
    <g id="text_23">
     <!-- Italy -->
     <defs>
      <path d="M 9.234375 0 
L 9.234375 68.796875 
L 18.5625 68.796875 
L 18.5625 0 
z
" id="LiberationSans-73"/>
     </defs>
     <g style="fill:#262626;" transform="translate(629.051563 98.65625)scale(0.1 -0.1)">
      <use xlink:href="#LiberationSans-73"/>
      <use x="27.783203" xlink:href="#LiberationSans-116"/>
      <use x="55.566406" xlink:href="#LiberationSans-97"/>
      <use x="111.181641" xlink:href="#LiberationSans-108"/>
      <use x="133.398438" xlink:href="#LiberationSans-121"/>
     </g>
    </g>
    <g id="line2d_41">
     <path d="M 601.051563 109.478125 
L 621.051563 109.478125 
" style="fill:none;stroke:#a67d4c;stroke-linecap:round;stroke-width:1.75;"/>
    </g>
    <g id="line2d_42"/>
    <g id="text_24">
     <!-- Netherlands -->
     <defs>
      <path d="M 52.828125 0 
L 16.015625 58.59375 
Q 16.109375 56.203125 16.265625 53.859375 
Q 16.359375 51.859375 16.421875 49.625 
Q 16.5 47.40625 16.5 45.703125 
L 16.5 0 
L 8.203125 0 
L 8.203125 68.796875 
L 19.046875 68.796875 
L 56.25 9.8125 
Q 56.109375 12.203125 55.953125 14.59375 
Q 55.859375 16.65625 55.765625 19.0625 
Q 55.671875 21.484375 55.671875 23.6875 
L 55.671875 68.796875 
L 64.0625 68.796875 
L 64.0625 0 
z
" id="LiberationSans-78"/>
      <path d="M 40.09375 8.5 
Q 37.640625 3.421875 33.609375 1.21875 
Q 29.59375 -0.984375 23.640625 -0.984375 
Q 13.625 -0.984375 8.90625 5.75 
Q 4.203125 12.5 4.203125 26.171875 
Q 4.203125 53.8125 23.640625 53.8125 
Q 29.640625 53.8125 33.640625 51.609375 
Q 37.640625 49.421875 40.09375 44.625 
L 40.1875 44.625 
Q 40.1875 45.125 40.15625 46.171875 
Q 40.140625 47.21875 40.109375 48.359375 
Q 40.09375 49.515625 40.09375 50.53125 
Q 40.09375 51.5625 40.09375 52 
L 40.09375 72.46875 
L 48.875 72.46875 
L 48.875 10.890625 
Q 48.875 8.984375 48.890625 7.21875 
Q 48.921875 5.46875 48.96875 4 
Q 49.03125 2.546875 49.078125 1.484375 
Q 49.125 0.4375 49.171875 0 
L 40.765625 0 
Q 40.671875 0.484375 40.59375 1.390625 
Q 40.53125 2.296875 40.453125 3.46875 
Q 40.375 4.640625 40.328125 5.9375 
Q 40.28125 7.234375 40.28125 8.5 
z
M 13.421875 26.46875 
Q 13.421875 21 14.109375 17.09375 
Q 14.796875 13.1875 16.3125 10.671875 
Q 17.828125 8.15625 20.171875 6.984375 
Q 22.515625 5.8125 25.875 5.8125 
Q 29.34375 5.8125 32 6.9375 
Q 34.671875 8.0625 36.453125 10.578125 
Q 38.234375 13.09375 39.15625 17.140625 
Q 40.09375 21.1875 40.09375 27.046875 
Q 40.09375 32.671875 39.15625 36.546875 
Q 38.234375 40.4375 36.421875 42.828125 
Q 34.625 45.21875 32 46.265625 
Q 29.390625 47.3125 25.984375 47.3125 
Q 22.75 47.3125 20.40625 46.1875 
Q 18.0625 45.0625 16.5 42.578125 
Q 14.9375 40.09375 14.171875 36.109375 
Q 13.421875 32.125 13.421875 26.46875 
z
" id="LiberationSans-100"/>
     </defs>
     <g style="fill:#262626;" transform="translate(629.051563 112.978125)scale(0.1 -0.1)">
      <use xlink:href="#LiberationSans-78"/>
      <use x="72.216797" xlink:href="#LiberationSans-101"/>
      <use x="127.832031" xlink:href="#LiberationSans-116"/>
      <use x="155.615234" xlink:href="#LiberationSans-104"/>
      <use x="211.230469" xlink:href="#LiberationSans-101"/>
      <use x="266.845703" xlink:href="#LiberationSans-114"/>
      <use x="300.146484" xlink:href="#LiberationSans-108"/>
      <use x="322.363281" xlink:href="#LiberationSans-97"/>
      <use x="377.978516" xlink:href="#LiberationSans-110"/>
      <use x="433.59375" xlink:href="#LiberationSans-100"/>
      <use x="489.208984" xlink:href="#LiberationSans-115"/>
     </g>
    </g>
    <g id="line2d_43">
     <path d="M 601.051563 123.8 
L 621.051563 123.8 
" style="fill:none;stroke:#ea71b3;stroke-linecap:round;stroke-width:1.75;"/>
    </g>
    <g id="line2d_44"/>
    <g id="text_25">
     <!-- Portugal -->
     <defs>
      <path d="M 61.421875 48.09375 
Q 61.421875 43.609375 59.9375 39.71875 
Q 58.453125 35.84375 55.5 32.984375 
Q 52.546875 30.125 48.09375 28.46875 
Q 43.65625 26.8125 37.75 26.8125 
L 17.53125 26.8125 
L 17.53125 0 
L 8.203125 0 
L 8.203125 68.796875 
L 37.15625 68.796875 
Q 43.265625 68.796875 47.796875 67.3125 
Q 52.34375 65.828125 55.375 63.109375 
Q 58.40625 60.40625 59.90625 56.5625 
Q 61.421875 52.734375 61.421875 48.09375 
z
M 52.046875 48 
Q 52.046875 54.546875 48.046875 57.9375 
Q 44.046875 61.328125 36.03125 61.328125 
L 17.53125 61.328125 
L 17.53125 34.1875 
L 36.421875 34.1875 
Q 44.484375 34.1875 48.265625 37.75 
Q 52.046875 41.3125 52.046875 48 
z
" id="LiberationSans-80"/>
      <path d="M 26.765625 -20.75 
Q 22.21875 -20.75 18.703125 -19.8125 
Q 15.1875 -18.890625 12.6875 -17.15625 
Q 10.203125 -15.4375 8.640625 -13.03125 
Q 7.078125 -10.640625 6.390625 -7.71875 
L 15.234375 -6.453125 
Q 16.109375 -10.109375 19.109375 -12.078125 
Q 22.125 -14.0625 27 -14.0625 
Q 29.984375 -14.0625 32.421875 -13.234375 
Q 34.859375 -12.40625 36.5625 -10.5625 
Q 38.28125 -8.734375 39.203125 -5.796875 
Q 40.140625 -2.875 40.140625 1.3125 
L 40.140625 9.8125 
L 40.046875 9.8125 
Q 39.0625 7.8125 37.625 5.984375 
Q 36.1875 4.15625 34.109375 2.734375 
Q 32.03125 1.3125 29.296875 0.453125 
Q 26.5625 -0.390625 23.046875 -0.390625 
Q 18.015625 -0.390625 14.421875 1.296875 
Q 10.84375 2.984375 8.5625 6.34375 
Q 6.296875 9.71875 5.25 14.71875 
Q 4.203125 19.734375 4.203125 26.3125 
Q 4.203125 32.671875 5.25 37.75 
Q 6.296875 42.828125 8.65625 46.359375 
Q 11.03125 49.90625 14.8125 51.78125 
Q 18.609375 53.65625 24.03125 53.65625 
Q 29.640625 53.65625 33.765625 51.09375 
Q 37.890625 48.53125 40.140625 43.796875 
L 40.234375 43.796875 
Q 40.234375 45.015625 40.296875 46.53125 
Q 40.375 48.046875 40.453125 49.390625 
Q 40.53125 50.734375 40.625 51.703125 
Q 40.71875 52.6875 40.828125 52.828125 
L 49.171875 52.828125 
Q 49.125 52.390625 49.078125 51.34375 
Q 49.03125 50.296875 48.96875 48.828125 
Q 48.921875 47.359375 48.890625 45.578125 
Q 48.875 43.796875 48.875 41.890625 
L 48.875 1.515625 
Q 48.875 -9.578125 43.421875 -15.15625 
Q 37.984375 -20.75 26.765625 -20.75 
z
M 40.140625 26.421875 
Q 40.140625 31.9375 38.9375 35.859375 
Q 37.75 39.796875 35.796875 42.28125 
Q 33.84375 44.78125 31.328125 45.953125 
Q 28.8125 47.125 26.171875 47.125 
Q 22.796875 47.125 20.375 45.953125 
Q 17.96875 44.78125 16.375 42.265625 
Q 14.796875 39.75 14.03125 35.8125 
Q 13.28125 31.890625 13.28125 26.421875 
Q 13.28125 20.703125 14.03125 16.8125 
Q 14.796875 12.9375 16.359375 10.546875 
Q 17.921875 8.15625 20.3125 7.125 
Q 22.703125 6.109375 26.03125 6.109375 
Q 28.65625 6.109375 31.171875 7.21875 
Q 33.6875 8.34375 35.6875 10.78125 
Q 37.703125 13.234375 38.921875 17.09375 
Q 40.140625 20.953125 40.140625 26.421875 
z
" id="LiberationSans-103"/>
     </defs>
     <g style="fill:#262626;" transform="translate(629.051563 127.3)scale(0.1 -0.1)">
      <use xlink:href="#LiberationSans-80"/>
      <use x="66.699219" xlink:href="#LiberationSans-111"/>
      <use x="122.314453" xlink:href="#LiberationSans-114"/>
      <use x="155.615234" xlink:href="#LiberationSans-116"/>
      <use x="183.398438" xlink:href="#LiberationSans-117"/>
      <use x="239.013672" xlink:href="#LiberationSans-103"/>
      <use x="294.628906" xlink:href="#LiberationSans-97"/>
      <use x="350.244141" xlink:href="#LiberationSans-108"/>
     </g>
    </g>
    <g id="line2d_45">
     <path d="M 601.051563 138.121875 
L 621.051563 138.121875 
" style="fill:none;stroke:#5feb16;stroke-linecap:round;stroke-width:1.75;"/>
    </g>
    <g id="line2d_46"/>
    <g id="text_26">
     <!-- Russia -->
     <defs>
      <path d="M 56.84375 0 
L 38.96875 28.5625 
L 17.53125 28.5625 
L 17.53125 0 
L 8.203125 0 
L 8.203125 68.796875 
L 40.578125 68.796875 
Q 46.4375 68.796875 50.953125 67.453125 
Q 55.46875 66.109375 58.546875 63.5625 
Q 61.625 61.03125 63.234375 57.375 
Q 64.84375 53.71875 64.84375 49.125 
Q 64.84375 45.84375 63.890625 42.671875 
Q 62.9375 39.5 60.890625 36.859375 
Q 58.84375 34.234375 55.65625 32.328125 
Q 52.484375 30.421875 48.046875 29.640625 
L 67.578125 0 
z
M 55.46875 49.03125 
Q 55.46875 52.15625 54.390625 54.4375 
Q 53.328125 56.734375 51.265625 58.265625 
Q 49.21875 59.8125 46.28125 60.5625 
Q 43.359375 61.328125 39.65625 61.328125 
L 17.53125 61.328125 
L 17.53125 35.9375 
L 40.046875 35.9375 
Q 44.046875 35.9375 46.96875 36.9375 
Q 49.90625 37.9375 51.78125 39.6875 
Q 53.65625 41.453125 54.5625 43.84375 
Q 55.46875 46.234375 55.46875 49.03125 
z
" id="LiberationSans-82"/>
     </defs>
     <g style="fill:#262626;" transform="translate(629.051563 141.621875)scale(0.1 -0.1)">
      <use xlink:href="#LiberationSans-82"/>
      <use x="72.216797" xlink:href="#LiberationSans-117"/>
      <use x="127.832031" xlink:href="#LiberationSans-115"/>
      <use x="177.832031" xlink:href="#LiberationSans-115"/>
      <use x="227.832031" xlink:href="#LiberationSans-105"/>
      <use x="250.048828" xlink:href="#LiberationSans-97"/>
     </g>
    </g>
    <g id="line2d_47">
     <path d="M 601.051563 152.44375 
L 621.051563 152.44375 
" style="fill:none;stroke:#907eba;stroke-linecap:round;stroke-width:1.75;"/>
    </g>
    <g id="line2d_48"/>
    <g id="text_27">
     <!-- Spain -->
     <defs>
      <path d="M 62.109375 19 
Q 62.109375 14.65625 60.421875 10.984375 
Q 58.734375 7.328125 55.21875 4.65625 
Q 51.703125 2 46.359375 0.5 
Q 41.015625 -0.984375 33.6875 -0.984375 
Q 20.84375 -0.984375 13.671875 3.515625 
Q 6.5 8.015625 4.546875 16.5 
L 13.578125 18.3125 
Q 14.265625 15.625 15.671875 13.421875 
Q 17.09375 11.234375 19.5 9.640625 
Q 21.921875 8.0625 25.484375 7.171875 
Q 29.046875 6.296875 34.03125 6.296875 
Q 38.1875 6.296875 41.65625 7 
Q 45.125 7.71875 47.609375 9.171875 
Q 50.09375 10.640625 51.484375 12.953125 
Q 52.875 15.28125 52.875 18.5 
Q 52.875 21.875 51.34375 23.96875 
Q 49.8125 26.078125 47.015625 27.4375 
Q 44.234375 28.8125 40.375 29.734375 
Q 36.53125 30.671875 31.84375 31.734375 
Q 28.953125 32.375 26.046875 33.125 
Q 23.140625 33.890625 20.484375 34.9375 
Q 17.828125 35.984375 15.484375 37.390625 
Q 13.140625 38.8125 11.421875 40.796875 
Q 9.71875 42.78125 8.734375 45.390625 
Q 7.765625 48 7.765625 51.421875 
Q 7.765625 56.296875 9.734375 59.78125 
Q 11.71875 63.28125 15.234375 65.53125 
Q 18.75 67.78125 23.53125 68.796875 
Q 28.328125 69.828125 33.890625 69.828125 
Q 40.28125 69.828125 44.8125 68.828125 
Q 49.359375 67.828125 52.484375 65.8125 
Q 55.609375 63.8125 57.484375 60.859375 
Q 59.375 57.90625 60.5 54 
L 51.3125 52.390625 
Q 50.640625 54.890625 49.34375 56.84375 
Q 48.046875 58.796875 45.9375 60.109375 
Q 43.84375 61.421875 40.84375 62.109375 
Q 37.84375 62.796875 33.796875 62.796875 
Q 29 62.796875 25.75 61.9375 
Q 22.515625 61.078125 20.53125 59.609375 
Q 18.5625 58.15625 17.703125 56.171875 
Q 16.84375 54.203125 16.84375 51.90625 
Q 16.84375 48.828125 18.375 46.84375 
Q 19.921875 44.875 22.5625 43.546875 
Q 25.203125 42.234375 28.65625 41.359375 
Q 32.125 40.484375 36.03125 39.59375 
Q 39.203125 38.875 42.359375 38.109375 
Q 45.515625 37.359375 48.390625 36.296875 
Q 51.265625 35.25 53.78125 33.828125 
Q 56.296875 32.421875 58.15625 30.375 
Q 60.015625 28.328125 61.0625 25.53125 
Q 62.109375 22.75 62.109375 19 
z
" id="LiberationSans-83"/>
     </defs>
     <g style="fill:#262626;" transform="translate(629.051563 155.94375)scale(0.1 -0.1)">
      <use xlink:href="#LiberationSans-83"/>
      <use x="66.699219" xlink:href="#LiberationSans-112"/>
      <use x="122.314453" xlink:href="#LiberationSans-97"/>
      <use x="177.929688" xlink:href="#LiberationSans-105"/>
      <use x="200.146484" xlink:href="#LiberationSans-110"/>
     </g>
    </g>
    <g id="line2d_49">
     <path d="M 601.051563 166.765625 
L 621.051563 166.765625 
" style="fill:none;stroke:#221cdf;stroke-linecap:round;stroke-width:1.75;"/>
    </g>
    <g id="line2d_50"/>
    <g id="text_28">
     <!-- Turkey -->
     <defs>
      <path d="M 39.84375 0 
L 21.96875 24.125 
L 15.53125 18.796875 
L 15.53125 0 
L 6.734375 0 
L 6.734375 72.46875 
L 15.53125 72.46875 
L 15.53125 27.203125 
L 38.71875 52.828125 
L 49.03125 52.828125 
L 27.59375 30.125 
L 50.140625 0 
z
" id="LiberationSans-107"/>
     </defs>
     <g style="fill:#262626;" transform="translate(629.051563 170.265625)scale(0.1 -0.1)">
      <use xlink:href="#LiberationSans-84"/>
      <use x="57.333984" xlink:href="#LiberationSans-117"/>
      <use x="112.949219" xlink:href="#LiberationSans-114"/>
      <use x="146.25" xlink:href="#LiberationSans-107"/>
      <use x="196.25" xlink:href="#LiberationSans-101"/>
      <use x="251.865234" xlink:href="#LiberationSans-121"/>
     </g>
    </g>
    <g id="line2d_51">
     <path d="M 601.051563 181.0875 
L 621.051563 181.0875 
" style="fill:none;stroke:#7516fd;stroke-dasharray:6.475,2.8;stroke-dashoffset:0;stroke-width:1.75;"/>
    </g>
    <g id="line2d_52"/>
    <g id="text_29">
     <!-- US -->
     <defs>
      <path d="M 35.6875 -0.984375 
Q 30.03125 -0.984375 24.953125 0.53125 
Q 19.875 2.046875 16.03125 5.25 
Q 12.203125 8.453125 9.953125 13.359375 
Q 7.71875 18.265625 7.71875 25 
L 7.71875 68.796875 
L 17.046875 68.796875 
L 17.046875 25.78125 
Q 17.046875 20.5625 18.4375 16.921875 
Q 19.828125 13.28125 22.3125 10.984375 
Q 24.8125 8.6875 28.203125 7.640625 
Q 31.59375 6.59375 35.640625 6.59375 
Q 39.65625 6.59375 43.21875 7.65625 
Q 46.78125 8.734375 49.46875 11.078125 
Q 52.15625 13.421875 53.6875 17.203125 
Q 55.21875 21 55.21875 26.421875 
L 55.21875 68.796875 
L 64.5 68.796875 
L 64.5 25.875 
Q 64.5 19 62.234375 13.9375 
Q 59.96875 8.890625 56.0625 5.5625 
Q 52.15625 2.25 46.90625 0.625 
Q 41.65625 -0.984375 35.6875 -0.984375 
z
" id="LiberationSans-85"/>
     </defs>
     <g style="fill:#262626;" transform="translate(629.051563 184.5875)scale(0.1 -0.1)">
      <use xlink:href="#LiberationSans-85"/>
      <use x="72.216797" xlink:href="#LiberationSans-83"/>
     </g>
    </g>
    <g id="line2d_53">
     <path d="M 601.051563 195.409375 
L 621.051563 195.409375 
" style="fill:none;stroke:#89f9c9;stroke-linecap:round;stroke-width:1.75;"/>
    </g>
    <g id="line2d_54"/>
    <g id="text_30">
     <!-- United Kingdom -->
     <defs>
      <path d="M 54 0 
L 26.515625 33.203125 
L 17.53125 26.375 
L 17.53125 0 
L 8.203125 0 
L 8.203125 68.796875 
L 17.53125 68.796875 
L 17.53125 34.328125 
L 50.6875 68.796875 
L 61.671875 68.796875 
L 32.375 38.921875 
L 65.578125 0 
z
" id="LiberationSans-75"/>
     </defs>
     <g style="fill:#262626;" transform="translate(629.051563 198.909375)scale(0.1 -0.1)">
      <use xlink:href="#LiberationSans-85"/>
      <use x="72.216797" xlink:href="#LiberationSans-110"/>
      <use x="127.832031" xlink:href="#LiberationSans-105"/>
      <use x="150.048828" xlink:href="#LiberationSans-116"/>
      <use x="177.832031" xlink:href="#LiberationSans-101"/>
      <use x="233.447266" xlink:href="#LiberationSans-100"/>
      <use x="289.0625" xlink:href="#LiberationSans-32"/>
      <use x="316.845703" xlink:href="#LiberationSans-75"/>
      <use x="383.544922" xlink:href="#LiberationSans-105"/>
      <use x="405.761719" xlink:href="#LiberationSans-110"/>
      <use x="461.376953" xlink:href="#LiberationSans-103"/>
      <use x="516.992188" xlink:href="#LiberationSans-100"/>
      <use x="572.607422" xlink:href="#LiberationSans-111"/>
      <use x="628.222656" xlink:href="#LiberationSans-109"/>
     </g>
    </g>
   </g>
  </g>
 </g>
 <defs>
  <clipPath id="p2ac70f8e22">
   <rect height="298.355396" width="654.91" x="54.29" y="10.8"/>
  </clipPath>
 </defs>
</svg>
