<?xml version="1.0" encoding="utf-8" standalone="no"?>
<!DOCTYPE svg PUBLIC "-//W3C//DTD SVG 1.1//EN"
  "http://www.w3.org/Graphics/SVG/1.1/DTD/svg11.dtd">
<!-- Created with matplotlib (https://matplotlib.org/) -->
<svg height="360pt" version="1.1" viewBox="0 0 720 360" width="720pt" xmlns="http://www.w3.org/2000/svg" xmlns:xlink="http://www.w3.org/1999/xlink">
 <defs>
  <style type="text/css">
*{stroke-linecap:butt;stroke-linejoin:round;}
  </style>
 </defs>
 <g id="figure_1">
  <g id="patch_1">
   <path d="M 0 360 
L 720 360 
L 720 0 
L 0 0 
z
" style="fill:#ffffff;"/>
  </g>
  <g id="axes_1">
   <g id="patch_2">
    <path d="M 54.29 309.155396 
L 709.2 309.155396 
L 709.2 10.8 
L 54.29 10.8 
z
" style="fill:#eaeaf2;"/>
   </g>
   <g id="matplotlib.axis_1">
    <g id="xtick_1">
     <g id="line2d_1"/>
     <g id="text_1">
      <!-- 0 -->
      <defs>
       <path d="M 51.703125 34.421875 
Q 51.703125 24.515625 49.828125 17.75 
Q 47.953125 10.984375 44.703125 6.8125 
Q 41.453125 2.640625 37.0625 0.828125 
Q 32.671875 -0.984375 27.6875 -0.984375 
Q 22.65625 -0.984375 18.3125 0.828125 
Q 13.96875 2.640625 10.765625 6.78125 
Q 7.5625 10.9375 5.734375 17.703125 
Q 3.90625 24.46875 3.90625 34.421875 
Q 3.90625 44.828125 5.734375 51.640625 
Q 7.5625 58.453125 10.78125 62.5 
Q 14.015625 66.546875 18.40625 68.1875 
Q 22.796875 69.828125 27.984375 69.828125 
Q 32.90625 69.828125 37.21875 68.1875 
Q 41.546875 66.546875 44.765625 62.5 
Q 48 58.453125 49.84375 51.640625 
Q 51.703125 44.828125 51.703125 34.421875 
z
M 42.78125 34.421875 
Q 42.78125 42.625 41.796875 48.0625 
Q 40.828125 53.515625 38.921875 56.765625 
Q 37.015625 60.015625 34.25 61.359375 
Q 31.5 62.703125 27.984375 62.703125 
Q 24.265625 62.703125 21.4375 61.328125 
Q 18.609375 59.96875 16.671875 56.71875 
Q 14.75 53.46875 13.765625 48.015625 
Q 12.796875 42.578125 12.796875 34.421875 
Q 12.796875 26.515625 13.796875 21.09375 
Q 14.796875 15.671875 16.71875 12.375 
Q 18.65625 9.078125 21.4375 7.640625 
Q 24.21875 6.203125 27.78125 6.203125 
Q 31.25 6.203125 34.03125 7.640625 
Q 36.8125 9.078125 38.734375 12.375 
Q 40.671875 15.671875 41.71875 21.09375 
Q 42.78125 26.515625 42.78125 34.421875 
z
" id="LiberationSans-48"/>
      </defs>
      <g style="fill:#262626;" transform="translate(83.921082 325.211887)rotate(-45)scale(0.1 -0.1)">
       <use xlink:href="#LiberationSans-48"/>
      </g>
     </g>
    </g>
    <g id="xtick_2">
     <g id="line2d_2"/>
     <g id="text_2">
      <!-- 20 -->
      <defs>
       <path d="M 5.03125 0 
L 5.03125 6.203125 
Q 7.515625 11.921875 11.109375 16.28125 
Q 14.703125 20.65625 18.65625 24.1875 
Q 22.609375 27.734375 26.484375 30.765625 
Q 30.375 33.796875 33.5 36.8125 
Q 36.625 39.84375 38.546875 43.15625 
Q 40.484375 46.484375 40.484375 50.6875 
Q 40.484375 53.609375 39.59375 55.828125 
Q 38.71875 58.0625 37.0625 59.5625 
Q 35.40625 61.078125 33.078125 61.828125 
Q 30.765625 62.59375 27.9375 62.59375 
Q 25.296875 62.59375 22.96875 61.859375 
Q 20.65625 61.140625 18.84375 59.671875 
Q 17.046875 58.203125 15.890625 56.03125 
Q 14.75 53.859375 14.40625 50.984375 
L 5.421875 51.8125 
Q 5.859375 55.515625 7.46875 58.78125 
Q 9.078125 62.0625 11.90625 64.53125 
Q 14.75 67 18.71875 68.40625 
Q 22.703125 69.828125 27.9375 69.828125 
Q 33.0625 69.828125 37.0625 68.609375 
Q 41.0625 67.390625 43.8125 64.984375 
Q 46.578125 62.59375 48.046875 59.078125 
Q 49.515625 55.5625 49.515625 50.984375 
Q 49.515625 47.515625 48.265625 44.390625 
Q 47.015625 41.265625 44.9375 38.421875 
Q 42.875 35.59375 40.140625 32.953125 
Q 37.40625 30.328125 34.421875 27.8125 
Q 31.453125 25.296875 28.421875 22.828125 
Q 25.390625 20.359375 22.71875 17.859375 
Q 20.0625 15.375 17.96875 12.8125 
Q 15.875 10.25 14.703125 7.46875 
L 50.59375 7.46875 
L 50.59375 0 
z
" id="LiberationSans-50"/>
      </defs>
      <g style="fill:#262626;" transform="translate(176.458601 329.144064)rotate(-45)scale(0.1 -0.1)">
       <use xlink:href="#LiberationSans-50"/>
       <use x="55.615234" xlink:href="#LiberationSans-48"/>
      </g>
     </g>
    </g>
    <g id="xtick_3">
     <g id="line2d_3"/>
     <g id="text_3">
      <!-- 40 -->
      <defs>
       <path d="M 43.015625 15.578125 
L 43.015625 0 
L 34.71875 0 
L 34.71875 15.578125 
L 2.296875 15.578125 
L 2.296875 22.40625 
L 33.796875 68.796875 
L 43.015625 68.796875 
L 43.015625 22.515625 
L 52.6875 22.515625 
L 52.6875 15.578125 
z
M 34.71875 58.890625 
Q 34.625 58.640625 34.234375 57.9375 
Q 33.84375 57.234375 33.34375 56.34375 
Q 32.859375 55.46875 32.34375 54.5625 
Q 31.84375 53.65625 31.453125 53.078125 
L 13.8125 27.09375 
Q 13.578125 26.703125 13.109375 26.0625 
Q 12.640625 25.4375 12.15625 24.78125 
Q 11.671875 24.125 11.171875 23.484375 
Q 10.6875 22.859375 10.40625 22.515625 
L 34.71875 22.515625 
z
" id="LiberationSans-52"/>
      </defs>
      <g style="fill:#262626;" transform="translate(270.962209 329.144064)rotate(-45)scale(0.1 -0.1)">
       <use xlink:href="#LiberationSans-52"/>
       <use x="55.615234" xlink:href="#LiberationSans-48"/>
      </g>
     </g>
    </g>
    <g id="xtick_4">
     <g id="line2d_4"/>
     <g id="text_4">
      <!-- 60 -->
      <defs>
       <path d="M 51.21875 22.515625 
Q 51.21875 17.328125 49.78125 13 
Q 48.34375 8.6875 45.53125 5.578125 
Q 42.71875 2.484375 38.5625 0.75 
Q 34.421875 -0.984375 29 -0.984375 
Q 23 -0.984375 18.5 1.3125 
Q 14.015625 3.609375 11.03125 7.921875 
Q 8.0625 12.25 6.5625 18.53125 
Q 5.078125 24.8125 5.078125 32.8125 
Q 5.078125 42 6.765625 48.921875 
Q 8.453125 55.859375 11.625 60.5 
Q 14.796875 65.140625 19.359375 67.484375 
Q 23.921875 69.828125 29.6875 69.828125 
Q 33.203125 69.828125 36.28125 69.09375 
Q 39.359375 68.359375 41.875 66.71875 
Q 44.390625 65.09375 46.28125 62.40625 
Q 48.1875 59.71875 49.3125 55.8125 
L 40.921875 54.296875 
Q 39.546875 58.734375 36.546875 60.71875 
Q 33.546875 62.703125 29.59375 62.703125 
Q 25.984375 62.703125 23.046875 60.984375 
Q 20.125 59.28125 18.0625 55.875 
Q 16.015625 52.484375 14.90625 47.359375 
Q 13.8125 42.234375 13.8125 35.40625 
Q 16.21875 39.84375 20.5625 42.15625 
Q 24.90625 44.484375 30.515625 44.484375 
Q 35.203125 44.484375 39.015625 42.96875 
Q 42.828125 41.453125 45.53125 38.59375 
Q 48.25 35.75 49.734375 31.671875 
Q 51.21875 27.59375 51.21875 22.515625 
z
M 42.28125 22.125 
Q 42.28125 25.6875 41.40625 28.5625 
Q 40.53125 31.453125 38.765625 33.46875 
Q 37.015625 35.5 34.421875 36.59375 
Q 31.84375 37.703125 28.421875 37.703125 
Q 26.03125 37.703125 23.578125 36.984375 
Q 21.140625 36.28125 19.15625 34.6875 
Q 17.1875 33.109375 15.9375 30.515625 
Q 14.703125 27.9375 14.703125 24.21875 
Q 14.703125 20.40625 15.671875 17.109375 
Q 16.65625 13.8125 18.484375 11.375 
Q 20.3125 8.9375 22.890625 7.515625 
Q 25.484375 6.109375 28.71875 6.109375 
Q 31.890625 6.109375 34.40625 7.203125 
Q 36.921875 8.296875 38.671875 10.375 
Q 40.4375 12.453125 41.359375 15.421875 
Q 42.28125 18.40625 42.28125 22.125 
z
" id="LiberationSans-54"/>
      </defs>
      <g style="fill:#262626;" transform="translate(365.465816 329.144064)rotate(-45)scale(0.1 -0.1)">
       <use xlink:href="#LiberationSans-54"/>
       <use x="55.615234" xlink:href="#LiberationSans-48"/>
      </g>
     </g>
    </g>
    <g id="xtick_5">
     <g id="line2d_5"/>
     <g id="text_5">
      <!-- 80 -->
      <defs>
       <path d="M 51.265625 19.1875 
Q 51.265625 14.796875 49.875 11.109375 
Q 48.484375 7.421875 45.625 4.734375 
Q 42.78125 2.046875 38.328125 0.53125 
Q 33.890625 -0.984375 27.828125 -0.984375 
Q 21.78125 -0.984375 17.359375 0.53125 
Q 12.9375 2.046875 10.03125 4.703125 
Q 7.125 7.375 5.734375 11.0625 
Q 4.34375 14.75 4.34375 19.09375 
Q 4.34375 22.859375 5.484375 25.78125 
Q 6.640625 28.71875 8.5625 30.828125 
Q 10.5 32.953125 12.96875 34.25 
Q 15.4375 35.546875 18.0625 35.984375 
L 18.0625 36.1875 
Q 15.1875 36.859375 12.90625 38.375 
Q 10.640625 39.890625 9.09375 42.015625 
Q 7.5625 44.140625 6.75 46.71875 
Q 5.953125 49.3125 5.953125 52.203125 
Q 5.953125 55.8125 7.34375 59 
Q 8.734375 62.203125 11.46875 64.625 
Q 14.203125 67.046875 18.25 68.4375 
Q 22.3125 69.828125 27.640625 69.828125 
Q 33.25 69.828125 37.375 68.40625 
Q 41.5 67 44.203125 64.578125 
Q 46.921875 62.15625 48.234375 58.9375 
Q 49.5625 55.71875 49.5625 52.09375 
Q 49.5625 49.265625 48.75 46.671875 
Q 47.953125 44.09375 46.40625 41.96875 
Q 44.875 39.84375 42.59375 38.34375 
Q 40.328125 36.859375 37.359375 36.28125 
L 37.359375 36.078125 
Q 40.328125 35.59375 42.859375 34.296875 
Q 45.40625 33.015625 47.265625 30.890625 
Q 49.125 28.765625 50.1875 25.828125 
Q 51.265625 22.90625 51.265625 19.1875 
z
M 40.4375 51.609375 
Q 40.4375 54.203125 39.765625 56.34375 
Q 39.109375 58.5 37.59375 60.03125 
Q 36.078125 61.578125 33.640625 62.421875 
Q 31.203125 63.28125 27.640625 63.28125 
Q 24.171875 63.28125 21.78125 62.421875 
Q 19.390625 61.578125 17.84375 60.03125 
Q 16.3125 58.5 15.625 56.34375 
Q 14.9375 54.203125 14.9375 51.609375 
Q 14.9375 49.5625 15.46875 47.40625 
Q 16.015625 45.265625 17.421875 43.5 
Q 18.84375 41.75 21.328125 40.625 
Q 23.828125 39.5 27.734375 39.5 
Q 31.890625 39.5 34.40625 40.625 
Q 36.921875 41.75 38.25 43.5 
Q 39.59375 45.265625 40.015625 47.40625 
Q 40.4375 49.5625 40.4375 51.609375 
z
M 42.140625 20.015625 
Q 42.140625 22.515625 41.453125 24.828125 
Q 40.765625 27.15625 39.109375 28.9375 
Q 37.453125 30.71875 34.640625 31.8125 
Q 31.84375 32.90625 27.640625 32.90625 
Q 23.78125 32.90625 21.0625 31.8125 
Q 18.359375 30.71875 16.671875 28.90625 
Q 14.984375 27.09375 14.203125 24.71875 
Q 13.421875 22.359375 13.421875 19.828125 
Q 13.421875 16.65625 14.203125 14.03125 
Q 14.984375 11.421875 16.6875 9.546875 
Q 18.40625 7.671875 21.1875 6.640625 
Q 23.96875 5.609375 27.9375 5.609375 
Q 31.9375 5.609375 34.671875 6.640625 
Q 37.40625 7.671875 39.0625 9.546875 
Q 40.71875 11.421875 41.421875 14.078125 
Q 42.140625 16.75 42.140625 20.015625 
z
" id="LiberationSans-56"/>
      </defs>
      <g style="fill:#262626;" transform="translate(459.969424 329.144064)rotate(-45)scale(0.1 -0.1)">
       <use xlink:href="#LiberationSans-56"/>
       <use x="55.615234" xlink:href="#LiberationSans-48"/>
      </g>
     </g>
    </g>
    <g id="xtick_6">
     <g id="line2d_6"/>
     <g id="text_6">
      <!-- 100 -->
      <defs>
       <path d="M 7.625 0 
L 7.625 7.46875 
L 25.140625 7.46875 
L 25.140625 60.40625 
L 9.625 49.3125 
L 9.625 57.625 
L 25.875 68.796875 
L 33.984375 68.796875 
L 33.984375 7.46875 
L 50.734375 7.46875 
L 50.734375 0 
z
" id="LiberationSans-49"/>
      </defs>
      <g style="fill:#262626;" transform="translate(552.506943 333.07624)rotate(-45)scale(0.1 -0.1)">
       <use xlink:href="#LiberationSans-49"/>
       <use x="55.615234" xlink:href="#LiberationSans-48"/>
       <use x="111.230469" xlink:href="#LiberationSans-48"/>
      </g>
     </g>
    </g>
    <g id="xtick_7">
     <g id="line2d_7"/>
     <g id="text_7">
      <!-- 120 -->
      <g style="fill:#262626;" transform="translate(647.01055 333.07624)rotate(-45)scale(0.1 -0.1)">
       <use xlink:href="#LiberationSans-49"/>
       <use x="55.615234" xlink:href="#LiberationSans-50"/>
       <use x="111.230469" xlink:href="#LiberationSans-48"/>
      </g>
     </g>
    </g>
    <g id="text_8">
     <!-- Days since case nº20 -->
     <defs>
      <path d="M 67.4375 35.109375 
Q 67.4375 26.515625 64.84375 19.9375 
Q 62.25 13.375 57.75 8.953125 
Q 53.265625 4.546875 47.140625 2.265625 
Q 41.015625 0 33.9375 0 
L 8.203125 0 
L 8.203125 68.796875 
L 30.953125 68.796875 
Q 38.921875 68.796875 45.625 66.8125 
Q 52.34375 64.84375 57.171875 60.71875 
Q 62.015625 56.59375 64.71875 50.234375 
Q 67.4375 43.890625 67.4375 35.109375 
z
M 58.0625 35.109375 
Q 58.0625 42.09375 56.046875 47.046875 
Q 54.046875 52 50.4375 55.171875 
Q 46.828125 58.34375 41.796875 59.828125 
Q 36.765625 61.328125 30.765625 61.328125 
L 17.53125 61.328125 
L 17.53125 7.46875 
L 32.859375 7.46875 
Q 38.28125 7.46875 42.890625 9.21875 
Q 47.515625 10.984375 50.875 14.453125 
Q 54.25 17.921875 56.15625 23.09375 
Q 58.0625 28.265625 58.0625 35.109375 
z
" id="LiberationSans-68"/>
      <path d="M 20.21875 -0.984375 
Q 12.25 -0.984375 8.25 3.21875 
Q 4.25 7.421875 4.25 14.75 
Q 4.25 19.96875 6.21875 23.3125 
Q 8.203125 26.65625 11.390625 28.5625 
Q 14.59375 30.46875 18.6875 31.203125 
Q 22.796875 31.9375 27.046875 32.03125 
L 38.921875 32.234375 
L 38.921875 35.109375 
Q 38.921875 38.375 38.234375 40.671875 
Q 37.546875 42.96875 36.125 44.375 
Q 34.71875 45.796875 32.59375 46.453125 
Q 30.46875 47.125 27.59375 47.125 
Q 25.046875 47.125 23 46.75 
Q 20.953125 46.390625 19.4375 45.4375 
Q 17.921875 44.484375 16.984375 42.84375 
Q 16.0625 41.21875 15.765625 38.71875 
L 6.59375 39.546875 
Q 7.078125 42.671875 8.4375 45.28125 
Q 9.8125 47.90625 12.328125 49.796875 
Q 14.84375 51.703125 18.625 52.75 
Q 22.40625 53.8125 27.78125 53.8125 
Q 37.75 53.8125 42.765625 49.234375 
Q 47.796875 44.671875 47.796875 36.03125 
L 47.796875 13.28125 
Q 47.796875 9.375 48.828125 7.390625 
Q 49.859375 5.421875 52.734375 5.421875 
Q 53.46875 5.421875 54.203125 5.515625 
Q 54.9375 5.609375 55.609375 5.765625 
L 55.609375 0.296875 
Q 53.953125 -0.09375 52.3125 -0.28125 
Q 50.6875 -0.484375 48.828125 -0.484375 
Q 46.34375 -0.484375 44.5625 0.171875 
Q 42.78125 0.828125 41.65625 2.171875 
Q 40.53125 3.515625 39.9375 5.484375 
Q 39.359375 7.46875 39.203125 10.109375 
L 38.921875 10.109375 
Q 37.5 7.5625 35.8125 5.515625 
Q 34.125 3.46875 31.875 2.03125 
Q 29.640625 0.59375 26.78125 -0.1875 
Q 23.921875 -0.984375 20.21875 -0.984375 
z
M 22.21875 5.609375 
Q 26.421875 5.609375 29.5625 7.140625 
Q 32.71875 8.6875 34.78125 11.078125 
Q 36.859375 13.484375 37.890625 16.3125 
Q 38.921875 19.140625 38.921875 21.734375 
L 38.921875 26.078125 
L 29.296875 25.875 
Q 26.078125 25.828125 23.171875 25.40625 
Q 20.265625 25 18.0625 23.78125 
Q 15.875 22.5625 14.578125 20.359375 
Q 13.28125 18.171875 13.28125 14.59375 
Q 13.28125 10.296875 15.59375 7.953125 
Q 17.921875 5.609375 22.21875 5.609375 
z
" id="LiberationSans-97"/>
      <path d="M 29.5 0 
Q 27.640625 -4.78125 25.703125 -8.609375 
Q 23.78125 -12.453125 21.390625 -15.15625 
Q 19 -17.875 16.0625 -19.3125 
Q 13.140625 -20.75 9.328125 -20.75 
Q 7.671875 -20.75 6.25 -20.65625 
Q 4.828125 -20.5625 3.265625 -20.21875 
L 3.265625 -13.625 
Q 4.203125 -13.765625 5.375 -13.84375 
Q 6.546875 -13.921875 7.375 -13.921875 
Q 11.234375 -13.921875 14.546875 -11.03125 
Q 17.875 -8.15625 20.359375 -1.859375 
L 21.1875 0.25 
L 0.25 52.828125 
L 9.625 52.828125 
L 20.75 23.640625 
Q 21.234375 22.3125 21.984375 20.109375 
Q 22.75 17.921875 23.5 15.71875 
Q 24.265625 13.53125 24.84375 11.765625 
Q 25.4375 10.015625 25.53125 9.578125 
Q 25.6875 10.109375 26.25 11.6875 
Q 26.8125 13.28125 27.515625 15.234375 
Q 28.21875 17.1875 28.953125 19.1875 
Q 29.6875 21.1875 30.171875 22.65625 
L 40.53125 52.828125 
L 49.8125 52.828125 
z
" id="LiberationSans-121"/>
      <path d="M 46.390625 14.59375 
Q 46.390625 10.890625 44.9375 7.984375 
Q 43.5 5.078125 40.765625 3.09375 
Q 38.03125 1.125 34.046875 0.0625 
Q 30.078125 -0.984375 24.953125 -0.984375 
Q 20.359375 -0.984375 16.671875 -0.265625 
Q 12.984375 0.4375 10.203125 2 
Q 7.421875 3.5625 5.53125 6.125 
Q 3.65625 8.6875 2.78125 12.40625 
L 10.546875 13.921875 
Q 11.671875 9.671875 15.1875 7.6875 
Q 18.703125 5.71875 24.953125 5.71875 
Q 27.78125 5.71875 30.140625 6.109375 
Q 32.515625 6.5 34.21875 7.453125 
Q 35.9375 8.40625 36.890625 9.984375 
Q 37.84375 11.578125 37.84375 13.921875 
Q 37.84375 16.3125 36.71875 17.84375 
Q 35.59375 19.390625 33.59375 20.40625 
Q 31.59375 21.4375 28.734375 22.1875 
Q 25.875 22.953125 22.46875 23.875 
Q 19.28125 24.703125 16.15625 25.734375 
Q 13.03125 26.765625 10.515625 28.4375 
Q 8.015625 30.125 6.453125 32.609375 
Q 4.890625 35.109375 4.890625 38.875 
Q 4.890625 46.09375 10.03125 49.875 
Q 15.1875 53.65625 25.046875 53.65625 
Q 33.796875 53.65625 38.9375 50.578125 
Q 44.09375 47.515625 45.453125 40.71875 
L 37.546875 39.75 
Q 37.109375 41.796875 35.9375 43.1875 
Q 34.765625 44.578125 33.109375 45.4375 
Q 31.453125 46.296875 29.375 46.65625 
Q 27.296875 47.015625 25.046875 47.015625 
Q 19.09375 47.015625 16.25 45.203125 
Q 13.421875 43.40625 13.421875 39.75 
Q 13.421875 37.59375 14.46875 36.203125 
Q 15.53125 34.8125 17.40625 33.859375 
Q 19.28125 32.90625 21.921875 32.203125 
Q 24.5625 31.5 27.734375 30.71875 
Q 29.828125 30.171875 32.03125 29.5625 
Q 34.234375 28.953125 36.296875 28.09375 
Q 38.375 27.25 40.203125 26.09375 
Q 42.046875 24.953125 43.40625 23.34375 
Q 44.78125 21.734375 45.578125 19.578125 
Q 46.390625 17.4375 46.390625 14.59375 
z
" id="LiberationSans-115"/>
      <path id="LiberationSans-32"/>
      <path d="M 6.6875 64.0625 
L 6.6875 72.46875 
L 15.484375 72.46875 
L 15.484375 64.0625 
z
M 6.6875 0 
L 6.6875 52.828125 
L 15.484375 52.828125 
L 15.484375 0 
z
" id="LiberationSans-105"/>
      <path d="M 40.28125 0 
L 40.28125 33.5 
Q 40.28125 37.359375 39.71875 39.9375 
Q 39.15625 42.53125 37.890625 44.109375 
Q 36.625 45.703125 34.546875 46.359375 
Q 32.46875 47.015625 29.390625 47.015625 
Q 26.265625 47.015625 23.75 45.921875 
Q 21.234375 44.828125 19.453125 42.75 
Q 17.671875 40.671875 16.6875 37.625 
Q 15.71875 34.578125 15.71875 30.609375 
L 15.71875 0 
L 6.9375 0 
L 6.9375 41.546875 
Q 6.9375 43.21875 6.90625 45.046875 
Q 6.890625 46.875 6.828125 48.5 
Q 6.78125 50.140625 6.734375 51.3125 
Q 6.6875 52.484375 6.640625 52.828125 
L 14.9375 52.828125 
Q 14.984375 52.59375 15.03125 51.515625 
Q 15.09375 50.4375 15.15625 49.046875 
Q 15.234375 47.65625 15.28125 46.21875 
Q 15.328125 44.78125 15.328125 43.796875 
L 15.484375 43.796875 
Q 16.75 46.09375 18.265625 47.953125 
Q 19.78125 49.8125 21.78125 51.09375 
Q 23.78125 52.390625 26.359375 53.09375 
Q 28.953125 53.8125 32.375 53.8125 
Q 36.765625 53.8125 39.9375 52.734375 
Q 43.109375 51.65625 45.15625 49.40625 
Q 47.21875 47.171875 48.171875 43.625 
Q 49.125 40.09375 49.125 35.203125 
L 49.125 0 
z
" id="LiberationSans-110"/>
      <path d="M 13.421875 26.65625 
Q 13.421875 22.125 14.078125 18.3125 
Q 14.75 14.5 16.3125 11.734375 
Q 17.875 8.984375 20.4375 7.46875 
Q 23 5.953125 26.765625 5.953125 
Q 31.453125 5.953125 34.59375 8.484375 
Q 37.75 11.03125 38.484375 16.3125 
L 47.359375 15.71875 
Q 46.921875 12.453125 45.453125 9.421875 
Q 44 6.390625 41.484375 4.09375 
Q 38.96875 1.8125 35.34375 0.40625 
Q 31.734375 -0.984375 27 -0.984375 
Q 20.796875 -0.984375 16.453125 1.109375 
Q 12.109375 3.21875 9.390625 6.90625 
Q 6.6875 10.59375 5.46875 15.59375 
Q 4.25 20.609375 4.25 26.46875 
Q 4.25 31.78125 5.125 35.859375 
Q 6 39.9375 7.59375 42.984375 
Q 9.1875 46.046875 11.328125 48.125 
Q 13.484375 50.203125 15.984375 51.4375 
Q 18.5 52.6875 21.28125 53.25 
Q 24.078125 53.8125 26.90625 53.8125 
Q 31.34375 53.8125 34.8125 52.59375 
Q 38.28125 51.375 40.796875 49.25 
Q 43.3125 47.125 44.875 44.234375 
Q 46.4375 41.359375 47.078125 38.03125 
L 38.03125 37.359375 
Q 37.359375 41.75 34.5625 44.328125 
Q 31.78125 46.921875 26.65625 46.921875 
Q 22.90625 46.921875 20.390625 45.671875 
Q 17.875 44.4375 16.3125 41.921875 
Q 14.75 39.40625 14.078125 35.59375 
Q 13.421875 31.78125 13.421875 26.65625 
z
" id="LiberationSans-99"/>
      <path d="M 13.484375 24.5625 
Q 13.484375 20.40625 14.328125 16.90625 
Q 15.1875 13.421875 16.96875 10.90625 
Q 18.75 8.40625 21.53125 7 
Q 24.3125 5.609375 28.21875 5.609375 
Q 33.9375 5.609375 37.375 7.90625 
Q 40.828125 10.203125 42.046875 13.71875 
L 49.75 11.53125 
Q 48.921875 9.328125 47.4375 7.109375 
Q 45.953125 4.890625 43.453125 3.09375 
Q 40.96875 1.3125 37.234375 0.15625 
Q 33.5 -0.984375 28.21875 -0.984375 
Q 16.5 -0.984375 10.375 6 
Q 4.25 12.984375 4.25 26.765625 
Q 4.25 34.1875 6.09375 39.328125 
Q 7.953125 44.484375 11.171875 47.703125 
Q 14.40625 50.921875 18.703125 52.359375 
Q 23 53.8125 27.875 53.8125 
Q 34.515625 53.8125 38.984375 51.65625 
Q 43.453125 49.515625 46.15625 45.71875 
Q 48.875 41.9375 50.015625 36.8125 
Q 51.171875 31.6875 51.171875 25.734375 
L 51.171875 24.5625 
z
M 42.09375 31.296875 
Q 41.359375 39.65625 37.84375 43.484375 
Q 34.328125 47.3125 27.734375 47.3125 
Q 25.53125 47.3125 23.109375 46.609375 
Q 20.703125 45.90625 18.65625 44.09375 
Q 16.609375 42.28125 15.1875 39.171875 
Q 13.765625 36.078125 13.578125 31.296875 
z
" id="LiberationSans-101"/>
      <path d="M 35.296875 50.875 
Q 35.296875 41.703125 31 36.734375 
Q 26.703125 31.78125 18.171875 31.78125 
Q 9.96875 31.78125 5.640625 36.6875 
Q 1.3125 41.609375 1.3125 50.875 
Q 1.3125 55.328125 2.359375 58.859375 
Q 3.421875 62.40625 5.546875 64.859375 
Q 7.671875 67.328125 10.859375 68.625 
Q 14.0625 69.921875 18.359375 69.921875 
Q 22.90625 69.921875 26.09375 68.625 
Q 29.296875 67.328125 31.34375 64.890625 
Q 33.40625 62.453125 34.34375 58.90625 
Q 35.296875 55.375 35.296875 50.875 
z
M 28.03125 50.875 
Q 28.03125 54.9375 27.421875 57.609375 
Q 26.8125 60.296875 25.578125 61.890625 
Q 24.359375 63.484375 22.59375 64.140625 
Q 20.84375 64.796875 18.5 64.796875 
Q 16.15625 64.796875 14.328125 64.140625 
Q 12.5 63.484375 11.25 61.859375 
Q 10.015625 60.25 9.375 57.5625 
Q 8.734375 54.890625 8.734375 50.875 
Q 8.734375 46.78125 9.421875 44.09375 
Q 10.109375 41.40625 11.34375 39.796875 
Q 12.59375 38.1875 14.296875 37.546875 
Q 16.015625 36.921875 18.109375 36.921875 
Q 20.515625 36.921875 22.34375 37.546875 
Q 24.171875 38.1875 25.4375 39.796875 
Q 26.703125 41.40625 27.359375 44.09375 
Q 28.03125 46.78125 28.03125 50.875 
z
" id="LiberationSans-186"/>
     </defs>
     <g style="fill:#262626;" transform="translate(328.989688 346.51505)scale(0.11 -0.11)">
      <use xlink:href="#LiberationSans-68"/>
      <use x="72.216797" xlink:href="#LiberationSans-97"/>
      <use x="127.832031" xlink:href="#LiberationSans-121"/>
      <use x="177.832031" xlink:href="#LiberationSans-115"/>
      <use x="227.832031" xlink:href="#LiberationSans-32"/>
      <use x="255.615234" xlink:href="#LiberationSans-115"/>
      <use x="305.615234" xlink:href="#LiberationSans-105"/>
      <use x="327.832031" xlink:href="#LiberationSans-110"/>
      <use x="383.447266" xlink:href="#LiberationSans-99"/>
      <use x="433.447266" xlink:href="#LiberationSans-101"/>
      <use x="489.0625" xlink:href="#LiberationSans-32"/>
      <use x="516.845703" xlink:href="#LiberationSans-99"/>
      <use x="566.845703" xlink:href="#LiberationSans-97"/>
      <use x="622.460938" xlink:href="#LiberationSans-115"/>
      <use x="672.460938" xlink:href="#LiberationSans-101"/>
      <use x="728.076172" xlink:href="#LiberationSans-32"/>
      <use x="755.859375" xlink:href="#LiberationSans-110"/>
      <use x="811.474609" xlink:href="#LiberationSans-186"/>
      <use x="847.998047" xlink:href="#LiberationSans-50"/>
      <use x="903.613281" xlink:href="#LiberationSans-48"/>
     </g>
    </g>
   </g>
   <g id="matplotlib.axis_2">
    <g id="ytick_1">
     <g id="line2d_8"/>
     <g id="text_9">
      <!-- 0 -->
      <g style="fill:#262626;" transform="translate(41.729063 299.222801)scale(0.1 -0.1)">
       <use xlink:href="#LiberationSans-48"/>
      </g>
     </g>
    </g>
    <g id="ytick_2">
     <g id="line2d_9"/>
     <g id="text_10">
      <!-- 1000 -->
      <g style="fill:#262626;" transform="translate(25.04625 246.750548)scale(0.1 -0.1)">
       <use xlink:href="#LiberationSans-49"/>
       <use x="55.615234" xlink:href="#LiberationSans-48"/>
       <use x="111.230469" xlink:href="#LiberationSans-48"/>
       <use x="166.845703" xlink:href="#LiberationSans-48"/>
      </g>
     </g>
    </g>
    <g id="ytick_3">
     <g id="line2d_10"/>
     <g id="text_11">
      <!-- 2000 -->
      <g style="fill:#262626;" transform="translate(25.04625 194.278296)scale(0.1 -0.1)">
       <use xlink:href="#LiberationSans-50"/>
       <use x="55.615234" xlink:href="#LiberationSans-48"/>
       <use x="111.230469" xlink:href="#LiberationSans-48"/>
       <use x="166.845703" xlink:href="#LiberationSans-48"/>
      </g>
     </g>
    </g>
    <g id="ytick_4">
     <g id="line2d_11"/>
     <g id="text_12">
      <!-- 3000 -->
      <defs>
       <path d="M 51.21875 19 
Q 51.21875 14.265625 49.671875 10.546875 
Q 48.140625 6.84375 45.1875 4.265625 
Q 42.234375 1.703125 37.859375 0.359375 
Q 33.5 -0.984375 27.875 -0.984375 
Q 21.484375 -0.984375 17.109375 0.609375 
Q 12.75 2.203125 9.90625 4.8125 
Q 7.078125 7.421875 5.65625 10.765625 
Q 4.25 14.109375 3.8125 17.671875 
L 12.890625 18.5 
Q 13.28125 15.765625 14.328125 13.515625 
Q 15.375 11.28125 17.1875 9.671875 
Q 19 8.0625 21.625 7.171875 
Q 24.265625 6.296875 27.875 6.296875 
Q 34.515625 6.296875 38.296875 9.5625 
Q 42.09375 12.84375 42.09375 19.28125 
Q 42.09375 23.09375 40.40625 25.40625 
Q 38.71875 27.734375 36.203125 29.03125 
Q 33.6875 30.328125 30.734375 30.765625 
Q 27.78125 31.203125 25.296875 31.203125 
L 20.3125 31.203125 
L 20.3125 38.8125 
L 25.09375 38.8125 
Q 27.59375 38.8125 30.265625 39.328125 
Q 32.953125 39.84375 35.171875 41.1875 
Q 37.40625 42.53125 38.84375 44.828125 
Q 40.28125 47.125 40.28125 50.6875 
Q 40.28125 56.203125 37.03125 59.390625 
Q 33.796875 62.59375 27.390625 62.59375 
Q 21.578125 62.59375 17.984375 59.609375 
Q 14.40625 56.640625 13.8125 51.21875 
L 4.984375 51.90625 
Q 5.515625 56.453125 7.46875 59.8125 
Q 9.421875 63.1875 12.421875 65.40625 
Q 15.4375 67.625 19.28125 68.71875 
Q 23.140625 69.828125 27.484375 69.828125 
Q 33.25 69.828125 37.390625 68.375 
Q 41.546875 66.9375 44.1875 64.46875 
Q 46.828125 62.015625 48.0625 58.6875 
Q 49.3125 55.375 49.3125 51.609375 
Q 49.3125 48.578125 48.484375 45.9375 
Q 47.65625 43.3125 45.890625 41.203125 
Q 44.140625 39.109375 41.421875 37.59375 
Q 38.71875 36.078125 34.90625 35.296875 
L 34.90625 35.109375 
Q 39.0625 34.671875 42.140625 33.21875 
Q 45.21875 31.78125 47.21875 29.625 
Q 49.21875 27.484375 50.21875 24.75 
Q 51.21875 22.015625 51.21875 19 
z
" id="LiberationSans-51"/>
      </defs>
      <g style="fill:#262626;" transform="translate(25.04625 141.806044)scale(0.1 -0.1)">
       <use xlink:href="#LiberationSans-51"/>
       <use x="55.615234" xlink:href="#LiberationSans-48"/>
       <use x="111.230469" xlink:href="#LiberationSans-48"/>
       <use x="166.845703" xlink:href="#LiberationSans-48"/>
      </g>
     </g>
    </g>
    <g id="ytick_5">
     <g id="line2d_12"/>
     <g id="text_13">
      <!-- 4000 -->
      <g style="fill:#262626;" transform="translate(25.04625 89.333792)scale(0.1 -0.1)">
       <use xlink:href="#LiberationSans-52"/>
       <use x="55.615234" xlink:href="#LiberationSans-48"/>
       <use x="111.230469" xlink:href="#LiberationSans-48"/>
       <use x="166.845703" xlink:href="#LiberationSans-48"/>
      </g>
     </g>
    </g>
    <g id="ytick_6">
     <g id="line2d_13"/>
     <g id="text_14">
      <!-- 5000 -->
      <defs>
       <path d="M 51.421875 22.40625 
Q 51.421875 17.234375 49.859375 12.9375 
Q 48.296875 8.640625 45.21875 5.53125 
Q 42.140625 2.4375 37.578125 0.71875 
Q 33.015625 -0.984375 27 -0.984375 
Q 21.578125 -0.984375 17.546875 0.28125 
Q 13.53125 1.5625 10.734375 3.78125 
Q 7.953125 6 6.3125 8.984375 
Q 4.6875 11.96875 4 15.375 
L 12.890625 16.40625 
Q 13.421875 14.453125 14.390625 12.625 
Q 15.375 10.796875 17.0625 9.34375 
Q 18.75 7.90625 21.21875 7.046875 
Q 23.6875 6.203125 27.203125 6.203125 
Q 30.609375 6.203125 33.390625 7.25 
Q 36.1875 8.296875 38.15625 10.34375 
Q 40.140625 12.40625 41.203125 15.375 
Q 42.28125 18.359375 42.28125 22.21875 
Q 42.28125 25.390625 41.25 28.046875 
Q 40.234375 30.71875 38.328125 32.640625 
Q 36.421875 34.578125 33.65625 35.640625 
Q 30.90625 36.71875 27.390625 36.71875 
Q 25.203125 36.71875 23.34375 36.328125 
Q 21.484375 35.9375 19.890625 35.25 
Q 18.3125 34.578125 17.015625 33.671875 
Q 15.71875 32.765625 14.59375 31.78125 
L 6 31.78125 
L 8.296875 68.796875 
L 47.40625 68.796875 
L 47.40625 61.328125 
L 16.3125 61.328125 
L 14.984375 39.5 
Q 17.328125 41.3125 20.84375 42.59375 
Q 24.359375 43.890625 29.203125 43.890625 
Q 34.328125 43.890625 38.421875 42.328125 
Q 42.53125 40.765625 45.40625 37.90625 
Q 48.296875 35.0625 49.859375 31.109375 
Q 51.421875 27.15625 51.421875 22.40625 
z
" id="LiberationSans-53"/>
      </defs>
      <g style="fill:#262626;" transform="translate(25.04625 36.861539)scale(0.1 -0.1)">
       <use xlink:href="#LiberationSans-53"/>
       <use x="55.615234" xlink:href="#LiberationSans-48"/>
       <use x="111.230469" xlink:href="#LiberationSans-48"/>
       <use x="166.845703" xlink:href="#LiberationSans-48"/>
      </g>
     </g>
    </g>
    <g id="text_15">
     <!-- Total infections over 1M population -->
     <defs>
      <path d="M 35.15625 61.1875 
L 35.15625 0 
L 25.875 0 
L 25.875 61.1875 
L 2.25 61.1875 
L 2.25 68.796875 
L 58.796875 68.796875 
L 58.796875 61.1875 
z
" id="LiberationSans-84"/>
      <path d="M 51.421875 26.46875 
Q 51.421875 12.59375 45.3125 5.796875 
Q 39.203125 -0.984375 27.59375 -0.984375 
Q 22.078125 -0.984375 17.71875 0.671875 
Q 13.375 2.34375 10.375 5.765625 
Q 7.375 9.1875 5.78125 14.328125 
Q 4.203125 19.484375 4.203125 26.46875 
Q 4.203125 53.8125 27.875 53.8125 
Q 34.03125 53.8125 38.5 52.09375 
Q 42.96875 50.390625 45.828125 46.96875 
Q 48.6875 43.5625 50.046875 38.421875 
Q 51.421875 33.296875 51.421875 26.46875 
z
M 42.1875 26.46875 
Q 42.1875 32.625 41.234375 36.625 
Q 40.28125 40.625 38.453125 43.015625 
Q 36.625 45.40625 33.984375 46.359375 
Q 31.34375 47.3125 28.03125 47.3125 
Q 24.65625 47.3125 21.9375 46.3125 
Q 19.234375 45.3125 17.328125 42.890625 
Q 15.4375 40.484375 14.421875 36.46875 
Q 13.421875 32.46875 13.421875 26.46875 
Q 13.421875 20.3125 14.5 16.28125 
Q 15.578125 12.25 17.453125 9.859375 
Q 19.34375 7.46875 21.90625 6.484375 
Q 24.46875 5.515625 27.484375 5.515625 
Q 30.859375 5.515625 33.59375 6.46875 
Q 36.328125 7.421875 38.234375 9.8125 
Q 40.140625 12.203125 41.15625 16.25 
Q 42.1875 20.3125 42.1875 26.46875 
z
" id="LiberationSans-111"/>
      <path d="M 27.046875 0.390625 
Q 25.046875 -0.140625 22.96875 -0.453125 
Q 20.90625 -0.78125 18.171875 -0.78125 
Q 7.625 -0.78125 7.625 11.1875 
L 7.625 46.4375 
L 1.515625 46.4375 
L 1.515625 52.828125 
L 7.953125 52.828125 
L 10.546875 64.65625 
L 16.40625 64.65625 
L 16.40625 52.828125 
L 26.171875 52.828125 
L 26.171875 46.4375 
L 16.40625 46.4375 
L 16.40625 13.09375 
Q 16.40625 9.28125 17.640625 7.734375 
Q 18.890625 6.203125 21.96875 6.203125 
Q 23.25 6.203125 24.4375 6.390625 
Q 25.640625 6.59375 27.046875 6.890625 
z
" id="LiberationSans-116"/>
      <path d="M 6.734375 0 
L 6.734375 72.46875 
L 15.53125 72.46875 
L 15.53125 0 
z
" id="LiberationSans-108"/>
      <path d="M 17.625 46.4375 
L 17.625 0 
L 8.84375 0 
L 8.84375 46.4375 
L 1.421875 46.4375 
L 1.421875 52.828125 
L 8.84375 52.828125 
L 8.84375 58.796875 
Q 8.84375 61.671875 9.375 64.140625 
Q 9.90625 66.609375 11.34375 68.4375 
Q 12.796875 70.265625 15.28125 71.3125 
Q 17.78125 72.359375 21.734375 72.359375 
Q 23.296875 72.359375 24.96875 72.21875 
Q 26.65625 72.078125 27.9375 71.78125 
L 27.9375 65.09375 
Q 27.09375 65.234375 26 65.359375 
Q 24.90625 65.484375 24.03125 65.484375 
Q 22.078125 65.484375 20.828125 64.9375 
Q 19.578125 64.40625 18.875 63.40625 
Q 18.171875 62.40625 17.890625 60.9375 
Q 17.625 59.46875 17.625 57.5625 
L 17.625 52.828125 
L 27.9375 52.828125 
L 27.9375 46.4375 
z
" id="LiberationSans-102"/>
      <path d="M 29.9375 0 
L 19.53125 0 
L 0.34375 52.828125 
L 9.71875 52.828125 
L 21.34375 18.453125 
Q 21.6875 17.390625 22.140625 15.84375 
Q 22.609375 14.3125 23.09375 12.640625 
Q 23.578125 10.984375 24 9.4375 
Q 24.421875 7.90625 24.703125 6.890625 
Q 25 7.90625 25.453125 9.4375 
Q 25.921875 10.984375 26.40625 12.59375 
Q 26.90625 14.203125 27.421875 15.734375 
Q 27.9375 17.28125 28.328125 18.359375 
L 40.328125 52.828125 
L 49.65625 52.828125 
z
" id="LiberationSans-118"/>
      <path d="M 6.9375 0 
L 6.9375 40.53125 
Q 6.9375 42.1875 6.90625 43.921875 
Q 6.890625 45.65625 6.828125 47.265625 
Q 6.78125 48.875 6.734375 50.28125 
Q 6.6875 51.703125 6.640625 52.828125 
L 14.9375 52.828125 
Q 14.984375 51.703125 15.0625 50.265625 
Q 15.140625 48.828125 15.203125 47.3125 
Q 15.28125 45.796875 15.296875 44.40625 
Q 15.328125 43.015625 15.328125 42.046875 
L 15.53125 42.046875 
Q 16.453125 45.0625 17.5 47.28125 
Q 18.5625 49.515625 19.96875 50.953125 
Q 21.390625 52.390625 23.34375 53.09375 
Q 25.296875 53.8125 28.078125 53.8125 
Q 29.15625 53.8125 30.125 53.640625 
Q 31.109375 53.46875 31.640625 53.328125 
L 31.640625 45.265625 
Q 30.765625 45.515625 29.59375 45.625 
Q 28.421875 45.75 26.953125 45.75 
Q 23.921875 45.75 21.796875 44.375 
Q 19.671875 43.015625 18.328125 40.59375 
Q 17 38.1875 16.359375 34.84375 
Q 15.71875 31.5 15.71875 27.546875 
L 15.71875 0 
z
" id="LiberationSans-114"/>
      <path d="M 66.703125 0 
L 66.703125 45.90625 
Q 66.703125 48.390625 66.75 50.96875 
Q 66.796875 53.5625 66.890625 55.71875 
Q 67 58.203125 67.140625 60.546875 
Q 66.453125 58.0625 65.71875 55.609375 
Q 65.09375 53.515625 64.328125 51.140625 
Q 63.578125 48.78125 62.84375 46.875 
L 45.0625 0 
L 38.53125 0 
L 20.515625 46.875 
Q 20.21875 47.609375 19.890625 48.578125 
Q 19.578125 49.5625 19.203125 50.65625 
Q 18.84375 51.765625 18.46875 52.90625 
Q 18.109375 54.046875 17.78125 55.171875 
Q 16.9375 57.765625 16.15625 60.546875 
Q 16.21875 57.8125 16.3125 55.125 
Q 16.40625 52.828125 16.453125 50.3125 
Q 16.5 47.796875 16.5 45.90625 
L 16.5 0 
L 8.203125 0 
L 8.203125 68.796875 
L 20.453125 68.796875 
L 38.765625 21.09375 
Q 39.109375 20.125 39.59375 18.578125 
Q 40.09375 17.046875 40.53125 15.421875 
Q 40.96875 13.8125 41.328125 12.375 
Q 41.703125 10.9375 41.84375 10.15625 
Q 42 10.9375 42.390625 12.40625 
Q 42.78125 13.875 43.28125 15.484375 
Q 43.796875 17.09375 44.28125 18.609375 
Q 44.78125 20.125 45.171875 21.09375 
L 63.140625 68.796875 
L 75.09375 68.796875 
L 75.09375 0 
z
" id="LiberationSans-77"/>
      <path d="M 51.421875 26.65625 
Q 51.421875 20.65625 50.4375 15.578125 
Q 49.46875 10.5 47.1875 6.828125 
Q 44.921875 3.171875 41.1875 1.09375 
Q 37.453125 -0.984375 31.984375 -0.984375 
Q 26.3125 -0.984375 22.0625 1.171875 
Q 17.828125 3.328125 15.578125 8.203125 
L 15.328125 8.203125 
Q 15.375 8.109375 15.40625 7.328125 
Q 15.4375 6.546875 15.453125 5.375 
Q 15.484375 4.203125 15.5 2.75 
Q 15.53125 1.3125 15.53125 -0.09375 
L 15.53125 -20.75 
L 6.734375 -20.75 
L 6.734375 42.046875 
Q 6.734375 43.953125 6.703125 45.703125 
Q 6.6875 47.46875 6.640625 48.90625 
Q 6.59375 50.34375 6.546875 51.359375 
Q 6.5 52.390625 6.453125 52.828125 
L 14.9375 52.828125 
Q 14.984375 52.6875 15.0625 51.796875 
Q 15.140625 50.921875 15.203125 49.671875 
Q 15.28125 48.4375 15.359375 47.015625 
Q 15.4375 45.609375 15.4375 44.34375 
L 15.625 44.34375 
Q 16.84375 46.875 18.40625 48.65625 
Q 19.96875 50.4375 21.96875 51.578125 
Q 23.96875 52.734375 26.4375 53.25 
Q 28.90625 53.765625 31.984375 53.765625 
Q 37.453125 53.765625 41.1875 51.8125 
Q 44.921875 49.859375 47.1875 46.3125 
Q 49.46875 42.78125 50.4375 37.765625 
Q 51.421875 32.765625 51.421875 26.65625 
z
M 42.1875 26.46875 
Q 42.1875 31.34375 41.59375 35.15625 
Q 41.015625 38.96875 39.578125 41.59375 
Q 38.140625 44.234375 35.734375 45.59375 
Q 33.34375 46.96875 29.734375 46.96875 
Q 26.8125 46.96875 24.21875 46.140625 
Q 21.625 45.3125 19.703125 42.96875 
Q 17.78125 40.625 16.65625 36.5 
Q 15.53125 32.375 15.53125 25.78125 
Q 15.53125 20.171875 16.453125 16.28125 
Q 17.390625 12.40625 19.171875 10.015625 
Q 20.953125 7.625 23.578125 6.5625 
Q 26.21875 5.515625 29.640625 5.515625 
Q 33.296875 5.515625 35.71875 6.921875 
Q 38.140625 8.34375 39.578125 11.03125 
Q 41.015625 13.71875 41.59375 17.59375 
Q 42.1875 21.484375 42.1875 26.46875 
z
" id="LiberationSans-112"/>
      <path d="M 15.328125 52.828125 
L 15.328125 19.34375 
Q 15.328125 15.484375 15.890625 12.890625 
Q 16.453125 10.296875 17.71875 8.703125 
Q 19 7.125 21.0625 6.46875 
Q 23.140625 5.8125 26.21875 5.8125 
Q 29.34375 5.8125 31.859375 6.90625 
Q 34.375 8.015625 36.15625 10.078125 
Q 37.9375 12.15625 38.90625 15.203125 
Q 39.890625 18.265625 39.890625 22.21875 
L 39.890625 52.828125 
L 48.6875 52.828125 
L 48.6875 11.28125 
Q 48.6875 9.625 48.703125 7.78125 
Q 48.734375 5.953125 48.78125 4.3125 
Q 48.828125 2.6875 48.875 1.515625 
Q 48.921875 0.34375 48.96875 0 
L 40.671875 0 
Q 40.625 0.25 40.578125 1.3125 
Q 40.53125 2.390625 40.453125 3.78125 
Q 40.375 5.171875 40.328125 6.609375 
Q 40.28125 8.0625 40.28125 9.03125 
L 40.140625 9.03125 
Q 38.875 6.734375 37.359375 4.875 
Q 35.84375 3.03125 33.84375 1.734375 
Q 31.84375 0.4375 29.25 -0.265625 
Q 26.65625 -0.984375 23.25 -0.984375 
Q 18.84375 -0.984375 15.671875 0.09375 
Q 12.5 1.171875 10.453125 3.421875 
Q 8.40625 5.671875 7.453125 9.1875 
Q 6.5 12.703125 6.5 17.625 
L 6.5 52.828125 
z
" id="LiberationSans-117"/>
     </defs>
     <g style="fill:#262626;" transform="translate(18.76375 244.657932)rotate(-90)scale(0.11 -0.11)">
      <use xlink:href="#LiberationSans-84"/>
      <use x="49.958984" xlink:href="#LiberationSans-111"/>
      <use x="105.574219" xlink:href="#LiberationSans-116"/>
      <use x="133.357422" xlink:href="#LiberationSans-97"/>
      <use x="188.972656" xlink:href="#LiberationSans-108"/>
      <use x="211.189453" xlink:href="#LiberationSans-32"/>
      <use x="238.972656" xlink:href="#LiberationSans-105"/>
      <use x="261.189453" xlink:href="#LiberationSans-110"/>
      <use x="316.804688" xlink:href="#LiberationSans-102"/>
      <use x="344.587891" xlink:href="#LiberationSans-101"/>
      <use x="400.203125" xlink:href="#LiberationSans-99"/>
      <use x="450.203125" xlink:href="#LiberationSans-116"/>
      <use x="477.986328" xlink:href="#LiberationSans-105"/>
      <use x="500.203125" xlink:href="#LiberationSans-111"/>
      <use x="555.818359" xlink:href="#LiberationSans-110"/>
      <use x="611.433594" xlink:href="#LiberationSans-115"/>
      <use x="661.433594" xlink:href="#LiberationSans-32"/>
      <use x="689.216797" xlink:href="#LiberationSans-111"/>
      <use x="744.832031" xlink:href="#LiberationSans-118"/>
      <use x="794.832031" xlink:href="#LiberationSans-101"/>
      <use x="850.447266" xlink:href="#LiberationSans-114"/>
      <use x="883.748047" xlink:href="#LiberationSans-32"/>
      <use x="911.53125" xlink:href="#LiberationSans-49"/>
      <use x="967.146484" xlink:href="#LiberationSans-77"/>
      <use x="1050.447266" xlink:href="#LiberationSans-32"/>
      <use x="1078.230469" xlink:href="#LiberationSans-112"/>
      <use x="1133.845703" xlink:href="#LiberationSans-111"/>
      <use x="1189.460938" xlink:href="#LiberationSans-112"/>
      <use x="1245.076172" xlink:href="#LiberationSans-117"/>
      <use x="1300.691406" xlink:href="#LiberationSans-108"/>
      <use x="1322.908203" xlink:href="#LiberationSans-97"/>
      <use x="1378.523438" xlink:href="#LiberationSans-116"/>
      <use x="1406.306641" xlink:href="#LiberationSans-105"/>
      <use x="1428.523438" xlink:href="#LiberationSans-111"/>
      <use x="1484.138672" xlink:href="#LiberationSans-110"/>
     </g>
    </g>
   </g>
   <g id="line2d_14">
    <path clip-path="url(#pa6a6d18487)" d="M 84.058636 295.452455 
L 88.783817 295.41395 
L 93.508997 295.345645 
L 98.234177 295.24927 
L 102.959358 295.122061 
L 107.684538 294.966411 
L 112.409719 294.762688 
L 117.134899 294.478602 
L 121.860079 294.094381 
L 126.58526 293.507538 
L 131.31044 292.638134 
L 136.03562 291.615092 
L 140.760801 290.508134 
L 145.485981 289.221597 
L 150.211162 287.599151 
L 154.936342 285.685433 
L 159.661522 283.560046 
L 164.386703 281.148894 
L 169.111883 278.058622 
L 173.837063 273.94013 
L 178.562244 269.273539 
L 183.287424 264.928562 
L 188.012605 260.575462 
L 192.737785 255.430017 
L 197.462965 250.561889 
L 202.188146 246.569656 
L 206.913326 242.794572 
L 211.638506 238.872373 
L 216.363687 235.252387 
L 221.088867 232.167464 
L 225.814048 229.550276 
L 230.539228 227.36206 
L 235.264408 225.558218 
L 239.989589 223.937273 
L 244.714769 222.273957 
L 249.439949 220.473129 
L 254.16513 218.634373 
L 258.89031 216.833214 
L 263.615491 215.145533 
L 268.340671 213.76126 
L 273.065851 212.761527 
L 277.791032 211.939272 
L 282.516212 211.104154 
L 287.241392 210.30042 
L 291.966573 209.550087 
L 296.691753 208.890244 
L 301.416934 208.361504 
L 306.142114 207.932362 
L 310.867294 207.552254 
L 315.592475 207.172373 
L 320.317655 206.784767 
L 325.042835 206.374792 
L 329.768016 205.944547 
L 334.493196 205.507591 
L 339.218377 205.091429 
L 343.943557 204.702444 
L 348.668737 204.325237 
L 353.393918 203.983103 
L 358.119098 203.648271 
L 362.844278 203.320137 
L 367.569459 203.060434 
L 372.294639 202.857505 
L 377.01982 202.679168 
L 381.745 202.491118 
L 386.47018 202.253429 
L 391.195361 201.981543 
L 395.920541 201.722302 
L 400.645722 201.467549 
L 405.370902 201.241383 
L 410.096082 201.014103 
L 414.821263 200.72422 
L 419.546443 200.41389 
L 424.271623 200.087596 
L 428.996804 199.718808 
L 433.721984 199.337428 
L 438.447165 199.033276 
L 443.172345 198.792778 
L 447.897525 198.551581 
L 452.622706 198.305977 
L 457.347886 198.058874 
L 462.073066 197.81949 
L 466.798247 197.601 
L 471.523427 197.418566 
L 476.248608 197.254937 
L 480.973788 197.105588 
L 485.698968 196.998378 
" style="fill:none;stroke:#989173;stroke-linecap:round;stroke-width:1.75;"/>
   </g>
   <g id="line2d_15">
    <path clip-path="url(#pa6a6d18487)" d="M 84.058636 295.593787 
L 88.783817 295.592883 
L 93.508997 295.591259 
L 98.234177 295.587933 
L 102.959358 295.57999 
L 107.684538 295.568927 
L 112.409719 295.561395 
L 117.134899 295.554922 
L 121.860079 295.542012 
L 126.58526 295.520759 
L 131.31044 295.490043 
L 136.03562 295.446186 
L 140.760801 295.391605 
L 145.485981 295.317496 
L 150.211162 295.220753 
L 154.936342 295.12343 
L 159.661522 295.03575 
L 164.386703 294.94707 
L 169.111883 294.847186 
L 173.837063 294.738445 
L 178.562244 294.630162 
L 183.287424 294.522641 
L 188.012605 294.376129 
L 192.737785 294.151672 
L 197.462965 293.877092 
L 202.188146 293.592276 
L 206.913326 293.310216 
L 211.638506 293.037562 
L 216.363687 292.775657 
L 221.088867 292.461842 
L 225.814048 292.042114 
L 230.539228 291.560532 
L 235.264408 291.101347 
L 239.989589 290.711211 
L 244.714769 290.371802 
L 249.439949 290.032229 
L 254.16513 289.647488 
L 258.89031 289.149632 
L 263.615491 288.538193 
L 268.340671 287.874828 
L 273.065851 287.166944 
L 277.791032 286.486743 
L 282.516212 285.897741 
L 287.241392 285.340105 
L 291.966573 284.723419 
L 296.691753 283.962372 
L 301.416934 283.017683 
L 306.142114 281.940385 
L 310.867294 280.811991 
L 315.592475 279.703878 
L 320.317655 278.515372 
L 325.042835 277.115056 
L 329.768016 275.524715 
L 334.493196 273.921499 
L 339.218377 272.500024 
L 343.943557 271.208536 
L 348.668737 269.842975 
L 353.393918 268.226139 
L 358.119098 266.244524 
L 362.844278 263.89663 
L 367.569459 261.393385 
L 372.294639 258.909018 
L 377.01982 256.671698 
L 381.745 254.739199 
L 386.47018 252.808037 
L 391.195361 250.50481 
L 395.920541 247.647214 
L 400.645722 244.264753 
L 405.370902 240.664347 
L 410.096082 237.437135 
L 414.821263 234.514439 
L 419.546443 231.133181 
L 424.271623 227.021958 
L 428.996804 222.418199 
L 433.721984 217.622436 
L 438.447165 212.897862 
L 443.172345 208.569368 
L 447.897525 204.725246 
L 452.622706 201.076277 
L 457.347886 197.269936 
L 462.073066 194.336263 
" style="fill:none;stroke:#42537f;stroke-linecap:round;stroke-width:1.75;"/>
   </g>
   <g id="line2d_16">
    <path clip-path="url(#pa6a6d18487)" d="M 84.058636 295.576573 
L 88.783817 295.571734 
L 93.508997 295.56073 
L 98.234177 295.542446 
L 102.959358 295.514473 
L 107.684538 295.469546 
L 112.409719 295.411214 
L 117.134899 295.354033 
L 121.860079 295.291901 
L 126.58526 295.217009 
L 131.31044 295.115524 
L 136.03562 294.983999 
L 140.760801 294.844681 
L 145.485981 294.704853 
L 150.211162 294.568298 
L 154.936342 294.439552 
L 159.661522 294.31783 
L 164.386703 294.204514 
L 169.111883 294.099035 
L 173.837063 294.005195 
L 178.562244 293.909289 
L 183.287424 293.727137 
L 188.012605 293.426753 
L 192.737785 293.165917 
L 197.462965 293.021197 
L 202.188146 292.933602 
L 206.913326 292.862797 
L 211.638506 292.80893 
L 216.363687 292.776793 
L 221.088867 292.75487 
L 225.814048 292.729014 
L 230.539228 292.701024 
L 235.264408 292.683242 
L 239.989589 292.671079 
L 244.714769 292.656317 
L 249.439949 292.640215 
L 254.16513 292.624824 
L 258.89031 292.609832 
L 263.615491 292.593689 
L 268.340671 292.578177 
L 273.065851 292.56746 
L 277.791032 292.560973 
L 282.516212 292.555714 
L 287.241392 292.550422 
L 291.966573 292.545603 
L 296.691753 292.542097 
L 301.416934 292.539825 
L 306.142114 292.538272 
L 310.867294 292.537066 
L 315.592475 292.536087 
L 320.317655 292.535359 
L 325.042835 292.534636 
L 329.768016 292.533702 
L 334.493196 292.532654 
L 339.218377 292.531566 
L 343.943557 292.530326 
L 348.668737 292.52867 
L 353.393918 292.526399 
L 358.119098 292.52361 
L 362.844278 292.520464 
L 367.569459 292.517016 
L 372.294639 292.513729 
L 377.01982 292.510564 
L 381.745 292.507142 
L 386.47018 292.503189 
L 391.195361 292.498986 
L 395.920541 292.494836 
L 400.645722 292.490913 
L 405.370902 292.487488 
L 410.096082 292.484389 
L 414.821263 292.481415 
L 419.546443 292.478613 
L 424.271623 292.476163 
L 428.996804 292.474118 
L 433.721984 292.472059 
L 438.447165 292.469804 
L 443.172345 292.467305 
L 447.897525 292.464497 
L 452.622706 292.461725 
L 457.347886 292.459048 
L 462.073066 292.455971 
L 466.798247 292.452436 
L 471.523427 292.44902 
L 476.248608 292.44602 
L 480.973788 292.443066 
L 485.698968 292.438365 
L 490.424149 292.432138 
L 495.149329 292.42816 
L 499.874509 292.426717 
L 504.59969 292.425892 
L 509.32487 292.425022 
L 514.050051 292.42426 
L 518.775231 292.423646 
L 523.500411 292.423138 
L 528.225592 292.42277 
L 532.950772 292.422499 
L 537.675952 292.422146 
L 542.401133 292.42169 
L 547.126313 292.421299 
L 551.851494 292.421007 
L 556.576674 292.420829 
L 561.301854 292.420726 
L 566.027035 292.420619 
L 570.752215 292.42052 
L 575.477395 292.420432 
L 580.202576 292.420328 
L 584.927756 292.420189 
L 589.652937 292.419954 
L 594.378117 292.419537 
L 599.103297 292.419079 
L 603.828478 292.418774 
L 608.553658 292.41855 
L 613.278838 292.418324 
L 618.004019 292.418083 
L 622.729199 292.41781 
L 627.45438 292.417516 
L 632.17956 292.417208 
L 636.90474 292.416967 
L 641.629921 292.41686 
L 646.355101 292.416803 
L 651.080281 292.416628 
L 655.805462 292.416305 
L 660.530642 292.41598 
L 665.255823 292.415683 
L 669.981003 292.415452 
L 674.706183 292.415322 
L 679.431364 292.415258 
" style="fill:none;stroke:#ae54a5;stroke-dasharray:6.475,2.8;stroke-dashoffset:0;stroke-width:1.75;"/>
   </g>
   <g id="line2d_17">
    <path clip-path="url(#pa6a6d18487)" d="M 84.058636 295.56079 
L 88.783817 295.545699 
L 93.508997 295.519585 
L 98.234177 295.487842 
L 102.959358 295.453766 
L 107.684538 295.414684 
L 112.409719 295.351089 
L 117.134899 295.236272 
L 121.860079 295.058081 
L 126.58526 294.861575 
L 131.31044 294.689611 
L 136.03562 294.479463 
L 140.760801 294.166083 
L 145.485981 293.824673 
L 150.211162 293.393947 
L 154.936342 292.753256 
L 159.661522 292.11189 
L 164.386703 291.408744 
L 169.111883 290.396653 
L 173.837063 289.274966 
L 178.562244 288.078416 
L 183.287424 286.722907 
L 188.012605 285.293491 
L 192.737785 283.780401 
L 197.462965 281.907738 
L 202.188146 279.592408 
L 206.913326 277.172746 
L 211.638506 274.587934 
L 216.363687 271.637843 
L 221.088867 268.431323 
L 225.814048 265.244058 
L 230.539228 262.075239 
L 235.264408 258.184176 
L 239.989589 253.630973 
L 244.714769 249.666619 
L 249.439949 246.421991 
L 254.16513 243.111537 
L 258.89031 240.018762 
L 263.615491 237.371199 
L 268.340671 234.587898 
L 273.065851 231.519905 
L 277.791032 228.288163 
L 282.516212 224.865472 
L 287.241392 220.629055 
L 291.966573 213.128196 
L 296.691753 202.694791 
L 301.416934 194.94024 
L 306.142114 190.248216 
L 310.867294 185.4458 
L 315.592475 180.140555 
L 320.317655 176.664412 
L 325.042835 174.635276 
L 329.768016 172.332877 
L 334.493196 170.135488 
L 339.218377 168.879151 
L 343.943557 168.387566 
L 348.668737 167.536793 
L 353.393918 166.265243 
L 358.119098 165.015546 
L 362.844278 163.559736 
L 367.569459 161.661162 
L 372.294639 160.358104 
L 377.01982 160.244942 
L 381.745 160.288149 
L 386.47018 159.978705 
L 391.195361 159.448998 
L 395.920541 158.887777 
L 400.645722 158.169512 
L 405.370902 156.935062 
L 410.096082 155.353221 
L 414.821263 154.108536 
L 419.546443 153.270987 
L 424.271623 152.705684 
L 428.996804 152.309343 
L 433.721984 151.91934 
L 438.447165 151.550662 
L 443.172345 151.239644 
L 447.897525 150.849117 
L 452.622706 150.485488 
L 457.347886 150.294923 
L 462.073066 150.132562 
L 466.798247 149.795262 
L 471.523427 149.275177 
L 476.248608 148.77122 
L 480.973788 148.406467 
L 485.698968 148.122128 
L 490.424149 147.90192 
L 495.149329 147.7508 
L 499.874509 147.650755 
L 504.59969 147.613038 
L 509.32487 147.586328 
" style="fill:none;stroke:#0309a6;stroke-linecap:round;stroke-width:1.75;"/>
   </g>
   <g id="line2d_18">
    <path clip-path="url(#pa6a6d18487)" d="M 84.058636 295.577867 
L 88.783817 295.572238 
L 93.508997 295.562342 
L 98.234177 295.544721 
L 102.959358 295.521161 
L 107.684538 295.496506 
L 112.409719 295.462865 
L 117.134899 295.399156 
L 121.860079 295.298667 
L 126.58526 295.187198 
L 131.31044 295.076195 
L 136.03562 294.957311 
L 140.760801 294.822596 
L 145.485981 294.643492 
L 150.211162 294.398973 
L 154.936342 293.999399 
L 159.661522 293.371432 
L 164.386703 292.651289 
L 169.111883 291.851656 
L 173.837063 290.84421 
L 178.562244 289.492894 
L 183.287424 287.746889 
L 188.012605 285.675222 
L 192.737785 283.506558 
L 197.462965 281.5511 
L 202.188146 279.574238 
L 206.913326 277.257057 
L 211.638506 274.62658 
L 216.363687 271.522087 
L 221.088867 267.748918 
L 225.814048 263.633063 
L 230.539228 259.773463 
L 235.264408 256.455582 
L 239.989589 253.350517 
L 244.714769 250.033733 
L 249.439949 246.295393 
L 254.16513 242.298118 
L 258.89031 238.522022 
L 263.615491 235.31972 
L 268.340671 232.659096 
L 273.065851 230.180526 
L 277.791032 227.417703 
L 282.516212 224.335787 
L 287.241392 221.382543 
L 291.966573 218.906009 
L 296.691753 216.898032 
L 301.416934 215.197932 
L 306.142114 213.765726 
L 310.867294 212.367094 
L 315.592475 210.652631 
L 320.317655 208.708375 
L 325.042835 206.844933 
L 329.768016 205.333169 
L 334.493196 204.103436 
L 339.218377 202.998352 
L 343.943557 201.885386 
L 348.668737 200.589909 
L 353.393918 199.218981 
L 358.119098 198.009914 
L 362.844278 197.024096 
L 367.569459 196.211636 
L 372.294639 195.478891 
L 377.01982 194.689558 
L 381.745 193.804001 
L 386.47018 192.948836 
L 391.195361 192.236445 
L 395.920541 191.669644 
L 400.645722 191.21115 
L 405.370902 190.775352 
L 410.096082 190.236979 
L 414.821263 189.562551 
L 419.546443 188.833692 
L 424.271623 188.174181 
L 428.996804 187.655891 
L 433.721984 187.23182 
L 438.447165 186.820062 
L 443.172345 186.386593 
L 447.897525 185.952221 
L 452.622706 185.558456 
L 457.347886 185.176581 
L 462.073066 184.811538 
L 466.798247 184.478867 
L 471.523427 184.106784 
L 476.248608 183.621337 
L 480.973788 183.143606 
L 485.698968 182.742 
L 490.424149 182.403498 
L 495.149329 182.145174 
L 499.874509 181.929216 
L 504.59969 181.694766 
L 509.32487 181.441457 
L 514.050051 181.270949 
" style="fill:none;stroke:#d8b009;stroke-linecap:round;stroke-width:1.75;"/>
   </g>
   <g id="line2d_19">
    <path clip-path="url(#pa6a6d18487)" d="M 84.058636 295.563387 
L 88.783817 295.527688 
L 93.508997 295.466206 
L 98.234177 295.392368 
L 102.959358 295.301902 
L 107.684538 295.178438 
L 112.409719 295.013382 
L 117.134899 294.804784 
L 121.860079 294.525081 
L 126.58526 294.169791 
L 131.31044 293.79065 
L 136.03562 293.366129 
L 140.760801 292.842102 
L 145.485981 292.199416 
L 150.211162 291.397684 
L 154.936342 290.359122 
L 159.661522 289.104568 
L 164.386703 287.779 
L 169.111883 286.363592 
L 173.837063 284.571477 
L 178.562244 282.394696 
L 183.287424 279.919928 
L 188.012605 277.112055 
L 192.737785 274.133813 
L 197.462965 271.117557 
L 202.188146 267.868155 
L 206.913326 264.068483 
L 211.638506 259.562709 
L 216.363687 254.487673 
L 221.088867 249.263824 
L 225.814048 244.371296 
L 230.539228 239.828276 
L 235.264408 235.295161 
L 239.989589 230.523114 
L 244.714769 225.457719 
L 249.439949 220.311769 
L 254.16513 215.372882 
L 258.89031 210.936253 
L 263.615491 207.028074 
L 268.340671 203.252178 
L 273.065851 199.3073 
L 277.791032 195.261981 
L 282.516212 191.214835 
L 287.241392 187.250114 
L 291.966573 183.587474 
L 296.691753 180.346098 
L 301.416934 177.288157 
L 306.142114 174.038456 
L 310.867294 170.542928 
L 315.592475 166.897911 
L 320.317655 163.199498 
L 325.042835 159.771469 
L 329.768016 156.81071 
L 334.493196 154.14895 
L 339.218377 151.45572 
L 343.943557 148.513846 
L 348.668737 145.477415 
L 353.393918 142.580854 
L 358.119098 139.990508 
L 362.844278 137.642564 
L 367.569459 135.215488 
L 372.294639 132.642449 
L 377.01982 130.119129 
L 381.745 127.729902 
L 386.47018 125.556952 
L 391.195361 123.627234 
L 395.920541 121.864442 
L 400.645722 120.117465 
L 405.370902 118.366793 
L 410.096082 116.662684 
L 414.821263 115.008692 
L 419.546443 113.483821 
L 424.271623 112.187475 
L 428.996804 111.073484 
L 433.721984 109.994463 
L 438.447165 108.841404 
L 443.172345 107.661258 
L 447.897525 106.563889 
L 452.622706 105.626957 
L 457.347886 104.82592 
L 462.073066 104.001146 
L 466.798247 103.078349 
L 471.523427 102.186632 
L 476.248608 101.375942 
L 480.973788 100.627601 
L 485.698968 99.940471 
L 490.424149 99.344659 
L 495.149329 98.796306 
L 499.874509 98.210712 
L 504.59969 97.615876 
L 509.32487 97.041738 
L 514.050051 96.478346 
L 518.775231 95.948094 
L 523.500411 95.505302 
L 528.225592 95.144095 
L 532.950772 94.794573 
L 537.675952 94.520821 
" style="fill:none;stroke:#1007e1;stroke-linecap:round;stroke-width:1.75;"/>
   </g>
   <g id="line2d_20">
    <path clip-path="url(#pa6a6d18487)" d="M 84.058636 295.502825 
L 88.783817 295.448467 
L 93.508997 295.34119 
L 98.234177 295.194451 
L 102.959358 295.015274 
L 107.684538 294.818461 
L 112.409719 294.620268 
L 117.134899 294.400367 
L 121.860079 294.148753 
L 126.58526 293.800964 
L 131.31044 293.269846 
L 136.03562 292.681956 
L 140.760801 292.051634 
L 145.485981 291.28226 
L 150.211162 290.366887 
L 154.936342 289.292572 
L 159.661522 287.993397 
L 164.386703 286.423956 
L 169.111883 284.674685 
L 173.837063 282.879856 
L 178.562244 280.941321 
L 183.287424 278.648962 
L 188.012605 275.965982 
L 192.737785 272.895573 
L 197.462965 269.528179 
L 202.188146 266.113236 
L 206.913326 262.917159 
L 211.638506 260.031037 
L 216.363687 257.222772 
L 221.088867 254.228745 
L 225.814048 251.096978 
L 230.539228 248.005668 
L 235.264408 244.907721 
L 239.989589 241.739102 
L 244.714769 238.767038 
L 249.439949 235.977014 
L 254.16513 232.93321 
L 258.89031 229.401586 
L 263.615491 225.554786 
L 268.340671 221.745717 
L 273.065851 218.278022 
L 277.791032 215.259263 
L 282.516212 212.573257 
L 287.241392 209.885557 
L 291.966573 206.808109 
L 296.691753 203.390612 
L 301.416934 200.012227 
L 306.142114 196.995442 
L 310.867294 194.447941 
L 315.592475 192.156897 
L 320.317655 189.839763 
L 325.042835 187.415427 
L 329.768016 185.07921 
L 334.493196 183.001814 
L 339.218377 181.266564 
L 343.943557 179.994087 
L 348.668737 179.007992 
L 353.393918 177.885707 
L 358.119098 176.527671 
L 362.844278 175.132105 
L 367.569459 173.879207 
L 372.294639 172.867024 
L 377.01982 172.028532 
L 381.745 171.19274 
L 386.47018 170.257095 
L 391.195361 169.203212 
L 395.920541 168.192832 
L 400.645722 167.327805 
L 405.370902 166.611888 
L 410.096082 166.004559 
L 414.821263 165.395356 
L 419.546443 164.71781 
L 424.271623 164.014934 
L 428.996804 163.376996 
L 433.721984 162.839169 
L 438.447165 162.387243 
L 443.172345 161.972377 
L 447.897525 161.52491 
L 452.622706 160.965006 
L 457.347886 160.328505 
L 462.073066 159.724263 
L 466.798247 159.168986 
L 471.523427 158.621681 
L 476.248608 158.084463 
L 480.973788 157.604969 
L 485.698968 157.275741 
" style="fill:none;stroke:#a67d4c;stroke-linecap:round;stroke-width:1.75;"/>
   </g>
   <g id="line2d_21">
    <path clip-path="url(#pa6a6d18487)" d="M 84.058636 295.478201 
L 88.783817 295.45708 
L 93.508997 295.426252 
L 98.234177 295.377444 
L 102.959358 295.310771 
L 107.684538 295.202132 
L 112.409719 294.99482 
L 117.134899 294.691479 
L 121.860079 294.311529 
L 126.58526 293.871628 
L 131.31044 293.404706 
L 136.03562 292.745084 
L 140.760801 291.650889 
L 145.485981 290.328347 
L 150.211162 288.880804 
L 154.936342 287.162917 
L 159.661522 285.185723 
L 164.386703 282.949569 
L 169.111883 280.244323 
L 173.837063 277.077378 
L 178.562244 273.385934 
L 183.287424 269.348349 
L 188.012605 265.539423 
L 192.737785 261.854059 
L 197.462965 257.706852 
L 202.188146 253.408175 
L 206.913326 249.25827 
L 211.638506 245.287901 
L 216.363687 241.614948 
L 221.088867 238.254573 
L 225.814048 235.1035 
L 230.539228 231.736882 
L 235.264408 227.840428 
L 239.989589 223.063845 
L 244.714769 217.932027 
L 249.439949 213.907516 
L 254.16513 211.018011 
L 258.89031 208.553244 
L 263.615491 205.882238 
L 268.340671 202.824525 
L 273.065851 199.923366 
L 277.791032 197.45212 
L 282.516212 194.809983 
L 287.241392 191.88396 
L 291.966573 188.891457 
L 296.691753 186.001851 
L 301.416934 183.338609 
L 306.142114 180.948501 
L 310.867294 178.529589 
L 315.592475 176.008862 
L 320.317655 173.886281 
L 325.042835 172.363989 
L 329.768016 171.031273 
L 334.493196 169.484546 
L 339.218377 167.730958 
L 343.943557 166.546966 
L 348.668737 166.157527 
L 353.393918 165.711459 
L 358.119098 164.773905 
L 362.844278 163.332678 
L 367.569459 161.244658 
L 372.294639 158.777191 
L 377.01982 156.626906 
L 381.745 155.251071 
L 386.47018 154.365431 
L 391.195361 153.541842 
L 395.920541 152.560609 
L 400.645722 151.481373 
L 405.370902 150.365072 
L 410.096082 149.179475 
L 414.821263 147.997908 
L 419.546443 146.895449 
L 424.271623 145.847138 
L 428.996804 144.749747 
L 433.721984 143.555599 
L 438.447165 142.25632 
L 443.172345 140.904875 
L 447.897525 139.679441 
L 452.622706 138.675484 
L 457.347886 137.717824 
L 462.073066 136.67038 
L 466.798247 135.850865 
" style="fill:none;stroke:#ea71b3;stroke-linecap:round;stroke-width:1.75;"/>
   </g>
   <g id="line2d_22">
    <path clip-path="url(#pa6a6d18487)" d="M 84.058636 295.591887 
L 88.783817 295.590842 
L 93.508997 295.587908 
L 98.234177 295.583389 
L 102.959358 295.578789 
L 107.684538 295.573735 
L 112.409719 295.566327 
L 117.134899 295.556368 
L 121.860079 295.543226 
L 126.58526 295.526393 
L 131.31044 295.507344 
L 136.03562 295.486996 
L 140.760801 295.464731 
L 145.485981 295.43945 
L 150.211162 295.405453 
L 154.936342 295.355124 
L 159.661522 295.29106 
L 164.386703 295.217545 
L 169.111883 295.132987 
L 173.837063 295.032592 
L 178.562244 294.906405 
L 183.287424 294.746847 
L 188.012605 294.55222 
L 192.737785 294.326219 
L 197.462965 294.09633 
L 202.188146 293.864925 
L 206.913326 293.597006 
L 211.638506 293.2617 
L 216.363687 292.862026 
L 221.088867 292.404613 
L 225.814048 291.872559 
L 230.539228 291.267102 
L 235.264408 290.591266 
L 239.989589 289.805918 
L 244.714769 288.891726 
L 249.439949 287.847393 
L 254.16513 286.668329 
L 258.89031 285.351128 
L 263.615491 283.841138 
L 268.340671 282.09165 
L 273.065851 280.213505 
L 277.791032 278.355832 
L 282.516212 276.473387 
L 287.241392 274.581386 
L 291.966573 272.670494 
L 296.691753 270.632526 
L 301.416934 268.460968 
L 306.142114 266.212597 
L 310.867294 263.939525 
L 315.592475 261.66593 
L 320.317655 259.329091 
L 325.042835 256.748121 
L 329.768016 253.778445 
L 334.493196 250.379926 
L 339.218377 246.681438 
L 343.943557 242.899274 
L 348.668737 239.116029 
L 353.393918 235.259163 
L 358.119098 231.318303 
L 362.844278 227.372089 
L 367.569459 223.413139 
L 372.294639 219.384557 
L 377.01982 215.327705 
L 381.745 211.396599 
L 386.47018 207.639978 
L 391.195361 203.953308 
L 395.920541 200.31335 
L 400.645722 196.793696 
L 405.370902 193.374028 
L 410.096082 190.029509 
L 414.821263 186.739289 
L 419.546443 183.497168 
L 424.271623 180.267993 
L 428.996804 177.002475 
L 433.721984 173.720538 
L 438.447165 170.482575 
L 443.172345 167.284908 
L 447.897525 164.304361 
L 452.622706 162.301679 
" style="fill:none;stroke:#5feb16;stroke-linecap:round;stroke-width:1.75;"/>
   </g>
   <g id="line2d_23">
    <path clip-path="url(#pa6a6d18487)" d="M 84.058636 295.555663 
L 88.783817 295.537991 
L 93.508997 295.504593 
L 98.234177 295.461623 
L 102.959358 295.411308 
L 107.684538 295.352627 
L 112.409719 295.273149 
L 117.134899 295.157654 
L 121.860079 294.999153 
L 126.58526 294.739044 
L 131.31044 294.305666 
L 136.03562 293.739959 
L 140.760801 293.106293 
L 145.485981 292.038581 
L 150.211162 290.282726 
L 154.936342 288.454266 
L 159.661522 286.64445 
L 164.386703 284.594836 
L 169.111883 282.288644 
L 173.837063 279.445787 
L 178.562244 275.97328 
L 183.287424 272.08726 
L 188.012605 267.652762 
L 192.737785 262.597778 
L 197.462965 256.65189 
L 202.188146 249.476284 
L 206.913326 240.788141 
L 211.638506 231.591402 
L 216.363687 222.77059 
L 221.088867 214.396969 
L 225.814048 206.176533 
L 230.539228 197.679859 
L 235.264408 188.86645 
L 239.989589 179.980849 
L 244.714769 171.367997 
L 249.439949 163.304113 
L 254.16513 155.972632 
L 258.89031 149.498583 
L 263.615491 143.520321 
L 268.340671 137.452134 
L 273.065851 131.247755 
L 277.791032 125.334915 
L 282.516212 119.821519 
L 287.241392 114.789681 
L 291.966573 110.442659 
L 296.691753 106.65858 
L 301.416934 102.603259 
L 306.142114 97.143207 
L 310.867294 90.694835 
L 315.592475 85.134178 
L 320.317655 80.710357 
L 325.042835 76.326691 
L 329.768016 72.351198 
L 334.493196 68.393529 
L 339.218377 64.672412 
L 343.943557 63.752528 
L 348.668737 65.786406 
L 353.393918 66.311483 
L 358.119098 64.757473 
L 362.844278 62.870541 
L 367.569459 61.064254 
L 372.294639 59.389394 
L 377.01982 57.929466 
L 381.745 56.441285 
L 386.47018 55.03722 
L 391.195361 53.937033 
L 395.920541 52.946519 
L 400.645722 51.812876 
L 405.370902 50.589087 
L 410.096082 49.314661 
L 414.821263 48.065433 
L 419.546443 46.897884 
L 424.271623 45.401914 
L 428.996804 43.571266 
L 433.721984 42.195434 
L 438.447165 41.283743 
L 443.172345 40.474327 
L 447.897525 39.774565 
L 452.622706 39.262134 
L 457.347886 38.807931 
L 462.073066 38.221289 
L 466.798247 37.606042 
L 471.523427 36.966439 
L 476.248608 36.071897 
L 480.973788 34.963648 
L 485.698968 34.133075 
L 490.424149 33.732707 
L 495.149329 33.500092 
L 499.874509 33.187791 
L 504.59969 32.980759 
" style="fill:none;stroke:#907eba;stroke-linecap:round;stroke-width:1.75;"/>
   </g>
   <g id="line2d_24">
    <path clip-path="url(#pa6a6d18487)" d="M 84.058636 295.552564 
L 88.783817 295.519857 
L 93.508997 295.448853 
L 98.234177 295.31946 
L 102.959358 295.108978 
L 107.684538 294.847586 
L 112.409719 294.594184 
L 117.134899 294.302368 
L 121.860079 293.825713 
L 126.58526 293.024652 
L 131.31044 291.943864 
L 136.03562 290.784215 
L 140.760801 289.616138 
L 145.485981 288.340643 
L 150.211162 286.886636 
L 154.936342 285.351043 
L 159.661522 283.725089 
L 164.386703 281.941575 
L 169.111883 280.01633 
L 173.837063 277.982641 
L 178.562244 275.792812 
L 183.287424 273.368015 
L 188.012605 270.751475 
L 192.737785 267.968042 
L 197.462965 264.957969 
L 202.188146 261.818772 
L 206.913326 258.794245 
L 211.638506 255.984893 
L 216.363687 253.252676 
L 221.088867 250.429597 
L 225.814048 247.530279 
L 230.539228 244.73854 
L 235.264408 242.091385 
L 239.989589 239.394815 
L 244.714769 236.571808 
L 249.439949 233.889414 
L 254.16513 231.583195 
L 258.89031 229.518368 
L 263.615491 227.559797 
L 268.340671 225.757452 
L 273.065851 224.151323 
L 277.791032 222.632937 
L 282.516212 221.027897 
L 287.241392 219.316346 
L 291.966573 217.669202 
L 296.691753 216.206628 
L 301.416934 214.924391 
L 306.142114 213.771259 
L 310.867294 212.64205 
L 315.592475 211.420694 
L 320.317655 210.107666 
L 325.042835 208.823438 
L 329.768016 207.649381 
L 334.493196 206.59621 
L 339.218377 205.643556 
L 343.943557 204.722968 
L 348.668737 203.727962 
L 353.393918 202.670509 
L 358.119098 201.597533 
L 362.844278 200.531391 
L 367.569459 199.525222 
L 372.294639 198.632506 
L 377.01982 197.858592 
L 381.745 197.16991 
L 386.47018 196.52499 
L 391.195361 195.889521 
L 395.920541 195.225534 
L 400.645722 194.515459 
L 405.370902 193.80603 
L 410.096082 193.141533 
L 414.821263 192.537828 
L 419.546443 192.121877 
" style="fill:none;stroke:#221cdf;stroke-linecap:round;stroke-width:1.75;"/>
   </g>
   <g id="line2d_25">
    <path clip-path="url(#pa6a6d18487)" d="M 84.058636 295.591123 
L 88.783817 295.590884 
L 93.508997 295.590438 
L 98.234177 295.58999 
L 102.959358 295.589391 
L 107.684538 295.588333 
L 112.409719 295.586493 
L 117.134899 295.583559 
L 121.860079 295.579444 
L 126.58526 295.573241 
L 131.31044 295.564246 
L 136.03562 295.551836 
L 140.760801 295.535273 
L 145.485981 295.515954 
L 150.211162 295.488234 
L 154.936342 295.444308 
L 159.661522 295.388767 
L 164.386703 295.323216 
L 169.111883 295.243355 
L 173.837063 295.142457 
L 178.562244 295.004718 
L 183.287424 294.811397 
L 188.012605 294.538849 
L 192.737785 294.089568 
L 197.462965 293.364575 
L 202.188146 292.446856 
L 206.913326 291.377994 
L 211.638506 290.082439 
L 216.363687 288.541717 
L 221.088867 286.784572 
L 225.814048 284.664707 
L 230.539228 282.067238 
L 235.264408 279.14834 
L 239.989589 276.067195 
L 244.714769 272.836294 
L 249.439949 269.298235 
L 254.16513 265.355698 
L 258.89031 261.041619 
L 263.615491 256.327007 
L 268.340671 251.322583 
L 273.065851 246.325266 
L 277.791032 241.526271 
L 282.516212 236.755507 
L 287.241392 231.826348 
L 291.966573 226.680037 
L 296.691753 221.369182 
L 301.416934 216.156632 
L 306.142114 211.271455 
L 310.867294 206.731133 
L 315.592475 202.397152 
L 320.317655 197.99551 
L 325.042835 193.334024 
L 329.768016 188.407105 
L 334.493196 183.360664 
L 339.218377 178.480887 
L 343.943557 173.979591 
L 348.668737 169.678398 
L 353.393918 165.303811 
L 358.119098 160.728422 
L 362.844278 155.816832 
L 367.569459 150.588487 
L 372.294639 145.531497 
L 377.01982 141.055806 
L 381.745 137.034876 
L 386.47018 133.000998 
L 391.195361 128.630813 
L 395.920541 123.863293 
L 400.645722 118.920417 
L 405.370902 114.263282 
L 410.096082 110.094528 
L 414.821263 106.232525 
L 419.546443 102.360933 
L 424.271623 98.2941 
L 428.996804 94.048768 
L 433.721984 89.84045 
L 438.447165 85.957382 
L 443.172345 82.524774 
L 447.897525 79.290884 
L 452.622706 75.932306 
L 457.347886 72.279908 
L 462.073066 68.310747 
L 466.798247 64.298678 
L 471.523427 60.538738 
L 476.248608 57.091661 
L 480.973788 53.736949 
L 485.698968 50.282284 
L 490.424149 46.602448 
L 495.149329 42.763595 
L 499.874509 39.009893 
L 504.59969 35.484729 
L 509.32487 32.185493 
L 514.050051 29.0806 
L 518.775231 26.260579 
L 523.500411 24.361609 
" style="fill:none;stroke:#7516fd;stroke-dasharray:6.475,2.8;stroke-dashoffset:0;stroke-width:1.75;"/>
   </g>
   <g id="line2d_26">
    <path clip-path="url(#pa6a6d18487)" d="M 84.058636 295.582207 
L 88.783817 295.578769 
L 93.508997 295.572806 
L 98.234177 295.565297 
L 102.959358 295.552476 
L 107.684538 295.531382 
L 112.409719 295.503759 
L 117.134899 295.470421 
L 121.860079 295.43157 
L 126.58526 295.388396 
L 131.31044 295.343781 
L 136.03562 295.296912 
L 140.760801 295.243801 
L 145.485981 295.147338 
L 150.211162 294.97057 
L 154.936342 294.779703 
L 159.661522 294.603556 
L 164.386703 294.35426 
L 169.111883 294.011466 
L 173.837063 293.631238 
L 178.562244 293.167464 
L 183.287424 292.486188 
L 188.012605 291.730968 
L 192.737785 291.0127 
L 197.462965 290.186354 
L 202.188146 289.137267 
L 206.913326 287.815574 
L 211.638506 286.120671 
L 216.363687 284.125839 
L 221.088867 282.080283 
L 225.814048 280.041857 
L 230.539228 277.846619 
L 235.264408 275.252808 
L 239.989589 272.167938 
L 244.714769 268.818328 
L 249.439949 265.413096 
L 254.16513 261.87291 
L 258.89031 258.185768 
L 263.615491 254.736081 
L 268.340671 251.333558 
L 273.065851 247.50877 
L 277.791032 243.024213 
L 282.516212 237.97853 
L 287.241392 233.260593 
L 291.966573 229.146633 
L 296.691753 225.308685 
L 301.416934 221.494804 
L 306.142114 217.703389 
L 310.867294 213.810151 
L 315.592475 209.641669 
L 320.317655 205.308344 
L 325.042835 201.088944 
L 329.768016 197.239654 
L 334.493196 193.677494 
L 339.218377 190.12828 
L 343.943557 186.398301 
L 348.668737 182.499174 
L 353.393918 178.684912 
L 358.119098 175.111236 
L 362.844278 171.738797 
L 367.569459 168.413951 
L 372.294639 164.756914 
L 377.01982 160.51737 
L 381.745 156.139042 
L 386.47018 152.183578 
L 391.195361 148.668213 
L 395.920541 145.260317 
L 400.645722 141.513961 
L 405.370902 137.309871 
L 410.096082 133.13666 
L 414.821263 129.428144 
L 419.546443 126.151846 
L 424.271623 123.080715 
L 428.996804 120.148442 
L 433.721984 117.39546 
L 438.447165 114.741287 
L 443.172345 112.056343 
L 447.897525 109.325906 
L 452.622706 106.62131 
L 457.347886 104.084865 
L 462.073066 101.961603 
L 466.798247 100.502867 
L 471.523427 99.430099 
L 476.248608 97.837341 
L 480.973788 95.654482 
L 485.698968 93.455998 
L 490.424149 91.506563 
L 495.149329 89.550984 
L 499.874509 87.489033 
L 504.59969 86.112774 
" style="fill:none;stroke:#89f9c9;stroke-linecap:round;stroke-width:1.75;"/>
   </g>
   <g id="patch_3">
    <path d="M 54.29 309.155396 
L 54.29 10.8 
" style="fill:none;"/>
   </g>
   <g id="patch_4">
    <path d="M 709.2 309.155396 
L 709.2 10.8 
" style="fill:none;"/>
   </g>
   <g id="patch_5">
    <path d="M 54.29 309.155396 
L 709.2 309.155396 
" style="fill:none;"/>
   </g>
   <g id="patch_6">
    <path d="M 54.29 10.8 
L 709.2 10.8 
" style="fill:none;"/>
   </g>
   <g id="legend_1">
    <g id="line2d_27">
     <path d="M 601.051563 23.546875 
L 621.051563 23.546875 
" style="fill:none;stroke:#989173;stroke-linecap:round;stroke-width:1.75;"/>
    </g>
    <g id="line2d_28"/>
    <g id="text_16">
     <!-- Austria -->
     <defs>
      <path d="M 56.984375 0 
L 49.125 20.125 
L 17.78125 20.125 
L 9.859375 0 
L 0.203125 0 
L 28.265625 68.796875 
L 38.875 68.796875 
L 66.5 0 
z
M 37.5 50.09375 
Q 36.71875 52.046875 36 54.046875 
Q 35.296875 56.0625 34.765625 57.6875 
Q 34.234375 59.328125 33.859375 60.421875 
Q 33.5 61.53125 33.453125 61.765625 
Q 33.34375 61.53125 33 60.40625 
Q 32.671875 59.28125 32.109375 57.609375 
Q 31.546875 55.953125 30.828125 53.953125 
Q 30.125 51.953125 29.390625 50 
L 20.609375 27.390625 
L 46.34375 27.390625 
z
" id="LiberationSans-65"/>
     </defs>
     <g style="fill:#262626;" transform="translate(629.051563 27.046875)scale(0.1 -0.1)">
      <use xlink:href="#LiberationSans-65"/>
      <use x="66.699219" xlink:href="#LiberationSans-117"/>
      <use x="122.314453" xlink:href="#LiberationSans-115"/>
      <use x="172.314453" xlink:href="#LiberationSans-116"/>
      <use x="200.097656" xlink:href="#LiberationSans-114"/>
      <use x="233.398438" xlink:href="#LiberationSans-105"/>
      <use x="255.615234" xlink:href="#LiberationSans-97"/>
     </g>
    </g>
    <g id="line2d_29">
     <path d="M 601.051563 37.86875 
L 621.051563 37.86875 
" style="fill:none;stroke:#42537f;stroke-linecap:round;stroke-width:1.75;"/>
    </g>
    <g id="line2d_30"/>
    <g id="text_17">
     <!-- Brazil -->
     <defs>
      <path d="M 61.421875 19.390625 
Q 61.421875 14.15625 59.375 10.46875 
Q 57.328125 6.78125 53.859375 4.46875 
Q 50.390625 2.15625 45.796875 1.078125 
Q 41.21875 0 36.140625 0 
L 8.203125 0 
L 8.203125 68.796875 
L 33.203125 68.796875 
Q 38.921875 68.796875 43.40625 67.84375 
Q 47.90625 66.890625 51.03125 64.84375 
Q 54.15625 62.796875 55.78125 59.640625 
Q 57.421875 56.5 57.421875 52.09375 
Q 57.421875 49.21875 56.609375 46.671875 
Q 55.8125 44.140625 54.171875 42.0625 
Q 52.546875 39.984375 50.078125 38.5 
Q 47.609375 37.015625 44.34375 36.28125 
Q 48.484375 35.796875 51.6875 34.375 
Q 54.890625 32.953125 57.03125 30.75 
Q 59.1875 28.5625 60.296875 25.65625 
Q 61.421875 22.75 61.421875 19.390625 
z
M 48.046875 50.984375 
Q 48.046875 56.546875 44.234375 58.9375 
Q 40.4375 61.328125 33.203125 61.328125 
L 17.53125 61.328125 
L 17.53125 39.546875 
L 33.203125 39.546875 
Q 37.3125 39.546875 40.140625 40.34375 
Q 42.96875 41.15625 44.71875 42.640625 
Q 46.484375 44.140625 47.265625 46.234375 
Q 48.046875 48.34375 48.046875 50.984375 
z
M 52 20.125 
Q 52 23.390625 50.796875 25.6875 
Q 49.609375 27.984375 47.359375 29.4375 
Q 45.125 30.90625 41.96875 31.59375 
Q 38.8125 32.28125 34.90625 32.28125 
L 17.53125 32.28125 
L 17.53125 7.46875 
L 35.640625 7.46875 
Q 39.203125 7.46875 42.203125 8.046875 
Q 45.21875 8.640625 47.390625 10.109375 
Q 49.5625 11.578125 50.78125 14.015625 
Q 52 16.453125 52 20.125 
z
" id="LiberationSans-66"/>
      <path d="M 2.390625 0 
L 2.390625 6.6875 
L 34.671875 46.046875 
L 4.34375 46.046875 
L 4.34375 52.828125 
L 44.578125 52.828125 
L 44.578125 46.140625 
L 12.25 6.78125 
L 46.390625 6.78125 
L 46.390625 0 
z
" id="LiberationSans-122"/>
     </defs>
     <g style="fill:#262626;" transform="translate(629.051563 41.36875)scale(0.1 -0.1)">
      <use xlink:href="#LiberationSans-66"/>
      <use x="66.699219" xlink:href="#LiberationSans-114"/>
      <use x="100" xlink:href="#LiberationSans-97"/>
      <use x="155.615234" xlink:href="#LiberationSans-122"/>
      <use x="205.615234" xlink:href="#LiberationSans-105"/>
      <use x="227.832031" xlink:href="#LiberationSans-108"/>
     </g>
    </g>
    <g id="line2d_31">
     <path d="M 601.051563 52.190625 
L 621.051563 52.190625 
" style="fill:none;stroke:#ae54a5;stroke-dasharray:6.475,2.8;stroke-dashoffset:0;stroke-width:1.75;"/>
    </g>
    <g id="line2d_32"/>
    <g id="text_18">
     <!-- China -->
     <defs>
      <path d="M 38.671875 62.203125 
Q 32.8125 62.203125 28.296875 60.25 
Q 23.78125 58.296875 20.71875 54.6875 
Q 17.671875 51.078125 16.109375 46 
Q 14.546875 40.921875 14.546875 34.71875 
Q 14.546875 28.515625 16.234375 23.359375 
Q 17.921875 18.21875 21.0625 14.5 
Q 24.21875 10.796875 28.78125 8.734375 
Q 33.34375 6.6875 39.0625 6.6875 
Q 43.0625 6.6875 46.359375 7.734375 
Q 49.65625 8.796875 52.3125 10.6875 
Q 54.984375 12.59375 57.078125 15.203125 
Q 59.1875 17.828125 60.796875 21 
L 68.40625 17.1875 
Q 66.546875 13.328125 63.8125 10 
Q 61.078125 6.6875 57.390625 4.25 
Q 53.71875 1.8125 49.046875 0.40625 
Q 44.390625 -0.984375 38.625 -0.984375 
Q 30.28125 -0.984375 24 1.671875 
Q 17.71875 4.34375 13.5 9.109375 
Q 9.28125 13.875 7.171875 20.40625 
Q 5.078125 26.953125 5.078125 34.71875 
Q 5.078125 42.78125 7.296875 49.265625 
Q 9.515625 55.765625 13.78125 60.328125 
Q 18.0625 64.890625 24.3125 67.359375 
Q 30.5625 69.828125 38.578125 69.828125 
Q 49.5625 69.828125 56.9375 65.53125 
Q 64.3125 61.234375 67.78125 52.78125 
L 58.9375 49.859375 
Q 57.953125 52.296875 56.296875 54.515625 
Q 54.640625 56.734375 52.140625 58.4375 
Q 49.65625 60.15625 46.3125 61.171875 
Q 42.96875 62.203125 38.671875 62.203125 
z
" id="LiberationSans-67"/>
      <path d="M 15.484375 43.796875 
Q 16.9375 46.484375 18.640625 48.359375 
Q 20.359375 50.25 22.40625 51.46875 
Q 24.46875 52.6875 26.90625 53.25 
Q 29.34375 53.8125 32.375 53.8125 
Q 37.453125 53.8125 40.703125 52.4375 
Q 43.953125 51.078125 45.828125 48.609375 
Q 47.703125 46.140625 48.40625 42.71875 
Q 49.125 39.3125 49.125 35.203125 
L 49.125 0 
L 40.28125 0 
L 40.28125 33.5 
Q 40.28125 36.859375 39.859375 39.390625 
Q 39.453125 41.9375 38.28125 43.625 
Q 37.109375 45.3125 34.953125 46.15625 
Q 32.8125 47.015625 29.390625 47.015625 
Q 26.265625 47.015625 23.75 45.890625 
Q 21.234375 44.78125 19.453125 42.71875 
Q 17.671875 40.671875 16.6875 37.734375 
Q 15.71875 34.8125 15.71875 31.15625 
L 15.71875 0 
L 6.9375 0 
L 6.9375 72.46875 
L 15.71875 72.46875 
L 15.71875 53.609375 
Q 15.71875 52 15.671875 50.390625 
Q 15.625 48.78125 15.546875 47.40625 
Q 15.484375 46.046875 15.421875 45.09375 
Q 15.375 44.140625 15.328125 43.796875 
z
" id="LiberationSans-104"/>
     </defs>
     <g style="fill:#262626;" transform="translate(629.051563 55.690625)scale(0.1 -0.1)">
      <use xlink:href="#LiberationSans-67"/>
      <use x="72.216797" xlink:href="#LiberationSans-104"/>
      <use x="127.832031" xlink:href="#LiberationSans-105"/>
      <use x="150.048828" xlink:href="#LiberationSans-110"/>
      <use x="205.664062" xlink:href="#LiberationSans-97"/>
     </g>
    </g>
    <g id="line2d_33">
     <path d="M 601.051563 66.5125 
L 621.051563 66.5125 
" style="fill:none;stroke:#0309a6;stroke-linecap:round;stroke-width:1.75;"/>
    </g>
    <g id="line2d_34"/>
    <g id="text_19">
     <!-- France -->
     <defs>
      <path d="M 17.53125 61.1875 
L 17.53125 35.59375 
L 55.90625 35.59375 
L 55.90625 27.875 
L 17.53125 27.875 
L 17.53125 0 
L 8.203125 0 
L 8.203125 68.796875 
L 57.078125 68.796875 
L 57.078125 61.1875 
z
" id="LiberationSans-70"/>
     </defs>
     <g style="fill:#262626;" transform="translate(629.051563 70.0125)scale(0.1 -0.1)">
      <use xlink:href="#LiberationSans-70"/>
      <use x="61.083984" xlink:href="#LiberationSans-114"/>
      <use x="94.384766" xlink:href="#LiberationSans-97"/>
      <use x="150" xlink:href="#LiberationSans-110"/>
      <use x="205.615234" xlink:href="#LiberationSans-99"/>
      <use x="255.615234" xlink:href="#LiberationSans-101"/>
     </g>
    </g>
    <g id="line2d_35">
     <path d="M 601.051563 80.834375 
L 621.051563 80.834375 
" style="fill:none;stroke:#d8b009;stroke-linecap:round;stroke-width:1.75;"/>
    </g>
    <g id="line2d_36"/>
    <g id="text_20">
     <!-- Germany -->
     <defs>
      <path d="M 5.03125 34.71875 
Q 5.03125 42.78125 7.203125 49.265625 
Q 9.375 55.765625 13.6875 60.328125 
Q 18.015625 64.890625 24.40625 67.359375 
Q 30.8125 69.828125 39.265625 69.828125 
Q 45.609375 69.828125 50.390625 68.703125 
Q 55.171875 67.578125 58.6875 65.46875 
Q 62.203125 63.375 64.640625 60.375 
Q 67.09375 57.375 68.796875 53.609375 
L 59.90625 50.984375 
Q 58.640625 53.515625 56.859375 55.59375 
Q 55.078125 57.671875 52.53125 59.125 
Q 50 60.59375 46.65625 61.390625 
Q 43.3125 62.203125 39.015625 62.203125 
Q 32.765625 62.203125 28.140625 60.25 
Q 23.53125 58.296875 20.5 54.6875 
Q 17.484375 51.078125 15.984375 46 
Q 14.5 40.921875 14.5 34.71875 
Q 14.5 28.515625 16.109375 23.359375 
Q 17.71875 18.21875 20.890625 14.484375 
Q 24.078125 10.75 28.78125 8.671875 
Q 33.5 6.59375 39.703125 6.59375 
Q 43.75 6.59375 47.171875 7.265625 
Q 50.59375 7.953125 53.34375 9.046875 
Q 56.109375 10.15625 58.203125 11.5 
Q 60.296875 12.84375 61.71875 14.203125 
L 61.71875 26.609375 
L 41.15625 26.609375 
L 41.15625 34.421875 
L 70.3125 34.421875 
L 70.3125 10.6875 
Q 68.015625 8.34375 64.90625 6.21875 
Q 61.8125 4.109375 57.953125 2.484375 
Q 54.109375 0.875 49.515625 -0.046875 
Q 44.921875 -0.984375 39.703125 -0.984375 
Q 31 -0.984375 24.5 1.671875 
Q 18.015625 4.34375 13.6875 9.109375 
Q 9.375 13.875 7.203125 20.40625 
Q 5.03125 26.953125 5.03125 34.71875 
z
" id="LiberationSans-71"/>
      <path d="M 37.5 0 
L 37.5 33.5 
Q 37.5 37.359375 37.015625 39.9375 
Q 36.53125 42.53125 35.375 44.109375 
Q 34.234375 45.703125 32.375 46.359375 
Q 30.515625 47.015625 27.828125 47.015625 
Q 25.046875 47.015625 22.796875 45.921875 
Q 20.5625 44.828125 18.96875 42.75 
Q 17.390625 40.671875 16.53125 37.625 
Q 15.671875 34.578125 15.671875 30.609375 
L 15.671875 0 
L 6.9375 0 
L 6.9375 41.546875 
Q 6.9375 43.21875 6.90625 45.046875 
Q 6.890625 46.875 6.828125 48.5 
Q 6.78125 50.140625 6.734375 51.3125 
Q 6.6875 52.484375 6.640625 52.828125 
L 14.9375 52.828125 
Q 14.984375 52.59375 15.03125 51.515625 
Q 15.09375 50.4375 15.15625 49.046875 
Q 15.234375 47.65625 15.28125 46.21875 
Q 15.328125 44.78125 15.328125 43.796875 
L 15.484375 43.796875 
Q 16.65625 46.09375 18.015625 47.953125 
Q 19.390625 49.8125 21.21875 51.09375 
Q 23.046875 52.390625 25.40625 53.09375 
Q 27.78125 53.8125 30.90625 53.8125 
Q 36.921875 53.8125 40.40625 51.421875 
Q 43.890625 49.03125 45.265625 43.796875 
L 45.40625 43.796875 
Q 46.578125 46.09375 48.046875 47.953125 
Q 49.515625 49.8125 51.46875 51.09375 
Q 53.421875 52.390625 55.859375 53.09375 
Q 58.296875 53.8125 61.421875 53.8125 
Q 65.4375 53.8125 68.328125 52.734375 
Q 71.234375 51.65625 73.09375 49.40625 
Q 74.953125 47.171875 75.828125 43.625 
Q 76.703125 40.09375 76.703125 35.203125 
L 76.703125 0 
L 68.015625 0 
L 68.015625 33.5 
Q 68.015625 37.359375 67.53125 39.9375 
Q 67.046875 42.53125 65.890625 44.109375 
Q 64.75 45.703125 62.890625 46.359375 
Q 61.03125 47.015625 58.34375 47.015625 
Q 55.5625 47.015625 53.3125 45.96875 
Q 51.078125 44.921875 49.484375 42.875 
Q 47.90625 40.828125 47.046875 37.75 
Q 46.1875 34.671875 46.1875 30.609375 
L 46.1875 0 
z
" id="LiberationSans-109"/>
     </defs>
     <g style="fill:#262626;" transform="translate(629.051563 84.334375)scale(0.1 -0.1)">
      <use xlink:href="#LiberationSans-71"/>
      <use x="77.783203" xlink:href="#LiberationSans-101"/>
      <use x="133.398438" xlink:href="#LiberationSans-114"/>
      <use x="166.699219" xlink:href="#LiberationSans-109"/>
      <use x="250" xlink:href="#LiberationSans-97"/>
      <use x="305.615234" xlink:href="#LiberationSans-110"/>
      <use x="361.230469" xlink:href="#LiberationSans-121"/>
     </g>
    </g>
    <g id="line2d_37">
     <path d="M 601.051563 95.15625 
L 621.051563 95.15625 
" style="fill:none;stroke:#1007e1;stroke-linecap:round;stroke-width:1.75;"/>
    </g>
    <g id="line2d_38"/>
    <g id="text_21">
     <!-- Italy -->
     <defs>
      <path d="M 9.234375 0 
L 9.234375 68.796875 
L 18.5625 68.796875 
L 18.5625 0 
z
" id="LiberationSans-73"/>
     </defs>
     <g style="fill:#262626;" transform="translate(629.051563 98.65625)scale(0.1 -0.1)">
      <use xlink:href="#LiberationSans-73"/>
      <use x="27.783203" xlink:href="#LiberationSans-116"/>
      <use x="55.566406" xlink:href="#LiberationSans-97"/>
      <use x="111.181641" xlink:href="#LiberationSans-108"/>
      <use x="133.398438" xlink:href="#LiberationSans-121"/>
     </g>
    </g>
    <g id="line2d_39">
     <path d="M 601.051563 109.478125 
L 621.051563 109.478125 
" style="fill:none;stroke:#a67d4c;stroke-linecap:round;stroke-width:1.75;"/>
    </g>
    <g id="line2d_40"/>
    <g id="text_22">
     <!-- Netherlands -->
     <defs>
      <path d="M 52.828125 0 
L 16.015625 58.59375 
Q 16.109375 56.203125 16.265625 53.859375 
Q 16.359375 51.859375 16.421875 49.625 
Q 16.5 47.40625 16.5 45.703125 
L 16.5 0 
L 8.203125 0 
L 8.203125 68.796875 
L 19.046875 68.796875 
L 56.25 9.8125 
Q 56.109375 12.203125 55.953125 14.59375 
Q 55.859375 16.65625 55.765625 19.0625 
Q 55.671875 21.484375 55.671875 23.6875 
L 55.671875 68.796875 
L 64.0625 68.796875 
L 64.0625 0 
z
" id="LiberationSans-78"/>
      <path d="M 40.09375 8.5 
Q 37.640625 3.421875 33.609375 1.21875 
Q 29.59375 -0.984375 23.640625 -0.984375 
Q 13.625 -0.984375 8.90625 5.75 
Q 4.203125 12.5 4.203125 26.171875 
Q 4.203125 53.8125 23.640625 53.8125 
Q 29.640625 53.8125 33.640625 51.609375 
Q 37.640625 49.421875 40.09375 44.625 
L 40.1875 44.625 
Q 40.1875 45.125 40.15625 46.171875 
Q 40.140625 47.21875 40.109375 48.359375 
Q 40.09375 49.515625 40.09375 50.53125 
Q 40.09375 51.5625 40.09375 52 
L 40.09375 72.46875 
L 48.875 72.46875 
L 48.875 10.890625 
Q 48.875 8.984375 48.890625 7.21875 
Q 48.921875 5.46875 48.96875 4 
Q 49.03125 2.546875 49.078125 1.484375 
Q 49.125 0.4375 49.171875 0 
L 40.765625 0 
Q 40.671875 0.484375 40.59375 1.390625 
Q 40.53125 2.296875 40.453125 3.46875 
Q 40.375 4.640625 40.328125 5.9375 
Q 40.28125 7.234375 40.28125 8.5 
z
M 13.421875 26.46875 
Q 13.421875 21 14.109375 17.09375 
Q 14.796875 13.1875 16.3125 10.671875 
Q 17.828125 8.15625 20.171875 6.984375 
Q 22.515625 5.8125 25.875 5.8125 
Q 29.34375 5.8125 32 6.9375 
Q 34.671875 8.0625 36.453125 10.578125 
Q 38.234375 13.09375 39.15625 17.140625 
Q 40.09375 21.1875 40.09375 27.046875 
Q 40.09375 32.671875 39.15625 36.546875 
Q 38.234375 40.4375 36.421875 42.828125 
Q 34.625 45.21875 32 46.265625 
Q 29.390625 47.3125 25.984375 47.3125 
Q 22.75 47.3125 20.40625 46.1875 
Q 18.0625 45.0625 16.5 42.578125 
Q 14.9375 40.09375 14.171875 36.109375 
Q 13.421875 32.125 13.421875 26.46875 
z
" id="LiberationSans-100"/>
     </defs>
     <g style="fill:#262626;" transform="translate(629.051563 112.978125)scale(0.1 -0.1)">
      <use xlink:href="#LiberationSans-78"/>
      <use x="72.216797" xlink:href="#LiberationSans-101"/>
      <use x="127.832031" xlink:href="#LiberationSans-116"/>
      <use x="155.615234" xlink:href="#LiberationSans-104"/>
      <use x="211.230469" xlink:href="#LiberationSans-101"/>
      <use x="266.845703" xlink:href="#LiberationSans-114"/>
      <use x="300.146484" xlink:href="#LiberationSans-108"/>
      <use x="322.363281" xlink:href="#LiberationSans-97"/>
      <use x="377.978516" xlink:href="#LiberationSans-110"/>
      <use x="433.59375" xlink:href="#LiberationSans-100"/>
      <use x="489.208984" xlink:href="#LiberationSans-115"/>
     </g>
    </g>
    <g id="line2d_41">
     <path d="M 601.051563 123.8 
L 621.051563 123.8 
" style="fill:none;stroke:#ea71b3;stroke-linecap:round;stroke-width:1.75;"/>
    </g>
    <g id="line2d_42"/>
    <g id="text_23">
     <!-- Portugal -->
     <defs>
      <path d="M 61.421875 48.09375 
Q 61.421875 43.609375 59.9375 39.71875 
Q 58.453125 35.84375 55.5 32.984375 
Q 52.546875 30.125 48.09375 28.46875 
Q 43.65625 26.8125 37.75 26.8125 
L 17.53125 26.8125 
L 17.53125 0 
L 8.203125 0 
L 8.203125 68.796875 
L 37.15625 68.796875 
Q 43.265625 68.796875 47.796875 67.3125 
Q 52.34375 65.828125 55.375 63.109375 
Q 58.40625 60.40625 59.90625 56.5625 
Q 61.421875 52.734375 61.421875 48.09375 
z
M 52.046875 48 
Q 52.046875 54.546875 48.046875 57.9375 
Q 44.046875 61.328125 36.03125 61.328125 
L 17.53125 61.328125 
L 17.53125 34.1875 
L 36.421875 34.1875 
Q 44.484375 34.1875 48.265625 37.75 
Q 52.046875 41.3125 52.046875 48 
z
" id="LiberationSans-80"/>
      <path d="M 26.765625 -20.75 
Q 22.21875 -20.75 18.703125 -19.8125 
Q 15.1875 -18.890625 12.6875 -17.15625 
Q 10.203125 -15.4375 8.640625 -13.03125 
Q 7.078125 -10.640625 6.390625 -7.71875 
L 15.234375 -6.453125 
Q 16.109375 -10.109375 19.109375 -12.078125 
Q 22.125 -14.0625 27 -14.0625 
Q 29.984375 -14.0625 32.421875 -13.234375 
Q 34.859375 -12.40625 36.5625 -10.5625 
Q 38.28125 -8.734375 39.203125 -5.796875 
Q 40.140625 -2.875 40.140625 1.3125 
L 40.140625 9.8125 
L 40.046875 9.8125 
Q 39.0625 7.8125 37.625 5.984375 
Q 36.1875 4.15625 34.109375 2.734375 
Q 32.03125 1.3125 29.296875 0.453125 
Q 26.5625 -0.390625 23.046875 -0.390625 
Q 18.015625 -0.390625 14.421875 1.296875 
Q 10.84375 2.984375 8.5625 6.34375 
Q 6.296875 9.71875 5.25 14.71875 
Q 4.203125 19.734375 4.203125 26.3125 
Q 4.203125 32.671875 5.25 37.75 
Q 6.296875 42.828125 8.65625 46.359375 
Q 11.03125 49.90625 14.8125 51.78125 
Q 18.609375 53.65625 24.03125 53.65625 
Q 29.640625 53.65625 33.765625 51.09375 
Q 37.890625 48.53125 40.140625 43.796875 
L 40.234375 43.796875 
Q 40.234375 45.015625 40.296875 46.53125 
Q 40.375 48.046875 40.453125 49.390625 
Q 40.53125 50.734375 40.625 51.703125 
Q 40.71875 52.6875 40.828125 52.828125 
L 49.171875 52.828125 
Q 49.125 52.390625 49.078125 51.34375 
Q 49.03125 50.296875 48.96875 48.828125 
Q 48.921875 47.359375 48.890625 45.578125 
Q 48.875 43.796875 48.875 41.890625 
L 48.875 1.515625 
Q 48.875 -9.578125 43.421875 -15.15625 
Q 37.984375 -20.75 26.765625 -20.75 
z
M 40.140625 26.421875 
Q 40.140625 31.9375 38.9375 35.859375 
Q 37.75 39.796875 35.796875 42.28125 
Q 33.84375 44.78125 31.328125 45.953125 
Q 28.8125 47.125 26.171875 47.125 
Q 22.796875 47.125 20.375 45.953125 
Q 17.96875 44.78125 16.375 42.265625 
Q 14.796875 39.75 14.03125 35.8125 
Q 13.28125 31.890625 13.28125 26.421875 
Q 13.28125 20.703125 14.03125 16.8125 
Q 14.796875 12.9375 16.359375 10.546875 
Q 17.921875 8.15625 20.3125 7.125 
Q 22.703125 6.109375 26.03125 6.109375 
Q 28.65625 6.109375 31.171875 7.21875 
Q 33.6875 8.34375 35.6875 10.78125 
Q 37.703125 13.234375 38.921875 17.09375 
Q 40.140625 20.953125 40.140625 26.421875 
z
" id="LiberationSans-103"/>
     </defs>
     <g style="fill:#262626;" transform="translate(629.051563 127.3)scale(0.1 -0.1)">
      <use xlink:href="#LiberationSans-80"/>
      <use x="66.699219" xlink:href="#LiberationSans-111"/>
      <use x="122.314453" xlink:href="#LiberationSans-114"/>
      <use x="155.615234" xlink:href="#LiberationSans-116"/>
      <use x="183.398438" xlink:href="#LiberationSans-117"/>
      <use x="239.013672" xlink:href="#LiberationSans-103"/>
      <use x="294.628906" xlink:href="#LiberationSans-97"/>
      <use x="350.244141" xlink:href="#LiberationSans-108"/>
     </g>
    </g>
    <g id="line2d_43">
     <path d="M 601.051563 138.121875 
L 621.051563 138.121875 
" style="fill:none;stroke:#5feb16;stroke-linecap:round;stroke-width:1.75;"/>
    </g>
    <g id="line2d_44"/>
    <g id="text_24">
     <!-- Russia -->
     <defs>
      <path d="M 56.84375 0 
L 38.96875 28.5625 
L 17.53125 28.5625 
L 17.53125 0 
L 8.203125 0 
L 8.203125 68.796875 
L 40.578125 68.796875 
Q 46.4375 68.796875 50.953125 67.453125 
Q 55.46875 66.109375 58.546875 63.5625 
Q 61.625 61.03125 63.234375 57.375 
Q 64.84375 53.71875 64.84375 49.125 
Q 64.84375 45.84375 63.890625 42.671875 
Q 62.9375 39.5 60.890625 36.859375 
Q 58.84375 34.234375 55.65625 32.328125 
Q 52.484375 30.421875 48.046875 29.640625 
L 67.578125 0 
z
M 55.46875 49.03125 
Q 55.46875 52.15625 54.390625 54.4375 
Q 53.328125 56.734375 51.265625 58.265625 
Q 49.21875 59.8125 46.28125 60.5625 
Q 43.359375 61.328125 39.65625 61.328125 
L 17.53125 61.328125 
L 17.53125 35.9375 
L 40.046875 35.9375 
Q 44.046875 35.9375 46.96875 36.9375 
Q 49.90625 37.9375 51.78125 39.6875 
Q 53.65625 41.453125 54.5625 43.84375 
Q 55.46875 46.234375 55.46875 49.03125 
z
" id="LiberationSans-82"/>
     </defs>
     <g style="fill:#262626;" transform="translate(629.051563 141.621875)scale(0.1 -0.1)">
      <use xlink:href="#LiberationSans-82"/>
      <use x="72.216797" xlink:href="#LiberationSans-117"/>
      <use x="127.832031" xlink:href="#LiberationSans-115"/>
      <use x="177.832031" xlink:href="#LiberationSans-115"/>
      <use x="227.832031" xlink:href="#LiberationSans-105"/>
      <use x="250.048828" xlink:href="#LiberationSans-97"/>
     </g>
    </g>
    <g id="line2d_45">
     <path d="M 601.051563 152.44375 
L 621.051563 152.44375 
" style="fill:none;stroke:#907eba;stroke-linecap:round;stroke-width:1.75;"/>
    </g>
    <g id="line2d_46"/>
    <g id="text_25">
     <!-- Spain -->
     <defs>
      <path d="M 62.109375 19 
Q 62.109375 14.65625 60.421875 10.984375 
Q 58.734375 7.328125 55.21875 4.65625 
Q 51.703125 2 46.359375 0.5 
Q 41.015625 -0.984375 33.6875 -0.984375 
Q 20.84375 -0.984375 13.671875 3.515625 
Q 6.5 8.015625 4.546875 16.5 
L 13.578125 18.3125 
Q 14.265625 15.625 15.671875 13.421875 
Q 17.09375 11.234375 19.5 9.640625 
Q 21.921875 8.0625 25.484375 7.171875 
Q 29.046875 6.296875 34.03125 6.296875 
Q 38.1875 6.296875 41.65625 7 
Q 45.125 7.71875 47.609375 9.171875 
Q 50.09375 10.640625 51.484375 12.953125 
Q 52.875 15.28125 52.875 18.5 
Q 52.875 21.875 51.34375 23.96875 
Q 49.8125 26.078125 47.015625 27.4375 
Q 44.234375 28.8125 40.375 29.734375 
Q 36.53125 30.671875 31.84375 31.734375 
Q 28.953125 32.375 26.046875 33.125 
Q 23.140625 33.890625 20.484375 34.9375 
Q 17.828125 35.984375 15.484375 37.390625 
Q 13.140625 38.8125 11.421875 40.796875 
Q 9.71875 42.78125 8.734375 45.390625 
Q 7.765625 48 7.765625 51.421875 
Q 7.765625 56.296875 9.734375 59.78125 
Q 11.71875 63.28125 15.234375 65.53125 
Q 18.75 67.78125 23.53125 68.796875 
Q 28.328125 69.828125 33.890625 69.828125 
Q 40.28125 69.828125 44.8125 68.828125 
Q 49.359375 67.828125 52.484375 65.8125 
Q 55.609375 63.8125 57.484375 60.859375 
Q 59.375 57.90625 60.5 54 
L 51.3125 52.390625 
Q 50.640625 54.890625 49.34375 56.84375 
Q 48.046875 58.796875 45.9375 60.109375 
Q 43.84375 61.421875 40.84375 62.109375 
Q 37.84375 62.796875 33.796875 62.796875 
Q 29 62.796875 25.75 61.9375 
Q 22.515625 61.078125 20.53125 59.609375 
Q 18.5625 58.15625 17.703125 56.171875 
Q 16.84375 54.203125 16.84375 51.90625 
Q 16.84375 48.828125 18.375 46.84375 
Q 19.921875 44.875 22.5625 43.546875 
Q 25.203125 42.234375 28.65625 41.359375 
Q 32.125 40.484375 36.03125 39.59375 
Q 39.203125 38.875 42.359375 38.109375 
Q 45.515625 37.359375 48.390625 36.296875 
Q 51.265625 35.25 53.78125 33.828125 
Q 56.296875 32.421875 58.15625 30.375 
Q 60.015625 28.328125 61.0625 25.53125 
Q 62.109375 22.75 62.109375 19 
z
" id="LiberationSans-83"/>
     </defs>
     <g style="fill:#262626;" transform="translate(629.051563 155.94375)scale(0.1 -0.1)">
      <use xlink:href="#LiberationSans-83"/>
      <use x="66.699219" xlink:href="#LiberationSans-112"/>
      <use x="122.314453" xlink:href="#LiberationSans-97"/>
      <use x="177.929688" xlink:href="#LiberationSans-105"/>
      <use x="200.146484" xlink:href="#LiberationSans-110"/>
     </g>
    </g>
    <g id="line2d_47">
     <path d="M 601.051563 166.765625 
L 621.051563 166.765625 
" style="fill:none;stroke:#221cdf;stroke-linecap:round;stroke-width:1.75;"/>
    </g>
    <g id="line2d_48"/>
    <g id="text_26">
     <!-- Turkey -->
     <defs>
      <path d="M 39.84375 0 
L 21.96875 24.125 
L 15.53125 18.796875 
L 15.53125 0 
L 6.734375 0 
L 6.734375 72.46875 
L 15.53125 72.46875 
L 15.53125 27.203125 
L 38.71875 52.828125 
L 49.03125 52.828125 
L 27.59375 30.125 
L 50.140625 0 
z
" id="LiberationSans-107"/>
     </defs>
     <g style="fill:#262626;" transform="translate(629.051563 170.265625)scale(0.1 -0.1)">
      <use xlink:href="#LiberationSans-84"/>
      <use x="57.333984" xlink:href="#LiberationSans-117"/>
      <use x="112.949219" xlink:href="#LiberationSans-114"/>
      <use x="146.25" xlink:href="#LiberationSans-107"/>
      <use x="196.25" xlink:href="#LiberationSans-101"/>
      <use x="251.865234" xlink:href="#LiberationSans-121"/>
     </g>
    </g>
    <g id="line2d_49">
     <path d="M 601.051563 181.0875 
L 621.051563 181.0875 
" style="fill:none;stroke:#7516fd;stroke-dasharray:6.475,2.8;stroke-dashoffset:0;stroke-width:1.75;"/>
    </g>
    <g id="line2d_50"/>
    <g id="text_27">
     <!-- US -->
     <defs>
      <path d="M 35.6875 -0.984375 
Q 30.03125 -0.984375 24.953125 0.53125 
Q 19.875 2.046875 16.03125 5.25 
Q 12.203125 8.453125 9.953125 13.359375 
Q 7.71875 18.265625 7.71875 25 
L 7.71875 68.796875 
L 17.046875 68.796875 
L 17.046875 25.78125 
Q 17.046875 20.5625 18.4375 16.921875 
Q 19.828125 13.28125 22.3125 10.984375 
Q 24.8125 8.6875 28.203125 7.640625 
Q 31.59375 6.59375 35.640625 6.59375 
Q 39.65625 6.59375 43.21875 7.65625 
Q 46.78125 8.734375 49.46875 11.078125 
Q 52.15625 13.421875 53.6875 17.203125 
Q 55.21875 21 55.21875 26.421875 
L 55.21875 68.796875 
L 64.5 68.796875 
L 64.5 25.875 
Q 64.5 19 62.234375 13.9375 
Q 59.96875 8.890625 56.0625 5.5625 
Q 52.15625 2.25 46.90625 0.625 
Q 41.65625 -0.984375 35.6875 -0.984375 
z
" id="LiberationSans-85"/>
     </defs>
     <g style="fill:#262626;" transform="translate(629.051563 184.5875)scale(0.1 -0.1)">
      <use xlink:href="#LiberationSans-85"/>
      <use x="72.216797" xlink:href="#LiberationSans-83"/>
     </g>
    </g>
    <g id="line2d_51">
     <path d="M 601.051563 195.409375 
L 621.051563 195.409375 
" style="fill:none;stroke:#89f9c9;stroke-linecap:round;stroke-width:1.75;"/>
    </g>
    <g id="line2d_52"/>
    <g id="text_28">
     <!-- United Kingdom -->
     <defs>
      <path d="M 54 0 
L 26.515625 33.203125 
L 17.53125 26.375 
L 17.53125 0 
L 8.203125 0 
L 8.203125 68.796875 
L 17.53125 68.796875 
L 17.53125 34.328125 
L 50.6875 68.796875 
L 61.671875 68.796875 
L 32.375 38.921875 
L 65.578125 0 
z
" id="LiberationSans-75"/>
     </defs>
     <g style="fill:#262626;" transform="translate(629.051563 198.909375)scale(0.1 -0.1)">
      <use xlink:href="#LiberationSans-85"/>
      <use x="72.216797" xlink:href="#LiberationSans-110"/>
      <use x="127.832031" xlink:href="#LiberationSans-105"/>
      <use x="150.048828" xlink:href="#LiberationSans-116"/>
      <use x="177.832031" xlink:href="#LiberationSans-101"/>
      <use x="233.447266" xlink:href="#LiberationSans-100"/>
      <use x="289.0625" xlink:href="#LiberationSans-32"/>
      <use x="316.845703" xlink:href="#LiberationSans-75"/>
      <use x="383.544922" xlink:href="#LiberationSans-105"/>
      <use x="405.761719" xlink:href="#LiberationSans-110"/>
      <use x="461.376953" xlink:href="#LiberationSans-103"/>
      <use x="516.992188" xlink:href="#LiberationSans-100"/>
      <use x="572.607422" xlink:href="#LiberationSans-111"/>
      <use x="628.222656" xlink:href="#LiberationSans-109"/>
     </g>
    </g>
   </g>
  </g>
 </g>
 <defs>
  <clipPath id="pa6a6d18487">
   <rect height="298.355396" width="654.91" x="54.29" y="10.8"/>
  </clipPath>
 </defs>
</svg>
